v 2.846952438354492 10.0 11.0
v 3.0 9.334183692932129 11.0
v 3.0 10.0 10.686992645263672
v 2.846952438354492 10.0 12.0
v 3.0 9.334183692932129 12.0
v 3.0 10.0 12.313007354736328
v 2.733036518096924 11.0 11.0
v 3.0 11.0 10.474811553955078
v 2.733036518096924 11.0 12.0
v 3.0 11.0 12.525188446044922
v 2.733036518096924 12.0 11.0
v 3.0 12.0 10.474811553955078
v 2.733036518096924 12.0 12.0
v 3.0 12.0 12.525188446044922
v 2.846952438354492 13.0 11.0
v 3.0 13.0 10.686992645263672
v 2.846952438354492 13.0 12.0
v 3.0 13.0 12.313007354736328
v 3.0 13.665816307067871 11.0
v 3.0 13.665816307067871 12.0
v 3.957517385482788 7.0 11.0
v 4.0 6.933013916015625 11.0
v 4.0 7.0 10.919508934020996
v 3.957517385482788 7.0 12.0
v 4.0 6.933013916015625 12.0
v 4.0 7.0 12.080491065979004
v 3.4499423503875732 8.0 11.0
v 4.0 8.0 10.11269474029541
v 3.4499423503875732 8.0 12.0
v 4.0 8.0 12.88730525970459
v 3.73877215385437 9.0 10.0
v 4.0 8.257478713989258 10.0
v 4.0 9.0 9.795585632324219
v 3.08168888092041 9.0 11.0
v 3.08168888092041 9.0 12.0
v 4.0 8.257478713989258 13.0
v 3.73877215385437 9.0 13.0
v 4.0 9.0 13.204414367675781
v 3.5048580169677734 10.0 10.0
v 4.0 10.0 9.654561042785645
v 3.5048580169677734 10.0 13.0
v 4.0 10.0 13.345438957214355
v 3.383319616317749 11.0 10.0
v 4.0 11.0 9.598273277282715
v 3.383319616317749 11.0 13.0
v 4.0 11.0 13.401726722717285
v 3.383319616317749 12.0 10.0
v 4.0 12.0 9.598273277282715
v 3.383319616317749 12.0 13.0
v 4.0 12.0 13.401726722717285
v 3.5048580169677734 13.0 10.0
v 4.0 13.0 9.654561042785645
v 3.5048580169677734 13.0 13.0
v 4.0 13.0 13.345438957214355
v 3.73877215385437 14.0 10.0
v 4.0 14.0 9.795585632324219
v 3.08168888092041 14.0 11.0
v 3.08168888092041 14.0 12.0
v 3.73877215385437 14.0 13.0
v 4.0 14.0 13.204414367675781
v 4.0 14.742521286010742 10.0
v 4.0 15.0 10.11269474029541
v 3.4499423503875732 15.0 11.0
v 3.4499423503875732 15.0 12.0
v 4.0 15.0 12.88730525970459
v 4.0 14.742521286010742 13.0
v 3.957517385482788 16.0 11.0
v 4.0 16.0 10.919508934020996
v 3.957517385482788 16.0 12.0
v 4.0 16.0 12.080491065979004
v 4.0 16.066986083984375 11.0
v 4.0 16.066986083984375 12.0
v 4.660058975219727 6.0 11.0
v 5.0 5.605308532714844 11.0
v 5.0 6.0 10.474811553955078
v 4.660058975219727 6.0 12.0
v 5.0 5.605308532714844 12.0
v 5.0 6.0 12.525188446044922
v 4.698711395263672 7.0 10.0
v 5.0 6.56832218170166 10.0
v 5.0 7.0 9.795585632324219
v 4.698711395263672 7.0 13.0
v 5.0 6.56832218170166 13.0
v 5.0 7.0 13.204414367675781
v 4.125656604766846 8.0 10.0
v 5.0 8.0 9.551584243774414
v 4.125656604766846 8.0 13.0
v 5.0 8.0 13.448415756225586
v 5.0 9.0 9.470776557922363
v 5.0 9.0 13.529223442077637
v 5.0 10.0 9.469735145568848
v 5.0 10.0 13.530264854431152
v 5.0 11.0 9.486964225769043
v 5.0 11.0 13.513035774230957
v 5.0 12.0 9.486964225769043
v 5.0 12.0 13.513035774230957
v 5.0 13.0 9.469735145568848
v 5.0 13.0 13.530264854431152
v 5.0 14.0 9.470776557922363
v 5.0 14.0 13.529223442077637
v 4.125656604766846 15.0 10.0
v 5.0 15.0 9.551584243774414
v 4.125656604766846 15.0 13.0
v 5.0 15.0 13.448415756225586
v 4.698711395263672 16.0 10.0
v 5.0 16.0 9.795585632324219
v 4.698711395263672 16.0 13.0
v 5.0 16.0 13.204414367675781
v 5.0 16.431676864624023 10.0
v 4.660058975219727 17.0 11.0
v 5.0 17.0 10.474811553955078
v 4.660058975219727 17.0 12.0
v 5.0 17.0 12.525188446044922
v 5.0 16.431676864624023 13.0
v 5.0 17.394691467285156 11.0
v 5.0 17.394691467285156 12.0
v 5.605308532714844 5.0 11.0
v 6.0 4.660058975219727 11.0
v 6.0 5.0 10.474811553955078
v 5.605308532714844 5.0 12.0
v 6.0 4.660058975219727 12.0
v 6.0 5.0 12.525188446044922
v 5.4837422370910645 6.0 10.0
v 6.0 5.4837422370910645 10.0
v 6.0 6.0 9.720355987548828
v 5.4837422370910645 6.0 13.0
v 6.0 5.4837422370910645 13.0
v 6.0 6.0 13.279644012451172
v 6.0 7.0 9.487588882446289
v 6.0 7.0 13.512411117553711
v 6.0 8.0 9.486964225769043
v 6.0 8.0 13.513035774230957
v 6.0 9.0 9.623993873596191
v 6.0 9.0 13.376006126403809
v 6.0 10.0 9.805099487304688
v 6.0 10.0 13.194900512695312
v 6.0 11.0 9.930259704589844
v 6.0 11.0 13.069740295410156
v 6.0 12.0 9.930259704589844
v 6.0 12.0 13.069740295410156
v 6.0 13.0 9.805099487304688
v 6.0 13.0 13.194900512695312
v 6.0 14.0 9.623993873596191
v 6.0 14.0 13.376006126403809
v 6.0 15.0 9.486964225769043
v 6.0 15.0 13.513035774230957
v 6.0 16.0 9.487588882446289
v 6.0 16.0 13.512411117553711
v 5.4837422370910645 17.0 10.0
v 6.0 17.0 9.720355987548828
v 5.4837422370910645 17.0 13.0
v 6.0 17.0 13.279644012451172
v 6.0 17.516258239746094 10.0
v 5.605308532714844 18.0 11.0
v 6.0 18.0 10.474811553955078
v 5.605308532714844 18.0 12.0
v 6.0 18.0 12.525188446044922
v 6.0 17.516258239746094 13.0
v 6.0 18.339941024780273 11.0
v 6.0 18.339941024780273 12.0
v 6.933013916015625 4.0 11.0
v 7.0 3.957517385482788 11.0
v 7.0 4.0 10.919508934020996
v 6.933013916015625 4.0 12.0
v 7.0 3.957517385482788 12.0
v 7.0 4.0 12.080491065979004
v 6.56832218170166 5.0 10.0
v 7.0 4.698711395263672 10.0
v 7.0 5.0 9.795585632324219
v 6.56832218170166 5.0 13.0
v 7.0 4.698711395263672 13.0
v 7.0 5.0 13.204414367675781
v 7.0 6.0 9.487588882446289
v 7.0 6.0 13.512411117553711
v 7.0 7.0 9.517416000366211
v 7.0 7.0 13.482583999633789
v 7.0 8.0 9.805099487304688
v 7.0 8.0 13.194900512695312
v 7.0 8.45358943939209 10.0
v 6.631422996520996 9.0 10.0
v 7.0 9.0 10.405757904052734
v 6.631422996520996 9.0 13.0
v 7.0 9.0 12.594242095947266
v 7.0 8.45358943939209 13.0
v 6.24618673324585 10.0 10.0
v 7.0 9.765544891357422 11.0
v 6.899360179901123 10.0 11.0
v 7.0 9.765544891357422 12.0
v 6.899360179901123 10.0 12.0
v 6.24618673324585 10.0 13.0
v 6.077187538146973 11.0 10.0
v 6.684156894683838 11.0 11.0
v 6.684156894683838 11.0 12.0
v 6.077187538146973 11.0 13.0
v 6.077187538146973 12.0 10.0
v 6.684156894683838 12.0 11.0
v 6.684156894683838 12.0 12.0
v 6.077187538146973 12.0 13.0
v 6.24618673324585 13.0 10.0
v 6.899360179901123 13.0 11.0
v 6.899360179901123 13.0 12.0
v 6.24618673324585 13.0 13.0
v 6.631422996520996 14.0 10.0
v 7.0 14.0 10.405757904052734
v 7.0 13.234455108642578 11.0
v 7.0 13.234455108642578 12.0
v 6.631422996520996 14.0 13.0
v 7.0 14.0 12.594242095947266
v 7.0 14.54641056060791 10.0
v 7.0 15.0 9.805099487304688
v 7.0 14.54641056060791 13.0
v 7.0 15.0 13.194900512695312
v 7.0 16.0 9.517416000366211
v 7.0 16.0 13.482583999633789
v 7.0 17.0 9.487588882446289
v 7.0 17.0 13.512411117553711
v 6.56832218170166 18.0 10.0
v 7.0 18.0 9.795585632324219
v 6.56832218170166 18.0 13.0
v 7.0 18.0 13.204414367675781
v 7.0 18.301288604736328 10.0
v 6.933013916015625 19.0 11.0
v 7.0 19.0 10.919508934020996
v 6.933013916015625 19.0 12.0
v 7.0 19.0 12.080491065979004
v 7.0 18.301288604736328 13.0
v 7.0 19.042482376098633 11.0
v 7.0 19.042482376098633 12.0
v 8.0 3.4499423503875732 11.0
v 8.0 4.0 10.11269474029541
v 8.0 3.4499423503875732 12.0
v 8.0 4.0 12.88730525970459
v 8.0 4.125656604766846 10.0
v 8.0 5.0 9.551584243774414
v 8.0 4.125656604766846 13.0
v 8.0 5.0 13.448415756225586
v 8.0 6.0 9.486964225769043
v 8.0 6.0 13.513035774230957
v 8.0 7.0 9.805099487304688
v 8.0 7.0 13.194900512695312
v 8.0 7.3231611251831055 10.0
v 7.3231611251831055 8.0 10.0
v 8.0 8.0 10.766020774841309
v 7.3231611251831055 8.0 13.0
v 8.0 8.0 12.233979225158691
v 8.0 7.3231611251831055 13.0
v 8.0 8.171530723571777 11.0
v 7.363452434539795 9.0 11.0
v 8.0 8.171530723571777 12.0
v 7.363452434539795 9.0 12.0
v 7.363452434539795 14.0 11.0
v 7.363452434539795 14.0 12.0
v 7.3231611251831055 15.0 10.0
v 8.0 15.0 10.766020774841309
v 8.0 14.828469276428223 11.0
v 8.0 14.828469276428223 12.0
v 7.3231611251831055 15.0 13.0
v 8.0 15.0 12.233979225158691
v 8.0 15.676838874816895 10.0
v 8.0 16.0 9.805099487304688
v 8.0 15.676838874816895 13.0
v 8.0 16.0 13.194900512695312
v 8.0 17.0 9.486964225769043
v 8.0 17.0 13.513035774230957
v 8.0 18.0 9.551584243774414
v 8.0 18.0 13.448415756225586
v 8.0 18.874343872070312 10.0
v 8.0 19.0 10.11269474029541
v 8.0 19.0 12.88730525970459
v 8.0 18.874343872070312 13.0
v 8.0 19.550058364868164 11.0
v 8.0 19.550058364868164 12.0
v 8.257478713989258 4.0 10.0
v 9.0 3.73877215385437 10.0
v 9.0 4.0 9.795585632324219
v 9.0 3.08168888092041 11.0
v 9.0 3.08168888092041 12.0
v 8.257478713989258 4.0 13.0
v 9.0 3.73877215385437 13.0
v 9.0 4.0 13.204414367675781
v 9.0 5.0 9.470776557922363
v 9.0 5.0 13.529223442077637
v 9.0 6.0 9.623993873596191
v 9.0 6.0 13.376006126403809
v 9.0 6.631422996520996 10.0
v 8.45358943939209 7.0 10.0
v 9.0 7.0 10.405757904052734
v 8.45358943939209 7.0 13.0
v 9.0 7.0 12.594242095947266
v 9.0 6.631422996520996 13.0
v 9.0 7.363452434539795 11.0
v 8.171530723571777 8.0 11.0
v 9.0 7.363452434539795 12.0
v 8.171530723571777 8.0 12.0
v 8.171530723571777 15.0 11.0
v 8.171530723571777 15.0 12.0
v 8.45358943939209 16.0 10.0
v 9.0 16.0 10.405757904052734
v 9.0 15.636548042297363 11.0
v 9.0 15.636548042297363 12.0
v 8.45358943939209 16.0 13.0
v 9.0 16.0 12.594242095947266
v 9.0 16.36857795715332 10.0
v 9.0 17.0 9.623993873596191
v 9.0 16.36857795715332 13.0
v 9.0 17.0 13.376006126403809
v 9.0 18.0 9.470776557922363
v 9.0 18.0 13.529223442077637
v 8.257478713989258 19.0 10.0
v 9.0 19.0 9.795585632324219
v 8.257478713989258 19.0 13.0
v 9.0 19.0 13.204414367675781
v 9.0 19.261228561401367 10.0
v 9.0 19.918310165405273 11.0
v 9.0 19.918310165405273 12.0
v 9.0 19.261228561401367 13.0
v 9.334183692932129 3.0 11.0
v 10.0 2.846952438354492 11.0
v 10.0 3.0 10.686992645263672
v 9.334183692932129 3.0 12.0
v 10.0 2.846952438354492 12.0
v 10.0 3.0 12.313007354736328
v 10.0 3.5048580169677734 10.0
v 10.0 4.0 9.654561042785645
v 10.0 3.5048580169677734 13.0
v 10.0 4.0 13.345438957214355
v 10.0 5.0 9.469735145568848
v 10.0 5.0 13.530264854431152
v 10.0 6.0 9.805099487304688
v 10.0 6.0 13.194900512695312
v 10.0 6.24618673324585 10.0
v 10.0 6.899360179901123 11.0
v 9.765544891357422 7.0 11.0
v 10.0 6.899360179901123 12.0
v 9.765544891357422 7.0 12.0
v 10.0 6.24618673324585 13.0
v 9.765544891357422 16.0 11.0
v 9.765544891357422 16.0 12.0
v 10.0 16.753812789916992 10.0
v 10.0 17.0 9.805099487304688
v 10.0 16.10063934326172 11.0
v 10.0 16.10063934326172 12.0
v 10.0 16.753812789916992 13.0
v 10.0 17.0 13.194900512695312
v 10.0 18.0 9.469735145568848
v 10.0 18.0 13.530264854431152
v 10.0 19.0 9.654561042785645
v 10.0 19.0 13.345438957214355
v 10.0 19.495141983032227 10.0
v 9.334183692932129 20.0 11.0
v 10.0 20.0 10.686992645263672
v 9.334183692932129 20.0 12.0
v 10.0 20.0 12.313007354736328
v 10.0 19.495141983032227 13.0
v 10.0 20.153047561645508 11.0
v 10.0 20.153047561645508 12.0
v 11.0 2.733036518096924 11.0
v 11.0 3.0 10.474811553955078
v 11.0 2.733036518096924 12.0
v 11.0 3.0 12.525188446044922
v 11.0 3.383319616317749 10.0
v 11.0 4.0 9.598273277282715
v 11.0 3.383319616317749 13.0
v 11.0 4.0 13.401726722717285
v 11.0 5.0 9.486964225769043
v 11.0 5.0 13.513035774230957
v 11.0 6.0 9.930259704589844
v 11.0 6.0 13.069740295410156
v 11.0 6.077187538146973 10.0
v 11.0 6.684156894683838 11.0
v 11.0 6.684156894683838 12.0
v 11.0 6.077187538146973 13.0
v 11.0 16.92281150817871 10.0
v 11.0 17.0 9.930259704589844
v 11.0 16.31584358215332 11.0
v 11.0 16.31584358215332 12.0
v 11.0 16.92281150817871 13.0
v 11.0 17.0 13.069740295410156
v 11.0 18.0 9.486964225769043
v 11.0 18.0 13.513035774230957
v 11.0 19.0 9.598273277282715
v 11.0 19.0 13.401726722717285
v 11.0 19.616680145263672 10.0
v 11.0 20.0 10.474811553955078
v 11.0 20.0 12.525188446044922
v 11.0 19.616680145263672 13.0
v 11.0 20.266963958740234 11.0
v 11.0 20.266963958740234 12.0
v 12.0 2.733036518096924 11.0
v 12.0 3.0 10.474811553955078
v 12.0 2.733036518096924 12.0
v 12.0 3.0 12.525188446044922
v 12.0 3.383319616317749 10.0
v 12.0 4.0 9.598273277282715
v 12.0 3.383319616317749 13.0
v 12.0 4.0 13.401726722717285
v 12.0 5.0 9.486964225769043
v 12.0 5.0 13.513035774230957
v 12.0 6.0 9.930259704589844
v 12.0 6.0 13.069740295410156
v 12.0 6.077187538146973 10.0
v 12.0 6.684156894683838 11.0
v 12.0 6.684156894683838 12.0
v 12.0 6.077187538146973 13.0
v 12.0 16.92281150817871 10.0
v 12.0 17.0 9.930259704589844
v 12.0 16.31584358215332 11.0
v 12.0 16.31584358215332 12.0
v 12.0 16.92281150817871 13.0
v 12.0 17.0 13.069740295410156
v 12.0 18.0 9.486964225769043
v 12.0 18.0 13.513035774230957
v 12.0 19.0 9.598273277282715
v 12.0 19.0 13.401726722717285
v 12.0 19.616680145263672 10.0
v 12.0 20.0 10.474811553955078
v 12.0 20.0 12.525188446044922
v 12.0 19.616680145263672 13.0
v 12.0 20.266963958740234 11.0
v 12.0 20.266963958740234 12.0
v 13.0 2.846952438354492 11.0
v 13.0 3.0 10.686992645263672
v 13.0 2.846952438354492 12.0
v 13.0 3.0 12.313007354736328
v 13.0 3.5048580169677734 10.0
v 13.0 4.0 9.654561042785645
v 13.0 3.5048580169677734 13.0
v 13.0 4.0 13.345438957214355
v 13.0 5.0 9.469735145568848
v 13.0 5.0 13.530264854431152
v 13.0 6.0 9.805099487304688
v 13.0 6.0 13.194900512695312
v 13.0 6.24618673324585 10.0
v 13.0 6.899360179901123 11.0
v 13.0 6.899360179901123 12.0
v 13.0 6.24618673324585 13.0
v 13.0 16.753812789916992 10.0
v 13.0 17.0 9.805099487304688
v 13.0 16.10063934326172 11.0
v 13.0 16.10063934326172 12.0
v 13.0 16.753812789916992 13.0
v 13.0 17.0 13.194900512695312
v 13.0 18.0 9.469735145568848
v 13.0 18.0 13.530264854431152
v 13.0 19.0 9.654561042785645
v 13.0 19.0 13.345438957214355
v 13.0 19.495141983032227 10.0
v 13.0 20.0 10.686992645263672
v 13.0 20.0 12.313007354736328
v 13.0 19.495141983032227 13.0
v 13.0 20.153047561645508 11.0
v 13.0 20.153047561645508 12.0
v 13.665816307067871 3.0 11.0
v 13.665816307067871 3.0 12.0
v 14.0 3.73877215385437 10.0
v 14.0 4.0 9.795585632324219
v 14.0 3.08168888092041 11.0
v 14.0 3.08168888092041 12.0
v 14.0 3.73877215385437 13.0
v 14.0 4.0 13.204414367675781
v 14.0 5.0 9.470776557922363
v 14.0 5.0 13.529223442077637
v 14.0 6.0 9.623993873596191
v 14.0 6.0 13.376006126403809
v 14.0 6.631422996520996 10.0
v 13.234455108642578 7.0 11.0
v 14.0 7.0 10.405757904052734
v 13.234455108642578 7.0 12.0
v 14.0 7.0 12.594242095947266
v 14.0 6.631422996520996 13.0
v 14.0 7.363452434539795 11.0
v 14.0 7.363452434539795 12.0
v 13.234455108642578 16.0 11.0
v 14.0 15.636548042297363 11.0
v 14.0 16.0 10.405757904052734
v 13.234455108642578 16.0 12.0
v 14.0 15.636548042297363 12.0
v 14.0 16.0 12.594242095947266
v 14.0 16.36857795715332 10.0
v 14.0 17.0 9.623993873596191
v 14.0 16.36857795715332 13.0
v 14.0 17.0 13.376006126403809
v 14.0 18.0 9.470776557922363
v 14.0 18.0 13.529223442077637
v 14.0 19.0 9.795585632324219
v 14.0 19.0 13.204414367675781
v 14.0 19.261228561401367 10.0
v 14.0 19.918310165405273 11.0
v 13.665816307067871 20.0 11.0
v 14.0 19.918310165405273 12.0
v 13.665816307067871 20.0 12.0
v 14.0 19.261228561401367 13.0
v 14.742521286010742 4.0 10.0
v 15.0 4.0 10.11269474029541
v 15.0 3.4499423503875732 11.0
v 15.0 3.4499423503875732 12.0
v 14.742521286010742 4.0 13.0
v 15.0 4.0 12.88730525970459
v 15.0 4.125656604766846 10.0
v 15.0 5.0 9.551584243774414
v 15.0 4.125656604766846 13.0
v 15.0 5.0 13.448415756225586
v 15.0 6.0 9.486964225769043
v 15.0 6.0 13.513035774230957
v 14.54641056060791 7.0 10.0
v 15.0 7.0 9.805099487304688
v 14.54641056060791 7.0 13.0
v 15.0 7.0 13.194900512695312
v 15.0 7.3231611251831055 10.0
v 14.828469276428223 8.0 11.0
v 15.0 8.0 10.766020774841309
v 14.828469276428223 8.0 12.0
v 15.0 8.0 12.233979225158691
v 15.0 7.3231611251831055 13.0
v 15.0 8.171530723571777 11.0
v 15.0 8.171530723571777 12.0
v 14.828469276428223 15.0 11.0
v 15.0 14.828469276428223 11.0
v 15.0 15.0 10.766020774841309
v 14.828469276428223 15.0 12.0
v 15.0 14.828469276428223 12.0
v 15.0 15.0 12.233979225158691
v 14.54641056060791 16.0 10.0
v 15.0 15.676838874816895 10.0
v 15.0 16.0 9.805099487304688
v 14.54641056060791 16.0 13.0
v 15.0 15.676838874816895 13.0
v 15.0 16.0 13.194900512695312
v 15.0 17.0 9.486964225769043
v 15.0 17.0 13.513035774230957
v 15.0 18.0 9.551584243774414
v 15.0 18.0 13.448415756225586
v 15.0 18.874343872070312 10.0
v 14.742521286010742 19.0 10.0
v 15.0 19.0 10.11269474029541
v 14.742521286010742 19.0 13.0
v 15.0 19.0 12.88730525970459
v 15.0 18.874343872070312 13.0
v 15.0 19.550058364868164 11.0
v 15.0 19.550058364868164 12.0
v 16.0 3.957517385482788 11.0
v 16.0 4.0 10.919508934020996
v 16.0 3.957517385482788 12.0
v 16.0 4.0 12.080491065979004
v 16.0 4.698711395263672 10.0
v 16.0 5.0 9.795585632324219
v 16.0 4.698711395263672 13.0
v 16.0 5.0 13.204414367675781
v 16.0 6.0 9.487588882446289
v 16.0 6.0 13.512411117553711
v 16.0 7.0 9.517416000366211
v 16.0 7.0 13.482583999633789
v 15.676838874816895 8.0 10.0
v 16.0 8.0 9.805099487304688
v 15.676838874816895 8.0 13.0
v 16.0 8.0 13.194900512695312
v 16.0 8.45358943939209 10.0
v 15.636548042297363 9.0 11.0
v 16.0 9.0 10.405757904052734
v 15.636548042297363 9.0 12.0
v 16.0 9.0 12.594242095947266
v 16.0 8.45358943939209 13.0
v 16.0 9.765544891357422 11.0
v 16.0 9.765544891357422 12.0
v 15.636548042297363 14.0 11.0
v 16.0 13.234455108642578 11.0
v 16.0 14.0 10.405757904052734
v 15.636548042297363 14.0 12.0
v 16.0 13.234455108642578 12.0
v 16.0 14.0 12.594242095947266
v 15.676838874816895 15.0 10.0
v 16.0 14.54641056060791 10.0
v 16.0 15.0 9.805099487304688
v 15.676838874816895 15.0 13.0
v 16.0 14.54641056060791 13.0
v 16.0 15.0 13.194900512695312
v 16.0 16.0 9.517416000366211
v 16.0 16.0 13.482583999633789
v 16.0 17.0 9.487588882446289
v 16.0 17.0 13.512411117553711
v 16.0 18.0 9.795585632324219
v 16.0 18.0 13.204414367675781
v 16.0 18.301288604736328 10.0
v 16.0 19.0 10.919508934020996
v 16.0 19.0 12.080491065979004
v 16.0 18.301288604736328 13.0
v 16.0 19.042482376098633 11.0
v 16.0 19.042482376098633 12.0
v 16.066986083984375 4.0 11.0
v 16.066986083984375 4.0 12.0
v 16.431676864624023 5.0 10.0
v 17.0 5.0 10.474811553955078
v 17.0 4.660058975219727 11.0
v 17.0 4.660058975219727 12.0
v 16.431676864624023 5.0 13.0
v 17.0 5.0 12.525188446044922
v 17.0 5.4837422370910645 10.0
v 17.0 6.0 9.720355987548828
v 17.0 5.4837422370910645 13.0
v 17.0 6.0 13.279644012451172
v 17.0 7.0 9.487588882446289
v 17.0 7.0 13.512411117553711
v 17.0 8.0 9.486964225769043
v 17.0 8.0 13.513035774230957
v 16.36857795715332 9.0 10.0
v 17.0 9.0 9.623993873596191
v 16.36857795715332 9.0 13.0
v 17.0 9.0 13.376006126403809
v 16.753812789916992 10.0 10.0
v 17.0 10.0 9.805099487304688
v 16.10063934326172 10.0 11.0
v 16.10063934326172 10.0 12.0
v 16.753812789916992 10.0 13.0
v 17.0 10.0 13.194900512695312
v 16.92281150817871 11.0 10.0
v 17.0 11.0 9.930259704589844
v 16.31584358215332 11.0 11.0
v 16.31584358215332 11.0 12.0
v 16.92281150817871 11.0 13.0
v 17.0 11.0 13.069740295410156
v 16.92281150817871 12.0 10.0
v 17.0 12.0 9.930259704589844
v 16.31584358215332 12.0 11.0
v 16.31584358215332 12.0 12.0
v 16.92281150817871 12.0 13.0
v 17.0 12.0 13.069740295410156
v 16.753812789916992 13.0 10.0
v 17.0 13.0 9.805099487304688
v 16.10063934326172 13.0 11.0
v 16.10063934326172 13.0 12.0
v 16.753812789916992 13.0 13.0
v 17.0 13.0 13.194900512695312
v 16.36857795715332 14.0 10.0
v 17.0 14.0 9.623993873596191
v 16.36857795715332 14.0 13.0
v 17.0 14.0 13.376006126403809
v 17.0 15.0 9.486964225769043
v 17.0 15.0 13.513035774230957
v 17.0 16.0 9.487588882446289
v 17.0 16.0 13.512411117553711
v 17.0 17.0 9.720355987548828
v 17.0 17.0 13.279644012451172
v 17.0 17.516258239746094 10.0
v 16.431676864624023 18.0 10.0
v 17.0 18.0 10.474811553955078
v 16.431676864624023 18.0 13.0
v 17.0 18.0 12.525188446044922
v 17.0 17.516258239746094 13.0
v 17.0 18.339941024780273 11.0
v 16.066986083984375 19.0 11.0
v 17.0 18.339941024780273 12.0
v 16.066986083984375 19.0 12.0
v 17.394691467285156 5.0 11.0
v 17.394691467285156 5.0 12.0
v 17.516258239746094 6.0 10.0
v 18.0 6.0 10.474811553955078
v 18.0 5.605308532714844 11.0
v 18.0 5.605308532714844 12.0
v 17.516258239746094 6.0 13.0
v 18.0 6.0 12.525188446044922
v 18.0 6.56832218170166 10.0
v 18.0 7.0 9.795585632324219
v 18.0 6.56832218170166 13.0
v 18.0 7.0 13.204414367675781
v 18.0 8.0 9.551584243774414
v 18.0 8.0 13.448415756225586
v 18.0 9.0 9.470776557922363
v 18.0 9.0 13.529223442077637
v 18.0 10.0 9.469735145568848
v 18.0 10.0 13.530264854431152
v 18.0 11.0 9.486964225769043
v 18.0 11.0 13.513035774230957
v 18.0 12.0 9.486964225769043
v 18.0 12.0 13.513035774230957
v 18.0 13.0 9.469735145568848
v 18.0 13.0 13.530264854431152
v 18.0 14.0 9.470776557922363
v 18.0 14.0 13.529223442077637
v 18.0 15.0 9.551584243774414
v 18.0 15.0 13.448415756225586
v 18.0 16.0 9.795585632324219
v 18.0 16.0 13.204414367675781
v 18.0 16.431676864624023 10.0
v 17.516258239746094 17.0 10.0
v 18.0 17.0 10.474811553955078
v 17.516258239746094 17.0 13.0
v 18.0 17.0 12.525188446044922
v 18.0 16.431676864624023 13.0
v 18.0 17.394691467285156 11.0
v 17.394691467285156 18.0 11.0
v 18.0 17.394691467285156 12.0
v 17.394691467285156 18.0 12.0
v 18.339941024780273 6.0 11.0
v 18.339941024780273 6.0 12.0
v 18.301288604736328 7.0 10.0
v 19.0 7.0 10.919508934020996
v 19.0 6.933013916015625 11.0
v 19.0 6.933013916015625 12.0
v 18.301288604736328 7.0 13.0
v 19.0 7.0 12.080491065979004
v 18.874343872070312 8.0 10.0
v 19.0 8.0 10.11269474029541
v 18.874343872070312 8.0 13.0
v 19.0 8.0 12.88730525970459
v 19.0 8.257478713989258 10.0
v 19.0 9.0 9.795585632324219
v 19.0 8.257478713989258 13.0
v 19.0 9.0 13.204414367675781
v 19.0 10.0 9.654561042785645
v 19.0 10.0 13.345438957214355
v 19.0 11.0 9.598273277282715
v 19.0 11.0 13.401726722717285
v 19.0 12.0 9.598273277282715
v 19.0 12.0 13.401726722717285
v 19.0 13.0 9.654561042785645
v 19.0 13.0 13.345438957214355
v 19.0 14.0 9.795585632324219
v 19.0 14.0 13.204414367675781
v 19.0 14.742521286010742 10.0
v 18.874343872070312 15.0 10.0
v 19.0 15.0 10.11269474029541
v 18.874343872070312 15.0 13.0
v 19.0 15.0 12.88730525970459
v 19.0 14.742521286010742 13.0
v 18.301288604736328 16.0 10.0
v 19.0 16.0 10.919508934020996
v 18.301288604736328 16.0 13.0
v 19.0 16.0 12.080491065979004
v 19.0 16.066986083984375 11.0
v 18.339941024780273 17.0 11.0
v 19.0 16.066986083984375 12.0
v 18.339941024780273 17.0 12.0
v 19.042482376098633 7.0 11.0
v 19.042482376098633 7.0 12.0
v 19.550058364868164 8.0 11.0
v 19.550058364868164 8.0 12.0
v 19.261228561401367 9.0 10.0
v 19.918310165405273 9.0 11.0
v 19.918310165405273 9.0 12.0
v 19.261228561401367 9.0 13.0
v 19.495141983032227 10.0 10.0
v 20.0 10.0 10.686992645263672
v 20.0 9.334183692932129 11.0
v 20.0 9.334183692932129 12.0
v 19.495141983032227 10.0 13.0
v 20.0 10.0 12.313007354736328
v 19.616680145263672 11.0 10.0
v 20.0 11.0 10.474811553955078
v 19.616680145263672 11.0 13.0
v 20.0 11.0 12.525188446044922
v 19.616680145263672 12.0 10.0
v 20.0 12.0 10.474811553955078
v 19.616680145263672 12.0 13.0
v 20.0 12.0 12.525188446044922
v 19.495141983032227 13.0 10.0
v 20.0 13.0 10.686992645263672
v 19.495141983032227 13.0 13.0
v 20.0 13.0 12.313007354736328
v 19.261228561401367 14.0 10.0
v 20.0 13.665816307067871 11.0
v 19.918310165405273 14.0 11.0
v 20.0 13.665816307067871 12.0
v 19.918310165405273 14.0 12.0
v 19.261228561401367 14.0 13.0
v 19.550058364868164 15.0 11.0
v 19.550058364868164 15.0 12.0
v 19.042482376098633 16.0 11.0
v 19.042482376098633 16.0 12.0
v 20.153047561645508 10.0 11.0
v 20.153047561645508 10.0 12.0
v 20.266963958740234 11.0 11.0
v 20.266963958740234 11.0 12.0
v 20.266963958740234 12.0 11.0
v 20.266963958740234 12.0 12.0
v 20.153047561645508 13.0 11.0
v 20.153047561645508 13.0 12.0
f 3 2 1
f 5 4 1
f 5 1 2
f 6 4 5
f 3 1 7
f 3 7 8
f 9 1 4
f 7 1 9
f 4 6 10
f 4 10 9
f 8 7 11
f 8 11 12
f 13 7 9
f 11 7 13
f 9 10 14
f 9 14 13
f 12 11 15
f 12 15 16
f 17 11 13
f 15 11 17
f 13 14 18
f 13 18 17
f 19 16 15
f 19 15 17
f 19 17 20
f 20 17 18
f 23 22 21
f 25 24 21
f 25 21 22
f 26 24 25
f 23 21 27
f 23 27 28
f 29 21 24
f 27 21 29
f 24 26 30
f 24 30 29
f 33 32 31
f 31 32 28
f 27 31 28
f 34 31 27
f 35 27 29
f 34 27 35
f 29 30 36
f 37 29 36
f 35 29 37
f 38 37 36
f 33 31 39
f 33 39 40
f 3 39 2
f 39 34 2
f 39 31 34
f 2 34 5
f 5 34 35
f 5 35 6
f 35 41 6
f 35 37 41
f 37 38 42
f 37 42 41
f 40 39 43
f 40 43 44
f 8 43 3
f 3 43 39
f 45 10 41
f 41 10 6
f 41 42 46
f 41 46 45
f 44 43 47
f 44 47 48
f 12 47 8
f 8 47 43
f 49 14 45
f 45 14 10
f 45 46 50
f 45 50 49
f 48 47 51
f 48 51 52
f 16 51 12
f 12 51 47
f 53 18 49
f 49 18 14
f 49 50 54
f 49 54 53
f 52 51 55
f 52 55 56
f 19 57 16
f 57 51 16
f 57 55 51
f 20 58 19
f 19 58 57
f 18 53 20
f 53 58 20
f 53 59 58
f 53 54 60
f 53 60 59
f 61 56 55
f 63 62 61
f 55 63 61
f 57 63 55
f 64 57 58
f 63 57 64
f 59 66 65
f 64 59 65
f 58 59 64
f 66 59 60
f 62 63 67
f 62 67 68
f 69 63 64
f 67 63 69
f 64 65 70
f 64 70 69
f 71 68 67
f 71 67 69
f 71 69 72
f 72 69 70
f 75 74 73
f 77 76 73
f 77 73 74
f 78 76 77
f 81 80 79
f 79 80 75
f 79 75 73
f 23 79 73
f 22 23 73
f 22 73 25
f 25 73 76
f 83 82 26
f 83 26 25
f 78 83 25
f 76 78 25
f 84 82 83
f 81 79 85
f 81 85 86
f 28 85 23
f 23 85 79
f 87 30 82
f 82 30 26
f 82 84 88
f 82 88 87
f 86 85 32
f 33 86 32
f 89 86 33
f 32 85 28
f 87 36 30
f 38 36 87
f 88 38 87
f 90 38 88
f 40 89 33
f 40 91 89
f 90 42 38
f 92 42 90
f 44 91 40
f 44 93 91
f 92 46 42
f 94 46 92
f 48 93 44
f 48 95 93
f 94 50 46
f 96 50 94
f 52 95 48
f 52 97 95
f 96 54 50
f 98 54 96
f 56 97 52
f 56 99 97
f 98 60 54
f 100 60 98
f 56 61 101
f 102 56 101
f 99 56 102
f 62 101 61
f 103 65 66
f 104 103 66
f 60 104 66
f 100 104 60
f 102 101 105
f 102 105 106
f 68 105 62
f 62 105 101
f 107 70 103
f 103 70 65
f 103 104 108
f 103 108 107
f 109 106 105
f 111 109 110
f 110 109 71
f 109 105 71
f 105 68 71
f 72 112 71
f 71 112 110
f 113 112 72
f 113 72 70
f 114 113 70
f 107 114 70
f 114 107 108
f 115 111 110
f 115 110 112
f 115 112 116
f 116 112 113
f 119 118 117
f 121 120 117
f 121 117 118
f 122 120 121
f 125 124 123
f 123 124 119
f 123 119 117
f 75 123 117
f 74 75 117
f 74 117 77
f 77 117 120
f 127 126 78
f 127 78 77
f 122 127 77
f 120 122 77
f 128 126 127
f 125 123 80
f 81 125 80
f 129 125 81
f 80 123 75
f 126 83 78
f 84 83 126
f 128 84 126
f 130 84 128
f 86 129 81
f 86 131 129
f 130 88 84
f 132 88 130
f 89 131 86
f 89 133 131
f 132 90 88
f 134 90 132
f 91 133 89
f 91 135 133
f 134 92 90
f 136 92 134
f 93 135 91
f 93 137 135
f 136 94 92
f 138 94 136
f 95 137 93
f 95 139 137
f 138 96 94
f 140 96 138
f 97 139 95
f 97 141 139
f 140 98 96
f 142 98 140
f 99 141 97
f 99 143 141
f 142 100 98
f 144 100 142
f 102 143 99
f 102 145 143
f 144 104 100
f 146 104 144
f 106 145 102
f 106 147 145
f 146 108 104
f 148 108 146
f 106 109 149
f 150 106 149
f 147 106 150
f 111 149 109
f 151 113 114
f 152 151 114
f 108 152 114
f 148 152 108
f 153 150 149
f 155 153 154
f 154 153 115
f 153 149 115
f 149 111 115
f 116 156 115
f 115 156 154
f 157 156 116
f 157 116 113
f 158 157 113
f 151 158 113
f 158 151 152
f 159 155 154
f 159 154 156
f 159 156 160
f 160 156 157
f 163 162 161
f 165 164 161
f 165 161 162
f 166 164 165
f 169 168 167
f 167 168 163
f 167 163 161
f 119 167 161
f 118 119 161
f 118 161 121
f 121 161 164
f 171 170 122
f 171 122 121
f 166 171 121
f 164 166 121
f 172 170 171
f 169 167 124
f 125 169 124
f 173 169 125
f 124 167 119
f 170 127 122
f 128 127 170
f 172 128 170
f 174 128 172
f 129 173 125
f 129 175 173
f 174 130 128
f 176 130 174
f 131 175 129
f 131 177 175
f 176 132 130
f 178 132 176
f 133 180 179
f 177 133 179
f 131 133 177
f 180 181 179
f 184 183 182
f 178 184 182
f 134 178 182
f 132 178 134
f 135 185 180
f 135 180 133
f 181 180 186
f 180 187 186
f 180 185 187
f 189 188 187
f 187 188 186
f 188 189 183
f 189 182 183
f 189 190 182
f 190 136 134
f 190 134 182
f 137 191 185
f 137 185 135
f 185 192 187
f 185 191 192
f 187 193 189
f 187 192 193
f 189 194 190
f 189 193 194
f 194 138 136
f 194 136 190
f 139 195 191
f 139 191 137
f 191 196 192
f 191 195 196
f 192 197 193
f 192 196 197
f 193 198 194
f 193 197 198
f 198 140 138
f 198 138 194
f 141 199 195
f 141 195 139
f 195 200 196
f 195 199 200
f 196 201 197
f 196 200 201
f 197 202 198
f 197 201 202
f 202 142 140
f 202 140 198
f 143 203 199
f 143 199 141
f 205 200 204
f 200 203 204
f 200 199 203
f 200 205 201
f 201 205 206
f 208 207 206
f 207 201 206
f 207 202 201
f 207 144 142
f 207 142 202
f 210 209 203
f 143 210 203
f 145 210 143
f 203 209 204
f 208 211 207
f 144 207 211
f 212 144 211
f 146 144 212
f 147 210 145
f 147 213 210
f 212 148 146
f 214 148 212
f 150 213 147
f 150 215 213
f 214 152 148
f 216 152 214
f 150 153 217
f 218 150 217
f 215 150 218
f 155 217 153
f 219 157 158
f 220 219 158
f 152 220 158
f 216 220 152
f 221 218 217
f 223 221 222
f 222 221 159
f 221 217 159
f 217 155 159
f 160 224 159
f 159 224 222
f 225 224 160
f 225 160 157
f 226 225 157
f 219 226 157
f 226 219 220
f 227 223 222
f 227 222 224
f 227 224 228
f 228 224 225
f 230 229 162
f 230 162 163
f 162 231 165
f 229 231 162
f 166 165 231
f 166 231 232
f 234 233 168
f 234 168 169
f 163 168 230
f 230 168 233
f 232 235 166
f 166 235 171
f 172 171 235
f 172 235 236
f 173 234 169
f 173 237 234
f 236 174 172
f 238 174 236
f 175 237 173
f 175 239 237
f 238 176 174
f 240 176 238
f 177 242 241
f 239 177 241
f 175 177 239
f 242 243 241
f 246 245 244
f 240 246 244
f 178 240 244
f 176 240 178
f 179 242 177
f 248 247 181
f 181 247 179
f 247 243 179
f 243 242 179
f 250 249 248
f 248 249 247
f 249 250 245
f 245 250 244
f 250 183 244
f 183 184 244
f 244 184 178
f 186 248 181
f 248 186 188
f 248 188 250
f 250 188 183
f 204 251 205
f 252 206 205
f 252 205 251
f 252 208 206
f 210 253 209
f 253 254 209
f 209 254 204
f 254 255 204
f 255 251 204
f 251 255 252
f 252 255 256
f 256 258 257
f 256 257 211
f 252 256 211
f 208 252 211
f 257 212 211
f 260 259 253
f 210 260 253
f 213 260 210
f 253 259 254
f 258 261 257
f 212 257 261
f 262 212 261
f 214 212 262
f 215 260 213
f 215 263 260
f 262 216 214
f 264 216 262
f 218 263 215
f 218 265 263
f 264 220 216
f 266 220 264
f 267 265 218
f 267 218 221
f 221 223 267
f 267 223 268
f 270 269 226
f 226 269 225
f 226 220 266
f 226 266 270
f 271 268 223
f 271 223 227
f 272 227 228
f 272 271 227
f 228 225 269
f 228 269 272
f 275 274 273
f 229 230 273
f 274 229 273
f 276 229 274
f 229 277 231
f 276 277 229
f 279 278 232
f 231 279 232
f 277 279 231
f 280 278 279
f 275 273 233
f 234 275 233
f 281 275 234
f 233 273 230
f 278 235 232
f 236 235 278
f 280 236 278
f 282 236 280
f 237 281 234
f 237 283 281
f 282 238 236
f 284 238 282
f 239 286 285
f 283 239 285
f 237 239 283
f 286 287 285
f 290 289 288
f 284 290 288
f 240 284 288
f 238 284 240
f 241 286 239
f 292 291 243
f 243 291 241
f 291 287 241
f 287 286 241
f 294 293 292
f 292 293 291
f 293 294 289
f 289 294 288
f 294 245 288
f 245 246 288
f 288 246 240
f 247 292 243
f 292 247 249
f 292 249 294
f 294 249 245
f 254 295 255
f 296 256 255
f 296 255 295
f 296 258 256
f 260 297 259
f 297 298 259
f 259 298 254
f 298 299 254
f 299 295 254
f 295 299 296
f 296 299 300
f 300 302 301
f 300 301 261
f 296 300 261
f 258 296 261
f 301 262 261
f 304 303 297
f 260 304 297
f 263 304 260
f 297 303 298
f 302 305 301
f 262 301 305
f 306 262 305
f 264 262 306
f 265 304 263
f 265 307 304
f 306 266 264
f 308 266 306
f 265 267 309
f 310 265 309
f 307 265 310
f 268 309 267
f 311 269 270
f 312 311 270
f 266 312 270
f 308 312 266
f 313 310 309
f 313 309 268
f 271 313 268
f 314 313 271
f 315 271 272
f 315 314 271
f 272 269 311
f 316 272 311
f 315 272 316
f 316 311 312
f 319 318 317
f 321 320 317
f 321 317 318
f 322 320 321
f 324 323 274
f 324 274 275
f 317 276 319
f 276 323 319
f 276 274 323
f 276 317 277
f 277 317 320
f 322 325 320
f 325 277 320
f 325 279 277
f 280 279 325
f 280 325 326
f 281 324 275
f 281 327 324
f 326 282 280
f 328 282 326
f 283 327 281
f 283 329 327
f 328 284 282
f 330 284 328
f 331 329 283
f 331 283 285
f 333 332 287
f 332 285 287
f 332 331 285
f 335 334 333
f 333 334 332
f 289 290 335
f 290 334 335
f 290 336 334
f 290 284 330
f 290 330 336
f 291 333 287
f 333 291 293
f 333 293 335
f 335 293 289
f 298 337 299
f 338 300 299
f 338 299 337
f 338 302 300
f 340 339 303
f 340 303 304
f 298 303 337
f 303 341 337
f 303 339 341
f 337 341 338
f 338 341 342
f 338 342 302
f 342 305 302
f 342 343 305
f 306 305 343
f 306 343 344
f 307 340 304
f 307 345 340
f 344 308 306
f 346 308 344
f 310 345 307
f 310 347 345
f 346 312 308
f 348 312 346
f 349 347 310
f 349 310 313
f 351 349 350
f 349 314 350
f 349 313 314
f 315 352 314
f 314 352 350
f 352 315 353
f 315 354 353
f 315 316 354
f 316 312 348
f 316 348 354
f 355 351 350
f 355 350 352
f 355 352 356
f 356 352 353
f 358 357 318
f 358 318 319
f 318 359 321
f 357 359 318
f 322 321 359
f 322 359 360
f 362 361 323
f 362 323 324
f 319 323 358
f 358 323 361
f 360 363 322
f 322 363 325
f 326 325 363
f 326 363 364
f 327 362 324
f 327 365 362
f 364 328 326
f 366 328 364
f 329 365 327
f 329 367 365
f 366 330 328
f 368 330 366
f 369 367 329
f 369 329 331
f 370 331 332
f 370 369 331
f 371 332 334
f 371 370 332
f 372 334 336
f 372 371 334
f 336 330 368
f 336 368 372
f 374 373 339
f 374 339 340
f 339 375 341
f 373 375 339
f 341 376 342
f 375 376 341
f 342 377 343
f 376 377 342
f 344 343 377
f 344 377 378
f 345 374 340
f 345 379 374
f 378 346 344
f 380 346 378
f 347 379 345
f 347 381 379
f 380 348 346
f 382 348 380
f 383 381 347
f 383 347 349
f 349 351 383
f 383 351 384
f 386 385 354
f 354 385 353
f 354 348 382
f 354 382 386
f 387 384 351
f 387 351 355
f 388 355 356
f 388 387 355
f 356 353 385
f 356 385 388
f 390 389 357
f 390 357 358
f 357 391 359
f 389 391 357
f 360 359 391
f 360 391 392
f 394 393 361
f 394 361 362
f 358 361 390
f 390 361 393
f 392 395 360
f 360 395 363
f 364 363 395
f 364 395 396
f 365 394 362
f 365 397 394
f 396 366 364
f 398 366 396
f 367 397 365
f 367 399 397
f 398 368 366
f 400 368 398
f 401 399 367
f 401 367 369
f 402 369 370
f 402 401 369
f 403 370 371
f 403 402 370
f 404 371 372
f 404 403 371
f 372 368 400
f 372 400 404
f 406 405 373
f 406 373 374
f 373 407 375
f 405 407 373
f 375 408 376
f 407 408 375
f 376 409 377
f 408 409 376
f 378 377 409
f 378 409 410
f 379 406 374
f 379 411 406
f 410 380 378
f 412 380 410
f 381 411 379
f 381 413 411
f 412 382 380
f 414 382 412
f 415 413 381
f 415 381 383
f 383 384 415
f 415 384 416
f 418 417 386
f 386 417 385
f 386 382 414
f 386 414 418
f 419 416 384
f 419 384 387
f 420 387 388
f 420 419 387
f 388 385 417
f 388 417 420
f 422 421 389
f 422 389 390
f 389 423 391
f 421 423 389
f 392 391 423
f 392 423 424
f 426 425 393
f 426 393 394
f 390 393 422
f 422 393 425
f 424 427 392
f 392 427 395
f 396 395 427
f 396 427 428
f 397 426 394
f 397 429 426
f 428 398 396
f 430 398 428
f 399 429 397
f 399 431 429
f 430 400 398
f 432 400 430
f 433 431 399
f 433 399 401
f 434 401 402
f 434 433 401
f 435 402 403
f 435 434 402
f 436 403 404
f 436 435 403
f 404 400 432
f 404 432 436
f 438 437 405
f 438 405 406
f 405 439 407
f 437 439 405
f 407 440 408
f 439 440 407
f 408 441 409
f 440 441 408
f 410 409 441
f 410 441 442
f 411 438 406
f 411 443 438
f 442 412 410
f 444 412 442
f 413 443 411
f 413 445 443
f 444 414 412
f 446 414 444
f 447 445 413
f 447 413 415
f 415 416 447
f 447 416 448
f 450 449 418
f 418 449 417
f 418 414 446
f 418 446 450
f 451 448 416
f 451 416 419
f 452 419 420
f 452 451 419
f 420 417 449
f 420 449 452
f 422 453 421
f 454 423 421
f 454 421 453
f 454 424 423
f 456 455 425
f 456 425 426
f 422 425 453
f 425 457 453
f 425 455 457
f 453 457 454
f 454 457 458
f 454 458 424
f 458 427 424
f 458 459 427
f 428 427 459
f 428 459 460
f 429 456 426
f 429 461 456
f 460 430 428
f 462 430 460
f 431 461 429
f 431 463 461
f 462 432 430
f 464 432 462
f 465 463 431
f 465 431 433
f 467 465 466
f 465 434 466
f 465 433 434
f 435 468 434
f 434 468 466
f 468 435 469
f 435 470 469
f 435 436 470
f 436 432 464
f 436 464 470
f 471 467 466
f 471 466 468
f 471 468 472
f 472 468 469
f 475 474 473
f 477 476 473
f 477 473 474
f 478 476 477
f 480 479 437
f 480 437 438
f 473 439 475
f 439 479 475
f 439 437 479
f 439 473 440
f 440 473 476
f 478 481 476
f 481 440 476
f 481 441 440
f 442 441 481
f 442 481 482
f 443 480 438
f 443 483 480
f 482 444 442
f 484 444 482
f 445 483 443
f 445 485 483
f 484 446 444
f 486 446 484
f 487 485 445
f 487 445 447
f 489 488 448
f 488 447 448
f 488 487 447
f 491 490 489
f 489 490 488
f 449 450 491
f 450 490 491
f 450 492 490
f 450 446 486
f 450 486 492
f 451 489 448
f 489 451 452
f 489 452 491
f 491 452 449
f 456 493 455
f 455 493 494
f 495 455 494
f 457 455 495
f 457 496 458
f 495 496 457
f 496 498 497
f 459 496 497
f 458 496 459
f 497 460 459
f 500 499 493
f 456 500 493
f 461 500 456
f 493 499 494
f 498 501 497
f 460 497 501
f 502 460 501
f 462 460 502
f 463 500 461
f 463 503 500
f 502 464 462
f 504 464 502
f 463 465 505
f 506 463 505
f 503 463 506
f 467 505 465
f 507 469 470
f 508 507 470
f 464 508 470
f 504 508 464
f 509 506 505
f 511 509 510
f 510 509 471
f 509 505 471
f 505 467 471
f 472 512 471
f 471 512 510
f 513 512 472
f 513 472 469
f 514 513 469
f 507 514 469
f 514 507 508
f 515 511 510
f 515 510 512
f 515 512 516
f 516 512 513
f 519 518 517
f 521 520 517
f 521 517 518
f 522 520 521
f 525 524 523
f 523 524 519
f 523 519 517
f 475 523 517
f 474 475 517
f 474 517 477
f 477 517 520
f 527 526 478
f 527 478 477
f 522 527 477
f 520 522 477
f 528 526 527
f 525 523 479
f 480 525 479
f 529 525 480
f 479 523 475
f 526 481 478
f 482 481 526
f 528 482 526
f 530 482 528
f 483 529 480
f 483 531 529
f 530 484 482
f 532 484 530
f 485 534 533
f 531 485 533
f 483 485 531
f 534 535 533
f 538 537 536
f 532 538 536
f 486 532 536
f 484 532 486
f 487 534 485
f 539 535 534
f 487 539 534
f 488 539 487
f 540 488 490
f 540 539 488
f 492 536 537
f 540 492 537
f 490 492 540
f 536 492 486
f 542 541 495
f 542 495 494
f 495 543 496
f 541 543 495
f 498 496 543
f 498 543 544
f 546 545 499
f 546 499 500
f 494 499 542
f 542 499 545
f 544 547 498
f 498 547 501
f 502 501 547
f 502 547 548
f 503 546 500
f 503 549 546
f 548 504 502
f 550 504 548
f 506 549 503
f 506 551 549
f 550 508 504
f 552 508 550
f 506 509 553
f 554 506 553
f 551 506 554
f 511 553 509
f 555 513 514
f 556 555 514
f 508 556 514
f 552 556 508
f 557 554 553
f 559 557 558
f 558 557 515
f 557 553 515
f 553 511 515
f 516 560 515
f 515 560 558
f 561 560 516
f 561 516 513
f 562 561 513
f 555 562 513
f 562 555 556
f 563 559 558
f 563 558 560
f 563 560 564
f 564 560 561
f 567 566 565
f 569 568 565
f 569 565 566
f 570 568 569
f 573 572 571
f 571 572 567
f 571 567 565
f 519 571 565
f 518 519 565
f 518 565 521
f 521 565 568
f 575 574 522
f 575 522 521
f 570 575 521
f 568 570 521
f 576 574 575
f 573 571 524
f 525 573 524
f 577 573 525
f 524 571 519
f 574 527 522
f 528 527 574
f 576 528 574
f 578 528 576
f 529 577 525
f 529 579 577
f 578 530 528
f 580 530 578
f 531 579 529
f 531 581 579
f 580 532 530
f 582 532 580
f 583 581 531
f 583 531 533
f 533 535 583
f 583 535 584
f 586 585 538
f 538 585 537
f 538 532 582
f 538 582 586
f 587 584 535
f 587 535 539
f 588 539 540
f 588 587 539
f 540 537 585
f 540 585 588
f 542 589 541
f 590 543 541
f 590 541 589
f 590 544 543
f 546 591 545
f 591 592 545
f 545 592 542
f 592 593 542
f 593 589 542
f 589 593 590
f 590 593 594
f 594 596 595
f 594 595 547
f 590 594 547
f 544 590 547
f 595 548 547
f 598 597 591
f 546 598 591
f 549 598 546
f 591 597 592
f 596 599 595
f 548 595 599
f 600 548 599
f 550 548 600
f 551 598 549
f 551 601 598
f 600 552 550
f 602 552 600
f 554 601 551
f 554 603 601
f 602 556 552
f 604 556 602
f 554 557 605
f 606 554 605
f 603 554 606
f 559 605 557
f 607 561 562
f 608 607 562
f 556 608 562
f 604 608 556
f 606 605 609
f 606 609 610
f 563 611 559
f 611 605 559
f 611 609 605
f 564 612 563
f 563 612 611
f 561 607 564
f 607 612 564
f 607 613 612
f 607 608 614
f 607 614 613
f 610 609 615
f 610 615 616
f 617 609 611
f 615 609 617
f 618 611 612
f 617 611 618
f 619 612 613
f 618 612 619
f 613 614 620
f 613 620 619
f 616 615 621
f 616 621 622
f 623 615 617
f 621 615 623
f 624 617 618
f 623 617 624
f 625 618 619
f 624 618 625
f 619 620 626
f 619 626 625
f 622 621 627
f 622 627 628
f 629 621 623
f 627 621 629
f 630 623 624
f 629 623 630
f 631 624 625
f 630 624 631
f 625 626 632
f 625 632 631
f 628 627 633
f 628 633 634
f 567 633 566
f 633 629 566
f 633 627 629
f 566 629 569
f 569 629 630
f 569 630 570
f 630 635 570
f 630 631 635
f 631 632 636
f 631 636 635
f 634 633 572
f 573 634 572
f 637 634 573
f 572 633 567
f 635 575 570
f 576 575 635
f 636 576 635
f 638 576 636
f 577 637 573
f 577 639 637
f 638 578 576
f 640 578 638
f 579 639 577
f 579 641 639
f 640 580 578
f 642 580 640
f 581 644 643
f 641 581 643
f 579 581 641
f 644 645 643
f 648 647 646
f 642 648 646
f 582 642 646
f 580 642 582
f 583 644 581
f 650 649 584
f 584 649 583
f 649 645 583
f 645 644 583
f 652 651 650
f 650 651 649
f 651 652 647
f 647 652 646
f 652 585 646
f 585 586 646
f 646 586 582
f 587 650 584
f 650 587 588
f 650 588 652
f 652 588 585
f 592 653 593
f 654 594 593
f 654 593 653
f 654 596 594
f 598 655 597
f 655 656 597
f 597 656 592
f 656 657 592
f 657 653 592
f 653 657 654
f 654 657 658
f 658 660 659
f 658 659 599
f 654 658 599
f 596 654 599
f 659 600 599
f 662 661 655
f 598 662 655
f 601 662 598
f 655 661 656
f 660 663 659
f 600 659 663
f 664 600 663
f 602 600 664
f 603 662 601
f 603 665 662
f 664 604 602
f 666 604 664
f 606 665 603
f 606 667 665
f 666 608 604
f 668 608 666
f 610 667 606
f 610 669 667
f 668 614 608
f 670 614 668
f 616 669 610
f 616 671 669
f 670 620 614
f 672 620 670
f 622 671 616
f 622 673 671
f 672 626 620
f 674 626 672
f 628 673 622
f 628 675 673
f 674 632 626
f 676 632 674
f 634 675 628
f 634 677 675
f 676 636 632
f 678 636 676
f 637 677 634
f 637 679 677
f 678 638 636
f 680 638 678
f 639 679 637
f 639 681 679
f 680 640 638
f 682 640 680
f 641 684 683
f 681 641 683
f 639 641 681
f 684 685 683
f 688 687 686
f 682 688 686
f 642 682 686
f 640 682 642
f 643 684 641
f 690 689 645
f 645 689 643
f 689 685 643
f 685 684 643
f 692 691 690
f 690 691 689
f 691 692 687
f 687 692 686
f 692 647 686
f 647 648 686
f 686 648 642
f 649 690 645
f 690 649 651
f 690 651 692
f 692 651 647
f 656 693 657
f 694 658 657
f 694 657 693
f 694 660 658
f 662 695 661
f 695 696 661
f 661 696 656
f 696 697 656
f 697 693 656
f 693 697 694
f 694 697 698
f 698 700 699
f 698 699 663
f 694 698 663
f 660 694 663
f 699 664 663
f 665 701 695
f 665 695 662
f 696 695 702
f 702 695 701
f 699 700 703
f 703 700 704
f 703 666 664
f 703 664 699
f 706 705 701
f 665 706 701
f 667 706 665
f 701 705 702
f 704 707 703
f 666 703 707
f 708 666 707
f 668 666 708
f 669 706 667
f 669 709 706
f 708 670 668
f 710 670 708
f 671 709 669
f 671 711 709
f 710 672 670
f 712 672 710
f 673 711 671
f 673 713 711
f 712 674 672
f 714 674 712
f 675 713 673
f 675 715 713
f 714 676 674
f 716 676 714
f 677 715 675
f 677 717 715
f 716 678 676
f 718 678 716
f 679 720 719
f 717 679 719
f 677 679 717
f 720 721 719
f 724 723 722
f 718 724 722
f 680 718 722
f 678 718 680
f 681 725 720
f 681 720 679
f 721 720 726
f 726 720 725
f 722 723 727
f 727 723 728
f 727 682 680
f 727 680 722
f 683 725 681
f 730 729 685
f 685 729 683
f 729 726 683
f 726 725 683
f 732 731 730
f 730 731 729
f 731 732 728
f 728 732 727
f 732 687 727
f 687 688 727
f 727 688 682
f 689 730 685
f 730 689 691
f 730 691 732
f 732 691 687
f 696 733 697
f 734 698 697
f 734 697 733
f 734 700 698
f 702 735 733
f 702 733 696
f 733 736 734
f 733 735 736
f 736 704 700
f 736 700 734
f 706 737 705
f 735 702 705
f 737 735 705
f 738 735 737
f 735 739 736
f 735 738 739
f 740 707 704
f 736 740 704
f 739 740 736
f 740 708 707
f 709 741 737
f 709 737 706
f 743 738 742
f 738 741 742
f 738 737 741
f 738 743 739
f 739 743 744
f 746 745 744
f 745 739 744
f 745 740 739
f 745 710 708
f 745 708 740
f 711 747 741
f 711 741 709
f 742 741 748
f 748 741 747
f 745 746 749
f 749 746 750
f 749 712 710
f 749 710 745
f 713 751 747
f 713 747 711
f 748 747 752
f 752 747 751
f 749 750 753
f 753 750 754
f 753 714 712
f 753 712 749
f 715 755 751
f 715 751 713
f 752 751 756
f 756 751 755
f 753 754 757
f 757 754 758
f 757 716 714
f 757 714 753
f 717 759 755
f 717 755 715
f 756 755 760
f 755 761 760
f 755 759 761
f 763 762 761
f 761 762 760
f 762 763 758
f 763 757 758
f 763 764 757
f 764 718 716
f 764 716 757
f 719 759 717
f 759 719 721
f 765 759 721
f 761 759 765
f 761 766 763
f 761 765 766
f 766 723 724
f 764 766 724
f 763 766 764
f 764 724 718
f 726 767 765
f 726 765 721
f 765 768 766
f 765 767 768
f 768 728 723
f 768 723 766
f 729 767 726
f 767 729 731
f 767 731 768
f 768 731 728
f 742 769 743
f 770 744 743
f 770 743 769
f 770 746 744
f 748 771 769
f 748 769 742
f 769 772 770
f 769 771 772
f 772 750 746
f 772 746 770
f 752 773 771
f 752 771 748
f 771 774 772
f 771 773 774
f 774 754 750
f 774 750 772
f 756 775 773
f 756 773 752
f 773 776 774
f 773 775 776
f 776 758 754
f 776 754 774
f 760 775 756
f 775 760 762
f 775 762 776
f 776 762 758
