v 7.0 8.0 13.0
v 7.0 8.0 13.0
v 7.0 8.0 13.0
v 7.0 8.0 13.0
v 7.0 9.0 13.0
v 7.0 9.0 13.0
v 7.0 9.0 13.0
v 7.0 10.0 13.0
v 7.0 10.0 13.0
v 7.0 10.0 13.0
v 7.0 11.0 13.0
v 7.0 11.0 13.0
v 7.0 11.0 13.0
v 7.0 12.0 13.0
v 7.0 12.0 13.0
v 7.0 12.0 13.0
v 7.0 13.0 13.0
v 7.0 13.0 13.0
v 7.0 13.0 13.0
v 7.0 14.0 13.0
v 7.0 14.0 13.0
v 7.0 14.0 13.0
v 7.0 15.0 13.0
v 7.0 15.0 13.0
v 7.0 15.0 13.0
v 7.0 15.0 13.0
v 8.0 8.0 13.0
v 8.0 8.0 13.0
v 8.0 8.0 13.0
v 8.0 9.0 12.0
v 8.0 9.0 12.0
v 8.0 9.0 12.0
v 8.0 9.0 13.0
v 8.0 10.0 12.0
v 8.0 10.0 12.0
v 8.0 10.0 13.0
v 8.0 11.0 11.0
v 8.0 11.0 11.0
v 8.0 11.0 11.0
v 8.0 11.0 12.0
v 8.0 11.0 13.0
v 8.0 12.0 11.0
v 8.0 12.0 11.0
v 8.0 12.0 12.0
v 8.0 12.0 13.0
v 8.0 12.0 11.0
v 8.0 13.0 12.0
v 8.0 13.0 12.0
v 8.0 13.0 13.0
v 8.0 14.0 12.0
v 8.0 14.0 12.0
v 8.0 14.0 13.0
v 8.0 14.0 12.0
v 8.0 15.0 13.0
v 8.0 15.0 13.0
v 8.0 15.0 13.0
v 9.0 8.0 12.0
v 9.0 8.0 12.0
v 9.0 8.0 12.0
v 9.0 8.0 13.0
v 9.0 8.0 13.0
v 9.0 9.0 11.0
v 9.0 9.0 11.0
v 9.0 9.0 11.0
v 9.0 9.0 13.0
v 8.380793571472168 10.0 11.0
v 9.0 10.0 10.778295516967773
v 9.0 10.0 13.0
v 9.0 11.0 10.0
v 9.0 11.0 10.0
v 9.0 11.0 10.0
v 9.0 11.0 13.0
v 9.0 12.0 10.0
v 9.0 12.0 10.0
v 9.0 12.0 13.0
v 9.0 12.0 10.0
v 8.380793571472168 13.0 11.0
v 9.0 13.0 10.778295516967773
v 9.0 13.0 13.0
v 9.0 14.0 11.0
v 9.0 14.0 11.0
v 9.0 14.0 13.0
v 9.0 14.0 11.0
v 9.0 15.0 12.0
v 9.0 15.0 12.0
v 9.0 15.0 13.0
v 9.0 15.0 12.0
v 9.0 15.0 13.0
v 10.0 8.0 12.0
v 10.0 8.0 12.0
v 10.0 8.0 13.0
v 10.0 8.0 13.0
v 10.0 8.898527145385742 11.0
v 10.0 9.0 10.787976264953613
v 10.0 9.0 13.0
v 10.0 9.185050964355469 11.0
v 9.185050964355469 10.0 11.0
v 10.0 9.0 12.0
v 9.0 10.0 12.0
v 10.0 9.0 13.0
v 9.0 10.0 13.0
v 9.0 11.0 10.0
v 9.044496536254883 11.0 11.0
v 9.0 11.0 12.0
v 9.0 11.0 13.0
v 9.0 12.0 10.0
v 9.044496536254883 12.0 11.0
v 9.0 12.0 12.0
v 9.0 12.0 13.0
v 9.185050964355469 13.0 11.0
v 9.0 13.0 12.0
v 9.0 13.0 13.0
v 10.0 13.814949035644531 11.0
v 10.0 14.0 10.787976264953613
v 10.0 14.0 12.0
v 10.0 14.0 13.0
v 10.0 14.0 13.0
v 10.0 14.101472854614258 11.0
v 10.0 15.0 12.0
v 10.0 15.0 13.0
v 10.0 15.0 12.0
v 10.0 15.0 13.0
v 11.0 8.0 12.0
v 11.0 8.0 12.0
v 11.0 8.0 13.0
v 11.0 8.0 13.0
v 11.0 9.0 10.0
v 11.0 9.0 10.0
v 11.0 9.0 10.0
v 11.0 8.859540939331055 11.0
v 11.0 9.0 13.0
v 11.0 9.0 10.0
v 11.0 9.044496536254883 11.0
v 11.0 9.0 12.0
v 11.0 9.0 13.0
v 11.0 14.0 10.0
v 11.0 14.0 10.0
v 11.0 14.0 10.0
v 11.0 13.955503463745117 11.0
v 11.0 14.0 12.0
v 11.0 14.0 13.0
v 11.0 14.0 13.0
v 11.0 14.0 10.0
v 11.0 14.140459060668945 11.0
v 11.0 15.0 12.0
v 11.0 15.0 13.0
v 11.0 15.0 12.0
v 11.0 15.0 13.0
v 12.0 8.0 12.0
v 12.0 8.0 12.0
v 12.0 8.0 13.0
v 12.0 8.0 13.0
v 12.0 9.0 10.0
v 12.0 9.0 10.0
v 12.0 8.859540939331055 11.0
v 12.0 9.0 13.0
v 12.0 9.0 10.0
v 12.0 9.044496536254883 11.0
v 12.0 9.0 12.0
v 12.0 9.0 13.0
v 12.0 14.0 10.0
v 12.0 14.0 10.0
v 12.0 13.955503463745117 11.0
v 12.0 14.0 12.0
v 12.0 14.0 13.0
v 12.0 14.0 13.0
v 12.0 14.0 10.0
v 12.0 14.140459060668945 11.0
v 12.0 15.0 12.0
v 12.0 15.0 13.0
v 12.0 15.0 12.0
v 12.0 15.0 13.0
v 13.0 8.0 12.0
v 13.0 8.0 12.0
v 13.0 8.0 13.0
v 13.0 8.0 13.0
v 12.0 9.0 10.0
v 13.0 9.0 10.787976264953613
v 13.0 8.898527145385742 11.0
v 13.0 9.0 13.0
v 13.0 9.185050964355469 11.0
v 13.0 9.0 12.0
v 13.0 9.0 13.0
v 12.0 14.0 10.0
v 13.0 14.0 10.787976264953613
v 13.0 13.814949035644531 11.0
v 13.0 14.0 12.0
v 13.0 14.0 13.0
v 13.0 14.0 13.0
v 13.0 14.101472854614258 11.0
v 13.0 15.0 12.0
v 13.0 15.0 13.0
v 13.0 15.0 12.0
v 13.0 15.0 13.0
v 14.0 8.0 12.0
v 14.0 8.0 12.0
v 14.0 8.0 13.0
v 14.0 8.0 13.0
v 14.0 9.0 11.0
v 14.0 9.0 11.0
v 14.0 9.0 13.0
v 13.814949035644531 10.0 11.0
v 14.0 10.0 10.778295516967773
v 14.0 10.0 12.0
v 14.0 10.0 13.0
v 14.0 10.0 13.0
v 14.0 11.0 10.0
v 14.0 11.0 10.0
v 14.0 11.0 10.0
v 13.955503463745117 11.0 11.0
v 14.0 11.0 12.0
v 14.0 11.0 13.0
v 14.0 11.0 13.0
v 14.0 12.0 10.0
v 14.0 12.0 10.0
v 13.955503463745117 12.0 11.0
v 14.0 12.0 12.0
v 14.0 12.0 13.0
v 14.0 12.0 13.0
v 14.0 12.0 10.0
v 14.0 13.0 10.778295516967773
v 13.814949035644531 13.0 11.0
v 14.0 13.0 12.0
v 14.0 13.0 13.0
v 14.0 13.0 13.0
v 14.0 14.0 11.0
v 14.0 14.0 13.0
v 14.0 14.0 11.0
v 14.0 15.0 12.0
v 14.0 15.0 13.0
v 14.0 15.0 12.0
v 14.0 15.0 13.0
v 14.0 8.0 12.0
v 15.0 8.0 13.0
v 15.0 8.0 13.0
v 15.0 8.0 13.0
v 14.0 9.0 11.0
v 15.0 9.0 12.0
v 15.0 9.0 12.0
v 15.0 9.0 13.0
v 14.619206428527832 10.0 11.0
v 15.0 10.0 12.0
v 15.0 10.0 13.0
v 14.0 11.0 10.0
v 15.0 11.0 11.0
v 15.0 11.0 11.0
v 15.0 11.0 13.0
v 14.0 12.0 10.0
v 15.0 12.0 11.0
v 15.0 12.0 13.0
v 15.0 12.0 11.0
v 14.619206428527832 13.0 11.0
v 15.0 13.0 12.0
v 15.0 13.0 13.0
v 14.0 14.0 11.0
v 15.0 14.0 12.0
v 15.0 14.0 13.0
v 15.0 14.0 12.0
v 14.0 15.0 12.0
v 15.0 15.0 13.0
v 15.0 15.0 13.0
v 15.0 15.0 13.0
v 16.0 8.0 13.0
v 16.0 8.0 13.0
v 16.0 8.0 13.0
v 15.0 9.0 12.0
v 16.0 9.0 13.0
v 16.0 9.0 13.0
v 15.0 10.0 12.0
v 16.0 10.0 13.0
v 16.0 10.0 13.0
v 15.0 11.0 11.0
v 15.0 11.0 12.0
v 16.0 11.0 13.0
v 16.0 11.0 13.0
v 15.0 12.0 11.0
v 15.0 12.0 12.0
v 16.0 12.0 13.0
v 16.0 12.0 13.0
v 15.0 13.0 12.0
v 16.0 13.0 13.0
v 16.0 13.0 13.0
v 15.0 14.0 12.0
v 16.0 14.0 13.0
v 16.0 14.0 13.0
v 16.0 15.0 13.0
v 16.0 15.0 13.0
v 16.0 15.0 13.0
v 16.0 8.0 13.0
v 16.0 9.0 13.0
v 16.0 10.0 13.0
v 16.0 11.0 13.0
v 16.0 12.0 13.0
v 16.0 13.0 13.0
v 16.0 14.0 13.0
v 16.0 15.0 13.0
f 3 2 1
f 4 1 2
f 3 1 5
f 3 5 6
f 1 4 7
f 1 7 5
f 6 5 8
f 6 8 9
f 5 7 10
f 5 10 8
f 9 8 11
f 9 11 12
f 8 10 13
f 8 13 11
f 12 11 14
f 12 14 15
f 11 13 16
f 11 16 14
f 15 14 17
f 15 17 18
f 14 16 19
f 14 19 17
f 18 17 20
f 18 20 21
f 17 19 22
f 17 22 20
f 21 20 23
f 21 23 24
f 20 22 25
f 20 25 23
f 26 24 23
f 26 23 25
f 28 27 2
f 28 2 3
f 4 2 27
f 4 27 29
f 32 31 30
f 31 28 30
f 28 6 30
f 28 3 6
f 29 7 4
f 33 7 29
f 32 30 34
f 32 34 35
f 9 34 6
f 6 34 30
f 33 10 7
f 36 10 33
f 39 38 37
f 37 38 35
f 34 37 35
f 40 37 34
f 12 40 9
f 9 40 34
f 36 13 10
f 41 13 36
f 39 37 42
f 39 42 43
f 44 37 40
f 42 37 44
f 15 44 12
f 12 44 40
f 41 16 13
f 45 16 41
f 46 43 42
f 48 47 46
f 42 48 46
f 44 48 42
f 18 48 15
f 15 48 44
f 45 19 16
f 49 19 45
f 47 48 50
f 47 50 51
f 21 50 18
f 18 50 48
f 49 22 19
f 52 22 49
f 53 51 50
f 50 21 53
f 21 54 53
f 21 24 54
f 52 25 22
f 55 25 52
f 56 54 24
f 56 24 26
f 26 25 55
f 26 55 56
f 59 58 57
f 27 28 57
f 58 27 57
f 60 27 58
f 29 27 60
f 29 60 61
f 64 63 62
f 62 63 59
f 62 59 57
f 32 62 57
f 31 32 57
f 31 57 28
f 61 33 29
f 65 33 61
f 64 62 66
f 64 66 67
f 35 66 32
f 32 66 62
f 65 36 33
f 68 36 65
f 71 70 69
f 69 70 67
f 69 67 66
f 39 69 66
f 38 39 66
f 38 66 35
f 68 41 36
f 72 41 68
f 71 69 73
f 71 73 74
f 43 73 39
f 39 73 69
f 72 45 41
f 75 45 72
f 76 74 73
f 78 76 77
f 77 76 46
f 76 73 46
f 73 43 46
f 47 77 46
f 75 49 45
f 79 49 75
f 78 77 80
f 78 80 81
f 51 80 47
f 47 80 77
f 79 52 49
f 82 52 79
f 83 81 80
f 85 83 84
f 84 83 53
f 83 80 53
f 80 51 53
f 54 84 53
f 82 55 52
f 86 55 82
f 87 85 84
f 87 84 54
f 56 87 54
f 88 87 56
f 56 55 86
f 56 86 88
f 90 89 58
f 90 58 59
f 58 91 60
f 89 91 58
f 61 60 91
f 61 91 92
f 94 93 63
f 94 63 64
f 59 63 90
f 90 63 93
f 92 65 61
f 95 65 92
f 67 97 96
f 94 67 96
f 64 67 94
f 99 98 97
f 97 98 96
f 101 100 99
f 99 100 98
f 95 100 101
f 68 95 101
f 65 95 68
f 71 102 70
f 97 67 70
f 102 97 70
f 103 97 102
f 97 104 99
f 97 103 104
f 99 105 101
f 99 104 105
f 105 72 68
f 105 68 101
f 74 106 102
f 74 102 71
f 102 107 103
f 102 106 107
f 103 108 104
f 103 107 108
f 104 109 105
f 104 108 109
f 109 75 72
f 109 72 105
f 76 106 74
f 106 76 78
f 110 106 78
f 107 106 110
f 107 111 108
f 107 110 111
f 108 112 109
f 108 111 112
f 112 79 75
f 112 75 109
f 114 113 110
f 78 114 110
f 81 114 78
f 110 113 111
f 111 113 115
f 111 115 112
f 112 115 116
f 79 112 116
f 117 79 116
f 82 79 117
f 118 114 81
f 118 81 83
f 83 85 118
f 118 85 119
f 117 86 82
f 120 86 117
f 121 119 85
f 121 85 87
f 122 87 88
f 122 121 87
f 88 86 120
f 88 120 122
f 124 123 89
f 124 89 90
f 89 125 91
f 123 125 89
f 92 91 125
f 92 125 126
f 129 128 127
f 93 94 127
f 128 93 127
f 130 93 128
f 90 93 124
f 124 93 130
f 126 95 92
f 131 95 126
f 132 129 127
f 132 127 94
f 96 132 94
f 133 132 96
f 134 96 98
f 134 133 96
f 135 98 100
f 135 134 98
f 100 95 131
f 100 131 135
f 138 137 136
f 113 114 136
f 137 113 136
f 139 113 137
f 113 140 115
f 139 140 113
f 115 141 116
f 140 141 115
f 117 116 141
f 117 141 142
f 143 138 136
f 143 136 114
f 118 143 114
f 144 143 118
f 118 119 144
f 144 119 145
f 142 120 117
f 146 120 142
f 147 145 119
f 147 119 121
f 148 121 122
f 148 147 121
f 122 120 146
f 122 146 148
f 150 149 123
f 150 123 124
f 123 151 125
f 149 151 123
f 126 125 151
f 126 151 152
f 154 153 128
f 154 128 129
f 128 155 130
f 153 155 128
f 124 130 150
f 150 130 155
f 152 131 126
f 156 131 152
f 157 154 129
f 157 129 132
f 158 132 133
f 158 157 132
f 159 133 134
f 159 158 133
f 160 134 135
f 160 159 134
f 135 131 156
f 135 156 160
f 162 161 137
f 162 137 138
f 137 163 139
f 161 163 137
f 139 164 140
f 163 164 139
f 140 165 141
f 164 165 140
f 142 141 165
f 142 165 166
f 167 162 138
f 167 138 143
f 168 143 144
f 168 167 143
f 144 145 168
f 168 145 169
f 166 146 142
f 170 146 166
f 171 169 145
f 171 145 147
f 172 147 148
f 172 171 147
f 148 146 170
f 148 170 172
f 174 173 149
f 174 149 150
f 149 175 151
f 173 175 149
f 152 151 175
f 152 175 176
f 154 177 153
f 153 177 178
f 179 153 178
f 155 153 179
f 150 155 174
f 174 155 179
f 176 156 152
f 180 156 176
f 157 177 154
f 181 178 177
f 157 181 177
f 158 181 157
f 182 158 159
f 182 181 158
f 183 159 160
f 183 182 159
f 160 156 180
f 160 180 183
f 162 184 161
f 161 184 185
f 186 161 185
f 163 161 186
f 163 187 164
f 186 187 163
f 164 188 165
f 187 188 164
f 166 165 188
f 166 188 189
f 167 184 162
f 190 185 184
f 167 190 184
f 168 190 167
f 168 169 190
f 190 169 191
f 189 170 166
f 192 170 189
f 193 191 169
f 193 169 171
f 194 171 172
f 194 193 171
f 172 170 192
f 172 192 194
f 196 195 173
f 196 173 174
f 173 197 175
f 195 197 173
f 176 175 197
f 176 197 198
f 200 199 179
f 200 179 178
f 174 179 196
f 196 179 199
f 198 180 176
f 201 180 198
f 178 181 202
f 203 178 202
f 200 178 203
f 182 204 181
f 181 204 202
f 183 205 182
f 182 205 204
f 206 205 183
f 180 206 183
f 201 206 180
f 209 208 207
f 207 208 203
f 202 207 203
f 210 207 202
f 211 202 204
f 210 202 211
f 212 204 205
f 211 204 212
f 205 206 213
f 205 213 212
f 209 207 214
f 209 214 215
f 216 207 210
f 214 207 216
f 217 210 211
f 216 210 217
f 218 211 212
f 217 211 218
f 212 213 219
f 212 219 218
f 220 215 214
f 222 221 220
f 214 222 220
f 216 222 214
f 223 216 217
f 222 216 223
f 224 217 218
f 223 217 224
f 218 219 225
f 218 225 224
f 221 222 186
f 185 221 186
f 226 221 185
f 186 222 187
f 187 222 223
f 187 223 188
f 188 223 224
f 189 188 224
f 225 189 224
f 227 189 225
f 228 226 185
f 228 185 190
f 190 191 228
f 228 191 229
f 227 192 189
f 230 192 227
f 231 229 191
f 231 191 193
f 232 193 194
f 232 231 193
f 194 192 230
f 194 230 232
f 196 233 195
f 195 233 234
f 235 195 234
f 197 195 235
f 198 197 235
f 198 235 236
f 200 237 199
f 237 238 199
f 199 238 196
f 238 239 196
f 239 233 196
f 233 239 234
f 236 201 198
f 240 201 236
f 203 241 237
f 203 237 200
f 238 237 242
f 242 237 241
f 240 206 201
f 243 206 240
f 209 244 208
f 244 245 208
f 208 245 203
f 245 246 203
f 246 241 203
f 241 246 242
f 243 213 206
f 247 213 243
f 215 248 244
f 215 244 209
f 245 244 249
f 249 244 248
f 247 219 213
f 250 219 247
f 220 248 215
f 252 251 221
f 221 251 220
f 251 249 220
f 249 248 220
f 252 253 251
f 250 225 219
f 254 225 250
f 226 255 252
f 226 252 221
f 253 252 256
f 256 252 255
f 254 227 225
f 257 227 254
f 228 255 226
f 259 258 229
f 229 258 228
f 258 256 228
f 256 255 228
f 259 260 258
f 257 230 227
f 261 230 257
f 231 259 229
f 262 260 259
f 231 262 259
f 232 262 231
f 232 230 261
f 232 261 262
f 264 263 235
f 264 235 234
f 236 235 263
f 236 263 265
f 238 266 239
f 266 267 239
f 267 234 239
f 267 264 234
f 265 240 236
f 268 240 265
f 242 269 266
f 242 266 238
f 267 266 270
f 270 266 269
f 268 243 240
f 271 243 268
f 245 272 246
f 269 242 246
f 272 269 246
f 273 269 272
f 270 269 274
f 274 269 273
f 271 247 243
f 275 247 271
f 249 276 272
f 249 272 245
f 272 277 273
f 272 276 277
f 274 273 278
f 278 273 277
f 275 250 247
f 279 250 275
f 251 276 249
f 276 251 253
f 280 276 253
f 277 276 280
f 278 277 281
f 281 277 280
f 279 254 250
f 282 254 279
f 256 283 280
f 256 280 253
f 281 280 284
f 284 280 283
f 282 257 254
f 285 257 282
f 258 283 256
f 258 260 283
f 260 284 283
f 260 286 284
f 285 261 257
f 287 261 285
f 288 286 260
f 288 260 262
f 262 261 287
f 262 287 288
f 264 289 263
f 289 265 263
f 267 290 289
f 267 289 264
f 290 268 265
f 290 265 289
f 270 291 290
f 270 290 267
f 291 271 268
f 291 268 290
f 274 292 291
f 274 291 270
f 292 275 271
f 292 271 291
f 278 293 292
f 278 292 274
f 293 279 275
f 293 275 292
f 281 294 293
f 281 293 278
f 294 282 279
f 294 279 293
f 284 295 294
f 284 294 281
f 295 285 282
f 295 282 294
f 286 296 295
f 286 295 284
f 296 287 285
f 296 285 295
f 288 296 286
f 296 288 287
