v 6.0 10.0 14.0
v 6.0 10.0 14.0
v 6.0 10.0 14.0
v 6.0 10.0 14.0
v 6.0 11.0 14.0
v 6.0 11.0 14.0
v 6.0 11.0 14.0
v 6.0 12.0 14.0
v 6.0 12.0 14.0
v 6.0 12.0 14.0
v 6.0 13.0 14.0
v 6.0 13.0 14.0
v 6.0 13.0 14.0
v 6.0 13.0 14.0
v 7.0 9.0 14.0
v 7.0 9.0 14.0
v 7.0 9.0 14.0
v 7.0 9.0 14.0
v 7.0 10.0 14.0
v 7.0 10.0 14.0
v 7.0 11.0 13.0
v 7.0 11.0 13.0
v 7.0 11.0 13.0
v 7.0 11.0 14.0
v 7.0 12.0 13.0
v 7.0 12.0 13.0
v 7.0 12.0 14.0
v 7.0 12.0 13.0
v 7.0 13.0 14.0
v 7.0 13.0 14.0
v 7.0 14.0 14.0
v 7.0 14.0 14.0
v 7.0 14.0 14.0
v 7.0 14.0 14.0
v 8.0 9.0 14.0
v 8.0 9.0 14.0
v 8.0 9.0 14.0
v 8.0 10.0 13.0
v 8.0 10.0 13.0
v 8.0 10.0 13.0
v 8.0 10.0 14.0
v 8.0 11.0 12.0
v 8.0 11.0 12.0
v 8.0 11.0 12.0
v 8.0 11.0 14.0
v 8.0 12.0 12.0
v 8.0 12.0 12.0
v 8.0 12.0 14.0
v 8.0 12.0 12.0
v 8.0 13.0 13.0
v 8.0 13.0 13.0
v 8.0 13.0 14.0
v 8.0 13.0 13.0
v 8.0 14.0 14.0
v 8.0 14.0 14.0
v 8.0 14.0 14.0
v 8.94198989868164 7.0 10.0
v 9.0 6.9194722175598145 10.0
v 9.0 7.0 9.91032886505127
v 9.0 7.0 10.045210838317871
v 9.0 7.122328758239746 10.0
v 9.0 8.0 14.0
v 9.0 8.0 14.0
v 9.0 8.0 14.0
v 9.0 8.0 14.0
v 9.0 9.0 13.0
v 9.0 9.0 13.0
v 9.0 9.0 13.0
v 9.0 9.0 14.0
v 9.0 10.0 12.0
v 9.0 10.0 12.0
v 9.0 10.0 12.0
v 9.0 10.0 14.0
v 9.0 11.0 11.0
v 9.0 11.0 11.0
v 9.0 11.0 11.0
v 9.0 11.0 14.0
v 9.0 12.0 11.0
v 9.0 12.0 11.0
v 9.0 12.0 14.0
v 9.0 12.0 11.0
v 9.0 13.0 12.0
v 9.0 13.0 12.0
v 9.0 13.0 14.0
v 9.0 13.0 12.0
v 9.0 14.0 13.0
v 9.0 14.0 13.0
v 9.0 14.0 14.0
v 9.0 14.0 13.0
v 9.0 15.0 14.0
v 9.0 15.0 14.0
v 9.0 15.0 14.0
v 8.94198989868164 16.0 10.0
v 9.0 15.877671241760254 10.0
v 9.0 16.0 9.91032886505127
v 9.0 16.0 10.045210838317871
v 9.0 15.0 14.0
v 9.0 16.080528259277344 10.0
v 9.046631813049316 7.0 10.0
v 10.0 8.0 14.0
v 10.0 8.0 14.0
v 10.0 8.0 14.0
v 9.911916732788086 9.0 10.0
v 10.0 8.810206413269043 10.0
v 10.0 9.0 9.843122482299805
v 10.0 9.0 10.146004676818848
v 10.0 9.0 12.0
v 10.0 9.0 12.0
v 10.0 9.0 12.0
v 10.0 9.0 13.0
v 10.0 9.0 14.0
v 9.985411643981934 10.0 10.0
v 10.0 10.0 9.977362632751465
v 10.0 10.0 11.0
v 10.0 10.0 11.0
v 10.0 10.0 14.0
v 10.0 11.0 9.0
v 10.0 11.0 9.0
v 10.0 11.0 9.0
v 9.539777755737305 11.0 10.0
v 10.0 11.0 14.0
v 10.0 12.0 9.0
v 10.0 12.0 9.0
v 9.539777755737305 12.0 10.0
v 10.0 12.0 14.0
v 10.0 12.0 9.0
v 10.0 13.0 9.977362632751465
v 9.985411643981934 13.0 10.0
v 10.0 13.0 11.0
v 10.0 13.0 14.0
v 9.911916732788086 14.0 10.0
v 10.0 14.0 9.843122482299805
v 10.0 14.0 10.146004676818848
v 10.0 13.0 11.0
v 10.0 14.0 12.0
v 10.0 14.0 12.0
v 10.0 14.0 14.0
v 10.0 14.189793586730957 10.0
v 10.0 14.0 12.0
v 10.0 14.0 13.0
v 10.0 15.0 14.0
v 10.0 15.0 14.0
v 9.046631813049316 16.0 10.0
v 10.0 15.0 14.0
v 11.0 8.0 14.0
v 11.0 8.0 14.0
v 11.0 8.0 14.0
v 10.154767036437988 9.0 10.0
v 11.0 9.0 12.0
v 11.0 9.0 12.0
v 11.0 9.0 13.0
v 11.0 9.0 14.0
v 11.0 10.0 9.0
v 11.0 10.0 9.0
v 11.0 10.0 9.0
v 11.0 9.565990447998047 10.0
v 11.0 10.0 11.0
v 11.0 10.0 14.0
v 10.0 11.0 9.0
v 11.0 10.0 9.0
v 11.0 10.41990852355957 10.0
v 10.41990852355957 11.0 10.0
v 11.0 10.0 11.0
v 10.0 11.0 11.0
v 11.0 10.0 12.0
v 10.0 11.0 12.0
v 11.0 10.0 13.0
v 10.0 11.0 13.0
v 11.0 10.0 14.0
v 10.0 11.0 14.0
v 10.0 12.0 9.0
v 10.41990852355957 12.0 10.0
v 10.0 12.0 11.0
v 10.0 12.0 12.0
v 10.0 12.0 13.0
v 10.0 12.0 14.0
v 11.0 13.0 9.0
v 11.0 13.0 9.0
v 11.0 13.0 9.0
v 11.0 12.58009147644043 10.0
v 11.0 13.0 11.0
v 11.0 13.0 12.0
v 11.0 13.0 13.0
v 11.0 13.0 14.0
v 11.0 13.0 14.0
v 11.0 13.0 9.0
v 11.0 13.434009552001953 10.0
v 10.154767036437988 14.0 10.0
v 11.0 13.0 11.0
v 11.0 14.0 12.0
v 11.0 14.0 14.0
v 11.0 14.0 12.0
v 11.0 14.0 13.0
v 11.0 15.0 14.0
v 11.0 15.0 14.0
v 11.0 15.0 14.0
v 12.0 8.0 14.0
v 12.0 8.0 14.0
v 12.0 8.0 14.0
v 12.0 9.0 12.0
v 12.0 9.0 12.0
v 12.0 9.0 13.0
v 12.0 9.0 14.0
v 12.0 10.0 9.0
v 12.0 10.0 9.0
v 12.0 9.565990447998047 10.0
v 12.0 10.0 11.0
v 12.0 10.0 14.0
v 12.0 10.0 9.0
v 12.0 10.41990852355957 10.0
v 12.0 10.0 11.0
v 12.0 10.0 12.0
v 12.0 10.0 13.0
v 12.0 10.0 14.0
v 12.0 13.0 9.0
v 12.0 13.0 9.0
v 12.0 12.58009147644043 10.0
v 12.0 13.0 11.0
v 12.0 13.0 12.0
v 12.0 13.0 13.0
v 12.0 13.0 14.0
v 12.0 13.0 14.0
v 12.0 13.0 9.0
v 12.0 13.434009552001953 10.0
v 12.0 13.0 11.0
v 12.0 14.0 12.0
v 12.0 14.0 14.0
v 12.0 14.0 12.0
v 12.0 14.0 13.0
v 12.0 15.0 14.0
v 12.0 15.0 14.0
v 12.0 15.0 14.0
v 13.0 8.0 14.0
v 13.0 8.0 14.0
v 13.0 8.0 14.0
v 12.845232963562012 9.0 10.0
v 13.0 8.810206413269043 10.0
v 13.0 9.0 9.843122482299805
v 13.0 9.0 10.146004676818848
v 13.0 9.0 12.0
v 13.0 9.0 12.0
v 13.0 9.0 13.0
v 13.0 9.0 14.0
v 12.0 10.0 9.0
v 13.0 10.0 9.977362632751465
v 13.0 10.0 11.0
v 13.0 10.0 14.0
v 13.0 11.0 9.0
v 13.0 11.0 9.0
v 13.0 11.0 9.0
v 12.58009147644043 11.0 10.0
v 13.0 11.0 11.0
v 13.0 11.0 12.0
v 13.0 11.0 13.0
v 13.0 11.0 14.0
v 13.0 11.0 14.0
v 13.0 12.0 9.0
v 13.0 12.0 9.0
v 12.58009147644043 12.0 10.0
v 13.0 12.0 11.0
v 13.0 12.0 12.0
v 13.0 12.0 13.0
v 13.0 12.0 14.0
v 13.0 12.0 14.0
v 12.0 13.0 9.0
v 13.0 12.0 9.0
v 13.0 13.0 9.977362632751465
v 13.0 13.0 14.0
v 13.0 14.0 9.843122482299805
v 12.845232963562012 14.0 10.0
v 13.0 14.0 10.146004676818848
v 13.0 13.0 11.0
v 13.0 14.0 12.0
v 13.0 14.0 14.0
v 13.0 14.189793586730957 10.0
v 13.0 14.0 12.0
v 13.0 14.0 13.0
v 13.0 15.0 14.0
v 13.0 15.0 14.0
v 13.0 15.0 14.0
v 13.953368186950684 7.0 10.0
v 14.0 6.9194722175598145 10.0
v 14.0 7.0 9.91032886505127
v 14.0 7.0 10.045210838317871
v 14.0 7.122328758239746 10.0
v 14.0 8.0 14.0
v 14.0 8.0 14.0
v 14.0 8.0 14.0
v 13.088083267211914 9.0 10.0
v 13.0 9.0 12.0
v 14.0 9.0 13.0
v 14.0 9.0 13.0
v 14.0 9.0 14.0
v 13.014588356018066 10.0 10.0
v 13.0 10.0 11.0
v 14.0 10.0 12.0
v 14.0 10.0 12.0
v 14.0 10.0 14.0
v 13.0 11.0 9.0
v 13.460222244262695 11.0 10.0
v 14.0 11.0 11.0
v 14.0 11.0 11.0
v 14.0 11.0 14.0
v 13.0 12.0 9.0
v 13.460222244262695 12.0 10.0
v 14.0 12.0 11.0
v 14.0 12.0 14.0
v 13.014588356018066 13.0 10.0
v 14.0 12.0 11.0
v 13.0 13.0 11.0
v 14.0 13.0 12.0
v 14.0 13.0 14.0
v 13.088083267211914 14.0 10.0
v 14.0 13.0 12.0
v 13.0 14.0 12.0
v 14.0 14.0 13.0
v 14.0 14.0 14.0
v 14.0 14.0 13.0
v 14.0 15.0 14.0
v 14.0 15.0 14.0
v 13.953368186950684 16.0 10.0
v 14.0 15.877671241760254 10.0
v 14.0 16.0 9.91032886505127
v 14.0 16.0 10.045210838317871
v 14.0 15.0 14.0
v 14.0 16.080528259277344 10.0
v 14.05801010131836 7.0 10.0
v 14.0 8.0 14.0
v 14.0 9.0 13.0
v 15.0 9.0 14.0
v 15.0 9.0 14.0
v 15.0 9.0 14.0
v 14.0 10.0 12.0
v 15.0 10.0 13.0
v 15.0 10.0 13.0
v 15.0 10.0 14.0
v 14.0 11.0 11.0
v 15.0 11.0 12.0
v 15.0 11.0 12.0
v 15.0 11.0 14.0
v 14.0 12.0 11.0
v 15.0 12.0 12.0
v 15.0 12.0 14.0
v 15.0 12.0 12.0
v 14.0 13.0 12.0
v 15.0 13.0 13.0
v 15.0 13.0 14.0
v 15.0 13.0 13.0
v 14.0 14.0 13.0
v 15.0 14.0 14.0
v 15.0 14.0 14.0
v 15.0 14.0 14.0
v 14.0 15.0 14.0
v 14.05801010131836 16.0 10.0
v 16.0 9.0 14.0
v 16.0 9.0 14.0
v 16.0 9.0 14.0
v 15.0 10.0 13.0
v 16.0 10.0 14.0
v 16.0 10.0 14.0
v 15.0 11.0 12.0
v 16.0 11.0 13.0
v 16.0 11.0 13.0
v 16.0 11.0 14.0
v 15.0 12.0 12.0
v 16.0 12.0 13.0
v 16.0 12.0 14.0
v 16.0 12.0 13.0
v 15.0 13.0 13.0
v 16.0 13.0 14.0
v 16.0 13.0 14.0
v 16.0 14.0 14.0
v 16.0 14.0 14.0
v 16.0 14.0 14.0
v 16.0 9.0 14.0
v 17.0 10.0 14.0
v 17.0 10.0 14.0
v 17.0 10.0 14.0
v 16.0 11.0 13.0
v 17.0 11.0 14.0
v 17.0 11.0 14.0
v 16.0 12.0 13.0
v 17.0 12.0 14.0
v 17.0 12.0 14.0
v 17.0 13.0 14.0
v 17.0 13.0 14.0
v 17.0 13.0 14.0
v 16.0 14.0 14.0
v 17.0 10.0 14.0
v 17.0 11.0 14.0
v 17.0 12.0 14.0
v 17.0 13.0 14.0
f 3 2 1
f 4 1 2
f 3 1 5
f 3 5 6
f 1 4 7
f 1 7 5
f 6 5 8
f 6 8 9
f 5 7 10
f 5 10 8
f 9 8 11
f 9 11 12
f 8 10 13
f 8 13 11
f 14 12 11
f 14 11 13
f 17 16 15
f 18 15 16
f 17 15 2
f 3 17 2
f 19 17 3
f 4 2 15
f 18 4 15
f 20 4 18
f 23 22 21
f 22 19 21
f 19 6 21
f 19 3 6
f 20 7 4
f 24 7 20
f 23 21 25
f 23 25 26
f 9 25 6
f 6 25 21
f 24 10 7
f 27 10 24
f 28 26 25
f 25 9 28
f 9 29 28
f 9 12 29
f 27 13 10
f 30 13 27
f 12 14 31
f 32 12 31
f 29 12 32
f 33 31 14
f 13 33 14
f 30 33 13
f 34 32 31
f 34 31 33
f 36 35 16
f 36 16 17
f 18 16 35
f 18 35 37
f 40 39 38
f 39 36 38
f 36 19 38
f 36 17 19
f 37 20 18
f 41 20 37
f 44 43 42
f 42 43 40
f 42 40 38
f 23 42 38
f 22 23 38
f 22 38 19
f 41 24 20
f 45 24 41
f 44 42 46
f 44 46 47
f 26 46 23
f 23 46 42
f 45 27 24
f 48 27 45
f 49 47 46
f 51 49 50
f 50 49 28
f 49 46 28
f 46 26 28
f 29 50 28
f 48 30 27
f 52 30 48
f 53 51 50
f 50 29 53
f 29 54 53
f 29 32 54
f 52 33 30
f 55 33 52
f 56 54 32
f 56 32 34
f 34 33 55
f 34 55 56
f 59 58 57
f 60 57 58
f 61 59 57
f 61 57 60
f 64 63 62
f 65 62 63
f 68 67 66
f 66 67 64
f 66 64 62
f 36 66 62
f 35 36 62
f 37 35 62
f 65 37 62
f 69 37 65
f 72 71 70
f 70 71 68
f 70 68 66
f 40 70 66
f 39 40 66
f 39 66 36
f 69 41 37
f 73 41 69
f 76 75 74
f 74 75 72
f 74 72 70
f 44 74 70
f 43 44 70
f 43 70 40
f 73 45 41
f 77 45 73
f 76 74 78
f 76 78 79
f 47 78 44
f 44 78 74
f 77 48 45
f 80 48 77
f 81 79 78
f 83 81 82
f 82 81 49
f 81 78 49
f 78 47 49
f 51 82 49
f 80 52 48
f 84 52 80
f 85 83 82
f 87 85 86
f 86 85 53
f 85 82 53
f 82 51 53
f 54 86 53
f 84 55 52
f 88 55 84
f 89 87 86
f 91 89 90
f 90 89 56
f 89 86 56
f 86 54 56
f 92 90 56
f 55 92 56
f 88 92 55
f 95 94 93
f 96 93 94
f 97 91 90
f 97 90 92
f 98 95 93
f 98 93 96
f 59 99 58
f 99 60 58
f 61 99 59
f 99 61 60
f 101 100 63
f 101 63 64
f 65 63 100
f 65 100 102
f 105 104 103
f 106 103 104
f 109 108 107
f 67 68 107
f 108 67 107
f 110 67 108
f 64 67 101
f 101 67 110
f 102 69 65
f 111 69 102
f 105 103 112
f 105 112 113
f 103 106 114
f 115 103 114
f 112 103 115
f 115 114 109
f 115 109 107
f 72 115 107
f 71 72 107
f 71 107 68
f 111 73 69
f 116 73 111
f 119 118 117
f 117 118 113
f 112 117 113
f 120 117 112
f 76 120 75
f 120 115 75
f 120 112 115
f 75 115 72
f 116 77 73
f 121 77 116
f 119 117 122
f 119 122 123
f 124 117 120
f 122 117 124
f 79 124 76
f 76 124 120
f 121 80 77
f 125 80 121
f 126 123 122
f 128 127 126
f 122 128 126
f 124 128 122
f 81 129 79
f 129 124 79
f 129 128 124
f 83 129 81
f 125 84 80
f 130 84 125
f 127 128 131
f 127 131 132
f 129 134 133
f 131 129 133
f 128 129 131
f 136 134 135
f 135 134 85
f 134 129 85
f 129 83 85
f 87 135 85
f 130 88 84
f 137 88 130
f 138 132 131
f 138 131 133
f 139 136 135
f 139 135 87
f 89 139 87
f 140 139 89
f 89 91 140
f 140 91 141
f 137 92 88
f 142 92 137
f 95 143 94
f 143 96 94
f 144 141 91
f 144 91 97
f 97 92 142
f 97 142 144
f 98 143 95
f 143 98 96
f 146 145 100
f 146 100 101
f 102 100 145
f 102 145 147
f 105 148 104
f 148 106 104
f 150 149 108
f 150 108 109
f 108 151 110
f 149 151 108
f 101 110 146
f 146 110 151
f 147 111 102
f 152 111 147
f 155 154 153
f 154 156 148
f 113 154 148
f 105 113 148
f 153 154 113
f 148 156 106
f 156 114 106
f 156 157 114
f 109 114 150
f 150 114 157
f 152 116 111
f 158 116 152
f 118 119 159
f 153 160 155
f 160 153 161
f 113 161 153
f 161 113 162
f 118 162 113
f 162 118 159
f 164 163 162
f 162 163 161
f 166 165 164
f 164 165 163
f 168 167 166
f 166 167 165
f 170 169 168
f 168 169 167
f 158 169 170
f 121 158 170
f 116 158 121
f 123 171 159
f 123 159 119
f 159 172 162
f 159 171 172
f 162 173 164
f 162 172 173
f 164 174 166
f 164 173 174
f 166 175 168
f 166 174 175
f 168 176 170
f 168 175 176
f 176 125 121
f 176 121 170
f 178 126 177
f 178 123 126
f 171 123 178
f 171 178 179
f 180 177 179
f 177 180 127
f 172 127 180
f 127 172 126
f 171 126 172
f 172 180 173
f 173 180 181
f 173 181 174
f 174 181 182
f 174 182 175
f 175 182 183
f 175 183 176
f 176 183 184
f 125 176 184
f 185 125 184
f 130 125 185
f 186 178 177
f 127 132 177
f 132 187 177
f 187 186 177
f 187 132 188
f 133 134 188
f 134 187 188
f 134 189 187
f 134 136 189
f 189 136 190
f 185 137 130
f 191 137 185
f 138 188 132
f 188 138 133
f 192 190 136
f 192 136 139
f 193 139 140
f 193 192 139
f 140 141 193
f 193 141 194
f 191 142 137
f 195 142 191
f 196 194 141
f 196 141 144
f 144 142 195
f 144 195 196
f 198 197 145
f 198 145 146
f 147 145 197
f 147 197 199
f 201 200 149
f 201 149 150
f 149 202 151
f 200 202 149
f 146 151 198
f 198 151 202
f 199 152 147
f 203 152 199
f 205 204 154
f 205 154 155
f 154 206 156
f 204 206 154
f 156 207 157
f 206 207 156
f 150 157 201
f 201 157 207
f 203 158 152
f 208 158 203
f 209 205 155
f 209 155 160
f 210 160 161
f 210 209 160
f 211 161 163
f 211 210 161
f 212 163 165
f 212 211 163
f 213 165 167
f 213 212 165
f 214 167 169
f 214 213 167
f 169 158 208
f 169 208 214
f 216 215 179
f 216 179 178
f 179 217 180
f 215 217 179
f 180 218 181
f 217 218 180
f 181 219 182
f 218 219 181
f 182 220 183
f 219 220 182
f 183 221 184
f 220 221 183
f 185 184 221
f 185 221 222
f 223 216 178
f 223 178 186
f 224 186 187
f 224 223 186
f 225 187 189
f 225 224 187
f 189 190 225
f 225 190 226
f 222 191 185
f 227 191 222
f 228 226 190
f 228 190 192
f 229 192 193
f 229 228 192
f 193 194 229
f 229 194 230
f 227 195 191
f 231 195 227
f 232 230 194
f 232 194 196
f 196 195 231
f 196 231 232
f 234 233 197
f 234 197 198
f 199 197 233
f 199 233 235
f 238 237 236
f 239 236 237
f 241 240 200
f 241 200 201
f 200 242 202
f 240 242 200
f 198 202 234
f 234 202 242
f 235 203 199
f 243 203 235
f 205 244 204
f 245 238 236
f 204 245 236
f 206 204 236
f 245 204 244
f 239 246 236
f 246 206 236
f 246 207 206
f 201 207 241
f 241 207 246
f 243 208 203
f 247 208 243
f 249 209 248
f 249 205 209
f 244 205 249
f 244 249 250
f 210 244 209
f 244 210 245
f 251 245 210
f 245 251 250
f 248 250 251
f 211 252 210
f 210 252 251
f 212 253 211
f 211 253 252
f 213 254 212
f 212 254 253
f 214 255 213
f 213 255 254
f 256 255 214
f 208 256 214
f 247 256 208
f 249 248 257
f 249 257 258
f 259 248 251
f 257 248 259
f 260 251 252
f 259 251 260
f 261 252 253
f 260 252 261
f 262 253 254
f 261 253 262
f 263 254 255
f 262 254 263
f 255 256 264
f 255 264 263
f 215 216 265
f 257 266 258
f 215 265 217
f 267 217 265
f 217 267 259
f 266 259 267
f 259 266 257
f 217 259 218
f 218 259 260
f 218 260 219
f 219 260 261
f 219 261 220
f 220 261 262
f 220 262 221
f 221 262 263
f 222 221 263
f 264 222 263
f 268 222 264
f 223 265 216
f 223 224 265
f 224 269 265
f 269 267 265
f 224 270 269
f 270 224 271
f 224 272 271
f 224 225 272
f 225 226 272
f 272 226 273
f 268 227 222
f 274 227 268
f 275 269 270
f 275 270 271
f 276 273 226
f 276 226 228
f 277 228 229
f 277 276 228
f 229 230 277
f 277 230 278
f 274 231 227
f 279 231 274
f 280 278 230
f 280 230 232
f 232 231 279
f 232 279 280
f 283 282 281
f 284 281 282
f 285 283 281
f 285 281 284
f 287 286 233
f 287 233 234
f 235 233 286
f 235 286 288
f 238 289 237
f 289 239 237
f 241 290 240
f 240 290 291
f 292 240 291
f 242 240 292
f 234 242 287
f 287 242 292
f 288 243 235
f 293 243 288
f 245 294 289
f 245 289 238
f 295 246 239
f 289 295 239
f 294 295 289
f 295 296 246
f 246 296 241
f 296 297 241
f 297 290 241
f 290 297 291
f 293 247 243
f 298 247 293
f 249 299 250
f 294 245 250
f 299 294 250
f 300 294 299
f 302 295 301
f 295 300 301
f 295 294 300
f 295 302 296
f 298 256 247
f 303 256 298
f 258 304 299
f 258 299 249
f 299 305 300
f 299 304 305
f 301 300 306
f 306 300 305
f 303 264 256
f 307 264 303
f 266 304 258
f 304 266 267
f 308 304 267
f 305 304 308
f 306 305 309
f 305 310 309
f 305 308 310
f 310 311 309
f 307 268 264
f 312 268 307
f 269 313 308
f 269 308 267
f 313 271 272
f 310 313 272
f 308 313 310
f 315 314 273
f 273 314 272
f 314 311 272
f 311 310 272
f 315 316 314
f 312 274 268
f 317 274 312
f 275 313 269
f 313 275 271
f 276 315 273
f 318 316 315
f 276 318 315
f 277 318 276
f 277 278 318
f 318 278 319
f 317 279 274
f 320 279 317
f 323 322 321
f 324 321 322
f 325 319 278
f 325 278 280
f 280 279 320
f 280 320 325
f 326 323 321
f 326 321 324
f 283 327 282
f 327 284 282
f 285 327 283
f 327 285 284
f 287 328 286
f 328 288 286
f 291 329 292
f 329 330 292
f 292 330 287
f 330 331 287
f 331 328 287
f 288 328 331
f 332 288 331
f 293 288 332
f 296 333 297
f 333 334 297
f 297 334 291
f 334 335 291
f 335 329 291
f 329 335 330
f 332 298 293
f 336 298 332
f 301 337 302
f 337 338 302
f 302 338 296
f 338 339 296
f 339 333 296
f 333 339 334
f 336 303 298
f 340 303 336
f 306 341 337
f 306 337 301
f 338 337 342
f 342 337 341
f 340 307 303
f 343 307 340
f 309 341 306
f 345 344 311
f 311 344 309
f 344 342 309
f 342 341 309
f 345 346 344
f 343 312 307
f 347 312 343
f 314 345 311
f 349 348 316
f 316 348 314
f 348 346 314
f 346 345 314
f 349 350 348
f 347 317 312
f 351 317 347
f 318 349 316
f 353 352 319
f 319 352 318
f 352 350 318
f 350 349 318
f 351 352 353
f 320 351 353
f 317 351 320
f 323 354 322
f 354 324 322
f 325 353 319
f 353 325 320
f 326 354 323
f 354 326 324
f 356 355 331
f 356 331 330
f 332 331 355
f 332 355 357
f 334 358 335
f 358 359 335
f 359 330 335
f 359 356 330
f 357 336 332
f 360 336 357
f 338 361 339
f 361 362 339
f 339 362 334
f 362 363 334
f 363 358 334
f 358 363 359
f 360 340 336
f 364 340 360
f 342 365 361
f 342 361 338
f 362 361 366
f 366 361 365
f 364 343 340
f 367 343 364
f 344 365 342
f 369 368 346
f 346 368 344
f 368 366 344
f 366 365 344
f 369 370 368
f 367 347 343
f 371 347 367
f 348 369 346
f 348 350 369
f 350 370 369
f 350 372 370
f 371 351 347
f 373 351 371
f 374 372 350
f 374 350 352
f 352 351 373
f 352 373 374
f 356 375 355
f 375 357 355
f 377 376 375
f 356 377 375
f 359 377 356
f 357 375 376
f 378 357 376
f 360 357 378
f 362 379 363
f 379 380 363
f 380 359 363
f 380 377 359
f 378 364 360
f 381 364 378
f 366 382 379
f 366 379 362
f 380 379 383
f 383 379 382
f 381 367 364
f 384 367 381
f 368 382 366
f 368 370 382
f 370 383 382
f 370 385 383
f 384 371 367
f 386 371 384
f 372 388 387
f 385 372 387
f 370 372 385
f 386 387 388
f 373 386 388
f 371 386 373
f 374 388 372
f 388 374 373
f 377 389 376
f 389 378 376
f 380 390 389
f 380 389 377
f 390 381 378
f 390 378 389
f 383 391 390
f 383 390 380
f 391 384 381
f 391 381 390
f 385 392 391
f 385 391 383
f 392 386 384
f 392 384 391
f 387 392 385
f 392 387 386
