v 6.0 10.0 14.0
v 6.0 10.0 14.0
v 6.0 10.0 14.0
v 6.0 10.0 14.0
v 6.0 11.0 14.0
v 6.0 11.0 14.0
v 6.0 11.0 14.0
v 6.0 12.0 14.0
v 6.0 12.0 14.0
v 6.0 12.0 14.0
v 6.0 13.0 14.0
v 6.0 13.0 14.0
v 6.0 13.0 14.0
v 6.0 13.0 14.0
v 7.0 9.0 14.0
v 7.0 9.0 14.0
v 7.0 9.0 14.0
v 7.0 9.0 14.0
v 7.0 10.0 14.0
v 7.0 10.0 14.0
v 7.0 11.0 13.0
v 7.0 11.0 13.0
v 7.0 11.0 13.0
v 7.0 11.0 14.0
v 7.0 12.0 13.0
v 7.0 12.0 13.0
v 7.0 12.0 14.0
v 7.0 12.0 13.0
v 7.0 13.0 14.0
v 7.0 13.0 14.0
v 7.0 14.0 14.0
v 7.0 14.0 14.0
v 7.0 14.0 14.0
v 7.0 14.0 14.0
v 8.0 9.0 14.0
v 8.0 9.0 14.0
v 8.0 9.0 14.0
v 8.0 10.0 13.0
v 8.0 10.0 13.0
v 8.0 10.0 13.0
v 8.0 10.0 14.0
v 8.0 11.0 12.0
v 8.0 11.0 12.0
v 8.0 11.0 12.0
v 8.0 11.0 14.0
v 8.0 12.0 12.0
v 8.0 12.0 12.0
v 8.0 12.0 14.0
v 8.0 12.0 12.0
v 8.0 13.0 13.0
v 8.0 13.0 13.0
v 8.0 13.0 14.0
v 8.0 13.0 13.0
v 8.0 14.0 14.0
v 8.0 14.0 14.0
v 8.0 14.0 14.0
v 9.0 8.0 14.0
v 9.0 8.0 14.0
v 9.0 8.0 14.0
v 9.0 8.0 14.0
v 9.0 9.0 13.0
v 9.0 9.0 13.0
v 9.0 9.0 13.0
v 9.0 9.0 14.0
v 9.0 10.0 12.0
v 9.0 10.0 12.0
v 9.0 10.0 12.0
v 9.0 10.0 14.0
v 9.0 11.0 11.0
v 9.0 11.0 11.0
v 9.0 11.0 11.0
v 9.0 11.0 14.0
v 9.0 12.0 11.0
v 9.0 12.0 11.0
v 9.0 12.0 14.0
v 9.0 12.0 11.0
v 9.0 13.0 12.0
v 9.0 13.0 12.0
v 9.0 13.0 14.0
v 9.0 13.0 12.0
v 9.0 14.0 13.0
v 9.0 14.0 13.0
v 9.0 14.0 14.0
v 9.0 14.0 13.0
v 9.0 15.0 14.0
v 9.0 15.0 14.0
v 9.0 15.0 14.0
v 9.0 15.0 14.0
v 10.0 8.0 14.0
v 10.0 8.0 14.0
v 10.0 8.0 14.0
v 10.0 9.0 12.0
v 10.0 9.0 12.0
v 10.0 9.0 12.0
v 10.0 9.0 13.0
v 10.0 9.0 14.0
v 10.0 10.0 11.0
v 10.0 10.0 11.0
v 10.0 10.0 11.0
v 10.0 10.0 14.0
v 10.0 11.0 9.0
v 10.0 11.0 9.0
v 10.0 11.0 9.0
v 10.0 11.0 10.0
v 10.0 11.0 10.0
v 10.0 11.0 14.0
v 10.0 12.0 9.0
v 10.0 12.0 9.0
v 10.0 12.0 10.0
v 10.0 12.0 14.0
v 10.0 12.0 9.0
v 10.0 12.0 10.0
v 10.0 13.0 11.0
v 10.0 13.0 11.0
v 10.0 13.0 14.0
v 10.0 13.0 11.0
v 10.0 14.0 12.0
v 10.0 14.0 12.0
v 10.0 14.0 14.0
v 10.0 14.0 12.0
v 10.0 14.0 13.0
v 10.0 15.0 14.0
v 10.0 15.0 14.0
v 10.0 15.0 14.0
v 11.0 8.0 14.0
v 11.0 8.0 14.0
v 11.0 8.0 14.0
v 11.0 9.0 12.0
v 11.0 9.0 12.0
v 11.0 9.0 13.0
v 11.0 9.0 14.0
v 11.0 10.0 9.0
v 11.0 10.0 9.0
v 11.0 10.0 9.0
v 11.0 10.0 10.0
v 11.0 10.0 10.0
v 11.0 10.0 11.0
v 11.0 10.0 14.0
v 10.0 11.0 9.0
v 11.0 10.0 9.0
v 11.0 10.0 10.0
v 10.0 11.0 10.0
v 11.0 10.0 11.0
v 10.0 11.0 11.0
v 11.0 10.0 12.0
v 10.0 11.0 12.0
v 11.0 10.0 13.0
v 10.0 11.0 13.0
v 11.0 10.0 14.0
v 10.0 11.0 14.0
v 10.0 12.0 9.0
v 10.0 12.0 10.0
v 10.0 12.0 11.0
v 10.0 12.0 12.0
v 10.0 12.0 13.0
v 10.0 12.0 14.0
v 11.0 13.0 9.0
v 11.0 13.0 9.0
v 11.0 13.0 9.0
v 11.0 13.0 10.0
v 11.0 13.0 10.0
v 11.0 13.0 11.0
v 11.0 13.0 12.0
v 11.0 13.0 13.0
v 11.0 13.0 14.0
v 11.0 13.0 14.0
v 11.0 13.0 9.0
v 11.0 13.0 10.0
v 11.0 13.0 11.0
v 11.0 14.0 12.0
v 11.0 14.0 14.0
v 11.0 14.0 12.0
v 11.0 14.0 13.0
v 11.0 15.0 14.0
v 11.0 15.0 14.0
v 11.0 15.0 14.0
v 12.0 8.0 14.0
v 12.0 8.0 14.0
v 12.0 8.0 14.0
v 12.0 9.0 12.0
v 12.0 9.0 12.0
v 12.0 9.0 13.0
v 12.0 9.0 14.0
v 12.0 10.0 9.0
v 12.0 10.0 9.0
v 12.0 10.0 10.0
v 12.0 10.0 11.0
v 12.0 10.0 14.0
v 12.0 10.0 9.0
v 12.0 10.0 10.0
v 12.0 10.0 11.0
v 12.0 10.0 12.0
v 12.0 10.0 13.0
v 12.0 10.0 14.0
v 12.0 13.0 9.0
v 12.0 13.0 9.0
v 12.0 13.0 10.0
v 12.0 13.0 11.0
v 12.0 13.0 12.0
v 12.0 13.0 13.0
v 12.0 13.0 14.0
v 12.0 13.0 14.0
v 12.0 13.0 9.0
v 12.0 13.0 10.0
v 12.0 13.0 11.0
v 12.0 14.0 12.0
v 12.0 14.0 14.0
v 12.0 14.0 12.0
v 12.0 14.0 13.0
v 12.0 15.0 14.0
v 12.0 15.0 14.0
v 12.0 15.0 14.0
v 13.0 8.0 14.0
v 13.0 8.0 14.0
v 13.0 8.0 14.0
v 13.0 9.0 12.0
v 13.0 9.0 12.0
v 13.0 9.0 13.0
v 13.0 9.0 14.0
v 12.0 10.0 9.0
v 12.0 10.0 10.0
v 13.0 10.0 11.0
v 13.0 10.0 11.0
v 13.0 10.0 14.0
v 13.0 11.0 9.0
v 13.0 11.0 9.0
v 13.0 11.0 9.0
v 13.0 11.0 10.0
v 13.0 11.0 10.0
v 13.0 11.0 11.0
v 13.0 11.0 12.0
v 13.0 11.0 13.0
v 13.0 11.0 14.0
v 13.0 11.0 14.0
v 13.0 12.0 9.0
v 13.0 12.0 9.0
v 13.0 12.0 10.0
v 13.0 12.0 11.0
v 13.0 12.0 12.0
v 13.0 12.0 13.0
v 13.0 12.0 14.0
v 13.0 12.0 14.0
v 12.0 13.0 9.0
v 13.0 12.0 9.0
v 13.0 12.0 10.0
v 12.0 13.0 10.0
v 13.0 13.0 11.0
v 13.0 13.0 14.0
v 13.0 13.0 11.0
v 13.0 14.0 12.0
v 13.0 14.0 14.0
v 13.0 14.0 12.0
v 13.0 14.0 13.0
v 13.0 15.0 14.0
v 13.0 15.0 14.0
v 13.0 15.0 14.0
v 14.0 8.0 14.0
v 14.0 8.0 14.0
v 14.0 8.0 14.0
v 13.0 9.0 12.0
v 14.0 9.0 13.0
v 14.0 9.0 13.0
v 14.0 9.0 14.0
v 13.0 10.0 11.0
v 14.0 10.0 12.0
v 14.0 10.0 12.0
v 14.0 10.0 14.0
v 13.0 11.0 9.0
v 13.0 11.0 10.0
v 14.0 11.0 11.0
v 14.0 11.0 11.0
v 14.0 11.0 14.0
v 13.0 12.0 9.0
v 13.0 12.0 10.0
v 14.0 12.0 11.0
v 14.0 12.0 14.0
v 14.0 12.0 11.0
v 13.0 13.0 11.0
v 14.0 13.0 12.0
v 14.0 13.0 14.0
v 14.0 13.0 12.0
v 13.0 14.0 12.0
v 14.0 14.0 13.0
v 14.0 14.0 14.0
v 14.0 14.0 13.0
v 14.0 15.0 14.0
v 14.0 15.0 14.0
v 14.0 15.0 14.0
v 14.0 8.0 14.0
v 14.0 9.0 13.0
v 15.0 9.0 14.0
v 15.0 9.0 14.0
v 15.0 9.0 14.0
v 14.0 10.0 12.0
v 15.0 10.0 13.0
v 15.0 10.0 13.0
v 15.0 10.0 14.0
v 14.0 11.0 11.0
v 15.0 11.0 12.0
v 15.0 11.0 12.0
v 15.0 11.0 14.0
v 14.0 12.0 11.0
v 15.0 12.0 12.0
v 15.0 12.0 14.0
v 15.0 12.0 12.0
v 14.0 13.0 12.0
v 15.0 13.0 13.0
v 15.0 13.0 14.0
v 15.0 13.0 13.0
v 14.0 14.0 13.0
v 15.0 14.0 14.0
v 15.0 14.0 14.0
v 15.0 14.0 14.0
v 14.0 15.0 14.0
v 16.0 9.0 14.0
v 16.0 9.0 14.0
v 16.0 9.0 14.0
v 15.0 10.0 13.0
v 16.0 10.0 14.0
v 16.0 10.0 14.0
v 15.0 11.0 12.0
v 16.0 11.0 13.0
v 16.0 11.0 13.0
v 16.0 11.0 14.0
v 15.0 12.0 12.0
v 16.0 12.0 13.0
v 16.0 12.0 14.0
v 16.0 12.0 13.0
v 15.0 13.0 13.0
v 16.0 13.0 14.0
v 16.0 13.0 14.0
v 16.0 14.0 14.0
v 16.0 14.0 14.0
v 16.0 14.0 14.0
v 16.0 9.0 14.0
v 17.0 10.0 14.0
v 17.0 10.0 14.0
v 17.0 10.0 14.0
v 16.0 11.0 13.0
v 17.0 11.0 14.0
v 17.0 11.0 14.0
v 16.0 12.0 13.0
v 17.0 12.0 14.0
v 17.0 12.0 14.0
v 17.0 13.0 14.0
v 17.0 13.0 14.0
v 17.0 13.0 14.0
v 16.0 14.0 14.0
v 17.0 10.0 14.0
v 17.0 11.0 14.0
v 17.0 12.0 14.0
v 17.0 13.0 14.0
f 3 2 1
f 4 1 2
f 3 1 5
f 3 5 6
f 1 4 7
f 1 7 5
f 6 5 8
f 6 8 9
f 5 7 10
f 5 10 8
f 9 8 11
f 9 11 12
f 8 10 13
f 8 13 11
f 14 12 11
f 14 11 13
f 17 16 15
f 18 15 16
f 17 15 2
f 3 17 2
f 19 17 3
f 4 2 15
f 18 4 15
f 20 4 18
f 23 22 21
f 22 19 21
f 19 6 21
f 19 3 6
f 20 7 4
f 24 7 20
f 23 21 25
f 23 25 26
f 9 25 6
f 6 25 21
f 24 10 7
f 27 10 24
f 28 26 25
f 25 9 28
f 9 29 28
f 9 12 29
f 27 13 10
f 30 13 27
f 12 14 31
f 32 12 31
f 29 12 32
f 33 31 14
f 13 33 14
f 30 33 13
f 34 32 31
f 34 31 33
f 36 35 16
f 36 16 17
f 18 16 35
f 18 35 37
f 40 39 38
f 39 36 38
f 36 19 38
f 36 17 19
f 37 20 18
f 41 20 37
f 44 43 42
f 42 43 40
f 42 40 38
f 23 42 38
f 22 23 38
f 22 38 19
f 41 24 20
f 45 24 41
f 44 42 46
f 44 46 47
f 26 46 23
f 23 46 42
f 45 27 24
f 48 27 45
f 49 47 46
f 51 49 50
f 50 49 28
f 49 46 28
f 46 26 28
f 29 50 28
f 48 30 27
f 52 30 48
f 53 51 50
f 50 29 53
f 29 54 53
f 29 32 54
f 52 33 30
f 55 33 52
f 56 54 32
f 56 32 34
f 34 33 55
f 34 55 56
f 59 58 57
f 60 57 58
f 63 62 61
f 61 62 59
f 61 59 57
f 36 61 57
f 35 36 57
f 37 35 57
f 60 37 57
f 64 37 60
f 67 66 65
f 65 66 63
f 65 63 61
f 40 65 61
f 39 40 61
f 39 61 36
f 64 41 37
f 68 41 64
f 71 70 69
f 69 70 67
f 69 67 65
f 44 69 65
f 43 44 65
f 43 65 40
f 68 45 41
f 72 45 68
f 71 69 73
f 71 73 74
f 47 73 44
f 44 73 69
f 72 48 45
f 75 48 72
f 76 74 73
f 78 76 77
f 77 76 49
f 76 73 49
f 73 47 49
f 51 77 49
f 75 52 48
f 79 52 75
f 80 78 77
f 82 80 81
f 81 80 53
f 80 77 53
f 77 51 53
f 54 81 53
f 79 55 52
f 83 55 79
f 84 82 81
f 86 84 85
f 85 84 56
f 84 81 56
f 81 54 56
f 87 85 56
f 55 87 56
f 83 87 55
f 88 86 85
f 88 85 87
f 90 89 58
f 90 58 59
f 60 58 89
f 60 89 91
f 94 93 92
f 62 63 92
f 93 62 92
f 95 62 93
f 59 62 90
f 90 62 95
f 91 64 60
f 96 64 91
f 99 98 97
f 97 98 94
f 97 94 92
f 67 97 92
f 66 67 92
f 66 92 63
f 96 68 64
f 100 68 96
f 103 102 101
f 105 104 101
f 105 101 102
f 104 105 99
f 104 99 97
f 71 104 97
f 70 71 97
f 70 97 67
f 100 72 68
f 106 72 100
f 103 101 107
f 103 107 108
f 109 101 104
f 107 101 109
f 74 109 71
f 71 109 104
f 106 75 72
f 110 75 106
f 111 108 107
f 111 107 109
f 111 109 112
f 114 112 113
f 113 112 76
f 112 109 76
f 109 74 76
f 78 113 76
f 110 79 75
f 115 79 110
f 116 114 113
f 118 116 117
f 117 116 80
f 116 113 80
f 113 78 80
f 82 117 80
f 115 83 79
f 119 83 115
f 120 118 117
f 120 117 82
f 84 120 82
f 121 120 84
f 84 86 121
f 121 86 122
f 119 87 83
f 123 87 119
f 124 122 86
f 124 86 88
f 88 87 123
f 88 123 124
f 126 125 89
f 126 89 90
f 91 89 125
f 91 125 127
f 129 128 93
f 129 93 94
f 93 130 95
f 128 130 93
f 90 95 126
f 126 95 130
f 127 96 91
f 131 96 127
f 134 133 132
f 136 135 132
f 136 132 133
f 98 99 135
f 136 98 135
f 137 98 136
f 94 98 129
f 129 98 137
f 131 100 96
f 138 100 131
f 102 103 139
f 132 140 134
f 140 135 141
f 135 140 132
f 142 105 139
f 102 139 105
f 141 135 143
f 99 143 135
f 143 99 144
f 105 144 99
f 144 105 142
f 146 145 144
f 144 145 143
f 148 147 146
f 146 147 145
f 150 149 148
f 148 149 147
f 138 149 150
f 106 138 150
f 100 138 106
f 108 151 139
f 108 139 103
f 139 152 142
f 139 151 152
f 142 153 144
f 142 152 153
f 144 154 146
f 144 153 154
f 146 155 148
f 146 154 155
f 148 156 150
f 148 155 156
f 156 110 106
f 156 106 150
f 158 111 157
f 158 108 111
f 151 108 158
f 151 158 159
f 161 160 159
f 157 159 160
f 151 112 152
f 112 151 111
f 162 160 161
f 160 162 114
f 153 114 162
f 114 153 112
f 152 112 153
f 153 162 154
f 154 162 163
f 154 163 155
f 155 163 164
f 155 164 156
f 156 164 165
f 110 156 165
f 166 110 165
f 115 110 166
f 167 158 157
f 167 157 160
f 167 160 168
f 168 160 114
f 116 168 114
f 169 168 116
f 116 118 169
f 169 118 170
f 166 119 115
f 171 119 166
f 172 170 118
f 172 118 120
f 173 120 121
f 173 172 120
f 121 122 173
f 173 122 174
f 171 123 119
f 175 123 171
f 176 174 122
f 176 122 124
f 124 123 175
f 124 175 176
f 178 177 125
f 178 125 126
f 127 125 177
f 127 177 179
f 181 180 128
f 181 128 129
f 128 182 130
f 180 182 128
f 126 130 178
f 178 130 182
f 179 131 127
f 183 131 179
f 185 184 133
f 185 133 134
f 133 186 136
f 184 186 133
f 136 187 137
f 186 187 136
f 129 137 181
f 181 137 187
f 183 138 131
f 188 138 183
f 189 185 134
f 189 134 140
f 190 140 141
f 190 189 140
f 191 141 143
f 191 190 141
f 192 143 145
f 192 191 143
f 193 145 147
f 193 192 145
f 194 147 149
f 194 193 147
f 149 138 188
f 149 188 194
f 196 195 159
f 196 159 158
f 159 197 161
f 195 197 159
f 161 198 162
f 197 198 161
f 162 199 163
f 198 199 162
f 163 200 164
f 199 200 163
f 164 201 165
f 200 201 164
f 166 165 201
f 166 201 202
f 203 196 158
f 203 158 167
f 204 167 168
f 204 203 167
f 205 168 169
f 205 204 168
f 169 170 205
f 205 170 206
f 202 171 166
f 207 171 202
f 208 206 170
f 208 170 172
f 209 172 173
f 209 208 172
f 173 174 209
f 209 174 210
f 207 175 171
f 211 175 207
f 212 210 174
f 212 174 176
f 176 175 211
f 176 211 212
f 214 213 177
f 214 177 178
f 179 177 213
f 179 213 215
f 217 216 180
f 217 180 181
f 180 218 182
f 216 218 180
f 178 182 214
f 214 182 218
f 215 183 179
f 219 183 215
f 185 220 184
f 221 186 184
f 221 184 220
f 186 221 222
f 223 186 222
f 187 186 223
f 181 187 217
f 217 187 223
f 219 188 183
f 224 188 219
f 226 189 225
f 226 185 189
f 220 185 226
f 220 226 227
f 229 228 227
f 225 227 228
f 220 190 221
f 190 220 189
f 191 221 190
f 221 191 222
f 230 222 191
f 222 230 229
f 228 229 230
f 192 231 191
f 191 231 230
f 193 232 192
f 192 232 231
f 194 233 193
f 193 233 232
f 234 233 194
f 188 234 194
f 224 234 188
f 226 225 235
f 226 235 236
f 237 225 228
f 235 225 237
f 238 228 230
f 237 228 238
f 239 230 231
f 238 230 239
f 240 231 232
f 239 231 240
f 241 232 233
f 240 232 241
f 233 234 242
f 233 242 241
f 195 196 243
f 235 244 236
f 244 237 245
f 237 244 235
f 246 197 243
f 195 243 197
f 197 246 198
f 247 198 246
f 198 247 238
f 245 238 247
f 238 245 237
f 198 238 199
f 199 238 239
f 199 239 200
f 200 239 240
f 200 240 201
f 201 240 241
f 202 201 241
f 242 202 241
f 248 202 242
f 203 243 196
f 243 203 204
f 243 204 246
f 249 247 246
f 204 249 246
f 205 249 204
f 205 206 249
f 249 206 250
f 248 207 202
f 251 207 248
f 252 250 206
f 252 206 208
f 253 208 209
f 253 252 208
f 209 210 253
f 253 210 254
f 251 211 207
f 255 211 251
f 256 254 210
f 256 210 212
f 212 211 255
f 212 255 256
f 258 257 213
f 258 213 214
f 215 213 257
f 215 257 259
f 217 260 216
f 216 260 261
f 262 216 261
f 218 216 262
f 214 218 258
f 258 218 262
f 259 219 215
f 263 219 259
f 222 264 223
f 264 265 223
f 223 265 217
f 265 266 217
f 266 260 217
f 260 266 261
f 263 224 219
f 267 224 263
f 226 268 227
f 269 229 227
f 269 227 268
f 269 270 229
f 229 270 222
f 270 271 222
f 271 264 222
f 264 271 265
f 267 234 224
f 272 234 267
f 236 273 268
f 236 268 226
f 268 274 269
f 268 273 274
f 270 269 275
f 275 269 274
f 272 242 234
f 276 242 272
f 244 273 236
f 273 244 245
f 273 245 274
f 278 277 247
f 247 277 245
f 277 275 245
f 275 274 245
f 278 279 277
f 276 248 242
f 280 248 276
f 249 278 247
f 282 281 250
f 250 281 249
f 281 279 249
f 279 278 249
f 282 283 281
f 280 251 248
f 284 251 280
f 252 282 250
f 285 283 282
f 252 285 282
f 253 285 252
f 253 254 285
f 285 254 286
f 284 255 251
f 287 255 284
f 288 286 254
f 288 254 256
f 256 255 287
f 256 287 288
f 258 289 257
f 289 259 257
f 261 290 262
f 290 291 262
f 262 291 258
f 291 292 258
f 292 289 258
f 259 289 292
f 293 259 292
f 263 259 293
f 265 294 266
f 294 295 266
f 266 295 261
f 295 296 261
f 296 290 261
f 290 296 291
f 293 267 263
f 297 267 293
f 270 298 271
f 298 299 271
f 271 299 265
f 299 300 265
f 300 294 265
f 294 300 295
f 297 272 267
f 301 272 297
f 275 302 298
f 275 298 270
f 299 298 303
f 303 298 302
f 301 276 272
f 304 276 301
f 277 302 275
f 306 305 279
f 279 305 277
f 305 303 277
f 303 302 277
f 306 307 305
f 304 280 276
f 308 280 304
f 281 306 279
f 310 309 283
f 283 309 281
f 309 307 281
f 307 306 281
f 310 311 309
f 308 284 280
f 312 284 308
f 285 310 283
f 314 313 286
f 286 313 285
f 313 311 285
f 311 310 285
f 312 313 314
f 287 312 314
f 284 312 287
f 288 314 286
f 314 288 287
f 316 315 292
f 316 292 291
f 293 292 315
f 293 315 317
f 295 318 296
f 318 319 296
f 319 291 296
f 319 316 291
f 317 297 293
f 320 297 317
f 299 321 300
f 321 322 300
f 300 322 295
f 322 323 295
f 323 318 295
f 318 323 319
f 320 301 297
f 324 301 320
f 303 325 321
f 303 321 299
f 322 321 326
f 326 321 325
f 324 304 301
f 327 304 324
f 305 325 303
f 329 328 307
f 307 328 305
f 328 326 305
f 326 325 305
f 329 330 328
f 327 308 304
f 331 308 327
f 309 329 307
f 309 311 329
f 311 330 329
f 311 332 330
f 331 312 308
f 333 312 331
f 334 332 311
f 334 311 313
f 313 312 333
f 313 333 334
f 316 335 315
f 335 317 315
f 337 336 335
f 316 337 335
f 319 337 316
f 317 335 336
f 338 317 336
f 320 317 338
f 322 339 323
f 339 340 323
f 340 319 323
f 340 337 319
f 338 324 320
f 341 324 338
f 326 342 339
f 326 339 322
f 340 339 343
f 343 339 342
f 341 327 324
f 344 327 341
f 328 342 326
f 328 330 342
f 330 343 342
f 330 345 343
f 344 331 327
f 346 331 344
f 332 348 347
f 345 332 347
f 330 332 345
f 346 347 348
f 333 346 348
f 331 346 333
f 334 348 332
f 348 334 333
f 337 349 336
f 349 338 336
f 340 350 349
f 340 349 337
f 350 341 338
f 350 338 349
f 343 351 350
f 343 350 340
f 351 344 341
f 351 341 350
f 345 352 351
f 345 351 343
f 352 346 344
f 352 344 351
f 347 352 345
f 352 347 346
