v 2.990140199661255 3.0 15.0
v 3.0 2.990140199661255 15.0
v 3.0 3.0 14.990226745605469
v 3.0 3.0 15.015027046203613
v 2.990140199661255 4.0 15.0
v 3.0 4.0 14.990226745605469
v 3.0 4.0 15.015027046203613
v 2.990140199661255 5.0 15.0
v 3.0 5.0 14.990226745605469
v 3.0 5.0 15.015027046203613
v 2.990140199661255 6.0 15.0
v 3.0 6.0 14.990226745605469
v 3.0 6.0 15.015027046203613
v 2.990140199661255 7.0 15.0
v 3.0 7.0 14.990226745605469
v 3.0 7.0 15.015027046203613
v 2.990140199661255 8.0 15.0
v 3.0 8.0 14.990226745605469
v 3.0 8.0 15.015027046203613
v 2.990140199661255 9.0 15.0
v 3.0 9.0 14.990226745605469
v 3.0 9.0 15.015027046203613
v 2.990140199661255 10.0 15.0
v 3.0 10.0 14.990226745605469
v 3.0 10.0 15.015027046203613
v 2.990140199661255 11.0 15.0
v 3.0 11.0 14.990226745605469
v 3.0 11.0 15.015027046203613
v 2.990140199661255 12.0 15.0
v 3.0 12.0 14.990226745605469
v 3.0 12.0 15.015027046203613
v 2.990140199661255 13.0 15.0
v 3.0 13.0 14.990226745605469
v 3.0 13.0 15.015027046203613
v 2.990140199661255 14.0 15.0
v 3.0 14.0 14.990226745605469
v 3.0 14.0 15.015027046203613
v 2.990140199661255 15.0 15.0
v 3.0 15.0 14.990226745605469
v 3.0 15.0 15.015027046203613
v 2.990140199661255 16.0 15.0
v 3.0 16.0 14.990226745605469
v 3.0 16.0 15.015027046203613
v 2.990140199661255 17.0 15.0
v 3.0 17.0 14.990226745605469
v 3.0 17.0 15.015027046203613
v 2.990140199661255 18.0 15.0
v 3.0 18.0 14.990226745605469
v 3.0 18.0 15.015027046203613
v 2.990140199661255 19.0 15.0
v 3.0 19.0 14.990226745605469
v 3.0 19.0 15.015027046203613
v 2.990140199661255 20.0 15.0
v 3.0 20.0 14.990226745605469
v 3.0 20.0 15.015027046203613
v 3.0 20.009859085083008 15.0
v 4.0 2.990140199661255 15.0
v 4.0 3.0 14.990226745605469
v 4.0 3.0 15.015027046203613
v 4.0 4.0 14.990226745605469
v 4.0 4.0 15.015027046203613
v 4.0 5.0 14.990226745605469
v 4.0 5.0 15.015027046203613
v 4.0 6.0 14.990226745605469
v 4.0 6.0 15.015027046203613
v 4.0 7.0 14.990226745605469
v 4.0 7.0 15.015027046203613
v 4.0 8.0 14.990226745605469
v 4.0 8.0 15.015027046203613
v 4.0 9.0 14.990226745605469
v 4.0 9.0 15.015027046203613
v 4.0 10.0 14.990226745605469
v 4.0 10.0 15.015027046203613
v 4.0 11.0 14.990226745605469
v 4.0 11.0 15.015027046203613
v 4.0 12.0 14.990226745605469
v 4.0 12.0 15.015027046203613
v 4.0 13.0 14.990226745605469
v 4.0 13.0 15.015027046203613
v 4.0 14.0 14.990226745605469
v 4.0 14.0 15.015027046203613
v 4.0 15.0 14.990226745605469
v 4.0 15.0 15.015027046203613
v 4.0 16.0 14.990226745605469
v 4.0 16.0 15.015027046203613
v 4.0 17.0 14.990226745605469
v 4.0 17.0 15.015027046203613
v 4.0 18.0 14.990226745605469
v 4.0 18.0 15.015027046203613
v 4.0 19.0 14.990226745605469
v 4.0 19.0 15.015027046203613
v 4.0 20.0 14.990226745605469
v 4.0 20.0 15.015027046203613
v 4.0 20.009859085083008 15.0
v 5.0 2.990140199661255 15.0
v 5.0 3.0 14.990226745605469
v 5.0 3.0 15.015027046203613
v 5.0 4.0 14.990226745605469
v 5.0 4.0 15.015027046203613
v 5.0 5.0 14.990226745605469
v 5.0 5.0 15.015027046203613
v 5.0 6.0 14.990226745605469
v 5.0 6.0 15.015027046203613
v 5.0 7.0 14.990226745605469
v 5.0 7.0 15.015027046203613
v 5.0 8.0 14.990226745605469
v 5.0 8.0 15.015027046203613
v 5.0 9.0 14.990226745605469
v 5.0 9.0 15.015027046203613
v 5.0 10.0 14.990226745605469
v 5.0 10.0 15.015027046203613
v 5.0 11.0 14.990226745605469
v 5.0 11.0 15.015027046203613
v 5.0 12.0 14.990226745605469
v 5.0 12.0 15.015027046203613
v 5.0 13.0 14.990226745605469
v 5.0 13.0 15.015027046203613
v 5.0 14.0 14.990226745605469
v 5.0 14.0 15.015027046203613
v 5.0 15.0 14.990226745605469
v 5.0 15.0 15.015027046203613
v 5.0 16.0 14.990226745605469
v 5.0 16.0 15.015027046203613
v 5.0 17.0 14.990226745605469
v 5.0 17.0 15.015027046203613
v 5.0 18.0 14.990226745605469
v 5.0 18.0 15.015027046203613
v 5.0 19.0 14.990226745605469
v 5.0 19.0 15.015027046203613
v 5.0 20.0 14.990226745605469
v 5.0 20.0 15.015027046203613
v 5.0 20.009859085083008 15.0
v 6.0 2.990140199661255 15.0
v 6.0 3.0 14.990226745605469
v 6.0 3.0 15.015027046203613
v 6.0 4.0 14.990226745605469
v 6.0 4.0 15.015027046203613
v 6.0 5.0 14.990226745605469
v 6.0 5.0 15.015027046203613
v 6.0 6.0 14.990226745605469
v 6.0 6.0 15.015027046203613
v 6.0 7.0 14.98973560333252
v 6.0 7.0 15.015027046203613
v 6.0 7.05205774307251 15.0
v 5.05205774307251 8.0 15.0
v 5.037820816040039 9.0 15.0
v 5.037415027618408 10.0 15.0
v 5.037412643432617 11.0 15.0
v 5.037412643432617 12.0 15.0
v 5.037415027618408 13.0 15.0
v 5.037820816040039 14.0 15.0
v 5.05205774307251 15.0 15.0
v 6.0 15.947942733764648 15.0
v 6.0 16.0 14.98973560333252
v 6.0 16.0 15.015027046203613
v 6.0 17.0 14.990226745605469
v 6.0 17.0 15.015027046203613
v 6.0 18.0 14.990226745605469
v 6.0 18.0 15.015027046203613
v 6.0 19.0 14.990226745605469
v 6.0 19.0 15.015027046203613
v 6.0 20.0 14.990226745605469
v 6.0 20.0 15.015027046203613
v 6.0 20.009859085083008 15.0
v 7.0 2.990140199661255 15.0
v 7.0 3.0 14.990226745605469
v 7.0 3.0 15.015027046203613
v 7.0 4.0 14.990226745605469
v 7.0 4.0 15.015027046203613
v 7.0 5.0 14.990226745605469
v 7.0 5.0 15.015027046203613
v 7.0 6.0 14.990226745605469
v 7.0 6.0 15.015027046203613
v 7.0 7.0 14.814859390258789
v 7.0 7.0 15.177934646606445
v 6.926228046417236 8.0 14.0
v 7.0 7.926551818847656 14.0
v 7.0 8.0 13.947669982910156
v 7.0 8.0 14.065372467041016
v 7.0 7.166995525360107 15.0
v 7.0 8.548175811767578 14.0
v 6.926228046417236 15.0 14.0
v 7.0 14.451824188232422 14.0
v 7.0 15.0 13.947669982910156
v 7.0 15.0 14.065372467041016
v 7.0 15.073448181152344 14.0
v 7.0 16.0 14.814859390258789
v 7.0 15.833003997802734 15.0
v 7.0 16.0 15.177934646606445
v 7.0 17.0 14.990226745605469
v 7.0 17.0 15.015027046203613
v 7.0 18.0 14.990226745605469
v 7.0 18.0 15.015027046203613
v 7.0 19.0 14.990226745605469
v 7.0 19.0 15.015027046203613
v 7.0 20.0 14.990226745605469
v 7.0 20.0 15.015027046203613
v 7.0 20.009859085083008 15.0
v 8.0 2.990140199661255 15.0
v 8.0 3.0 14.990226745605469
v 8.0 3.0 15.015027046203613
v 8.0 4.0 14.990226745605469
v 8.0 4.0 15.015027046203613
v 8.0 5.0 14.990226745605469
v 8.0 5.0 15.015027046203613
v 8.0 6.0 14.990226745605469
v 8.0 6.0 15.015027046203613
v 8.0 7.0 14.813326835632324
v 8.0 7.0 15.151864051818848
v 7.251039505004883 8.0 14.0
v 8.0 7.116829872131348 15.0
v 7.8744587898254395 9.0 13.0
v 8.0 8.796679496765137 13.0
v 8.0 9.0 12.899429321289062
v 8.0 9.0 13.104310035705566
v 8.0 9.537154197692871 13.0
v 7.8744587898254395 14.0 13.0
v 8.0 13.462845802307129 13.0
v 8.0 14.0 12.899429321289062
v 8.0 14.0 13.104310035705566
v 8.0 14.203320503234863 13.0
v 7.251039505004883 15.0 14.0
v 8.0 16.0 14.813326835632324
v 8.0 15.883170127868652 15.0
v 8.0 16.0 15.151864051818848
v 8.0 17.0 14.990226745605469
v 8.0 17.0 15.015027046203613
v 8.0 18.0 14.990226745605469
v 8.0 18.0 15.015027046203613
v 8.0 19.0 14.990226745605469
v 8.0 19.0 15.015027046203613
v 8.0 20.0 14.990226745605469
v 8.0 20.0 15.015027046203613
v 8.0 20.009859085083008 15.0
v 9.0 2.990140199661255 15.0
v 9.0 3.0 14.990226745605469
v 9.0 3.0 15.015027046203613
v 9.0 4.0 14.990226745605469
v 9.0 4.0 15.015027046203613
v 9.0 5.0 14.990226745605469
v 9.0 5.0 15.015027046203613
v 9.0 6.0 14.990226745605469
v 9.0 6.0 15.015027046203613
v 9.0 7.0 14.809907913208008
v 9.0 7.0 15.149457931518555
v 9.0 7.112648010253906 15.0
v 8.158422470092773 9.0 13.0
v 8.158422470092773 14.0 13.0
v 9.0 15.887351989746094 15.0
v 9.0 16.0 14.809907913208008
v 9.0 16.0 15.149457931518555
v 9.0 17.0 14.990226745605469
v 9.0 17.0 15.015027046203613
v 9.0 18.0 14.990226745605469
v 9.0 18.0 15.015027046203613
v 9.0 19.0 14.990226745605469
v 9.0 19.0 15.015027046203613
v 9.0 20.0 14.990226745605469
v 9.0 20.0 15.015027046203613
v 9.0 20.009859085083008 15.0
v 10.0 2.990140199661255 15.0
v 10.0 3.0 14.990226745605469
v 10.0 3.0 15.015027046203613
v 10.0 4.0 14.990226745605469
v 10.0 4.0 15.015027046203613
v 10.0 5.0 14.990226745605469
v 10.0 5.0 15.015027046203613
v 10.0 6.0 14.990226745605469
v 10.0 6.0 15.015027046203613
v 10.0 7.0 14.809447288513184
v 10.0 7.0 15.149369239807129
v 10.0 7.112494945526123 15.0
v 10.0 15.887504577636719 15.0
v 10.0 16.0 14.809447288513184
v 10.0 16.0 15.149369239807129
v 10.0 17.0 14.990226745605469
v 10.0 17.0 15.015027046203613
v 10.0 18.0 14.990226745605469
v 10.0 18.0 15.015027046203613
v 10.0 19.0 14.990226745605469
v 10.0 19.0 15.015027046203613
v 10.0 20.0 14.990226745605469
v 10.0 20.0 15.015027046203613
v 10.0 20.009859085083008 15.0
v 11.0 2.990140199661255 15.0
v 11.0 3.0 14.990226745605469
v 11.0 3.0 15.015027046203613
v 11.0 4.0 14.990226745605469
v 11.0 4.0 15.015027046203613
v 11.0 5.0 14.990226745605469
v 11.0 5.0 15.015027046203613
v 11.0 6.0 14.990226745605469
v 11.0 6.0 15.015027046203613
v 11.0 7.0 14.80943489074707
v 11.0 7.0 15.149368286132812
v 11.0 7.112493991851807 15.0
v 11.0 15.887505531311035 15.0
v 11.0 16.0 14.80943489074707
v 11.0 16.0 15.149368286132812
v 11.0 17.0 14.990226745605469
v 11.0 17.0 15.015027046203613
v 11.0 18.0 14.990226745605469
v 11.0 18.0 15.015027046203613
v 11.0 19.0 14.990226745605469
v 11.0 19.0 15.015027046203613
v 11.0 20.0 14.990226745605469
v 11.0 20.0 15.015027046203613
v 11.0 20.009859085083008 15.0
v 12.0 2.990140199661255 15.0
v 12.0 3.0 14.990226745605469
v 12.0 3.0 15.015027046203613
v 12.0 4.0 14.990226745605469
v 12.0 4.0 15.015027046203613
v 12.0 5.0 14.990226745605469
v 12.0 5.0 15.015027046203613
v 12.0 6.0 14.990226745605469
v 12.0 6.0 15.015027046203613
v 12.0 7.0 14.80943489074707
v 12.0 7.0 15.149368286132812
v 12.0 7.112493991851807 15.0
v 12.0 15.887505531311035 15.0
v 12.0 16.0 14.80943489074707
v 12.0 16.0 15.149368286132812
v 12.0 17.0 14.990226745605469
v 12.0 17.0 15.015027046203613
v 12.0 18.0 14.990226745605469
v 12.0 18.0 15.015027046203613
v 12.0 19.0 14.990226745605469
v 12.0 19.0 15.015027046203613
v 12.0 20.0 14.990226745605469
v 12.0 20.0 15.015027046203613
v 12.0 20.009859085083008 15.0
v 13.0 2.990140199661255 15.0
v 13.0 3.0 14.990226745605469
v 13.0 3.0 15.015027046203613
v 13.0 4.0 14.990226745605469
v 13.0 4.0 15.015027046203613
v 13.0 5.0 14.990226745605469
v 13.0 5.0 15.015027046203613
v 13.0 6.0 14.990226745605469
v 13.0 6.0 15.015027046203613
v 13.0 7.0 14.809447288513184
v 13.0 7.0 15.149369239807129
v 13.0 7.112494945526123 15.0
v 13.0 15.887504577636719 15.0
v 13.0 16.0 14.809447288513184
v 13.0 16.0 15.149369239807129
v 13.0 17.0 14.990226745605469
v 13.0 17.0 15.015027046203613
v 13.0 18.0 14.990226745605469
v 13.0 18.0 15.015027046203613
v 13.0 19.0 14.990226745605469
v 13.0 19.0 15.015027046203613
v 13.0 20.0 14.990226745605469
v 13.0 20.0 15.015027046203613
v 13.0 20.009859085083008 15.0
v 14.0 2.990140199661255 15.0
v 14.0 3.0 14.990226745605469
v 14.0 3.0 15.015027046203613
v 14.0 4.0 14.990226745605469
v 14.0 4.0 15.015027046203613
v 14.0 5.0 14.990226745605469
v 14.0 5.0 15.015027046203613
v 14.0 6.0 14.990226745605469
v 14.0 6.0 15.015027046203613
v 14.0 7.0 14.809907913208008
v 14.0 7.0 15.149457931518555
v 14.0 7.112648010253906 15.0
v 14.0 15.887351989746094 15.0
v 14.0 16.0 14.809907913208008
v 14.0 16.0 15.149457931518555
v 14.0 17.0 14.990226745605469
v 14.0 17.0 15.015027046203613
v 14.0 18.0 14.990226745605469
v 14.0 18.0 15.015027046203613
v 14.0 19.0 14.990226745605469
v 14.0 19.0 15.015027046203613
v 14.0 20.0 14.990226745605469
v 14.0 20.0 15.015027046203613
v 14.0 20.009859085083008 15.0
v 15.0 2.990140199661255 15.0
v 15.0 3.0 14.990226745605469
v 15.0 3.0 15.015027046203613
v 15.0 4.0 14.990226745605469
v 15.0 4.0 15.015027046203613
v 15.0 5.0 14.990226745605469
v 15.0 5.0 15.015027046203613
v 15.0 6.0 14.990226745605469
v 15.0 6.0 15.015027046203613
v 15.0 7.0 14.813326835632324
v 15.0 7.0 15.151864051818848
v 15.0 7.116829872131348 15.0
v 14.841577529907227 9.0 13.0
v 15.0 8.796679496765137 13.0
v 15.0 9.0 12.899429321289062
v 15.0 9.0 13.104310035705566
v 15.0 9.537154197692871 13.0
v 14.841577529907227 14.0 13.0
v 15.0 13.462845802307129 13.0
v 15.0 14.0 12.899429321289062
v 15.0 14.0 13.104310035705566
v 15.0 14.203320503234863 13.0
v 15.0 15.883170127868652 15.0
v 15.0 16.0 14.813326835632324
v 15.0 16.0 15.151864051818848
v 15.0 17.0 14.990226745605469
v 15.0 17.0 15.015027046203613
v 15.0 18.0 14.990226745605469
v 15.0 18.0 15.015027046203613
v 15.0 19.0 14.990226745605469
v 15.0 19.0 15.015027046203613
v 15.0 20.0 14.990226745605469
v 15.0 20.0 15.015027046203613
v 15.0 20.009859085083008 15.0
v 16.0 2.990140199661255 15.0
v 16.0 3.0 14.990226745605469
v 16.0 3.0 15.015027046203613
v 16.0 4.0 14.990226745605469
v 16.0 4.0 15.015027046203613
v 16.0 5.0 14.990226745605469
v 16.0 5.0 15.015027046203613
v 16.0 6.0 14.990226745605469
v 16.0 6.0 15.015027046203613
v 16.0 7.0 14.814859390258789
v 16.0 7.0 15.177934646606445
v 15.748960494995117 8.0 14.0
v 16.0 7.926551818847656 14.0
v 16.0 8.0 13.947669982910156
v 16.0 8.0 14.065372467041016
v 16.0 7.166995525360107 15.0
v 15.125541687011719 9.0 13.0
v 16.0 8.548175811767578 14.0
v 15.125541687011719 14.0 13.0
v 16.0 15.0 13.947669982910156
v 15.748960494995117 15.0 14.0
v 16.0 14.451824188232422 14.0
v 16.0 15.0 14.065372467041016
v 16.0 15.073448181152344 14.0
v 16.0 16.0 14.814859390258789
v 16.0 15.833003997802734 15.0
v 16.0 16.0 15.177934646606445
v 16.0 17.0 14.990226745605469
v 16.0 17.0 15.015027046203613
v 16.0 18.0 14.990226745605469
v 16.0 18.0 15.015027046203613
v 16.0 19.0 14.990226745605469
v 16.0 19.0 15.015027046203613
v 16.0 20.0 14.990226745605469
v 16.0 20.0 15.015027046203613
v 16.0 20.009859085083008 15.0
v 17.0 2.990140199661255 15.0
v 17.0 3.0 14.990226745605469
v 17.0 3.0 15.015027046203613
v 17.0 4.0 14.990226745605469
v 17.0 4.0 15.015027046203613
v 17.0 5.0 14.990226745605469
v 17.0 5.0 15.015027046203613
v 17.0 6.0 14.990226745605469
v 17.0 6.0 15.015027046203613
v 17.0 7.0 14.98973560333252
v 17.0 7.0 15.015027046203613
v 16.073772430419922 8.0 14.0
v 17.0 7.05205774307251 15.0
v 16.073772430419922 15.0 14.0
v 17.0 16.0 14.98973560333252
v 17.0 15.947942733764648 15.0
v 17.0 16.0 15.015027046203613
v 17.0 17.0 14.990226745605469
v 17.0 17.0 15.015027046203613
v 17.0 18.0 14.990226745605469
v 17.0 18.0 15.015027046203613
v 17.0 19.0 14.990226745605469
v 17.0 19.0 15.015027046203613
v 17.0 20.0 14.990226745605469
v 17.0 20.0 15.015027046203613
v 17.0 20.009859085083008 15.0
v 18.0 2.990140199661255 15.0
v 18.0 3.0 14.990226745605469
v 18.0 3.0 15.015027046203613
v 18.0 4.0 14.990226745605469
v 18.0 4.0 15.015027046203613
v 18.0 5.0 14.990226745605469
v 18.0 5.0 15.015027046203613
v 18.0 6.0 14.990226745605469
v 18.0 6.0 15.015027046203613
v 18.0 7.0 14.990226745605469
v 18.0 7.0 15.015027046203613
v 17.94794273376465 8.0 15.0
v 18.0 8.0 14.990226745605469
v 18.0 8.0 15.015027046203613
v 17.96217918395996 9.0 15.0
v 18.0 9.0 14.990226745605469
v 18.0 9.0 15.015027046203613
v 17.96258544921875 10.0 15.0
v 18.0 10.0 14.990226745605469
v 18.0 10.0 15.015027046203613
v 17.962587356567383 11.0 15.0
v 18.0 11.0 14.990226745605469
v 18.0 11.0 15.015027046203613
v 17.962587356567383 12.0 15.0
v 18.0 12.0 14.990226745605469
v 18.0 12.0 15.015027046203613
v 17.96258544921875 13.0 15.0
v 18.0 13.0 14.990226745605469
v 18.0 13.0 15.015027046203613
v 17.96217918395996 14.0 15.0
v 18.0 14.0 14.990226745605469
v 18.0 14.0 15.015027046203613
v 17.94794273376465 15.0 15.0
v 18.0 15.0 14.990226745605469
v 18.0 15.0 15.015027046203613
v 18.0 16.0 14.990226745605469
v 18.0 16.0 15.015027046203613
v 18.0 17.0 14.990226745605469
v 18.0 17.0 15.015027046203613
v 18.0 18.0 14.990226745605469
v 18.0 18.0 15.015027046203613
v 18.0 19.0 14.990226745605469
v 18.0 19.0 15.015027046203613
v 18.0 20.0 14.990226745605469
v 18.0 20.0 15.015027046203613
v 18.0 20.009859085083008 15.0
v 19.0 2.990140199661255 15.0
v 19.0 3.0 14.990226745605469
v 19.0 3.0 15.015027046203613
v 19.0 4.0 14.990226745605469
v 19.0 4.0 15.015027046203613
v 19.0 5.0 14.990226745605469
v 19.0 5.0 15.015027046203613
v 19.0 6.0 14.990226745605469
v 19.0 6.0 15.015027046203613
v 19.0 7.0 14.990226745605469
v 19.0 7.0 15.015027046203613
v 19.0 8.0 14.990226745605469
v 19.0 8.0 15.015027046203613
v 19.0 9.0 14.990226745605469
v 19.0 9.0 15.015027046203613
v 19.0 10.0 14.990226745605469
v 19.0 10.0 15.015027046203613
v 19.0 11.0 14.990226745605469
v 19.0 11.0 15.015027046203613
v 19.0 12.0 14.990226745605469
v 19.0 12.0 15.015027046203613
v 19.0 13.0 14.990226745605469
v 19.0 13.0 15.015027046203613
v 19.0 14.0 14.990226745605469
v 19.0 14.0 15.015027046203613
v 19.0 15.0 14.990226745605469
v 19.0 15.0 15.015027046203613
v 19.0 16.0 14.990226745605469
v 19.0 16.0 15.015027046203613
v 19.0 17.0 14.990226745605469
v 19.0 17.0 15.015027046203613
v 19.0 18.0 14.990226745605469
v 19.0 18.0 15.015027046203613
v 19.0 19.0 14.990226745605469
v 19.0 19.0 15.015027046203613
v 19.0 20.0 14.990226745605469
v 19.0 20.0 15.015027046203613
v 19.0 20.009859085083008 15.0
v 20.0 2.990140199661255 15.0
v 20.0 3.0 14.990226745605469
v 20.0 3.0 15.015027046203613
v 20.0 4.0 14.990226745605469
v 20.0 4.0 15.015027046203613
v 20.0 5.0 14.990226745605469
v 20.0 5.0 15.015027046203613
v 20.0 6.0 14.990226745605469
v 20.0 6.0 15.015027046203613
v 20.0 7.0 14.990226745605469
v 20.0 7.0 15.015027046203613
v 20.0 8.0 14.990226745605469
v 20.0 8.0 15.015027046203613
v 20.0 9.0 14.990226745605469
v 20.0 9.0 15.015027046203613
v 20.0 10.0 14.990226745605469
v 20.0 10.0 15.015027046203613
v 20.0 11.0 14.990226745605469
v 20.0 11.0 15.015027046203613
v 20.0 12.0 14.990226745605469
v 20.0 12.0 15.015027046203613
v 20.0 13.0 14.990226745605469
v 20.0 13.0 15.015027046203613
v 20.0 14.0 14.990226745605469
v 20.0 14.0 15.015027046203613
v 20.0 15.0 14.990226745605469
v 20.0 15.0 15.015027046203613
v 20.0 16.0 14.990226745605469
v 20.0 16.0 15.015027046203613
v 20.0 17.0 14.990226745605469
v 20.0 17.0 15.015027046203613
v 20.0 18.0 14.990226745605469
v 20.0 18.0 15.015027046203613
v 20.0 19.0 14.990226745605469
v 20.0 19.0 15.015027046203613
v 20.0 20.0 14.990226745605469
v 20.0 20.0 15.015027046203613
v 20.0 20.009859085083008 15.0
v 20.009859085083008 3.0 15.0
v 20.009859085083008 4.0 15.0
v 20.009859085083008 5.0 15.0
v 20.009859085083008 6.0 15.0
v 20.009859085083008 7.0 15.0
v 20.009859085083008 8.0 15.0
v 20.009859085083008 9.0 15.0
v 20.009859085083008 10.0 15.0
v 20.009859085083008 11.0 15.0
v 20.009859085083008 12.0 15.0
v 20.009859085083008 13.0 15.0
v 20.009859085083008 14.0 15.0
v 20.009859085083008 15.0 15.0
v 20.009859085083008 16.0 15.0
v 20.009859085083008 17.0 15.0
v 20.009859085083008 18.0 15.0
v 20.009859085083008 19.0 15.0
v 20.009859085083008 20.0 15.0
f 3 2 1
f 4 1 2
f 3 1 5
f 3 5 6
f 1 4 7
f 1 7 5
f 6 5 8
f 6 8 9
f 5 7 10
f 5 10 8
f 9 8 11
f 9 11 12
f 8 10 13
f 8 13 11
f 12 11 14
f 12 14 15
f 11 13 16
f 11 16 14
f 15 14 17
f 15 17 18
f 14 16 19
f 14 19 17
f 18 17 20
f 18 20 21
f 17 19 22
f 17 22 20
f 21 20 23
f 21 23 24
f 20 22 25
f 20 25 23
f 24 23 26
f 24 26 27
f 23 25 28
f 23 28 26
f 27 26 29
f 27 29 30
f 26 28 31
f 26 31 29
f 30 29 32
f 30 32 33
f 29 31 34
f 29 34 32
f 33 32 35
f 33 35 36
f 32 34 37
f 32 37 35
f 36 35 38
f 36 38 39
f 35 37 40
f 35 40 38
f 39 38 41
f 39 41 42
f 38 40 43
f 38 43 41
f 42 41 44
f 42 44 45
f 41 43 46
f 41 46 44
f 45 44 47
f 45 47 48
f 44 46 49
f 44 49 47
f 48 47 50
f 48 50 51
f 47 49 52
f 47 52 50
f 51 50 53
f 51 53 54
f 50 52 55
f 50 55 53
f 56 54 53
f 56 53 55
f 58 57 2
f 58 2 3
f 4 2 57
f 4 57 59
f 6 58 3
f 6 60 58
f 59 7 4
f 61 7 59
f 9 60 6
f 9 62 60
f 61 10 7
f 63 10 61
f 12 62 9
f 12 64 62
f 63 13 10
f 65 13 63
f 15 64 12
f 15 66 64
f 65 16 13
f 67 16 65
f 18 66 15
f 18 68 66
f 67 19 16
f 69 19 67
f 21 68 18
f 21 70 68
f 69 22 19
f 71 22 69
f 24 70 21
f 24 72 70
f 71 25 22
f 73 25 71
f 27 72 24
f 27 74 72
f 73 28 25
f 75 28 73
f 30 74 27
f 30 76 74
f 75 31 28
f 77 31 75
f 33 76 30
f 33 78 76
f 77 34 31
f 79 34 77
f 36 78 33
f 36 80 78
f 79 37 34
f 81 37 79
f 39 80 36
f 39 82 80
f 81 40 37
f 83 40 81
f 42 82 39
f 42 84 82
f 83 43 40
f 85 43 83
f 45 84 42
f 45 86 84
f 85 46 43
f 87 46 85
f 48 86 45
f 48 88 86
f 87 49 46
f 89 49 87
f 51 88 48
f 51 90 88
f 89 52 49
f 91 52 89
f 54 90 51
f 54 92 90
f 91 55 52
f 93 55 91
f 94 92 54
f 94 54 56
f 56 55 93
f 56 93 94
f 96 95 57
f 96 57 58
f 59 57 95
f 59 95 97
f 60 96 58
f 60 98 96
f 97 61 59
f 99 61 97
f 62 98 60
f 62 100 98
f 99 63 61
f 101 63 99
f 64 100 62
f 64 102 100
f 101 65 63
f 103 65 101
f 66 102 64
f 66 104 102
f 103 67 65
f 105 67 103
f 68 104 66
f 68 106 104
f 105 69 67
f 107 69 105
f 70 106 68
f 70 108 106
f 107 71 69
f 109 71 107
f 72 108 70
f 72 110 108
f 109 73 71
f 111 73 109
f 74 110 72
f 74 112 110
f 111 75 73
f 113 75 111
f 76 112 74
f 76 114 112
f 113 77 75
f 115 77 113
f 78 114 76
f 78 116 114
f 115 79 77
f 117 79 115
f 80 116 78
f 80 118 116
f 117 81 79
f 119 81 117
f 82 118 80
f 82 120 118
f 119 83 81
f 121 83 119
f 84 120 82
f 84 122 120
f 121 85 83
f 123 85 121
f 86 122 84
f 86 124 122
f 123 87 85
f 125 87 123
f 88 124 86
f 88 126 124
f 125 89 87
f 127 89 125
f 90 126 88
f 90 128 126
f 127 91 89
f 129 91 127
f 92 128 90
f 92 130 128
f 129 93 91
f 131 93 129
f 132 130 92
f 132 92 94
f 94 93 131
f 94 131 132
f 134 133 95
f 134 95 96
f 97 95 133
f 97 133 135
f 98 134 96
f 98 136 134
f 135 99 97
f 137 99 135
f 100 136 98
f 100 138 136
f 137 101 99
f 139 101 137
f 102 138 100
f 102 140 138
f 139 103 101
f 141 103 139
f 104 140 102
f 104 142 140
f 141 105 103
f 143 105 141
f 106 145 144
f 142 106 144
f 104 106 142
f 143 144 145
f 107 143 145
f 105 143 107
f 108 146 145
f 108 145 106
f 146 109 107
f 146 107 145
f 110 147 146
f 110 146 108
f 147 111 109
f 147 109 146
f 112 148 147
f 112 147 110
f 148 113 111
f 148 111 147
f 114 149 148
f 114 148 112
f 149 115 113
f 149 113 148
f 116 150 149
f 116 149 114
f 150 117 115
f 150 115 149
f 118 151 150
f 118 150 116
f 151 119 117
f 151 117 150
f 120 152 151
f 120 151 118
f 152 121 119
f 152 119 151
f 154 153 152
f 120 154 152
f 122 154 120
f 121 152 153
f 155 121 153
f 123 121 155
f 124 154 122
f 124 156 154
f 155 125 123
f 157 125 155
f 126 156 124
f 126 158 156
f 157 127 125
f 159 127 157
f 128 158 126
f 128 160 158
f 159 129 127
f 161 129 159
f 130 160 128
f 130 162 160
f 161 131 129
f 163 131 161
f 164 162 130
f 164 130 132
f 132 131 163
f 132 163 164
f 166 165 133
f 166 133 134
f 135 133 165
f 135 165 167
f 136 166 134
f 136 168 166
f 167 137 135
f 169 137 167
f 138 168 136
f 138 170 168
f 169 139 137
f 171 139 169
f 140 170 138
f 140 172 170
f 171 141 139
f 173 141 171
f 142 172 140
f 142 174 172
f 173 143 141
f 175 143 173
f 178 177 176
f 176 177 179
f 144 180 142
f 174 142 180
f 144 143 175
f 144 175 180
f 181 178 176
f 181 176 179
f 184 183 182
f 185 182 183
f 186 184 182
f 182 185 186
f 154 187 153
f 188 153 187
f 155 153 188
f 155 188 189
f 156 187 154
f 156 190 187
f 189 157 155
f 191 157 189
f 158 190 156
f 158 192 190
f 191 159 157
f 193 159 191
f 160 192 158
f 160 194 192
f 193 161 159
f 195 161 193
f 162 194 160
f 162 196 194
f 195 163 161
f 197 163 195
f 198 196 162
f 198 162 164
f 164 163 197
f 164 197 198
f 200 199 165
f 200 165 166
f 167 165 199
f 167 199 201
f 168 200 166
f 168 202 200
f 201 169 167
f 203 169 201
f 170 202 168
f 170 204 202
f 203 171 169
f 205 171 203
f 172 204 170
f 172 206 204
f 205 173 171
f 207 173 205
f 174 206 172
f 174 208 206
f 207 175 173
f 209 175 207
f 178 210 177
f 179 177 210
f 208 180 211
f 180 208 174
f 180 175 209
f 180 209 211
f 214 213 212
f 178 181 210
f 212 213 215
f 210 181 179
f 216 214 212
f 216 212 215
f 219 218 217
f 220 217 218
f 221 219 217
f 183 184 222
f 217 220 221
f 222 185 183
f 186 222 184
f 186 185 222
f 224 187 223
f 187 224 188
f 189 188 224
f 189 224 225
f 190 223 187
f 190 226 223
f 225 191 189
f 227 191 225
f 192 226 190
f 192 228 226
f 227 193 191
f 229 193 227
f 194 228 192
f 194 230 228
f 229 195 193
f 231 195 229
f 196 230 194
f 196 232 230
f 231 197 195
f 233 197 231
f 234 232 196
f 234 196 198
f 198 197 233
f 198 233 234
f 236 235 199
f 236 199 200
f 201 199 235
f 201 235 237
f 202 236 200
f 202 238 236
f 237 203 201
f 239 203 237
f 204 238 202
f 204 240 238
f 239 205 203
f 241 205 239
f 206 240 204
f 206 242 240
f 241 207 205
f 243 207 241
f 208 242 206
f 208 244 242
f 243 209 207
f 245 209 243
f 246 244 208
f 246 208 211
f 211 209 245
f 211 245 246
f 214 247 213
f 247 215 213
f 216 247 214
f 247 216 215
f 219 248 218
f 248 220 218
f 221 248 219
f 248 221 220
f 250 249 224
f 250 224 223
f 225 224 249
f 225 249 251
f 226 250 223
f 226 252 250
f 251 227 225
f 253 227 251
f 228 252 226
f 228 254 252
f 253 229 227
f 255 229 253
f 230 254 228
f 230 256 254
f 255 231 229
f 257 231 255
f 232 256 230
f 232 258 256
f 257 233 231
f 259 233 257
f 260 258 232
f 260 232 234
f 234 233 259
f 234 259 260
f 262 261 235
f 262 235 236
f 237 235 261
f 237 261 263
f 238 262 236
f 238 264 262
f 263 239 237
f 265 239 263
f 240 264 238
f 240 266 264
f 265 241 239
f 267 241 265
f 242 266 240
f 242 268 266
f 267 243 241
f 269 243 267
f 244 268 242
f 244 270 268
f 269 245 243
f 271 245 269
f 272 270 244
f 272 244 246
f 246 245 271
f 246 271 272
f 274 273 249
f 274 249 250
f 251 249 273
f 251 273 275
f 252 274 250
f 252 276 274
f 275 253 251
f 277 253 275
f 254 276 252
f 254 278 276
f 277 255 253
f 279 255 277
f 256 278 254
f 256 280 278
f 279 257 255
f 281 257 279
f 258 280 256
f 258 282 280
f 281 259 257
f 283 259 281
f 284 282 258
f 284 258 260
f 260 259 283
f 260 283 284
f 286 285 261
f 286 261 262
f 263 261 285
f 263 285 287
f 264 286 262
f 264 288 286
f 287 265 263
f 289 265 287
f 266 288 264
f 266 290 288
f 289 267 265
f 291 267 289
f 268 290 266
f 268 292 290
f 291 269 267
f 293 269 291
f 270 292 268
f 270 294 292
f 293 271 269
f 295 271 293
f 296 294 270
f 296 270 272
f 272 271 295
f 272 295 296
f 298 297 273
f 298 273 274
f 275 273 297
f 275 297 299
f 276 298 274
f 276 300 298
f 299 277 275
f 301 277 299
f 278 300 276
f 278 302 300
f 301 279 277
f 303 279 301
f 280 302 278
f 280 304 302
f 303 281 279
f 305 281 303
f 282 304 280
f 282 306 304
f 305 283 281
f 307 283 305
f 308 306 282
f 308 282 284
f 284 283 307
f 284 307 308
f 310 309 285
f 310 285 286
f 287 285 309
f 287 309 311
f 288 310 286
f 288 312 310
f 311 289 287
f 313 289 311
f 290 312 288
f 290 314 312
f 313 291 289
f 315 291 313
f 292 314 290
f 292 316 314
f 315 293 291
f 317 293 315
f 294 316 292
f 294 318 316
f 317 295 293
f 319 295 317
f 320 318 294
f 320 294 296
f 296 295 319
f 296 319 320
f 322 321 297
f 322 297 298
f 299 297 321
f 299 321 323
f 300 322 298
f 300 324 322
f 323 301 299
f 325 301 323
f 302 324 300
f 302 326 324
f 325 303 301
f 327 303 325
f 304 326 302
f 304 328 326
f 327 305 303
f 329 305 327
f 306 328 304
f 306 330 328
f 329 307 305
f 331 307 329
f 332 330 306
f 332 306 308
f 308 307 331
f 308 331 332
f 334 333 309
f 334 309 310
f 311 309 333
f 311 333 335
f 312 334 310
f 312 336 334
f 335 313 311
f 337 313 335
f 314 336 312
f 314 338 336
f 337 315 313
f 339 315 337
f 316 338 314
f 316 340 338
f 339 317 315
f 341 317 339
f 318 340 316
f 318 342 340
f 341 319 317
f 343 319 341
f 344 342 318
f 344 318 320
f 320 319 343
f 320 343 344
f 346 345 321
f 346 321 322
f 323 321 345
f 323 345 347
f 324 346 322
f 324 348 346
f 347 325 323
f 349 325 347
f 326 348 324
f 326 350 348
f 349 327 325
f 351 327 349
f 328 350 326
f 328 352 350
f 351 329 327
f 353 329 351
f 330 352 328
f 330 354 352
f 353 331 329
f 355 331 353
f 356 354 330
f 356 330 332
f 332 331 355
f 332 355 356
f 358 357 333
f 358 333 334
f 335 333 357
f 335 357 359
f 336 358 334
f 336 360 358
f 359 337 335
f 361 337 359
f 338 360 336
f 338 362 360
f 361 339 337
f 363 339 361
f 340 362 338
f 340 364 362
f 363 341 339
f 365 341 363
f 342 364 340
f 342 366 364
f 365 343 341
f 367 343 365
f 368 366 342
f 368 342 344
f 344 343 367
f 344 367 368
f 370 369 345
f 370 345 346
f 347 345 369
f 347 369 371
f 348 370 346
f 348 372 370
f 371 349 347
f 373 349 371
f 350 372 348
f 350 374 372
f 373 351 349
f 375 351 373
f 352 374 350
f 352 376 374
f 375 353 351
f 377 353 375
f 354 376 352
f 354 378 376
f 377 355 353
f 379 355 377
f 380 378 354
f 380 354 356
f 356 355 379
f 356 379 380
f 382 381 357
f 382 357 358
f 359 357 381
f 359 381 383
f 360 382 358
f 360 384 382
f 383 361 359
f 385 361 383
f 362 384 360
f 362 386 384
f 385 363 361
f 387 363 385
f 364 386 362
f 364 388 386
f 387 365 363
f 389 365 387
f 366 388 364
f 366 390 388
f 389 367 365
f 391 367 389
f 392 390 366
f 392 366 368
f 368 367 391
f 368 391 392
f 395 394 393
f 396 393 394
f 397 395 393
f 397 393 396
f 400 399 398
f 401 398 399
f 402 400 398
f 402 398 401
f 404 403 369
f 404 369 370
f 371 369 403
f 371 403 405
f 372 404 370
f 372 406 404
f 405 373 371
f 407 373 405
f 374 406 372
f 374 408 406
f 407 375 373
f 409 375 407
f 376 408 374
f 376 410 408
f 409 377 375
f 411 377 409
f 378 410 376
f 378 412 410
f 411 379 377
f 413 379 411
f 414 412 378
f 414 378 380
f 380 379 413
f 380 413 414
f 416 415 381
f 416 381 382
f 383 381 415
f 383 415 417
f 384 416 382
f 384 418 416
f 417 385 383
f 419 385 417
f 386 418 384
f 386 420 418
f 419 387 385
f 421 387 419
f 388 420 386
f 388 422 420
f 421 389 387
f 423 389 421
f 390 422 388
f 390 424 422
f 423 391 389
f 425 391 423
f 428 427 426
f 426 427 429
f 392 430 390
f 424 390 430
f 392 391 425
f 392 425 430
f 395 431 394
f 426 432 428
f 396 394 431
f 432 426 429
f 397 431 395
f 431 397 396
f 400 433 399
f 433 401 399
f 402 433 400
f 401 433 402
f 436 435 434
f 437 435 436
f 438 434 435
f 435 437 438
f 404 439 403
f 440 403 439
f 405 403 440
f 405 440 441
f 406 439 404
f 406 442 439
f 441 407 405
f 443 407 441
f 408 442 406
f 408 444 442
f 443 409 407
f 445 409 443
f 410 444 408
f 410 446 444
f 445 411 409
f 447 411 445
f 412 446 410
f 412 448 446
f 447 413 411
f 449 413 447
f 450 448 412
f 450 412 414
f 414 413 449
f 414 449 450
f 452 451 415
f 452 415 416
f 417 415 451
f 417 451 453
f 418 452 416
f 418 454 452
f 453 419 417
f 455 419 453
f 420 454 418
f 420 456 454
f 455 421 419
f 457 421 455
f 422 456 420
f 422 458 456
f 457 423 421
f 459 423 457
f 424 458 422
f 424 460 458
f 459 425 423
f 461 425 459
f 428 462 427
f 429 427 462
f 460 430 463
f 430 460 424
f 430 425 461
f 430 461 463
f 432 462 428
f 462 432 429
f 434 464 436
f 464 437 436
f 438 464 434
f 438 437 464
f 466 439 465
f 439 466 440
f 441 440 466
f 441 466 467
f 442 465 439
f 442 468 465
f 467 443 441
f 469 443 467
f 444 468 442
f 444 470 468
f 469 445 443
f 471 445 469
f 446 470 444
f 446 472 470
f 471 447 445
f 473 447 471
f 448 472 446
f 448 474 472
f 473 449 447
f 475 449 473
f 476 474 448
f 476 448 450
f 450 449 475
f 450 475 476
f 478 477 451
f 478 451 452
f 453 451 477
f 453 477 479
f 454 478 452
f 454 480 478
f 479 455 453
f 481 455 479
f 456 480 454
f 456 482 480
f 481 457 455
f 483 457 481
f 458 482 456
f 458 484 482
f 483 459 457
f 485 459 483
f 460 484 458
f 460 486 484
f 485 461 459
f 487 461 485
f 460 463 488
f 489 460 488
f 486 460 489
f 490 488 463
f 461 490 463
f 487 490 461
f 489 488 491
f 489 491 492
f 488 490 493
f 488 493 491
f 492 491 494
f 492 494 495
f 491 493 496
f 491 496 494
f 495 494 497
f 495 497 498
f 494 496 499
f 494 499 497
f 498 497 500
f 498 500 501
f 497 499 502
f 497 502 500
f 501 500 503
f 501 503 504
f 500 502 505
f 500 505 503
f 504 503 506
f 504 506 507
f 503 505 508
f 503 508 506
f 507 506 509
f 507 509 510
f 506 508 511
f 506 511 509
f 510 509 466
f 465 510 466
f 512 510 465
f 467 466 509
f 511 467 509
f 513 467 511
f 468 512 465
f 468 514 512
f 513 469 467
f 515 469 513
f 470 514 468
f 470 516 514
f 515 471 469
f 517 471 515
f 472 516 470
f 472 518 516
f 517 473 471
f 519 473 517
f 474 518 472
f 474 520 518
f 519 475 473
f 521 475 519
f 522 520 474
f 522 474 476
f 476 475 521
f 476 521 522
f 524 523 477
f 524 477 478
f 479 477 523
f 479 523 525
f 480 524 478
f 480 526 524
f 525 481 479
f 527 481 525
f 482 526 480
f 482 528 526
f 527 483 481
f 529 483 527
f 484 528 482
f 484 530 528
f 529 485 483
f 531 485 529
f 486 530 484
f 486 532 530
f 531 487 485
f 533 487 531
f 489 532 486
f 489 534 532
f 533 490 487
f 535 490 533
f 492 534 489
f 492 536 534
f 535 493 490
f 537 493 535
f 495 536 492
f 495 538 536
f 537 496 493
f 539 496 537
f 498 538 495
f 498 540 538
f 539 499 496
f 541 499 539
f 501 540 498
f 501 542 540
f 541 502 499
f 543 502 541
f 504 542 501
f 504 544 542
f 543 505 502
f 545 505 543
f 507 544 504
f 507 546 544
f 545 508 505
f 547 508 545
f 510 546 507
f 510 548 546
f 547 511 508
f 549 511 547
f 512 548 510
f 512 550 548
f 549 513 511
f 551 513 549
f 514 550 512
f 514 552 550
f 551 515 513
f 553 515 551
f 516 552 514
f 516 554 552
f 553 517 515
f 555 517 553
f 518 554 516
f 518 556 554
f 555 519 517
f 557 519 555
f 520 556 518
f 520 558 556
f 557 521 519
f 559 521 557
f 560 558 520
f 560 520 522
f 522 521 559
f 522 559 560
f 562 561 523
f 562 523 524
f 525 523 561
f 525 561 563
f 526 562 524
f 526 564 562
f 563 527 525
f 565 527 563
f 528 564 526
f 528 566 564
f 565 529 527
f 567 529 565
f 530 566 528
f 530 568 566
f 567 531 529
f 569 531 567
f 532 568 530
f 532 570 568
f 569 533 531
f 571 533 569
f 534 570 532
f 534 572 570
f 571 535 533
f 573 535 571
f 536 572 534
f 536 574 572
f 573 537 535
f 575 537 573
f 538 574 536
f 538 576 574
f 575 539 537
f 577 539 575
f 540 576 538
f 540 578 576
f 577 541 539
f 579 541 577
f 542 578 540
f 542 580 578
f 579 543 541
f 581 543 579
f 544 580 542
f 544 582 580
f 581 545 543
f 583 545 581
f 546 582 544
f 546 584 582
f 583 547 545
f 585 547 583
f 548 584 546
f 548 586 584
f 585 549 547
f 587 549 585
f 550 586 548
f 550 588 586
f 587 551 549
f 589 551 587
f 552 588 550
f 552 590 588
f 589 553 551
f 591 553 589
f 554 590 552
f 554 592 590
f 591 555 553
f 593 555 591
f 556 592 554
f 556 594 592
f 593 557 555
f 595 557 593
f 558 594 556
f 558 596 594
f 595 559 557
f 597 559 595
f 598 596 558
f 598 558 560
f 560 559 597
f 560 597 598
f 562 599 561
f 599 563 561
f 564 600 599
f 564 599 562
f 600 565 563
f 600 563 599
f 566 601 600
f 566 600 564
f 601 567 565
f 601 565 600
f 568 602 601
f 568 601 566
f 602 569 567
f 602 567 601
f 570 603 602
f 570 602 568
f 603 571 569
f 603 569 602
f 572 604 603
f 572 603 570
f 604 573 571
f 604 571 603
f 574 605 604
f 574 604 572
f 605 575 573
f 605 573 604
f 576 606 605
f 576 605 574
f 606 577 575
f 606 575 605
f 578 607 606
f 578 606 576
f 607 579 577
f 607 577 606
f 580 608 607
f 580 607 578
f 608 581 579
f 608 579 607
f 582 609 608
f 582 608 580
f 609 583 581
f 609 581 608
f 584 610 609
f 584 609 582
f 610 585 583
f 610 583 609
f 586 611 610
f 586 610 584
f 611 587 585
f 611 585 610
f 588 612 611
f 588 611 586
f 612 589 587
f 612 587 611
f 590 613 612
f 590 612 588
f 613 591 589
f 613 589 612
f 592 614 613
f 592 613 590
f 614 593 591
f 614 591 613
f 594 615 614
f 594 614 592
f 615 595 593
f 615 593 614
f 596 616 615
f 596 615 594
f 616 597 595
f 616 595 615
f 598 616 596
f 616 598 597
