v 8.0 12.0 18.0
v 8.0 12.0 18.0
v 8.0 12.0 18.0
v 8.0 12.0 18.0
v 8.0 13.0 18.0
v 8.0 13.0 18.0
v 8.0 13.0 18.0
v 8.0 14.0 18.0
v 8.0 14.0 18.0
v 8.0 14.0 18.0
v 8.0 15.0 18.0
v 8.0 15.0 18.0
v 8.0 15.0 18.0
v 8.0 16.0 18.0
v 8.0 16.0 18.0
v 8.0 16.0 18.0
v 8.0 17.0 18.0
v 8.0 17.0 18.0
v 8.0 17.0 18.0
v 8.0 18.0 18.0
v 8.0 18.0 18.0
v 8.0 18.0 18.0
v 8.0 19.0 18.0
v 8.0 19.0 18.0
v 8.0 19.0 18.0
v 8.0 19.0 18.0
v 9.0 10.0 18.0
v 9.0 10.0 18.0
v 9.0 10.0 18.0
v 9.0 10.0 18.0
v 9.0 11.0 18.0
v 9.0 11.0 18.0
v 9.0 11.0 18.0
v 9.0 12.0 17.0
v 9.0 12.0 17.0
v 9.0 12.0 17.0
v 9.0 12.0 18.0
v 9.0 13.0 17.0
v 9.0 13.0 17.0
v 9.0 13.0 18.0
v 9.0 14.0 17.0
v 9.0 14.0 17.0
v 9.0 14.0 18.0
v 9.0 15.0 17.0
v 9.0 15.0 17.0
v 9.0 15.0 18.0
v 9.0 16.0 17.0
v 9.0 16.0 17.0
v 9.0 16.0 18.0
v 9.0 17.0 17.0
v 9.0 17.0 17.0
v 9.0 17.0 18.0
v 9.0 18.0 17.0
v 9.0 18.0 17.0
v 9.0 18.0 18.0
v 9.0 19.0 17.0
v 9.0 19.0 17.0
v 9.0 19.0 18.0
v 9.0 19.0 17.0
v 9.0 20.0 18.0
v 9.0 20.0 18.0
v 9.0 20.0 18.0
v 9.0 21.0 18.0
v 9.0 21.0 18.0
v 9.0 21.0 18.0
v 9.0 21.0 18.0
v 10.0 10.0 18.0
v 10.0 10.0 18.0
v 10.0 10.0 18.0
v 10.0 11.0 17.0
v 10.0 11.0 17.0
v 10.0 11.0 17.0
v 10.0 11.0 18.0
v 10.0 12.0 16.0
v 10.0 12.0 16.0
v 10.0 12.0 16.0
v 10.0 12.0 18.0
v 10.0 13.0 16.0
v 10.0 13.0 16.0
v 10.0 13.0 18.0
v 10.0 14.0 16.0
v 10.0 14.0 16.0
v 10.0 14.0 18.0
v 10.0 15.0 16.0
v 10.0 15.0 16.0
v 10.0 15.0 18.0
v 10.0 16.0 16.0
v 10.0 16.0 16.0
v 10.0 16.0 18.0
v 10.0 17.0 16.0
v 10.0 17.0 16.0
v 10.0 17.0 18.0
v 10.0 18.0 16.0
v 10.0 18.0 16.0
v 10.0 18.0 18.0
v 10.0 19.0 16.0
v 10.0 19.0 16.0
v 10.0 19.0 18.0
v 10.0 19.0 16.0
v 10.0 20.0 17.0
v 10.0 20.0 17.0
v 10.0 20.0 18.0
v 10.0 20.0 17.0
v 10.0 21.0 18.0
v 10.0 21.0 18.0
v 10.0 21.0 18.0
v 11.0 10.0 18.0
v 11.0 10.0 18.0
v 11.0 10.0 18.0
v 11.0 11.0 16.0
v 11.0 11.0 16.0
v 11.0 11.0 16.0
v 11.0 11.0 17.0
v 11.0 11.0 18.0
v 11.0 12.0 16.0
v 11.0 12.0 18.0
v 11.0 13.0 15.0
v 11.0 13.0 15.0
v 11.0 13.0 15.0
v 11.0 13.0 18.0
v 11.0 14.0 15.0
v 11.0 14.0 15.0
v 11.0 14.0 18.0
v 11.0 15.0 15.0
v 11.0 15.0 15.0
v 11.0 15.0 18.0
v 11.0 16.0 15.0
v 11.0 16.0 15.0
v 11.0 16.0 18.0
v 11.0 17.0 15.0
v 11.0 17.0 15.0
v 11.0 17.0 18.0
v 11.0 18.0 15.0
v 11.0 18.0 15.0
v 11.0 18.0 18.0
v 11.0 18.0 15.0
v 11.0 19.0 16.0
v 11.0 19.0 18.0
v 11.0 20.0 16.0
v 11.0 20.0 16.0
v 11.0 20.0 18.0
v 11.0 20.0 16.0
v 11.0 20.0 17.0
v 11.0 21.0 18.0
v 11.0 21.0 18.0
v 11.0 21.0 18.0
v 12.0 10.0 18.0
v 12.0 10.0 18.0
v 12.0 10.0 18.0
v 12.0 11.0 16.0
v 12.0 11.0 16.0
v 12.0 11.0 17.0
v 12.0 11.0 18.0
v 12.0 12.0 15.0
v 12.0 12.0 15.0
v 12.0 12.0 15.0
v 12.0 12.0 18.0
v 11.760101318359375 13.0 14.0
v 12.0 12.686840057373047 14.0
v 12.0 13.0 13.744473457336426
v 12.0 13.0 18.0
v 11.424983024597168 14.0 14.0
v 12.0 14.0 13.567781448364258
v 12.0 14.0 18.0
v 11.067492485046387 15.0 14.0
v 12.0 15.0 13.567781448364258
v 12.0 15.0 18.0
v 11.067492485046387 16.0 14.0
v 12.0 16.0 13.567781448364258
v 12.0 16.0 18.0
v 11.424983024597168 17.0 14.0
v 12.0 17.0 13.567781448364258
v 12.0 17.0 18.0
v 11.760101318359375 18.0 14.0
v 12.0 18.0 13.744473457336426
v 12.0 18.0 18.0
v 12.0 18.313159942626953 14.0
v 12.0 19.0 15.0
v 12.0 19.0 15.0
v 12.0 19.0 18.0
v 12.0 19.0 15.0
v 12.0 20.0 16.0
v 12.0 20.0 18.0
v 12.0 20.0 16.0
v 12.0 20.0 17.0
v 12.0 21.0 18.0
v 12.0 21.0 18.0
v 12.0 21.0 18.0
v 13.0 10.0 18.0
v 13.0 10.0 18.0
v 13.0 10.0 18.0
v 13.0 11.0 16.0
v 13.0 11.0 16.0
v 13.0 11.0 17.0
v 13.0 11.0 18.0
v 12.686840057373047 12.0 14.0
v 13.0 11.760101318359375 14.0
v 13.0 12.0 13.744473457336426
v 13.0 12.0 15.0
v 13.0 12.0 18.0
v 13.0 13.0 13.567781448364258
v 13.0 13.0 18.0
v 13.0 13.710981369018555 14.0
v 12.710981369018555 14.0 14.0
v 13.0 13.0 15.0
v 12.0 14.0 15.0
v 13.0 13.0 16.0
v 12.0 14.0 16.0
v 13.0 13.0 17.0
v 12.0 14.0 17.0
v 13.0 13.0 18.0
v 12.0 14.0 18.0
v 12.394083023071289 15.0 14.0
v 12.0 15.0 15.0
v 12.0 15.0 16.0
v 12.0 15.0 17.0
v 12.0 15.0 18.0
v 12.394083023071289 16.0 14.0
v 12.0 16.0 15.0
v 12.0 16.0 16.0
v 12.0 16.0 17.0
v 12.0 16.0 18.0
v 12.710981369018555 17.0 14.0
v 12.0 17.0 15.0
v 12.0 17.0 16.0
v 12.0 17.0 17.0
v 12.0 17.0 18.0
v 13.0 17.289018630981445 14.0
v 13.0 18.0 13.567781448364258
v 13.0 18.0 15.0
v 13.0 18.0 16.0
v 13.0 18.0 17.0
v 13.0 18.0 18.0
v 13.0 18.0 18.0
v 12.686840057373047 19.0 14.0
v 13.0 19.0 13.744473457336426
v 13.0 19.0 18.0
v 13.0 19.239898681640625 14.0
v 13.0 19.0 15.0
v 13.0 20.0 16.0
v 13.0 20.0 18.0
v 13.0 20.0 16.0
v 13.0 20.0 17.0
v 13.0 21.0 18.0
v 13.0 21.0 18.0
v 13.0 21.0 18.0
v 14.0 10.0 18.0
v 14.0 10.0 18.0
v 14.0 10.0 18.0
v 14.0 11.0 16.0
v 14.0 11.0 16.0
v 14.0 11.0 17.0
v 14.0 11.0 18.0
v 14.0 11.424983024597168 14.0
v 14.0 12.0 13.567781448364258
v 14.0 12.0 15.0
v 14.0 12.0 18.0
v 14.0 12.710981369018555 14.0
v 13.710981369018555 13.0 14.0
v 14.0 12.0 15.0
v 13.0 13.0 15.0
v 14.0 12.0 16.0
v 13.0 13.0 16.0
v 14.0 12.0 17.0
v 13.0 13.0 17.0
v 14.0 12.0 18.0
v 13.0 13.0 18.0
v 13.710981369018555 18.0 14.0
v 13.0 18.0 15.0
v 13.0 18.0 16.0
v 13.0 18.0 17.0
v 13.0 18.0 18.0
v 14.0 18.289018630981445 14.0
v 14.0 19.0 13.567781448364258
v 14.0 19.0 15.0
v 14.0 19.0 16.0
v 14.0 19.0 17.0
v 14.0 19.0 18.0
v 14.0 19.0 18.0
v 14.0 19.575016021728516 14.0
v 14.0 19.0 15.0
v 14.0 20.0 16.0
v 14.0 20.0 18.0
v 14.0 20.0 16.0
v 14.0 20.0 17.0
v 14.0 21.0 18.0
v 14.0 21.0 18.0
v 14.0 21.0 18.0
v 15.0 10.0 18.0
v 15.0 10.0 18.0
v 15.0 10.0 18.0
v 15.0 11.0 16.0
v 15.0 11.0 16.0
v 15.0 11.0 17.0
v 15.0 11.0 18.0
v 15.0 11.067492485046387 14.0
v 15.0 12.0 13.567781448364258
v 15.0 12.0 15.0
v 15.0 12.0 18.0
v 15.0 12.394083023071289 14.0
v 15.0 12.0 15.0
v 15.0 12.0 16.0
v 15.0 12.0 17.0
v 15.0 12.0 18.0
v 15.0 18.60591697692871 14.0
v 15.0 19.0 13.567781448364258
v 15.0 19.0 15.0
v 15.0 19.0 16.0
v 15.0 19.0 17.0
v 15.0 19.0 18.0
v 15.0 19.0 18.0
v 15.0 19.932506561279297 14.0
v 15.0 19.0 15.0
v 15.0 20.0 16.0
v 15.0 20.0 18.0
v 15.0 20.0 16.0
v 15.0 20.0 17.0
v 15.0 21.0 18.0
v 15.0 21.0 18.0
v 15.0 21.0 18.0
v 16.0 10.0 18.0
v 16.0 10.0 18.0
v 16.0 10.0 18.0
v 16.0 11.0 16.0
v 16.0 11.0 16.0
v 16.0 11.0 17.0
v 16.0 11.0 18.0
v 16.0 11.067492485046387 14.0
v 16.0 12.0 13.567781448364258
v 16.0 12.0 15.0
v 16.0 12.0 18.0
v 16.0 12.394083023071289 14.0
v 16.0 12.0 15.0
v 16.0 12.0 16.0
v 16.0 12.0 17.0
v 16.0 12.0 18.0
v 16.0 18.60591697692871 14.0
v 16.0 19.0 13.567781448364258
v 16.0 19.0 15.0
v 16.0 19.0 16.0
v 16.0 19.0 17.0
v 16.0 19.0 18.0
v 16.0 19.0 18.0
v 16.0 19.932506561279297 14.0
v 16.0 19.0 15.0
v 16.0 20.0 16.0
v 16.0 20.0 18.0
v 16.0 20.0 16.0
v 16.0 20.0 17.0
v 16.0 21.0 18.0
v 16.0 21.0 18.0
v 16.0 21.0 18.0
v 17.0 10.0 18.0
v 17.0 10.0 18.0
v 17.0 10.0 18.0
v 17.0 11.0 16.0
v 17.0 11.0 16.0
v 17.0 11.0 17.0
v 17.0 11.0 18.0
v 17.0 11.424983024597168 14.0
v 17.0 12.0 13.567781448364258
v 17.0 12.0 15.0
v 17.0 12.0 18.0
v 17.0 12.710981369018555 14.0
v 17.0 12.0 15.0
v 17.0 12.0 16.0
v 17.0 12.0 17.0
v 17.0 12.0 18.0
v 17.0 18.289018630981445 14.0
v 17.0 19.0 13.567781448364258
v 17.0 19.0 15.0
v 17.0 19.0 16.0
v 17.0 19.0 17.0
v 17.0 19.0 18.0
v 17.0 19.0 18.0
v 17.0 19.575016021728516 14.0
v 17.0 19.0 15.0
v 17.0 20.0 16.0
v 17.0 20.0 18.0
v 17.0 20.0 16.0
v 17.0 20.0 17.0
v 17.0 21.0 18.0
v 17.0 21.0 18.0
v 17.0 21.0 18.0
v 18.0 10.0 18.0
v 18.0 10.0 18.0
v 18.0 10.0 18.0
v 18.0 11.0 16.0
v 18.0 11.0 16.0
v 18.0 11.0 17.0
v 18.0 11.0 18.0
v 18.0 11.760101318359375 14.0
v 18.0 12.0 13.744473457336426
v 18.0 12.0 15.0
v 18.0 12.0 18.0
v 17.289018630981445 13.0 14.0
v 18.0 13.0 13.567781448364258
v 18.0 13.0 15.0
v 18.0 13.0 16.0
v 18.0 13.0 17.0
v 18.0 13.0 18.0
v 18.0 13.0 18.0
v 18.0 13.710981369018555 14.0
v 18.0 13.0 15.0
v 18.0 13.0 16.0
v 18.0 13.0 17.0
v 18.0 13.0 18.0
v 17.289018630981445 18.0 14.0
v 18.0 17.289018630981445 14.0
v 18.0 18.0 13.567781448364258
v 18.0 18.0 15.0
v 18.0 18.0 15.0
v 18.0 18.0 16.0
v 18.0 18.0 16.0
v 18.0 18.0 17.0
v 18.0 18.0 17.0
v 18.0 18.0 18.0
v 18.0 18.0 18.0
v 18.0 18.0 18.0
v 18.0 19.0 13.744473457336426
v 18.0 19.0 18.0
v 18.0 19.239898681640625 14.0
v 18.0 19.0 15.0
v 18.0 20.0 16.0
v 18.0 20.0 18.0
v 18.0 20.0 16.0
v 18.0 20.0 17.0
v 18.0 21.0 18.0
v 18.0 21.0 18.0
v 18.0 21.0 18.0
v 19.0 10.0 18.0
v 19.0 10.0 18.0
v 19.0 10.0 18.0
v 19.0 11.0 16.0
v 19.0 11.0 16.0
v 19.0 11.0 17.0
v 19.0 11.0 18.0
v 18.313159942626953 12.0 14.0
v 19.0 12.0 15.0
v 19.0 12.0 15.0
v 19.0 12.0 18.0
v 19.0 12.686840057373047 14.0
v 19.0 13.0 13.744473457336426
v 19.0 13.0 18.0
v 18.289018630981445 14.0 14.0
v 19.0 14.0 13.567781448364258
v 19.0 14.0 15.0
v 19.0 14.0 16.0
v 19.0 14.0 17.0
v 19.0 14.0 18.0
v 19.0 14.0 18.0
v 18.60591697692871 15.0 14.0
v 19.0 15.0 13.567781448364258
v 19.0 15.0 15.0
v 19.0 15.0 16.0
v 19.0 15.0 17.0
v 19.0 15.0 18.0
v 19.0 15.0 18.0
v 18.60591697692871 16.0 14.0
v 19.0 16.0 13.567781448364258
v 19.0 16.0 15.0
v 19.0 16.0 16.0
v 19.0 16.0 17.0
v 19.0 16.0 18.0
v 19.0 16.0 18.0
v 18.289018630981445 17.0 14.0
v 19.0 17.0 13.567781448364258
v 19.0 17.0 15.0
v 19.0 17.0 16.0
v 19.0 17.0 17.0
v 19.0 17.0 18.0
v 19.0 17.0 18.0
v 19.0 18.0 13.744473457336426
v 19.0 18.0 18.0
v 19.0 18.313159942626953 14.0
v 18.313159942626953 19.0 14.0
v 19.0 19.0 15.0
v 19.0 19.0 18.0
v 19.0 19.0 15.0
v 19.0 20.0 16.0
v 19.0 20.0 18.0
v 19.0 20.0 16.0
v 19.0 20.0 17.0
v 19.0 21.0 18.0
v 19.0 21.0 18.0
v 19.0 21.0 18.0
v 20.0 10.0 18.0
v 20.0 10.0 18.0
v 20.0 10.0 18.0
v 20.0 11.0 16.0
v 20.0 11.0 16.0
v 20.0 11.0 17.0
v 20.0 11.0 18.0
v 19.0 12.0 15.0
v 20.0 12.0 16.0
v 20.0 12.0 18.0
v 19.239898681640625 13.0 14.0
v 20.0 13.0 15.0
v 20.0 13.0 15.0
v 20.0 13.0 18.0
v 19.575016021728516 14.0 14.0
v 20.0 14.0 15.0
v 20.0 14.0 18.0
v 19.932506561279297 15.0 14.0
v 20.0 15.0 15.0
v 20.0 15.0 18.0
v 19.932506561279297 16.0 14.0
v 20.0 16.0 15.0
v 20.0 16.0 18.0
v 19.575016021728516 17.0 14.0
v 20.0 17.0 15.0
v 20.0 17.0 18.0
v 19.239898681640625 18.0 14.0
v 20.0 18.0 15.0
v 20.0 18.0 18.0
v 20.0 18.0 15.0
v 19.0 19.0 15.0
v 20.0 19.0 16.0
v 20.0 19.0 18.0
v 20.0 20.0 16.0
v 20.0 20.0 18.0
v 20.0 20.0 16.0
v 20.0 20.0 17.0
v 20.0 21.0 18.0
v 20.0 21.0 18.0
v 20.0 21.0 18.0
v 21.0 10.0 18.0
v 21.0 10.0 18.0
v 21.0 10.0 18.0
v 20.0 11.0 16.0
v 21.0 11.0 17.0
v 21.0 11.0 17.0
v 21.0 11.0 18.0
v 21.0 12.0 16.0
v 21.0 12.0 16.0
v 21.0 12.0 18.0
v 20.0 13.0 15.0
v 21.0 13.0 16.0
v 21.0 13.0 18.0
v 20.0 14.0 15.0
v 21.0 14.0 16.0
v 21.0 14.0 18.0
v 20.0 15.0 15.0
v 21.0 15.0 16.0
v 21.0 15.0 18.0
v 20.0 16.0 15.0
v 21.0 16.0 16.0
v 21.0 16.0 18.0
v 20.0 17.0 15.0
v 21.0 17.0 16.0
v 21.0 17.0 18.0
v 20.0 18.0 15.0
v 21.0 18.0 16.0
v 21.0 18.0 18.0
v 21.0 19.0 16.0
v 21.0 19.0 18.0
v 21.0 19.0 16.0
v 20.0 20.0 16.0
v 21.0 20.0 17.0
v 21.0 20.0 18.0
v 21.0 20.0 17.0
v 21.0 21.0 18.0
v 21.0 21.0 18.0
v 21.0 21.0 18.0
v 22.0 10.0 18.0
v 22.0 10.0 18.0
v 22.0 10.0 18.0
v 21.0 11.0 17.0
v 22.0 11.0 18.0
v 22.0 11.0 18.0
v 21.0 12.0 16.0
v 22.0 12.0 17.0
v 22.0 12.0 17.0
v 22.0 12.0 18.0
v 21.0 13.0 16.0
v 22.0 13.0 17.0
v 22.0 13.0 18.0
v 21.0 14.0 16.0
v 22.0 14.0 17.0
v 22.0 14.0 18.0
v 21.0 15.0 16.0
v 22.0 15.0 17.0
v 22.0 15.0 18.0
v 21.0 16.0 16.0
v 22.0 16.0 17.0
v 22.0 16.0 18.0
v 21.0 17.0 16.0
v 22.0 17.0 17.0
v 22.0 17.0 18.0
v 21.0 18.0 16.0
v 22.0 18.0 17.0
v 22.0 18.0 18.0
v 21.0 19.0 16.0
v 22.0 19.0 17.0
v 22.0 19.0 18.0
v 22.0 19.0 17.0
v 21.0 20.0 17.0
v 22.0 20.0 18.0
v 22.0 20.0 18.0
v 22.0 21.0 18.0
v 22.0 21.0 18.0
v 22.0 21.0 18.0
v 22.0 10.0 18.0
v 22.0 11.0 18.0
v 22.0 12.0 17.0
v 23.0 12.0 18.0
v 23.0 12.0 18.0
v 23.0 12.0 18.0
v 22.0 13.0 17.0
v 23.0 13.0 18.0
v 23.0 13.0 18.0
v 22.0 14.0 17.0
v 23.0 14.0 18.0
v 23.0 14.0 18.0
v 22.0 15.0 17.0
v 23.0 15.0 18.0
v 23.0 15.0 18.0
v 22.0 16.0 17.0
v 23.0 16.0 18.0
v 23.0 16.0 18.0
v 22.0 17.0 17.0
v 23.0 17.0 18.0
v 23.0 17.0 18.0
v 22.0 18.0 17.0
v 23.0 18.0 18.0
v 23.0 18.0 18.0
v 22.0 19.0 17.0
v 23.0 19.0 18.0
v 23.0 19.0 18.0
v 23.0 19.0 18.0
v 22.0 20.0 18.0
v 22.0 21.0 18.0
v 23.0 12.0 18.0
v 23.0 13.0 18.0
v 23.0 14.0 18.0
v 23.0 15.0 18.0
v 23.0 16.0 18.0
v 23.0 17.0 18.0
v 23.0 18.0 18.0
v 23.0 19.0 18.0
f 3 2 1
f 4 1 2
f 3 1 5
f 3 5 6
f 1 4 7
f 1 7 5
f 6 5 8
f 6 8 9
f 5 7 10
f 5 10 8
f 9 8 11
f 9 11 12
f 8 10 13
f 8 13 11
f 12 11 14
f 12 14 15
f 11 13 16
f 11 16 14
f 15 14 17
f 15 17 18
f 14 16 19
f 14 19 17
f 18 17 20
f 18 20 21
f 17 19 22
f 17 22 20
f 21 20 23
f 21 23 24
f 20 22 25
f 20 25 23
f 26 24 23
f 26 23 25
f 29 28 27
f 30 27 28
f 29 27 31
f 29 31 32
f 27 30 33
f 27 33 31
f 36 35 34
f 34 35 32
f 34 32 31
f 3 34 31
f 2 3 31
f 4 2 31
f 33 4 31
f 37 4 33
f 36 34 38
f 36 38 39
f 6 38 3
f 3 38 34
f 37 7 4
f 40 7 37
f 39 38 41
f 39 41 42
f 9 41 6
f 6 41 38
f 40 10 7
f 43 10 40
f 42 41 44
f 42 44 45
f 12 44 9
f 9 44 41
f 43 13 10
f 46 13 43
f 45 44 47
f 45 47 48
f 15 47 12
f 12 47 44
f 46 16 13
f 49 16 46
f 48 47 50
f 48 50 51
f 18 50 15
f 15 50 47
f 49 19 16
f 52 19 49
f 51 50 53
f 51 53 54
f 21 53 18
f 18 53 50
f 52 22 19
f 55 22 52
f 54 53 56
f 54 56 57
f 24 56 21
f 21 56 53
f 55 25 22
f 58 25 55
f 59 57 56
f 61 59 60
f 60 59 26
f 59 56 26
f 56 24 26
f 62 60 26
f 25 62 26
f 58 62 25
f 61 60 63
f 61 63 64
f 60 62 65
f 60 65 63
f 66 64 63
f 66 63 65
f 68 67 28
f 68 28 29
f 30 28 67
f 30 67 69
f 72 71 70
f 71 68 70
f 68 32 70
f 68 29 32
f 69 33 30
f 73 33 69
f 76 75 74
f 74 75 72
f 74 72 70
f 36 74 70
f 35 36 70
f 35 70 32
f 73 37 33
f 77 37 73
f 76 74 78
f 76 78 79
f 39 78 36
f 36 78 74
f 77 40 37
f 80 40 77
f 79 78 81
f 79 81 82
f 42 81 39
f 39 81 78
f 80 43 40
f 83 43 80
f 82 81 84
f 82 84 85
f 45 84 42
f 42 84 81
f 83 46 43
f 86 46 83
f 85 84 87
f 85 87 88
f 48 87 45
f 45 87 84
f 86 49 46
f 89 49 86
f 88 87 90
f 88 90 91
f 51 90 48
f 48 90 87
f 89 52 49
f 92 52 89
f 91 90 93
f 91 93 94
f 54 93 51
f 51 93 90
f 92 55 52
f 95 55 92
f 94 93 96
f 94 96 97
f 57 96 54
f 54 96 93
f 95 58 55
f 98 58 95
f 99 97 96
f 101 99 100
f 100 99 59
f 99 96 59
f 96 57 59
f 61 100 59
f 98 62 58
f 102 62 98
f 103 101 100
f 100 61 103
f 61 104 103
f 61 64 104
f 102 65 62
f 105 65 102
f 106 104 64
f 106 64 66
f 66 65 105
f 66 105 106
f 108 107 67
f 108 67 68
f 69 67 107
f 69 107 109
f 112 111 110
f 71 72 110
f 111 71 110
f 113 71 111
f 68 71 108
f 108 71 113
f 109 73 69
f 114 73 109
f 112 110 75
f 76 112 75
f 115 112 76
f 75 110 72
f 114 77 73
f 116 77 114
f 119 118 117
f 118 115 117
f 115 79 117
f 115 76 79
f 116 80 77
f 120 80 116
f 119 117 121
f 119 121 122
f 82 121 79
f 79 121 117
f 120 83 80
f 123 83 120
f 122 121 124
f 122 124 125
f 85 124 82
f 82 124 121
f 123 86 83
f 126 86 123
f 125 124 127
f 125 127 128
f 88 127 85
f 85 127 124
f 126 89 86
f 129 89 126
f 128 127 130
f 128 130 131
f 91 130 88
f 88 130 127
f 129 92 89
f 132 92 129
f 131 130 133
f 131 133 134
f 94 133 91
f 91 133 130
f 132 95 92
f 135 95 132
f 136 134 133
f 133 94 136
f 94 137 136
f 94 97 137
f 135 98 95
f 138 98 135
f 97 99 139
f 140 97 139
f 137 97 140
f 101 139 99
f 138 102 98
f 141 102 138
f 142 140 139
f 142 139 101
f 103 142 101
f 143 142 103
f 103 104 143
f 143 104 144
f 141 105 102
f 145 105 141
f 146 144 104
f 146 104 106
f 106 105 145
f 106 145 146
f 148 147 107
f 148 107 108
f 109 107 147
f 109 147 149
f 151 150 111
f 151 111 112
f 111 152 113
f 150 152 111
f 108 113 148
f 148 113 152
f 149 114 109
f 153 114 149
f 156 155 154
f 155 151 154
f 151 115 154
f 151 112 115
f 153 116 114
f 157 116 153
f 160 159 158
f 158 159 156
f 158 156 154
f 119 158 154
f 118 119 154
f 118 154 115
f 157 120 116
f 161 120 157
f 160 158 162
f 160 162 163
f 122 162 119
f 119 162 158
f 161 123 120
f 164 123 161
f 163 162 165
f 163 165 166
f 125 165 122
f 122 165 162
f 164 126 123
f 167 126 164
f 166 165 168
f 166 168 169
f 128 168 125
f 125 168 165
f 167 129 126
f 170 129 167
f 169 168 171
f 169 171 172
f 131 171 128
f 128 171 168
f 170 132 129
f 173 132 170
f 172 171 174
f 172 174 175
f 134 174 131
f 131 174 171
f 173 135 132
f 176 135 173
f 177 175 174
f 179 177 178
f 178 177 136
f 177 174 136
f 174 134 136
f 137 178 136
f 176 138 135
f 180 138 176
f 181 179 178
f 178 137 181
f 137 182 181
f 137 140 182
f 180 141 138
f 183 141 180
f 184 182 140
f 184 140 142
f 185 142 143
f 185 184 142
f 143 144 185
f 185 144 186
f 183 145 141
f 187 145 183
f 188 186 144
f 188 144 146
f 146 145 187
f 146 187 188
f 190 189 147
f 190 147 148
f 149 147 189
f 149 189 191
f 193 192 150
f 193 150 151
f 150 194 152
f 192 194 150
f 148 152 190
f 190 152 194
f 191 153 149
f 195 153 191
f 198 197 196
f 155 156 196
f 197 155 196
f 199 155 197
f 151 155 193
f 193 155 199
f 195 157 153
f 200 157 195
f 198 196 159
f 160 198 159
f 201 198 160
f 159 196 156
f 200 161 157
f 202 161 200
f 163 204 203
f 201 163 203
f 160 163 201
f 206 205 204
f 204 205 203
f 208 207 206
f 206 207 205
f 210 209 208
f 208 209 207
f 212 211 210
f 210 211 209
f 202 211 212
f 164 202 212
f 161 202 164
f 166 213 204
f 166 204 163
f 204 214 206
f 204 213 214
f 206 215 208
f 206 214 215
f 208 216 210
f 208 215 216
f 210 217 212
f 210 216 217
f 217 167 164
f 217 164 212
f 169 218 213
f 169 213 166
f 213 219 214
f 213 218 219
f 214 220 215
f 214 219 220
f 215 221 216
f 215 220 221
f 216 222 217
f 216 221 222
f 222 170 167
f 222 167 217
f 172 223 218
f 172 218 169
f 218 224 219
f 218 223 224
f 219 225 220
f 219 224 225
f 220 226 221
f 220 225 226
f 221 227 222
f 221 226 227
f 227 173 170
f 227 170 222
f 229 228 223
f 172 229 223
f 175 229 172
f 223 228 224
f 224 228 230
f 224 230 225
f 225 230 231
f 225 231 226
f 226 231 232
f 226 232 227
f 227 232 233
f 173 227 233
f 234 173 233
f 176 173 234
f 175 177 235
f 236 175 235
f 229 175 236
f 179 235 177
f 234 180 176
f 237 180 234
f 238 236 235
f 238 235 179
f 181 238 179
f 239 238 181
f 181 182 239
f 239 182 240
f 237 183 180
f 241 183 237
f 242 240 182
f 242 182 184
f 243 184 185
f 243 242 184
f 185 186 243
f 243 186 244
f 241 187 183
f 245 187 241
f 246 244 186
f 246 186 188
f 188 187 245
f 188 245 246
f 248 247 189
f 248 189 190
f 191 189 247
f 191 247 249
f 251 250 192
f 251 192 193
f 192 252 194
f 250 252 192
f 190 194 248
f 248 194 252
f 249 195 191
f 253 195 249
f 255 254 197
f 255 197 198
f 197 256 199
f 254 256 197
f 193 199 251
f 251 199 256
f 253 200 195
f 257 200 253
f 201 259 258
f 255 201 258
f 198 201 255
f 261 260 259
f 259 260 258
f 263 262 261
f 261 262 260
f 265 264 263
f 263 264 262
f 267 266 265
f 265 266 264
f 257 266 267
f 202 257 267
f 200 257 202
f 203 259 201
f 259 203 205
f 259 205 261
f 261 205 207
f 261 207 263
f 263 207 209
f 263 209 265
f 265 209 211
f 265 211 267
f 267 211 202
f 229 268 228
f 269 230 228
f 269 228 268
f 270 231 230
f 270 230 269
f 271 232 231
f 271 231 270
f 272 233 232
f 272 232 271
f 272 234 233
f 274 273 268
f 229 274 268
f 236 274 229
f 268 273 269
f 269 273 275
f 269 275 270
f 270 275 276
f 270 276 271
f 271 276 277
f 271 277 272
f 272 277 278
f 234 272 278
f 279 234 278
f 237 234 279
f 280 274 236
f 280 236 238
f 281 238 239
f 281 280 238
f 239 240 281
f 281 240 282
f 279 241 237
f 283 241 279
f 284 282 240
f 284 240 242
f 285 242 243
f 285 284 242
f 243 244 285
f 285 244 286
f 283 245 241
f 287 245 283
f 288 286 244
f 288 244 246
f 246 245 287
f 246 287 288
f 290 289 247
f 290 247 248
f 249 247 289
f 249 289 291
f 293 292 250
f 293 250 251
f 250 294 252
f 292 294 250
f 248 252 290
f 290 252 294
f 291 253 249
f 295 253 291
f 297 296 254
f 297 254 255
f 254 298 256
f 296 298 254
f 251 256 293
f 293 256 298
f 295 257 253
f 299 257 295
f 300 297 255
f 300 255 258
f 301 258 260
f 301 300 258
f 302 260 262
f 302 301 260
f 303 262 264
f 303 302 262
f 304 264 266
f 304 303 264
f 266 257 299
f 266 299 304
f 306 305 273
f 306 273 274
f 273 307 275
f 305 307 273
f 275 308 276
f 307 308 275
f 276 309 277
f 308 309 276
f 277 310 278
f 309 310 277
f 279 278 310
f 279 310 311
f 312 306 274
f 312 274 280
f 313 280 281
f 313 312 280
f 281 282 313
f 313 282 314
f 311 283 279
f 315 283 311
f 316 314 282
f 316 282 284
f 317 284 285
f 317 316 284
f 285 286 317
f 317 286 318
f 315 287 283
f 319 287 315
f 320 318 286
f 320 286 288
f 288 287 319
f 288 319 320
f 322 321 289
f 322 289 290
f 291 289 321
f 291 321 323
f 325 324 292
f 325 292 293
f 292 326 294
f 324 326 292
f 290 294 322
f 322 294 326
f 323 295 291
f 327 295 323
f 329 328 296
f 329 296 297
f 296 330 298
f 328 330 296
f 293 298 325
f 325 298 330
f 327 299 295
f 331 299 327
f 332 329 297
f 332 297 300
f 333 300 301
f 333 332 300
f 334 301 302
f 334 333 301
f 335 302 303
f 335 334 302
f 336 303 304
f 336 335 303
f 304 299 331
f 304 331 336
f 338 337 305
f 338 305 306
f 305 339 307
f 337 339 305
f 307 340 308
f 339 340 307
f 308 341 309
f 340 341 308
f 309 342 310
f 341 342 309
f 311 310 342
f 311 342 343
f 344 338 306
f 344 306 312
f 345 312 313
f 345 344 312
f 313 314 345
f 345 314 346
f 343 315 311
f 347 315 343
f 348 346 314
f 348 314 316
f 349 316 317
f 349 348 316
f 317 318 349
f 349 318 350
f 347 319 315
f 351 319 347
f 352 350 318
f 352 318 320
f 320 319 351
f 320 351 352
f 354 353 321
f 354 321 322
f 323 321 353
f 323 353 355
f 357 356 324
f 357 324 325
f 324 358 326
f 356 358 324
f 322 326 354
f 354 326 358
f 355 327 323
f 359 327 355
f 361 360 328
f 361 328 329
f 328 362 330
f 360 362 328
f 325 330 357
f 357 330 362
f 359 331 327
f 363 331 359
f 364 361 329
f 364 329 332
f 365 332 333
f 365 364 332
f 366 333 334
f 366 365 333
f 367 334 335
f 367 366 334
f 368 335 336
f 368 367 335
f 336 331 363
f 336 363 368
f 370 369 337
f 370 337 338
f 337 371 339
f 369 371 337
f 339 372 340
f 371 372 339
f 340 373 341
f 372 373 340
f 341 374 342
f 373 374 341
f 343 342 374
f 343 374 375
f 376 370 338
f 376 338 344
f 377 344 345
f 377 376 344
f 345 346 377
f 377 346 378
f 375 347 343
f 379 347 375
f 380 378 346
f 380 346 348
f 381 348 349
f 381 380 348
f 349 350 381
f 381 350 382
f 379 351 347
f 383 351 379
f 384 382 350
f 384 350 352
f 352 351 383
f 352 383 384
f 386 385 353
f 386 353 354
f 355 353 385
f 355 385 387
f 389 388 356
f 389 356 357
f 356 390 358
f 388 390 356
f 354 358 386
f 386 358 390
f 387 359 355
f 391 359 387
f 393 392 360
f 393 360 361
f 360 394 362
f 392 394 360
f 357 362 389
f 389 362 394
f 391 363 359
f 395 363 391
f 361 364 396
f 397 361 396
f 393 361 397
f 365 398 364
f 364 398 396
f 366 399 365
f 365 399 398
f 367 400 366
f 366 400 399
f 368 401 367
f 367 401 400
f 402 401 368
f 363 402 368
f 395 402 363
f 403 397 396
f 403 396 398
f 403 398 404
f 404 398 399
f 404 399 405
f 405 399 400
f 405 400 406
f 406 400 401
f 406 401 407
f 407 401 402
f 410 409 408
f 412 411 408
f 412 408 409
f 414 413 411
f 414 411 412
f 416 415 413
f 416 413 414
f 418 417 415
f 418 415 416
f 419 417 418
f 410 408 369
f 370 410 369
f 420 410 370
f 369 408 371
f 371 408 411
f 371 411 372
f 372 411 413
f 372 413 373
f 373 413 415
f 373 415 374
f 374 415 417
f 375 374 417
f 419 375 417
f 421 375 419
f 422 420 370
f 422 370 376
f 423 376 377
f 423 422 376
f 377 378 423
f 423 378 424
f 421 379 375
f 425 379 421
f 426 424 378
f 426 378 380
f 427 380 381
f 427 426 380
f 381 382 427
f 427 382 428
f 425 383 379
f 429 383 425
f 430 428 382
f 430 382 384
f 384 383 429
f 384 429 430
f 432 431 385
f 432 385 386
f 387 385 431
f 387 431 433
f 435 434 388
f 435 388 389
f 388 436 390
f 434 436 388
f 386 390 432
f 432 390 436
f 433 391 387
f 437 391 433
f 393 438 392
f 392 438 439
f 440 392 439
f 394 392 440
f 389 394 435
f 435 394 440
f 437 395 391
f 441 395 437
f 443 442 438
f 393 443 438
f 397 443 393
f 438 442 439
f 441 402 395
f 444 402 441
f 397 403 445
f 446 397 445
f 443 397 446
f 404 447 403
f 403 447 445
f 405 448 404
f 404 448 447
f 406 449 405
f 405 449 448
f 407 450 406
f 406 450 449
f 451 450 407
f 402 451 407
f 444 451 402
f 446 445 452
f 446 452 453
f 454 445 447
f 452 445 454
f 455 447 448
f 454 447 455
f 456 448 449
f 455 448 456
f 457 449 450
f 456 449 457
f 450 451 458
f 450 458 457
f 453 452 459
f 453 459 460
f 461 452 454
f 459 452 461
f 462 454 455
f 461 454 462
f 463 455 456
f 462 455 463
f 464 456 457
f 463 456 464
f 457 458 465
f 457 465 464
f 460 459 466
f 460 466 467
f 468 459 461
f 466 459 468
f 469 461 462
f 468 461 469
f 470 462 463
f 469 462 470
f 471 463 464
f 470 463 471
f 464 465 472
f 464 472 471
f 467 466 409
f 410 467 409
f 473 467 410
f 409 466 412
f 412 466 468
f 412 468 414
f 414 468 469
f 414 469 416
f 416 469 470
f 416 470 418
f 418 470 471
f 419 418 471
f 472 419 471
f 474 419 472
f 420 476 475
f 473 420 475
f 410 420 473
f 476 477 475
f 474 421 419
f 478 421 474
f 422 476 420
f 479 477 476
f 422 479 476
f 423 479 422
f 423 424 479
f 479 424 480
f 478 425 421
f 481 425 478
f 482 480 424
f 482 424 426
f 483 426 427
f 483 482 426
f 427 428 483
f 483 428 484
f 481 429 425
f 485 429 481
f 486 484 428
f 486 428 430
f 430 429 485
f 430 485 486
f 488 487 431
f 488 431 432
f 433 431 487
f 433 487 489
f 491 490 434
f 491 434 435
f 434 492 436
f 490 492 434
f 432 436 488
f 488 436 492
f 489 437 433
f 493 437 489
f 439 494 440
f 494 495 440
f 495 435 440
f 495 491 435
f 493 441 437
f 496 441 493
f 443 497 442
f 497 498 442
f 442 498 439
f 498 499 439
f 499 494 439
f 494 499 495
f 496 444 441
f 500 444 496
f 446 501 497
f 446 497 443
f 498 497 502
f 502 497 501
f 500 451 444
f 503 451 500
f 453 504 501
f 453 501 446
f 502 501 505
f 505 501 504
f 503 458 451
f 506 458 503
f 460 507 504
f 460 504 453
f 505 504 508
f 508 504 507
f 506 465 458
f 509 465 506
f 467 510 507
f 467 507 460
f 508 507 511
f 511 507 510
f 509 472 465
f 512 472 509
f 473 513 510
f 473 510 467
f 511 510 514
f 514 510 513
f 512 474 472
f 515 474 512
f 475 513 473
f 517 516 477
f 477 516 475
f 516 514 475
f 514 513 475
f 517 518 516
f 515 478 474
f 519 478 515
f 479 517 477
f 479 480 517
f 480 518 517
f 480 520 518
f 519 481 478
f 521 481 519
f 522 520 480
f 522 480 482
f 523 482 483
f 523 522 482
f 483 484 523
f 523 484 524
f 521 485 481
f 525 485 521
f 526 524 484
f 526 484 486
f 486 485 525
f 486 525 526
f 528 527 487
f 528 487 488
f 489 487 527
f 489 527 529
f 491 530 490
f 490 530 531
f 532 490 531
f 492 490 532
f 488 492 528
f 528 492 532
f 529 493 489
f 533 493 529
f 535 534 530
f 491 535 530
f 495 535 491
f 530 534 531
f 533 496 493
f 536 496 533
f 498 537 499
f 537 538 499
f 538 495 499
f 538 535 495
f 536 500 496
f 539 500 536
f 502 540 537
f 502 537 498
f 538 537 541
f 541 537 540
f 539 503 500
f 542 503 539
f 505 543 540
f 505 540 502
f 541 540 544
f 544 540 543
f 542 506 503
f 545 506 542
f 508 546 543
f 508 543 505
f 544 543 547
f 547 543 546
f 545 509 506
f 548 509 545
f 511 549 546
f 511 546 508
f 547 546 550
f 550 546 549
f 548 512 509
f 551 512 548
f 514 552 549
f 514 549 511
f 550 549 553
f 553 549 552
f 551 515 512
f 554 515 551
f 516 552 514
f 516 518 552
f 518 553 552
f 518 555 553
f 554 519 515
f 556 519 554
f 520 558 557
f 555 520 557
f 518 520 555
f 558 559 557
f 556 521 519
f 560 521 556
f 522 558 520
f 561 559 558
f 522 561 558
f 523 561 522
f 523 524 561
f 561 524 562
f 560 525 521
f 563 525 560
f 564 562 524
f 564 524 526
f 526 525 563
f 526 563 564
f 566 565 527
f 566 527 528
f 529 527 565
f 529 565 567
f 531 568 532
f 568 569 532
f 569 528 532
f 569 566 528
f 567 533 529
f 570 533 567
f 535 571 534
f 571 572 534
f 534 572 531
f 572 573 531
f 573 568 531
f 568 573 569
f 570 536 533
f 574 536 570
f 538 575 571
f 538 571 535
f 572 571 576
f 576 571 575
f 574 539 536
f 577 539 574
f 541 578 575
f 541 575 538
f 576 575 579
f 579 575 578
f 577 542 539
f 580 542 577
f 544 581 578
f 544 578 541
f 579 578 582
f 582 578 581
f 580 545 542
f 583 545 580
f 547 584 581
f 547 581 544
f 582 581 585
f 585 581 584
f 583 548 545
f 586 548 583
f 550 587 584
f 550 584 547
f 585 584 588
f 588 584 587
f 586 551 548
f 589 551 586
f 553 590 587
f 553 587 550
f 588 587 591
f 591 587 590
f 589 554 551
f 592 554 589
f 555 593 590
f 555 590 553
f 591 590 594
f 594 590 593
f 592 556 554
f 595 556 592
f 557 593 555
f 597 596 559
f 559 596 557
f 596 594 557
f 594 593 557
f 597 598 596
f 595 560 556
f 599 560 595
f 561 597 559
f 561 562 597
f 562 598 597
f 562 600 598
f 599 563 560
f 601 563 599
f 602 600 562
f 602 562 564
f 564 563 601
f 564 601 602
f 566 603 565
f 603 567 565
f 569 604 603
f 569 603 566
f 604 570 567
f 604 567 603
f 572 605 573
f 605 606 573
f 573 606 569
f 606 607 569
f 607 604 569
f 570 604 607
f 608 570 607
f 574 570 608
f 576 609 605
f 576 605 572
f 606 605 610
f 610 605 609
f 608 577 574
f 611 577 608
f 579 612 609
f 579 609 576
f 610 609 613
f 613 609 612
f 611 580 577
f 614 580 611
f 582 615 612
f 582 612 579
f 613 612 616
f 616 612 615
f 614 583 580
f 617 583 614
f 585 618 615
f 585 615 582
f 616 615 619
f 619 615 618
f 617 586 583
f 620 586 617
f 588 621 618
f 588 618 585
f 619 618 622
f 622 618 621
f 620 589 586
f 623 589 620
f 591 624 621
f 591 621 588
f 622 621 625
f 625 621 624
f 623 592 589
f 626 592 623
f 594 627 624
f 594 624 591
f 625 624 628
f 628 624 627
f 626 595 592
f 629 595 626
f 596 627 594
f 631 630 598
f 598 630 596
f 630 628 596
f 628 627 596
f 629 630 631
f 599 629 631
f 595 629 599
f 600 632 631
f 600 631 598
f 632 601 599
f 632 599 631
f 602 632 600
f 632 602 601
f 606 633 607
f 633 608 607
f 610 634 633
f 610 633 606
f 634 611 608
f 634 608 633
f 613 635 634
f 613 634 610
f 635 614 611
f 635 611 634
f 616 636 635
f 616 635 613
f 636 617 614
f 636 614 635
f 619 637 636
f 619 636 616
f 637 620 617
f 637 617 636
f 622 638 637
f 622 637 619
f 638 623 620
f 638 620 637
f 625 639 638
f 625 638 622
f 639 626 623
f 639 623 638
f 628 640 639
f 628 639 625
f 640 629 626
f 640 626 639
f 630 640 628
f 640 630 629
