v 5.0 9.0 14.0
v 5.0 9.0 14.0
v 5.0 9.0 14.0
v 5.0 9.0 14.0
v 5.0 10.0 14.0
v 5.0 10.0 14.0
v 5.0 10.0 14.0
v 5.0 11.0 14.0
v 5.0 11.0 14.0
v 5.0 11.0 14.0
v 5.0 12.0 14.0
v 5.0 12.0 14.0
v 5.0 12.0 14.0
v 5.0 13.0 14.0
v 5.0 13.0 14.0
v 5.0 13.0 14.0
v 5.0 14.0 14.0
v 5.0 14.0 14.0
v 5.0 14.0 14.0
v 5.0 14.0 14.0
v 6.0 9.0 14.0
v 6.0 9.0 14.0
v 6.0 9.0 14.0
v 6.0 10.0 13.0
v 6.0 10.0 13.0
v 6.0 10.0 13.0
v 6.0 10.0 14.0
v 6.0 11.0 13.0
v 6.0 11.0 13.0
v 6.0 11.0 14.0
v 6.0 12.0 13.0
v 6.0 12.0 13.0
v 6.0 12.0 14.0
v 6.0 13.0 13.0
v 6.0 13.0 13.0
v 6.0 13.0 14.0
v 6.0 13.0 13.0
v 6.0 14.0 14.0
v 6.0 14.0 14.0
v 6.0 14.0 14.0
v 7.0 8.0 14.0
v 7.0 8.0 14.0
v 7.0 8.0 14.0
v 7.0 8.0 14.0
v 7.0 9.0 13.0
v 7.0 9.0 13.0
v 7.0 9.0 13.0
v 7.0 9.0 14.0
v 7.0 10.0 12.0
v 7.0 10.0 12.0
v 7.0 10.0 12.0
v 7.0 10.0 14.0
v 7.0 11.0 12.0
v 7.0 11.0 12.0
v 7.0 11.0 14.0
v 7.0 12.0 12.0
v 7.0 12.0 12.0
v 7.0 12.0 14.0
v 7.0 13.0 12.0
v 7.0 13.0 12.0
v 7.0 13.0 14.0
v 7.0 13.0 12.0
v 7.0 14.0 13.0
v 7.0 14.0 13.0
v 7.0 14.0 14.0
v 7.0 14.0 13.0
v 7.0 15.0 14.0
v 7.0 15.0 14.0
v 7.0 15.0 14.0
v 7.0 15.0 14.0
v 8.0 8.0 13.0
v 8.0 8.0 13.0
v 8.0 8.0 13.0
v 8.0 8.0 14.0
v 8.0 8.0 14.0
v 8.0 9.0 12.0
v 8.0 9.0 12.0
v 8.0 9.0 12.0
v 8.0 9.0 14.0
v 8.0 10.0 11.0
v 8.0 10.0 11.0
v 8.0 10.0 11.0
v 8.0 10.0 14.0
v 8.0 11.0 11.0
v 8.0 11.0 11.0
v 8.0 11.0 14.0
v 8.0 12.0 11.0
v 8.0 12.0 11.0
v 8.0 12.0 14.0
v 8.0 13.0 11.0
v 8.0 13.0 11.0
v 8.0 13.0 14.0
v 8.0 13.0 11.0
v 8.0 14.0 12.0
v 8.0 14.0 12.0
v 8.0 14.0 14.0
v 8.0 14.0 12.0
v 8.0 15.0 13.0
v 8.0 15.0 13.0
v 8.0 15.0 14.0
v 8.0 15.0 13.0
v 8.0 15.0 14.0
v 9.0 8.0 12.0
v 9.0 8.0 12.0
v 9.0 8.0 12.0
v 9.0 8.0 13.0
v 9.0 8.0 14.0
v 9.0 8.0 14.0
v 9.0 9.0 11.0
v 9.0 9.0 11.0
v 9.0 9.0 11.0
v 9.0 9.0 14.0
v 8.722968101501465 10.0 10.0
v 9.0 9.520264625549316 10.0
v 9.0 10.0 9.477730751037598
v 9.0 10.0 14.0
v 8.520264625549316 11.0 10.0
v 9.0 11.0 9.450726509094238
v 9.0 11.0 14.0
v 8.520264625549316 12.0 10.0
v 9.0 12.0 9.450726509094238
v 9.0 12.0 14.0
v 8.722968101501465 13.0 10.0
v 9.0 13.0 9.477730751037598
v 9.0 13.0 14.0
v 9.0 13.479735374450684 10.0
v 9.0 14.0 11.0
v 9.0 14.0 11.0
v 9.0 14.0 14.0
v 9.0 14.0 11.0
v 9.0 15.0 12.0
v 9.0 15.0 12.0
v 9.0 15.0 14.0
v 9.0 15.0 12.0
v 9.0 15.0 13.0
v 9.0 15.0 14.0
v 10.0 8.0 11.0
v 10.0 8.0 11.0
v 10.0 8.0 11.0
v 10.0 8.0 12.0
v 10.0 8.0 13.0
v 10.0 8.0 14.0
v 10.0 8.0 14.0
v 9.520264625549316 9.0 10.0
v 10.0 8.722968101501465 10.0
v 10.0 9.0 9.477730751037598
v 10.0 9.0 14.0
v 10.0 9.561655044555664 10.0
v 9.561655044555664 10.0 10.0
v 10.0 9.0 11.0
v 9.333333015441895 9.333333015441895 11.0
v 9.0 10.0 11.0
v 10.0 9.0 12.0
v 9.0 10.0 12.0
v 10.0 9.0 13.0
v 9.0 10.0 13.0
v 10.0 9.0 14.0
v 9.0 10.0 14.0
v 9.208093643188477 11.0 10.0
v 9.0 11.0 11.0
v 9.0 11.0 12.0
v 9.0 11.0 13.0
v 9.0 11.0 14.0
v 9.208093643188477 12.0 10.0
v 9.0 12.0 11.0
v 9.0 12.0 12.0
v 9.0 12.0 13.0
v 9.0 12.0 14.0
v 9.561655044555664 13.0 10.0
v 9.0 13.0 11.0
v 9.0 13.0 12.0
v 9.0 13.0 13.0
v 9.0 13.0 14.0
v 9.520264625549316 14.0 10.0
v 10.0 14.0 9.477730751037598
v 10.0 13.438344955444336 10.0
v 9.333333015441895 13.666666984558105 11.0
v 10.0 14.0 11.0
v 10.0 14.0 12.0
v 10.0 14.0 13.0
v 10.0 14.0 14.0
v 10.0 14.0 14.0
v 10.0 14.277031898498535 10.0
v 10.0 15.0 11.0
v 10.0 15.0 11.0
v 10.0 15.0 14.0
v 10.0 15.0 11.0
v 10.0 15.0 12.0
v 10.0 15.0 13.0
v 10.0 15.0 14.0
v 11.0 7.0 13.0
v 11.0 7.0 13.0
v 11.0 7.0 13.0
v 11.0 7.0 13.0
v 11.0 8.0 11.0
v 11.0 8.0 11.0
v 11.0 8.0 12.0
v 11.0 8.0 14.0
v 11.0 8.0 14.0
v 11.0 8.520264625549316 10.0
v 11.0 9.0 9.450726509094238
v 11.0 9.0 14.0
v 11.0 9.208093643188477 10.0
v 11.0 9.0 11.0
v 11.0 9.0 12.0
v 11.0 9.0 13.0
v 11.0 9.0 14.0
v 11.0 13.791906356811523 10.0
v 11.0 14.0 9.450726509094238
v 11.0 14.0 11.0
v 11.0 14.0 12.0
v 11.0 14.0 13.0
v 11.0 14.0 14.0
v 11.0 14.0 14.0
v 11.0 14.479735374450684 10.0
v 11.0 15.0 11.0
v 11.0 15.0 14.0
v 11.0 15.0 11.0
v 11.0 15.0 12.0
v 11.0 16.0 13.0
v 11.0 16.0 13.0
v 11.0 16.0 13.0
v 11.0 15.0 14.0
v 11.0 16.0 13.0
v 12.0 7.0 13.0
v 12.0 7.0 13.0
v 12.0 7.0 13.0
v 12.0 8.0 11.0
v 12.0 8.0 11.0
v 12.0 8.0 12.0
v 12.0 8.0 14.0
v 12.0 8.0 14.0
v 12.0 8.520264625549316 10.0
v 12.0 9.0 9.450726509094238
v 12.0 9.0 14.0
v 12.0 9.208093643188477 10.0
v 12.0 9.0 11.0
v 12.0 9.0 12.0
v 12.0 9.0 13.0
v 12.0 9.0 14.0
v 12.0 13.791906356811523 10.0
v 12.0 14.0 9.450726509094238
v 12.0 14.0 11.0
v 12.0 14.0 12.0
v 12.0 14.0 13.0
v 12.0 14.0 14.0
v 12.0 14.0 14.0
v 12.0 14.479735374450684 10.0
v 12.0 15.0 11.0
v 12.0 15.0 14.0
v 12.0 15.0 11.0
v 12.0 15.0 12.0
v 12.0 16.0 13.0
v 12.0 16.0 13.0
v 12.0 15.0 14.0
v 12.0 16.0 13.0
v 12.0 7.0 13.0
v 13.0 8.0 11.0
v 13.0 8.0 11.0
v 13.0 8.0 12.0
v 13.0 8.0 13.0
v 13.0 8.0 14.0
v 13.0 8.0 14.0
v 13.0 8.722968101501465 10.0
v 13.0 9.0 9.477730751037598
v 13.0 9.0 14.0
v 13.0 9.561655044555664 10.0
v 13.0 9.0 11.0
v 13.0 9.0 12.0
v 13.0 9.0 13.0
v 13.0 9.0 14.0
v 13.0 13.438344955444336 10.0
v 13.0 14.0 9.477730751037598
v 13.0 14.0 11.0
v 13.0 14.0 12.0
v 13.0 14.0 13.0
v 13.0 14.0 14.0
v 13.0 14.0 14.0
v 13.0 14.277031898498535 10.0
v 13.0 15.0 11.0
v 13.0 15.0 14.0
v 13.0 15.0 11.0
v 13.0 15.0 12.0
v 13.0 15.0 13.0
v 12.0 16.0 13.0
v 13.0 15.0 14.0
v 13.0 8.0 11.0
v 14.0 8.0 12.0
v 14.0 8.0 12.0
v 14.0 8.0 13.0
v 14.0 8.0 14.0
v 14.0 8.0 14.0
v 13.479735374450684 9.0 10.0
v 14.0 9.0 11.0
v 14.0 9.0 11.0
v 14.0 9.0 14.0
v 13.438344955444336 10.0 10.0
v 14.0 10.0 9.477730751037598
v 14.0 9.520264625549316 10.0
v 13.666666984558105 9.333333015441895 11.0
v 14.0 10.0 11.0
v 14.0 10.0 12.0
v 14.0 10.0 13.0
v 14.0 10.0 14.0
v 14.0 10.0 14.0
v 13.791906356811523 11.0 10.0
v 14.0 11.0 9.450726509094238
v 14.0 11.0 11.0
v 14.0 11.0 12.0
v 14.0 11.0 13.0
v 14.0 11.0 14.0
v 14.0 11.0 14.0
v 13.791906356811523 12.0 10.0
v 14.0 12.0 9.450726509094238
v 14.0 12.0 11.0
v 14.0 12.0 12.0
v 14.0 12.0 13.0
v 14.0 12.0 14.0
v 14.0 12.0 14.0
v 13.438344955444336 13.0 10.0
v 14.0 13.0 9.477730751037598
v 14.0 13.0 11.0
v 14.0 13.0 12.0
v 14.0 13.0 13.0
v 14.0 13.0 14.0
v 14.0 13.0 14.0
v 14.0 13.479735374450684 10.0
v 13.479735374450684 14.0 10.0
v 13.666666984558105 13.666666984558105 11.0
v 14.0 14.0 11.0
v 14.0 14.0 14.0
v 14.0 14.0 11.0
v 13.0 15.0 11.0
v 14.0 15.0 12.0
v 14.0 15.0 14.0
v 14.0 15.0 12.0
v 14.0 15.0 13.0
v 14.0 15.0 14.0
v 14.0 8.0 12.0
v 15.0 8.0 13.0
v 15.0 8.0 13.0
v 15.0 8.0 14.0
v 15.0 8.0 14.0
v 14.0 9.0 11.0
v 15.0 9.0 12.0
v 15.0 9.0 12.0
v 15.0 9.0 14.0
v 14.277031898498535 10.0 10.0
v 15.0 10.0 11.0
v 15.0 10.0 11.0
v 15.0 10.0 14.0
v 14.479735374450684 11.0 10.0
v 15.0 11.0 11.0
v 15.0 11.0 14.0
v 14.479735374450684 12.0 10.0
v 15.0 12.0 11.0
v 15.0 12.0 14.0
v 14.277031898498535 13.0 10.0
v 15.0 13.0 11.0
v 15.0 13.0 14.0
v 15.0 13.0 11.0
v 14.0 14.0 11.0
v 15.0 14.0 12.0
v 15.0 14.0 14.0
v 15.0 14.0 12.0
v 14.0 15.0 12.0
v 15.0 15.0 13.0
v 15.0 15.0 14.0
v 15.0 15.0 13.0
v 15.0 15.0 14.0
v 15.0 8.0 13.0
v 16.0 8.0 14.0
v 16.0 8.0 14.0
v 16.0 8.0 14.0
v 15.0 9.0 12.0
v 16.0 9.0 13.0
v 16.0 9.0 13.0
v 16.0 9.0 14.0
v 15.0 10.0 11.0
v 16.0 10.0 12.0
v 16.0 10.0 12.0
v 16.0 10.0 14.0
v 15.0 11.0 11.0
v 16.0 11.0 12.0
v 16.0 11.0 14.0
v 15.0 12.0 11.0
v 16.0 12.0 12.0
v 16.0 12.0 14.0
v 15.0 13.0 11.0
v 16.0 13.0 12.0
v 16.0 13.0 14.0
v 16.0 13.0 12.0
v 15.0 14.0 12.0
v 16.0 14.0 13.0
v 16.0 14.0 14.0
v 16.0 14.0 13.0
v 15.0 15.0 13.0
v 16.0 15.0 14.0
v 16.0 15.0 14.0
v 16.0 15.0 14.0
v 16.0 8.0 14.0
v 16.0 9.0 13.0
v 17.0 9.0 14.0
v 17.0 9.0 14.0
v 17.0 9.0 14.0
v 16.0 10.0 12.0
v 17.0 10.0 13.0
v 17.0 10.0 13.0
v 17.0 10.0 14.0
v 16.0 11.0 12.0
v 17.0 11.0 13.0
v 17.0 11.0 14.0
v 16.0 12.0 12.0
v 17.0 12.0 13.0
v 17.0 12.0 14.0
v 16.0 13.0 12.0
v 17.0 13.0 13.0
v 17.0 13.0 14.0
v 17.0 13.0 13.0
v 16.0 14.0 13.0
v 17.0 14.0 14.0
v 17.0 14.0 14.0
v 17.0 14.0 14.0
v 16.0 15.0 14.0
v 18.0 9.0 14.0
v 18.0 9.0 14.0
v 18.0 9.0 14.0
v 17.0 10.0 13.0
v 18.0 10.0 14.0
v 18.0 10.0 14.0
v 17.0 11.0 13.0
v 18.0 11.0 14.0
v 18.0 11.0 14.0
v 17.0 12.0 13.0
v 18.0 12.0 14.0
v 18.0 12.0 14.0
v 17.0 13.0 13.0
v 18.0 13.0 14.0
v 18.0 13.0 14.0
v 18.0 14.0 14.0
v 18.0 14.0 14.0
v 18.0 14.0 14.0
v 18.0 9.0 14.0
v 18.0 10.0 14.0
v 18.0 11.0 14.0
v 18.0 12.0 14.0
v 18.0 13.0 14.0
v 18.0 14.0 14.0
f 3 2 1
f 4 1 2
f 3 1 5
f 3 5 6
f 1 4 7
f 1 7 5
f 6 5 8
f 6 8 9
f 5 7 10
f 5 10 8
f 9 8 11
f 9 11 12
f 8 10 13
f 8 13 11
f 12 11 14
f 12 14 15
f 11 13 16
f 11 16 14
f 15 14 17
f 15 17 18
f 14 16 19
f 14 19 17
f 20 18 17
f 20 17 19
f 22 21 2
f 22 2 3
f 4 2 21
f 4 21 23
f 26 25 24
f 25 22 24
f 22 6 24
f 22 3 6
f 23 7 4
f 27 7 23
f 26 24 28
f 26 28 29
f 9 28 6
f 6 28 24
f 27 10 7
f 30 10 27
f 29 28 31
f 29 31 32
f 12 31 9
f 9 31 28
f 30 13 10
f 33 13 30
f 32 31 34
f 32 34 35
f 15 34 12
f 12 34 31
f 33 16 13
f 36 16 33
f 37 35 34
f 34 15 37
f 15 38 37
f 15 18 38
f 36 19 16
f 39 19 36
f 40 38 18
f 40 18 20
f 20 19 39
f 20 39 40
f 43 42 41
f 44 41 42
f 47 46 45
f 45 46 43
f 45 43 41
f 22 45 41
f 21 22 41
f 23 21 41
f 44 23 41
f 48 23 44
f 51 50 49
f 49 50 47
f 49 47 45
f 26 49 45
f 25 26 45
f 25 45 22
f 48 27 23
f 52 27 48
f 51 49 53
f 51 53 54
f 29 53 26
f 26 53 49
f 52 30 27
f 55 30 52
f 54 53 56
f 54 56 57
f 32 56 29
f 29 56 53
f 55 33 30
f 58 33 55
f 57 56 59
f 57 59 60
f 35 59 32
f 32 59 56
f 58 36 33
f 61 36 58
f 62 60 59
f 64 62 63
f 63 62 37
f 62 59 37
f 59 35 37
f 38 63 37
f 61 39 36
f 65 39 61
f 66 64 63
f 68 66 67
f 67 66 40
f 66 63 40
f 63 38 40
f 69 67 40
f 39 69 40
f 65 69 39
f 70 68 67
f 70 67 69
f 73 72 71
f 42 43 71
f 72 42 71
f 74 42 72
f 44 42 74
f 44 74 75
f 78 77 76
f 76 77 73
f 76 73 71
f 47 76 71
f 46 47 71
f 46 71 43
f 75 48 44
f 79 48 75
f 82 81 80
f 80 81 78
f 80 78 76
f 51 80 76
f 50 51 76
f 50 76 47
f 79 52 48
f 83 52 79
f 82 80 84
f 82 84 85
f 54 84 51
f 51 84 80
f 83 55 52
f 86 55 83
f 85 84 87
f 85 87 88
f 57 87 54
f 54 87 84
f 86 58 55
f 89 58 86
f 88 87 90
f 88 90 91
f 60 90 57
f 57 90 87
f 89 61 58
f 92 61 89
f 93 91 90
f 95 93 94
f 94 93 62
f 93 90 62
f 90 60 62
f 64 94 62
f 92 65 61
f 96 65 92
f 97 95 94
f 99 97 98
f 98 97 66
f 97 94 66
f 94 64 66
f 68 98 66
f 96 69 65
f 100 69 96
f 101 99 98
f 101 98 68
f 70 101 68
f 102 101 70
f 70 69 100
f 70 100 102
f 105 104 103
f 72 73 103
f 104 72 103
f 106 72 104
f 72 107 74
f 106 107 72
f 75 74 107
f 75 107 108
f 111 110 109
f 109 110 105
f 109 105 103
f 78 109 103
f 77 78 103
f 77 103 73
f 108 79 75
f 112 79 108
f 115 114 113
f 113 114 111
f 113 111 109
f 82 113 109
f 81 82 109
f 81 109 78
f 112 83 79
f 116 83 112
f 115 113 117
f 115 117 118
f 85 117 82
f 82 117 113
f 116 86 83
f 119 86 116
f 118 117 120
f 118 120 121
f 88 120 85
f 85 120 117
f 119 89 86
f 122 89 119
f 121 120 123
f 121 123 124
f 91 123 88
f 88 123 120
f 122 92 89
f 125 92 122
f 126 124 123
f 128 126 127
f 127 126 93
f 126 123 93
f 123 91 93
f 95 127 93
f 125 96 92
f 129 96 125
f 130 128 127
f 132 130 131
f 131 130 97
f 130 127 97
f 127 95 97
f 99 131 97
f 129 100 96
f 133 100 129
f 134 132 131
f 134 131 99
f 101 134 99
f 135 134 101
f 136 101 102
f 136 135 101
f 102 100 133
f 102 133 136
f 139 138 137
f 104 105 137
f 138 104 137
f 140 104 138
f 104 141 106
f 140 141 104
f 106 142 107
f 141 142 106
f 108 107 142
f 108 142 143
f 146 145 144
f 144 145 139
f 144 139 137
f 111 144 137
f 110 111 137
f 110 137 105
f 143 112 108
f 147 112 143
f 146 149 148
f 146 115 149
f 146 144 114
f 115 146 114
f 148 151 150
f 151 144 150
f 111 150 144
f 150 111 152
f 114 152 111
f 152 114 151
f 151 149 152
f 148 149 151
f 151 114 144
f 154 153 152
f 152 153 150
f 156 155 154
f 154 155 153
f 158 157 156
f 156 157 155
f 147 157 158
f 116 147 158
f 112 147 116
f 118 159 149
f 118 149 115
f 149 160 152
f 149 159 160
f 152 161 154
f 152 160 161
f 154 162 156
f 154 161 162
f 156 163 158
f 156 162 163
f 163 119 116
f 163 116 158
f 121 164 159
f 121 159 118
f 159 165 160
f 159 164 165
f 160 166 161
f 160 165 166
f 161 167 162
f 161 166 167
f 162 168 163
f 162 167 168
f 168 122 119
f 168 119 163
f 124 169 164
f 124 164 121
f 164 170 165
f 164 169 170
f 165 171 166
f 165 170 171
f 166 172 167
f 166 171 172
f 167 173 168
f 167 172 173
f 173 125 122
f 173 122 168
f 175 126 174
f 175 124 126
f 169 124 175
f 169 175 176
f 178 177 176
f 178 174 177
f 174 178 128
f 170 128 178
f 128 170 126
f 177 126 170
f 170 169 177
f 177 169 176
f 174 126 177
f 170 178 171
f 171 178 179
f 171 179 172
f 172 179 180
f 172 180 173
f 173 180 181
f 125 173 181
f 182 125 181
f 129 125 182
f 183 175 174
f 185 183 184
f 184 183 130
f 183 174 130
f 174 128 130
f 132 184 130
f 182 133 129
f 186 133 182
f 187 185 184
f 187 184 132
f 134 187 132
f 188 187 134
f 189 134 135
f 189 188 134
f 190 135 136
f 190 189 135
f 136 133 186
f 136 186 190
f 193 192 191
f 194 191 192
f 196 195 138
f 196 138 139
f 138 197 140
f 195 197 138
f 191 141 193
f 141 197 193
f 141 140 197
f 194 198 191
f 198 141 191
f 198 142 141
f 143 142 198
f 143 198 199
f 201 200 145
f 201 145 146
f 139 145 196
f 196 145 200
f 199 147 143
f 202 147 199
f 203 201 146
f 203 146 148
f 204 148 150
f 204 203 148
f 205 150 153
f 205 204 150
f 206 153 155
f 206 205 153
f 207 155 157
f 207 206 155
f 157 147 202
f 157 202 207
f 209 208 176
f 209 176 175
f 176 210 178
f 208 210 176
f 178 211 179
f 210 211 178
f 179 212 180
f 211 212 179
f 180 213 181
f 212 213 180
f 182 181 213
f 182 213 214
f 215 209 175
f 215 175 183
f 183 185 215
f 215 185 216
f 214 186 182
f 217 186 214
f 218 216 185
f 218 185 187
f 219 187 188
f 219 218 187
f 221 219 220
f 219 189 220
f 219 188 189
f 220 189 222
f 189 223 222
f 189 190 223
f 190 186 217
f 190 217 223
f 224 221 220
f 224 220 222
f 226 225 192
f 226 192 193
f 194 192 225
f 194 225 227
f 229 228 195
f 229 195 196
f 195 230 197
f 228 230 195
f 193 197 226
f 226 197 230
f 227 231 194
f 194 231 198
f 199 198 231
f 199 231 232
f 234 233 200
f 234 200 201
f 196 200 229
f 229 200 233
f 232 202 199
f 235 202 232
f 236 234 201
f 236 201 203
f 237 203 204
f 237 236 203
f 238 204 205
f 238 237 204
f 239 205 206
f 239 238 205
f 240 206 207
f 240 239 206
f 207 202 235
f 207 235 240
f 242 241 208
f 242 208 209
f 208 243 210
f 241 243 208
f 210 244 211
f 243 244 210
f 211 245 212
f 244 245 211
f 212 246 213
f 245 246 212
f 214 213 246
f 214 246 247
f 248 242 209
f 248 209 215
f 215 216 248
f 248 216 249
f 247 217 214
f 250 217 247
f 251 249 216
f 251 216 218
f 252 218 219
f 252 251 218
f 219 221 252
f 252 221 253
f 255 254 223
f 223 254 222
f 223 217 250
f 223 250 255
f 256 253 221
f 256 221 224
f 224 222 254
f 224 254 256
f 226 257 225
f 257 227 225
f 259 258 228
f 259 228 229
f 228 260 230
f 258 260 228
f 226 230 257
f 230 261 257
f 230 260 261
f 257 261 227
f 261 231 227
f 261 262 231
f 232 231 262
f 232 262 263
f 265 264 233
f 265 233 234
f 229 233 259
f 259 233 264
f 263 235 232
f 266 235 263
f 267 265 234
f 267 234 236
f 268 236 237
f 268 267 236
f 269 237 238
f 269 268 237
f 270 238 239
f 270 269 238
f 271 239 240
f 271 270 239
f 240 235 266
f 240 266 271
f 273 272 241
f 273 241 242
f 241 274 243
f 272 274 241
f 243 275 244
f 274 275 243
f 244 276 245
f 275 276 244
f 245 277 246
f 276 277 245
f 247 246 277
f 247 277 278
f 279 273 242
f 279 242 248
f 248 249 279
f 279 249 280
f 278 250 247
f 281 250 278
f 282 280 249
f 282 249 251
f 283 251 252
f 283 282 251
f 285 284 253
f 284 252 253
f 284 283 252
f 254 255 285
f 255 284 285
f 255 286 284
f 255 250 281
f 255 281 286
f 256 285 253
f 285 256 254
f 259 287 258
f 258 287 288
f 289 258 288
f 260 258 289
f 260 290 261
f 289 290 260
f 261 291 262
f 290 291 261
f 263 262 291
f 263 291 292
f 265 293 264
f 293 294 264
f 264 294 259
f 294 295 259
f 295 287 259
f 287 295 288
f 292 266 263
f 296 266 292
f 298 267 297
f 298 265 267
f 293 265 298
f 293 298 299
f 268 300 267
f 268 293 300
f 293 268 294
f 301 294 268
f 294 301 299
f 300 299 301
f 301 297 300
f 300 297 267
f 293 299 300
f 269 302 268
f 268 302 301
f 270 303 269
f 269 303 302
f 271 304 270
f 270 304 303
f 305 304 271
f 266 305 271
f 296 305 266
f 298 297 306
f 298 306 307
f 308 297 301
f 306 297 308
f 309 301 302
f 308 301 309
f 310 302 303
f 309 302 310
f 311 303 304
f 310 303 311
f 304 305 312
f 304 312 311
f 307 306 313
f 307 313 314
f 315 306 308
f 313 306 315
f 316 308 309
f 315 308 316
f 317 309 310
f 316 309 317
f 318 310 311
f 317 310 318
f 311 312 319
f 311 319 318
f 314 313 320
f 314 320 321
f 322 313 315
f 320 313 322
f 323 315 316
f 322 315 323
f 324 316 317
f 323 316 324
f 325 317 318
f 324 317 325
f 318 319 326
f 318 326 325
f 321 328 327
f 321 273 328
f 321 320 272
f 273 321 272
f 272 329 274
f 329 328 274
f 330 274 328
f 274 330 322
f 327 322 330
f 322 327 329
f 329 320 322
f 272 320 329
f 329 327 328
f 274 322 275
f 275 322 323
f 275 323 276
f 276 323 324
f 276 324 277
f 277 324 325
f 278 277 325
f 326 278 325
f 331 278 326
f 279 328 273
f 333 332 280
f 280 332 279
f 332 330 279
f 330 328 279
f 333 334 332
f 331 281 278
f 335 281 331
f 282 333 280
f 336 334 333
f 282 336 333
f 283 336 282
f 337 283 284
f 337 336 283
f 338 284 286
f 338 337 284
f 286 281 335
f 286 335 338
f 288 339 289
f 289 339 340
f 341 289 340
f 290 289 341
f 290 342 291
f 341 342 290
f 292 291 342
f 292 342 343
f 294 344 295
f 344 345 295
f 295 345 288
f 345 346 288
f 346 339 288
f 339 346 340
f 343 296 292
f 347 296 343
f 298 348 299
f 348 349 299
f 299 349 294
f 349 350 294
f 350 344 294
f 344 350 345
f 347 305 296
f 351 305 347
f 307 352 348
f 307 348 298
f 349 348 353
f 353 348 352
f 351 312 305
f 354 312 351
f 314 355 352
f 314 352 307
f 353 352 356
f 356 352 355
f 354 319 312
f 357 319 354
f 321 358 355
f 321 355 314
f 356 355 359
f 359 355 358
f 357 326 319
f 360 326 357
f 327 358 321
f 362 361 330
f 330 361 327
f 361 359 327
f 359 358 327
f 362 363 361
f 360 331 326
f 364 331 360
f 332 362 330
f 366 365 334
f 334 365 332
f 365 363 332
f 363 362 332
f 366 367 365
f 364 335 331
f 368 335 364
f 336 366 334
f 369 367 366
f 336 369 366
f 337 369 336
f 370 337 338
f 370 369 337
f 338 335 368
f 338 368 370
f 340 371 341
f 341 371 372
f 373 341 372
f 342 341 373
f 343 342 373
f 343 373 374
f 345 375 346
f 375 376 346
f 346 376 340
f 376 377 340
f 377 371 340
f 371 377 372
f 374 347 343
f 378 347 374
f 349 379 350
f 379 380 350
f 350 380 345
f 380 381 345
f 381 375 345
f 375 381 376
f 378 351 347
f 382 351 378
f 353 383 379
f 353 379 349
f 380 379 384
f 384 379 383
f 382 354 351
f 385 354 382
f 356 386 383
f 356 383 353
f 384 383 387
f 387 383 386
f 385 357 354
f 388 357 385
f 359 389 386
f 359 386 356
f 387 386 390
f 390 386 389
f 388 360 357
f 391 360 388
f 361 389 359
f 393 392 363
f 363 392 361
f 392 390 361
f 390 389 361
f 393 394 392
f 391 364 360
f 395 364 391
f 365 393 363
f 397 396 367
f 367 396 365
f 396 394 365
f 394 393 365
f 397 398 396
f 395 368 364
f 399 368 395
f 369 397 367
f 400 398 397
f 369 400 397
f 370 400 369
f 370 368 399
f 370 399 400
f 372 401 373
f 401 374 373
f 376 402 377
f 402 403 377
f 377 403 372
f 403 404 372
f 404 401 372
f 374 401 404
f 405 374 404
f 378 374 405
f 380 406 381
f 406 407 381
f 381 407 376
f 407 408 376
f 408 402 376
f 402 408 403
f 405 382 378
f 409 382 405
f 384 410 406
f 384 406 380
f 407 406 411
f 411 406 410
f 409 385 382
f 412 385 409
f 387 413 410
f 387 410 384
f 411 410 414
f 414 410 413
f 412 388 385
f 415 388 412
f 390 416 413
f 390 413 387
f 414 413 417
f 417 413 416
f 415 391 388
f 418 391 415
f 392 416 390
f 420 419 394
f 394 419 392
f 419 417 392
f 417 416 392
f 420 421 419
f 418 395 391
f 422 395 418
f 396 420 394
f 424 423 398
f 398 423 396
f 423 421 396
f 421 420 396
f 422 423 424
f 399 422 424
f 395 422 399
f 400 424 398
f 424 400 399
f 426 425 404
f 426 404 403
f 405 404 425
f 405 425 427
f 407 428 408
f 428 429 408
f 429 403 408
f 429 426 403
f 427 409 405
f 430 409 427
f 411 431 428
f 411 428 407
f 429 428 432
f 432 428 431
f 430 412 409
f 433 412 430
f 414 434 431
f 414 431 411
f 432 431 435
f 435 431 434
f 433 415 412
f 436 415 433
f 417 437 434
f 417 434 414
f 435 434 438
f 438 434 437
f 436 418 415
f 439 418 436
f 419 437 417
f 419 421 437
f 421 438 437
f 421 440 438
f 439 422 418
f 441 422 439
f 442 440 421
f 442 421 423
f 423 422 441
f 423 441 442
f 426 443 425
f 443 427 425
f 429 444 443
f 429 443 426
f 444 430 427
f 444 427 443
f 432 445 444
f 432 444 429
f 445 433 430
f 445 430 444
f 435 446 445
f 435 445 432
f 446 436 433
f 446 433 445
f 438 447 446
f 438 446 435
f 447 439 436
f 447 436 446
f 440 448 447
f 440 447 438
f 448 441 439
f 448 439 447
f 442 448 440
f 448 442 441
