v 5.0 9.0 14.0
v 5.0 9.0 14.0
v 5.0 9.0 14.0
v 5.0 9.0 14.0
v 5.0 10.0 14.0
v 5.0 10.0 14.0
v 5.0 10.0 14.0
v 5.0 11.0 14.0
v 5.0 11.0 14.0
v 5.0 11.0 14.0
v 5.0 12.0 14.0
v 5.0 12.0 14.0
v 5.0 12.0 14.0
v 5.0 13.0 14.0
v 5.0 13.0 14.0
v 5.0 13.0 14.0
v 5.0 14.0 14.0
v 5.0 14.0 14.0
v 5.0 14.0 14.0
v 5.0 14.0 14.0
v 6.0 9.0 13.0
v 6.0 9.0 13.0
v 6.0 9.0 13.0
v 6.0 9.0 14.0
v 6.0 9.0 14.0
v 6.0 10.0 13.0
v 6.0 10.0 13.0
v 6.0 10.0 14.0
v 6.0 11.0 13.0
v 6.0 11.0 13.0
v 6.0 11.0 14.0
v 6.0 12.0 13.0
v 6.0 12.0 13.0
v 6.0 12.0 14.0
v 6.0 13.0 13.0
v 6.0 13.0 13.0
v 6.0 13.0 14.0
v 6.0 14.0 13.0
v 6.0 14.0 13.0
v 6.0 14.0 14.0
v 6.0 14.0 13.0
v 6.0 14.0 14.0
v 7.0 9.0 12.0
v 7.0 9.0 12.0
v 7.0 9.0 12.0
v 7.0 9.0 13.0
v 7.0 9.0 14.0
v 7.0 9.0 14.0
v 7.0 10.0 12.0
v 7.0 10.0 12.0
v 7.0 10.0 14.0
v 7.0 11.0 12.0
v 7.0 11.0 12.0
v 7.0 11.0 14.0
v 7.0 12.0 12.0
v 7.0 12.0 12.0
v 7.0 12.0 14.0
v 7.0 13.0 12.0
v 7.0 13.0 12.0
v 7.0 13.0 14.0
v 7.0 14.0 12.0
v 7.0 14.0 12.0
v 7.0 14.0 14.0
v 7.0 14.0 12.0
v 7.0 14.0 13.0
v 7.0 14.0 14.0
v 8.0 9.0 11.0
v 8.0 9.0 11.0
v 8.0 9.0 11.0
v 8.0 9.0 12.0
v 8.0 9.0 13.0
v 8.0 9.0 14.0
v 8.0 9.0 14.0
v 8.0 10.0 11.0
v 8.0 10.0 11.0
v 8.0 10.0 14.0
v 8.0 11.0 11.0
v 8.0 11.0 11.0
v 8.0 11.0 14.0
v 8.0 12.0 11.0
v 8.0 12.0 11.0
v 8.0 12.0 14.0
v 8.0 13.0 11.0
v 8.0 13.0 11.0
v 8.0 13.0 14.0
v 8.0 14.0 11.0
v 8.0 14.0 11.0
v 8.0 14.0 14.0
v 8.0 14.0 11.0
v 8.0 14.0 12.0
v 8.0 14.0 13.0
v 8.0 14.0 14.0
v 9.0 9.0 11.0
v 9.0 9.0 11.0
v 9.0 9.0 12.0
v 9.0 9.0 13.0
v 9.0 9.0 14.0
v 9.0 9.0 14.0
v 8.562318801879883 10.0 10.0
v 9.0 9.346667289733887 10.0
v 9.0 10.0 9.477730751037598
v 9.0 10.0 14.0
v 8.358274459838867 11.0 10.0
v 9.0 11.0 9.450726509094238
v 9.0 11.0 14.0
v 8.358274459838867 12.0 10.0
v 9.0 12.0 9.450726509094238
v 9.0 12.0 14.0
v 8.562318801879883 13.0 10.0
v 9.0 13.0 9.477730751037598
v 9.0 13.0 14.0
v 9.0 13.653332710266113 10.0
v 9.0 14.0 11.0
v 9.0 14.0 14.0
v 9.0 14.0 11.0
v 9.0 14.0 12.0
v 9.0 14.0 13.0
v 9.0 14.0 14.0
v 9.346667289733887 9.0 10.0
v 10.0 8.722968101501465 10.0
v 10.0 9.0 9.477730751037598
v 10.0 9.0 11.0
v 10.0 9.0 12.0
v 10.0 9.0 13.0
v 10.0 9.0 14.0
v 10.0 9.0 14.0
v 10.0 9.561655044555664 10.0
v 9.561655044555664 10.0 10.0
v 10.0 9.0 11.0
v 9.333333015441895 9.333333015441895 11.0
v 9.0 10.0 11.0
v 10.0 9.0 12.0
v 9.0 10.0 12.0
v 10.0 9.0 13.0
v 9.0 10.0 13.0
v 10.0 9.0 14.0
v 9.0 10.0 14.0
v 9.208093643188477 11.0 10.0
v 9.0 11.0 11.0
v 9.0 11.0 12.0
v 9.0 11.0 13.0
v 9.0 11.0 14.0
v 9.208093643188477 12.0 10.0
v 9.0 12.0 11.0
v 9.0 12.0 12.0
v 9.0 12.0 13.0
v 9.0 12.0 14.0
v 9.561655044555664 13.0 10.0
v 9.0 13.0 11.0
v 9.0 13.0 12.0
v 9.0 13.0 13.0
v 9.0 13.0 14.0
v 9.346667289733887 14.0 10.0
v 10.0 14.0 9.477730751037598
v 10.0 13.438344955444336 10.0
v 9.333333015441895 13.666666984558105 11.0
v 10.0 14.0 11.0
v 10.0 14.0 12.0
v 10.0 14.0 13.0
v 10.0 14.0 14.0
v 10.0 14.0 14.0
v 10.0 14.277031898498535 10.0
v 10.0 14.0 11.0
v 10.0 14.0 12.0
v 10.0 14.0 13.0
v 10.0 14.0 14.0
v 11.0 8.520264625549316 10.0
v 11.0 9.0 9.450726509094238
v 11.0 9.0 11.0
v 11.0 9.0 12.0
v 11.0 9.0 13.0
v 11.0 9.0 14.0
v 11.0 9.0 14.0
v 11.0 9.208093643188477 10.0
v 11.0 9.0 11.0
v 11.0 9.0 12.0
v 11.0 9.0 13.0
v 11.0 9.0 14.0
v 11.0 13.791906356811523 10.0
v 11.0 14.0 9.450726509094238
v 11.0 14.0 11.0
v 11.0 14.0 12.0
v 11.0 14.0 13.0
v 11.0 14.0 14.0
v 11.0 14.0 14.0
v 11.0 14.479735374450684 10.0
v 11.0 14.0 11.0
v 11.0 14.0 12.0
v 11.0 14.0 13.0
v 11.0 14.0 14.0
v 12.0 8.520264625549316 10.0
v 12.0 9.0 9.450726509094238
v 12.0 9.0 11.0
v 12.0 9.0 12.0
v 12.0 9.0 13.0
v 12.0 9.0 14.0
v 12.0 9.0 14.0
v 12.0 9.208093643188477 10.0
v 12.0 9.0 11.0
v 12.0 9.0 12.0
v 12.0 9.0 13.0
v 12.0 9.0 14.0
v 12.0 13.791906356811523 10.0
v 12.0 14.0 9.450726509094238
v 12.0 14.0 11.0
v 12.0 14.0 12.0
v 12.0 14.0 13.0
v 12.0 14.0 14.0
v 12.0 14.0 14.0
v 12.0 14.479735374450684 10.0
v 12.0 14.0 11.0
v 12.0 14.0 12.0
v 12.0 14.0 13.0
v 12.0 14.0 14.0
v 13.0 8.722968101501465 10.0
v 13.0 9.0 9.477730751037598
v 13.0 9.0 11.0
v 13.0 9.0 12.0
v 13.0 9.0 13.0
v 13.0 9.0 14.0
v 13.0 9.0 14.0
v 13.0 9.561655044555664 10.0
v 13.0 9.0 11.0
v 13.0 9.0 12.0
v 13.0 9.0 13.0
v 13.0 9.0 14.0
v 13.0 13.438344955444336 10.0
v 13.0 14.0 9.477730751037598
v 13.0 14.0 11.0
v 13.0 14.0 12.0
v 13.0 14.0 13.0
v 13.0 14.0 14.0
v 13.0 14.0 14.0
v 13.0 14.277031898498535 10.0
v 13.0 14.0 11.0
v 13.0 14.0 12.0
v 13.0 14.0 13.0
v 13.0 14.0 14.0
v 13.653332710266113 9.0 10.0
v 14.0 9.0 11.0
v 14.0 9.0 11.0
v 14.0 9.0 12.0
v 14.0 9.0 13.0
v 14.0 9.0 14.0
v 14.0 9.0 14.0
v 13.438344955444336 10.0 10.0
v 14.0 10.0 9.477730751037598
v 14.0 9.346667289733887 10.0
v 13.666666984558105 9.333333015441895 11.0
v 14.0 10.0 11.0
v 14.0 10.0 12.0
v 14.0 10.0 13.0
v 14.0 10.0 14.0
v 14.0 10.0 14.0
v 13.791906356811523 11.0 10.0
v 14.0 11.0 9.450726509094238
v 14.0 11.0 11.0
v 14.0 11.0 12.0
v 14.0 11.0 13.0
v 14.0 11.0 14.0
v 14.0 11.0 14.0
v 13.791906356811523 12.0 10.0
v 14.0 12.0 9.450726509094238
v 14.0 12.0 11.0
v 14.0 12.0 12.0
v 14.0 12.0 13.0
v 14.0 12.0 14.0
v 14.0 12.0 14.0
v 13.438344955444336 13.0 10.0
v 14.0 13.0 9.477730751037598
v 14.0 13.0 11.0
v 14.0 13.0 12.0
v 14.0 13.0 13.0
v 14.0 13.0 14.0
v 14.0 13.0 14.0
v 14.0 13.653332710266113 10.0
v 13.653332710266113 14.0 10.0
v 13.666666984558105 13.666666984558105 11.0
v 14.0 14.0 11.0
v 14.0 14.0 14.0
v 14.0 14.0 11.0
v 14.0 14.0 12.0
v 14.0 14.0 13.0
v 14.0 14.0 14.0
v 15.0 9.0 11.0
v 15.0 9.0 11.0
v 15.0 9.0 12.0
v 15.0 9.0 13.0
v 15.0 9.0 14.0
v 15.0 9.0 14.0
v 14.437681198120117 10.0 10.0
v 15.0 10.0 11.0
v 15.0 10.0 14.0
v 14.641725540161133 11.0 10.0
v 15.0 11.0 11.0
v 15.0 11.0 14.0
v 14.641725540161133 12.0 10.0
v 15.0 12.0 11.0
v 15.0 12.0 14.0
v 14.437681198120117 13.0 10.0
v 15.0 13.0 11.0
v 15.0 13.0 14.0
v 15.0 14.0 11.0
v 15.0 14.0 14.0
v 15.0 14.0 11.0
v 15.0 14.0 12.0
v 15.0 14.0 13.0
v 15.0 14.0 14.0
v 15.0 9.0 11.0
v 16.0 9.0 12.0
v 16.0 9.0 12.0
v 16.0 9.0 13.0
v 16.0 9.0 14.0
v 16.0 9.0 14.0
v 15.0 10.0 11.0
v 16.0 10.0 12.0
v 16.0 10.0 14.0
v 15.0 11.0 11.0
v 16.0 11.0 12.0
v 16.0 11.0 14.0
v 15.0 12.0 11.0
v 16.0 12.0 12.0
v 16.0 12.0 14.0
v 15.0 13.0 11.0
v 16.0 13.0 12.0
v 16.0 13.0 14.0
v 15.0 14.0 11.0
v 16.0 14.0 12.0
v 16.0 14.0 14.0
v 16.0 14.0 12.0
v 16.0 14.0 13.0
v 16.0 14.0 14.0
v 16.0 9.0 12.0
v 17.0 9.0 13.0
v 17.0 9.0 13.0
v 17.0 9.0 14.0
v 17.0 9.0 14.0
v 16.0 10.0 12.0
v 17.0 10.0 13.0
v 17.0 10.0 14.0
v 16.0 11.0 12.0
v 17.0 11.0 13.0
v 17.0 11.0 14.0
v 16.0 12.0 12.0
v 17.0 12.0 13.0
v 17.0 12.0 14.0
v 16.0 13.0 12.0
v 17.0 13.0 13.0
v 17.0 13.0 14.0
v 16.0 14.0 12.0
v 17.0 14.0 13.0
v 17.0 14.0 14.0
v 17.0 14.0 13.0
v 17.0 14.0 14.0
v 17.0 9.0 13.0
v 18.0 9.0 14.0
v 18.0 9.0 14.0
v 18.0 9.0 14.0
v 17.0 10.0 13.0
v 18.0 10.0 14.0
v 18.0 10.0 14.0
v 17.0 11.0 13.0
v 18.0 11.0 14.0
v 18.0 11.0 14.0
v 17.0 12.0 13.0
v 18.0 12.0 14.0
v 18.0 12.0 14.0
v 17.0 13.0 13.0
v 18.0 13.0 14.0
v 18.0 13.0 14.0
v 17.0 14.0 13.0
v 18.0 14.0 14.0
v 18.0 14.0 14.0
v 18.0 14.0 14.0
v 18.0 9.0 14.0
v 18.0 10.0 14.0
v 18.0 11.0 14.0
v 18.0 12.0 14.0
v 18.0 13.0 14.0
v 18.0 14.0 14.0
f 3 2 1
f 4 1 2
f 3 1 5
f 3 5 6
f 1 4 7
f 1 7 5
f 6 5 8
f 6 8 9
f 5 7 10
f 5 10 8
f 9 8 11
f 9 11 12
f 8 10 13
f 8 13 11
f 12 11 14
f 12 14 15
f 11 13 16
f 11 16 14
f 15 14 17
f 15 17 18
f 14 16 19
f 14 19 17
f 20 18 17
f 20 17 19
f 23 22 21
f 2 3 21
f 22 2 21
f 24 2 22
f 4 2 24
f 4 24 25
f 23 21 26
f 23 26 27
f 6 26 3
f 3 26 21
f 25 7 4
f 28 7 25
f 27 26 29
f 27 29 30
f 9 29 6
f 6 29 26
f 28 10 7
f 31 10 28
f 30 29 32
f 30 32 33
f 12 32 9
f 9 32 29
f 31 13 10
f 34 13 31
f 33 32 35
f 33 35 36
f 15 35 12
f 12 35 32
f 34 16 13
f 37 16 34
f 36 35 38
f 36 38 39
f 18 38 15
f 15 38 35
f 37 19 16
f 40 19 37
f 41 39 38
f 41 38 18
f 20 41 18
f 42 41 20
f 20 19 40
f 20 40 42
f 45 44 43
f 22 23 43
f 44 22 43
f 46 22 44
f 22 47 24
f 46 47 22
f 25 24 47
f 25 47 48
f 45 43 49
f 45 49 50
f 27 49 23
f 23 49 43
f 48 28 25
f 51 28 48
f 50 49 52
f 50 52 53
f 30 52 27
f 27 52 49
f 51 31 28
f 54 31 51
f 53 52 55
f 53 55 56
f 33 55 30
f 30 55 52
f 54 34 31
f 57 34 54
f 56 55 58
f 56 58 59
f 36 58 33
f 33 58 55
f 57 37 34
f 60 37 57
f 59 58 61
f 59 61 62
f 39 61 36
f 36 61 58
f 60 40 37
f 63 40 60
f 64 62 61
f 64 61 39
f 41 64 39
f 65 64 41
f 66 41 42
f 66 65 41
f 42 40 63
f 42 63 66
f 69 68 67
f 44 45 67
f 68 44 67
f 70 44 68
f 44 71 46
f 70 71 44
f 46 72 47
f 71 72 46
f 48 47 72
f 48 72 73
f 69 67 74
f 69 74 75
f 50 74 45
f 45 74 67
f 73 51 48
f 76 51 73
f 75 74 77
f 75 77 78
f 53 77 50
f 50 77 74
f 76 54 51
f 79 54 76
f 78 77 80
f 78 80 81
f 56 80 53
f 53 80 77
f 79 57 54
f 82 57 79
f 81 80 83
f 81 83 84
f 59 83 56
f 56 83 80
f 82 60 57
f 85 60 82
f 84 83 86
f 84 86 87
f 62 86 59
f 59 86 83
f 85 63 60
f 88 63 85
f 89 87 86
f 89 86 62
f 64 89 62
f 90 89 64
f 91 64 65
f 91 90 64
f 92 65 66
f 92 91 65
f 66 63 88
f 66 88 92
f 94 93 68
f 94 68 69
f 68 95 70
f 93 95 68
f 70 96 71
f 95 96 70
f 71 97 72
f 96 97 71
f 73 72 97
f 73 97 98
f 101 100 99
f 100 94 99
f 94 75 99
f 94 69 75
f 98 76 73
f 102 76 98
f 101 99 103
f 101 103 104
f 78 103 75
f 75 103 99
f 102 79 76
f 105 79 102
f 104 103 106
f 104 106 107
f 81 106 78
f 78 106 103
f 105 82 79
f 108 82 105
f 107 106 109
f 107 109 110
f 84 109 81
f 81 109 106
f 108 85 82
f 111 85 108
f 112 110 109
f 109 84 112
f 84 113 112
f 84 87 113
f 111 88 85
f 114 88 111
f 115 113 87
f 115 87 89
f 116 89 90
f 116 115 89
f 117 90 91
f 117 116 90
f 118 91 92
f 118 117 91
f 92 88 114
f 92 114 118
f 121 120 119
f 93 94 119
f 120 93 119
f 122 93 120
f 93 123 95
f 122 123 93
f 95 124 96
f 123 124 95
f 96 125 97
f 124 125 96
f 98 97 125
f 98 125 126
f 121 128 127
f 121 101 128
f 121 119 100
f 101 121 100
f 127 130 129
f 130 119 129
f 94 129 119
f 129 94 131
f 100 131 94
f 131 100 130
f 130 128 131
f 127 128 130
f 130 100 119
f 133 132 131
f 131 132 129
f 135 134 133
f 133 134 132
f 137 136 135
f 135 136 134
f 126 136 137
f 102 126 137
f 98 126 102
f 104 138 128
f 104 128 101
f 128 139 131
f 128 138 139
f 131 140 133
f 131 139 140
f 133 141 135
f 133 140 141
f 135 142 137
f 135 141 142
f 142 105 102
f 142 102 137
f 107 143 138
f 107 138 104
f 138 144 139
f 138 143 144
f 139 145 140
f 139 144 145
f 140 146 141
f 140 145 146
f 141 147 142
f 141 146 147
f 147 108 105
f 147 105 142
f 110 148 143
f 110 143 107
f 143 149 144
f 143 148 149
f 144 150 145
f 144 149 150
f 145 151 146
f 145 150 151
f 146 152 147
f 146 151 152
f 152 111 108
f 152 108 147
f 154 112 153
f 154 110 112
f 148 110 154
f 148 154 155
f 157 156 155
f 157 153 156
f 153 157 113
f 149 113 157
f 113 149 112
f 156 112 149
f 149 148 156
f 156 148 155
f 153 112 156
f 149 157 150
f 150 157 158
f 150 158 151
f 151 158 159
f 151 159 152
f 152 159 160
f 111 152 160
f 161 111 160
f 114 111 161
f 162 154 153
f 162 153 113
f 115 162 113
f 163 162 115
f 164 115 116
f 164 163 115
f 165 116 117
f 165 164 116
f 166 117 118
f 166 165 117
f 118 114 161
f 118 161 166
f 168 167 120
f 168 120 121
f 120 169 122
f 167 169 120
f 122 170 123
f 169 170 122
f 123 171 124
f 170 171 123
f 124 172 125
f 171 172 124
f 126 125 172
f 126 172 173
f 174 168 121
f 174 121 127
f 175 127 129
f 175 174 127
f 176 129 132
f 176 175 129
f 177 132 134
f 177 176 132
f 178 134 136
f 178 177 134
f 136 126 173
f 136 173 178
f 180 179 155
f 180 155 154
f 155 181 157
f 179 181 155
f 157 182 158
f 181 182 157
f 158 183 159
f 182 183 158
f 159 184 160
f 183 184 159
f 161 160 184
f 161 184 185
f 186 180 154
f 186 154 162
f 187 162 163
f 187 186 162
f 188 163 164
f 188 187 163
f 189 164 165
f 189 188 164
f 190 165 166
f 190 189 165
f 166 161 185
f 166 185 190
f 192 191 167
f 192 167 168
f 167 193 169
f 191 193 167
f 169 194 170
f 193 194 169
f 170 195 171
f 194 195 170
f 171 196 172
f 195 196 171
f 173 172 196
f 173 196 197
f 198 192 168
f 198 168 174
f 199 174 175
f 199 198 174
f 200 175 176
f 200 199 175
f 201 176 177
f 201 200 176
f 202 177 178
f 202 201 177
f 178 173 197
f 178 197 202
f 204 203 179
f 204 179 180
f 179 205 181
f 203 205 179
f 181 206 182
f 205 206 181
f 182 207 183
f 206 207 182
f 183 208 184
f 207 208 183
f 185 184 208
f 185 208 209
f 210 204 180
f 210 180 186
f 211 186 187
f 211 210 186
f 212 187 188
f 212 211 187
f 213 188 189
f 213 212 188
f 214 189 190
f 214 213 189
f 190 185 209
f 190 209 214
f 216 215 191
f 216 191 192
f 191 217 193
f 215 217 191
f 193 218 194
f 217 218 193
f 194 219 195
f 218 219 194
f 195 220 196
f 219 220 195
f 197 196 220
f 197 220 221
f 222 216 192
f 222 192 198
f 223 198 199
f 223 222 198
f 224 199 200
f 224 223 199
f 225 200 201
f 225 224 200
f 226 201 202
f 226 225 201
f 202 197 221
f 202 221 226
f 228 227 203
f 228 203 204
f 203 229 205
f 227 229 203
f 205 230 206
f 229 230 205
f 206 231 207
f 230 231 206
f 207 232 208
f 231 232 207
f 209 208 232
f 209 232 233
f 234 228 204
f 234 204 210
f 235 210 211
f 235 234 210
f 236 211 212
f 236 235 211
f 237 212 213
f 237 236 212
f 238 213 214
f 238 237 213
f 214 209 233
f 214 233 238
f 216 239 215
f 215 239 240
f 241 215 240
f 217 215 241
f 217 242 218
f 241 242 217
f 218 243 219
f 242 243 218
f 219 244 220
f 243 244 219
f 221 220 244
f 221 244 245
f 247 222 246
f 247 216 222
f 239 216 247
f 239 247 248
f 223 249 222
f 223 239 249
f 239 223 240
f 250 240 223
f 240 250 248
f 249 248 250
f 250 246 249
f 249 246 222
f 239 248 249
f 224 251 223
f 223 251 250
f 225 252 224
f 224 252 251
f 226 253 225
f 225 253 252
f 254 253 226
f 221 254 226
f 245 254 221
f 247 246 255
f 247 255 256
f 257 246 250
f 255 246 257
f 258 250 251
f 257 250 258
f 259 251 252
f 258 251 259
f 260 252 253
f 259 252 260
f 253 254 261
f 253 261 260
f 256 255 262
f 256 262 263
f 264 255 257
f 262 255 264
f 265 257 258
f 264 257 265
f 266 258 259
f 265 258 266
f 267 259 260
f 266 259 267
f 260 261 268
f 260 268 267
f 263 262 269
f 263 269 270
f 271 262 264
f 269 262 271
f 272 264 265
f 271 264 272
f 273 265 266
f 272 265 273
f 274 266 267
f 273 266 274
f 267 268 275
f 267 275 274
f 270 277 276
f 270 228 277
f 270 269 227
f 228 270 227
f 227 278 229
f 278 277 229
f 279 229 277
f 229 279 271
f 276 271 279
f 271 276 278
f 278 269 271
f 227 269 278
f 278 276 277
f 229 271 230
f 230 271 272
f 230 272 231
f 231 272 273
f 231 273 232
f 232 273 274
f 233 232 274
f 275 233 274
f 280 233 275
f 234 277 228
f 281 279 277
f 234 281 277
f 235 281 234
f 282 235 236
f 282 281 235
f 283 236 237
f 283 282 236
f 284 237 238
f 284 283 237
f 238 233 280
f 238 280 284
f 286 285 241
f 286 241 240
f 241 287 242
f 285 287 241
f 242 288 243
f 287 288 242
f 243 289 244
f 288 289 243
f 245 244 289
f 245 289 290
f 247 291 248
f 291 292 248
f 292 240 248
f 292 286 240
f 290 254 245
f 293 254 290
f 256 294 291
f 256 291 247
f 292 291 295
f 295 291 294
f 293 261 254
f 296 261 293
f 263 297 294
f 263 294 256
f 295 294 298
f 298 294 297
f 296 268 261
f 299 268 296
f 270 300 297
f 270 297 263
f 298 297 301
f 301 297 300
f 299 275 268
f 302 275 299
f 276 300 270
f 276 279 300
f 279 301 300
f 279 303 301
f 302 280 275
f 304 280 302
f 305 303 279
f 305 279 281
f 306 281 282
f 306 305 281
f 307 282 283
f 307 306 282
f 308 283 284
f 308 307 283
f 284 280 304
f 284 304 308
f 286 309 285
f 285 309 310
f 311 285 310
f 287 285 311
f 287 312 288
f 311 312 287
f 288 313 289
f 312 313 288
f 290 289 313
f 290 313 314
f 292 315 309
f 292 309 286
f 310 309 316
f 316 309 315
f 314 293 290
f 317 293 314
f 295 318 315
f 295 315 292
f 316 315 319
f 319 315 318
f 317 296 293
f 320 296 317
f 298 321 318
f 298 318 295
f 319 318 322
f 322 318 321
f 320 299 296
f 323 299 320
f 301 324 321
f 301 321 298
f 322 321 325
f 325 321 324
f 323 302 299
f 326 302 323
f 303 327 324
f 303 324 301
f 325 324 328
f 328 324 327
f 326 304 302
f 329 304 326
f 305 327 303
f 330 328 327
f 305 330 327
f 306 330 305
f 331 306 307
f 331 330 306
f 332 307 308
f 332 331 307
f 308 304 329
f 308 329 332
f 310 333 311
f 311 333 334
f 335 311 334
f 312 311 335
f 312 336 313
f 335 336 312
f 314 313 336
f 314 336 337
f 316 338 333
f 316 333 310
f 334 333 339
f 339 333 338
f 337 317 314
f 340 317 337
f 319 341 338
f 319 338 316
f 339 338 342
f 342 338 341
f 340 320 317
f 343 320 340
f 322 344 341
f 322 341 319
f 342 341 345
f 345 341 344
f 343 323 320
f 346 323 343
f 325 347 344
f 325 344 322
f 345 344 348
f 348 344 347
f 346 326 323
f 349 326 346
f 328 350 347
f 328 347 325
f 348 347 351
f 351 347 350
f 349 329 326
f 352 329 349
f 330 350 328
f 353 351 350
f 330 353 350
f 331 353 330
f 354 331 332
f 354 353 331
f 332 329 352
f 332 352 354
f 334 355 335
f 335 355 356
f 357 335 356
f 336 335 357
f 337 336 357
f 337 357 358
f 339 359 355
f 339 355 334
f 356 355 360
f 360 355 359
f 358 340 337
f 361 340 358
f 342 362 359
f 342 359 339
f 360 359 363
f 363 359 362
f 361 343 340
f 364 343 361
f 345 365 362
f 345 362 342
f 363 362 366
f 366 362 365
f 364 346 343
f 367 346 364
f 348 368 365
f 348 365 345
f 366 365 369
f 369 365 368
f 367 349 346
f 370 349 367
f 351 371 368
f 351 368 348
f 369 368 372
f 372 368 371
f 370 352 349
f 373 352 370
f 353 371 351
f 374 372 371
f 353 374 371
f 354 374 353
f 354 352 373
f 354 373 374
f 356 375 357
f 375 358 357
f 360 376 375
f 360 375 356
f 376 361 358
f 376 358 375
f 363 377 376
f 363 376 360
f 377 364 361
f 377 361 376
f 366 378 377
f 366 377 363
f 378 367 364
f 378 364 377
f 369 379 378
f 369 378 366
f 379 370 367
f 379 367 378
f 372 380 379
f 372 379 369
f 380 373 370
f 380 370 379
f 374 380 372
f 380 374 373
