v 7.0 10.0 14.0
v 7.0 10.0 14.0
v 7.0 10.0 14.0
v 7.0 10.0 14.0
v 7.0 11.0 14.0
v 7.0 11.0 14.0
v 7.0 11.0 14.0
v 7.0 12.0 14.0
v 7.0 12.0 14.0
v 7.0 12.0 14.0
v 7.0 13.0 14.0
v 7.0 13.0 14.0
v 7.0 13.0 14.0
v 7.0 14.0 14.0
v 7.0 14.0 14.0
v 7.0 14.0 14.0
v 7.0 15.0 14.0
v 7.0 15.0 14.0
v 7.0 15.0 14.0
v 7.0 15.0 14.0
v 8.0 9.0 14.0
v 8.0 9.0 14.0
v 8.0 9.0 14.0
v 8.0 9.0 14.0
v 8.0 10.0 13.0
v 8.0 10.0 13.0
v 8.0 10.0 13.0
v 8.0 10.0 14.0
v 8.0 11.0 13.0
v 8.0 11.0 13.0
v 8.0 11.0 14.0
v 8.0 12.0 13.0
v 8.0 12.0 13.0
v 8.0 12.0 14.0
v 8.0 13.0 13.0
v 8.0 13.0 13.0
v 8.0 13.0 14.0
v 8.0 14.0 13.0
v 8.0 14.0 13.0
v 8.0 14.0 14.0
v 8.0 15.0 13.0
v 8.0 15.0 13.0
v 8.0 15.0 14.0
v 8.0 15.0 13.0
v 8.0 16.0 14.0
v 8.0 16.0 14.0
v 8.0 16.0 14.0
v 8.0 16.0 14.0
v 9.0 9.0 13.0
v 9.0 9.0 13.0
v 9.0 9.0 13.0
v 9.0 9.0 14.0
v 9.0 9.0 14.0
v 9.0 10.0 12.0
v 9.0 10.0 12.0
v 9.0 10.0 12.0
v 9.0 10.0 14.0
v 9.0 11.0 12.0
v 9.0 11.0 12.0
v 9.0 11.0 14.0
v 9.0 12.0 12.0
v 9.0 12.0 12.0
v 9.0 12.0 14.0
v 9.0 13.0 12.0
v 9.0 13.0 12.0
v 9.0 13.0 14.0
v 9.0 14.0 12.0
v 9.0 14.0 12.0
v 9.0 14.0 14.0
v 9.0 15.0 12.0
v 9.0 15.0 12.0
v 9.0 15.0 14.0
v 9.0 15.0 12.0
v 9.0 16.0 13.0
v 9.0 16.0 13.0
v 9.0 16.0 14.0
v 9.0 16.0 13.0
v 9.0 16.0 14.0
v 10.0 8.0 14.0
v 10.0 8.0 14.0
v 10.0 8.0 14.0
v 10.0 8.0 14.0
v 10.0 9.0 13.0
v 10.0 9.0 13.0
v 10.0 9.0 14.0
v 10.0 10.0 12.0
v 10.0 10.0 12.0
v 10.0 10.0 14.0
v 10.0 11.0 11.0
v 10.0 11.0 11.0
v 10.0 11.0 11.0
v 10.0 11.0 14.0
v 10.0 12.0 11.0
v 10.0 12.0 11.0
v 10.0 12.0 14.0
v 10.0 13.0 11.0
v 10.0 13.0 11.0
v 10.0 13.0 14.0
v 10.0 14.0 11.0
v 10.0 14.0 11.0
v 10.0 14.0 14.0
v 10.0 14.0 11.0
v 10.0 15.0 12.0
v 10.0 15.0 14.0
v 10.0 15.0 12.0
v 10.0 16.0 13.0
v 10.0 16.0 14.0
v 10.0 16.0 13.0
v 10.0 17.0 14.0
v 10.0 17.0 14.0
v 10.0 17.0 14.0
v 10.0 17.0 14.0
v 11.0 8.0 14.0
v 11.0 8.0 14.0
v 11.0 8.0 14.0
v 11.0 9.0 12.0
v 11.0 9.0 12.0
v 11.0 9.0 12.0
v 11.0 9.0 13.0
v 11.0 9.0 14.0
v 11.0 10.0 11.0
v 11.0 10.0 11.0
v 11.0 10.0 11.0
v 11.0 10.0 14.0
v 10.0 11.0 11.0
v 11.0 10.0 11.0
v 11.0 10.0 12.0
v 10.0 11.0 12.0
v 11.0 10.0 13.0
v 10.0 11.0 13.0
v 11.0 10.0 14.0
v 10.0 11.0 14.0
v 10.0 12.0 11.0
v 10.0 12.0 12.0
v 10.0 12.0 13.0
v 10.0 12.0 14.0
v 10.0 13.0 11.0
v 10.0 13.0 12.0
v 10.0 13.0 13.0
v 10.0 13.0 14.0
v 10.0 14.0 11.0
v 10.0 14.0 12.0
v 10.0 14.0 13.0
v 10.0 14.0 14.0
v 11.0 15.0 11.0
v 11.0 15.0 11.0
v 11.0 15.0 11.0
v 11.0 15.0 12.0
v 11.0 15.0 13.0
v 11.0 15.0 14.0
v 11.0 15.0 14.0
v 11.0 15.0 11.0
v 11.0 16.0 12.0
v 11.0 16.0 12.0
v 11.0 16.0 14.0
v 11.0 16.0 12.0
v 11.0 16.0 13.0
v 11.0 17.0 14.0
v 11.0 17.0 14.0
v 11.0 17.0 14.0
v 12.0 8.0 14.0
v 12.0 8.0 14.0
v 12.0 8.0 14.0
v 12.0 9.0 12.0
v 12.0 9.0 12.0
v 12.0 9.0 13.0
v 12.0 9.0 14.0
v 12.0 10.0 11.0
v 12.0 10.0 11.0
v 12.0 10.0 14.0
v 12.0 10.0 11.0
v 12.0 10.0 12.0
v 12.0 10.0 13.0
v 12.0 10.0 14.0
v 12.0 15.0 11.0
v 12.0 15.0 11.0
v 12.0 15.0 12.0
v 12.0 15.0 13.0
v 12.0 15.0 14.0
v 12.0 15.0 14.0
v 12.0 15.0 11.0
v 12.0 16.0 12.0
v 12.0 16.0 14.0
v 12.0 16.0 12.0
v 12.0 16.0 13.0
v 12.0 17.0 14.0
v 12.0 17.0 14.0
v 12.0 17.0 14.0
v 13.0 8.0 14.0
v 13.0 8.0 14.0
v 13.0 8.0 14.0
v 13.0 9.0 12.0
v 13.0 9.0 12.0
v 13.0 9.0 13.0
v 13.0 9.0 14.0
v 13.0 10.0 11.0
v 13.0 10.0 11.0
v 13.0 10.0 14.0
v 13.0 10.0 11.0
v 13.0 10.0 12.0
v 13.0 10.0 13.0
v 13.0 10.0 14.0
v 13.0 15.0 11.0
v 13.0 15.0 11.0
v 13.0 15.0 12.0
v 13.0 15.0 13.0
v 13.0 15.0 14.0
v 13.0 15.0 14.0
v 13.0 15.0 11.0
v 13.0 16.0 12.0
v 13.0 16.0 14.0
v 13.0 16.0 12.0
v 13.0 16.0 13.0
v 13.0 17.0 14.0
v 13.0 17.0 14.0
v 13.0 17.0 14.0
v 14.0 8.0 14.0
v 14.0 8.0 14.0
v 14.0 8.0 14.0
v 14.0 9.0 12.0
v 14.0 9.0 12.0
v 14.0 9.0 13.0
v 14.0 9.0 14.0
v 14.0 10.0 11.0
v 14.0 10.0 11.0
v 14.0 10.0 14.0
v 14.0 10.0 11.0
v 14.0 10.0 12.0
v 14.0 10.0 13.0
v 14.0 10.0 14.0
v 14.0 15.0 11.0
v 14.0 15.0 11.0
v 14.0 15.0 12.0
v 14.0 15.0 13.0
v 14.0 15.0 14.0
v 14.0 15.0 14.0
v 14.0 15.0 11.0
v 14.0 16.0 12.0
v 14.0 16.0 14.0
v 14.0 16.0 12.0
v 14.0 16.0 13.0
v 14.0 17.0 14.0
v 14.0 17.0 14.0
v 14.0 17.0 14.0
v 15.0 8.0 14.0
v 15.0 8.0 14.0
v 15.0 8.0 14.0
v 14.0 9.0 12.0
v 15.0 9.0 13.0
v 15.0 9.0 13.0
v 15.0 9.0 14.0
v 14.0 10.0 11.0
v 15.0 10.0 12.0
v 15.0 10.0 12.0
v 15.0 10.0 14.0
v 15.0 11.0 11.0
v 15.0 11.0 11.0
v 15.0 11.0 11.0
v 15.0 11.0 12.0
v 15.0 11.0 13.0
v 15.0 11.0 14.0
v 15.0 11.0 14.0
v 15.0 12.0 11.0
v 15.0 12.0 11.0
v 15.0 12.0 12.0
v 15.0 12.0 13.0
v 15.0 12.0 14.0
v 15.0 12.0 14.0
v 15.0 13.0 11.0
v 15.0 13.0 11.0
v 15.0 13.0 12.0
v 15.0 13.0 13.0
v 15.0 13.0 14.0
v 15.0 13.0 14.0
v 15.0 14.0 11.0
v 15.0 14.0 11.0
v 15.0 14.0 12.0
v 15.0 14.0 13.0
v 15.0 14.0 14.0
v 15.0 14.0 14.0
v 14.0 15.0 11.0
v 15.0 14.0 11.0
v 15.0 15.0 12.0
v 15.0 15.0 14.0
v 15.0 15.0 12.0
v 14.0 16.0 12.0
v 15.0 16.0 13.0
v 15.0 16.0 14.0
v 15.0 16.0 13.0
v 15.0 17.0 14.0
v 15.0 17.0 14.0
v 15.0 17.0 14.0
v 15.0 8.0 14.0
v 16.0 9.0 13.0
v 16.0 9.0 13.0
v 16.0 9.0 14.0
v 16.0 9.0 14.0
v 16.0 10.0 12.0
v 16.0 10.0 12.0
v 16.0 10.0 14.0
v 15.0 11.0 11.0
v 16.0 11.0 12.0
v 16.0 11.0 14.0
v 15.0 12.0 11.0
v 16.0 12.0 12.0
v 16.0 12.0 14.0
v 15.0 13.0 11.0
v 16.0 13.0 12.0
v 16.0 13.0 14.0
v 15.0 14.0 11.0
v 16.0 14.0 12.0
v 16.0 14.0 14.0
v 16.0 15.0 12.0
v 16.0 15.0 14.0
v 16.0 15.0 12.0
v 16.0 16.0 13.0
v 16.0 16.0 14.0
v 16.0 16.0 13.0
v 16.0 16.0 14.0
v 15.0 17.0 14.0
v 16.0 9.0 13.0
v 17.0 9.0 14.0
v 17.0 9.0 14.0
v 17.0 9.0 14.0
v 16.0 10.0 12.0
v 17.0 10.0 13.0
v 17.0 10.0 13.0
v 17.0 10.0 14.0
v 16.0 11.0 12.0
v 17.0 11.0 13.0
v 17.0 11.0 14.0
v 16.0 12.0 12.0
v 17.0 12.0 13.0
v 17.0 12.0 14.0
v 16.0 13.0 12.0
v 17.0 13.0 13.0
v 17.0 13.0 14.0
v 16.0 14.0 12.0
v 17.0 14.0 13.0
v 17.0 14.0 14.0
v 16.0 15.0 12.0
v 17.0 15.0 13.0
v 17.0 15.0 14.0
v 17.0 15.0 13.0
v 16.0 16.0 13.0
v 17.0 16.0 14.0
v 17.0 16.0 14.0
v 17.0 16.0 14.0
v 17.0 9.0 14.0
v 17.0 10.0 13.0
v 18.0 10.0 14.0
v 18.0 10.0 14.0
v 18.0 10.0 14.0
v 17.0 11.0 13.0
v 18.0 11.0 14.0
v 18.0 11.0 14.0
v 17.0 12.0 13.0
v 18.0 12.0 14.0
v 18.0 12.0 14.0
v 17.0 13.0 13.0
v 18.0 13.0 14.0
v 18.0 13.0 14.0
v 17.0 14.0 13.0
v 18.0 14.0 14.0
v 18.0 14.0 14.0
v 17.0 15.0 13.0
v 18.0 15.0 14.0
v 18.0 15.0 14.0
v 18.0 15.0 14.0
v 17.0 16.0 14.0
v 18.0 10.0 14.0
v 18.0 11.0 14.0
v 18.0 12.0 14.0
v 18.0 13.0 14.0
v 18.0 14.0 14.0
v 18.0 15.0 14.0
f 3 2 1
f 4 1 2
f 3 1 5
f 3 5 6
f 1 4 7
f 1 7 5
f 6 5 8
f 6 8 9
f 5 7 10
f 5 10 8
f 9 8 11
f 9 11 12
f 8 10 13
f 8 13 11
f 12 11 14
f 12 14 15
f 11 13 16
f 11 16 14
f 15 14 17
f 15 17 18
f 14 16 19
f 14 19 17
f 20 18 17
f 20 17 19
f 23 22 21
f 24 21 22
f 27 26 25
f 25 26 23
f 25 23 21
f 3 25 21
f 2 3 21
f 4 2 21
f 24 4 21
f 28 4 24
f 27 25 29
f 27 29 30
f 6 29 3
f 3 29 25
f 28 7 4
f 31 7 28
f 30 29 32
f 30 32 33
f 9 32 6
f 6 32 29
f 31 10 7
f 34 10 31
f 33 32 35
f 33 35 36
f 12 35 9
f 9 35 32
f 34 13 10
f 37 13 34
f 36 35 38
f 36 38 39
f 15 38 12
f 12 38 35
f 37 16 13
f 40 16 37
f 39 38 41
f 39 41 42
f 18 41 15
f 15 41 38
f 40 19 16
f 43 19 40
f 44 42 41
f 46 44 45
f 45 44 20
f 44 41 20
f 41 18 20
f 47 45 20
f 19 47 20
f 43 47 19
f 48 46 45
f 48 45 47
f 51 50 49
f 22 23 49
f 50 22 49
f 52 22 50
f 24 22 52
f 24 52 53
f 56 55 54
f 54 55 51
f 54 51 49
f 27 54 49
f 26 27 49
f 26 49 23
f 53 28 24
f 57 28 53
f 56 54 58
f 56 58 59
f 30 58 27
f 27 58 54
f 57 31 28
f 60 31 57
f 59 58 61
f 59 61 62
f 33 61 30
f 30 61 58
f 60 34 31
f 63 34 60
f 62 61 64
f 62 64 65
f 36 64 33
f 33 64 61
f 63 37 34
f 66 37 63
f 65 64 67
f 65 67 68
f 39 67 36
f 36 67 64
f 66 40 37
f 69 40 66
f 68 67 70
f 68 70 71
f 42 70 39
f 39 70 67
f 69 43 40
f 72 43 69
f 73 71 70
f 75 73 74
f 74 73 44
f 73 70 44
f 70 42 44
f 46 74 44
f 72 47 43
f 76 47 72
f 77 75 74
f 77 74 46
f 48 77 46
f 78 77 48
f 48 47 76
f 48 76 78
f 81 80 79
f 82 79 80
f 84 83 50
f 84 50 51
f 79 52 81
f 52 83 81
f 52 50 83
f 53 52 79
f 82 53 79
f 85 53 82
f 87 86 55
f 87 55 56
f 51 55 84
f 84 55 86
f 85 57 53
f 88 57 85
f 91 90 89
f 90 87 89
f 87 59 89
f 87 56 59
f 88 60 57
f 92 60 88
f 91 89 93
f 91 93 94
f 62 93 59
f 59 93 89
f 92 63 60
f 95 63 92
f 94 93 96
f 94 96 97
f 65 96 62
f 62 96 93
f 95 66 63
f 98 66 95
f 97 96 99
f 97 99 100
f 68 99 65
f 65 99 96
f 98 69 66
f 101 69 98
f 102 100 99
f 99 68 102
f 68 103 102
f 68 71 103
f 101 72 69
f 104 72 101
f 105 103 71
f 105 71 73
f 73 75 105
f 105 75 106
f 104 76 72
f 107 76 104
f 108 106 75
f 108 75 77
f 110 108 109
f 108 78 109
f 108 77 78
f 111 109 78
f 76 111 78
f 107 111 76
f 112 110 109
f 112 109 111
f 114 113 80
f 114 80 81
f 82 80 113
f 82 113 115
f 118 117 116
f 83 84 116
f 117 83 116
f 119 83 117
f 81 83 114
f 114 83 119
f 115 85 82
f 120 85 115
f 123 122 121
f 121 122 118
f 121 118 116
f 87 121 116
f 86 87 116
f 86 116 84
f 120 88 85
f 124 88 120
f 90 91 125
f 121 126 123
f 126 121 127
f 87 127 121
f 127 87 128
f 90 128 87
f 128 90 125
f 130 129 128
f 128 129 127
f 132 131 130
f 130 131 129
f 124 131 132
f 92 124 132
f 88 124 92
f 94 133 125
f 94 125 91
f 125 134 128
f 125 133 134
f 128 135 130
f 128 134 135
f 130 136 132
f 130 135 136
f 136 95 92
f 136 92 132
f 97 137 133
f 97 133 94
f 133 138 134
f 133 137 138
f 134 139 135
f 134 138 139
f 135 140 136
f 135 139 140
f 140 98 95
f 140 95 136
f 100 141 137
f 100 137 97
f 137 142 138
f 137 141 142
f 138 143 139
f 138 142 143
f 139 144 140
f 139 143 144
f 144 101 98
f 144 98 140
f 146 102 145
f 146 100 102
f 141 100 146
f 141 146 147
f 148 145 147
f 145 148 103
f 142 103 148
f 103 142 102
f 141 102 142
f 142 148 143
f 143 148 149
f 143 149 144
f 144 149 150
f 101 144 150
f 151 101 150
f 104 101 151
f 152 146 145
f 154 152 153
f 153 152 105
f 152 145 105
f 145 103 105
f 106 153 105
f 151 107 104
f 155 107 151
f 156 154 153
f 156 153 106
f 108 156 106
f 157 156 108
f 108 110 157
f 157 110 158
f 155 111 107
f 159 111 155
f 160 158 110
f 160 110 112
f 112 111 159
f 112 159 160
f 162 161 113
f 162 113 114
f 115 113 161
f 115 161 163
f 165 164 117
f 165 117 118
f 117 166 119
f 164 166 117
f 114 119 162
f 162 119 166
f 163 120 115
f 167 120 163
f 169 168 122
f 169 122 123
f 118 122 165
f 165 122 168
f 167 124 120
f 170 124 167
f 171 169 123
f 171 123 126
f 172 126 127
f 172 171 126
f 173 127 129
f 173 172 127
f 174 129 131
f 174 173 129
f 131 124 170
f 131 170 174
f 176 175 147
f 176 147 146
f 147 177 148
f 175 177 147
f 148 178 149
f 177 178 148
f 149 179 150
f 178 179 149
f 151 150 179
f 151 179 180
f 181 176 146
f 181 146 152
f 152 154 181
f 181 154 182
f 180 155 151
f 183 155 180
f 184 182 154
f 184 154 156
f 185 156 157
f 185 184 156
f 157 158 185
f 185 158 186
f 183 159 155
f 187 159 183
f 188 186 158
f 188 158 160
f 160 159 187
f 160 187 188
f 190 189 161
f 190 161 162
f 163 161 189
f 163 189 191
f 193 192 164
f 193 164 165
f 164 194 166
f 192 194 164
f 162 166 190
f 190 166 194
f 191 167 163
f 195 167 191
f 197 196 168
f 197 168 169
f 165 168 193
f 193 168 196
f 195 170 167
f 198 170 195
f 199 197 169
f 199 169 171
f 200 171 172
f 200 199 171
f 201 172 173
f 201 200 172
f 202 173 174
f 202 201 173
f 174 170 198
f 174 198 202
f 204 203 175
f 204 175 176
f 175 205 177
f 203 205 175
f 177 206 178
f 205 206 177
f 178 207 179
f 206 207 178
f 180 179 207
f 180 207 208
f 209 204 176
f 209 176 181
f 181 182 209
f 209 182 210
f 208 183 180
f 211 183 208
f 212 210 182
f 212 182 184
f 213 184 185
f 213 212 184
f 185 186 213
f 213 186 214
f 211 187 183
f 215 187 211
f 216 214 186
f 216 186 188
f 188 187 215
f 188 215 216
f 218 217 189
f 218 189 190
f 191 189 217
f 191 217 219
f 221 220 192
f 221 192 193
f 192 222 194
f 220 222 192
f 190 194 218
f 218 194 222
f 219 195 191
f 223 195 219
f 225 224 196
f 225 196 197
f 193 196 221
f 221 196 224
f 223 198 195
f 226 198 223
f 227 225 197
f 227 197 199
f 228 199 200
f 228 227 199
f 229 200 201
f 229 228 200
f 230 201 202
f 230 229 201
f 202 198 226
f 202 226 230
f 232 231 203
f 232 203 204
f 203 233 205
f 231 233 203
f 205 234 206
f 233 234 205
f 206 235 207
f 234 235 206
f 208 207 235
f 208 235 236
f 237 232 204
f 237 204 209
f 209 210 237
f 237 210 238
f 236 211 208
f 239 211 236
f 240 238 210
f 240 210 212
f 241 212 213
f 241 240 212
f 213 214 241
f 241 214 242
f 239 215 211
f 243 215 239
f 244 242 214
f 244 214 216
f 216 215 243
f 216 243 244
f 246 245 217
f 246 217 218
f 219 217 245
f 219 245 247
f 221 248 220
f 220 248 249
f 250 220 249
f 222 220 250
f 218 222 246
f 246 222 250
f 247 223 219
f 251 223 247
f 225 252 224
f 252 253 224
f 224 253 221
f 253 254 221
f 254 248 221
f 248 254 249
f 251 226 223
f 255 226 251
f 257 227 256
f 257 225 227
f 252 225 257
f 252 257 258
f 228 252 227
f 252 228 253
f 259 253 228
f 253 259 258
f 256 258 259
f 229 260 228
f 228 260 259
f 230 261 229
f 229 261 260
f 262 261 230
f 226 262 230
f 255 262 226
f 257 256 263
f 257 263 264
f 265 256 259
f 263 256 265
f 266 259 260
f 265 259 266
f 267 260 261
f 266 260 267
f 261 262 268
f 261 268 267
f 264 263 269
f 264 269 270
f 271 263 265
f 269 263 271
f 272 265 266
f 271 265 272
f 273 266 267
f 272 266 273
f 267 268 274
f 267 274 273
f 270 269 275
f 270 275 276
f 277 269 271
f 275 269 277
f 278 271 272
f 277 271 278
f 279 272 273
f 278 272 279
f 273 274 280
f 273 280 279
f 231 232 281
f 275 282 276
f 231 281 233
f 283 233 281
f 233 283 277
f 282 277 283
f 277 282 275
f 233 277 234
f 234 277 278
f 234 278 235
f 235 278 279
f 236 235 279
f 280 236 279
f 284 236 280
f 237 281 232
f 286 285 238
f 238 285 237
f 285 283 237
f 283 281 237
f 286 287 285
f 284 239 236
f 288 239 284
f 240 286 238
f 289 287 286
f 240 289 286
f 241 289 240
f 241 242 289
f 289 242 290
f 288 243 239
f 291 243 288
f 292 290 242
f 292 242 244
f 244 243 291
f 244 291 292
f 246 293 245
f 293 247 245
f 295 294 250
f 295 250 249
f 246 250 293
f 250 296 293
f 250 294 296
f 247 293 296
f 297 247 296
f 251 247 297
f 299 298 254
f 299 254 253
f 249 254 295
f 295 254 298
f 297 255 251
f 300 255 297
f 257 301 258
f 301 302 258
f 302 253 258
f 302 299 253
f 300 262 255
f 303 262 300
f 264 304 301
f 264 301 257
f 302 301 305
f 305 301 304
f 303 268 262
f 306 268 303
f 270 307 304
f 270 304 264
f 305 304 308
f 308 304 307
f 306 274 268
f 309 274 306
f 276 310 307
f 276 307 270
f 308 307 311
f 311 307 310
f 309 280 274
f 312 280 309
f 282 310 276
f 282 283 310
f 283 311 310
f 283 313 311
f 312 284 280
f 314 284 312
f 315 313 283
f 315 283 285
f 285 287 315
f 315 287 316
f 314 288 284
f 317 288 314
f 318 316 287
f 318 287 289
f 320 319 290
f 319 289 290
f 319 318 289
f 317 319 320
f 291 317 320
f 288 317 291
f 292 320 290
f 320 292 291
f 295 321 294
f 294 321 322
f 323 294 322
f 296 294 323
f 297 296 323
f 297 323 324
f 299 325 298
f 325 326 298
f 298 326 295
f 326 327 295
f 327 321 295
f 321 327 322
f 324 300 297
f 328 300 324
f 302 329 325
f 302 325 299
f 326 325 330
f 330 325 329
f 328 303 300
f 331 303 328
f 305 332 329
f 305 329 302
f 330 329 333
f 333 329 332
f 331 306 303
f 334 306 331
f 308 335 332
f 308 332 305
f 333 332 336
f 336 332 335
f 334 309 306
f 337 309 334
f 311 338 335
f 311 335 308
f 336 335 339
f 339 335 338
f 337 312 309
f 340 312 337
f 313 341 338
f 313 338 311
f 339 338 342
f 342 338 341
f 340 314 312
f 343 314 340
f 315 341 313
f 345 344 316
f 316 344 315
f 344 342 315
f 342 341 315
f 345 346 344
f 343 317 314
f 347 317 343
f 318 345 316
f 348 346 345
f 318 348 345
f 319 348 318
f 319 317 347
f 319 347 348
f 322 349 323
f 349 324 323
f 326 350 327
f 350 351 327
f 327 351 322
f 351 352 322
f 352 349 322
f 324 349 352
f 353 324 352
f 328 324 353
f 330 354 350
f 330 350 326
f 351 350 355
f 355 350 354
f 353 331 328
f 356 331 353
f 333 357 354
f 333 354 330
f 355 354 358
f 358 354 357
f 356 334 331
f 359 334 356
f 336 360 357
f 336 357 333
f 358 357 361
f 361 357 360
f 359 337 334
f 362 337 359
f 339 363 360
f 339 360 336
f 361 360 364
f 364 360 363
f 362 340 337
f 365 340 362
f 342 366 363
f 342 363 339
f 364 363 367
f 367 363 366
f 365 343 340
f 368 343 365
f 344 366 342
f 370 369 346
f 346 369 344
f 369 367 344
f 367 366 344
f 368 369 370
f 347 368 370
f 343 368 347
f 348 370 346
f 370 348 347
f 351 371 352
f 371 353 352
f 355 372 371
f 355 371 351
f 372 356 353
f 372 353 371
f 358 373 372
f 358 372 355
f 373 359 356
f 373 356 372
f 361 374 373
f 361 373 358
f 374 362 359
f 374 359 373
f 364 375 374
f 364 374 361
f 375 365 362
f 375 362 374
f 367 376 375
f 367 375 364
f 376 368 365
f 376 365 375
f 369 376 367
f 376 369 368
