v 2.83610463142395 10.0 11.0
v 3.0 9.289319038391113 11.0
v 3.0 10.0 10.60838794708252
v 2.83610463142395 10.0 12.0
v 3.0 9.289319038391113 12.0
v 3.0 10.0 12.39161205291748
v 2.721876859664917 11.0 11.0
v 3.0 11.0 10.356852531433105
v 2.721876859664917 11.0 12.0
v 3.0 11.0 12.643147468566895
v 2.721876859664917 12.0 11.0
v 3.0 12.0 10.356852531433105
v 2.721876859664917 12.0 12.0
v 3.0 12.0 12.643147468566895
v 2.83610463142395 13.0 11.0
v 3.0 13.0 10.60838794708252
v 2.83610463142395 13.0 12.0
v 3.0 13.0 12.39161205291748
v 3.0 13.710680961608887 11.0
v 3.0 13.710680961608887 12.0
v 3.945751428604126 7.0 11.0
v 4.0 6.914547443389893 11.0
v 4.0 7.0 10.880563735961914
v 3.945751428604126 7.0 12.0
v 4.0 6.914547443389893 12.0
v 4.0 7.0 12.119436264038086
v 3.9499471187591553 8.0 10.0
v 4.0 7.899518966674805 10.0
v 4.0 8.0 9.947417259216309
v 3.4372146129608154 8.0 11.0
v 3.4372146129608154 8.0 12.0
v 4.0 7.899518966674805 13.0
v 3.9499471187591553 8.0 13.0
v 4.0 8.0 13.052582740783691
v 3.583355665206909 9.0 10.0
v 4.0 9.0 9.60720443725586
v 3.0700714588165283 9.0 11.0
v 3.0700714588165283 9.0 12.0
v 3.583355665206909 9.0 13.0
v 4.0 9.0 13.39279556274414
v 3.3370769023895264 10.0 10.0
v 4.0 10.0 9.427361488342285
v 3.3370769023895264 10.0 13.0
v 4.0 10.0 13.572638511657715
v 3.2108209133148193 11.0 10.0
v 4.0 11.0 9.351580619812012
v 3.2108209133148193 11.0 13.0
v 4.0 11.0 13.648419380187988
v 3.2108209133148193 12.0 10.0
v 4.0 12.0 9.351580619812012
v 3.2108209133148193 12.0 13.0
v 4.0 12.0 13.648419380187988
v 3.3370769023895264 13.0 10.0
v 4.0 13.0 9.427361488342285
v 3.3370769023895264 13.0 13.0
v 4.0 13.0 13.572638511657715
v 3.583355665206909 14.0 10.0
v 4.0 14.0 9.60720443725586
v 3.0700714588165283 14.0 11.0
v 3.0700714588165283 14.0 12.0
v 3.583355665206909 14.0 13.0
v 4.0 14.0 13.39279556274414
v 3.9499471187591553 15.0 10.0
v 4.0 15.0 9.947417259216309
v 3.4372146129608154 15.0 11.0
v 3.4372146129608154 15.0 12.0
v 3.9499471187591553 15.0 13.0
v 4.0 15.0 13.052582740783691
v 4.0 15.100481033325195 10.0
v 4.0 16.0 10.880563735961914
v 3.945751428604126 16.0 11.0
v 3.945751428604126 16.0 12.0
v 4.0 16.0 12.119436264038086
v 4.0 15.100481033325195 13.0
v 4.0 16.085453033447266 11.0
v 4.0 16.085453033447266 12.0
v 4.646141052246094 6.0 11.0
v 5.0 5.589349269866943 11.0
v 5.0 6.0 10.356852531433105
v 4.646141052246094 6.0 12.0
v 5.0 5.589349269866943 12.0
v 5.0 6.0 12.643147468566895
v 4.522350788116455 7.0 10.0
v 5.0 6.325408935546875 10.0
v 5.0 7.0 9.60720443725586
v 4.522350788116455 7.0 13.0
v 5.0 6.325408935546875 13.0
v 5.0 7.0 13.39279556274414
v 5.0 8.0 9.285179138183594
v 5.0 8.0 13.714820861816406
v 5.0 9.0 9.141573905944824
v 5.0 9.0 13.858426094055176
v 5.0 10.0 9.091724395751953
v 5.0 10.0 13.908275604248047
v 5.0 11.0 9.08081340789795
v 5.0 11.0 13.91918659210205
v 5.0 12.0 9.08081340789795
v 5.0 12.0 13.91918659210205
v 5.0 13.0 9.091724395751953
v 5.0 13.0 13.908275604248047
v 5.0 14.0 9.141573905944824
v 5.0 14.0 13.858426094055176
v 5.0 15.0 9.285179138183594
v 5.0 15.0 13.714820861816406
v 4.522350788116455 16.0 10.0
v 5.0 16.0 9.60720443725586
v 4.522350788116455 16.0 13.0
v 5.0 16.0 13.39279556274414
v 5.0 16.674591064453125 10.0
v 4.646141052246094 17.0 11.0
v 5.0 17.0 10.356852531433105
v 4.646141052246094 17.0 12.0
v 5.0 17.0 12.643147468566895
v 5.0 16.674591064453125 13.0
v 5.0 17.4106502532959 11.0
v 5.0 17.4106502532959 12.0
v 5.589349269866943 5.0 11.0
v 6.0 4.646141052246094 11.0
v 6.0 5.0 10.356852531433105
v 5.589349269866943 5.0 12.0
v 6.0 4.646141052246094 12.0
v 6.0 5.0 12.643147468566895
v 5.273815155029297 6.0 10.0
v 6.0 5.273815155029297 10.0
v 6.0 6.0 9.512565612792969
v 5.273815155029297 6.0 13.0
v 6.0 5.273815155029297 13.0
v 6.0 6.0 13.487434387207031
v 6.0 7.0 9.180248260498047
v 6.0 7.0 13.819751739501953
v 6.0 8.0 9.08081340789795
v 6.0 8.0 13.91918659210205
v 6.0 9.0 9.110300064086914
v 6.0 9.0 13.889699935913086
v 6.0 10.0 9.193931579589844
v 6.0 10.0 13.806068420410156
v 6.0 11.0 9.261015892028809
v 6.0 11.0 13.738984107971191
v 6.0 12.0 9.261015892028809
v 6.0 12.0 13.738984107971191
v 6.0 13.0 9.193931579589844
v 6.0 13.0 13.806068420410156
v 6.0 14.0 9.110300064086914
v 6.0 14.0 13.889699935913086
v 6.0 15.0 9.08081340789795
v 6.0 15.0 13.91918659210205
v 6.0 16.0 9.180248260498047
v 6.0 16.0 13.819751739501953
v 5.273815155029297 17.0 10.0
v 6.0 17.0 9.512565612792969
v 5.273815155029297 17.0 13.0
v 6.0 17.0 13.487434387207031
v 6.0 17.726184844970703 10.0
v 5.589349269866943 18.0 11.0
v 6.0 18.0 10.356852531433105
v 5.589349269866943 18.0 12.0
v 6.0 18.0 12.643147468566895
v 6.0 17.726184844970703 13.0
v 6.0 18.353858947753906 11.0
v 6.0 18.353858947753906 12.0
v 6.914547443389893 4.0 11.0
v 7.0 3.945751428604126 11.0
v 7.0 4.0 10.880563735961914
v 6.914547443389893 4.0 12.0
v 7.0 3.945751428604126 12.0
v 7.0 4.0 12.119436264038086
v 6.325408935546875 5.0 10.0
v 7.0 4.522350788116455 10.0
v 7.0 5.0 9.60720443725586
v 6.325408935546875 5.0 13.0
v 7.0 4.522350788116455 13.0
v 7.0 5.0 13.39279556274414
v 7.0 6.0 9.180248260498047
v 7.0 6.0 13.819751739501953
v 7.0 7.0 9.079734802246094
v 7.0 7.0 13.920265197753906
v 7.0 8.0 9.193931579589844
v 7.0 8.0 13.806068420410156
v 7.0 9.0 9.461440086364746
v 7.0 9.0 13.538559913635254
v 7.0 10.0 9.779340744018555
v 7.0 10.0 13.220659255981445
v 7.0 11.0 9.996746063232422
v 7.0 11.0 13.003253936767578
v 7.0 12.0 9.996746063232422
v 7.0 12.0 13.003253936767578
v 7.0 13.0 9.779340744018555
v 7.0 13.0 13.220659255981445
v 7.0 14.0 9.461440086364746
v 7.0 14.0 13.538559913635254
v 7.0 15.0 9.193931579589844
v 7.0 15.0 13.806068420410156
v 7.0 16.0 9.079734802246094
v 7.0 16.0 13.920265197753906
v 7.0 17.0 9.180248260498047
v 7.0 17.0 13.819751739501953
v 6.325408935546875 18.0 10.0
v 7.0 18.0 9.60720443725586
v 6.325408935546875 18.0 13.0
v 7.0 18.0 13.39279556274414
v 7.0 18.477649688720703 10.0
v 6.914547443389893 19.0 11.0
v 7.0 19.0 10.880563735961914
v 6.914547443389893 19.0 12.0
v 7.0 19.0 12.119436264038086
v 7.0 18.477649688720703 13.0
v 7.0 19.054248809814453 11.0
v 7.0 19.054248809814453 12.0
v 7.899518966674805 4.0 10.0
v 8.0 3.9499471187591553 10.0
v 8.0 4.0 9.947417259216309
v 8.0 3.4372146129608154 11.0
v 8.0 3.4372146129608154 12.0
v 7.899518966674805 4.0 13.0
v 8.0 3.9499471187591553 13.0
v 8.0 4.0 13.052582740783691
v 8.0 5.0 9.285179138183594
v 8.0 5.0 13.714820861816406
v 8.0 6.0 9.08081340789795
v 8.0 6.0 13.91918659210205
v 8.0 7.0 9.193931579589844
v 8.0 7.0 13.806068420410156
v 8.0 8.0 9.60309886932373
v 8.0 8.0 13.39690113067627
v 8.0 8.638968467712402 10.0
v 7.715648651123047 9.0 10.0
v 8.0 9.0 10.42839527130127
v 7.715648651123047 9.0 13.0
v 8.0 9.0 12.57160472869873
v 8.0 8.638968467712402 13.0
v 7.219616413116455 10.0 10.0
v 8.0 9.495399475097656 11.0
v 7.732454776763916 10.0 11.0
v 8.0 9.495399475097656 12.0
v 7.732454776763916 10.0 12.0
v 7.219616413116455 10.0 13.0
v 7.002798557281494 11.0 10.0
v 7.472903728485107 11.0 11.0
v 7.472903728485107 11.0 12.0
v 7.002798557281494 11.0 13.0
v 7.002798557281494 12.0 10.0
v 7.472903728485107 12.0 11.0
v 7.472903728485107 12.0 12.0
v 7.002798557281494 12.0 13.0
v 7.219616413116455 13.0 10.0
v 7.732454776763916 13.0 11.0
v 7.732454776763916 13.0 12.0
v 7.219616413116455 13.0 13.0
v 7.715648651123047 14.0 10.0
v 8.0 14.0 10.42839527130127
v 8.0 13.504600524902344 11.0
v 8.0 13.504600524902344 12.0
v 7.715648651123047 14.0 13.0
v 8.0 14.0 12.57160472869873
v 8.0 14.361031532287598 10.0
v 8.0 15.0 9.60309886932373
v 8.0 14.361031532287598 13.0
v 8.0 15.0 13.39690113067627
v 8.0 16.0 9.193931579589844
v 8.0 16.0 13.806068420410156
v 8.0 17.0 9.08081340789795
v 8.0 17.0 13.91918659210205
v 8.0 18.0 9.285179138183594
v 8.0 18.0 13.714820861816406
v 7.899518966674805 19.0 10.0
v 8.0 19.0 9.947417259216309
v 7.899518966674805 19.0 13.0
v 8.0 19.0 13.052582740783691
v 8.0 19.050052642822266 10.0
v 8.0 19.562786102294922 11.0
v 8.0 19.562786102294922 12.0
v 8.0 19.050052642822266 13.0
v 9.0 3.583355665206909 10.0
v 9.0 4.0 9.60720443725586
v 9.0 3.0700714588165283 11.0
v 9.0 3.0700714588165283 12.0
v 9.0 3.583355665206909 13.0
v 9.0 4.0 13.39279556274414
v 9.0 5.0 9.141573905944824
v 9.0 5.0 13.858426094055176
v 9.0 6.0 9.110300064086914
v 9.0 6.0 13.889699935913086
v 9.0 7.0 9.461440086364746
v 9.0 7.0 13.538559913635254
v 9.0 7.715648651123047 10.0
v 8.638968467712402 8.0 10.0
v 9.0 8.0 10.42839527130127
v 8.638968467712402 8.0 13.0
v 9.0 8.0 12.57160472869873
v 9.0 7.715648651123047 13.0
v 9.0 8.318523406982422 11.0
v 8.318523406982422 9.0 11.0
v 9.0 8.318523406982422 12.0
v 8.318523406982422 9.0 12.0
v 8.318523406982422 14.0 11.0
v 8.318523406982422 14.0 12.0
v 8.638968467712402 15.0 10.0
v 9.0 15.0 10.42839527130127
v 9.0 14.681476593017578 11.0
v 9.0 14.681476593017578 12.0
v 8.638968467712402 15.0 13.0
v 9.0 15.0 12.57160472869873
v 9.0 15.284351348876953 10.0
v 9.0 16.0 9.461440086364746
v 9.0 15.284351348876953 13.0
v 9.0 16.0 13.538559913635254
v 9.0 17.0 9.110300064086914
v 9.0 17.0 13.889699935913086
v 9.0 18.0 9.141573905944824
v 9.0 18.0 13.858426094055176
v 9.0 19.0 9.60720443725586
v 9.0 19.0 13.39279556274414
v 9.0 19.416645050048828 10.0
v 9.0 19.929927825927734 11.0
v 9.0 19.929927825927734 12.0
v 9.0 19.416645050048828 13.0
v 9.289319038391113 3.0 11.0
v 10.0 2.83610463142395 11.0
v 10.0 3.0 10.60838794708252
v 9.289319038391113 3.0 12.0
v 10.0 2.83610463142395 12.0
v 10.0 3.0 12.39161205291748
v 10.0 3.3370769023895264 10.0
v 10.0 4.0 9.427361488342285
v 10.0 3.3370769023895264 13.0
v 10.0 4.0 13.572638511657715
v 10.0 5.0 9.091724395751953
v 10.0 5.0 13.908275604248047
v 10.0 6.0 9.193931579589844
v 10.0 6.0 13.806068420410156
v 10.0 7.0 9.779340744018555
v 10.0 7.0 13.220659255981445
v 10.0 7.219616413116455 10.0
v 10.0 7.732454776763916 11.0
v 9.495399475097656 8.0 11.0
v 10.0 7.732454776763916 12.0
v 9.495399475097656 8.0 12.0
v 10.0 7.219616413116455 13.0
v 9.495399475097656 15.0 11.0
v 9.495399475097656 15.0 12.0
v 10.0 15.780383110046387 10.0
v 10.0 16.0 9.779340744018555
v 10.0 15.267545700073242 11.0
v 10.0 15.267545700073242 12.0
v 10.0 15.780383110046387 13.0
v 10.0 16.0 13.220659255981445
v 10.0 17.0 9.193931579589844
v 10.0 17.0 13.806068420410156
v 10.0 18.0 9.091724395751953
v 10.0 18.0 13.908275604248047
v 10.0 19.0 9.427361488342285
v 10.0 19.0 13.572638511657715
v 10.0 19.66292381286621 10.0
v 9.289319038391113 20.0 11.0
v 10.0 20.0 10.60838794708252
v 9.289319038391113 20.0 12.0
v 10.0 20.0 12.39161205291748
v 10.0 19.66292381286621 13.0
v 10.0 20.163894653320312 11.0
v 10.0 20.163894653320312 12.0
v 11.0 2.721876859664917 11.0
v 11.0 3.0 10.356852531433105
v 11.0 2.721876859664917 12.0
v 11.0 3.0 12.643147468566895
v 11.0 3.2108209133148193 10.0
v 11.0 4.0 9.351580619812012
v 11.0 3.2108209133148193 13.0
v 11.0 4.0 13.648419380187988
v 11.0 5.0 9.08081340789795
v 11.0 5.0 13.91918659210205
v 11.0 6.0 9.261015892028809
v 11.0 6.0 13.738984107971191
v 11.0 7.0 9.996746063232422
v 11.0 7.0 13.003253936767578
v 11.0 7.002798557281494 10.0
v 11.0 7.472903728485107 11.0
v 11.0 7.472903728485107 12.0
v 11.0 7.002798557281494 13.0
v 11.0 15.997201919555664 10.0
v 11.0 16.0 9.996746063232422
v 11.0 15.52709674835205 11.0
v 11.0 15.52709674835205 12.0
v 11.0 15.997201919555664 13.0
v 11.0 16.0 13.003253936767578
v 11.0 17.0 9.261015892028809
v 11.0 17.0 13.738984107971191
v 11.0 18.0 9.08081340789795
v 11.0 18.0 13.91918659210205
v 11.0 19.0 9.351580619812012
v 11.0 19.0 13.648419380187988
v 11.0 19.7891788482666 10.0
v 11.0 20.0 10.356852531433105
v 11.0 20.0 12.643147468566895
v 11.0 19.7891788482666 13.0
v 11.0 20.27812385559082 11.0
v 11.0 20.27812385559082 12.0
v 12.0 2.721876859664917 11.0
v 12.0 3.0 10.356852531433105
v 12.0 2.721876859664917 12.0
v 12.0 3.0 12.643147468566895
v 12.0 3.2108209133148193 10.0
v 12.0 4.0 9.351580619812012
v 12.0 3.2108209133148193 13.0
v 12.0 4.0 13.648419380187988
v 12.0 5.0 9.08081340789795
v 12.0 5.0 13.91918659210205
v 12.0 6.0 9.261015892028809
v 12.0 6.0 13.738984107971191
v 12.0 7.0 9.996746063232422
v 12.0 7.0 13.003253936767578
v 12.0 7.002798557281494 10.0
v 12.0 7.472903728485107 11.0
v 12.0 7.472903728485107 12.0
v 12.0 7.002798557281494 13.0
v 12.0 15.997201919555664 10.0
v 12.0 16.0 9.996746063232422
v 12.0 15.52709674835205 11.0
v 12.0 15.52709674835205 12.0
v 12.0 15.997201919555664 13.0
v 12.0 16.0 13.003253936767578
v 12.0 17.0 9.261015892028809
v 12.0 17.0 13.738984107971191
v 12.0 18.0 9.08081340789795
v 12.0 18.0 13.91918659210205
v 12.0 19.0 9.351580619812012
v 12.0 19.0 13.648419380187988
v 12.0 19.7891788482666 10.0
v 12.0 20.0 10.356852531433105
v 12.0 20.0 12.643147468566895
v 12.0 19.7891788482666 13.0
v 12.0 20.27812385559082 11.0
v 12.0 20.27812385559082 12.0
v 13.0 2.83610463142395 11.0
v 13.0 3.0 10.60838794708252
v 13.0 2.83610463142395 12.0
v 13.0 3.0 12.39161205291748
v 13.0 3.3370769023895264 10.0
v 13.0 4.0 9.427361488342285
v 13.0 3.3370769023895264 13.0
v 13.0 4.0 13.572638511657715
v 13.0 5.0 9.091724395751953
v 13.0 5.0 13.908275604248047
v 13.0 6.0 9.193931579589844
v 13.0 6.0 13.806068420410156
v 13.0 7.0 9.779340744018555
v 13.0 7.0 13.220659255981445
v 13.0 7.219616413116455 10.0
v 13.0 7.732454776763916 11.0
v 13.0 7.732454776763916 12.0
v 13.0 7.219616413116455 13.0
v 13.0 15.780383110046387 10.0
v 13.0 16.0 9.779340744018555
v 13.0 15.267545700073242 11.0
v 13.0 15.267545700073242 12.0
v 13.0 15.780383110046387 13.0
v 13.0 16.0 13.220659255981445
v 13.0 17.0 9.193931579589844
v 13.0 17.0 13.806068420410156
v 13.0 18.0 9.091724395751953
v 13.0 18.0 13.908275604248047
v 13.0 19.0 9.427361488342285
v 13.0 19.0 13.572638511657715
v 13.0 19.66292381286621 10.0
v 13.0 20.0 10.60838794708252
v 13.0 20.0 12.39161205291748
v 13.0 19.66292381286621 13.0
v 13.0 20.163894653320312 11.0
v 13.0 20.163894653320312 12.0
v 13.710680961608887 3.0 11.0
v 13.710680961608887 3.0 12.0
v 14.0 3.583355665206909 10.0
v 14.0 4.0 9.60720443725586
v 14.0 3.0700714588165283 11.0
v 14.0 3.0700714588165283 12.0
v 14.0 3.583355665206909 13.0
v 14.0 4.0 13.39279556274414
v 14.0 5.0 9.141573905944824
v 14.0 5.0 13.858426094055176
v 14.0 6.0 9.110300064086914
v 14.0 6.0 13.889699935913086
v 14.0 7.0 9.461440086364746
v 14.0 7.0 13.538559913635254
v 14.0 7.715648651123047 10.0
v 13.504600524902344 8.0 11.0
v 14.0 8.0 10.42839527130127
v 13.504600524902344 8.0 12.0
v 14.0 8.0 12.57160472869873
v 14.0 7.715648651123047 13.0
v 14.0 8.318523406982422 11.0
v 14.0 8.318523406982422 12.0
v 13.504600524902344 15.0 11.0
v 14.0 14.681476593017578 11.0
v 14.0 15.0 10.42839527130127
v 13.504600524902344 15.0 12.0
v 14.0 14.681476593017578 12.0
v 14.0 15.0 12.57160472869873
v 14.0 15.284351348876953 10.0
v 14.0 16.0 9.461440086364746
v 14.0 15.284351348876953 13.0
v 14.0 16.0 13.538559913635254
v 14.0 17.0 9.110300064086914
v 14.0 17.0 13.889699935913086
v 14.0 18.0 9.141573905944824
v 14.0 18.0 13.858426094055176
v 14.0 19.0 9.60720443725586
v 14.0 19.0 13.39279556274414
v 14.0 19.416645050048828 10.0
v 14.0 19.929927825927734 11.0
v 13.710680961608887 20.0 11.0
v 14.0 19.929927825927734 12.0
v 13.710680961608887 20.0 12.0
v 14.0 19.416645050048828 13.0
v 15.0 3.9499471187591553 10.0
v 15.0 4.0 9.947417259216309
v 15.0 3.4372146129608154 11.0
v 15.0 3.4372146129608154 12.0
v 15.0 3.9499471187591553 13.0
v 15.0 4.0 13.052582740783691
v 15.0 5.0 9.285179138183594
v 15.0 5.0 13.714820861816406
v 15.0 6.0 9.08081340789795
v 15.0 6.0 13.91918659210205
v 15.0 7.0 9.193931579589844
v 15.0 7.0 13.806068420410156
v 14.361031532287598 8.0 10.0
v 15.0 8.0 9.60309886932373
v 14.361031532287598 8.0 13.0
v 15.0 8.0 13.39690113067627
v 15.0 8.638968467712402 10.0
v 14.681476593017578 9.0 11.0
v 15.0 9.0 10.42839527130127
v 14.681476593017578 9.0 12.0
v 15.0 9.0 12.57160472869873
v 15.0 8.638968467712402 13.0
v 15.0 9.495399475097656 11.0
v 15.0 9.495399475097656 12.0
v 14.681476593017578 14.0 11.0
v 15.0 13.504600524902344 11.0
v 15.0 14.0 10.42839527130127
v 14.681476593017578 14.0 12.0
v 15.0 13.504600524902344 12.0
v 15.0 14.0 12.57160472869873
v 14.361031532287598 15.0 10.0
v 15.0 14.361031532287598 10.0
v 15.0 15.0 9.60309886932373
v 14.361031532287598 15.0 13.0
v 15.0 14.361031532287598 13.0
v 15.0 15.0 13.39690113067627
v 15.0 16.0 9.193931579589844
v 15.0 16.0 13.806068420410156
v 15.0 17.0 9.08081340789795
v 15.0 17.0 13.91918659210205
v 15.0 18.0 9.285179138183594
v 15.0 18.0 13.714820861816406
v 15.0 19.0 9.947417259216309
v 15.0 19.0 13.052582740783691
v 15.0 19.050052642822266 10.0
v 15.0 19.562786102294922 11.0
v 15.0 19.562786102294922 12.0
v 15.0 19.050052642822266 13.0
v 15.100481033325195 4.0 10.0
v 16.0 4.0 10.880563735961914
v 16.0 3.945751428604126 11.0
v 16.0 3.945751428604126 12.0
v 15.100481033325195 4.0 13.0
v 16.0 4.0 12.119436264038086
v 16.0 4.522350788116455 10.0
v 16.0 5.0 9.60720443725586
v 16.0 4.522350788116455 13.0
v 16.0 5.0 13.39279556274414
v 16.0 6.0 9.180248260498047
v 16.0 6.0 13.819751739501953
v 16.0 7.0 9.079734802246094
v 16.0 7.0 13.920265197753906
v 16.0 8.0 9.193931579589844
v 16.0 8.0 13.806068420410156
v 15.284351348876953 9.0 10.0
v 16.0 9.0 9.461440086364746
v 15.284351348876953 9.0 13.0
v 16.0 9.0 13.538559913635254
v 15.780383110046387 10.0 10.0
v 16.0 10.0 9.779340744018555
v 15.267545700073242 10.0 11.0
v 15.267545700073242 10.0 12.0
v 15.780383110046387 10.0 13.0
v 16.0 10.0 13.220659255981445
v 15.997201919555664 11.0 10.0
v 16.0 11.0 9.996746063232422
v 15.52709674835205 11.0 11.0
v 15.52709674835205 11.0 12.0
v 15.997201919555664 11.0 13.0
v 16.0 11.0 13.003253936767578
v 15.997201919555664 12.0 10.0
v 16.0 12.0 9.996746063232422
v 15.52709674835205 12.0 11.0
v 15.52709674835205 12.0 12.0
v 15.997201919555664 12.0 13.0
v 16.0 12.0 13.003253936767578
v 15.780383110046387 13.0 10.0
v 16.0 13.0 9.779340744018555
v 15.267545700073242 13.0 11.0
v 15.267545700073242 13.0 12.0
v 15.780383110046387 13.0 13.0
v 16.0 13.0 13.220659255981445
v 15.284351348876953 14.0 10.0
v 16.0 14.0 9.461440086364746
v 15.284351348876953 14.0 13.0
v 16.0 14.0 13.538559913635254
v 16.0 15.0 9.193931579589844
v 16.0 15.0 13.806068420410156
v 16.0 16.0 9.079734802246094
v 16.0 16.0 13.920265197753906
v 16.0 17.0 9.180248260498047
v 16.0 17.0 13.819751739501953
v 16.0 18.0 9.60720443725586
v 16.0 18.0 13.39279556274414
v 16.0 18.477649688720703 10.0
v 15.100481033325195 19.0 10.0
v 16.0 19.0 10.880563735961914
v 15.100481033325195 19.0 13.0
v 16.0 19.0 12.119436264038086
v 16.0 18.477649688720703 13.0
v 16.0 19.054248809814453 11.0
v 16.0 19.054248809814453 12.0
v 16.085453033447266 4.0 11.0
v 16.085453033447266 4.0 12.0
v 16.674591064453125 5.0 10.0
v 17.0 5.0 10.356852531433105
v 17.0 4.646141052246094 11.0
v 17.0 4.646141052246094 12.0
v 16.674591064453125 5.0 13.0
v 17.0 5.0 12.643147468566895
v 17.0 5.273815155029297 10.0
v 17.0 6.0 9.512565612792969
v 17.0 5.273815155029297 13.0
v 17.0 6.0 13.487434387207031
v 17.0 7.0 9.180248260498047
v 17.0 7.0 13.819751739501953
v 17.0 8.0 9.08081340789795
v 17.0 8.0 13.91918659210205
v 17.0 9.0 9.110300064086914
v 17.0 9.0 13.889699935913086
v 17.0 10.0 9.193931579589844
v 17.0 10.0 13.806068420410156
v 17.0 11.0 9.261015892028809
v 17.0 11.0 13.738984107971191
v 17.0 12.0 9.261015892028809
v 17.0 12.0 13.738984107971191
v 17.0 13.0 9.193931579589844
v 17.0 13.0 13.806068420410156
v 17.0 14.0 9.110300064086914
v 17.0 14.0 13.889699935913086
v 17.0 15.0 9.08081340789795
v 17.0 15.0 13.91918659210205
v 17.0 16.0 9.180248260498047
v 17.0 16.0 13.819751739501953
v 17.0 17.0 9.512565612792969
v 17.0 17.0 13.487434387207031
v 17.0 17.726184844970703 10.0
v 16.674591064453125 18.0 10.0
v 17.0 18.0 10.356852531433105
v 16.674591064453125 18.0 13.0
v 17.0 18.0 12.643147468566895
v 17.0 17.726184844970703 13.0
v 17.0 18.353858947753906 11.0
v 16.085453033447266 19.0 11.0
v 17.0 18.353858947753906 12.0
v 16.085453033447266 19.0 12.0
v 17.4106502532959 5.0 11.0
v 17.4106502532959 5.0 12.0
v 17.726184844970703 6.0 10.0
v 18.0 6.0 10.356852531433105
v 18.0 5.589349269866943 11.0
v 18.0 5.589349269866943 12.0
v 17.726184844970703 6.0 13.0
v 18.0 6.0 12.643147468566895
v 18.0 6.325408935546875 10.0
v 18.0 7.0 9.60720443725586
v 18.0 6.325408935546875 13.0
v 18.0 7.0 13.39279556274414
v 18.0 8.0 9.285179138183594
v 18.0 8.0 13.714820861816406
v 18.0 9.0 9.141573905944824
v 18.0 9.0 13.858426094055176
v 18.0 10.0 9.091724395751953
v 18.0 10.0 13.908275604248047
v 18.0 11.0 9.08081340789795
v 18.0 11.0 13.91918659210205
v 18.0 12.0 9.08081340789795
v 18.0 12.0 13.91918659210205
v 18.0 13.0 9.091724395751953
v 18.0 13.0 13.908275604248047
v 18.0 14.0 9.141573905944824
v 18.0 14.0 13.858426094055176
v 18.0 15.0 9.285179138183594
v 18.0 15.0 13.714820861816406
v 18.0 16.0 9.60720443725586
v 18.0 16.0 13.39279556274414
v 18.0 16.674591064453125 10.0
v 17.726184844970703 17.0 10.0
v 18.0 17.0 10.356852531433105
v 17.726184844970703 17.0 13.0
v 18.0 17.0 12.643147468566895
v 18.0 16.674591064453125 13.0
v 18.0 17.4106502532959 11.0
v 17.4106502532959 18.0 11.0
v 18.0 17.4106502532959 12.0
v 17.4106502532959 18.0 12.0
v 18.353858947753906 6.0 11.0
v 18.353858947753906 6.0 12.0
v 18.477649688720703 7.0 10.0
v 19.0 7.0 10.880563735961914
v 19.0 6.914547443389893 11.0
v 19.0 6.914547443389893 12.0
v 18.477649688720703 7.0 13.0
v 19.0 7.0 12.119436264038086
v 19.0 7.899518966674805 10.0
v 19.0 8.0 9.947417259216309
v 19.0 7.899518966674805 13.0
v 19.0 8.0 13.052582740783691
v 19.0 9.0 9.60720443725586
v 19.0 9.0 13.39279556274414
v 19.0 10.0 9.427361488342285
v 19.0 10.0 13.572638511657715
v 19.0 11.0 9.351580619812012
v 19.0 11.0 13.648419380187988
v 19.0 12.0 9.351580619812012
v 19.0 12.0 13.648419380187988
v 19.0 13.0 9.427361488342285
v 19.0 13.0 13.572638511657715
v 19.0 14.0 9.60720443725586
v 19.0 14.0 13.39279556274414
v 19.0 15.0 9.947417259216309
v 19.0 15.0 13.052582740783691
v 19.0 15.100481033325195 10.0
v 18.477649688720703 16.0 10.0
v 19.0 16.0 10.880563735961914
v 18.477649688720703 16.0 13.0
v 19.0 16.0 12.119436264038086
v 19.0 15.100481033325195 13.0
v 19.0 16.085453033447266 11.0
v 18.353858947753906 17.0 11.0
v 19.0 16.085453033447266 12.0
v 18.353858947753906 17.0 12.0
v 19.054248809814453 7.0 11.0
v 19.054248809814453 7.0 12.0
v 19.050052642822266 8.0 10.0
v 19.562786102294922 8.0 11.0
v 19.562786102294922 8.0 12.0
v 19.050052642822266 8.0 13.0
v 19.416645050048828 9.0 10.0
v 19.929927825927734 9.0 11.0
v 19.929927825927734 9.0 12.0
v 19.416645050048828 9.0 13.0
v 19.66292381286621 10.0 10.0
v 20.0 10.0 10.60838794708252
v 20.0 9.289319038391113 11.0
v 20.0 9.289319038391113 12.0
v 19.66292381286621 10.0 13.0
v 20.0 10.0 12.39161205291748
v 19.7891788482666 11.0 10.0
v 20.0 11.0 10.356852531433105
v 19.7891788482666 11.0 13.0
v 20.0 11.0 12.643147468566895
v 19.7891788482666 12.0 10.0
v 20.0 12.0 10.356852531433105
v 19.7891788482666 12.0 13.0
v 20.0 12.0 12.643147468566895
v 19.66292381286621 13.0 10.0
v 20.0 13.0 10.60838794708252
v 19.66292381286621 13.0 13.0
v 20.0 13.0 12.39161205291748
v 19.416645050048828 14.0 10.0
v 20.0 13.710680961608887 11.0
v 19.929927825927734 14.0 11.0
v 20.0 13.710680961608887 12.0
v 19.929927825927734 14.0 12.0
v 19.416645050048828 14.0 13.0
v 19.050052642822266 15.0 10.0
v 19.562786102294922 15.0 11.0
v 19.562786102294922 15.0 12.0
v 19.050052642822266 15.0 13.0
v 19.054248809814453 16.0 11.0
v 19.054248809814453 16.0 12.0
v 20.163894653320312 10.0 11.0
v 20.163894653320312 10.0 12.0
v 20.27812385559082 11.0 11.0
v 20.27812385559082 11.0 12.0
v 20.27812385559082 12.0 11.0
v 20.27812385559082 12.0 12.0
v 20.163894653320312 13.0 11.0
v 20.163894653320312 13.0 12.0
f 3 2 1
f 5 4 1
f 5 1 2
f 6 4 5
f 3 1 7
f 3 7 8
f 9 1 4
f 7 1 9
f 4 6 10
f 4 10 9
f 8 7 11
f 8 11 12
f 13 7 9
f 11 7 13
f 9 10 14
f 9 14 13
f 12 11 15
f 12 15 16
f 17 11 13
f 15 11 17
f 13 14 18
f 13 18 17
f 19 16 15
f 19 15 17
f 19 17 20
f 20 17 18
f 23 22 21
f 25 24 21
f 25 21 22
f 26 24 25
f 29 28 27
f 27 28 23
f 21 27 23
f 30 27 21
f 31 21 24
f 30 21 31
f 24 26 32
f 33 24 32
f 31 24 33
f 34 33 32
f 29 27 35
f 29 35 36
f 37 27 30
f 35 27 37
f 38 30 31
f 37 30 38
f 39 31 33
f 38 31 39
f 33 34 40
f 33 40 39
f 36 35 41
f 36 41 42
f 3 41 2
f 41 37 2
f 41 35 37
f 2 37 5
f 5 37 38
f 5 38 6
f 38 43 6
f 38 39 43
f 39 40 44
f 39 44 43
f 42 41 45
f 42 45 46
f 8 45 3
f 3 45 41
f 47 10 43
f 43 10 6
f 43 44 48
f 43 48 47
f 46 45 49
f 46 49 50
f 12 49 8
f 8 49 45
f 51 14 47
f 47 14 10
f 47 48 52
f 47 52 51
f 50 49 53
f 50 53 54
f 16 53 12
f 12 53 49
f 55 18 51
f 51 18 14
f 51 52 56
f 51 56 55
f 54 53 57
f 54 57 58
f 19 59 16
f 59 53 16
f 59 57 53
f 20 60 19
f 19 60 59
f 18 55 20
f 55 60 20
f 55 61 60
f 55 56 62
f 55 62 61
f 58 57 63
f 58 63 64
f 65 57 59
f 63 57 65
f 66 59 60
f 65 59 66
f 67 60 61
f 66 60 67
f 61 62 68
f 61 68 67
f 69 64 63
f 71 70 69
f 63 71 69
f 65 71 63
f 72 65 66
f 71 65 72
f 67 74 73
f 72 67 73
f 66 67 72
f 74 67 68
f 75 70 71
f 75 71 72
f 75 72 76
f 76 72 73
f 79 78 77
f 81 80 77
f 81 77 78
f 82 80 81
f 85 84 83
f 83 84 79
f 83 79 77
f 23 83 77
f 22 23 77
f 22 77 25
f 25 77 80
f 87 86 26
f 87 26 25
f 82 87 25
f 80 82 25
f 88 86 87
f 85 83 28
f 29 85 28
f 89 85 29
f 28 83 23
f 86 32 26
f 34 32 86
f 88 34 86
f 90 34 88
f 36 89 29
f 36 91 89
f 90 40 34
f 92 40 90
f 42 91 36
f 42 93 91
f 92 44 40
f 94 44 92
f 46 93 42
f 46 95 93
f 94 48 44
f 96 48 94
f 50 95 46
f 50 97 95
f 96 52 48
f 98 52 96
f 54 97 50
f 54 99 97
f 98 56 52
f 100 56 98
f 58 99 54
f 58 101 99
f 100 62 56
f 102 62 100
f 64 101 58
f 64 103 101
f 102 68 62
f 104 68 102
f 64 69 105
f 106 64 105
f 103 64 106
f 70 105 69
f 107 73 74
f 108 107 74
f 68 108 74
f 104 108 68
f 109 106 105
f 111 109 110
f 110 109 75
f 109 105 75
f 105 70 75
f 76 112 75
f 75 112 110
f 113 112 76
f 113 76 73
f 114 113 73
f 107 114 73
f 114 107 108
f 115 111 110
f 115 110 112
f 115 112 116
f 116 112 113
f 119 118 117
f 121 120 117
f 121 117 118
f 122 120 121
f 125 124 123
f 123 124 119
f 123 119 117
f 79 123 117
f 78 79 117
f 78 117 81
f 81 117 120
f 127 126 82
f 127 82 81
f 122 127 81
f 120 122 81
f 128 126 127
f 125 123 84
f 85 125 84
f 129 125 85
f 84 123 79
f 126 87 82
f 88 87 126
f 128 88 126
f 130 88 128
f 89 129 85
f 89 131 129
f 130 90 88
f 132 90 130
f 91 131 89
f 91 133 131
f 132 92 90
f 134 92 132
f 93 133 91
f 93 135 133
f 134 94 92
f 136 94 134
f 95 135 93
f 95 137 135
f 136 96 94
f 138 96 136
f 97 137 95
f 97 139 137
f 138 98 96
f 140 98 138
f 99 139 97
f 99 141 139
f 140 100 98
f 142 100 140
f 101 141 99
f 101 143 141
f 142 102 100
f 144 102 142
f 103 143 101
f 103 145 143
f 144 104 102
f 146 104 144
f 106 145 103
f 106 147 145
f 146 108 104
f 148 108 146
f 106 109 149
f 150 106 149
f 147 106 150
f 111 149 109
f 151 113 114
f 152 151 114
f 108 152 114
f 148 152 108
f 153 150 149
f 155 153 154
f 154 153 115
f 153 149 115
f 149 111 115
f 116 156 115
f 115 156 154
f 157 156 116
f 157 116 113
f 158 157 113
f 151 158 113
f 158 151 152
f 159 155 154
f 159 154 156
f 159 156 160
f 160 156 157
f 163 162 161
f 165 164 161
f 165 161 162
f 166 164 165
f 169 168 167
f 167 168 163
f 167 163 161
f 119 167 161
f 118 119 161
f 118 161 121
f 121 161 164
f 171 170 122
f 171 122 121
f 166 171 121
f 164 166 121
f 172 170 171
f 169 167 124
f 125 169 124
f 173 169 125
f 124 167 119
f 170 127 122
f 128 127 170
f 172 128 170
f 174 128 172
f 129 173 125
f 129 175 173
f 174 130 128
f 176 130 174
f 131 175 129
f 131 177 175
f 176 132 130
f 178 132 176
f 133 177 131
f 133 179 177
f 178 134 132
f 180 134 178
f 135 179 133
f 135 181 179
f 180 136 134
f 182 136 180
f 137 181 135
f 137 183 181
f 182 138 136
f 184 138 182
f 139 183 137
f 139 185 183
f 184 140 138
f 186 140 184
f 141 185 139
f 141 187 185
f 186 142 140
f 188 142 186
f 143 187 141
f 143 189 187
f 188 144 142
f 190 144 188
f 145 189 143
f 145 191 189
f 190 146 144
f 192 146 190
f 147 191 145
f 147 193 191
f 192 148 146
f 194 148 192
f 150 193 147
f 150 195 193
f 194 152 148
f 196 152 194
f 150 153 197
f 198 150 197
f 195 150 198
f 155 197 153
f 199 157 158
f 200 199 158
f 152 200 158
f 196 200 152
f 201 198 197
f 203 201 202
f 202 201 159
f 201 197 159
f 197 155 159
f 160 204 159
f 159 204 202
f 205 204 160
f 205 160 157
f 206 205 157
f 199 206 157
f 206 199 200
f 207 203 202
f 207 202 204
f 207 204 208
f 208 204 205
f 211 210 209
f 162 163 209
f 210 162 209
f 212 162 210
f 162 213 165
f 212 213 162
f 215 214 166
f 165 215 166
f 213 215 165
f 216 214 215
f 211 209 168
f 169 211 168
f 217 211 169
f 168 209 163
f 214 171 166
f 172 171 214
f 216 172 214
f 218 172 216
f 173 217 169
f 173 219 217
f 218 174 172
f 220 174 218
f 175 219 173
f 175 221 219
f 220 176 174
f 222 176 220
f 177 221 175
f 177 223 221
f 222 178 176
f 224 178 222
f 179 226 225
f 223 179 225
f 177 179 223
f 226 227 225
f 230 229 228
f 224 230 228
f 180 224 228
f 178 224 180
f 181 231 226
f 181 226 179
f 227 226 232
f 226 233 232
f 226 231 233
f 235 234 233
f 233 234 232
f 234 235 229
f 235 228 229
f 235 236 228
f 236 182 180
f 236 180 228
f 183 237 231
f 183 231 181
f 231 238 233
f 231 237 238
f 233 239 235
f 233 238 239
f 235 240 236
f 235 239 240
f 240 184 182
f 240 182 236
f 185 241 237
f 185 237 183
f 237 242 238
f 237 241 242
f 238 243 239
f 238 242 243
f 239 244 240
f 239 243 244
f 244 186 184
f 244 184 240
f 187 245 241
f 187 241 185
f 241 246 242
f 241 245 246
f 242 247 243
f 242 246 247
f 243 248 244
f 243 247 248
f 248 188 186
f 248 186 244
f 189 249 245
f 189 245 187
f 251 246 250
f 246 249 250
f 246 245 249
f 246 251 247
f 247 251 252
f 254 253 252
f 253 247 252
f 253 248 247
f 253 190 188
f 253 188 248
f 256 255 249
f 189 256 249
f 191 256 189
f 249 255 250
f 254 257 253
f 190 253 257
f 258 190 257
f 192 190 258
f 193 256 191
f 193 259 256
f 258 194 192
f 260 194 258
f 195 259 193
f 195 261 259
f 260 196 194
f 262 196 260
f 198 261 195
f 198 263 261
f 262 200 196
f 264 200 262
f 198 201 265
f 266 198 265
f 263 198 266
f 203 265 201
f 267 205 206
f 268 267 206
f 200 268 206
f 264 268 200
f 269 266 265
f 269 265 203
f 207 269 203
f 270 269 207
f 271 207 208
f 271 270 207
f 208 205 267
f 272 208 267
f 271 208 272
f 272 267 268
f 274 273 210
f 274 210 211
f 210 275 212
f 273 275 210
f 212 276 213
f 275 276 212
f 213 277 215
f 276 277 213
f 216 215 277
f 216 277 278
f 217 274 211
f 217 279 274
f 278 218 216
f 280 218 278
f 219 279 217
f 219 281 279
f 280 220 218
f 282 220 280
f 221 281 219
f 221 283 281
f 282 222 220
f 284 222 282
f 223 286 285
f 283 223 285
f 221 223 283
f 286 287 285
f 290 289 288
f 284 290 288
f 224 284 288
f 222 284 224
f 225 286 223
f 292 291 227
f 227 291 225
f 291 287 225
f 287 286 225
f 294 293 292
f 292 293 291
f 293 294 289
f 289 294 288
f 294 229 288
f 229 230 288
f 288 230 224
f 232 292 227
f 292 232 234
f 292 234 294
f 294 234 229
f 250 295 251
f 296 252 251
f 296 251 295
f 296 254 252
f 256 297 255
f 297 298 255
f 255 298 250
f 298 299 250
f 299 295 250
f 295 299 296
f 296 299 300
f 300 302 301
f 300 301 257
f 296 300 257
f 254 296 257
f 301 258 257
f 304 303 297
f 256 304 297
f 259 304 256
f 297 303 298
f 302 305 301
f 258 301 305
f 306 258 305
f 260 258 306
f 261 304 259
f 261 307 304
f 306 262 260
f 308 262 306
f 263 307 261
f 263 309 307
f 308 264 262
f 310 264 308
f 266 309 263
f 266 311 309
f 310 268 264
f 312 268 310
f 313 311 266
f 313 266 269
f 314 269 270
f 314 313 269
f 315 270 271
f 315 314 270
f 316 271 272
f 316 315 271
f 272 268 312
f 272 312 316
f 319 318 317
f 321 320 317
f 321 317 318
f 322 320 321
f 324 323 273
f 324 273 274
f 317 275 319
f 275 323 319
f 275 273 323
f 275 317 276
f 276 317 320
f 322 325 320
f 325 276 320
f 325 277 276
f 278 277 325
f 278 325 326
f 279 324 274
f 279 327 324
f 326 280 278
f 328 280 326
f 281 327 279
f 281 329 327
f 328 282 280
f 330 282 328
f 283 329 281
f 283 331 329
f 330 284 282
f 332 284 330
f 333 331 283
f 333 283 285
f 335 334 287
f 334 285 287
f 334 333 285
f 337 336 335
f 335 336 334
f 289 290 337
f 290 336 337
f 290 338 336
f 290 284 332
f 290 332 338
f 291 335 287
f 335 291 293
f 335 293 337
f 337 293 289
f 298 339 299
f 340 300 299
f 340 299 339
f 340 302 300
f 342 341 303
f 342 303 304
f 298 303 339
f 303 343 339
f 303 341 343
f 339 343 340
f 340 343 344
f 340 344 302
f 344 305 302
f 344 345 305
f 306 305 345
f 306 345 346
f 307 342 304
f 307 347 342
f 346 308 306
f 348 308 346
f 309 347 307
f 309 349 347
f 348 310 308
f 350 310 348
f 311 349 309
f 311 351 349
f 350 312 310
f 352 312 350
f 353 351 311
f 353 311 313
f 355 353 354
f 353 314 354
f 353 313 314
f 315 356 314
f 314 356 354
f 356 315 357
f 315 358 357
f 315 316 358
f 316 312 352
f 316 352 358
f 359 355 354
f 359 354 356
f 359 356 360
f 360 356 357
f 362 361 318
f 362 318 319
f 318 363 321
f 361 363 318
f 322 321 363
f 322 363 364
f 366 365 323
f 366 323 324
f 319 323 362
f 362 323 365
f 364 367 322
f 322 367 325
f 326 325 367
f 326 367 368
f 327 366 324
f 327 369 366
f 368 328 326
f 370 328 368
f 329 369 327
f 329 371 369
f 370 330 328
f 372 330 370
f 331 371 329
f 331 373 371
f 372 332 330
f 374 332 372
f 375 373 331
f 375 331 333
f 376 333 334
f 376 375 333
f 377 334 336
f 377 376 334
f 378 336 338
f 378 377 336
f 338 332 374
f 338 374 378
f 380 379 341
f 380 341 342
f 341 381 343
f 379 381 341
f 343 382 344
f 381 382 343
f 344 383 345
f 382 383 344
f 346 345 383
f 346 383 384
f 347 380 342
f 347 385 380
f 384 348 346
f 386 348 384
f 349 385 347
f 349 387 385
f 386 350 348
f 388 350 386
f 351 387 349
f 351 389 387
f 388 352 350
f 390 352 388
f 391 389 351
f 391 351 353
f 353 355 391
f 391 355 392
f 394 393 358
f 358 393 357
f 358 352 390
f 358 390 394
f 395 392 355
f 395 355 359
f 396 359 360
f 396 395 359
f 360 357 393
f 360 393 396
f 398 397 361
f 398 361 362
f 361 399 363
f 397 399 361
f 364 363 399
f 364 399 400
f 402 401 365
f 402 365 366
f 362 365 398
f 398 365 401
f 400 403 364
f 364 403 367
f 368 367 403
f 368 403 404
f 369 402 366
f 369 405 402
f 404 370 368
f 406 370 404
f 371 405 369
f 371 407 405
f 406 372 370
f 408 372 406
f 373 407 371
f 373 409 407
f 408 374 372
f 410 374 408
f 411 409 373
f 411 373 375
f 412 375 376
f 412 411 375
f 413 376 377
f 413 412 376
f 414 377 378
f 414 413 377
f 378 374 410
f 378 410 414
f 416 415 379
f 416 379 380
f 379 417 381
f 415 417 379
f 381 418 382
f 417 418 381
f 382 419 383
f 418 419 382
f 384 383 419
f 384 419 420
f 385 416 380
f 385 421 416
f 420 386 384
f 422 386 420
f 387 421 385
f 387 423 421
f 422 388 386
f 424 388 422
f 389 423 387
f 389 425 423
f 424 390 388
f 426 390 424
f 427 425 389
f 427 389 391
f 391 392 427
f 427 392 428
f 430 429 394
f 394 429 393
f 394 390 426
f 394 426 430
f 431 428 392
f 431 392 395
f 432 395 396
f 432 431 395
f 396 393 429
f 396 429 432
f 434 433 397
f 434 397 398
f 397 435 399
f 433 435 397
f 400 399 435
f 400 435 436
f 438 437 401
f 438 401 402
f 398 401 434
f 434 401 437
f 436 439 400
f 400 439 403
f 404 403 439
f 404 439 440
f 405 438 402
f 405 441 438
f 440 406 404
f 442 406 440
f 407 441 405
f 407 443 441
f 442 408 406
f 444 408 442
f 409 443 407
f 409 445 443
f 444 410 408
f 446 410 444
f 447 445 409
f 447 409 411
f 448 411 412
f 448 447 411
f 449 412 413
f 449 448 412
f 450 413 414
f 450 449 413
f 414 410 446
f 414 446 450
f 452 451 415
f 452 415 416
f 415 453 417
f 451 453 415
f 417 454 418
f 453 454 417
f 418 455 419
f 454 455 418
f 420 419 455
f 420 455 456
f 421 452 416
f 421 457 452
f 456 422 420
f 458 422 456
f 423 457 421
f 423 459 457
f 458 424 422
f 460 424 458
f 425 459 423
f 425 461 459
f 460 426 424
f 462 426 460
f 463 461 425
f 463 425 427
f 427 428 463
f 463 428 464
f 466 465 430
f 430 465 429
f 430 426 462
f 430 462 466
f 467 464 428
f 467 428 431
f 468 431 432
f 468 467 431
f 432 429 465
f 432 465 468
f 434 469 433
f 470 435 433
f 470 433 469
f 470 436 435
f 472 471 437
f 472 437 438
f 434 437 469
f 437 473 469
f 437 471 473
f 469 473 470
f 470 473 474
f 470 474 436
f 474 439 436
f 474 475 439
f 440 439 475
f 440 475 476
f 441 472 438
f 441 477 472
f 476 442 440
f 478 442 476
f 443 477 441
f 443 479 477
f 478 444 442
f 480 444 478
f 445 479 443
f 445 481 479
f 480 446 444
f 482 446 480
f 483 481 445
f 483 445 447
f 485 483 484
f 483 448 484
f 483 447 448
f 449 486 448
f 448 486 484
f 486 449 487
f 449 488 487
f 449 450 488
f 450 446 482
f 450 482 488
f 489 485 484
f 489 484 486
f 489 486 490
f 490 486 487
f 493 492 491
f 495 494 491
f 495 491 492
f 496 494 495
f 498 497 451
f 498 451 452
f 491 453 493
f 453 497 493
f 453 451 497
f 453 491 454
f 454 491 494
f 496 499 494
f 499 454 494
f 499 455 454
f 456 455 499
f 456 499 500
f 457 498 452
f 457 501 498
f 500 458 456
f 502 458 500
f 459 501 457
f 459 503 501
f 502 460 458
f 504 460 502
f 461 503 459
f 461 505 503
f 504 462 460
f 506 462 504
f 507 505 461
f 507 461 463
f 509 508 464
f 508 463 464
f 508 507 463
f 511 510 509
f 509 510 508
f 465 466 511
f 466 510 511
f 466 512 510
f 466 462 506
f 466 506 512
f 467 509 464
f 509 467 468
f 509 468 511
f 511 468 465
f 514 513 471
f 514 471 472
f 471 515 473
f 513 515 471
f 473 516 474
f 515 516 473
f 474 517 475
f 516 517 474
f 476 475 517
f 476 517 518
f 477 514 472
f 477 519 514
f 518 478 476
f 520 478 518
f 479 519 477
f 479 521 519
f 520 480 478
f 522 480 520
f 481 521 479
f 481 523 521
f 522 482 480
f 524 482 522
f 481 483 525
f 526 481 525
f 523 481 526
f 485 525 483
f 527 487 488
f 528 527 488
f 482 528 488
f 524 528 482
f 529 526 525
f 531 529 530
f 530 529 489
f 529 525 489
f 525 485 489
f 490 532 489
f 489 532 530
f 533 532 490
f 533 490 487
f 534 533 487
f 527 534 487
f 534 527 528
f 535 531 530
f 535 530 532
f 535 532 536
f 536 532 533
f 539 538 537
f 541 540 537
f 541 537 538
f 542 540 541
f 545 544 543
f 543 544 539
f 543 539 537
f 493 543 537
f 492 493 537
f 492 537 495
f 495 537 540
f 547 546 496
f 547 496 495
f 542 547 495
f 540 542 495
f 548 546 547
f 545 543 497
f 498 545 497
f 549 545 498
f 497 543 493
f 546 499 496
f 500 499 546
f 548 500 546
f 550 500 548
f 501 549 498
f 501 551 549
f 550 502 500
f 552 502 550
f 503 551 501
f 503 553 551
f 552 504 502
f 554 504 552
f 505 553 503
f 505 555 553
f 554 506 504
f 556 506 554
f 557 555 505
f 557 505 507
f 558 507 508
f 558 557 507
f 559 508 510
f 559 558 508
f 560 510 512
f 560 559 510
f 512 506 556
f 512 556 560
f 514 561 513
f 513 561 562
f 563 513 562
f 515 513 563
f 515 564 516
f 563 564 515
f 564 566 565
f 517 564 565
f 516 564 517
f 565 518 517
f 568 567 561
f 514 568 561
f 519 568 514
f 561 567 562
f 566 569 565
f 518 565 569
f 570 518 569
f 520 518 570
f 521 568 519
f 521 571 568
f 570 522 520
f 572 522 570
f 523 571 521
f 523 573 571
f 572 524 522
f 574 524 572
f 526 573 523
f 526 575 573
f 574 528 524
f 576 528 574
f 526 529 577
f 578 526 577
f 575 526 578
f 531 577 529
f 579 533 534
f 580 579 534
f 528 580 534
f 576 580 528
f 578 577 581
f 578 581 582
f 535 583 531
f 583 577 531
f 583 581 577
f 536 584 535
f 535 584 583
f 533 579 536
f 579 584 536
f 579 585 584
f 579 580 586
f 579 586 585
f 582 581 587
f 582 587 588
f 589 581 583
f 587 581 589
f 590 583 584
f 589 583 590
f 591 584 585
f 590 584 591
f 585 586 592
f 585 592 591
f 588 587 593
f 588 593 594
f 595 587 589
f 593 587 595
f 596 589 590
f 595 589 596
f 597 590 591
f 596 590 597
f 591 592 598
f 591 598 597
f 594 593 599
f 594 599 600
f 601 593 595
f 599 593 601
f 602 595 596
f 601 595 602
f 603 596 597
f 602 596 603
f 597 598 604
f 597 604 603
f 600 599 605
f 600 605 606
f 539 605 538
f 605 601 538
f 605 599 601
f 538 601 541
f 541 601 602
f 541 602 542
f 602 607 542
f 602 603 607
f 603 604 608
f 603 608 607
f 606 605 544
f 545 606 544
f 609 606 545
f 544 605 539
f 607 547 542
f 548 547 607
f 608 548 607
f 610 548 608
f 549 609 545
f 549 611 609
f 610 550 548
f 612 550 610
f 551 611 549
f 551 613 611
f 612 552 550
f 614 552 612
f 553 613 551
f 553 615 613
f 614 554 552
f 616 554 614
f 555 618 617
f 615 555 617
f 553 555 615
f 618 619 617
f 622 621 620
f 616 622 620
f 556 616 620
f 554 616 556
f 557 618 555
f 623 619 618
f 557 623 618
f 558 623 557
f 624 558 559
f 624 623 558
f 560 620 621
f 624 560 621
f 559 560 624
f 620 560 556
f 562 625 563
f 626 564 563
f 626 563 625
f 626 566 564
f 568 627 567
f 627 628 567
f 567 628 562
f 628 629 562
f 629 625 562
f 625 629 626
f 626 629 630
f 630 632 631
f 630 631 569
f 626 630 569
f 566 626 569
f 631 570 569
f 634 633 627
f 568 634 627
f 571 634 568
f 627 633 628
f 632 635 631
f 570 631 635
f 636 570 635
f 572 570 636
f 573 634 571
f 573 637 634
f 636 574 572
f 638 574 636
f 575 637 573
f 575 639 637
f 638 576 574
f 640 576 638
f 578 639 575
f 578 641 639
f 640 580 576
f 642 580 640
f 582 641 578
f 582 643 641
f 642 586 580
f 644 586 642
f 588 643 582
f 588 645 643
f 644 592 586
f 646 592 644
f 594 645 588
f 594 647 645
f 646 598 592
f 648 598 646
f 600 647 594
f 600 649 647
f 648 604 598
f 650 604 648
f 606 649 600
f 606 651 649
f 650 608 604
f 652 608 650
f 609 651 606
f 609 653 651
f 652 610 608
f 654 610 652
f 611 653 609
f 611 655 653
f 654 612 610
f 656 612 654
f 613 655 611
f 613 657 655
f 656 614 612
f 658 614 656
f 615 660 659
f 657 615 659
f 613 615 657
f 660 661 659
f 664 663 662
f 658 664 662
f 616 658 662
f 614 658 616
f 617 660 615
f 666 665 619
f 619 665 617
f 665 661 617
f 661 660 617
f 668 667 666
f 666 667 665
f 667 668 663
f 663 668 662
f 668 621 662
f 621 622 662
f 662 622 616
f 623 666 619
f 666 623 624
f 666 624 668
f 668 624 621
f 628 669 629
f 670 630 629
f 670 629 669
f 670 632 630
f 634 671 633
f 671 672 633
f 633 672 628
f 672 673 628
f 673 669 628
f 669 673 670
f 670 673 674
f 674 676 675
f 674 675 635
f 670 674 635
f 632 670 635
f 675 636 635
f 678 677 671
f 634 678 671
f 637 678 634
f 671 677 672
f 676 679 675
f 636 675 679
f 680 636 679
f 638 636 680
f 639 678 637
f 639 681 678
f 680 640 638
f 682 640 680
f 641 681 639
f 641 683 681
f 682 642 640
f 684 642 682
f 643 683 641
f 643 685 683
f 684 644 642
f 686 644 684
f 645 685 643
f 645 687 685
f 686 646 644
f 688 646 686
f 647 687 645
f 647 689 687
f 688 648 646
f 690 648 688
f 649 689 647
f 649 691 689
f 690 650 648
f 692 650 690
f 651 691 649
f 651 693 691
f 692 652 650
f 694 652 692
f 653 693 651
f 653 695 693
f 694 654 652
f 696 654 694
f 655 695 653
f 655 697 695
f 696 656 654
f 698 656 696
f 657 700 699
f 697 657 699
f 655 657 697
f 700 701 699
f 704 703 702
f 698 704 702
f 658 698 702
f 656 698 658
f 659 700 657
f 706 705 661
f 661 705 659
f 705 701 659
f 701 700 659
f 708 707 706
f 706 707 705
f 707 708 703
f 703 708 702
f 708 663 702
f 663 664 702
f 702 664 658
f 665 706 661
f 706 665 667
f 706 667 708
f 708 667 663
f 672 709 673
f 710 674 673
f 710 673 709
f 710 676 674
f 678 711 677
f 711 712 677
f 677 712 672
f 712 713 672
f 713 709 672
f 709 713 710
f 710 713 714
f 714 716 715
f 714 715 679
f 710 714 679
f 676 710 679
f 715 680 679
f 718 717 711
f 678 718 711
f 681 718 678
f 711 717 712
f 716 719 715
f 680 715 719
f 720 680 719
f 682 680 720
f 683 718 681
f 683 721 718
f 720 684 682
f 722 684 720
f 685 721 683
f 685 723 721
f 722 686 684
f 724 686 722
f 687 723 685
f 687 725 723
f 724 688 686
f 726 688 724
f 689 725 687
f 689 727 725
f 726 690 688
f 728 690 726
f 691 727 689
f 691 729 727
f 728 692 690
f 730 692 728
f 693 729 691
f 693 731 729
f 730 694 692
f 732 694 730
f 695 731 693
f 695 733 731
f 732 696 694
f 734 696 732
f 697 736 735
f 733 697 735
f 695 697 733
f 736 737 735
f 740 739 738
f 734 740 738
f 698 734 738
f 696 734 698
f 699 736 697
f 742 741 701
f 701 741 699
f 741 737 699
f 737 736 699
f 744 743 742
f 742 743 741
f 743 744 739
f 739 744 738
f 744 703 738
f 703 704 738
f 738 704 698
f 705 742 701
f 742 705 707
f 742 707 744
f 744 707 703
f 712 745 713
f 746 714 713
f 746 713 745
f 746 716 714
f 718 747 717
f 745 712 717
f 747 745 717
f 748 745 747
f 745 749 746
f 745 748 749
f 750 719 716
f 746 750 716
f 749 750 746
f 750 720 719
f 721 751 747
f 721 747 718
f 747 752 748
f 747 751 752
f 748 753 749
f 748 752 753
f 749 754 750
f 749 753 754
f 754 722 720
f 754 720 750
f 723 755 751
f 723 751 721
f 757 752 756
f 752 755 756
f 752 751 755
f 752 757 753
f 753 757 758
f 760 759 758
f 759 753 758
f 759 754 753
f 759 724 722
f 759 722 754
f 725 761 755
f 725 755 723
f 756 755 762
f 762 755 761
f 759 760 763
f 763 760 764
f 763 726 724
f 763 724 759
f 727 765 761
f 727 761 725
f 762 761 766
f 766 761 765
f 763 764 767
f 767 764 768
f 767 728 726
f 767 726 763
f 729 769 765
f 729 765 727
f 766 765 770
f 770 765 769
f 767 768 771
f 771 768 772
f 771 730 728
f 771 728 767
f 731 773 769
f 731 769 729
f 770 769 774
f 769 775 774
f 769 773 775
f 777 776 775
f 775 776 774
f 776 777 772
f 777 771 772
f 777 778 771
f 778 732 730
f 778 730 771
f 733 779 773
f 733 773 731
f 773 780 775
f 773 779 780
f 775 781 777
f 775 780 781
f 777 782 778
f 777 781 782
f 782 734 732
f 782 732 778
f 735 779 733
f 779 735 737
f 783 779 737
f 780 779 783
f 780 784 781
f 780 783 784
f 784 739 740
f 782 784 740
f 781 784 782
f 782 740 734
f 741 783 737
f 783 741 743
f 783 743 784
f 784 743 739
f 756 785 757
f 786 758 757
f 786 757 785
f 786 760 758
f 762 787 785
f 762 785 756
f 785 788 786
f 785 787 788
f 788 764 760
f 788 760 786
f 766 789 787
f 766 787 762
f 787 790 788
f 787 789 790
f 790 768 764
f 790 764 788
f 770 791 789
f 770 789 766
f 789 792 790
f 789 791 792
f 792 772 768
f 792 768 790
f 774 791 770
f 791 774 776
f 791 776 792
f 792 776 772
