v 6.0 10.0 14.0
v 6.0 10.0 14.0
v 6.0 10.0 14.0
v 6.0 10.0 14.0
v 6.0 11.0 14.0
v 6.0 11.0 14.0
v 6.0 11.0 14.0
v 6.0 12.0 14.0
v 6.0 12.0 14.0
v 6.0 12.0 14.0
v 6.0 13.0 14.0
v 6.0 13.0 14.0
v 6.0 13.0 14.0
v 6.0 13.0 14.0
v 7.0 9.0 14.0
v 7.0 9.0 14.0
v 7.0 9.0 14.0
v 7.0 9.0 14.0
v 7.0 10.0 14.0
v 7.0 10.0 14.0
v 7.0 11.0 13.0
v 7.0 11.0 13.0
v 7.0 11.0 13.0
v 7.0 11.0 14.0
v 7.0 12.0 13.0
v 7.0 12.0 13.0
v 7.0 12.0 14.0
v 7.0 12.0 13.0
v 7.0 13.0 14.0
v 7.0 13.0 14.0
v 7.0 14.0 14.0
v 7.0 14.0 14.0
v 7.0 14.0 14.0
v 7.0 14.0 14.0
v 8.0 9.0 14.0
v 8.0 9.0 14.0
v 8.0 9.0 14.0
v 8.0 10.0 13.0
v 8.0 10.0 13.0
v 8.0 10.0 13.0
v 8.0 10.0 14.0
v 8.0 11.0 12.0
v 8.0 11.0 12.0
v 8.0 11.0 12.0
v 8.0 11.0 14.0
v 8.0 12.0 12.0
v 8.0 12.0 12.0
v 8.0 12.0 14.0
v 8.0 12.0 12.0
v 8.0 13.0 13.0
v 8.0 13.0 13.0
v 8.0 13.0 14.0
v 8.0 13.0 13.0
v 8.0 14.0 14.0
v 8.0 14.0 14.0
v 8.0 14.0 14.0
v 8.94198989868164 7.0 10.0
v 9.0 6.9194722175598145 10.0
v 9.0 7.0 9.91032886505127
v 9.0 7.0 10.045210838317871
v 9.0 7.122328758239746 10.0
v 9.0 8.0 14.0
v 9.0 8.0 14.0
v 9.0 8.0 14.0
v 9.0 8.0 14.0
v 9.0 9.0 13.0
v 9.0 9.0 13.0
v 9.0 9.0 13.0
v 9.0 9.0 14.0
v 9.0 10.0 12.0
v 9.0 10.0 12.0
v 9.0 10.0 12.0
v 9.0 10.0 14.0
v 9.0 11.0 11.0
v 9.0 11.0 11.0
v 9.0 11.0 11.0
v 9.0 11.0 14.0
v 9.0 12.0 11.0
v 9.0 12.0 11.0
v 9.0 12.0 14.0
v 9.0 12.0 11.0
v 9.0 13.0 12.0
v 9.0 13.0 12.0
v 9.0 13.0 14.0
v 9.0 13.0 12.0
v 9.0 14.0 13.0
v 9.0 14.0 13.0
v 9.0 14.0 14.0
v 9.0 14.0 13.0
v 9.0 15.0 14.0
v 9.0 15.0 14.0
v 9.0 15.0 14.0
v 8.94198989868164 16.0 10.0
v 9.0 15.877671241760254 10.0
v 9.0 16.0 9.91032886505127
v 9.0 16.0 10.045210838317871
v 9.0 15.0 14.0
v 9.0 16.080528259277344 10.0
v 9.046631813049316 7.0 10.0
v 10.0 8.0 14.0
v 10.0 8.0 14.0
v 10.0 8.0 14.0
v 9.911916732788086 9.0 10.0
v 10.0 8.810206413269043 10.0
v 10.0 9.0 9.843122482299805
v 10.0 9.0 10.146004676818848
v 10.0 9.0 12.0
v 10.0 9.0 12.0
v 10.0 9.0 12.0
v 10.0 9.0 13.0
v 10.0 9.0 14.0
v 10.0 9.464749336242676 10.0
v 10.0 10.0 11.0
v 10.0 10.0 11.0
v 10.0 10.0 11.0
v 10.0 10.0 14.0
v 10.0 11.0 9.0
v 10.0 11.0 9.0
v 10.0 11.0 9.0
v 10.0 11.0 10.0
v 10.0 11.0 10.0
v 10.0 11.0 14.0
v 10.0 12.0 9.0
v 10.0 12.0 9.0
v 10.0 12.0 10.0
v 10.0 12.0 14.0
v 10.0 12.0 9.0
v 10.0 12.0 10.0
v 10.0 13.0 11.0
v 10.0 13.0 11.0
v 10.0 13.0 14.0
v 9.911916732788086 14.0 10.0
v 10.0 13.535250663757324 10.0
v 10.0 14.0 9.843122482299805
v 10.0 13.0 11.0
v 10.0 14.0 10.146004676818848
v 10.0 14.0 12.0
v 10.0 14.0 12.0
v 10.0 14.0 14.0
v 10.0 14.189793586730957 10.0
v 10.0 14.0 12.0
v 10.0 14.0 13.0
v 10.0 15.0 14.0
v 10.0 15.0 14.0
v 9.046631813049316 16.0 10.0
v 10.0 15.0 14.0
v 11.0 8.0 14.0
v 11.0 8.0 14.0
v 11.0 8.0 14.0
v 10.113853454589844 9.0 10.0
v 11.0 9.0 12.0
v 11.0 9.0 12.0
v 11.0 9.0 13.0
v 11.0 9.0 14.0
v 11.0 10.0 9.0
v 11.0 10.0 9.0
v 11.0 10.0 9.0
v 11.0 10.0 10.0
v 11.0 10.0 10.0
v 11.0 10.0 11.0
v 11.0 10.0 14.0
v 10.0 11.0 9.0
v 11.0 10.0 9.0
v 11.0 10.0 10.0
v 10.0 11.0 10.0
v 11.0 10.0 11.0
v 10.0 11.0 11.0
v 11.0 10.0 12.0
v 10.0 11.0 12.0
v 11.0 10.0 13.0
v 10.0 11.0 13.0
v 11.0 10.0 14.0
v 10.0 11.0 14.0
v 10.0 12.0 9.0
v 10.0 12.0 10.0
v 10.0 12.0 11.0
v 10.0 12.0 12.0
v 10.0 12.0 13.0
v 10.0 12.0 14.0
v 11.0 13.0 9.0
v 11.0 13.0 9.0
v 11.0 13.0 9.0
v 11.0 13.0 10.0
v 11.0 13.0 10.0
v 11.0 13.0 11.0
v 11.0 13.0 12.0
v 11.0 13.0 13.0
v 11.0 13.0 14.0
v 11.0 13.0 14.0
v 11.0 13.0 9.0
v 10.113853454589844 14.0 10.0
v 11.0 13.0 10.0
v 11.0 13.0 11.0
v 11.0 14.0 12.0
v 11.0 14.0 14.0
v 11.0 14.0 12.0
v 11.0 14.0 13.0
v 11.0 15.0 14.0
v 11.0 15.0 14.0
v 11.0 15.0 14.0
v 12.0 8.0 14.0
v 12.0 8.0 14.0
v 12.0 8.0 14.0
v 12.0 9.0 12.0
v 12.0 9.0 12.0
v 12.0 9.0 13.0
v 12.0 9.0 14.0
v 12.0 10.0 9.0
v 12.0 10.0 9.0
v 12.0 10.0 10.0
v 12.0 10.0 11.0
v 12.0 10.0 14.0
v 12.0 10.0 9.0
v 12.0 10.0 10.0
v 12.0 10.0 11.0
v 12.0 10.0 12.0
v 12.0 10.0 13.0
v 12.0 10.0 14.0
v 12.0 13.0 9.0
v 12.0 13.0 9.0
v 12.0 13.0 10.0
v 12.0 13.0 11.0
v 12.0 13.0 12.0
v 12.0 13.0 13.0
v 12.0 13.0 14.0
v 12.0 13.0 14.0
v 12.0 13.0 9.0
v 12.0 13.0 10.0
v 12.0 13.0 11.0
v 12.0 14.0 12.0
v 12.0 14.0 14.0
v 12.0 14.0 12.0
v 12.0 14.0 13.0
v 12.0 15.0 14.0
v 12.0 15.0 14.0
v 12.0 15.0 14.0
v 13.0 8.0 14.0
v 13.0 8.0 14.0
v 13.0 8.0 14.0
v 12.886146545410156 9.0 10.0
v 13.0 8.810206413269043 10.0
v 13.0 9.0 9.843122482299805
v 13.0 9.0 10.146004676818848
v 13.0 9.0 12.0
v 13.0 9.0 12.0
v 13.0 9.0 13.0
v 13.0 9.0 14.0
v 12.0 10.0 9.0
v 13.0 9.464749336242676 10.0
v 12.0 10.0 10.0
v 13.0 10.0 11.0
v 13.0 10.0 11.0
v 13.0 10.0 14.0
v 13.0 11.0 9.0
v 13.0 11.0 9.0
v 13.0 11.0 9.0
v 13.0 11.0 10.0
v 13.0 11.0 10.0
v 13.0 11.0 11.0
v 13.0 11.0 12.0
v 13.0 11.0 13.0
v 13.0 11.0 14.0
v 13.0 11.0 14.0
v 13.0 12.0 9.0
v 13.0 12.0 9.0
v 13.0 12.0 10.0
v 13.0 12.0 11.0
v 13.0 12.0 12.0
v 13.0 12.0 13.0
v 13.0 12.0 14.0
v 13.0 12.0 14.0
v 12.0 13.0 9.0
v 13.0 12.0 9.0
v 13.0 12.0 10.0
v 12.0 13.0 10.0
v 13.0 13.0 11.0
v 13.0 13.0 14.0
v 12.886146545410156 14.0 10.0
v 13.0 14.0 9.843122482299805
v 13.0 13.535250663757324 10.0
v 13.0 14.0 10.146004676818848
v 13.0 13.0 11.0
v 13.0 14.0 12.0
v 13.0 14.0 14.0
v 13.0 14.189793586730957 10.0
v 13.0 14.0 12.0
v 13.0 14.0 13.0
v 13.0 15.0 14.0
v 13.0 15.0 14.0
v 13.0 15.0 14.0
v 13.953368186950684 7.0 10.0
v 14.0 6.9194722175598145 10.0
v 14.0 7.0 9.91032886505127
v 14.0 7.0 10.045210838317871
v 14.0 7.122328758239746 10.0
v 14.0 8.0 14.0
v 14.0 8.0 14.0
v 14.0 8.0 14.0
v 13.088083267211914 9.0 10.0
v 13.0 9.0 12.0
v 14.0 9.0 13.0
v 14.0 9.0 13.0
v 14.0 9.0 14.0
v 13.0 10.0 11.0
v 14.0 10.0 12.0
v 14.0 10.0 12.0
v 14.0 10.0 14.0
v 13.0 11.0 9.0
v 13.0 11.0 10.0
v 14.0 11.0 11.0
v 14.0 11.0 11.0
v 14.0 11.0 14.0
v 13.0 12.0 9.0
v 13.0 12.0 10.0
v 14.0 12.0 11.0
v 14.0 12.0 14.0
v 14.0 12.0 11.0
v 13.0 13.0 11.0
v 14.0 13.0 12.0
v 14.0 13.0 14.0
v 13.088083267211914 14.0 10.0
v 14.0 13.0 12.0
v 13.0 14.0 12.0
v 14.0 14.0 13.0
v 14.0 14.0 14.0
v 14.0 14.0 13.0
v 14.0 15.0 14.0
v 14.0 15.0 14.0
v 13.953368186950684 16.0 10.0
v 14.0 15.877671241760254 10.0
v 14.0 16.0 9.91032886505127
v 14.0 16.0 10.045210838317871
v 14.0 15.0 14.0
v 14.0 16.080528259277344 10.0
v 14.05801010131836 7.0 10.0
v 14.0 8.0 14.0
v 14.0 9.0 13.0
v 15.0 9.0 14.0
v 15.0 9.0 14.0
v 15.0 9.0 14.0
v 14.0 10.0 12.0
v 15.0 10.0 13.0
v 15.0 10.0 13.0
v 15.0 10.0 14.0
v 14.0 11.0 11.0
v 15.0 11.0 12.0
v 15.0 11.0 12.0
v 15.0 11.0 14.0
v 14.0 12.0 11.0
v 15.0 12.0 12.0
v 15.0 12.0 14.0
v 15.0 12.0 12.0
v 14.0 13.0 12.0
v 15.0 13.0 13.0
v 15.0 13.0 14.0
v 15.0 13.0 13.0
v 14.0 14.0 13.0
v 15.0 14.0 14.0
v 15.0 14.0 14.0
v 15.0 14.0 14.0
v 14.0 15.0 14.0
v 14.05801010131836 16.0 10.0
v 16.0 9.0 14.0
v 16.0 9.0 14.0
v 16.0 9.0 14.0
v 15.0 10.0 13.0
v 16.0 10.0 14.0
v 16.0 10.0 14.0
v 15.0 11.0 12.0
v 16.0 11.0 13.0
v 16.0 11.0 13.0
v 16.0 11.0 14.0
v 15.0 12.0 12.0
v 16.0 12.0 13.0
v 16.0 12.0 14.0
v 16.0 12.0 13.0
v 15.0 13.0 13.0
v 16.0 13.0 14.0
v 16.0 13.0 14.0
v 16.0 14.0 14.0
v 16.0 14.0 14.0
v 16.0 14.0 14.0
v 16.0 9.0 14.0
v 17.0 10.0 14.0
v 17.0 10.0 14.0
v 17.0 10.0 14.0
v 16.0 11.0 13.0
v 17.0 11.0 14.0
v 17.0 11.0 14.0
v 16.0 12.0 13.0
v 17.0 12.0 14.0
v 17.0 12.0 14.0
v 17.0 13.0 14.0
v 17.0 13.0 14.0
v 17.0 13.0 14.0
v 16.0 14.0 14.0
v 17.0 10.0 14.0
v 17.0 11.0 14.0
v 17.0 12.0 14.0
v 17.0 13.0 14.0
f 3 2 1
f 4 1 2
f 3 1 5
f 3 5 6
f 1 4 7
f 1 7 5
f 6 5 8
f 6 8 9
f 5 7 10
f 5 10 8
f 9 8 11
f 9 11 12
f 8 10 13
f 8 13 11
f 14 12 11
f 14 11 13
f 17 16 15
f 18 15 16
f 17 15 2
f 3 17 2
f 19 17 3
f 4 2 15
f 18 4 15
f 20 4 18
f 23 22 21
f 22 19 21
f 19 6 21
f 19 3 6
f 20 7 4
f 24 7 20
f 23 21 25
f 23 25 26
f 9 25 6
f 6 25 21
f 24 10 7
f 27 10 24
f 28 26 25
f 25 9 28
f 9 29 28
f 9 12 29
f 27 13 10
f 30 13 27
f 12 14 31
f 32 12 31
f 29 12 32
f 33 31 14
f 13 33 14
f 30 33 13
f 34 32 31
f 34 31 33
f 36 35 16
f 36 16 17
f 18 16 35
f 18 35 37
f 40 39 38
f 39 36 38
f 36 19 38
f 36 17 19
f 37 20 18
f 41 20 37
f 44 43 42
f 42 43 40
f 42 40 38
f 23 42 38
f 22 23 38
f 22 38 19
f 41 24 20
f 45 24 41
f 44 42 46
f 44 46 47
f 26 46 23
f 23 46 42
f 45 27 24
f 48 27 45
f 49 47 46
f 51 49 50
f 50 49 28
f 49 46 28
f 46 26 28
f 29 50 28
f 48 30 27
f 52 30 48
f 53 51 50
f 50 29 53
f 29 54 53
f 29 32 54
f 52 33 30
f 55 33 52
f 56 54 32
f 56 32 34
f 34 33 55
f 34 55 56
f 59 58 57
f 60 57 58
f 61 59 57
f 61 57 60
f 64 63 62
f 65 62 63
f 68 67 66
f 66 67 64
f 66 64 62
f 36 66 62
f 35 36 62
f 37 35 62
f 65 37 62
f 69 37 65
f 72 71 70
f 70 71 68
f 70 68 66
f 40 70 66
f 39 40 66
f 39 66 36
f 69 41 37
f 73 41 69
f 76 75 74
f 74 75 72
f 74 72 70
f 44 74 70
f 43 44 70
f 43 70 40
f 73 45 41
f 77 45 73
f 76 74 78
f 76 78 79
f 47 78 44
f 44 78 74
f 77 48 45
f 80 48 77
f 81 79 78
f 83 81 82
f 82 81 49
f 81 78 49
f 78 47 49
f 51 82 49
f 80 52 48
f 84 52 80
f 85 83 82
f 87 85 86
f 86 85 53
f 85 82 53
f 82 51 53
f 54 86 53
f 84 55 52
f 88 55 84
f 89 87 86
f 91 89 90
f 90 89 56
f 89 86 56
f 86 54 56
f 92 90 56
f 55 92 56
f 88 92 55
f 95 94 93
f 96 93 94
f 97 91 90
f 97 90 92
f 98 95 93
f 98 93 96
f 59 99 58
f 99 60 58
f 61 99 59
f 99 61 60
f 101 100 63
f 101 63 64
f 65 63 100
f 65 100 102
f 105 104 103
f 106 103 104
f 109 108 107
f 67 68 107
f 108 67 107
f 110 67 108
f 64 67 101
f 101 67 110
f 102 69 65
f 111 69 102
f 112 105 103
f 115 114 113
f 106 112 103
f 114 115 109
f 114 109 107
f 72 114 107
f 71 72 107
f 71 107 68
f 111 73 69
f 116 73 111
f 119 118 117
f 121 120 117
f 121 117 118
f 120 121 113
f 120 113 114
f 76 120 114
f 75 76 114
f 75 114 72
f 116 77 73
f 122 77 116
f 119 117 123
f 119 123 124
f 125 117 120
f 123 117 125
f 79 125 76
f 76 125 120
f 122 80 77
f 126 80 122
f 127 124 123
f 127 123 125
f 127 125 128
f 130 128 129
f 129 128 81
f 128 125 81
f 125 79 81
f 83 129 81
f 126 84 80
f 131 84 126
f 134 133 132
f 130 129 135
f 133 136 132
f 138 135 137
f 137 135 85
f 135 129 85
f 129 83 85
f 87 137 85
f 131 88 84
f 139 88 131
f 140 134 132
f 140 132 136
f 141 138 137
f 141 137 87
f 89 141 87
f 142 141 89
f 89 91 142
f 142 91 143
f 139 92 88
f 144 92 139
f 95 145 94
f 145 96 94
f 146 143 91
f 146 91 97
f 97 92 144
f 97 144 146
f 98 145 95
f 145 98 96
f 148 147 100
f 148 100 101
f 102 100 147
f 102 147 149
f 105 150 104
f 150 106 104
f 152 151 108
f 152 108 109
f 108 153 110
f 151 153 108
f 101 110 148
f 148 110 153
f 149 111 102
f 154 111 149
f 157 156 155
f 105 112 150
f 156 158 155
f 159 155 158
f 112 106 150
f 113 159 115
f 158 115 159
f 115 158 160
f 109 115 152
f 152 115 160
f 154 116 111
f 161 116 154
f 118 119 162
f 155 163 157
f 163 159 164
f 159 163 155
f 165 121 162
f 118 162 121
f 164 159 166
f 113 166 159
f 166 113 167
f 121 167 113
f 167 121 165
f 169 168 167
f 167 168 166
f 171 170 169
f 169 170 168
f 173 172 171
f 171 172 170
f 161 172 173
f 122 161 173
f 116 161 122
f 124 174 162
f 124 162 119
f 162 175 165
f 162 174 175
f 165 176 167
f 165 175 176
f 167 177 169
f 167 176 177
f 169 178 171
f 169 177 178
f 171 179 173
f 171 178 179
f 179 126 122
f 179 122 173
f 181 127 180
f 181 124 127
f 174 124 181
f 174 181 182
f 184 183 182
f 180 182 183
f 174 128 175
f 128 174 127
f 185 183 184
f 183 185 130
f 176 130 185
f 130 176 128
f 175 128 176
f 176 185 177
f 177 185 186
f 177 186 178
f 178 186 187
f 178 187 179
f 179 187 188
f 126 179 188
f 189 126 188
f 131 126 189
f 190 181 180
f 191 133 134
f 180 192 190
f 192 180 183
f 191 136 133
f 135 183 130
f 183 135 192
f 193 192 135
f 135 138 193
f 193 138 194
f 189 139 131
f 195 139 189
f 140 191 134
f 191 140 136
f 196 194 138
f 196 138 141
f 197 141 142
f 197 196 141
f 142 143 197
f 197 143 198
f 195 144 139
f 199 144 195
f 200 198 143
f 200 143 146
f 146 144 199
f 146 199 200
f 202 201 147
f 202 147 148
f 149 147 201
f 149 201 203
f 205 204 151
f 205 151 152
f 151 206 153
f 204 206 151
f 148 153 202
f 202 153 206
f 203 154 149
f 207 154 203
f 209 208 156
f 209 156 157
f 156 210 158
f 208 210 156
f 158 211 160
f 210 211 158
f 152 160 205
f 205 160 211
f 207 161 154
f 212 161 207
f 213 209 157
f 213 157 163
f 214 163 164
f 214 213 163
f 215 164 166
f 215 214 164
f 216 166 168
f 216 215 166
f 217 168 170
f 217 216 168
f 218 170 172
f 218 217 170
f 172 161 212
f 172 212 218
f 220 219 182
f 220 182 181
f 182 221 184
f 219 221 182
f 184 222 185
f 221 222 184
f 185 223 186
f 222 223 185
f 186 224 187
f 223 224 186
f 187 225 188
f 224 225 187
f 189 188 225
f 189 225 226
f 227 220 181
f 227 181 190
f 228 190 192
f 228 227 190
f 229 192 193
f 229 228 192
f 193 194 229
f 229 194 230
f 226 195 189
f 231 195 226
f 232 230 194
f 232 194 196
f 233 196 197
f 233 232 196
f 197 198 233
f 233 198 234
f 231 199 195
f 235 199 231
f 236 234 198
f 236 198 200
f 200 199 235
f 200 235 236
f 238 237 201
f 238 201 202
f 203 201 237
f 203 237 239
f 242 241 240
f 243 240 241
f 245 244 204
f 245 204 205
f 204 246 206
f 244 246 204
f 202 206 238
f 238 206 246
f 239 207 203
f 247 207 239
f 209 248 208
f 240 249 242
f 248 210 208
f 210 248 250
f 240 243 249
f 252 250 251
f 250 252 210
f 211 210 252
f 205 211 245
f 245 211 252
f 247 212 207
f 253 212 247
f 255 213 254
f 255 209 213
f 248 209 255
f 248 255 256
f 258 257 256
f 254 256 257
f 248 214 250
f 214 248 213
f 215 250 214
f 250 215 251
f 259 251 215
f 251 259 258
f 257 258 259
f 216 260 215
f 215 260 259
f 217 261 216
f 216 261 260
f 218 262 217
f 217 262 261
f 263 262 218
f 212 263 218
f 253 263 212
f 255 254 264
f 255 264 265
f 266 254 257
f 264 254 266
f 267 257 259
f 266 257 267
f 268 259 260
f 267 259 268
f 269 260 261
f 268 260 269
f 270 261 262
f 269 261 270
f 262 263 271
f 262 271 270
f 219 220 272
f 264 273 265
f 273 266 274
f 266 273 264
f 275 221 272
f 219 272 221
f 221 275 222
f 276 222 275
f 222 276 267
f 274 267 276
f 267 274 266
f 222 267 223
f 223 267 268
f 223 268 224
f 224 268 269
f 224 269 225
f 225 269 270
f 226 225 270
f 271 226 270
f 277 226 271
f 227 272 220
f 228 278 227
f 279 227 278
f 227 279 272
f 280 272 279
f 272 280 275
f 280 281 278
f 276 275 282
f 228 282 275
f 282 228 229
f 229 230 282
f 282 230 283
f 277 231 226
f 284 231 277
f 285 279 278
f 285 278 281
f 286 283 230
f 286 230 232
f 287 232 233
f 287 286 232
f 233 234 287
f 287 234 288
f 284 235 231
f 289 235 284
f 290 288 234
f 290 234 236
f 236 235 289
f 236 289 290
f 293 292 291
f 294 291 292
f 295 293 291
f 295 291 294
f 297 296 237
f 297 237 238
f 239 237 296
f 239 296 298
f 242 299 241
f 299 243 241
f 245 300 244
f 244 300 301
f 302 244 301
f 246 244 302
f 238 246 297
f 297 246 302
f 298 247 239
f 303 247 298
f 249 299 242
f 243 299 249
f 252 251 304
f 304 305 252
f 252 305 245
f 305 306 245
f 306 300 245
f 300 306 301
f 303 253 247
f 307 253 303
f 255 308 256
f 309 258 256
f 309 256 308
f 309 310 258
f 258 310 251
f 310 311 251
f 311 304 251
f 304 311 305
f 307 263 253
f 312 263 307
f 265 313 308
f 265 308 255
f 308 314 309
f 308 313 314
f 310 309 315
f 315 309 314
f 312 271 263
f 316 271 312
f 273 313 265
f 313 273 274
f 313 274 314
f 318 317 276
f 276 317 274
f 317 315 274
f 315 314 274
f 318 319 317
f 316 277 271
f 320 277 316
f 279 321 280
f 282 318 276
f 281 280 321
f 323 322 283
f 283 322 282
f 322 319 282
f 319 318 282
f 323 324 322
f 320 284 277
f 325 284 320
f 285 321 279
f 321 285 281
f 286 323 283
f 326 324 323
f 286 326 323
f 287 326 286
f 287 288 326
f 326 288 327
f 325 289 284
f 328 289 325
f 331 330 329
f 332 329 330
f 333 327 288
f 333 288 290
f 290 289 328
f 290 328 333
f 334 331 329
f 334 329 332
f 293 335 292
f 335 294 292
f 295 335 293
f 335 295 294
f 297 336 296
f 336 298 296
f 301 337 302
f 337 338 302
f 302 338 297
f 338 339 297
f 339 336 297
f 298 336 339
f 340 298 339
f 303 298 340
f 305 341 306
f 341 342 306
f 306 342 301
f 342 343 301
f 343 337 301
f 337 343 338
f 340 307 303
f 344 307 340
f 310 345 311
f 345 346 311
f 311 346 305
f 346 347 305
f 347 341 305
f 341 347 342
f 344 312 307
f 348 312 344
f 315 349 345
f 315 345 310
f 346 345 350
f 350 345 349
f 348 316 312
f 351 316 348
f 317 349 315
f 353 352 319
f 319 352 317
f 352 350 317
f 350 349 317
f 353 354 352
f 351 320 316
f 355 320 351
f 322 353 319
f 357 356 324
f 324 356 322
f 356 354 322
f 354 353 322
f 357 358 356
f 355 325 320
f 359 325 355
f 326 357 324
f 361 360 327
f 327 360 326
f 360 358 326
f 358 357 326
f 359 360 361
f 328 359 361
f 325 359 328
f 331 362 330
f 362 332 330
f 333 361 327
f 361 333 328
f 334 362 331
f 362 334 332
f 364 363 339
f 364 339 338
f 340 339 363
f 340 363 365
f 342 366 343
f 366 367 343
f 367 338 343
f 367 364 338
f 365 344 340
f 368 344 365
f 346 369 347
f 369 370 347
f 347 370 342
f 370 371 342
f 371 366 342
f 366 371 367
f 368 348 344
f 372 348 368
f 350 373 369
f 350 369 346
f 370 369 374
f 374 369 373
f 372 351 348
f 375 351 372
f 352 373 350
f 377 376 354
f 354 376 352
f 376 374 352
f 374 373 352
f 377 378 376
f 375 355 351
f 379 355 375
f 356 377 354
f 356 358 377
f 358 378 377
f 358 380 378
f 379 359 355
f 381 359 379
f 382 380 358
f 382 358 360
f 360 359 381
f 360 381 382
f 364 383 363
f 383 365 363
f 385 384 383
f 364 385 383
f 367 385 364
f 365 383 384
f 386 365 384
f 368 365 386
f 370 387 371
f 387 388 371
f 388 367 371
f 388 385 367
f 386 372 368
f 389 372 386
f 374 390 387
f 374 387 370
f 388 387 391
f 391 387 390
f 389 375 372
f 392 375 389
f 376 390 374
f 376 378 390
f 378 391 390
f 378 393 391
f 392 379 375
f 394 379 392
f 380 396 395
f 393 380 395
f 378 380 393
f 394 395 396
f 381 394 396
f 379 394 381
f 382 396 380
f 396 382 381
f 385 397 384
f 397 386 384
f 388 398 397
f 388 397 385
f 398 389 386
f 398 386 397
f 391 399 398
f 391 398 388
f 399 392 389
f 399 389 398
f 393 400 399
f 393 399 391
f 400 394 392
f 400 392 399
f 395 400 393
f 400 395 394
