v 7.0 8.0 14.0
v 7.0 8.0 14.0
v 7.0 8.0 14.0
v 7.0 8.0 14.0
v 7.0 9.0 14.0
v 7.0 9.0 14.0
v 7.0 9.0 14.0
v 7.0 10.0 14.0
v 7.0 10.0 14.0
v 7.0 10.0 14.0
v 7.0 11.0 14.0
v 7.0 11.0 14.0
v 7.0 11.0 14.0
v 7.0 12.0 14.0
v 7.0 12.0 14.0
v 7.0 12.0 14.0
v 7.0 13.0 14.0
v 7.0 13.0 14.0
v 7.0 13.0 14.0
v 7.0 14.0 14.0
v 7.0 14.0 14.0
v 7.0 14.0 14.0
v 7.0 15.0 14.0
v 7.0 15.0 14.0
v 7.0 15.0 14.0
v 7.0 16.0 14.0
v 7.0 16.0 14.0
v 7.0 16.0 14.0
v 7.0 16.0 14.0
v 8.0 8.0 14.0
v 8.0 8.0 14.0
v 8.0 8.0 14.0
v 8.0 9.0 13.0
v 8.0 9.0 13.0
v 8.0 9.0 13.0
v 8.0 9.0 14.0
v 8.0 10.0 12.0
v 8.0 10.0 12.0
v 8.0 10.0 12.0
v 8.0 10.0 13.0
v 8.0 10.0 14.0
v 8.0 11.0 12.0
v 8.0 11.0 12.0
v 8.0 11.0 13.0
v 8.0 11.0 14.0
v 7.711864471435547 12.0 11.0
v 8.0 11.829438209533691 11.0
v 8.0 12.0 10.765786170959473
v 8.0 12.0 12.0
v 8.0 12.0 13.0
v 8.0 12.0 14.0
v 8.0 12.170561790466309 11.0
v 8.0 13.0 12.0
v 8.0 13.0 12.0
v 8.0 13.0 13.0
v 8.0 13.0 14.0
v 8.0 14.0 12.0
v 8.0 14.0 12.0
v 8.0 14.0 13.0
v 8.0 14.0 14.0
v 8.0 14.0 12.0
v 8.0 15.0 13.0
v 8.0 15.0 13.0
v 8.0 15.0 14.0
v 8.0 15.0 13.0
v 8.0 16.0 14.0
v 8.0 16.0 14.0
v 8.0 16.0 14.0
v 9.0 8.0 13.0
v 9.0 8.0 13.0
v 9.0 8.0 13.0
v 9.0 8.0 14.0
v 9.0 8.0 14.0
v 9.0 9.0 12.0
v 9.0 9.0 12.0
v 9.0 9.0 12.0
v 9.0 9.0 14.0
v 9.0 10.0 12.0
v 9.0 10.0 14.0
v 8.66185188293457 11.0 11.0
v 9.0 10.006158828735352 11.0
v 9.0 11.0 10.547800064086914
v 9.0 11.0 14.0
v 9.0 12.0 10.48869800567627
v 9.0 12.0 14.0
v 8.66185188293457 13.0 11.0
v 9.0 13.0 10.547800064086914
v 9.0 13.0 14.0
v 9.0 13.993841171264648 11.0
v 9.0 14.0 12.0
v 9.0 14.0 14.0
v 9.0 15.0 12.0
v 9.0 15.0 12.0
v 9.0 15.0 14.0
v 9.0 15.0 12.0
v 9.0 16.0 13.0
v 9.0 16.0 13.0
v 9.0 16.0 14.0
v 9.0 16.0 13.0
v 9.0 16.0 14.0
v 10.0 8.0 13.0
v 10.0 8.0 13.0
v 10.0 8.0 14.0
v 10.0 8.0 14.0
v 10.0 9.0 12.0
v 10.0 9.0 12.0
v 10.0 9.0 14.0
v 9.004865646362305 10.0 11.0
v 10.0 9.173993110656738 11.0
v 10.0 10.0 10.48869800567627
v 10.0 10.0 14.0
v 10.0 10.770139694213867 11.0
v 9.72553825378418 11.0 11.0
v 10.0 10.0 12.0
v 9.333333015441895 10.333333015441895 12.0
v 9.0 11.0 12.0
v 10.0 10.0 13.0
v 9.0 11.0 13.0
v 10.0 10.0 14.0
v 9.0 11.0 14.0
v 9.53426456451416 12.0 11.0
v 9.0 12.0 12.0
v 9.0 12.0 13.0
v 9.0 12.0 14.0
v 9.72553825378418 13.0 11.0
v 9.0 13.0 12.0
v 9.0 13.0 13.0
v 9.0 13.0 14.0
v 9.004865646362305 14.0 11.0
v 10.0 14.0 10.48869800567627
v 10.0 13.229860305786133 11.0
v 9.333333015441895 13.666666984558105 12.0
v 10.0 14.0 12.0
v 10.0 14.0 13.0
v 10.0 14.0 14.0
v 10.0 14.0 14.0
v 10.0 14.826006889343262 11.0
v 10.0 15.0 12.0
v 10.0 15.0 14.0
v 10.0 15.0 12.0
v 10.0 16.0 13.0
v 10.0 16.0 14.0
v 10.0 16.0 13.0
v 10.0 16.0 14.0
v 11.0 8.0 13.0
v 11.0 8.0 13.0
v 11.0 8.0 14.0
v 11.0 8.0 14.0
v 10.210721015930176 9.0 11.0
v 11.0 8.66185188293457 11.0
v 11.0 9.0 10.547800064086914
v 11.0 9.0 12.0
v 11.0 9.0 14.0
v 11.0 9.72553825378418 11.0
v 10.770139694213867 10.0 11.0
v 11.0 9.0 12.0
v 10.333333015441895 9.333333015441895 12.0
v 10.0 10.0 12.0
v 11.0 9.0 13.0
v 10.0 10.0 13.0
v 11.0 9.0 14.0
v 10.0 10.0 14.0
v 10.770139694213867 14.0 11.0
v 10.0 14.0 12.0
v 10.0 14.0 13.0
v 10.0 14.0 14.0
v 10.210721015930176 15.0 11.0
v 11.0 15.0 10.547800064086914
v 11.0 14.27446174621582 11.0
v 10.333333015441895 14.666666984558105 12.0
v 11.0 15.0 12.0
v 11.0 15.0 13.0
v 11.0 15.0 14.0
v 11.0 15.0 14.0
v 11.0 15.33814811706543 11.0
v 11.0 15.0 12.0
v 11.0 16.0 13.0
v 11.0 16.0 14.0
v 11.0 16.0 13.0
v 11.0 16.0 14.0
v 11.829438209533691 8.0 11.0
v 12.0 7.711864471435547 11.0
v 12.0 8.0 10.765786170959473
v 12.0 8.0 11.261540412902832
v 12.0 8.0 13.0
v 12.0 8.0 13.0
v 12.0 8.0 14.0
v 12.0 8.0 14.0
v 12.0 9.0 10.48869800567627
v 12.0 9.0 12.0
v 12.0 9.0 14.0
v 12.0 9.53426456451416 11.0
v 12.0 9.0 12.0
v 12.0 9.0 13.0
v 12.0 9.0 14.0
v 12.0 14.46573543548584 11.0
v 12.0 15.0 10.48869800567627
v 12.0 15.0 12.0
v 12.0 15.0 13.0
v 12.0 15.0 14.0
v 12.0 15.0 14.0
v 11.829438209533691 16.0 11.0
v 12.0 16.0 10.765786170959473
v 12.0 16.0 11.261540412902832
v 12.0 15.0 12.0
v 12.0 16.0 13.0
v 12.0 16.0 14.0
v 12.0 16.288135528564453 11.0
v 12.0 16.0 13.0
v 12.0 16.0 14.0
v 12.170561790466309 8.0 11.0
v 13.0 8.0 13.0
v 13.0 8.0 13.0
v 13.0 8.0 14.0
v 13.0 8.0 14.0
v 13.0 8.66185188293457 11.0
v 13.0 9.0 10.547800064086914
v 13.0 9.0 12.0
v 13.0 9.0 14.0
v 13.0 9.72553825378418 11.0
v 13.0 9.0 12.0
v 13.0 9.0 13.0
v 13.0 9.0 14.0
v 13.0 14.27446174621582 11.0
v 13.0 15.0 10.547800064086914
v 13.0 15.0 12.0
v 13.0 15.0 13.0
v 13.0 15.0 14.0
v 13.0 15.0 14.0
v 13.0 15.33814811706543 11.0
v 12.170561790466309 16.0 11.0
v 13.0 15.0 12.0
v 13.0 16.0 13.0
v 13.0 16.0 14.0
v 13.0 16.0 13.0
v 13.0 16.0 14.0
v 14.0 8.0 13.0
v 14.0 8.0 13.0
v 14.0 8.0 14.0
v 14.0 8.0 14.0
v 13.789278984069824 9.0 11.0
v 14.0 9.0 12.0
v 14.0 9.0 12.0
v 14.0 9.0 14.0
v 13.229860305786133 10.0 11.0
v 14.0 10.0 10.48869800567627
v 14.0 9.173993110656738 11.0
v 13.666666984558105 9.333333015441895 12.0
v 14.0 10.0 12.0
v 14.0 10.0 13.0
v 14.0 10.0 14.0
v 14.0 10.0 14.0
v 14.0 10.770139694213867 11.0
v 14.0 10.0 12.0
v 14.0 10.0 13.0
v 14.0 10.0 14.0
v 13.229860305786133 14.0 11.0
v 14.0 13.229860305786133 11.0
v 14.0 14.0 10.48869800567627
v 14.0 14.0 12.0
v 14.0 14.0 12.0
v 14.0 14.0 13.0
v 14.0 14.0 13.0
v 14.0 14.0 14.0
v 14.0 14.0 14.0
v 14.0 14.0 14.0
v 14.0 14.826006889343262 11.0
v 13.789278984069824 15.0 11.0
v 13.666666984558105 14.666666984558105 12.0
v 14.0 15.0 12.0
v 14.0 15.0 14.0
v 14.0 15.0 12.0
v 14.0 16.0 13.0
v 14.0 16.0 14.0
v 14.0 16.0 13.0
v 14.0 16.0 14.0
v 15.0 8.0 13.0
v 15.0 8.0 13.0
v 15.0 8.0 14.0
v 15.0 8.0 14.0
v 15.0 9.0 12.0
v 15.0 9.0 12.0
v 15.0 9.0 14.0
v 14.995134353637695 10.0 11.0
v 15.0 10.0 12.0
v 15.0 10.0 14.0
v 14.27446174621582 11.0 11.0
v 15.0 11.0 10.547800064086914
v 15.0 10.006158828735352 11.0
v 14.666666984558105 10.333333015441895 12.0
v 15.0 11.0 12.0
v 15.0 11.0 13.0
v 15.0 11.0 14.0
v 15.0 11.0 14.0
v 14.46573543548584 12.0 11.0
v 15.0 12.0 10.48869800567627
v 15.0 12.0 12.0
v 15.0 12.0 13.0
v 15.0 12.0 14.0
v 15.0 12.0 14.0
v 14.27446174621582 13.0 11.0
v 15.0 13.0 10.547800064086914
v 15.0 13.0 12.0
v 15.0 13.0 13.0
v 15.0 13.0 14.0
v 15.0 13.0 14.0
v 15.0 13.993841171264648 11.0
v 14.995134353637695 14.0 11.0
v 14.666666984558105 13.666666984558105 12.0
v 15.0 14.0 12.0
v 15.0 14.0 14.0
v 15.0 15.0 12.0
v 15.0 15.0 14.0
v 15.0 15.0 12.0
v 15.0 16.0 13.0
v 15.0 16.0 14.0
v 15.0 16.0 13.0
v 15.0 16.0 14.0
v 15.0 8.0 13.0
v 16.0 8.0 14.0
v 16.0 8.0 14.0
v 16.0 8.0 14.0
v 15.0 9.0 12.0
v 16.0 9.0 13.0
v 16.0 9.0 13.0
v 16.0 9.0 14.0
v 16.0 10.0 12.0
v 16.0 10.0 12.0
v 16.0 10.0 14.0
v 15.33814811706543 11.0 11.0
v 16.0 11.0 12.0
v 16.0 11.0 14.0
v 16.0 11.829438209533691 11.0
v 16.0 12.0 10.765786170959473
v 16.0 12.0 14.0
v 16.0 12.170561790466309 11.0
v 15.33814811706543 13.0 11.0
v 16.0 13.0 12.0
v 16.0 13.0 14.0
v 16.0 14.0 12.0
v 16.0 14.0 14.0
v 16.0 14.0 12.0
v 15.0 15.0 12.0
v 16.0 15.0 13.0
v 16.0 15.0 14.0
v 16.0 15.0 13.0
v 15.0 16.0 13.0
v 16.0 16.0 14.0
v 16.0 16.0 14.0
v 16.0 16.0 14.0
v 17.0 8.0 14.0
v 17.0 8.0 14.0
v 17.0 8.0 14.0
v 16.0 9.0 13.0
v 17.0 9.0 14.0
v 17.0 9.0 14.0
v 16.0 10.0 12.0
v 16.0 10.0 13.0
v 17.0 10.0 14.0
v 17.0 10.0 14.0
v 16.0 11.0 12.0
v 16.0 11.0 13.0
v 17.0 11.0 14.0
v 17.0 11.0 14.0
v 16.288135528564453 12.0 11.0
v 16.0 12.0 12.0
v 16.0 12.0 13.0
v 17.0 12.0 14.0
v 17.0 12.0 14.0
v 16.0 13.0 12.0
v 16.0 13.0 13.0
v 17.0 13.0 14.0
v 17.0 13.0 14.0
v 16.0 14.0 12.0
v 16.0 14.0 13.0
v 17.0 14.0 14.0
v 17.0 14.0 14.0
v 16.0 15.0 13.0
v 17.0 15.0 14.0
v 17.0 15.0 14.0
v 17.0 16.0 14.0
v 17.0 16.0 14.0
v 17.0 16.0 14.0
v 17.0 8.0 14.0
v 17.0 9.0 14.0
v 17.0 10.0 14.0
v 17.0 11.0 14.0
v 17.0 12.0 14.0
v 17.0 13.0 14.0
v 17.0 14.0 14.0
v 17.0 15.0 14.0
v 17.0 16.0 14.0
f 3 2 1
f 4 1 2
f 3 1 5
f 3 5 6
f 1 4 7
f 1 7 5
f 6 5 8
f 6 8 9
f 5 7 10
f 5 10 8
f 9 8 11
f 9 11 12
f 8 10 13
f 8 13 11
f 12 11 14
f 12 14 15
f 11 13 16
f 11 16 14
f 15 14 17
f 15 17 18
f 14 16 19
f 14 19 17
f 18 17 20
f 18 20 21
f 17 19 22
f 17 22 20
f 21 20 23
f 21 23 24
f 20 22 25
f 20 25 23
f 24 23 26
f 24 26 27
f 23 25 28
f 23 28 26
f 29 27 26
f 29 26 28
f 31 30 2
f 31 2 3
f 4 2 30
f 4 30 32
f 35 34 33
f 34 31 33
f 31 6 33
f 31 3 6
f 32 7 4
f 36 7 32
f 39 38 37
f 37 38 35
f 33 37 35
f 40 37 33
f 9 40 6
f 6 40 33
f 36 10 7
f 41 10 36
f 39 37 42
f 39 42 43
f 44 37 40
f 42 37 44
f 12 44 9
f 9 44 40
f 41 13 10
f 45 13 41
f 48 47 46
f 46 47 43
f 42 46 43
f 49 46 42
f 50 42 44
f 49 42 50
f 15 50 12
f 12 50 44
f 45 16 13
f 51 16 45
f 52 48 46
f 54 53 52
f 46 54 52
f 49 54 46
f 55 49 50
f 54 49 55
f 18 55 15
f 15 55 50
f 51 19 16
f 56 19 51
f 53 54 57
f 53 57 58
f 59 54 55
f 57 54 59
f 21 59 18
f 18 59 55
f 56 22 19
f 60 22 56
f 61 58 57
f 63 62 61
f 57 63 61
f 59 63 57
f 24 63 21
f 21 63 59
f 60 25 22
f 64 25 60
f 65 62 63
f 63 24 65
f 24 66 65
f 24 27 66
f 64 28 25
f 67 28 64
f 68 66 27
f 68 27 29
f 29 28 67
f 29 67 68
f 71 70 69
f 30 31 69
f 70 30 69
f 72 30 70
f 32 30 72
f 32 72 73
f 76 75 74
f 74 75 71
f 74 71 69
f 35 74 69
f 34 35 69
f 34 69 31
f 73 36 32
f 77 36 73
f 76 74 38
f 39 76 38
f 78 76 39
f 38 74 35
f 77 41 36
f 79 41 77
f 82 81 80
f 81 78 80
f 78 43 80
f 78 39 43
f 79 45 41
f 83 45 79
f 82 80 47
f 48 82 47
f 84 82 48
f 47 80 43
f 83 51 45
f 85 51 83
f 48 52 86
f 87 48 86
f 84 48 87
f 53 86 52
f 85 56 51
f 88 56 85
f 89 87 86
f 86 53 89
f 53 90 89
f 53 58 90
f 88 60 56
f 91 60 88
f 58 61 92
f 93 58 92
f 90 58 93
f 62 92 61
f 91 64 60
f 94 64 91
f 95 93 92
f 97 95 96
f 96 95 65
f 95 92 65
f 92 62 65
f 66 96 65
f 94 67 64
f 98 67 94
f 99 97 96
f 99 96 66
f 68 99 66
f 100 99 68
f 68 67 98
f 68 98 100
f 102 101 70
f 102 70 71
f 70 103 72
f 101 103 70
f 73 72 103
f 73 103 104
f 106 105 75
f 106 75 76
f 71 75 102
f 102 75 105
f 104 77 73
f 107 77 104
f 110 109 108
f 109 106 108
f 106 78 108
f 106 76 78
f 107 79 77
f 111 79 107
f 110 113 112
f 110 82 113
f 110 108 81
f 82 110 81
f 112 115 114
f 115 108 114
f 78 114 108
f 114 78 116
f 81 116 78
f 116 81 115
f 115 113 116
f 112 113 115
f 115 81 108
f 118 117 116
f 116 117 114
f 120 119 118
f 118 119 117
f 111 119 120
f 83 111 120
f 79 111 83
f 84 121 113
f 84 113 82
f 113 122 116
f 113 121 122
f 116 123 118
f 116 122 123
f 118 124 120
f 118 123 124
f 124 85 83
f 124 83 120
f 87 125 121
f 87 121 84
f 121 126 122
f 121 125 126
f 122 127 123
f 122 126 127
f 123 128 124
f 123 127 128
f 128 88 85
f 128 85 124
f 130 89 129
f 130 87 89
f 125 87 130
f 125 130 131
f 133 132 131
f 133 129 132
f 129 133 90
f 126 90 133
f 90 126 89
f 132 89 126
f 126 125 132
f 132 125 131
f 129 89 132
f 126 133 127
f 127 133 134
f 127 134 128
f 128 134 135
f 88 128 135
f 136 88 135
f 91 88 136
f 137 130 129
f 129 90 137
f 90 138 137
f 90 93 138
f 136 94 91
f 139 94 136
f 140 138 93
f 140 93 95
f 95 97 140
f 140 97 141
f 139 98 94
f 142 98 139
f 143 141 97
f 143 97 99
f 144 99 100
f 144 143 99
f 100 98 142
f 100 142 144
f 146 145 101
f 146 101 102
f 101 147 103
f 145 147 101
f 104 103 147
f 104 147 148
f 151 150 149
f 105 106 149
f 150 105 149
f 152 105 150
f 102 105 146
f 146 105 152
f 148 107 104
f 153 107 148
f 151 155 154
f 151 110 155
f 151 149 109
f 110 151 109
f 154 157 156
f 157 149 156
f 106 156 149
f 156 106 158
f 109 158 106
f 158 109 157
f 157 155 158
f 154 155 157
f 157 109 149
f 160 159 158
f 158 159 156
f 162 161 160
f 160 161 159
f 153 161 162
f 111 153 162
f 107 153 111
f 112 155 110
f 155 112 114
f 155 114 158
f 158 114 117
f 158 117 160
f 160 117 119
f 160 119 162
f 162 119 111
f 130 163 131
f 164 133 131
f 164 131 163
f 165 134 133
f 165 133 164
f 166 135 134
f 166 134 165
f 166 136 135
f 168 137 167
f 168 130 137
f 163 130 168
f 163 168 169
f 171 170 169
f 171 167 170
f 167 171 138
f 164 138 171
f 138 164 137
f 170 137 164
f 164 163 170
f 170 163 169
f 167 137 170
f 164 171 165
f 165 171 172
f 165 172 166
f 166 172 173
f 136 166 173
f 174 136 173
f 139 136 174
f 175 168 167
f 175 167 138
f 140 175 138
f 176 175 140
f 140 141 176
f 176 141 177
f 174 142 139
f 178 142 174
f 179 177 141
f 179 141 143
f 180 143 144
f 180 179 143
f 144 142 178
f 144 178 180
f 183 182 181
f 184 181 182
f 186 185 145
f 186 145 146
f 145 187 147
f 185 187 145
f 148 147 187
f 148 187 188
f 183 181 150
f 151 183 150
f 189 183 151
f 184 190 181
f 190 150 181
f 190 152 150
f 146 152 186
f 186 152 190
f 188 153 148
f 191 153 188
f 192 189 151
f 192 151 154
f 193 154 156
f 193 192 154
f 194 156 159
f 194 193 156
f 195 159 161
f 195 194 159
f 161 153 191
f 161 191 195
f 197 196 169
f 197 169 168
f 169 198 171
f 196 198 169
f 171 199 172
f 198 199 171
f 172 200 173
f 199 200 172
f 174 173 200
f 174 200 201
f 168 175 202
f 203 168 202
f 197 168 203
f 202 175 204
f 175 205 204
f 175 176 205
f 176 177 205
f 205 177 206
f 201 178 174
f 207 178 201
f 208 203 202
f 208 202 204
f 209 206 177
f 209 177 179
f 210 179 180
f 210 209 179
f 180 178 207
f 180 207 210
f 183 211 182
f 211 184 182
f 213 212 185
f 213 185 186
f 185 214 187
f 212 214 185
f 188 187 214
f 188 214 215
f 217 216 211
f 183 217 211
f 189 217 183
f 211 216 184
f 216 190 184
f 216 218 190
f 186 190 213
f 213 190 218
f 215 191 188
f 219 191 215
f 220 217 189
f 220 189 192
f 221 192 193
f 221 220 192
f 222 193 194
f 222 221 193
f 223 194 195
f 223 222 194
f 195 191 219
f 195 219 223
f 225 224 196
f 225 196 197
f 196 226 198
f 224 226 196
f 198 227 199
f 226 227 198
f 199 228 200
f 227 228 199
f 201 200 228
f 201 228 229
f 203 231 230
f 225 203 230
f 197 203 225
f 204 205 231
f 205 230 231
f 205 232 230
f 205 206 232
f 232 206 233
f 229 207 201
f 234 207 229
f 208 231 203
f 231 208 204
f 235 233 206
f 235 206 209
f 236 209 210
f 236 235 209
f 210 207 234
f 210 234 236
f 238 237 212
f 238 212 213
f 212 239 214
f 237 239 212
f 215 214 239
f 215 239 240
f 217 241 216
f 216 241 242
f 243 216 242
f 218 216 243
f 213 218 238
f 238 218 243
f 240 219 215
f 244 219 240
f 246 220 245
f 246 217 220
f 241 217 246
f 241 246 247
f 221 248 220
f 221 241 248
f 241 221 242
f 249 242 221
f 242 249 247
f 248 247 249
f 249 245 248
f 248 245 220
f 241 247 248
f 222 250 221
f 221 250 249
f 223 251 222
f 222 251 250
f 252 251 223
f 219 252 223
f 244 252 219
f 253 246 245
f 253 245 249
f 253 249 254
f 254 249 250
f 254 250 255
f 255 250 251
f 255 251 256
f 256 251 252
f 259 258 257
f 261 260 257
f 261 257 258
f 263 262 260
f 263 260 261
f 265 264 262
f 265 262 263
f 266 264 265
f 259 268 267
f 259 225 268
f 259 257 224
f 225 259 224
f 224 269 226
f 269 268 226
f 270 226 268
f 226 270 260
f 267 260 270
f 260 267 269
f 269 257 260
f 224 257 269
f 269 267 268
f 226 260 227
f 227 260 262
f 227 262 228
f 228 262 264
f 229 228 264
f 266 229 264
f 271 229 266
f 230 268 225
f 272 270 268
f 230 272 268
f 232 272 230
f 232 233 272
f 272 233 273
f 271 234 229
f 274 234 271
f 275 273 233
f 275 233 235
f 276 235 236
f 276 275 235
f 236 234 274
f 236 274 276
f 278 277 237
f 278 237 238
f 237 279 239
f 277 279 237
f 240 239 279
f 240 279 280
f 282 281 243
f 282 243 242
f 238 243 278
f 278 243 281
f 280 244 240
f 283 244 280
f 246 284 247
f 284 285 247
f 285 242 247
f 285 282 242
f 283 252 244
f 286 252 283
f 288 253 287
f 288 246 253
f 284 246 288
f 284 288 289
f 254 290 253
f 254 284 290
f 284 254 285
f 291 285 254
f 285 291 289
f 290 289 291
f 291 287 290
f 290 287 253
f 284 289 290
f 255 292 254
f 254 292 291
f 256 293 255
f 255 293 292
f 294 293 256
f 252 294 256
f 286 294 252
f 288 287 295
f 288 295 296
f 297 287 291
f 295 287 297
f 298 291 292
f 297 291 298
f 299 292 293
f 298 292 299
f 293 294 300
f 293 300 299
f 296 295 301
f 296 301 302
f 303 295 297
f 301 295 303
f 304 297 298
f 303 297 304
f 305 298 299
f 304 298 305
f 299 300 306
f 299 306 305
f 302 308 307
f 302 259 308
f 302 301 258
f 259 302 258
f 258 309 261
f 309 308 261
f 310 261 308
f 261 310 303
f 307 303 310
f 303 307 309
f 309 301 303
f 258 301 309
f 309 307 308
f 261 303 263
f 263 303 304
f 263 304 265
f 265 304 305
f 266 265 305
f 306 266 305
f 311 266 306
f 267 308 259
f 267 270 308
f 270 310 308
f 270 312 310
f 311 271 266
f 313 271 311
f 314 312 270
f 314 270 272
f 272 273 314
f 314 273 315
f 313 274 271
f 316 274 313
f 317 315 273
f 317 273 275
f 318 275 276
f 318 317 275
f 276 274 316
f 276 316 318
f 278 319 277
f 277 319 320
f 321 277 320
f 279 277 321
f 280 279 321
f 280 321 322
f 282 323 281
f 323 324 281
f 281 324 278
f 324 325 278
f 325 319 278
f 319 325 320
f 322 283 280
f 326 283 322
f 328 327 323
f 282 328 323
f 285 328 282
f 323 327 324
f 326 286 283
f 329 286 326
f 288 330 289
f 330 331 289
f 331 285 289
f 331 328 285
f 329 294 286
f 332 294 329
f 334 333 330
f 288 334 330
f 296 334 288
f 330 333 331
f 332 300 294
f 335 300 332
f 302 337 336
f 334 302 336
f 296 302 334
f 337 338 336
f 335 306 300
f 339 306 335
f 307 337 302
f 307 310 337
f 310 338 337
f 310 340 338
f 339 311 306
f 341 311 339
f 312 343 342
f 340 312 342
f 310 312 340
f 343 344 342
f 341 313 311
f 345 313 341
f 314 343 312
f 347 346 315
f 315 346 314
f 346 344 314
f 344 343 314
f 347 348 346
f 345 316 313
f 349 316 345
f 317 347 315
f 350 348 347
f 317 350 347
f 318 350 317
f 318 316 349
f 318 349 350
f 352 351 321
f 352 321 320
f 322 321 351
f 322 351 353
f 324 354 325
f 354 355 325
f 355 320 325
f 355 352 320
f 353 326 322
f 356 326 353
f 328 357 327
f 354 324 327
f 357 354 327
f 358 354 357
f 355 354 359
f 359 354 358
f 356 329 326
f 360 329 356
f 331 361 357
f 331 357 328
f 357 362 358
f 357 361 362
f 359 358 363
f 363 358 362
f 360 332 329
f 364 332 360
f 334 365 333
f 361 331 333
f 365 361 333
f 366 361 365
f 361 367 362
f 361 366 367
f 363 362 368
f 368 362 367
f 364 335 332
f 369 335 364
f 336 365 334
f 365 336 338
f 370 365 338
f 366 365 370
f 366 371 367
f 366 370 371
f 368 367 372
f 372 367 371
f 369 339 335
f 373 339 369
f 340 374 370
f 340 370 338
f 370 375 371
f 370 374 375
f 372 371 376
f 376 371 375
f 373 341 339
f 377 341 373
f 342 374 340
f 374 342 344
f 378 374 344
f 375 374 378
f 376 375 379
f 379 375 378
f 377 345 341
f 380 345 377
f 346 378 344
f 346 348 378
f 348 379 378
f 348 381 379
f 380 349 345
f 382 349 380
f 383 381 348
f 383 348 350
f 350 349 382
f 350 382 383
f 352 384 351
f 384 353 351
f 355 385 384
f 355 384 352
f 385 356 353
f 385 353 384
f 359 386 385
f 359 385 355
f 386 360 356
f 386 356 385
f 363 387 386
f 363 386 359
f 387 364 360
f 387 360 386
f 368 388 387
f 368 387 363
f 388 369 364
f 388 364 387
f 372 389 388
f 372 388 368
f 389 373 369
f 389 369 388
f 376 390 389
f 376 389 372
f 390 377 373
f 390 373 389
f 379 391 390
f 379 390 376
f 391 380 377
f 391 377 390
f 381 392 391
f 381 391 379
f 392 382 380
f 392 380 391
f 383 392 381
f 392 383 382
