v 2.8288400173187256 6.0 17.0
v 3.0 5.303366661071777 17.0
v 3.0 6.0 16.921112060546875
v 3.0 6.0 17.130617141723633
v 3.0 6.414412498474121 17.0
v 2.8288400173187256 17.0 17.0
v 3.0 16.585586547851562 17.0
v 3.0 17.0 16.921112060546875
v 3.0 17.0 17.130617141723633
v 3.0 17.69663429260254 17.0
v 3.3267569541931152 6.0 17.0
v 3.3267569541931152 17.0 17.0
v 5.921951770782471 8.0 15.0
v 6.0 7.845909118652344 15.0
v 6.0 8.0 14.94588565826416
v 6.0 8.0 15.043937683105469
v 6.0 8.33191204071045 15.0
v 5.921951770782471 15.0 15.0
v 6.0 14.66808795928955 15.0
v 6.0 15.0 14.94588565826416
v 6.0 15.0 15.043937683105469
v 6.0 15.154090881347656 15.0
v 6.878692626953125 7.0 15.0
v 7.0 6.963926792144775 15.0
v 7.0 7.0 14.957135200500488
v 7.0 7.0 15.058798789978027
v 6.080594539642334 8.0 15.0
v 7.0 7.062296390533447 15.0
v 6.916922569274902 9.0 14.0
v 7.0 8.673294067382812 14.0
v 7.0 9.0 13.922987937927246
v 7.0 9.0 14.063246726989746
v 7.0 9.767806053161621 14.0
v 6.916922569274902 14.0 14.0
v 7.0 13.232193946838379 14.0
v 7.0 14.0 13.922987937927246
v 7.0 14.0 14.063246726989746
v 7.0 14.326705932617188 14.0
v 6.080594539642334 15.0 15.0
v 7.0 16.0 14.957135200500488
v 6.878692626953125 16.0 15.0
v 7.0 15.937704086303711 15.0
v 7.0 16.0 15.058798789978027
v 7.0 16.036073684692383 15.0
v 8.0 6.867453098297119 15.0
v 8.0 7.0 14.80202579498291
v 8.0 7.0 15.18858528137207
v 8.0 7.14259147644043 15.0
v 7.872894763946533 9.0 13.0
v 8.0 8.821117401123047 13.0
v 8.0 9.0 12.892322540283203
v 7.079407215118408 9.0 14.0
v 8.0 9.0 13.130837440490723
v 8.0 9.540709495544434 13.0
v 7.872894763946533 14.0 13.0
v 8.0 13.459290504455566 13.0
v 8.0 14.0 12.892322540283203
v 7.079407215118408 14.0 14.0
v 8.0 14.0 13.130837440490723
v 8.0 14.178882598876953 13.0
v 8.0 15.85740852355957 15.0
v 8.0 16.0 14.80202579498291
v 8.0 16.0 15.18858528137207
v 8.0 16.13254737854004 15.0
v 9.0 6.8648362159729 15.0
v 9.0 7.0 14.775096893310547
v 9.0 7.0 15.18972396850586
v 9.0 7.133322715759277 15.0
v 8.188490867614746 9.0 13.0
v 8.188490867614746 14.0 13.0
v 9.0 15.866677284240723 15.0
v 9.0 16.0 14.775096893310547
v 9.0 16.0 15.18972396850586
v 9.0 16.135164260864258 15.0
v 10.0 6.866605281829834 15.0
v 10.0 7.0 14.7723970413208
v 10.0 7.0 15.1871919631958
v 9.788860321044922 8.0 13.0
v 10.0 7.971681594848633 13.0
v 10.0 8.0 12.94919204711914
v 10.0 8.0 13.093245506286621
v 10.0 7.130293369293213 15.0
v 10.0 8.037904739379883 13.0
v 9.788860321044922 15.0 13.0
v 10.0 14.962095260620117 13.0
v 10.0 15.0 12.94919204711914
v 10.0 15.0 13.093245506286621
v 10.0 15.028318405151367 13.0
v 10.0 15.869706153869629 15.0
v 10.0 16.0 14.7723970413208
v 10.0 16.0 15.1871919631958
v 10.0 16.133394241333008 15.0
v 11.0 6.866662502288818 15.0
v 11.0 7.0 14.76547908782959
v 11.0 7.0 15.187111854553223
v 11.0 7.88650369644165 13.0
v 11.0 8.0 12.886706352233887
v 11.0 8.0 13.154305458068848
v 11.0 7.1301960945129395 15.0
v 11.0 8.061495780944824 13.0
v 11.0 14.938504219055176 13.0
v 11.0 15.0 12.886706352233887
v 11.0 15.0 13.154305458068848
v 11.0 15.113495826721191 13.0
v 11.0 15.869803428649902 15.0
v 11.0 16.0 14.76547908782959
v 11.0 16.0 15.187111854553223
v 11.0 16.133337020874023 15.0
v 12.0 6.866662502288818 15.0
v 12.0 7.0 14.76547908782959
v 12.0 7.0 15.187111854553223
v 12.0 7.88650369644165 13.0
v 12.0 8.0 12.886706352233887
v 12.0 8.0 13.154305458068848
v 12.0 7.1301960945129395 15.0
v 12.0 8.061495780944824 13.0
v 12.0 14.938504219055176 13.0
v 12.0 15.0 12.886706352233887
v 12.0 15.0 13.154305458068848
v 12.0 15.113495826721191 13.0
v 12.0 15.869803428649902 15.0
v 12.0 16.0 14.76547908782959
v 12.0 16.0 15.187111854553223
v 12.0 16.133337020874023 15.0
v 13.0 6.866605281829834 15.0
v 13.0 7.0 14.7723970413208
v 13.0 7.0 15.1871919631958
v 13.0 7.971681594848633 13.0
v 13.0 8.0 12.94919204711914
v 13.0 8.0 13.093245506286621
v 13.0 7.130293369293213 15.0
v 13.0 8.037904739379883 13.0
v 13.0 14.962095260620117 13.0
v 13.0 15.0 12.94919204711914
v 13.0 15.0 13.093245506286621
v 13.0 15.028318405151367 13.0
v 13.0 15.869706153869629 15.0
v 13.0 16.0 14.7723970413208
v 13.0 16.0 15.1871919631958
v 13.0 16.133394241333008 15.0
v 14.0 6.8648362159729 15.0
v 14.0 7.0 14.775096893310547
v 14.0 7.0 15.18972396850586
v 13.211139678955078 8.0 13.0
v 14.0 7.133322715759277 15.0
v 13.211139678955078 15.0 13.0
v 14.0 15.866677284240723 15.0
v 14.0 16.0 14.775096893310547
v 14.0 16.0 15.18972396850586
v 14.0 16.135164260864258 15.0
v 15.0 6.867453098297119 15.0
v 15.0 7.0 14.80202579498291
v 15.0 7.0 15.18858528137207
v 15.0 7.14259147644043 15.0
v 14.811509132385254 9.0 13.0
v 15.0 8.821117401123047 13.0
v 15.0 9.0 12.892322540283203
v 15.0 9.0 13.130837440490723
v 15.0 9.540709495544434 13.0
v 14.811509132385254 14.0 13.0
v 15.0 13.459290504455566 13.0
v 15.0 14.0 12.892322540283203
v 15.0 14.0 13.130837440490723
v 15.0 14.178882598876953 13.0
v 15.0 15.85740852355957 15.0
v 15.0 16.0 14.80202579498291
v 15.0 16.0 15.18858528137207
v 15.0 16.13254737854004 15.0
v 16.0 6.963926792144775 15.0
v 16.0 7.0 14.957135200500488
v 16.0 7.0 15.058798789978027
v 16.0 7.062296390533447 15.0
v 15.127104759216309 9.0 13.0
v 16.0 8.673294067382812 14.0
v 16.0 9.0 13.922987937927246
v 15.92059326171875 9.0 14.0
v 16.0 9.0 14.063246726989746
v 16.0 9.767806053161621 14.0
v 15.127104759216309 14.0 13.0
v 16.0 13.232193946838379 14.0
v 16.0 14.0 13.922987937927246
v 15.92059326171875 14.0 14.0
v 16.0 14.0 14.063246726989746
v 16.0 14.326705932617188 14.0
v 16.0 15.937704086303711 15.0
v 16.0 16.0 14.957135200500488
v 16.0 16.0 15.058798789978027
v 16.0 16.036073684692383 15.0
v 16.121307373046875 7.0 15.0
v 17.0 8.0 14.94588565826416
v 16.919404983520508 8.0 15.0
v 17.0 7.845909118652344 15.0
v 17.0 8.0 15.043937683105469
v 16.083078384399414 9.0 14.0
v 17.0 8.33191204071045 15.0
v 16.083078384399414 14.0 14.0
v 17.0 15.0 14.94588565826416
v 16.919404983520508 15.0 15.0
v 17.0 14.66808795928955 15.0
v 17.0 15.0 15.043937683105469
v 16.121307373046875 16.0 15.0
v 17.0 15.154090881347656 15.0
v 17.078048706054688 8.0 15.0
v 17.078048706054688 15.0 15.0
v 19.673242568969727 6.0 17.0
v 20.0 5.303366661071777 17.0
v 20.0 6.0 16.921112060546875
v 20.0 6.0 17.130617141723633
v 20.0 6.414412498474121 17.0
v 19.673242568969727 17.0 17.0
v 20.0 16.585586547851562 17.0
v 20.0 17.0 16.921112060546875
v 20.0 17.0 17.130617141723633
v 20.0 17.69663429260254 17.0
v 20.171159744262695 6.0 17.0
v 20.171159744262695 17.0 17.0
f 3 2 1
f 4 1 2
f 5 3 1
f 5 1 4
f 8 7 6
f 9 6 7
f 10 8 6
f 10 6 9
f 3 11 2
f 11 4 2
f 5 11 3
f 11 5 4
f 8 12 7
f 12 9 7
f 10 12 8
f 12 10 9
f 15 14 13
f 16 13 14
f 17 15 13
f 17 13 16
f 20 19 18
f 21 18 19
f 22 20 18
f 22 18 21
f 25 24 23
f 26 23 24
f 14 15 27
f 23 28 25
f 23 26 28
f 14 27 16
f 31 30 29
f 15 17 27
f 29 30 32
f 27 17 16
f 33 31 29
f 33 29 32
f 36 35 34
f 37 34 35
f 38 36 34
f 19 20 39
f 34 37 38
f 39 21 19
f 39 20 22
f 42 41 40
f 22 21 39
f 41 42 43
f 44 40 41
f 44 41 43
f 46 45 24
f 46 24 25
f 26 24 45
f 26 45 47
f 48 46 25
f 48 25 28
f 28 26 47
f 28 47 48
f 51 50 49
f 52 30 31
f 53 49 50
f 52 32 30
f 54 51 49
f 31 33 52
f 49 53 54
f 52 33 32
f 57 56 55
f 58 35 36
f 59 55 56
f 58 37 35
f 60 57 55
f 36 38 58
f 55 59 60
f 58 38 37
f 62 61 42
f 62 42 40
f 43 42 61
f 43 61 63
f 64 62 40
f 64 40 44
f 44 43 63
f 44 63 64
f 66 65 45
f 66 45 46
f 47 45 65
f 47 65 67
f 68 66 46
f 68 46 48
f 48 47 67
f 48 67 68
f 51 69 50
f 69 53 50
f 54 69 51
f 69 54 53
f 57 70 56
f 70 59 56
f 60 70 57
f 70 60 59
f 72 71 61
f 72 61 62
f 63 61 71
f 63 71 73
f 74 72 62
f 74 62 64
f 64 63 73
f 64 73 74
f 76 75 65
f 76 65 66
f 67 65 75
f 67 75 77
f 80 79 78
f 81 78 79
f 82 76 66
f 82 66 68
f 68 67 77
f 68 77 82
f 83 80 78
f 83 78 81
f 86 85 84
f 87 84 85
f 88 86 84
f 88 84 87
f 90 89 71
f 90 71 72
f 73 71 89
f 73 89 91
f 92 90 72
f 92 72 74
f 74 73 91
f 74 91 92
f 94 93 75
f 94 75 76
f 77 75 93
f 77 93 95
f 97 96 79
f 97 79 80
f 81 79 96
f 81 96 98
f 99 94 76
f 99 76 82
f 82 77 95
f 82 95 99
f 100 97 80
f 100 80 83
f 83 81 98
f 83 98 100
f 102 101 85
f 102 85 86
f 87 85 101
f 87 101 103
f 104 102 86
f 104 86 88
f 88 87 103
f 88 103 104
f 106 105 89
f 106 89 90
f 91 89 105
f 91 105 107
f 108 106 90
f 108 90 92
f 92 91 107
f 92 107 108
f 110 109 93
f 110 93 94
f 95 93 109
f 95 109 111
f 113 112 96
f 113 96 97
f 98 96 112
f 98 112 114
f 115 110 94
f 115 94 99
f 99 95 111
f 99 111 115
f 116 113 97
f 116 97 100
f 100 98 114
f 100 114 116
f 118 117 101
f 118 101 102
f 103 101 117
f 103 117 119
f 120 118 102
f 120 102 104
f 104 103 119
f 104 119 120
f 122 121 105
f 122 105 106
f 107 105 121
f 107 121 123
f 124 122 106
f 124 106 108
f 108 107 123
f 108 123 124
f 126 125 109
f 126 109 110
f 111 109 125
f 111 125 127
f 129 128 112
f 129 112 113
f 114 112 128
f 114 128 130
f 131 126 110
f 131 110 115
f 115 111 127
f 115 127 131
f 132 129 113
f 132 113 116
f 116 114 130
f 116 130 132
f 134 133 117
f 134 117 118
f 119 117 133
f 119 133 135
f 136 134 118
f 136 118 120
f 120 119 135
f 120 135 136
f 138 137 121
f 138 121 122
f 123 121 137
f 123 137 139
f 140 138 122
f 140 122 124
f 124 123 139
f 124 139 140
f 142 141 125
f 142 125 126
f 127 125 141
f 127 141 143
f 129 144 128
f 144 130 128
f 145 142 126
f 145 126 131
f 131 127 143
f 131 143 145
f 132 144 129
f 144 132 130
f 134 146 133
f 146 135 133
f 136 146 134
f 146 136 135
f 148 147 137
f 148 137 138
f 139 137 147
f 139 147 149
f 150 148 138
f 150 138 140
f 140 139 149
f 140 149 150
f 152 151 141
f 152 141 142
f 143 141 151
f 143 151 153
f 154 152 142
f 154 142 145
f 145 143 153
f 145 153 154
f 157 156 155
f 158 155 156
f 159 157 155
f 159 155 158
f 162 161 160
f 163 160 161
f 164 162 160
f 164 160 163
f 166 165 147
f 166 147 148
f 149 147 165
f 149 165 167
f 168 166 148
f 168 148 150
f 150 149 167
f 150 167 168
f 170 169 151
f 170 151 152
f 153 151 169
f 153 169 171
f 172 170 152
f 172 152 154
f 154 153 171
f 154 171 172
f 157 173 156
f 158 156 173
f 176 175 174
f 177 176 174
f 159 173 157
f 176 178 175
f 158 173 159
f 178 176 177
f 162 179 161
f 163 161 179
f 182 181 180
f 183 182 180
f 164 179 162
f 182 184 181
f 163 179 164
f 184 182 183
f 186 185 165
f 186 165 166
f 167 165 185
f 167 185 187
f 188 186 166
f 188 166 168
f 168 167 187
f 168 187 188
f 170 189 169
f 189 171 169
f 189 170 172
f 192 191 190
f 172 171 189
f 191 192 193
f 175 194 174
f 191 195 190
f 177 174 194
f 195 191 193
f 178 194 175
f 194 178 177
f 181 196 180
f 196 183 180
f 184 196 181
f 183 196 184
f 199 198 197
f 200 198 199
f 185 186 201
f 198 202 197
f 198 200 202
f 185 201 187
f 188 201 186
f 201 188 187
f 190 203 192
f 203 193 192
f 195 203 190
f 203 195 193
f 197 204 199
f 204 200 199
f 202 204 197
f 204 202 200
f 207 206 205
f 208 205 206
f 209 207 205
f 209 205 208
f 212 211 210
f 213 210 211
f 214 212 210
f 214 210 213
f 207 215 206
f 215 208 206
f 209 215 207
f 215 209 208
f 212 216 211
f 216 213 211
f 214 216 212
f 216 214 213
