solid labcem
  facet normal -0.4163852334022522 -0.10230416059494019 -0.9034141898155212
    outer loop
      vertex 3.0 6.0 16.921112060546875
      vertex 3.0 5.303366661071777 17.0
      vertex 2.8288400173187256 6.0 17.0
    endloop
  endfacet
  facet normal -0.6000300049781799 -0.14742493629455566 0.7862759828567505
    outer loop
      vertex 3.0 6.0 17.130617141723633
      vertex 2.8288400173187256 6.0 17.0
      vertex 3.0 5.303366661071777 17.0
    endloop
  endfacet
  facet normal -0.41246291995048523 0.17035476863384247 -0.8949041962623596
    outer loop
      vertex 3.0 6.414412498474121 17.0
      vertex 3.0 6.0 16.921112060546875
      vertex 2.8288400173187256 6.0 17.0
    endloop
  endfacet
  facet normal -0.5884676575660706 0.24304795265197754 0.7711247801780701
    outer loop
      vertex 3.0 6.414412498474121 17.0
      vertex 2.8288400173187256 6.0 17.0
      vertex 3.0 6.0 17.130617141723633
    endloop
  endfacet
  facet normal -0.41246297955513 -0.17035439610481262 -0.8949043154716492
    outer loop
      vertex 3.0 17.0 16.921112060546875
      vertex 3.0 16.585586547851562 17.0
      vertex 2.8288400173187256 17.0 17.0
    endloop
  endfacet
  facet normal -0.5884677171707153 -0.24304744601249695 0.7711248993873596
    outer loop
      vertex 3.0 17.0 17.130617141723633
      vertex 2.8288400173187256 17.0 17.0
      vertex 3.0 16.585586547851562 17.0
    endloop
  endfacet
  facet normal -0.4163852334022522 0.10230401903390884 -0.903414249420166
    outer loop
      vertex 3.0 17.69663429260254 17.0
      vertex 3.0 17.0 16.921112060546875
      vertex 2.8288400173187256 17.0 17.0
    endloop
  endfacet
  facet normal -0.6000300049781799 0.14742472767829895 0.7862759828567505
    outer loop
      vertex 3.0 17.69663429260254 17.0
      vertex 2.8288400173187256 17.0 17.0
      vertex 3.0 17.0 17.130617141723633
    endloop
  endfacet
  facet normal 0.23327523469924927 -0.1094181165099144 -0.9662351608276367
    outer loop
      vertex 3.0 6.0 16.921112060546875
      vertex 3.3267569541931152 6.0 17.0
      vertex 3.0 5.303366661071777 17.0
    endloop
  endfacet
  facet normal 0.3656800389289856 -0.17152279615402222 0.9147995114326477
    outer loop
      vertex 3.3267569541931152 6.0 17.0
      vertex 3.0 6.0 17.130617141723633
      vertex 3.0 5.303366661071777 17.0
    endloop
  endfacet
  facet normal 0.2307666540145874 0.18195544183254242 -0.9558445811271667
    outer loop
      vertex 3.0 6.414412498474121 17.0
      vertex 3.3267569541931152 6.0 17.0
      vertex 3.0 6.0 16.921112060546875
    endloop
  endfacet
  facet normal 0.3562374413013458 0.2808869481086731 0.8911775350570679
    outer loop
      vertex 3.3267569541931152 6.0 17.0
      vertex 3.0 6.414412498474121 17.0
      vertex 3.0 6.0 17.130617141723633
    endloop
  endfacet
  facet normal 0.2307666689157486 -0.18195503950119019 -0.9558447003364563
    outer loop
      vertex 3.0 17.0 16.921112060546875
      vertex 3.3267569541931152 17.0 17.0
      vertex 3.0 16.585586547851562 17.0
    endloop
  endfacet
  facet normal 0.3562374711036682 -0.28088632225990295 0.8911776542663574
    outer loop
      vertex 3.3267569541931152 17.0 17.0
      vertex 3.0 17.0 17.130617141723633
      vertex 3.0 16.585586547851562 17.0
    endloop
  endfacet
  facet normal 0.23327523469924927 0.10941796004772186 -0.9662351608276367
    outer loop
      vertex 3.0 17.69663429260254 17.0
      vertex 3.3267569541931152 17.0 17.0
      vertex 3.0 17.0 16.921112060546875
    endloop
  endfacet
  facet normal 0.365680068731308 0.17152255773544312 0.9147995114326477
    outer loop
      vertex 3.3267569541931152 17.0 17.0
      vertex 3.0 17.69663429260254 17.0
      vertex 3.0 17.0 17.130617141723633
    endloop
  endfacet
  facet normal -0.5474435687065125 -0.2772843837738037 -0.7895688414573669
    outer loop
      vertex 6.0 8.0 14.94588565826416
      vertex 6.0 7.845909118652344 15.0
      vertex 5.921951770782471 8.0 15.0
    endloop
  endfacet
  facet normal -0.47608625888824463 -0.2411413937807083 0.8456906676292419
    outer loop
      vertex 6.0 8.0 15.043937683105469
      vertex 5.921951770782471 8.0 15.0
      vertex 6.0 7.845909118652344 15.0
    endloop
  endfacet
  facet normal -0.5647396445274353 0.1327970027923584 -0.814514696598053
    outer loop
      vertex 6.0 8.33191204071045 15.0
      vertex 6.0 8.0 14.94588565826416
      vertex 5.921951770782471 8.0 15.0
    endloop
  endfacet
  facet normal -0.4873311221599579 0.11459460854530334 0.8656653761863708
    outer loop
      vertex 6.0 8.33191204071045 15.0
      vertex 5.921951770782471 8.0 15.0
      vertex 6.0 8.0 15.043937683105469
    endloop
  endfacet
  facet normal -0.5647396445274353 -0.1327970027923584 -0.814514696598053
    outer loop
      vertex 6.0 15.0 14.94588565826416
      vertex 6.0 14.66808795928955 15.0
      vertex 5.921951770782471 15.0 15.0
    endloop
  endfacet
  facet normal -0.4873311221599579 -0.11459460854530334 0.8656653761863708
    outer loop
      vertex 6.0 15.0 15.043937683105469
      vertex 5.921951770782471 15.0 15.0
      vertex 6.0 14.66808795928955 15.0
    endloop
  endfacet
  facet normal -0.5474435687065125 0.2772843837738037 -0.7895688414573669
    outer loop
      vertex 6.0 15.154090881347656 15.0
      vertex 6.0 15.0 14.94588565826416
      vertex 5.921951770782471 15.0 15.0
    endloop
  endfacet
  facet normal -0.47608625888824463 0.2411413937807083 0.8456906676292419
    outer loop
      vertex 6.0 15.154090881347656 15.0
      vertex 5.921951770782471 15.0 15.0
      vertex 6.0 15.0 15.043937683105469
    endloop
  endfacet
  facet normal -0.2218533456325531 -0.7460508346557617 -0.6278449296951294
    outer loop
      vertex 7.0 7.0 14.957135200500488
      vertex 7.0 6.963926792144775 15.0
      vertex 6.878692626953125 7.0 15.0
    endloop
  endfacet
  facet normal -0.2457006424665451 -0.8262447118759155 0.5069032907485962
    outer loop
      vertex 7.0 7.0 15.058798789978027
      vertex 6.878692626953125 7.0 15.0
      vertex 7.0 6.963926792144775 15.0
    endloop
  endfacet
  facet normal 0.5351581573486328 -0.2799050807952881 -0.7970313429832458
    outer loop
      vertex 6.0 7.845909118652344 15.0
      vertex 6.0 8.0 14.94588565826416
      vertex 6.080594539642334 8.0 15.0
    endloop
  endfacet
  facet normal -0.2795005738735199 0.5442607402801514 -0.7909865379333496
    outer loop
      vertex 6.878692626953125 7.0 15.0
      vertex 7.0 7.062296390533447 15.0
      vertex 7.0 7.0 14.957135200500488
    endloop
  endfacet
  facet normal -0.3324446678161621 0.6473567485809326 0.6858643293380737
    outer loop
      vertex 6.878692626953125 7.0 15.0
      vertex 7.0 7.0 15.058798789978027
      vertex 7.0 7.062296390533447 15.0
    endloop
  endfacet
  facet normal 0.4643288850784302 -0.2428591102361679 0.8517147898674011
    outer loop
      vertex 6.0 7.845909118652344 15.0
      vertex 6.080594539642334 8.0 15.0
      vertex 6.0 8.0 15.043937683105469
    endloop
  endfacet
  facet normal -0.6698924899101257 -0.17034569382667542 -0.7226523756980896
    outer loop
      vertex 7.0 9.0 13.922987937927246
      vertex 7.0 8.673294067382812 14.0
      vertex 6.916922569274902 9.0 14.0
    endloop
  endfacet
  facet normal 0.5524028539657593 0.13413387537002563 -0.8227145075798035
    outer loop
      vertex 6.0 8.0 14.94588565826416
      vertex 6.0 8.33191204071045 15.0
      vertex 6.080594539642334 8.0 15.0
    endloop
  endfacet
  facet normal -0.5986775159835815 -0.15223658084869385 0.786389946937561
    outer loop
      vertex 6.916922569274902 9.0 14.0
      vertex 7.0 8.673294067382812 14.0
      vertex 7.0 9.0 14.063246726989746
    endloop
  endfacet
  facet normal 0.4754585325717926 0.11545035243034363 0.8721297979354858
    outer loop
      vertex 6.080594539642334 8.0 15.0
      vertex 6.0 8.33191204071045 15.0
      vertex 6.0 8.0 15.043937683105469
    endloop
  endfacet
  facet normal -0.677996814250946 0.07335998117923737 -0.7313950061798096
    outer loop
      vertex 7.0 9.767806053161621 14.0
      vertex 7.0 9.0 13.922987937927246
      vertex 6.916922569274902 9.0 14.0
    endloop
  endfacet
  facet normal -0.6044411063194275 0.06540117412805557 0.793960690498352
    outer loop
      vertex 7.0 9.767806053161621 14.0
      vertex 6.916922569274902 9.0 14.0
      vertex 7.0 9.0 14.063246726989746
    endloop
  endfacet
  facet normal -0.677996814250946 -0.07335998117923737 -0.7313950061798096
    outer loop
      vertex 7.0 14.0 13.922987937927246
      vertex 7.0 13.232193946838379 14.0
      vertex 6.916922569274902 14.0 14.0
    endloop
  endfacet
  facet normal -0.6044411063194275 -0.06540117412805557 0.793960690498352
    outer loop
      vertex 7.0 14.0 14.063246726989746
      vertex 6.916922569274902 14.0 14.0
      vertex 7.0 13.232193946838379 14.0
    endloop
  endfacet
  facet normal -0.6698924899101257 0.17034569382667542 -0.7226523756980896
    outer loop
      vertex 7.0 14.326705932617188 14.0
      vertex 7.0 14.0 13.922987937927246
      vertex 6.916922569274902 14.0 14.0
    endloop
  endfacet
  facet normal 0.5524028539657593 -0.13413387537002563 -0.8227145075798035
    outer loop
      vertex 6.0 14.66808795928955 15.0
      vertex 6.0 15.0 14.94588565826416
      vertex 6.080594539642334 15.0 15.0
    endloop
  endfacet
  facet normal -0.5986775159835815 0.15223658084869385 0.786389946937561
    outer loop
      vertex 6.916922569274902 14.0 14.0
      vertex 7.0 14.0 14.063246726989746
      vertex 7.0 14.326705932617188 14.0
    endloop
  endfacet
  facet normal 0.4754585325717926 -0.11545035243034363 0.8721297979354858
    outer loop
      vertex 6.080594539642334 15.0 15.0
      vertex 6.0 15.0 15.043937683105469
      vertex 6.0 14.66808795928955 15.0
    endloop
  endfacet
  facet normal 0.5351581573486328 0.2799050807952881 -0.7970313429832458
    outer loop
      vertex 6.080594539642334 15.0 15.0
      vertex 6.0 15.0 14.94588565826416
      vertex 6.0 15.154090881347656 15.0
    endloop
  endfacet
  facet normal -0.27949991822242737 -0.5442636609077454 -0.7909846901893616
    outer loop
      vertex 7.0 15.937704086303711 15.0
      vertex 6.878692626953125 16.0 15.0
      vertex 7.0 16.0 14.957135200500488
    endloop
  endfacet
  facet normal 0.4643288850784302 0.2428591102361679 0.8517147898674011
    outer loop
      vertex 6.0 15.154090881347656 15.0
      vertex 6.0 15.0 15.043937683105469
      vertex 6.080594539642334 15.0 15.0
    endloop
  endfacet
  facet normal -0.33244359493255615 -0.6473596096038818 0.6858620643615723
    outer loop
      vertex 6.878692626953125 16.0 15.0
      vertex 7.0 15.937704086303711 15.0
      vertex 7.0 16.0 15.058798789978027
    endloop
  endfacet
  facet normal -0.22185498476028442 0.7460464239120483 -0.6278495192527771
    outer loop
      vertex 7.0 16.036073684692383 15.0
      vertex 7.0 16.0 14.957135200500488
      vertex 6.878692626953125 16.0 15.0
    endloop
  endfacet
  facet normal -0.2457028478384018 0.8262412548065186 0.5069078207015991
    outer loop
      vertex 7.0 16.036073684692383 15.0
      vertex 6.878692626953125 16.0 15.0
      vertex 7.0 16.0 15.058798789978027
    endloop
  endfacet
  facet normal -0.07990902662277222 -0.8282986283302307 -0.5545592308044434
    outer loop
      vertex 8.0 7.0 14.80202579498291
      vertex 8.0 6.867453098297119 15.0
      vertex 7.0 6.963926792144775 15.0
    endloop
  endfacet
  facet normal -0.09937908500432968 -0.7613298892974854 -0.6407031416893005
    outer loop
      vertex 8.0 7.0 14.80202579498291
      vertex 7.0 6.963926792144775 15.0
      vertex 7.0 7.0 14.957135200500488
    endloop
  endfacet
  facet normal -0.08195500075817108 -0.8495062589645386 0.5211742520332336
    outer loop
      vertex 7.0 7.0 15.058798789978027
      vertex 7.0 6.963926792144775 15.0
      vertex 8.0 6.867453098297119 15.0
    endloop
  endfacet
  facet normal -0.07442355901002884 -0.8158665895462036 0.5734307169914246
    outer loop
      vertex 7.0 7.0 15.058798789978027
      vertex 8.0 6.867453098297119 15.0
      vertex 8.0 7.0 15.18858528137207
    endloop
  endfacet
  facet normal -0.0902819111943245 0.8081233501434326 -0.5820531249046326
    outer loop
      vertex 8.0 7.14259147644043 15.0
      vertex 8.0 7.0 14.80202579498291
      vertex 7.0 7.0 14.957135200500488
    endloop
  endfacet
  facet normal -0.04546838626265526 0.5662661194801331 -0.8229674100875854
    outer loop
      vertex 8.0 7.14259147644043 15.0
      vertex 7.0 7.0 14.957135200500488
      vertex 7.0 7.062296390533447 15.0
    endloop
  endfacet
  facet normal -0.09396661818027496 0.6833600401878357 0.7240091562271118
    outer loop
      vertex 7.0 7.062296390533447 15.0
      vertex 7.0 7.0 15.058798789978027
      vertex 8.0 7.0 15.18858528137207
    endloop
  endfacet
  facet normal -0.06391673535108566 0.7960230112075806 0.6018820405006409
    outer loop
      vertex 7.0 7.062296390533447 15.0
      vertex 8.0 7.0 15.18858528137207
      vertex 8.0 7.14259147644043 15.0
    endloop
  endfacet
  facet normal -0.5873937010765076 -0.4173732399940491 -0.693374514579773
    outer loop
      vertex 8.0 9.0 12.892322540283203
      vertex 8.0 8.821117401123047 13.0
      vertex 7.872894763946533 9.0 13.0
    endloop
  endfacet
  facet normal 0.6864395141601562 -0.16684192419052124 -0.7077884674072266
    outer loop
      vertex 7.079407215118408 9.0 14.0
      vertex 7.0 8.673294067382812 14.0
      vertex 7.0 9.0 13.922987937927246
    endloop
  endfacet
  facet normal -0.639053225517273 -0.4540800452232361 0.6208239197731018
    outer loop
      vertex 8.0 9.0 13.130837440490723
      vertex 7.872894763946533 9.0 13.0
      vertex 8.0 8.821117401123047 13.0
    endloop
  endfacet
  facet normal 0.6159951090812683 -0.14972013235092163 0.7733911275863647
    outer loop
      vertex 7.079407215118408 9.0 14.0
      vertex 7.0 9.0 14.063246726989746
      vertex 7.0 8.673294067382812 14.0
    endloop
  endfacet
  facet normal -0.6390509009361267 0.15022248029708862 -0.7543521523475647
    outer loop
      vertex 8.0 9.540709495544434 13.0
      vertex 8.0 9.0 12.892322540283203
      vertex 7.872894763946533 9.0 13.0
    endloop
  endfacet
  facet normal 0.6944000124931335 0.07181549072265625 -0.7159965634346008
    outer loop
      vertex 7.0 9.0 13.922987937927246
      vertex 7.0 9.767806053161621 14.0
      vertex 7.079407215118408 9.0 14.0
    endloop
  endfacet
  facet normal -0.7072798609733582 0.16626113653182983 0.687104344367981
    outer loop
      vertex 7.872894763946533 9.0 13.0
      vertex 8.0 9.0 13.130837440490723
      vertex 8.0 9.540709495544434 13.0
    endloop
  endfacet
  facet normal 0.6217283010482788 0.06429971754550934 0.78058922290802
    outer loop
      vertex 7.079407215118408 9.0 14.0
      vertex 7.0 9.767806053161621 14.0
      vertex 7.0 9.0 14.063246726989746
    endloop
  endfacet
  facet normal -0.6390509009361267 -0.15022248029708862 -0.7543521523475647
    outer loop
      vertex 8.0 14.0 12.892322540283203
      vertex 8.0 13.459290504455566 13.0
      vertex 7.872894763946533 14.0 13.0
    endloop
  endfacet
  facet normal 0.6944000124931335 -0.07181549072265625 -0.7159965634346008
    outer loop
      vertex 7.079407215118408 14.0 14.0
      vertex 7.0 13.232193946838379 14.0
      vertex 7.0 14.0 13.922987937927246
    endloop
  endfacet
  facet normal -0.7072798609733582 -0.16626113653182983 0.687104344367981
    outer loop
      vertex 8.0 14.0 13.130837440490723
      vertex 7.872894763946533 14.0 13.0
      vertex 8.0 13.459290504455566 13.0
    endloop
  endfacet
  facet normal 0.6217283010482788 -0.06429971754550934 0.78058922290802
    outer loop
      vertex 7.079407215118408 14.0 14.0
      vertex 7.0 14.0 14.063246726989746
      vertex 7.0 13.232193946838379 14.0
    endloop
  endfacet
  facet normal -0.5873937010765076 0.4173732399940491 -0.693374514579773
    outer loop
      vertex 8.0 14.178882598876953 13.0
      vertex 8.0 14.0 12.892322540283203
      vertex 7.872894763946533 14.0 13.0
    endloop
  endfacet
  facet normal 0.6864395141601562 0.16684192419052124 -0.7077884674072266
    outer loop
      vertex 7.0 14.0 13.922987937927246
      vertex 7.0 14.326705932617188 14.0
      vertex 7.079407215118408 14.0 14.0
    endloop
  endfacet
  facet normal -0.639053225517273 0.4540800452232361 0.6208239197731018
    outer loop
      vertex 7.872894763946533 14.0 13.0
      vertex 8.0 14.0 13.130837440490723
      vertex 8.0 14.178882598876953 13.0
    endloop
  endfacet
  facet normal 0.6159951090812683 0.14972013235092163 0.7733911275863647
    outer loop
      vertex 7.079407215118408 14.0 14.0
      vertex 7.0 14.326705932617188 14.0
      vertex 7.0 14.0 14.063246726989746
    endloop
  endfacet
  facet normal -0.06501694023609161 -0.8097201585769653 -0.5832032561302185
    outer loop
      vertex 8.0 16.0 14.80202579498291
      vertex 8.0 15.85740852355957 15.0
      vertex 7.0 15.937704086303711 15.0
    endloop
  endfacet
  facet normal -0.12675119936466217 -0.5622833371162415 -0.8171728849411011
    outer loop
      vertex 8.0 16.0 14.80202579498291
      vertex 7.0 15.937704086303711 15.0
      vertex 7.0 16.0 14.957135200500488
    endloop
  endfacet
  facet normal -0.05503134801983833 -0.6853597164154053 0.726122260093689
    outer loop
      vertex 7.0 16.0 15.058798789978027
      vertex 7.0 15.937704086303711 15.0
      vertex 8.0 15.85740852355957 15.0
    endloop
  endfacet
  facet normal -0.07803750783205032 -0.7952215075492859 0.6012760400772095
    outer loop
      vertex 7.0 16.0 15.058798789978027
      vertex 8.0 15.85740852355957 15.0
      vertex 8.0 16.0 15.18858528137207
    endloop
  endfacet
  facet normal -0.08597400039434433 0.8278782367706299 -0.5542797446250916
    outer loop
      vertex 8.0 16.13254737854004 15.0
      vertex 8.0 16.0 14.80202579498291
      vertex 7.0 16.0 14.957135200500488
    endloop
  endfacet
  facet normal -0.07361304759979248 0.7630375027656555 -0.6421486735343933
    outer loop
      vertex 8.0 16.13254737854004 15.0
      vertex 7.0 16.0 14.957135200500488
      vertex 7.0 16.036073684692383 15.0
    endloop
  endfacet
  facet normal -0.06771455705165863 0.8504140973091125 0.5217381119728088
    outer loop
      vertex 7.0 16.036073684692383 15.0
      vertex 7.0 16.0 15.058798789978027
      vertex 8.0 16.0 15.18858528137207
    endloop
  endfacet
  facet normal -0.0786837562918663 0.8155980110168457 0.5732439756393433
    outer loop
      vertex 7.0 16.036073684692383 15.0
      vertex 8.0 16.0 15.18858528137207
      vertex 8.0 16.13254737854004 15.0
    endloop
  endfacet
  facet normal -0.0022429705131798983 -0.8571173548698425 -0.5151161551475525
    outer loop
      vertex 9.0 7.0 14.775096893310547
      vertex 9.0 6.8648362159729 15.0
      vertex 8.0 6.867453098297119 15.0
    endloop
  endfacet
  facet normal -0.014979897998273373 -0.8308627009391785 -0.5562758445739746
    outer loop
      vertex 9.0 7.0 14.775096893310547
      vertex 8.0 6.867453098297119 15.0
      vertex 8.0 7.0 14.80202579498291
    endloop
  endfacet
  facet normal -0.0021409615874290466 -0.8181336522102356 0.5750241279602051
    outer loop
      vertex 8.0 7.0 15.18858528137207
      vertex 8.0 6.867453098297119 15.0
      vertex 9.0 6.8648362159729 15.0
    endloop
  endfacet
  facet normal -0.0006607041577808559 -0.8144500851631165 0.5802332758903503
    outer loop
      vertex 8.0 7.0 15.18858528137207
      vertex 9.0 6.8648362159729 15.0
      vertex 9.0 7.0 15.18972396850586
    endloop
  endfacet
  facet normal -0.013730688020586967 0.8601318597793579 -0.5098867416381836
    outer loop
      vertex 9.0 7.133322715759277 15.0
      vertex 9.0 7.0 14.775096893310547
      vertex 8.0 7.0 14.80202579498291
    endloop
  endfacet
  facet normal 0.00752080325037241 0.8114140629768372 -0.5844232439994812
    outer loop
      vertex 9.0 7.133322715759277 15.0
      vertex 8.0 7.0 14.80202579498291
      vertex 8.0 7.14259147644043 15.0
    endloop
  endfacet
  facet normal -0.0006867581396363676 0.79765385389328 0.6031151413917542
    outer loop
      vertex 8.0 7.14259147644043 15.0
      vertex 8.0 7.0 15.18858528137207
      vertex 9.0 7.0 15.18972396850586
    endloop
  endfacet
  facet normal 0.007583345286548138 0.8181617259979248 0.5749381184577942
    outer loop
      vertex 8.0 7.14259147644043 15.0
      vertex 9.0 7.0 15.18972396850586
      vertex 9.0 7.133322715759277 15.0
    endloop
  endfacet
  facet normal 0.43960362672805786 -0.4632158875465393 -0.7695321440696716
    outer loop
      vertex 8.0 9.0 12.892322540283203
      vertex 8.188490867614746 9.0 13.0
      vertex 8.0 8.821117401123047 13.0
    endloop
  endfacet
  facet normal 0.48877808451652527 -0.5150316953659058 0.7041578888893127
    outer loop
      vertex 8.188490867614746 9.0 13.0
      vertex 8.0 9.0 13.130837440490723
      vertex 8.0 8.821117401123047 13.0
    endloop
  endfacet
  facet normal 0.4887758493423462 0.17038685083389282 -0.8556088209152222
    outer loop
      vertex 8.0 9.540709495544434 13.0
      vertex 8.188490867614746 9.0 13.0
      vertex 8.0 9.0 12.892322540283203
    endloop
  endfacet
  facet normal 0.5592798590660095 0.1949644833803177 0.805726170539856
    outer loop
      vertex 8.188490867614746 9.0 13.0
      vertex 8.0 9.540709495544434 13.0
      vertex 8.0 9.0 13.130837440490723
    endloop
  endfacet
  facet normal 0.4887758493423462 -0.17038685083389282 -0.8556088209152222
    outer loop
      vertex 8.0 14.0 12.892322540283203
      vertex 8.188490867614746 14.0 13.0
      vertex 8.0 13.459290504455566 13.0
    endloop
  endfacet
  facet normal 0.5592798590660095 -0.1949644833803177 0.805726170539856
    outer loop
      vertex 8.188490867614746 14.0 13.0
      vertex 8.0 14.0 13.130837440490723
      vertex 8.0 13.459290504455566 13.0
    endloop
  endfacet
  facet normal 0.43960362672805786 0.4632158875465393 -0.7695321440696716
    outer loop
      vertex 8.0 14.178882598876953 13.0
      vertex 8.188490867614746 14.0 13.0
      vertex 8.0 14.0 12.892322540283203
    endloop
  endfacet
  facet normal 0.48877808451652527 0.5150316953659058 0.7041578888893127
    outer loop
      vertex 8.188490867614746 14.0 13.0
      vertex 8.0 14.178882598876953 13.0
      vertex 8.0 14.0 13.130837440490723
    endloop
  endfacet
  facet normal 0.007972857914865017 -0.8601856827735901 -0.5099186897277832
    outer loop
      vertex 9.0 16.0 14.775096893310547
      vertex 9.0 15.866677284240723 15.0
      vertex 8.0 15.85740852355957 15.0
    endloop
  endfacet
  facet normal -0.015736373141407967 -0.8113365769386292 -0.5843674540519714
    outer loop
      vertex 9.0 16.0 14.775096893310547
      vertex 8.0 15.85740852355957 15.0
      vertex 8.0 16.0 14.80202579498291
    endloop
  endfacet
  facet normal 0.007393066305667162 -0.7976322770118713 0.6030988097190857
    outer loop
      vertex 8.0 16.0 15.18858528137207
      vertex 8.0 15.85740852355957 15.0
      vertex 9.0 15.866677284240723 15.0
    endloop
  endfacet
  facet normal -0.0006546932854689658 -0.8181850910186768 0.5749545097351074
    outer loop
      vertex 8.0 16.0 15.18858528137207
      vertex 9.0 15.866677284240723 15.0
      vertex 9.0 16.0 15.18972396850586
    endloop
  endfacet
  facet normal -0.013870247639715672 0.857036292552948 -0.5150692462921143
    outer loop
      vertex 9.0 16.135164260864258 15.0
      vertex 9.0 16.0 14.775096893310547
      vertex 8.0 16.0 14.80202579498291
    endloop
  endfacet
  facet normal -0.0021745061967521906 0.8309530019760132 -0.5563383102416992
    outer loop
      vertex 9.0 16.135164260864258 15.0
      vertex 8.0 16.0 14.80202579498291
      vertex 8.0 16.13254737854004 15.0
    endloop
  endfacet
  facet normal -0.0006547680241055787 0.8181344270706177 0.5750266909599304
    outer loop
      vertex 8.0 16.13254737854004 15.0
      vertex 8.0 16.0 15.18858528137207
      vertex 9.0 16.0 15.18972396850586
    endloop
  endfacet
  facet normal -0.0021313130855560303 0.8144474625587463 0.5802333950996399
    outer loop
      vertex 8.0 16.13254737854004 15.0
      vertex 9.0 16.0 15.18972396850586
      vertex 9.0 16.135164260864258 15.0
    endloop
  endfacet
  facet normal 0.001526247477158904 -0.8627427816390991 -0.5056407451629639
    outer loop
      vertex 10.0 7.0 14.7723970413208
      vertex 10.0 6.866605281829834 15.0
      vertex 9.0 6.8648362159729 15.0
    endloop
  endfacet
  facet normal -0.0013907396933063865 -0.8571187257766724 -0.5151169896125793
    outer loop
      vertex 10.0 7.0 14.7723970413208
      vertex 9.0 6.8648362159729 15.0
      vertex 9.0 7.0 14.775096893310547
    endloop
  endfacet
  facet normal 0.0014408128336071968 -0.8144494295120239 0.5802327990531921
    outer loop
      vertex 9.0 7.0 15.18972396850586
      vertex 9.0 6.8648362159729 15.0
      vertex 10.0 6.866605281829834 15.0
    endloop
  endfacet
  facet normal 0.0014694065321236849 -0.8143778443336487 0.5803331732749939
    outer loop
      vertex 9.0 7.0 15.18972396850586
      vertex 10.0 6.866605281829834 15.0
      vertex 10.0 7.0 15.1871919631958
    endloop
  endfacet
  facet normal -0.1163577139377594 -0.8675534725189209 -0.48354101181030273
    outer loop
      vertex 10.0 8.0 12.94919204711914
      vertex 10.0 7.971681594848633 13.0
      vertex 9.788860321044922 8.0 13.0
    endloop
  endfacet
  facet normal -0.12728999555110931 -0.9490636587142944 0.28822803497314453
    outer loop
      vertex 10.0 8.0 13.093245506286621
      vertex 9.788860321044922 8.0 13.0
      vertex 10.0 7.971681594848633 13.0
    endloop
  endfacet
  facet normal -0.0013413230190053582 0.8678568005561829 -0.49681249260902405
    outer loop
      vertex 10.0 7.130293369293213 15.0
      vertex 10.0 7.0 14.7723970413208
      vertex 9.0 7.0 14.775096893310547
    endloop
  endfacet
  facet normal 0.0026058745570480824 0.860210120677948 -0.5099331140518188
    outer loop
      vertex 10.0 7.130293369293213 15.0
      vertex 9.0 7.0 14.775096893310547
      vertex 9.0 7.133322715759277 15.0
    endloop
  endfacet
  facet normal 0.001455782214179635 0.8181843757629395 0.5749540328979492
    outer loop
      vertex 9.0 7.133322715759277 15.0
      vertex 9.0 7.0 15.18972396850586
      vertex 10.0 7.0 15.1871919631958
    endloop
  endfacet
  facet normal 0.0024863448925316334 0.8207528591156006 0.5712780356407166
    outer loop
      vertex 9.0 7.133322715759277 15.0
      vertex 10.0 7.0 15.1871919631958
      vertex 10.0 7.130293369293213 15.0
    endloop
  endfacet
  facet normal -0.1424257457256317 0.7933500409126282 -0.5918704867362976
    outer loop
      vertex 10.0 8.037904739379883 13.0
      vertex 10.0 8.0 12.94919204711914
      vertex 9.788860321044922 8.0 13.0
    endloop
  endfacet
  facet normal -0.16405534744262695 0.9138327836990356 0.3714773654937744
    outer loop
      vertex 10.0 8.037904739379883 13.0
      vertex 9.788860321044922 8.0 13.0
      vertex 10.0 8.0 13.093245506286621
    endloop
  endfacet
  facet normal -0.1424257457256317 -0.7933500409126282 -0.5918704867362976
    outer loop
      vertex 10.0 15.0 12.94919204711914
      vertex 10.0 14.962095260620117 13.0
      vertex 9.788860321044922 15.0 13.0
    endloop
  endfacet
  facet normal -0.16405534744262695 -0.9138327836990356 0.3714773654937744
    outer loop
      vertex 10.0 15.0 13.093245506286621
      vertex 9.788860321044922 15.0 13.0
      vertex 10.0 14.962095260620117 13.0
    endloop
  endfacet
  facet normal -0.1163577139377594 0.8675534725189209 -0.48354101181030273
    outer loop
      vertex 10.0 15.028318405151367 13.0
      vertex 10.0 15.0 12.94919204711914
      vertex 9.788860321044922 15.0 13.0
    endloop
  endfacet
  facet normal -0.12728999555110931 0.9490636587142944 0.28822803497314453
    outer loop
      vertex 10.0 15.028318405151367 13.0
      vertex 9.788860321044922 15.0 13.0
      vertex 10.0 15.0 13.093245506286621
    endloop
  endfacet
  facet normal 0.002628616988658905 -0.8678538799285889 -0.4968126118183136
    outer loop
      vertex 10.0 16.0 14.7723970413208
      vertex 10.0 15.869706153869629 15.0
      vertex 9.0 15.866677284240723 15.0
    endloop
  endfacet
  facet normal -0.0013767473865300417 -0.8602121472358704 -0.5099343657493591
    outer loop
      vertex 10.0 16.0 14.7723970413208
      vertex 9.0 15.866677284240723 15.0
      vertex 9.0 16.0 14.775096893310547
    endloop
  endfacet
  facet normal 0.0024781653191894293 -0.8181827068328857 0.5749529004096985
    outer loop
      vertex 9.0 16.0 15.18972396850586
      vertex 9.0 15.866677284240723 15.0
      vertex 10.0 15.869706153869629 15.0
    endloop
  endfacet
  facet normal 0.0014464856358245015 -0.8207535743713379 0.5712805986404419
    outer loop
      vertex 9.0 16.0 15.18972396850586
      vertex 10.0 15.869706153869629 15.0
      vertex 10.0 16.0 15.1871919631958
    endloop
  endfacet
  facet normal -0.001365150325000286 0.8627437353134155 -0.5056394934654236
    outer loop
      vertex 10.0 16.133394241333008 15.0
      vertex 10.0 16.0 14.7723970413208
      vertex 9.0 16.0 14.775096893310547
    endloop
  endfacet
  facet normal 0.0015171151608228683 0.857117772102356 -0.5151182413101196
    outer loop
      vertex 10.0 16.133394241333008 15.0
      vertex 9.0 16.0 14.775096893310547
      vertex 9.0 16.135164260864258 15.0
    endloop
  endfacet
  facet normal 0.0014691567048430443 0.814448356628418 0.5802341103553772
    outer loop
      vertex 9.0 16.135164260864258 15.0
      vertex 9.0 16.0 15.18972396850586
      vertex 10.0 16.0 15.1871919631958
    endloop
  endfacet
  facet normal 0.001441466505639255 0.8143789172172546 0.5803318619728088
    outer loop
      vertex 9.0 16.135164260864258 15.0
      vertex 10.0 16.0 15.1871919631958
      vertex 10.0 16.133394241333008 15.0
    endloop
  endfacet
  facet normal 4.973944305675104e-05 -0.8693180084228516 -0.49425309896469116
    outer loop
      vertex 11.0 7.0 14.76547908782959
      vertex 11.0 6.866662502288818 15.0
      vertex 10.0 6.866605281829834 15.0
    endloop
  endfacet
  facet normal -0.0034979816991835833 -0.8627384901046753 -0.5056382417678833
    outer loop
      vertex 11.0 7.0 14.76547908782959
      vertex 10.0 6.866605281829834 15.0
      vertex 10.0 7.0 14.7723970413208
    endloop
  endfacet
  facet normal 4.660287595470436e-05 -0.8143787384033203 0.5803337693214417
    outer loop
      vertex 10.0 7.0 15.1871919631958
      vertex 10.0 6.866605281829834 15.0
      vertex 11.0 6.866662502288818 15.0
    endloop
  endfacet
  facet normal 4.648972026188858e-05 -0.8143789768218994 0.580333411693573
    outer loop
      vertex 10.0 7.0 15.1871919631958
      vertex 11.0 6.866662502288818 15.0
      vertex 11.0 7.0 15.187111854553223
    endloop
  endfacet
  facet normal -0.06006736680865288 -0.7051989436149597 -0.7064604163169861
    outer loop
      vertex 11.0 8.0 12.886706352233887
      vertex 11.0 7.88650369644165 13.0
      vertex 10.0 7.971681594848633 13.0
    endloop
  endfacet
  facet normal -0.030406968668103218 -0.8730828166007996 -0.4866228699684143
    outer loop
      vertex 11.0 8.0 12.886706352233887
      vertex 10.0 7.971681594848633 13.0
      vertex 10.0 8.0 12.94919204711914
    endloop
  endfacet
  facet normal -0.08123287558555603 -0.9536848664283752 0.2896314859390259
    outer loop
      vertex 10.0 8.0 13.093245506286621
      vertex 10.0 7.971681594848633 13.0
      vertex 11.0 7.88650369644165 13.0
    endloop
  endfacet
  facet normal -0.03615520894527435 -0.8050336241722107 0.5921264290809631
    outer loop
      vertex 10.0 8.0 13.093245506286621
      vertex 11.0 7.88650369644165 13.0
      vertex 11.0 8.0 13.154305458068848
    endloop
  endfacet
  facet normal -0.0033578004222363234 0.874299943447113 -0.4853743612766266
    outer loop
      vertex 11.0 7.1301960945129395 15.0
      vertex 11.0 7.0 14.76547908782959
      vertex 10.0 7.0 14.7723970413208
    endloop
  endfacet
  facet normal 8.442065882263705e-05 0.8678576350212097 -0.49681293964385986
    outer loop
      vertex 11.0 7.1301960945129395 15.0
      vertex 10.0 7.0 14.7723970413208
      vertex 10.0 7.130293369293213 15.0
    endloop
  endfacet
  facet normal 4.576724677463062e-05 0.8207554221153259 0.5712798237800598
    outer loop
      vertex 10.0 7.130293369293213 15.0
      vertex 10.0 7.0 15.1871919631958
      vertex 11.0 7.0 15.187111854553223
    endloop
  endfacet
  facet normal 7.984710100572556e-05 0.8208407759666443 0.5711570978164673
    outer loop
      vertex 10.0 7.130293369293213 15.0
      vertex 11.0 7.0 15.187111854553223
      vertex 11.0 7.1301960945129395 15.0
    endloop
  endfacet
  facet normal -0.029795750975608826 0.8784842491149902 -0.47684118151664734
    outer loop
      vertex 11.0 8.061495780944824 13.0
      vertex 11.0 8.0 12.886706352233887
      vertex 10.0 8.0 12.94919204711914
    endloop
  endfacet
  facet normal -0.018905339762568474 0.8013779520988464 -0.5978596210479736
    outer loop
      vertex 11.0 8.061495780944824 13.0
      vertex 10.0 8.0 12.94919204711914
      vertex 10.0 8.037904739379883 13.0
    endloop
  endfacet
  facet normal -0.022987857460975647 0.9261394739151001 0.3764801025390625
    outer loop
      vertex 10.0 8.037904739379883 13.0
      vertex 10.0 8.0 13.093245506286621
      vertex 11.0 8.0 13.154305458068848
    endloop
  endfacet
  facet normal -0.021909542381763458 0.9287229776382446 0.37012654542922974
    outer loop
      vertex 10.0 8.037904739379883 13.0
      vertex 11.0 8.0 13.154305458068848
      vertex 11.0 8.061495780944824 13.0
    endloop
  endfacet
  facet normal -0.02072910964488983 -0.8786856532096863 -0.4769504964351654
    outer loop
      vertex 11.0 15.0 12.886706352233887
      vertex 11.0 14.938504219055176 13.0
      vertex 10.0 14.962095260620117 13.0
    endloop
  endfacet
  facet normal -0.037338290363550186 -0.8009622097015381 -0.5975494384765625
    outer loop
      vertex 11.0 15.0 12.886706352233887
      vertex 10.0 14.962095260620117 13.0
      vertex 10.0 15.0 12.94919204711914
    endloop
  endfacet
  facet normal -0.021849151700735092 -0.9261631369590759 0.37648969888687134
    outer loop
      vertex 10.0 15.0 13.093245506286621
      vertex 10.0 14.962095260620117 13.0
      vertex 11.0 14.938504219055176 13.0
    endloop
  endfacet
  facet normal -0.022599559277296066 -0.9287086725234985 0.3701208233833313
    outer loop
      vertex 10.0 15.0 13.093245506286621
      vertex 11.0 14.938504219055176 13.0
      vertex 11.0 15.0 13.154305458068848
    endloop
  endfacet
  facet normal -0.0441802516579628 0.7057862877845764 -0.7070457935333252
    outer loop
      vertex 11.0 15.113495826721191 13.0
      vertex 11.0 15.0 12.886706352233887
      vertex 10.0 15.0 12.94919204711914
    endloop
  endfacet
  facet normal -0.07419626414775848 0.8710790872573853 -0.4855060875415802
    outer loop
      vertex 11.0 15.113495826721191 13.0
      vertex 10.0 15.0 12.94919204711914
      vertex 10.0 15.028318405151367 13.0
    endloop
  endfacet
  facet normal -0.017740732058882713 0.9566965699195862 0.29054611921310425
    outer loop
      vertex 10.0 15.028318405151367 13.0
      vertex 10.0 15.0 13.093245506286621
      vertex 11.0 15.0 13.154305458068848
    endloop
  endfacet
  facet normal -0.06845469027757645 0.8036718368530273 0.5911223292350769
    outer loop
      vertex 10.0 15.028318405151367 13.0
      vertex 11.0 15.0 13.154305458068848
      vertex 11.0 15.113495826721191 13.0
    endloop
  endfacet
  facet normal 8.50503784022294e-05 -0.8743041157722473 -0.4853784441947937
    outer loop
      vertex 11.0 16.0 14.76547908782959
      vertex 11.0 15.869803428649902 15.0
      vertex 10.0 15.869706153869629 15.0
    endloop
  endfacet
  facet normal -0.003436917904764414 -0.8678516745567322 -0.4968113601207733
    outer loop
      vertex 11.0 16.0 14.76547908782959
      vertex 10.0 15.869706153869629 15.0
      vertex 10.0 16.0 14.7723970413208
    endloop
  endfacet
  facet normal 7.983941759448498e-05 -0.8207544088363647 0.5712811946868896
    outer loop
      vertex 10.0 16.0 15.1871919631958
      vertex 10.0 15.869706153869629 15.0
      vertex 11.0 15.869803428649902 15.0
    endloop
  endfacet
  facet normal 4.5754732127534226e-05 -0.8208397626876831 0.5711585283279419
    outer loop
      vertex 10.0 16.0 15.1871919631958
      vertex 11.0 15.869803428649902 15.0
      vertex 11.0 16.0 15.187111854553223
    endloop
  endfacet
  facet normal -0.003419196931645274 0.869313657283783 -0.4942488670349121
    outer loop
      vertex 11.0 16.133337020874023 15.0
      vertex 11.0 16.0 14.76547908782959
      vertex 10.0 16.0 14.7723970413208
    endloop
  endfacet
  facet normal 4.936663754051551e-05 0.8627445101737976 -0.5056399703025818
    outer loop
      vertex 11.0 16.133337020874023 15.0
      vertex 10.0 16.0 14.7723970413208
      vertex 10.0 16.133394241333008 15.0
    endloop
  endfacet
  facet normal 4.648948379326612e-05 0.8143796920776367 0.5803323984146118
    outer loop
      vertex 10.0 16.133394241333008 15.0
      vertex 10.0 16.0 15.1871919631958
      vertex 11.0 16.0 15.187111854553223
    endloop
  endfacet
  facet normal 4.659919795813039e-05 0.8143799901008606 0.5803320407867432
    outer loop
      vertex 10.0 16.133394241333008 15.0
      vertex 11.0 16.0 15.187111854553223
      vertex 11.0 16.133337020874023 15.0
    endloop
  endfacet
  facet normal 0.0 -0.8693180084228516 -0.49425309896469116
    outer loop
      vertex 12.0 7.0 14.76547908782959
      vertex 12.0 6.866662502288818 15.0
      vertex 11.0 6.866662502288818 15.0
    endloop
  endfacet
  facet normal -0.0 -0.8693180084228516 -0.49425309896469116
    outer loop
      vertex 12.0 7.0 14.76547908782959
      vertex 11.0 6.866662502288818 15.0
      vertex 11.0 7.0 14.76547908782959
    endloop
  endfacet
  facet normal 0.0 -0.8143789768218994 0.580333411693573
    outer loop
      vertex 11.0 7.0 15.187111854553223
      vertex 11.0 6.866662502288818 15.0
      vertex 12.0 6.866662502288818 15.0
    endloop
  endfacet
  facet normal 0.0 -0.8143789768218994 0.580333411693573
    outer loop
      vertex 11.0 7.0 15.187111854553223
      vertex 12.0 6.866662502288818 15.0
      vertex 12.0 7.0 15.187111854553223
    endloop
  endfacet
  facet normal 0.0 -0.7064746618270874 -0.7077383399009705
    outer loop
      vertex 12.0 8.0 12.886706352233887
      vertex 12.0 7.88650369644165 13.0
      vertex 11.0 7.88650369644165 13.0
    endloop
  endfacet
  facet normal -0.0 -0.7064746618270874 -0.7077383399009705
    outer loop
      vertex 12.0 8.0 12.886706352233887
      vertex 11.0 7.88650369644165 13.0
      vertex 11.0 8.0 12.886706352233887
    endloop
  endfacet
  facet normal 0.0 -0.805560290813446 0.5925137996673584
    outer loop
      vertex 11.0 8.0 13.154305458068848
      vertex 11.0 7.88650369644165 13.0
      vertex 12.0 7.88650369644165 13.0
    endloop
  endfacet
  facet normal 0.0 -0.805560290813446 0.5925137996673584
    outer loop
      vertex 11.0 8.0 13.154305458068848
      vertex 12.0 7.88650369644165 13.0
      vertex 12.0 8.0 13.154305458068848
    endloop
  endfacet
  facet normal 0.0 0.8743048906326294 -0.48537710309028625
    outer loop
      vertex 12.0 7.1301960945129395 15.0
      vertex 12.0 7.0 14.76547908782959
      vertex 11.0 7.0 14.76547908782959
    endloop
  endfacet
  facet normal 0.0 0.8743048906326294 -0.48537710309028625
    outer loop
      vertex 12.0 7.1301960945129395 15.0
      vertex 11.0 7.0 14.76547908782959
      vertex 11.0 7.1301960945129395 15.0
    endloop
  endfacet
  facet normal 0.0 0.8208407759666443 0.5711570978164673
    outer loop
      vertex 11.0 7.1301960945129395 15.0
      vertex 11.0 7.0 15.187111854553223
      vertex 12.0 7.0 15.187111854553223
    endloop
  endfacet
  facet normal -0.0 0.8208407759666443 0.5711570978164673
    outer loop
      vertex 11.0 7.1301960945129395 15.0
      vertex 12.0 7.0 15.187111854553223
      vertex 12.0 7.1301960945129395 15.0
    endloop
  endfacet
  facet normal 0.0 0.8788744807243347 -0.4770529866218567
    outer loop
      vertex 12.0 8.061495780944824 13.0
      vertex 12.0 8.0 12.886706352233887
      vertex 11.0 8.0 12.886706352233887
    endloop
  endfacet
  facet normal 0.0 0.8788744807243347 -0.4770529866218567
    outer loop
      vertex 12.0 8.061495780944824 13.0
      vertex 11.0 8.0 12.886706352233887
      vertex 11.0 8.061495780944824 13.0
    endloop
  endfacet
  facet normal 0.0 0.9289458990097046 0.37021538615226746
    outer loop
      vertex 11.0 8.061495780944824 13.0
      vertex 11.0 8.0 13.154305458068848
      vertex 12.0 8.0 13.154305458068848
    endloop
  endfacet
  facet normal -0.0 0.9289458990097046 0.37021538615226746
    outer loop
      vertex 11.0 8.061495780944824 13.0
      vertex 12.0 8.0 13.154305458068848
      vertex 12.0 8.061495780944824 13.0
    endloop
  endfacet
  facet normal 0.0 -0.8788744807243347 -0.4770529866218567
    outer loop
      vertex 12.0 15.0 12.886706352233887
      vertex 12.0 14.938504219055176 13.0
      vertex 11.0 14.938504219055176 13.0
    endloop
  endfacet
  facet normal -0.0 -0.8788744807243347 -0.4770529866218567
    outer loop
      vertex 12.0 15.0 12.886706352233887
      vertex 11.0 14.938504219055176 13.0
      vertex 11.0 15.0 12.886706352233887
    endloop
  endfacet
  facet normal 0.0 -0.9289458990097046 0.37021538615226746
    outer loop
      vertex 11.0 15.0 13.154305458068848
      vertex 11.0 14.938504219055176 13.0
      vertex 12.0 14.938504219055176 13.0
    endloop
  endfacet
  facet normal 0.0 -0.9289458990097046 0.37021538615226746
    outer loop
      vertex 11.0 15.0 13.154305458068848
      vertex 12.0 14.938504219055176 13.0
      vertex 12.0 15.0 13.154305458068848
    endloop
  endfacet
  facet normal 0.0 0.7064761519432068 -0.7077369093894958
    outer loop
      vertex 12.0 15.113495826721191 13.0
      vertex 12.0 15.0 12.886706352233887
      vertex 11.0 15.0 12.886706352233887
    endloop
  endfacet
  facet normal 0.0 0.7064761519432068 -0.7077369093894958
    outer loop
      vertex 12.0 15.113495826721191 13.0
      vertex 11.0 15.0 12.886706352233887
      vertex 11.0 15.113495826721191 13.0
    endloop
  endfacet
  facet normal 0.0 0.8055614829063416 0.5925121903419495
    outer loop
      vertex 11.0 15.113495826721191 13.0
      vertex 11.0 15.0 13.154305458068848
      vertex 12.0 15.0 13.154305458068848
    endloop
  endfacet
  facet normal -0.0 0.8055614829063416 0.5925121903419495
    outer loop
      vertex 11.0 15.113495826721191 13.0
      vertex 12.0 15.0 13.154305458068848
      vertex 12.0 15.113495826721191 13.0
    endloop
  endfacet
  facet normal 0.0 -0.8743041157722473 -0.4853784441947937
    outer loop
      vertex 12.0 16.0 14.76547908782959
      vertex 12.0 15.869803428649902 15.0
      vertex 11.0 15.869803428649902 15.0
    endloop
  endfacet
  facet normal -0.0 -0.8743041157722473 -0.4853784441947937
    outer loop
      vertex 12.0 16.0 14.76547908782959
      vertex 11.0 15.869803428649902 15.0
      vertex 11.0 16.0 14.76547908782959
    endloop
  endfacet
  facet normal 0.0 -0.8208397626876831 0.5711585283279419
    outer loop
      vertex 11.0 16.0 15.187111854553223
      vertex 11.0 15.869803428649902 15.0
      vertex 12.0 15.869803428649902 15.0
    endloop
  endfacet
  facet normal 0.0 -0.8208397626876831 0.5711585283279419
    outer loop
      vertex 11.0 16.0 15.187111854553223
      vertex 12.0 15.869803428649902 15.0
      vertex 12.0 16.0 15.187111854553223
    endloop
  endfacet
  facet normal 0.0 0.8693187832832336 -0.4942517578601837
    outer loop
      vertex 12.0 16.133337020874023 15.0
      vertex 12.0 16.0 14.76547908782959
      vertex 11.0 16.0 14.76547908782959
    endloop
  endfacet
  facet normal 0.0 0.8693187832832336 -0.4942517578601837
    outer loop
      vertex 12.0 16.133337020874023 15.0
      vertex 11.0 16.0 14.76547908782959
      vertex 11.0 16.133337020874023 15.0
    endloop
  endfacet
  facet normal 0.0 0.8143799901008606 0.5803320407867432
    outer loop
      vertex 11.0 16.133337020874023 15.0
      vertex 11.0 16.0 15.187111854553223
      vertex 12.0 16.0 15.187111854553223
    endloop
  endfacet
  facet normal -0.0 0.8143799901008606 0.5803320407867432
    outer loop
      vertex 11.0 16.133337020874023 15.0
      vertex 12.0 16.0 15.187111854553223
      vertex 12.0 16.133337020874023 15.0
    endloop
  endfacet
  facet normal -4.936685581924394e-05 -0.8627437353134155 -0.5056413412094116
    outer loop
      vertex 13.0 7.0 14.7723970413208
      vertex 13.0 6.866605281829834 15.0
      vertex 12.0 6.866662502288818 15.0
    endloop
  endfacet
  facet normal 0.003419200424104929 -0.8693130016326904 -0.49425023794174194
    outer loop
      vertex 13.0 7.0 14.7723970413208
      vertex 12.0 6.866662502288818 15.0
      vertex 12.0 7.0 14.76547908782959
    endloop
  endfacet
  facet normal -4.659852129407227e-05 -0.8143789768218994 0.580333411693573
    outer loop
      vertex 12.0 7.0 15.187111854553223
      vertex 12.0 6.866662502288818 15.0
      vertex 13.0 6.866605281829834 15.0
    endloop
  endfacet
  facet normal -4.648975300369784e-05 -0.8143787384033203 0.5803337693214417
    outer loop
      vertex 12.0 7.0 15.187111854553223
      vertex 13.0 6.866605281829834 15.0
      vertex 13.0 7.0 15.1871919631958
    endloop
  endfacet
  facet normal 0.07419668138027191 -0.8710790276527405 -0.4855060577392578
    outer loop
      vertex 13.0 8.0 12.94919204711914
      vertex 13.0 7.971681594848633 13.0
      vertex 12.0 7.88650369644165 13.0
    endloop
  endfacet
  facet normal 0.044180337339639664 -0.705784797668457 -0.7070472836494446
    outer loop
      vertex 13.0 8.0 12.94919204711914
      vertex 12.0 7.88650369644165 13.0
      vertex 12.0 8.0 12.886706352233887
    endloop
  endfacet
  facet normal 0.06845496594905853 -0.8036705851554871 0.5911238789558411
    outer loop
      vertex 12.0 8.0 13.154305458068848
      vertex 12.0 7.88650369644165 13.0
      vertex 13.0 7.971681594848633 13.0
    endloop
  endfacet
  facet normal 0.017740732058882713 -0.9566965699195862 0.29054611921310425
    outer loop
      vertex 12.0 8.0 13.154305458068848
      vertex 13.0 7.971681594848633 13.0
      vertex 13.0 8.0 13.093245506286621
    endloop
  endfacet
  facet normal 0.003436909755691886 0.867852509021759 -0.4968099892139435
    outer loop
      vertex 13.0 7.130293369293213 15.0
      vertex 13.0 7.0 14.7723970413208
      vertex 12.0 7.0 14.76547908782959
    endloop
  endfacet
  facet normal -8.50478172651492e-05 0.8743048906326294 -0.48537710309028625
    outer loop
      vertex 13.0 7.130293369293213 15.0
      vertex 12.0 7.0 14.76547908782959
      vertex 12.0 7.1301960945129395 15.0
    endloop
  endfacet
  facet normal -4.575891944114119e-05 0.8208407759666443 0.5711570978164673
    outer loop
      vertex 12.0 7.1301960945129395 15.0
      vertex 12.0 7.0 15.187111854553223
      vertex 13.0 7.0 15.1871919631958
    endloop
  endfacet
  facet normal -7.983879913808778e-05 0.8207554221153259 0.5712798237800598
    outer loop
      vertex 12.0 7.1301960945129395 15.0
      vertex 13.0 7.0 15.1871919631958
      vertex 13.0 7.130293369293213 15.0
    endloop
  endfacet
  facet normal 0.037338290363550186 0.8009622097015381 -0.5975494384765625
    outer loop
      vertex 13.0 8.037904739379883 13.0
      vertex 13.0 8.0 12.94919204711914
      vertex 12.0 8.0 12.886706352233887
    endloop
  endfacet
  facet normal 0.02072910964488983 0.8786856532096863 -0.4769504964351654
    outer loop
      vertex 13.0 8.037904739379883 13.0
      vertex 12.0 8.0 12.886706352233887
      vertex 12.0 8.061495780944824 13.0
    endloop
  endfacet
  facet normal 0.022599561139941216 0.9287086725234985 0.3701208233833313
    outer loop
      vertex 12.0 8.061495780944824 13.0
      vertex 12.0 8.0 13.154305458068848
      vertex 13.0 8.0 13.093245506286621
    endloop
  endfacet
  facet normal 0.021849151700735092 0.9261631369590759 0.37648969888687134
    outer loop
      vertex 12.0 8.061495780944824 13.0
      vertex 13.0 8.0 13.093245506286621
      vertex 13.0 8.037904739379883 13.0
    endloop
  endfacet
  facet normal 0.018905341625213623 -0.8013779520988464 -0.5978596210479736
    outer loop
      vertex 13.0 15.0 12.94919204711914
      vertex 13.0 14.962095260620117 13.0
      vertex 12.0 14.938504219055176 13.0
    endloop
  endfacet
  facet normal 0.029795752838253975 -0.8784842491149902 -0.47684118151664734
    outer loop
      vertex 13.0 15.0 12.94919204711914
      vertex 12.0 14.938504219055176 13.0
      vertex 12.0 15.0 12.886706352233887
    endloop
  endfacet
  facet normal 0.021909542381763458 -0.9287229776382446 0.37012654542922974
    outer loop
      vertex 12.0 15.0 13.154305458068848
      vertex 12.0 14.938504219055176 13.0
      vertex 13.0 14.962095260620117 13.0
    endloop
  endfacet
  facet normal 0.022987857460975647 -0.9261394739151001 0.3764801025390625
    outer loop
      vertex 12.0 15.0 13.154305458068848
      vertex 13.0 14.962095260620117 13.0
      vertex 13.0 15.0 13.093245506286621
    endloop
  endfacet
  facet normal 0.030406968668103218 0.8730828166007996 -0.4866228699684143
    outer loop
      vertex 13.0 15.028318405151367 13.0
      vertex 13.0 15.0 12.94919204711914
      vertex 12.0 15.0 12.886706352233887
    endloop
  endfacet
  facet normal 0.060067158192396164 0.7052004337310791 -0.7064589262008667
    outer loop
      vertex 13.0 15.028318405151367 13.0
      vertex 12.0 15.0 12.886706352233887
      vertex 12.0 15.113495826721191 13.0
    endloop
  endfacet
  facet normal 0.03615511208772659 0.8050348162651062 0.5921248197555542
    outer loop
      vertex 12.0 15.113495826721191 13.0
      vertex 12.0 15.0 13.154305458068848
      vertex 13.0 15.0 13.093245506286621
    endloop
  endfacet
  facet normal 0.08123242110013962 0.9536848664283752 0.2896314859390259
    outer loop
      vertex 12.0 15.113495826721191 13.0
      vertex 13.0 15.0 13.093245506286621
      vertex 13.0 15.028318405151367 13.0
    endloop
  endfacet
  facet normal -8.441819227300584e-05 -0.8678568005561829 -0.4968143105506897
    outer loop
      vertex 13.0 16.0 14.7723970413208
      vertex 13.0 15.869706153869629 15.0
      vertex 12.0 15.869803428649902 15.0
    endloop
  endfacet
  facet normal 0.0033578069414943457 -0.8742992281913757 -0.4853757619857788
    outer loop
      vertex 13.0 16.0 14.7723970413208
      vertex 12.0 15.869803428649902 15.0
      vertex 12.0 16.0 14.76547908782959
    endloop
  endfacet
  facet normal -7.984921830939129e-05 -0.8208397626876831 0.5711585283279419
    outer loop
      vertex 12.0 16.0 15.187111854553223
      vertex 12.0 15.869803428649902 15.0
      vertex 13.0 15.869706153869629 15.0
    endloop
  endfacet
  facet normal -4.576456194627099e-05 -0.8207544088363647 0.5712811946868896
    outer loop
      vertex 12.0 16.0 15.187111854553223
      vertex 13.0 15.869706153869629 15.0
      vertex 13.0 16.0 15.1871919631958
    endloop
  endfacet
  facet normal 0.003497975179925561 0.8627392649650574 -0.5056368708610535
    outer loop
      vertex 13.0 16.133394241333008 15.0
      vertex 13.0 16.0 14.7723970413208
      vertex 12.0 16.0 14.76547908782959
    endloop
  endfacet
  facet normal -4.9742819101084024e-05 0.8693187832832336 -0.4942517578601837
    outer loop
      vertex 13.0 16.133394241333008 15.0
      vertex 12.0 16.0 14.76547908782959
      vertex 12.0 16.133337020874023 15.0
    endloop
  endfacet
  facet normal -4.6485081838909537e-05 0.8143799901008606 0.5803320407867432
    outer loop
      vertex 12.0 16.133337020874023 15.0
      vertex 12.0 16.0 15.187111854553223
      vertex 13.0 16.0 15.1871919631958
    endloop
  endfacet
  facet normal -4.6599179768236354e-05 0.8143796920776367 0.5803323984146118
    outer loop
      vertex 12.0 16.133337020874023 15.0
      vertex 13.0 16.0 15.1871919631958
      vertex 13.0 16.133394241333008 15.0
    endloop
  endfacet
  facet normal -0.0015162993222475052 -0.857118546962738 -0.5151168704032898
    outer loop
      vertex 14.0 7.0 14.775096893310547
      vertex 14.0 6.8648362159729 15.0
      vertex 13.0 6.866605281829834 15.0
    endloop
  endfacet
  facet normal 0.0013651554472744465 -0.8627429604530334 -0.5056408643722534
    outer loop
      vertex 14.0 7.0 14.775096893310547
      vertex 13.0 6.866605281829834 15.0
      vertex 13.0 7.0 14.7723970413208
    endloop
  endfacet
  facet normal -0.0014406845439225435 -0.8143779039382935 0.5803331732749939
    outer loop
      vertex 13.0 7.0 15.1871919631958
      vertex 13.0 6.866605281829834 15.0
      vertex 14.0 6.8648362159729 15.0
    endloop
  endfacet
  facet normal -0.0014691522810608149 -0.8144493699073792 0.5802327394485474
    outer loop
      vertex 13.0 7.0 15.1871919631958
      vertex 14.0 6.8648362159729 15.0
      vertex 14.0 7.0 15.18972396850586
    endloop
  endfacet
  facet normal 0.1163577139377594 -0.8675534725189209 -0.48354101181030273
    outer loop
      vertex 13.0 8.0 12.94919204711914
      vertex 13.211139678955078 8.0 13.0
      vertex 13.0 7.971681594848633 13.0
    endloop
  endfacet
  facet normal 0.12728999555110931 -0.9490636587142944 0.28822803497314453
    outer loop
      vertex 13.211139678955078 8.0 13.0
      vertex 13.0 8.0 13.093245506286621
      vertex 13.0 7.971681594848633 13.0
    endloop
  endfacet
  facet normal 0.001376750529743731 0.8602121472358704 -0.5099343657493591
    outer loop
      vertex 14.0 7.133322715759277 15.0
      vertex 14.0 7.0 14.775096893310547
      vertex 13.0 7.0 14.7723970413208
    endloop
  endfacet
  facet normal -0.0026290323585271835 0.867854654788971 -0.49681124091148376
    outer loop
      vertex 14.0 7.133322715759277 15.0
      vertex 13.0 7.0 14.7723970413208
      vertex 13.0 7.130293369293213 15.0
    endloop
  endfacet
  facet normal -0.0014464771375060081 0.8207545280456543 0.5712791681289673
    outer loop
      vertex 13.0 7.130293369293213 15.0
      vertex 13.0 7.0 15.1871919631958
      vertex 14.0 7.0 15.18972396850586
    endloop
  endfacet
  facet normal -0.002478559035807848 0.8181827068328857 0.5749529004096985
    outer loop
      vertex 13.0 7.130293369293213 15.0
      vertex 14.0 7.0 15.18972396850586
      vertex 14.0 7.133322715759277 15.0
    endloop
  endfacet
  facet normal 0.1424257457256317 0.7933500409126282 -0.5918704867362976
    outer loop
      vertex 13.0 8.037904739379883 13.0
      vertex 13.211139678955078 8.0 13.0
      vertex 13.0 8.0 12.94919204711914
    endloop
  endfacet
  facet normal 0.16405534744262695 0.9138327836990356 0.3714773654937744
    outer loop
      vertex 13.211139678955078 8.0 13.0
      vertex 13.0 8.037904739379883 13.0
      vertex 13.0 8.0 13.093245506286621
    endloop
  endfacet
  facet normal 0.1424257457256317 -0.7933500409126282 -0.5918704867362976
    outer loop
      vertex 13.0 15.0 12.94919204711914
      vertex 13.211139678955078 15.0 13.0
      vertex 13.0 14.962095260620117 13.0
    endloop
  endfacet
  facet normal 0.16405534744262695 -0.9138327836990356 0.3714773654937744
    outer loop
      vertex 13.211139678955078 15.0 13.0
      vertex 13.0 15.0 13.093245506286621
      vertex 13.0 14.962095260620117 13.0
    endloop
  endfacet
  facet normal 0.1163577139377594 0.8675534725189209 -0.48354101181030273
    outer loop
      vertex 13.0 15.028318405151367 13.0
      vertex 13.211139678955078 15.0 13.0
      vertex 13.0 15.0 12.94919204711914
    endloop
  endfacet
  facet normal 0.12728999555110931 0.9490636587142944 0.28822803497314453
    outer loop
      vertex 13.211139678955078 15.0 13.0
      vertex 13.0 15.028318405151367 13.0
      vertex 13.0 15.0 13.093245506286621
    endloop
  endfacet
  facet normal -0.002605459652841091 -0.860210120677948 -0.5099331140518188
    outer loop
      vertex 14.0 16.0 14.775096893310547
      vertex 14.0 15.866677284240723 15.0
      vertex 13.0 15.869706153869629 15.0
    endloop
  endfacet
  facet normal 0.001341323833912611 -0.8678560256958008 -0.4968138337135315
    outer loop
      vertex 14.0 16.0 14.775096893310547
      vertex 13.0 15.869706153869629 15.0
      vertex 13.0 16.0 14.7723970413208
    endloop
  endfacet
  facet normal -0.0024859497789293528 -0.8207519054412842 0.5712794661521912
    outer loop
      vertex 13.0 16.0 15.1871919631958
      vertex 13.0 15.869706153869629 15.0
      vertex 14.0 15.866677284240723 15.0
    endloop
  endfacet
  facet normal -0.0014557866379618645 -0.8181843757629395 0.5749540328979492
    outer loop
      vertex 13.0 16.0 15.1871919631958
      vertex 14.0 15.866677284240723 15.0
      vertex 14.0 16.0 15.18972396850586
    endloop
  endfacet
  facet normal 0.0013907445827499032 0.8571179509162903 -0.5151183605194092
    outer loop
      vertex 14.0 16.135164260864258 15.0
      vertex 14.0 16.0 14.775096893310547
      vertex 13.0 16.0 14.7723970413208
    endloop
  endfacet
  facet normal -0.0015270729782059789 0.8627435564994812 -0.505639374256134
    outer loop
      vertex 14.0 16.135164260864258 15.0
      vertex 13.0 16.0 14.7723970413208
      vertex 13.0 16.133394241333008 15.0
    endloop
  endfacet
  facet normal -0.0014694047858938575 0.8143787980079651 0.5803317427635193
    outer loop
      vertex 13.0 16.133394241333008 15.0
      vertex 13.0 16.0 15.1871919631958
      vertex 14.0 16.0 15.18972396850586
    endloop
  endfacet
  facet normal -0.001441589673049748 0.8144484162330627 0.5802341103553772
    outer loop
      vertex 13.0 16.133394241333008 15.0
      vertex 14.0 16.0 15.18972396850586
      vertex 14.0 16.135164260864258 15.0
    endloop
  endfacet
  facet normal 0.0021745124831795692 -0.8309538960456848 -0.5563369393348694
    outer loop
      vertex 15.0 7.0 14.80202579498291
      vertex 15.0 6.867453098297119 15.0
      vertex 14.0 6.8648362159729 15.0
    endloop
  endfacet
  facet normal 0.01387021318078041 -0.8570370674133301 -0.5150679349899292
    outer loop
      vertex 15.0 7.0 14.80202579498291
      vertex 14.0 6.8648362159729 15.0
      vertex 14.0 7.0 14.775096893310547
    endloop
  endfacet
  facet normal 0.0021313114557415247 -0.814448356628418 0.5802320241928101
    outer loop
      vertex 14.0 7.0 15.18972396850586
      vertex 14.0 6.8648362159729 15.0
      vertex 15.0 6.867453098297119 15.0
    endloop
  endfacet
  facet normal 0.0006547739030793309 -0.8181353807449341 0.5750253200531006
    outer loop
      vertex 14.0 7.0 15.18972396850586
      vertex 15.0 6.867453098297119 15.0
      vertex 15.0 7.0 15.18858528137207
    endloop
  endfacet
  facet normal 0.015736373141407967 0.8113365769386292 -0.5843674540519714
    outer loop
      vertex 15.0 7.14259147644043 15.0
      vertex 15.0 7.0 14.80202579498291
      vertex 14.0 7.0 14.775096893310547
    endloop
  endfacet
  facet normal -0.007972855120897293 0.8601856827735901 -0.5099186897277832
    outer loop
      vertex 15.0 7.14259147644043 15.0
      vertex 14.0 7.0 14.775096893310547
      vertex 14.0 7.133322715759277 15.0
    endloop
  endfacet
  facet normal 0.0006546940421685576 0.8181850910186768 0.5749545097351074
    outer loop
      vertex 14.0 7.133322715759277 15.0
      vertex 14.0 7.0 15.18972396850586
      vertex 15.0 7.0 15.18858528137207
    endloop
  endfacet
  facet normal -0.0073930625803768635 0.7976322770118713 0.6030988097190857
    outer loop
      vertex 14.0 7.133322715759277 15.0
      vertex 15.0 7.0 15.18858528137207
      vertex 15.0 7.14259147644043 15.0
    endloop
  endfacet
  facet normal -0.43960362672805786 -0.4632158875465393 -0.7695321440696716
    outer loop
      vertex 15.0 9.0 12.892322540283203
      vertex 15.0 8.821117401123047 13.0
      vertex 14.811509132385254 9.0 13.0
    endloop
  endfacet
  facet normal -0.48877808451652527 -0.5150316953659058 0.7041578888893127
    outer loop
      vertex 15.0 9.0 13.130837440490723
      vertex 14.811509132385254 9.0 13.0
      vertex 15.0 8.821117401123047 13.0
    endloop
  endfacet
  facet normal -0.4887758493423462 0.17038685083389282 -0.8556088209152222
    outer loop
      vertex 15.0 9.540709495544434 13.0
      vertex 15.0 9.0 12.892322540283203
      vertex 14.811509132385254 9.0 13.0
    endloop
  endfacet
  facet normal -0.5592798590660095 0.1949644833803177 0.805726170539856
    outer loop
      vertex 15.0 9.540709495544434 13.0
      vertex 14.811509132385254 9.0 13.0
      vertex 15.0 9.0 13.130837440490723
    endloop
  endfacet
  facet normal -0.4887758493423462 -0.17038685083389282 -0.8556088209152222
    outer loop
      vertex 15.0 14.0 12.892322540283203
      vertex 15.0 13.459290504455566 13.0
      vertex 14.811509132385254 14.0 13.0
    endloop
  endfacet
  facet normal -0.5592798590660095 -0.1949644833803177 0.805726170539856
    outer loop
      vertex 15.0 14.0 13.130837440490723
      vertex 14.811509132385254 14.0 13.0
      vertex 15.0 13.459290504455566 13.0
    endloop
  endfacet
  facet normal -0.43960362672805786 0.4632158875465393 -0.7695321440696716
    outer loop
      vertex 15.0 14.178882598876953 13.0
      vertex 15.0 14.0 12.892322540283203
      vertex 14.811509132385254 14.0 13.0
    endloop
  endfacet
  facet normal -0.48877808451652527 0.5150316953659058 0.7041578888893127
    outer loop
      vertex 15.0 14.178882598876953 13.0
      vertex 14.811509132385254 14.0 13.0
      vertex 15.0 14.0 13.130837440490723
    endloop
  endfacet
  facet normal -0.00752080325037241 -0.8114140629768372 -0.5844232439994812
    outer loop
      vertex 15.0 16.0 14.80202579498291
      vertex 15.0 15.85740852355957 15.0
      vertex 14.0 15.866677284240723 15.0
    endloop
  endfacet
  facet normal 0.013730690814554691 -0.8601318597793579 -0.5098867416381836
    outer loop
      vertex 15.0 16.0 14.80202579498291
      vertex 14.0 15.866677284240723 15.0
      vertex 14.0 16.0 14.775096893310547
    endloop
  endfacet
  facet normal -0.007583347149193287 -0.8181617259979248 0.5749381184577942
    outer loop
      vertex 14.0 16.0 15.18972396850586
      vertex 14.0 15.866677284240723 15.0
      vertex 15.0 15.85740852355957 15.0
    endloop
  endfacet
  facet normal 0.0006867594784125686 -0.79765385389328 0.6031151413917542
    outer loop
      vertex 14.0 16.0 15.18972396850586
      vertex 15.0 15.85740852355957 15.0
      vertex 15.0 16.0 15.18858528137207
    endloop
  endfacet
  facet normal 0.014979935251176357 0.8308617472648621 -0.5562772154808044
    outer loop
      vertex 15.0 16.13254737854004 15.0
      vertex 15.0 16.0 14.80202579498291
      vertex 14.0 16.0 14.775096893310547
    endloop
  endfacet
  facet normal 0.002242973307147622 0.8571165800094604 -0.5151175260543823
    outer loop
      vertex 15.0 16.13254737854004 15.0
      vertex 14.0 16.0 14.775096893310547
      vertex 14.0 16.135164260864258 15.0
    endloop
  endfacet
  facet normal 0.000660708115901798 0.8144491314888 0.5802345871925354
    outer loop
      vertex 14.0 16.135164260864258 15.0
      vertex 14.0 16.0 15.18972396850586
      vertex 15.0 16.0 15.18858528137207
    endloop
  endfacet
  facet normal 0.002140957163646817 0.8181326985359192 0.5750254988670349
    outer loop
      vertex 14.0 16.135164260864258 15.0
      vertex 15.0 16.0 15.18858528137207
      vertex 15.0 16.13254737854004 15.0
    endloop
  endfacet
  facet normal 0.07361344248056412 -0.763041615486145 -0.6421436667442322
    outer loop
      vertex 16.0 7.0 14.957135200500488
      vertex 16.0 6.963926792144775 15.0
      vertex 15.0 6.867453098297119 15.0
    endloop
  endfacet
  facet normal 0.08597379922866821 -0.8278792500495911 -0.5542783737182617
    outer loop
      vertex 16.0 7.0 14.957135200500488
      vertex 15.0 6.867453098297119 15.0
      vertex 15.0 7.0 14.80202579498291
    endloop
  endfacet
  facet normal 0.07868385314941406 -0.8155990242958069 0.5732426643371582
    outer loop
      vertex 15.0 7.0 15.18858528137207
      vertex 15.0 6.867453098297119 15.0
      vertex 16.0 6.963926792144775 15.0
    endloop
  endfacet
  facet normal 0.0677139088511467 -0.8504171967506409 0.5217331051826477
    outer loop
      vertex 15.0 7.0 15.18858528137207
      vertex 16.0 6.963926792144775 15.0
      vertex 16.0 7.0 15.058798789978027
    endloop
  endfacet
  facet normal 0.12675151228904724 0.5622804164886475 -0.8171749114990234
    outer loop
      vertex 16.0 7.062296390533447 15.0
      vertex 16.0 7.0 14.957135200500488
      vertex 15.0 7.0 14.80202579498291
    endloop
  endfacet
  facet normal 0.06501655280590057 0.8097201585769653 -0.5832032561302185
    outer loop
      vertex 16.0 7.062296390533447 15.0
      vertex 15.0 7.0 14.80202579498291
      vertex 15.0 7.14259147644043 15.0
    endloop
  endfacet
  facet normal 0.07803751528263092 0.7952215075492859 0.6012760400772095
    outer loop
      vertex 15.0 7.14259147644043 15.0
      vertex 15.0 7.0 15.18858528137207
      vertex 16.0 7.0 15.058798789978027
    endloop
  endfacet
  facet normal 0.05503080040216446 0.6853570342063904 0.7261249423027039
    outer loop
      vertex 15.0 7.14259147644043 15.0
      vertex 16.0 7.0 15.058798789978027
      vertex 16.0 7.062296390533447 15.0
    endloop
  endfacet
  facet normal 0.5873951315879822 -0.4173727333545685 -0.6933736801147461
    outer loop
      vertex 15.0 9.0 12.892322540283203
      vertex 15.127104759216309 9.0 13.0
      vertex 15.0 8.821117401123047 13.0
    endloop
  endfacet
  facet normal 0.6390546560287476 -0.4540793299674988 0.6208229660987854
    outer loop
      vertex 15.0 9.0 13.130837440490723
      vertex 15.0 8.821117401123047 13.0
      vertex 15.127104759216309 9.0 13.0
    endloop
  endfacet
  facet normal -0.6864417195320129 -0.16684147715568542 -0.7077865600585938
    outer loop
      vertex 15.92059326171875 9.0 14.0
      vertex 16.0 9.0 13.922987937927246
      vertex 16.0 8.673294067382812 14.0
    endloop
  endfacet
  facet normal -0.6159974336624146 -0.14971980452537537 0.773389458656311
    outer loop
      vertex 16.0 9.0 14.063246726989746
      vertex 15.92059326171875 9.0 14.0
      vertex 16.0 8.673294067382812 14.0
    endloop
  endfacet
  facet normal 0.6390523910522461 0.15022225677967072 -0.754351019859314
    outer loop
      vertex 15.0 9.540709495544434 13.0
      vertex 15.127104759216309 9.0 13.0
      vertex 15.0 9.0 12.892322540283203
    endloop
  endfacet
  facet normal -0.6944022178649902 0.07181528955698013 -0.7159945368766785
    outer loop
      vertex 15.92059326171875 9.0 14.0
      vertex 16.0 9.767806053161621 14.0
      vertex 16.0 9.0 13.922987937927246
    endloop
  endfacet
  facet normal 0.707281231880188 0.16626083850860596 0.6871030926704407
    outer loop
      vertex 15.0 9.0 13.130837440490723
      vertex 15.127104759216309 9.0 13.0
      vertex 15.0 9.540709495544434 13.0
    endloop
  endfacet
  facet normal -0.6217305660247803 0.0642995685338974 0.780587375164032
    outer loop
      vertex 16.0 9.767806053161621 14.0
      vertex 15.92059326171875 9.0 14.0
      vertex 16.0 9.0 14.063246726989746
    endloop
  endfacet
  facet normal 0.6390523910522461 -0.15022225677967072 -0.754351019859314
    outer loop
      vertex 15.0 14.0 12.892322540283203
      vertex 15.127104759216309 14.0 13.0
      vertex 15.0 13.459290504455566 13.0
    endloop
  endfacet
  facet normal 0.707281231880188 -0.16626083850860596 0.6871030926704407
    outer loop
      vertex 15.0 14.0 13.130837440490723
      vertex 15.0 13.459290504455566 13.0
      vertex 15.127104759216309 14.0 13.0
    endloop
  endfacet
  facet normal -0.6944022178649902 -0.07181528955698013 -0.7159945368766785
    outer loop
      vertex 15.92059326171875 14.0 14.0
      vertex 16.0 14.0 13.922987937927246
      vertex 16.0 13.232193946838379 14.0
    endloop
  endfacet
  facet normal -0.6217305660247803 -0.0642995685338974 0.780587375164032
    outer loop
      vertex 16.0 14.0 14.063246726989746
      vertex 15.92059326171875 14.0 14.0
      vertex 16.0 13.232193946838379 14.0
    endloop
  endfacet
  facet normal 0.5873951315879822 0.4173727333545685 -0.6933736801147461
    outer loop
      vertex 15.0 14.178882598876953 13.0
      vertex 15.127104759216309 14.0 13.0
      vertex 15.0 14.0 12.892322540283203
    endloop
  endfacet
  facet normal -0.6864417195320129 0.16684147715568542 -0.7077865600585938
    outer loop
      vertex 15.92059326171875 14.0 14.0
      vertex 16.0 14.326705932617188 14.0
      vertex 16.0 14.0 13.922987937927246
    endloop
  endfacet
  facet normal 0.6390546560287476 0.4540793299674988 0.6208229660987854
    outer loop
      vertex 15.0 14.0 13.130837440490723
      vertex 15.127104759216309 14.0 13.0
      vertex 15.0 14.178882598876953 13.0
    endloop
  endfacet
  facet normal -0.6159974336624146 0.14971980452537537 0.773389458656311
    outer loop
      vertex 16.0 14.326705932617188 14.0
      vertex 15.92059326171875 14.0 14.0
      vertex 16.0 14.0 14.063246726989746
    endloop
  endfacet
  facet normal 0.04546888917684555 -0.5662689805030823 -0.8229653239250183
    outer loop
      vertex 16.0 16.0 14.957135200500488
      vertex 16.0 15.937704086303711 15.0
      vertex 15.0 15.85740852355957 15.0
    endloop
  endfacet
  facet normal 0.0902819111943245 -0.8081233501434326 -0.5820531249046326
    outer loop
      vertex 16.0 16.0 14.957135200500488
      vertex 15.0 15.85740852355957 15.0
      vertex 15.0 16.0 14.80202579498291
    endloop
  endfacet
  facet normal 0.0639171227812767 -0.7960230112075806 0.6018820405006409
    outer loop
      vertex 15.0 16.0 15.18858528137207
      vertex 15.0 15.85740852355957 15.0
      vertex 16.0 15.937704086303711 15.0
    endloop
  endfacet
  facet normal 0.0939662754535675 -0.6833627820014954 0.7240065932273865
    outer loop
      vertex 15.0 16.0 15.18858528137207
      vertex 16.0 15.937704086303711 15.0
      vertex 16.0 16.0 15.058798789978027
    endloop
  endfacet
  facet normal 0.09937984496355057 0.7613256573677063 -0.6407080888748169
    outer loop
      vertex 16.0 16.036073684692383 15.0
      vertex 16.0 16.0 14.957135200500488
      vertex 15.0 16.0 14.80202579498291
    endloop
  endfacet
  facet normal 0.07990893721580505 0.8282977342605591 -0.5545606017112732
    outer loop
      vertex 16.0 16.036073684692383 15.0
      vertex 15.0 16.0 14.80202579498291
      vertex 15.0 16.13254737854004 15.0
    endloop
  endfacet
  facet normal 0.07442374527454376 0.8158656358718872 0.5734320878982544
    outer loop
      vertex 15.0 16.13254737854004 15.0
      vertex 15.0 16.0 15.18858528137207
      vertex 16.0 16.0 15.058798789978027
    endloop
  endfacet
  facet normal 0.0819547027349472 0.8495031595230103 0.5211792588233948
    outer loop
      vertex 15.0 16.13254737854004 15.0
      vertex 16.0 16.0 15.058798789978027
      vertex 16.0 16.036073684692383 15.0
    endloop
  endfacet
  facet normal 0.2218533456325531 -0.7460508346557617 -0.6278449296951294
    outer loop
      vertex 16.0 7.0 14.957135200500488
      vertex 16.121307373046875 7.0 15.0
      vertex 16.0 6.963926792144775 15.0
    endloop
  endfacet
  facet normal 0.2457006424665451 -0.8262447118759155 0.5069032907485962
    outer loop
      vertex 16.121307373046875 7.0 15.0
      vertex 16.0 7.0 15.058798789978027
      vertex 16.0 6.963926792144775 15.0
    endloop
  endfacet
  facet normal 0.2795005738735199 0.5442607402801514 -0.7909865379333496
    outer loop
      vertex 16.121307373046875 7.0 15.0
      vertex 16.0 7.0 14.957135200500488
      vertex 16.0 7.062296390533447 15.0
    endloop
  endfacet
  facet normal -0.5351558923721313 -0.2799055874347687 -0.7970326542854309
    outer loop
      vertex 17.0 7.845909118652344 15.0
      vertex 16.919404983520508 8.0 15.0
      vertex 17.0 8.0 14.94588565826416
    endloop
  endfacet
  facet normal 0.3324446678161621 0.6473567485809326 0.6858643293380737
    outer loop
      vertex 16.0 7.062296390533447 15.0
      vertex 16.0 7.0 15.058798789978027
      vertex 16.121307373046875 7.0 15.0
    endloop
  endfacet
  facet normal -0.46432673931121826 -0.24285942316055298 0.8517159223556519
    outer loop
      vertex 16.919404983520508 8.0 15.0
      vertex 17.0 7.845909118652344 15.0
      vertex 17.0 8.0 15.043937683105469
    endloop
  endfacet
  facet normal 0.6698882579803467 -0.17034655809402466 -0.7226560711860657
    outer loop
      vertex 16.0 9.0 13.922987937927246
      vertex 16.083078384399414 9.0 14.0
      vertex 16.0 8.673294067382812 14.0
    endloop
  endfacet
  facet normal -0.5524005889892578 0.13413412868976593 -0.8227159380912781
    outer loop
      vertex 16.919404983520508 8.0 15.0
      vertex 17.0 8.33191204071045 15.0
      vertex 17.0 8.0 14.94588565826416
    endloop
  endfacet
  facet normal 0.5986731648445129 -0.152237206697464 0.7863932847976685
    outer loop
      vertex 16.0 9.0 14.063246726989746
      vertex 16.0 8.673294067382812 14.0
      vertex 16.083078384399414 9.0 14.0
    endloop
  endfacet
  facet normal -0.4754563570022583 0.11545050889253616 0.8721309900283813
    outer loop
      vertex 17.0 8.33191204071045 15.0
      vertex 16.919404983520508 8.0 15.0
      vertex 17.0 8.0 15.043937683105469
    endloop
  endfacet
  facet normal 0.677992582321167 0.07336036115884781 -0.7313988208770752
    outer loop
      vertex 16.0 9.767806053161621 14.0
      vertex 16.083078384399414 9.0 14.0
      vertex 16.0 9.0 13.922987937927246
    endloop
  endfacet
  facet normal 0.6044366955757141 0.06540144234895706 0.7939640283584595
    outer loop
      vertex 16.083078384399414 9.0 14.0
      vertex 16.0 9.767806053161621 14.0
      vertex 16.0 9.0 14.063246726989746
    endloop
  endfacet
  facet normal 0.677992582321167 -0.07336036115884781 -0.7313988208770752
    outer loop
      vertex 16.0 14.0 13.922987937927246
      vertex 16.083078384399414 14.0 14.0
      vertex 16.0 13.232193946838379 14.0
    endloop
  endfacet
  facet normal 0.6044366955757141 -0.06540144234895706 0.7939640283584595
    outer loop
      vertex 16.083078384399414 14.0 14.0
      vertex 16.0 14.0 14.063246726989746
      vertex 16.0 13.232193946838379 14.0
    endloop
  endfacet
  facet normal 0.6698882579803467 0.17034655809402466 -0.7226560711860657
    outer loop
      vertex 16.0 14.326705932617188 14.0
      vertex 16.083078384399414 14.0 14.0
      vertex 16.0 14.0 13.922987937927246
    endloop
  endfacet
  facet normal 0.5986731648445129 0.152237206697464 0.7863932847976685
    outer loop
      vertex 16.0 14.0 14.063246726989746
      vertex 16.083078384399414 14.0 14.0
      vertex 16.0 14.326705932617188 14.0
    endloop
  endfacet
  facet normal -0.5524005889892578 -0.13413412868976593 -0.8227159380912781
    outer loop
      vertex 17.0 14.66808795928955 15.0
      vertex 16.919404983520508 15.0 15.0
      vertex 17.0 15.0 14.94588565826416
    endloop
  endfacet
  facet normal -0.4754563570022583 -0.11545050889253616 0.8721309900283813
    outer loop
      vertex 17.0 15.0 15.043937683105469
      vertex 16.919404983520508 15.0 15.0
      vertex 17.0 14.66808795928955 15.0
    endloop
  endfacet
  facet normal 0.27949991822242737 -0.5442636609077454 -0.7909846901893616
    outer loop
      vertex 16.0 15.937704086303711 15.0
      vertex 16.0 16.0 14.957135200500488
      vertex 16.121307373046875 16.0 15.0
    endloop
  endfacet
  facet normal -0.5351558923721313 0.2799055874347687 -0.7970326542854309
    outer loop
      vertex 16.919404983520508 15.0 15.0
      vertex 17.0 15.154090881347656 15.0
      vertex 17.0 15.0 14.94588565826416
    endloop
  endfacet
  facet normal -0.46432673931121826 0.24285942316055298 0.8517159223556519
    outer loop
      vertex 16.919404983520508 15.0 15.0
      vertex 17.0 15.0 15.043937683105469
      vertex 17.0 15.154090881347656 15.0
    endloop
  endfacet
  facet normal 0.33244359493255615 -0.6473596096038818 0.6858620643615723
    outer loop
      vertex 16.0 15.937704086303711 15.0
      vertex 16.121307373046875 16.0 15.0
      vertex 16.0 16.0 15.058798789978027
    endloop
  endfacet
  facet normal 0.22185498476028442 0.7460464239120483 -0.6278495192527771
    outer loop
      vertex 16.0 16.036073684692383 15.0
      vertex 16.121307373046875 16.0 15.0
      vertex 16.0 16.0 14.957135200500488
    endloop
  endfacet
  facet normal 0.2457028478384018 0.8262412548065186 0.5069078207015991
    outer loop
      vertex 16.121307373046875 16.0 15.0
      vertex 16.0 16.036073684692383 15.0
      vertex 16.0 16.0 15.058798789978027
    endloop
  endfacet
  facet normal 0.5474411845207214 -0.2772849202156067 -0.7895702719688416
    outer loop
      vertex 17.0 8.0 14.94588565826416
      vertex 17.078048706054688 8.0 15.0
      vertex 17.0 7.845909118652344 15.0
    endloop
  endfacet
  facet normal 0.4760839641094208 -0.24114170670509338 0.8456918001174927
    outer loop
      vertex 17.078048706054688 8.0 15.0
      vertex 17.0 8.0 15.043937683105469
      vertex 17.0 7.845909118652344 15.0
    endloop
  endfacet
  facet normal 0.5647372603416443 0.1327972710132599 -0.8145162463188171
    outer loop
      vertex 17.0 8.33191204071045 15.0
      vertex 17.078048706054688 8.0 15.0
      vertex 17.0 8.0 14.94588565826416
    endloop
  endfacet
  facet normal 0.48732882738113403 0.11459477245807648 0.8656666278839111
    outer loop
      vertex 17.078048706054688 8.0 15.0
      vertex 17.0 8.33191204071045 15.0
      vertex 17.0 8.0 15.043937683105469
    endloop
  endfacet
  facet normal 0.5647372603416443 -0.1327972710132599 -0.8145162463188171
    outer loop
      vertex 17.0 15.0 14.94588565826416
      vertex 17.078048706054688 15.0 15.0
      vertex 17.0 14.66808795928955 15.0
    endloop
  endfacet
  facet normal 0.48732882738113403 -0.11459477245807648 0.8656666278839111
    outer loop
      vertex 17.078048706054688 15.0 15.0
      vertex 17.0 15.0 15.043937683105469
      vertex 17.0 14.66808795928955 15.0
    endloop
  endfacet
  facet normal 0.5474411845207214 0.2772849202156067 -0.7895702719688416
    outer loop
      vertex 17.0 15.154090881347656 15.0
      vertex 17.078048706054688 15.0 15.0
      vertex 17.0 15.0 14.94588565826416
    endloop
  endfacet
  facet normal 0.4760839641094208 0.24114170670509338 0.8456918001174927
    outer loop
      vertex 17.078048706054688 15.0 15.0
      vertex 17.0 15.154090881347656 15.0
      vertex 17.0 15.0 15.043937683105469
    endloop
  endfacet
  facet normal -0.2332748919725418 -0.1094181090593338 -0.9662352204322815
    outer loop
      vertex 20.0 6.0 16.921112060546875
      vertex 20.0 5.303366661071777 17.0
      vertex 19.673242568969727 6.0 17.0
    endloop
  endfacet
  facet normal -0.3656795620918274 -0.1715228259563446 0.914799690246582
    outer loop
      vertex 20.0 6.0 17.130617141723633
      vertex 19.673242568969727 6.0 17.0
      vertex 20.0 5.303366661071777 17.0
    endloop
  endfacet
  facet normal -0.23076637089252472 0.1819554716348648 -0.9558447599411011
    outer loop
      vertex 20.0 6.414412498474121 17.0
      vertex 20.0 6.0 16.921112060546875
      vertex 19.673242568969727 6.0 17.0
    endloop
  endfacet
  facet normal -0.35623699426651 0.28088700771331787 0.8911776542663574
    outer loop
      vertex 20.0 6.414412498474121 17.0
      vertex 19.673242568969727 6.0 17.0
      vertex 20.0 6.0 17.130617141723633
    endloop
  endfacet
  facet normal -0.23076635599136353 -0.18195505440235138 -0.9558447599411011
    outer loop
      vertex 20.0 17.0 16.921112060546875
      vertex 20.0 16.585586547851562 17.0
      vertex 19.673242568969727 17.0 17.0
    endloop
  endfacet
  facet normal -0.3562370538711548 -0.2808864116668701 0.8911778926849365
    outer loop
      vertex 20.0 17.0 17.130617141723633
      vertex 19.673242568969727 17.0 17.0
      vertex 20.0 16.585586547851562 17.0
    endloop
  endfacet
  facet normal -0.233274906873703 0.10941796749830246 -0.9662352800369263
    outer loop
      vertex 20.0 17.69663429260254 17.0
      vertex 20.0 17.0 16.921112060546875
      vertex 19.673242568969727 17.0 17.0
    endloop
  endfacet
  facet normal -0.3656795918941498 0.1715225875377655 0.914799690246582
    outer loop
      vertex 20.0 17.69663429260254 17.0
      vertex 19.673242568969727 17.0 17.0
      vertex 20.0 17.0 17.130617141723633
    endloop
  endfacet
  facet normal 0.4163857102394104 -0.1023041307926178 -0.9034140110015869
    outer loop
      vertex 20.0 6.0 16.921112060546875
      vertex 20.171159744262695 6.0 17.0
      vertex 20.0 5.303366661071777 17.0
    endloop
  endfacet
  facet normal 0.6000305414199829 -0.1474248617887497 0.7862755656242371
    outer loop
      vertex 20.171159744262695 6.0 17.0
      vertex 20.0 6.0 17.130617141723633
      vertex 20.0 5.303366661071777 17.0
    endloop
  endfacet
  facet normal 0.4124634265899658 0.17035473883152008 -0.8949039578437805
    outer loop
      vertex 20.0 6.414412498474121 17.0
      vertex 20.171159744262695 6.0 17.0
      vertex 20.0 6.0 16.921112060546875
    endloop
  endfacet
  facet normal 0.5884682536125183 0.24304786324501038 0.7711244225502014
    outer loop
      vertex 20.171159744262695 6.0 17.0
      vertex 20.0 6.414412498474121 17.0
      vertex 20.0 6.0 17.130617141723633
    endloop
  endfacet
  facet normal 0.4124634861946106 -0.17035436630249023 -0.8949040770530701
    outer loop
      vertex 20.0 17.0 16.921112060546875
      vertex 20.171159744262695 17.0 17.0
      vertex 20.0 16.585586547851562 17.0
    endloop
  endfacet
  facet normal 0.5884683132171631 -0.2430473417043686 0.771124541759491
    outer loop
      vertex 20.171159744262695 17.0 17.0
      vertex 20.0 17.0 17.130617141723633
      vertex 20.0 16.585586547851562 17.0
    endloop
  endfacet
  facet normal 0.4163857102394104 0.10230399668216705 -0.9034140110015869
    outer loop
      vertex 20.0 17.69663429260254 17.0
      vertex 20.171159744262695 17.0 17.0
      vertex 20.0 17.0 16.921112060546875
    endloop
  endfacet
  facet normal 0.6000305414199829 0.14742465317249298 0.7862755656242371
    outer loop
      vertex 20.171159744262695 17.0 17.0
      vertex 20.0 17.69663429260254 17.0
      vertex 20.0 17.0 17.130617141723633
    endloop
  endfacet
endsolid labcem
