v 2.9741456508636475 11.0 15.0
v 3.0 10.891387939453125 15.0
v 3.0 11.0 14.92846965789795
v 3.0 11.0 15.015461921691895
v 2.9741456508636475 12.0 15.0
v 3.0 12.0 14.92846965789795
v 3.0 12.0 15.015461921691895
v 3.0 12.108612060546875 15.0
v 3.968249797821045 9.0 15.0
v 4.0 8.965095520019531 15.0
v 4.0 9.0 14.903444290161133
v 4.0 9.0 15.015461921691895
v 3.6158814430236816 10.0 14.0
v 4.0 9.379032135009766 14.0
v 4.0 10.0 13.696221351623535
v 3.891387701034546 10.0 15.0
v 4.0 10.0 15.015461921691895
v 3.4049758911132812 11.0 14.0
v 4.0 11.0 13.539759635925293
v 4.0 11.0 15.015461921691895
v 3.4049758911132812 12.0 14.0
v 4.0 12.0 13.539759635925293
v 4.0 12.0 15.015461921691895
v 3.6158814430236816 13.0 14.0
v 4.0 13.0 13.696221351623535
v 3.891387701034546 13.0 15.0
v 4.0 13.0 15.015461921691895
v 4.0 13.620967864990234 14.0
v 4.0 14.0 14.903444290161133
v 3.968249797821045 14.0 15.0
v 4.0 14.0 15.015461921691895
v 4.0 14.034904479980469 15.0
v 4.965095520019531 8.0 15.0
v 5.0 7.975576877593994 15.0
v 5.0 8.0 14.914041519165039
v 5.0 8.0 15.015461921691895
v 4.329135894775391 9.0 14.0
v 5.0 8.357972145080566 14.0
v 5.0 9.0 13.533903121948242
v 5.0 9.0 15.015461921691895
v 4.866950511932373 10.0 13.0
v 5.0 9.802048683166504 13.0
v 5.0 10.0 12.924707412719727
v 5.0 10.0 15.015461921691895
v 4.539759159088135 11.0 13.0
v 5.0 11.0 12.732725143432617
v 5.0 11.0 15.015461921691895
v 4.539759159088135 12.0 13.0
v 5.0 12.0 12.732725143432617
v 5.0 12.0 15.015461921691895
v 4.866950511932373 13.0 13.0
v 5.0 13.0 12.924707412719727
v 5.0 13.0 15.015461921691895
v 5.0 13.197951316833496 13.0
v 4.329135894775391 14.0 14.0
v 5.0 14.0 13.533903121948242
v 5.0 14.0 15.015461921691895
v 5.0 14.642027854919434 14.0
v 4.965095520019531 15.0 15.0
v 5.0 15.0 14.914041519165039
v 5.0 15.0 15.015461921691895
v 5.0 15.024422645568848 15.0
v 5.357972145080566 8.0 14.0
v 6.0 7.596878528594971 14.0
v 6.0 8.0 13.58557415008545
v 6.0 7.929550647735596 15.0
v 6.0 8.0 15.015461921691895
v 5.60683536529541 9.0 13.0
v 6.0 8.65563678741455 13.0
v 6.0 9.0 12.792144775390625
v 6.0 9.0 15.015461921691895
v 6.0 10.0 12.557779312133789
v 6.0 10.0 15.015461921691895
v 6.0 11.0 12.289461135864258
v 6.0 11.0 15.015461921691895
v 6.0 12.0 12.289461135864258
v 6.0 12.0 15.015461921691895
v 6.0 13.0 12.557779312133789
v 6.0 13.0 15.015461921691895
v 5.60683536529541 14.0 13.0
v 6.0 14.0 12.792144775390625
v 6.0 14.0 15.015461921691895
v 6.0 14.34436321258545 13.0
v 5.357972145080566 15.0 14.0
v 6.0 15.0 13.58557415008545
v 6.0 15.0 15.015461921691895
v 6.0 15.403120994567871 14.0
v 6.0 15.070449829101562 15.0
v 6.929550647735596 7.0 15.0
v 7.0 6.978423118591309 15.0
v 7.0 7.0 14.803923606872559
v 7.0 7.0 15.015461921691895
v 6.923510551452637 8.0 13.0
v 7.0 7.95696496963501 13.0
v 7.0 8.0 12.965409278869629
v 7.0 7.176944255828857 14.0
v 7.0 8.0 15.015461921691895
v 7.0 9.0 12.480168342590332
v 7.0 9.0 15.015461921691895
v 6.584972381591797 10.0 12.0
v 7.0 9.507923126220703 12.0
v 7.0 10.0 11.778477668762207
v 7.0 10.0 15.015461921691895
v 6.289461612701416 11.0 12.0
v 7.0 11.0 11.68789291381836
v 7.0 11.0 15.015461921691895
v 6.289461612701416 12.0 12.0
v 7.0 12.0 11.68789291381836
v 7.0 12.0 15.015461921691895
v 6.584972381591797 13.0 12.0
v 7.0 13.0 11.778477668762207
v 7.0 13.0 15.015461921691895
v 7.0 13.492076873779297 12.0
v 7.0 14.0 12.480168342590332
v 7.0 14.0 15.015461921691895
v 6.923510551452637 15.0 13.0
v 7.0 15.0 12.965409278869629
v 7.0 15.0 15.015461921691895
v 7.0 15.043034553527832 13.0
v 7.0 15.823055267333984 14.0
v 6.929550647735596 16.0 15.0
v 7.0 16.0 14.803923606872559
v 7.0 16.0 15.015461921691895
v 7.0 16.021575927734375 15.0
v 7.199061393737793 7.0 14.0
v 8.0 6.7201032638549805 14.0
v 8.0 7.0 13.63025188446045
v 8.0 6.965482711791992 15.0
v 8.0 7.0 15.015461921691895
v 8.0 7.5958685874938965 13.0
v 8.0 8.0 12.643997192382812
v 8.0 8.0 15.015461921691895
v 7.530021667480469 9.0 12.0
v 8.0 8.688337326049805 12.0
v 8.0 9.0 11.776651382446289
v 8.0 9.0 15.015461921691895
v 8.0 10.0 11.453073501586914
v 8.0 10.0 15.015461921691895
v 7.864256381988525 11.0 11.0
v 8.0 10.705277442932129 11.0
v 8.0 11.0 10.91104507446289
v 8.0 11.0 15.015461921691895
v 7.864256381988525 12.0 11.0
v 8.0 12.0 10.91104507446289
v 8.0 12.0 15.015461921691895
v 8.0 12.294722557067871 11.0
v 8.0 13.0 11.453073501586914
v 8.0 13.0 15.015461921691895
v 7.530021667480469 14.0 12.0
v 8.0 14.0 11.776651382446289
v 8.0 14.0 15.015461921691895
v 8.0 14.311662673950195 12.0
v 8.0 15.0 12.643997192382812
v 8.0 15.0 15.015461921691895
v 8.0 15.404131889343262 13.0
v 7.199061393737793 16.0 14.0
v 8.0 16.0 13.63025188446045
v 8.0 16.0 15.015461921691895
v 8.0 16.279895782470703 14.0
v 8.0 16.034517288208008 15.0
v 9.0 6.600811958312988 14.0
v 9.0 7.0 13.365968704223633
v 9.0 6.935084819793701 15.0
v 9.0 7.0 15.015461921691895
v 9.0 7.365968227386475 13.0
v 9.0 8.0 12.379347801208496
v 9.0 8.0 15.015461921691895
v 9.0 8.379347801208496 12.0
v 9.0 9.0 11.525984764099121
v 9.0 9.0 15.015461921691895
v 8.453073501586914 10.0 11.0
v 9.0 9.525984764099121 11.0
v 9.0 10.0 10.659915924072266
v 9.0 10.0 15.015461921691895
v 9.0 11.0 10.36534309387207
v 9.0 11.0 15.015461921691895
v 9.0 12.0 10.36534309387207
v 9.0 12.0 15.015461921691895
v 8.453073501586914 13.0 11.0
v 9.0 13.0 10.659915924072266
v 9.0 13.0 15.015461921691895
v 9.0 13.474015235900879 11.0
v 9.0 14.0 11.525984764099121
v 9.0 14.0 15.015461921691895
v 9.0 14.620652198791504 12.0
v 9.0 15.0 12.379347801208496
v 9.0 15.0 15.015461921691895
v 9.0 15.634031295776367 13.0
v 9.0 16.0 13.365968704223633
v 9.0 16.0 15.015461921691895
v 9.0 16.399187088012695 14.0
v 9.0 16.06491470336914 15.0
v 9.920949935913086 7.0 13.0
v 10.0 6.985105037689209 13.0
v 10.0 7.0 12.983907699584961
v 10.0 6.502396106719971 14.0
v 10.0 6.835460662841797 15.0
v 10.0 7.0 15.015461921691895
v 9.708479881286621 8.0 12.0
v 10.0 7.92333984375 12.0
v 10.0 8.0 11.921106338500977
v 10.0 8.0 15.015461921691895
v 9.8297119140625 9.0 11.0
v 10.0 8.928022384643555 11.0
v 10.0 9.0 10.914811134338379
v 10.0 9.0 15.015461921691895
v 9.845492362976074 10.0 10.0
v 10.0 9.873366355895996 10.0
v 10.0 10.0 9.7304048538208
v 10.0 10.0 15.015461921691895
v 9.734713554382324 11.0 9.0
v 10.0 10.52442741394043 9.0
v 10.0 11.0 8.7374906539917
v 9.36534309387207 11.0 10.0
v 10.0 11.0 15.015461921691895
v 9.734713554382324 12.0 9.0
v 10.0 12.0 8.7374906539917
v 9.36534309387207 12.0 10.0
v 10.0 12.0 15.015461921691895
v 10.0 12.47557258605957 9.0
v 10.0 13.0 9.7304048538208
v 9.845492362976074 13.0 10.0
v 10.0 13.0 15.015461921691895
v 10.0 13.126633644104004 10.0
v 9.8297119140625 14.0 11.0
v 10.0 14.0 10.914811134338379
v 10.0 14.0 15.015461921691895
v 10.0 14.071977615356445 11.0
v 9.708479881286621 15.0 12.0
v 10.0 15.0 11.921106338500977
v 10.0 15.0 15.015461921691895
v 10.0 15.07666015625 12.0
v 9.920949935913086 16.0 13.0
v 10.0 16.0 12.983907699584961
v 10.0 16.0 15.015461921691895
v 10.0 16.014894485473633 13.0
v 10.0 16.497604370117188 14.0
v 10.0 16.164539337158203 15.0
v 11.0 6.889906406402588 13.0
v 11.0 7.0 12.877644538879395
v 11.0 6.430840015411377 14.0
v 11.0 6.24383544921875 15.0
v 11.0 7.0 15.015461921691895
v 11.0 7.790961265563965 12.0
v 11.0 8.0 11.771851539611816
v 11.0 8.0 15.015461921691895
v 11.0 8.710339546203613 11.0
v 11.0 9.0 10.596963882446289
v 11.0 9.0 15.015461921691895
v 10.52442741394043 10.0 9.0
v 11.0 9.734713554382324 9.0
v 11.0 10.0 8.7374906539917
v 11.0 9.590679168701172 10.0
v 11.0 10.0 15.015461921691895
v 11.0 10.636913299560547 9.0
v 10.636913299560547 11.0 9.0
v 10.668157577514648 11.0 10.0
v 11.0 10.668157577514648 10.0
v 11.0 10.668157577514648 11.0
v 10.668157577514648 11.0 11.0
v 11.0 10.668157577514648 12.0
v 10.668157577514648 11.0 12.0
v 11.0 10.668157577514648 13.0
v 10.668157577514648 11.0 13.0
v 11.0 10.668157577514648 14.0
v 10.668157577514648 11.0 14.0
v 11.0 11.0 14.904505729675293
v 11.0 11.0 15.015461921691895
v 10.636913299560547 12.0 9.0
v 10.668157577514648 12.0 10.0
v 10.668157577514648 12.0 11.0
v 10.668157577514648 12.0 12.0
v 10.668157577514648 12.0 13.0
v 10.668157577514648 12.0 14.0
v 11.0 12.0 14.904505729675293
v 11.0 12.0 15.015461921691895
v 10.52442741394043 13.0 9.0
v 11.0 13.0 8.7374906539917
v 11.0 12.363086700439453 9.0
v 11.0 12.331842422485352 10.0
v 11.0 12.331842422485352 11.0
v 11.0 12.331842422485352 12.0
v 11.0 12.331842422485352 13.0
v 11.0 12.331842422485352 14.0
v 11.0 13.0 15.015461921691895
v 11.0 13.265286445617676 9.0
v 11.0 13.409320831298828 10.0
v 11.0 14.0 10.596963882446289
v 11.0 14.0 15.015461921691895
v 11.0 14.289660453796387 11.0
v 11.0 15.0 11.771851539611816
v 11.0 15.0 15.015461921691895
v 11.0 15.209038734436035 12.0
v 11.0 16.0 12.877644538879395
v 11.0 16.0 15.015461921691895
v 11.0 16.11009407043457 13.0
v 11.0 16.56916046142578 14.0
v 11.0 16.75616455078125 15.0
v 12.0 6.889906406402588 13.0
v 12.0 7.0 12.877644538879395
v 12.0 6.430840015411377 14.0
v 12.0 6.24383544921875 15.0
v 12.0 7.0 15.015461921691895
v 12.0 7.790961265563965 12.0
v 12.0 8.0 11.771851539611816
v 12.0 8.0 15.015461921691895
v 12.0 8.710339546203613 11.0
v 12.0 9.0 10.596963882446289
v 12.0 9.0 15.015461921691895
v 12.0 9.734713554382324 9.0
v 12.0 10.0 8.7374906539917
v 12.0 9.590679168701172 10.0
v 12.0 10.0 15.015461921691895
v 12.0 10.636913299560547 9.0
v 12.0 10.668157577514648 10.0
v 12.0 10.668157577514648 11.0
v 12.0 10.668157577514648 12.0
v 12.0 10.668157577514648 13.0
v 12.0 10.668157577514648 14.0
v 12.0 11.0 14.904505729675293
v 12.0 11.0 15.015461921691895
v 12.0 12.0 14.904505729675293
v 12.0 12.0 15.015461921691895
v 12.0 12.363086700439453 9.0
v 12.0 13.0 8.7374906539917
v 12.0 12.331842422485352 10.0
v 12.0 12.331842422485352 11.0
v 12.0 12.331842422485352 12.0
v 12.0 12.331842422485352 13.0
v 12.0 12.331842422485352 14.0
v 12.0 13.0 15.015461921691895
v 12.0 13.265286445617676 9.0
v 12.0 13.409320831298828 10.0
v 12.0 14.0 10.596963882446289
v 12.0 14.0 15.015461921691895
v 12.0 14.289660453796387 11.0
v 12.0 15.0 11.771851539611816
v 12.0 15.0 15.015461921691895
v 12.0 15.209038734436035 12.0
v 12.0 16.0 12.877644538879395
v 12.0 16.0 15.015461921691895
v 12.0 16.11009407043457 13.0
v 12.0 16.56916046142578 14.0
v 12.0 16.75616455078125 15.0
v 13.0 6.985105037689209 13.0
v 13.0 7.0 12.983907699584961
v 13.0 6.502396106719971 14.0
v 13.0 6.835460662841797 15.0
v 13.0 7.0 15.015461921691895
v 13.0 7.92333984375 12.0
v 13.0 8.0 11.921106338500977
v 13.0 8.0 15.015461921691895
v 13.0 8.928022384643555 11.0
v 13.0 9.0 10.914811134338379
v 13.0 9.0 15.015461921691895
v 12.47557258605957 10.0 9.0
v 13.0 10.0 9.7304048538208
v 13.0 9.873366355895996 10.0
v 13.0 10.0 15.015461921691895
v 12.363086700439453 11.0 9.0
v 13.0 11.0 8.7374906539917
v 13.0 10.52442741394043 9.0
v 12.331842422485352 11.0 10.0
v 12.331842422485352 11.0 11.0
v 12.331842422485352 11.0 12.0
v 12.331842422485352 11.0 13.0
v 12.331842422485352 11.0 14.0
v 13.0 11.0 15.015461921691895
v 12.363086700439453 12.0 9.0
v 13.0 12.0 8.7374906539917
v 12.331842422485352 12.0 10.0
v 12.331842422485352 12.0 11.0
v 12.331842422485352 12.0 12.0
v 12.331842422485352 12.0 13.0
v 12.331842422485352 12.0 14.0
v 13.0 12.0 15.015461921691895
v 13.0 12.47557258605957 9.0
v 12.47557258605957 13.0 9.0
v 13.0 13.0 9.7304048538208
v 13.0 13.0 15.015461921691895
v 13.0 13.126633644104004 10.0
v 13.0 14.0 10.914811134338379
v 13.0 14.0 15.015461921691895
v 13.0 14.071977615356445 11.0
v 13.0 15.0 11.921106338500977
v 13.0 15.0 15.015461921691895
v 13.0 15.07666015625 12.0
v 13.0 16.0 12.983907699584961
v 13.0 16.0 15.015461921691895
v 13.0 16.014894485473633 13.0
v 13.0 16.497604370117188 14.0
v 13.0 16.164539337158203 15.0
v 13.079050064086914 7.0 13.0
v 14.0 7.0 13.365968704223633
v 14.0 6.600811958312988 14.0
v 14.0 6.935084819793701 15.0
v 14.0 7.0 15.015461921691895
v 13.291520118713379 8.0 12.0
v 14.0 8.0 12.379347801208496
v 14.0 7.365968227386475 13.0
v 14.0 8.0 15.015461921691895
v 13.1702880859375 9.0 11.0
v 14.0 9.0 11.525984764099121
v 14.0 8.379347801208496 12.0
v 14.0 9.0 15.015461921691895
v 13.154507637023926 10.0 10.0
v 14.0 10.0 10.659915924072266
v 14.0 9.525984764099121 11.0
v 14.0 10.0 15.015461921691895
v 13.265286445617676 11.0 9.0
v 13.63465690612793 11.0 10.0
v 14.0 11.0 10.36534309387207
v 14.0 11.0 15.015461921691895
v 13.265286445617676 12.0 9.0
v 13.63465690612793 12.0 10.0
v 14.0 12.0 10.36534309387207
v 14.0 12.0 15.015461921691895
v 13.154507637023926 13.0 10.0
v 14.0 13.0 10.659915924072266
v 14.0 13.0 15.015461921691895
v 14.0 13.474015235900879 11.0
v 13.1702880859375 14.0 11.0
v 14.0 14.0 11.525984764099121
v 14.0 14.0 15.015461921691895
v 14.0 14.620652198791504 12.0
v 13.291520118713379 15.0 12.0
v 14.0 15.0 12.379347801208496
v 14.0 15.0 15.015461921691895
v 14.0 15.634031295776367 13.0
v 13.079050064086914 16.0 13.0
v 14.0 16.0 13.365968704223633
v 14.0 16.0 15.015461921691895
v 14.0 16.399187088012695 14.0
v 14.0 16.06491470336914 15.0
v 15.0 6.7201032638549805 14.0
v 15.0 7.0 13.63025188446045
v 15.0 6.965482711791992 15.0
v 15.0 7.0 15.015461921691895
v 15.0 7.5958685874938965 13.0
v 15.0 8.0 12.643997192382812
v 15.0 8.0 15.015461921691895
v 15.0 8.688337326049805 12.0
v 15.0 9.0 11.776651382446289
v 15.0 9.0 15.015461921691895
v 14.546926498413086 10.0 11.0
v 15.0 10.0 11.453073501586914
v 15.0 10.0 15.015461921691895
v 15.0 10.705277442932129 11.0
v 15.0 11.0 10.91104507446289
v 15.0 11.0 15.015461921691895
v 15.0 12.0 10.91104507446289
v 15.0 12.0 15.015461921691895
v 15.0 12.294722557067871 11.0
v 14.546926498413086 13.0 11.0
v 15.0 13.0 11.453073501586914
v 15.0 13.0 15.015461921691895
v 15.0 14.0 11.776651382446289
v 15.0 14.0 15.015461921691895
v 15.0 14.311662673950195 12.0
v 15.0 15.0 12.643997192382812
v 15.0 15.0 15.015461921691895
v 15.0 15.404131889343262 13.0
v 15.0 16.0 13.63025188446045
v 15.0 16.0 15.015461921691895
v 15.0 16.279895782470703 14.0
v 15.0 16.034517288208008 15.0
v 15.800938606262207 7.0 14.0
v 16.0 7.0 14.803923606872559
v 16.0 6.978423118591309 15.0
v 16.0 7.0 15.015461921691895
v 16.0 7.95696496963501 13.0
v 16.0 8.0 12.965409278869629
v 16.0 7.176944255828857 14.0
v 16.0 8.0 15.015461921691895
v 15.469978332519531 9.0 12.0
v 16.0 9.0 12.480168342590332
v 16.0 9.0 15.015461921691895
v 16.0 9.507923126220703 12.0
v 16.0 10.0 11.778477668762207
v 16.0 10.0 15.015461921691895
v 15.135744094848633 11.0 11.0
v 16.0 11.0 11.68789291381836
v 16.0 11.0 15.015461921691895
v 15.135744094848633 12.0 11.0
v 16.0 12.0 11.68789291381836
v 16.0 12.0 15.015461921691895
v 16.0 13.0 11.778477668762207
v 16.0 13.0 15.015461921691895
v 16.0 13.492076873779297 12.0
v 15.469978332519531 14.0 12.0
v 16.0 14.0 12.480168342590332
v 16.0 14.0 15.015461921691895
v 16.0 15.0 12.965409278869629
v 16.0 15.0 15.015461921691895
v 16.0 15.043034553527832 13.0
v 16.0 15.823055267333984 14.0
v 15.800938606262207 16.0 14.0
v 16.0 16.0 14.803923606872559
v 16.0 16.0 15.015461921691895
v 16.0 16.021575927734375 15.0
v 16.070449829101562 7.0 15.0
v 16.076488494873047 8.0 13.0
v 17.0 8.0 13.58557415008545
v 17.0 7.596878528594971 14.0
v 17.0 7.929550647735596 15.0
v 17.0 8.0 15.015461921691895
v 17.0 8.65563678741455 13.0
v 17.0 9.0 12.792144775390625
v 17.0 9.0 15.015461921691895
v 16.415027618408203 10.0 12.0
v 17.0 10.0 12.557779312133789
v 17.0 10.0 15.015461921691895
v 16.710538864135742 11.0 12.0
v 17.0 11.0 12.289461135864258
v 17.0 11.0 15.015461921691895
v 16.710538864135742 12.0 12.0
v 17.0 12.0 12.289461135864258
v 17.0 12.0 15.015461921691895
v 16.415027618408203 13.0 12.0
v 17.0 13.0 12.557779312133789
v 17.0 13.0 15.015461921691895
v 17.0 14.0 12.792144775390625
v 17.0 14.0 15.015461921691895
v 17.0 14.34436321258545 13.0
v 16.076488494873047 15.0 13.0
v 17.0 15.0 13.58557415008545
v 17.0 15.0 15.015461921691895
v 17.0 15.403120994567871 14.0
v 17.0 15.070449829101562 15.0
v 16.070449829101562 16.0 15.0
v 17.642026901245117 8.0 14.0
v 18.0 8.0 14.914041519165039
v 18.0 7.975576877593994 15.0
v 18.0 8.0 15.015461921691895
v 17.393163681030273 9.0 13.0
v 18.0 9.0 13.533903121948242
v 18.0 8.357972145080566 14.0
v 18.0 9.0 15.015461921691895
v 18.0 9.802048683166504 13.0
v 18.0 10.0 12.924707412719727
v 18.0 10.0 15.015461921691895
v 18.0 11.0 12.732725143432617
v 18.0 11.0 15.015461921691895
v 18.0 12.0 12.732725143432617
v 18.0 12.0 15.015461921691895
v 18.0 13.0 12.924707412719727
v 18.0 13.0 15.015461921691895
v 18.0 13.197951316833496 13.0
v 17.393163681030273 14.0 13.0
v 18.0 14.0 13.533903121948242
v 18.0 14.0 15.015461921691895
v 18.0 14.642027854919434 14.0
v 17.642026901245117 15.0 14.0
v 18.0 15.0 14.914041519165039
v 18.0 15.0 15.015461921691895
v 18.0 15.024422645568848 15.0
v 18.03490447998047 8.0 15.0
v 18.67086410522461 9.0 14.0
v 19.0 9.0 14.903444290161133
v 19.0 8.965095520019531 15.0
v 19.0 9.0 15.015461921691895
v 18.13304901123047 10.0 13.0
v 19.0 10.0 13.696221351623535
v 19.0 9.379032135009766 14.0
v 19.0 10.0 15.015461921691895
v 18.460241317749023 11.0 13.0
v 19.0 11.0 13.539759635925293
v 19.0 11.0 15.015461921691895
v 18.460241317749023 12.0 13.0
v 19.0 12.0 13.539759635925293
v 19.0 12.0 15.015461921691895
v 18.13304901123047 13.0 13.0
v 19.0 13.0 13.696221351623535
v 19.0 13.0 15.015461921691895
v 19.0 13.620967864990234 14.0
v 18.67086410522461 14.0 14.0
v 19.0 14.0 14.903444290161133
v 19.0 14.0 15.015461921691895
v 19.0 14.034904479980469 15.0
v 18.03490447998047 15.0 15.0
v 19.031749725341797 9.0 15.0
v 19.384119033813477 10.0 14.0
v 19.108612060546875 10.0 15.0
v 19.59502410888672 11.0 14.0
v 20.0 11.0 14.92846965789795
v 20.0 10.891387939453125 15.0
v 20.0 11.0 15.015461921691895
v 19.59502410888672 12.0 14.0
v 20.0 12.0 14.92846965789795
v 20.0 12.0 15.015461921691895
v 19.384119033813477 13.0 14.0
v 20.0 12.108612060546875 15.0
v 19.108612060546875 13.0 15.0
v 19.031749725341797 14.0 15.0
v 20.025854110717773 11.0 15.0
v 20.025854110717773 12.0 15.0
f 3 2 1
f 4 1 2
f 3 1 5
f 3 5 6
f 1 4 7
f 1 7 5
f 8 6 5
f 8 5 7
f 11 10 9
f 12 9 10
f 15 14 13
f 13 14 11
f 9 13 11
f 16 13 9
f 9 12 17
f 9 17 16
f 15 13 18
f 15 18 19
f 3 18 2
f 18 16 2
f 18 13 16
f 4 2 16
f 17 4 16
f 20 4 17
f 19 18 21
f 19 21 22
f 6 21 3
f 3 21 18
f 20 7 4
f 23 7 20
f 22 21 24
f 22 24 25
f 8 26 6
f 26 21 6
f 26 24 21
f 27 26 8
f 7 27 8
f 23 27 7
f 28 25 24
f 30 29 28
f 24 30 28
f 26 30 24
f 26 27 31
f 26 31 30
f 32 29 30
f 32 30 31
f 35 34 33
f 36 33 34
f 39 38 37
f 37 38 35
f 37 35 33
f 11 37 33
f 10 11 33
f 12 10 33
f 36 12 33
f 40 12 36
f 43 42 41
f 41 42 39
f 41 39 37
f 15 41 37
f 14 15 37
f 14 37 11
f 40 17 12
f 44 17 40
f 43 41 45
f 43 45 46
f 19 45 15
f 15 45 41
f 44 20 17
f 47 20 44
f 46 45 48
f 46 48 49
f 22 48 19
f 19 48 45
f 47 23 20
f 50 23 47
f 49 48 51
f 49 51 52
f 25 51 22
f 22 51 48
f 50 27 23
f 53 27 50
f 54 52 51
f 56 54 55
f 55 54 28
f 54 51 28
f 51 25 28
f 29 55 28
f 53 31 27
f 57 31 53
f 58 56 55
f 60 58 59
f 59 58 32
f 58 55 32
f 55 29 32
f 61 59 32
f 31 61 32
f 57 61 31
f 62 60 59
f 62 59 61
f 65 64 63
f 34 35 63
f 64 34 63
f 66 34 64
f 36 34 66
f 36 66 67
f 70 69 68
f 68 69 65
f 68 65 63
f 39 68 63
f 38 39 63
f 38 63 35
f 67 40 36
f 71 40 67
f 70 68 42
f 43 70 42
f 72 70 43
f 42 68 39
f 71 44 40
f 73 44 71
f 46 72 43
f 46 74 72
f 73 47 44
f 75 47 73
f 49 74 46
f 49 76 74
f 75 50 47
f 77 50 75
f 52 76 49
f 52 78 76
f 77 53 50
f 79 53 77
f 52 54 80
f 81 52 80
f 78 52 81
f 56 80 54
f 79 57 53
f 82 57 79
f 83 81 80
f 85 83 84
f 84 83 58
f 83 80 58
f 80 56 58
f 60 84 58
f 82 61 57
f 86 61 82
f 87 85 84
f 87 84 60
f 62 87 60
f 88 87 62
f 62 61 86
f 62 86 88
f 91 90 89
f 92 89 90
f 95 94 93
f 64 65 93
f 94 64 93
f 96 64 94
f 89 66 91
f 66 96 91
f 66 64 96
f 67 66 89
f 92 67 89
f 97 67 92
f 95 93 69
f 70 95 69
f 98 95 70
f 69 93 65
f 97 71 67
f 99 71 97
f 102 101 100
f 101 98 100
f 98 72 100
f 98 70 72
f 99 73 71
f 103 73 99
f 102 100 104
f 102 104 105
f 74 104 72
f 72 104 100
f 103 75 73
f 106 75 103
f 105 104 107
f 105 107 108
f 76 107 74
f 74 107 104
f 106 77 75
f 109 77 106
f 108 107 110
f 108 110 111
f 78 110 76
f 76 110 107
f 109 79 77
f 112 79 109
f 113 111 110
f 110 78 113
f 78 114 113
f 78 81 114
f 112 82 79
f 115 82 112
f 81 83 116
f 117 81 116
f 114 81 117
f 85 116 83
f 115 86 82
f 118 86 115
f 119 117 116
f 119 116 85
f 87 119 85
f 120 119 87
f 122 120 121
f 120 88 121
f 120 87 88
f 123 121 88
f 86 123 88
f 118 123 86
f 124 122 121
f 124 121 123
f 127 126 125
f 90 91 125
f 126 90 125
f 128 90 126
f 92 90 128
f 92 128 129
f 131 130 94
f 131 94 95
f 125 96 127
f 96 130 127
f 96 94 130
f 96 125 91
f 129 97 92
f 132 97 129
f 135 134 133
f 134 131 133
f 131 98 133
f 131 95 98
f 132 99 97
f 136 99 132
f 135 133 101
f 102 135 101
f 137 135 102
f 101 133 98
f 136 103 99
f 138 103 136
f 141 140 139
f 140 137 139
f 137 105 139
f 137 102 105
f 138 106 103
f 142 106 138
f 141 139 143
f 141 143 144
f 108 143 105
f 105 143 139
f 142 109 106
f 145 109 142
f 146 144 143
f 143 108 146
f 108 147 146
f 108 111 147
f 145 112 109
f 148 112 145
f 111 113 149
f 150 111 149
f 147 111 150
f 114 149 113
f 148 115 112
f 151 115 148
f 152 150 149
f 149 114 152
f 114 153 152
f 114 117 153
f 151 118 115
f 154 118 151
f 155 153 117
f 155 117 119
f 157 155 156
f 155 120 156
f 155 119 120
f 122 156 120
f 154 123 118
f 158 123 154
f 159 157 156
f 159 156 122
f 124 159 122
f 160 159 124
f 124 123 158
f 124 158 160
f 162 161 126
f 162 126 127
f 126 163 128
f 161 163 126
f 129 128 163
f 129 163 164
f 166 165 130
f 166 130 131
f 127 130 162
f 162 130 165
f 164 132 129
f 167 132 164
f 169 168 134
f 169 134 135
f 131 134 166
f 166 134 168
f 167 136 132
f 170 136 167
f 173 172 171
f 172 169 171
f 169 137 171
f 169 135 137
f 170 138 136
f 174 138 170
f 173 171 140
f 141 173 140
f 175 173 141
f 140 171 137
f 174 142 138
f 176 142 174
f 144 175 141
f 144 177 175
f 176 145 142
f 178 145 176
f 144 146 179
f 180 144 179
f 177 144 180
f 147 179 146
f 178 148 145
f 181 148 178
f 182 180 179
f 179 147 182
f 147 183 182
f 147 150 183
f 181 151 148
f 184 151 181
f 185 183 150
f 185 150 152
f 152 153 185
f 185 153 186
f 184 154 151
f 187 154 184
f 188 186 153
f 188 153 155
f 155 157 188
f 188 157 189
f 187 158 154
f 190 158 187
f 191 189 157
f 191 157 159
f 192 159 160
f 192 191 159
f 160 158 190
f 160 190 192
f 195 194 193
f 161 162 193
f 194 161 193
f 196 161 194
f 161 197 163
f 196 197 161
f 164 163 197
f 164 197 198
f 201 200 199
f 199 200 195
f 199 195 193
f 166 199 193
f 165 166 193
f 165 193 162
f 198 167 164
f 202 167 198
f 205 204 203
f 203 204 201
f 203 201 199
f 169 203 199
f 168 169 199
f 168 199 166
f 202 170 167
f 206 170 202
f 209 208 207
f 207 208 205
f 207 205 203
f 173 207 203
f 172 173 203
f 172 203 169
f 206 174 170
f 210 174 206
f 213 212 211
f 211 212 209
f 207 211 209
f 214 211 207
f 175 214 173
f 173 214 207
f 210 176 174
f 215 176 210
f 213 211 216
f 213 216 217
f 218 211 214
f 216 211 218
f 177 218 175
f 175 218 214
f 215 178 176
f 219 178 215
f 220 217 216
f 222 221 220
f 216 222 220
f 218 222 216
f 180 222 177
f 177 222 218
f 219 181 178
f 223 181 219
f 224 221 222
f 226 224 225
f 225 224 182
f 224 222 182
f 222 180 182
f 183 225 182
f 223 184 181
f 227 184 223
f 228 226 225
f 230 228 229
f 229 228 185
f 228 225 185
f 225 183 185
f 186 229 185
f 227 187 184
f 231 187 227
f 232 230 229
f 234 232 233
f 233 232 188
f 232 229 188
f 229 186 188
f 189 233 188
f 231 190 187
f 235 190 231
f 236 234 233
f 236 233 189
f 191 236 189
f 237 236 191
f 238 191 192
f 238 237 191
f 192 190 235
f 192 235 238
f 240 239 194
f 240 194 195
f 194 241 196
f 239 241 194
f 196 242 197
f 241 242 196
f 198 197 242
f 198 242 243
f 245 244 200
f 245 200 201
f 195 200 240
f 240 200 244
f 243 202 198
f 246 202 243
f 248 247 204
f 248 204 205
f 201 204 245
f 245 204 247
f 246 206 202
f 249 206 246
f 252 251 250
f 208 209 250
f 251 208 250
f 253 208 251
f 205 208 248
f 248 208 253
f 249 210 206
f 254 210 249
f 252 256 255
f 252 213 256
f 252 250 212
f 213 252 212
f 209 212 250
f 258 255 257
f 256 257 255
f 260 259 257
f 257 259 258
f 262 261 260
f 260 261 259
f 264 263 262
f 262 263 261
f 266 265 264
f 264 265 263
f 266 267 265
f 254 215 210
f 268 215 254
f 217 269 256
f 217 256 213
f 256 270 257
f 256 269 270
f 257 271 260
f 257 270 271
f 260 272 262
f 260 271 272
f 262 273 264
f 262 272 273
f 264 274 266
f 264 273 274
f 267 266 275
f 275 266 274
f 268 219 215
f 276 219 268
f 278 220 277
f 278 217 220
f 269 217 278
f 269 278 279
f 277 220 221
f 270 279 280
f 279 270 269
f 270 280 271
f 271 280 281
f 271 281 272
f 272 281 282
f 272 282 273
f 273 282 283
f 273 283 274
f 274 283 284
f 274 284 275
f 276 223 219
f 285 223 276
f 286 278 277
f 286 277 221
f 224 286 221
f 287 286 224
f 224 226 287
f 287 226 288
f 285 227 223
f 289 227 285
f 290 288 226
f 290 226 228
f 228 230 290
f 290 230 291
f 289 231 227
f 292 231 289
f 293 291 230
f 293 230 232
f 232 234 293
f 293 234 294
f 292 235 231
f 295 235 292
f 296 294 234
f 296 234 236
f 297 236 237
f 297 296 236
f 298 237 238
f 298 297 237
f 238 235 295
f 238 295 298
f 300 299 239
f 300 239 240
f 239 301 241
f 299 301 239
f 241 302 242
f 301 302 241
f 243 242 302
f 243 302 303
f 305 304 244
f 305 244 245
f 240 244 300
f 300 244 304
f 303 246 243
f 306 246 303
f 308 307 247
f 308 247 248
f 245 247 305
f 305 247 307
f 306 249 246
f 309 249 306
f 311 310 251
f 311 251 252
f 251 312 253
f 310 312 251
f 248 253 308
f 308 253 312
f 309 254 249
f 313 254 309
f 314 311 252
f 314 252 255
f 315 255 258
f 315 314 255
f 316 258 259
f 316 315 258
f 317 259 261
f 317 316 259
f 318 261 263
f 318 317 261
f 319 263 265
f 319 318 263
f 265 267 319
f 319 267 320
f 313 268 254
f 321 268 313
f 275 320 267
f 275 322 320
f 321 276 268
f 323 276 321
f 325 324 279
f 325 279 278
f 279 326 280
f 324 326 279
f 280 327 281
f 326 327 280
f 281 328 282
f 327 328 281
f 282 329 283
f 328 329 282
f 283 330 284
f 329 330 283
f 275 284 322
f 322 284 330
f 323 285 276
f 331 285 323
f 332 325 278
f 332 278 286
f 333 286 287
f 333 332 286
f 287 288 333
f 333 288 334
f 331 289 285
f 335 289 331
f 336 334 288
f 336 288 290
f 290 291 336
f 336 291 337
f 335 292 289
f 338 292 335
f 339 337 291
f 339 291 293
f 293 294 339
f 339 294 340
f 338 295 292
f 341 295 338
f 342 340 294
f 342 294 296
f 343 296 297
f 343 342 296
f 344 297 298
f 344 343 297
f 298 295 341
f 298 341 344
f 346 345 299
f 346 299 300
f 299 347 301
f 345 347 299
f 301 348 302
f 347 348 301
f 303 302 348
f 303 348 349
f 351 350 304
f 351 304 305
f 300 304 346
f 346 304 350
f 349 306 303
f 352 306 349
f 354 353 307
f 354 307 308
f 305 307 351
f 351 307 353
f 352 309 306
f 355 309 352
f 311 356 310
f 310 356 357
f 358 310 357
f 312 310 358
f 308 312 354
f 354 312 358
f 355 313 309
f 359 313 355
f 361 314 360
f 361 311 314
f 356 311 361
f 356 361 362
f 356 362 357
f 363 314 315
f 314 363 360
f 316 364 315
f 315 364 363
f 317 365 316
f 316 365 364
f 318 366 317
f 317 366 365
f 319 367 318
f 318 367 366
f 320 367 319
f 359 321 313
f 368 321 359
f 361 360 369
f 361 369 370
f 371 360 363
f 369 360 371
f 372 363 364
f 371 363 372
f 373 364 365
f 372 364 373
f 374 365 366
f 373 365 374
f 375 366 367
f 374 366 375
f 322 375 320
f 320 375 367
f 368 323 321
f 376 323 368
f 370 378 377
f 370 325 378
f 370 369 324
f 325 370 324
f 379 377 378
f 326 324 371
f 369 371 324
f 326 371 327
f 327 371 372
f 327 372 328
f 328 372 373
f 328 373 329
f 329 373 374
f 329 374 330
f 330 374 375
f 330 375 322
f 376 331 323
f 380 331 376
f 332 378 325
f 381 379 378
f 332 381 378
f 333 381 332
f 333 334 381
f 381 334 382
f 380 335 331
f 383 335 380
f 384 382 334
f 384 334 336
f 336 337 384
f 384 337 385
f 383 338 335
f 386 338 383
f 387 385 337
f 387 337 339
f 339 340 387
f 387 340 388
f 386 341 338
f 389 341 386
f 390 388 340
f 390 340 342
f 391 342 343
f 391 390 342
f 392 343 344
f 392 391 343
f 344 341 389
f 344 389 392
f 346 393 345
f 345 393 394
f 395 345 394
f 347 345 395
f 347 396 348
f 395 396 347
f 349 348 396
f 349 396 397
f 351 398 350
f 398 399 350
f 350 399 346
f 399 400 346
f 400 393 346
f 393 400 394
f 397 352 349
f 401 352 397
f 354 402 353
f 402 403 353
f 353 403 351
f 403 404 351
f 404 398 351
f 398 404 399
f 401 355 352
f 405 355 401
f 357 406 358
f 406 407 358
f 358 407 354
f 407 408 354
f 408 402 354
f 402 408 403
f 405 359 355
f 409 359 405
f 361 410 362
f 406 357 362
f 410 406 362
f 411 406 410
f 407 406 412
f 412 406 411
f 409 368 359
f 413 368 409
f 370 414 410
f 370 410 361
f 410 415 411
f 410 414 415
f 412 411 416
f 416 411 415
f 413 376 368
f 417 376 413
f 377 414 370
f 414 377 379
f 418 414 379
f 415 414 418
f 416 415 419
f 419 415 418
f 417 380 376
f 420 380 417
f 381 418 379
f 422 421 382
f 382 421 381
f 421 419 381
f 419 418 381
f 422 423 421
f 420 383 380
f 424 383 420
f 384 422 382
f 426 425 385
f 385 425 384
f 425 423 384
f 423 422 384
f 426 427 425
f 424 386 383
f 428 386 424
f 387 426 385
f 430 429 388
f 388 429 387
f 429 427 387
f 427 426 387
f 430 431 429
f 428 389 386
f 432 389 428
f 390 430 388
f 433 431 430
f 390 433 430
f 391 433 390
f 434 391 392
f 434 433 391
f 392 389 432
f 392 432 434
f 436 435 395
f 436 395 394
f 395 437 396
f 435 437 395
f 397 396 437
f 397 437 438
f 440 439 400
f 440 400 399
f 394 400 436
f 436 400 439
f 438 401 397
f 441 401 438
f 443 442 404
f 443 404 403
f 399 404 440
f 440 404 442
f 441 405 401
f 444 405 441
f 407 445 408
f 445 446 408
f 446 403 408
f 446 443 403
f 444 409 405
f 447 409 444
f 449 448 445
f 407 449 445
f 412 449 407
f 445 448 446
f 447 413 409
f 450 413 447
f 416 449 412
f 416 451 449
f 450 417 413
f 452 417 450
f 419 454 453
f 451 419 453
f 416 419 451
f 454 455 453
f 452 420 417
f 456 420 452
f 421 454 419
f 421 423 454
f 423 455 454
f 423 457 455
f 456 424 420
f 458 424 456
f 459 457 423
f 459 423 425
f 425 427 459
f 459 427 460
f 458 428 424
f 461 428 458
f 462 460 427
f 462 427 429
f 429 431 462
f 462 431 463
f 461 432 428
f 464 432 461
f 465 463 431
f 465 431 433
f 466 433 434
f 466 465 433
f 434 432 464
f 434 464 466
f 436 467 435
f 435 467 468
f 469 435 468
f 437 435 469
f 438 437 469
f 438 469 470
f 472 471 439
f 472 439 440
f 436 439 467
f 439 473 467
f 439 471 473
f 467 473 468
f 470 441 438
f 474 441 470
f 443 475 442
f 475 476 442
f 476 440 442
f 476 472 440
f 474 444 441
f 477 444 474
f 479 478 475
f 443 479 475
f 446 479 443
f 475 478 476
f 477 447 444
f 480 447 477
f 449 481 448
f 481 482 448
f 482 446 448
f 482 479 446
f 480 450 447
f 483 450 480
f 451 484 481
f 451 481 449
f 482 481 485
f 485 481 484
f 483 452 450
f 486 452 483
f 453 484 451
f 453 455 484
f 455 485 484
f 455 487 485
f 486 456 452
f 488 456 486
f 457 490 489
f 487 457 489
f 455 457 487
f 490 491 489
f 488 458 456
f 492 458 488
f 459 490 457
f 459 460 490
f 460 491 490
f 460 493 491
f 492 461 458
f 494 461 492
f 495 493 460
f 495 460 462
f 497 496 463
f 496 462 463
f 496 495 462
f 497 498 496
f 494 464 461
f 499 464 494
f 465 497 463
f 500 498 497
f 465 500 497
f 466 500 465
f 466 464 499
f 466 499 500
f 468 501 469
f 501 470 469
f 472 502 471
f 471 502 503
f 504 471 503
f 473 471 504
f 468 473 501
f 473 505 501
f 473 504 505
f 470 501 505
f 506 470 505
f 474 470 506
f 508 507 502
f 472 508 502
f 476 508 472
f 502 507 503
f 506 477 474
f 509 477 506
f 479 510 478
f 510 511 478
f 511 476 478
f 511 508 476
f 509 480 477
f 512 480 509
f 482 513 510
f 482 510 479
f 511 510 514
f 514 510 513
f 512 483 480
f 515 483 512
f 485 516 513
f 485 513 482
f 514 513 517
f 517 513 516
f 515 486 483
f 518 486 515
f 487 519 516
f 487 516 485
f 517 516 520
f 520 516 519
f 518 488 486
f 521 488 518
f 489 519 487
f 489 491 519
f 491 520 519
f 491 522 520
f 521 492 488
f 523 492 521
f 493 525 524
f 522 493 524
f 491 493 522
f 525 526 524
f 523 494 492
f 527 494 523
f 495 525 493
f 528 526 525
f 495 528 525
f 496 528 495
f 530 529 498
f 529 496 498
f 529 528 496
f 527 529 530
f 499 527 530
f 494 527 499
f 500 530 498
f 530 500 499
f 503 531 504
f 504 531 532
f 533 504 532
f 505 504 533
f 506 505 533
f 506 533 534
f 508 535 507
f 535 536 507
f 507 536 503
f 536 537 503
f 537 531 503
f 531 537 532
f 534 509 506
f 538 509 534
f 540 539 535
f 508 540 535
f 511 540 508
f 535 539 536
f 538 512 509
f 541 512 538
f 514 540 511
f 514 542 540
f 541 515 512
f 543 515 541
f 517 542 514
f 517 544 542
f 543 518 515
f 545 518 543
f 520 544 517
f 520 546 544
f 545 521 518
f 547 521 545
f 522 549 548
f 546 522 548
f 520 522 546
f 549 550 548
f 547 523 521
f 551 523 547
f 524 549 522
f 553 552 526
f 526 552 524
f 552 550 524
f 550 549 524
f 553 554 552
f 551 527 523
f 555 527 551
f 528 553 526
f 556 554 553
f 528 556 553
f 529 556 528
f 529 527 555
f 529 555 556
f 532 557 533
f 557 534 533
f 536 558 537
f 558 559 537
f 537 559 532
f 559 560 532
f 560 557 532
f 534 557 560
f 561 534 560
f 538 534 561
f 540 562 539
f 562 563 539
f 539 563 536
f 563 564 536
f 564 558 536
f 558 564 559
f 561 541 538
f 565 541 561
f 542 566 562
f 542 562 540
f 563 562 567
f 567 562 566
f 565 543 541
f 568 543 565
f 544 569 566
f 544 566 542
f 567 566 570
f 570 566 569
f 568 545 543
f 571 545 568
f 546 572 569
f 546 569 544
f 570 569 573
f 573 569 572
f 571 547 545
f 574 547 571
f 548 572 546
f 576 575 550
f 550 575 548
f 575 573 548
f 573 572 548
f 576 577 575
f 574 551 547
f 578 551 574
f 552 576 550
f 580 579 554
f 554 579 552
f 579 577 552
f 577 576 552
f 578 579 580
f 555 578 580
f 551 578 555
f 556 580 554
f 580 556 555
f 559 581 560
f 581 561 560
f 563 582 564
f 581 559 564
f 582 581 564
f 583 581 582
f 583 565 561
f 583 561 581
f 567 584 582
f 567 582 563
f 586 583 585
f 583 584 585
f 583 582 584
f 565 583 586
f 587 565 586
f 568 565 587
f 570 588 584
f 570 584 567
f 585 584 589
f 589 584 588
f 587 571 568
f 590 571 587
f 573 591 588
f 573 588 570
f 589 588 592
f 588 593 592
f 588 591 593
f 590 592 593
f 574 590 593
f 571 590 574
f 575 591 573
f 591 575 577
f 594 591 577
f 593 591 594
f 594 578 574
f 594 574 593
f 579 594 577
f 594 579 578
f 585 595 586
f 595 587 586
f 589 596 595
f 589 595 585
f 596 590 587
f 596 587 595
f 592 596 589
f 596 592 590
