v 3.814418315887451 10.0 14.0
v 4.0 9.664457321166992 14.0
v 4.0 10.0 13.821002006530762
v 4.0 10.0 14.21273136138916
v 3.5533080101013184 11.0 14.0
v 4.0 11.0 13.558314323425293
v 4.0 11.0 14.39532470703125
v 3.5533080101013184 12.0 14.0
v 4.0 12.0 13.558314323425293
v 4.0 12.0 14.39532470703125
v 3.814418315887451 13.0 14.0
v 4.0 13.0 13.821002006530762
v 4.0 13.0 14.21273136138916
v 4.0 13.335542678833008 14.0
v 4.4500837326049805 9.0 14.0
v 5.0 8.401115417480469 14.0
v 5.0 9.0 13.495904922485352
v 5.0 9.0 14.39532470703125
v 4.834956645965576 10.0 13.0
v 5.0 9.724161148071289 13.0
v 5.0 10.0 12.904176712036133
v 5.0 10.0 14.39532470703125
v 4.558313846588135 11.0 13.0
v 5.0 11.0 12.740551948547363
v 5.0 11.0 14.39532470703125
v 4.558313846588135 12.0 13.0
v 5.0 12.0 12.740551948547363
v 5.0 12.0 14.39532470703125
v 4.834956645965576 13.0 13.0
v 5.0 13.0 12.904176712036133
v 5.0 13.0 14.39532470703125
v 5.0 13.275838851928711 13.0
v 4.4500837326049805 14.0 14.0
v 5.0 14.0 13.495904922485352
v 5.0 14.0 14.39532470703125
v 5.0 14.598884582519531 14.0
v 5.4011149406433105 8.0 14.0
v 6.0 7.581021785736084 14.0
v 6.0 8.0 13.50529670715332
v 6.0 8.0 14.39532470703125
v 5.495904445648193 9.0 13.0
v 6.0 8.50529670715332 13.0
v 6.0 9.0 12.72341251373291
v 6.0 9.0 14.39532470703125
v 6.0 10.0 12.532062530517578
v 6.0 10.0 14.39532470703125
v 6.0 11.0 12.253436088562012
v 6.0 11.0 14.39532470703125
v 6.0 12.0 12.253436088562012
v 6.0 12.0 14.39532470703125
v 6.0 13.0 12.532062530517578
v 6.0 13.0 14.39532470703125
v 5.495904445648193 14.0 13.0
v 6.0 14.0 12.72341251373291
v 6.0 14.0 14.39532470703125
v 6.0 14.49470329284668 13.0
v 5.4011149406433105 15.0 14.0
v 6.0 15.0 13.50529670715332
v 6.0 15.0 14.39532470703125
v 6.0 15.418977737426758 14.0
v 6.995766639709473 7.0 14.0
v 7.0 6.997958660125732 14.0
v 7.0 7.0 13.997065544128418
v 7.0 7.0 14.003839492797852
v 6.6088995933532715 8.0 13.0
v 7.0 7.753267765045166 13.0
v 7.0 8.0 12.808348655700684
v 7.0 8.0 14.39532470703125
v 7.0 9.0 12.340130805969238
v 7.0 9.0 14.39532470703125
v 6.532062530517578 10.0 12.0
v 7.0 9.340130805969238 12.0
v 7.0 10.0 11.754201889038086
v 7.0 10.0 14.39532470703125
v 6.25343656539917 11.0 12.0
v 7.0 11.0 11.687932968139648
v 7.0 11.0 14.39532470703125
v 6.25343656539917 12.0 12.0
v 7.0 12.0 11.687932968139648
v 7.0 12.0 14.39532470703125
v 6.532062530517578 13.0 12.0
v 7.0 13.0 11.754201889038086
v 7.0 13.0 14.39532470703125
v 7.0 13.659869194030762 12.0
v 7.0 14.0 12.340130805969238
v 7.0 14.0 14.39532470703125
v 6.6088995933532715 15.0 13.0
v 7.0 15.0 12.808348655700684
v 7.0 15.0 14.39532470703125
v 7.0 15.246732711791992 13.0
v 6.995766639709473 16.0 14.0
v 7.0 16.0 13.997065544128418
v 7.0 16.0 14.003839492797852
v 7.0 16.00204086303711 14.0
v 8.0 6.650114059448242 14.0
v 8.0 7.0 13.42855167388916
v 8.0 7.0 14.39532470703125
v 8.0 7.428552150726318 13.0
v 8.0 8.0 12.530117988586426
v 8.0 8.0 14.39532470703125
v 7.3401312828063965 9.0 12.0
v 8.0 8.530117988586426 12.0
v 8.0 9.0 11.704301834106445
v 8.0 9.0 14.39532470703125
v 8.0 10.0 11.325262069702148
v 8.0 10.0 14.39532470703125
v 7.78569221496582 11.0 11.0
v 8.0 10.444969177246094 11.0
v 8.0 11.0 10.831012725830078
v 8.0 11.0 14.39532470703125
v 7.78569221496582 12.0 11.0
v 8.0 12.0 10.831012725830078
v 8.0 12.0 14.39532470703125
v 8.0 12.555030822753906 11.0
v 8.0 13.0 11.325262069702148
v 8.0 13.0 14.39532470703125
v 7.3401312828063965 14.0 12.0
v 8.0 14.0 11.704301834106445
v 8.0 14.0 14.39532470703125
v 8.0 14.469882011413574 12.0
v 8.0 15.0 12.530117988586426
v 8.0 15.0 14.39532470703125
v 8.0 15.57144832611084 13.0
v 8.0 16.0 13.42855167388916
v 8.0 16.0 14.39532470703125
v 8.0 16.349885940551758 14.0
v 8.748032569885254 7.0 13.0
v 9.0 6.921039581298828 13.0
v 9.0 7.0 12.918277740478516
v 9.0 6.51328706741333 14.0
v 9.0 7.0 14.39532470703125
v 8.829773902893066 8.0 12.0
v 9.0 7.92460823059082 12.0
v 9.0 8.0 11.931591033935547
v 9.0 8.0 14.39532470703125
v 9.0 9.0 11.27458667755127
v 9.0 9.0 14.39532470703125
v 8.325262069702148 10.0 11.0
v 9.0 9.27458667755127 11.0
v 9.0 10.0 10.500121116638184
v 9.0 10.0 14.39532470703125
v 8.914806365966797 11.0 10.0
v 9.0 10.78416919708252 10.0
v 9.0 11.0 9.698599815368652
v 9.0 11.0 14.39532470703125
v 8.914806365966797 12.0 10.0
v 9.0 12.0 9.698599815368652
v 9.0 12.0 14.39532470703125
v 9.0 12.21583080291748 10.0
v 8.325262069702148 13.0 11.0
v 9.0 13.0 10.500121116638184
v 9.0 13.0 14.39532470703125
v 9.0 13.72541332244873 11.0
v 9.0 14.0 11.27458667755127
v 9.0 14.0 14.39532470703125
v 8.829773902893066 15.0 12.0
v 9.0 15.0 11.931591033935547
v 9.0 15.0 14.39532470703125
v 9.0 15.07539176940918 12.0
v 8.748032569885254 16.0 13.0
v 9.0 16.0 12.918277740478516
v 9.0 16.0 14.39532470703125
v 9.0 16.078960418701172 13.0
v 9.0 16.486713409423828 14.0
v 10.0 6.711718559265137 13.0
v 10.0 7.0 12.681214332580566
v 10.0 6.3333563804626465 14.0
v 10.0 7.0 14.39532470703125
v 10.0 7.671494960784912 12.0
v 10.0 8.0 11.659143447875977
v 10.0 8.0 14.39532470703125
v 9.27458667755127 9.0 11.0
v 10.0 8.659143447875977 11.0
v 10.0 9.0 10.535218238830566
v 10.0 9.0 14.39532470703125
v 9.500121116638184 10.0 10.0
v 10.0 9.535218238830566 10.0
v 10.0 10.0 9.389596939086914
v 10.0 10.0 14.39532470703125
v 10.0 11.0 9.543794631958008
v 10.0 11.0 14.259298324584961
v 10.0 12.0 9.543794631958008
v 10.0 12.0 14.259298324584961
v 9.500121116638184 13.0 10.0
v 10.0 13.0 9.389596939086914
v 10.0 13.0 14.39532470703125
v 10.0 13.464781761169434 10.0
v 9.27458667755127 14.0 11.0
v 10.0 14.0 10.535218238830566
v 10.0 14.0 14.39532470703125
v 10.0 14.340856552124023 11.0
v 10.0 15.0 11.659143447875977
v 10.0 15.0 14.39532470703125
v 10.0 15.32850456237793 12.0
v 10.0 16.0 12.681214332580566
v 10.0 16.0 14.39532470703125
v 10.0 16.288280487060547 13.0
v 10.0 16.666643142700195 14.0
v 11.0 6.673442840576172 13.0
v 11.0 7.0 12.619982719421387
v 11.0 6.178042888641357 14.0
v 11.0 7.0 14.39532470703125
v 11.0 7.6199822425842285 12.0
v 11.0 8.0 11.561075210571289
v 11.0 8.0 14.39532470703125
v 10.986106872558594 9.0 10.0
v 11.0 8.995152473449707 10.0
v 11.0 9.0 9.975211143493652
v 11.0 8.561075210571289 11.0
v 11.0 9.0 14.39532470703125
v 11.0 10.0 9.543794631958008
v 11.0 10.0 14.259298324584961
v 11.0 10.180646896362305 10.0
v 10.180646896362305 11.0 10.0
v 11.0 10.180646896362305 11.0
v 10.180646896362305 11.0 11.0
v 11.0 10.180646896362305 12.0
v 10.180646896362305 11.0 12.0
v 11.0 10.180646896362305 13.0
v 10.180646896362305 11.0 13.0
v 11.0 10.402236938476562 14.0
v 10.402236938476562 11.0 14.0
v 10.180646896362305 12.0 10.0
v 10.180646896362305 12.0 11.0
v 10.180646896362305 12.0 12.0
v 10.180646896362305 12.0 13.0
v 10.402236938476562 12.0 14.0
v 11.0 12.819353103637695 10.0
v 11.0 13.0 9.543794631958008
v 11.0 12.819353103637695 11.0
v 11.0 12.819353103637695 12.0
v 11.0 12.819353103637695 13.0
v 11.0 12.597763061523438 14.0
v 11.0 13.0 14.259298324584961
v 10.986106872558594 14.0 10.0
v 11.0 14.0 9.975211143493652
v 11.0 14.0 14.39532470703125
v 11.0 14.004847526550293 10.0
v 11.0 14.438924789428711 11.0
v 11.0 15.0 11.561075210571289
v 11.0 15.0 14.39532470703125
v 11.0 15.380017280578613 12.0
v 11.0 16.0 12.619982719421387
v 11.0 16.0 14.39532470703125
v 11.0 16.326557159423828 13.0
v 11.0 16.821956634521484 14.0
v 12.0 6.673442840576172 13.0
v 12.0 7.0 12.619982719421387
v 12.0 6.178042888641357 14.0
v 12.0 7.0 14.39532470703125
v 12.0 7.6199822425842285 12.0
v 12.0 8.0 11.561075210571289
v 12.0 8.0 14.39532470703125
v 12.0 8.995152473449707 10.0
v 12.0 9.0 9.975211143493652
v 12.0 8.561075210571289 11.0
v 12.0 9.0 14.39532470703125
v 12.0 10.0 9.543794631958008
v 12.0 10.0 14.259298324584961
v 12.0 10.180646896362305 10.0
v 12.0 10.180646896362305 11.0
v 12.0 10.180646896362305 12.0
v 12.0 10.180646896362305 13.0
v 12.0 10.402236938476562 14.0
v 12.0 12.819353103637695 10.0
v 12.0 13.0 9.543794631958008
v 12.0 12.819353103637695 11.0
v 12.0 12.819353103637695 12.0
v 12.0 12.819353103637695 13.0
v 12.0 12.597763061523438 14.0
v 12.0 13.0 14.259298324584961
v 12.0 14.0 9.975211143493652
v 12.0 14.0 14.39532470703125
v 12.0 14.004847526550293 10.0
v 12.0 14.438924789428711 11.0
v 12.0 15.0 11.561075210571289
v 12.0 15.0 14.39532470703125
v 12.0 15.380017280578613 12.0
v 12.0 16.0 12.619982719421387
v 12.0 16.0 14.39532470703125
v 12.0 16.326557159423828 13.0
v 12.0 16.821956634521484 14.0
v 13.0 6.711718559265137 13.0
v 13.0 7.0 12.681214332580566
v 13.0 6.3333563804626465 14.0
v 13.0 7.0 14.39532470703125
v 13.0 7.671494960784912 12.0
v 13.0 8.0 11.659143447875977
v 13.0 8.0 14.39532470703125
v 12.013893127441406 9.0 10.0
v 13.0 9.0 10.535218238830566
v 13.0 8.659143447875977 11.0
v 13.0 9.0 14.39532470703125
v 13.0 9.535218238830566 10.0
v 13.0 10.0 9.389596939086914
v 13.0 10.0 14.39532470703125
v 12.819353103637695 11.0 10.0
v 13.0 11.0 9.543794631958008
v 12.819353103637695 11.0 11.0
v 12.819353103637695 11.0 12.0
v 12.819353103637695 11.0 13.0
v 12.597763061523438 11.0 14.0
v 13.0 11.0 14.259298324584961
v 12.819353103637695 12.0 10.0
v 13.0 12.0 9.543794631958008
v 12.819353103637695 12.0 11.0
v 12.819353103637695 12.0 12.0
v 12.819353103637695 12.0 13.0
v 12.597763061523438 12.0 14.0
v 13.0 12.0 14.259298324584961
v 13.0 13.0 9.389596939086914
v 13.0 13.0 14.39532470703125
v 13.0 13.464781761169434 10.0
v 12.013893127441406 14.0 10.0
v 13.0 14.0 10.535218238830566
v 13.0 14.0 14.39532470703125
v 13.0 14.340856552124023 11.0
v 13.0 15.0 11.659143447875977
v 13.0 15.0 14.39532470703125
v 13.0 15.32850456237793 12.0
v 13.0 16.0 12.681214332580566
v 13.0 16.0 14.39532470703125
v 13.0 16.288280487060547 13.0
v 13.0 16.666643142700195 14.0
v 14.0 6.921039581298828 13.0
v 14.0 7.0 12.918277740478516
v 14.0 6.51328706741333 14.0
v 14.0 7.0 14.39532470703125
v 14.0 7.92460823059082 12.0
v 14.0 8.0 11.931591033935547
v 14.0 8.0 14.39532470703125
v 13.72541332244873 9.0 11.0
v 14.0 9.0 11.27458667755127
v 14.0 9.0 14.39532470703125
v 13.499878883361816 10.0 10.0
v 14.0 10.0 10.500121116638184
v 14.0 9.27458667755127 11.0
v 14.0 10.0 14.39532470703125
v 14.0 10.78416919708252 10.0
v 14.0 11.0 9.698599815368652
v 14.0 11.0 14.39532470703125
v 14.0 12.0 9.698599815368652
v 14.0 12.0 14.39532470703125
v 14.0 12.21583080291748 10.0
v 13.499878883361816 13.0 10.0
v 14.0 13.0 10.500121116638184
v 14.0 13.0 14.39532470703125
v 14.0 13.72541332244873 11.0
v 13.72541332244873 14.0 11.0
v 14.0 14.0 11.27458667755127
v 14.0 14.0 14.39532470703125
v 14.0 15.0 11.931591033935547
v 14.0 15.0 14.39532470703125
v 14.0 15.07539176940918 12.0
v 14.0 16.0 12.918277740478516
v 14.0 16.0 14.39532470703125
v 14.0 16.078960418701172 13.0
v 14.0 16.486713409423828 14.0
v 14.251967430114746 7.0 13.0
v 15.0 7.0 13.42855167388916
v 15.0 6.650114059448242 14.0
v 15.0 7.0 14.39532470703125
v 14.170226097106934 8.0 12.0
v 15.0 8.0 12.530117988586426
v 15.0 7.428552150726318 13.0
v 15.0 8.0 14.39532470703125
v 15.0 8.530117988586426 12.0
v 15.0 9.0 11.704301834106445
v 15.0 9.0 14.39532470703125
v 14.674737930297852 10.0 11.0
v 15.0 10.0 11.325262069702148
v 15.0 10.0 14.39532470703125
v 14.085193634033203 11.0 10.0
v 15.0 11.0 10.831012725830078
v 15.0 10.444969177246094 11.0
v 15.0 11.0 14.39532470703125
v 14.085193634033203 12.0 10.0
v 15.0 12.0 10.831012725830078
v 15.0 12.0 14.39532470703125
v 15.0 12.555030822753906 11.0
v 14.674737930297852 13.0 11.0
v 15.0 13.0 11.325262069702148
v 15.0 13.0 14.39532470703125
v 15.0 14.0 11.704301834106445
v 15.0 14.0 14.39532470703125
v 15.0 14.469882011413574 12.0
v 14.170226097106934 15.0 12.0
v 15.0 15.0 12.530117988586426
v 15.0 15.0 14.39532470703125
v 15.0 15.57144832611084 13.0
v 14.251967430114746 16.0 13.0
v 15.0 16.0 13.42855167388916
v 15.0 16.0 14.39532470703125
v 15.0 16.349885940551758 14.0
v 16.0 6.997958660125732 14.0
v 16.0 7.0 13.997065544128418
v 16.0 7.0 14.003839492797852
v 16.0 7.753267765045166 13.0
v 16.0 8.0 12.808348655700684
v 16.0 8.0 14.39532470703125
v 15.659869194030762 9.0 12.0
v 16.0 9.0 12.340130805969238
v 16.0 9.0 14.39532470703125
v 16.0 9.340130805969238 12.0
v 16.0 10.0 11.754201889038086
v 16.0 10.0 14.39532470703125
v 15.21430778503418 11.0 11.0
v 16.0 11.0 11.687932968139648
v 16.0 11.0 14.39532470703125
v 15.21430778503418 12.0 11.0
v 16.0 12.0 11.687932968139648
v 16.0 12.0 14.39532470703125
v 16.0 13.0 11.754201889038086
v 16.0 13.0 14.39532470703125
v 16.0 13.659869194030762 12.0
v 15.659869194030762 14.0 12.0
v 16.0 14.0 12.340130805969238
v 16.0 14.0 14.39532470703125
v 16.0 15.0 12.808348655700684
v 16.0 15.0 14.39532470703125
v 16.0 15.246732711791992 13.0
v 16.0 16.0 13.997065544128418
v 16.0 16.0 14.003839492797852
v 16.0 16.00204086303711 14.0
v 16.004234313964844 7.0 14.0
v 16.39109992980957 8.0 13.0
v 17.0 8.0 13.50529670715332
v 17.0 7.581021785736084 14.0
v 17.0 8.0 14.39532470703125
v 17.0 8.50529670715332 13.0
v 17.0 9.0 12.72341251373291
v 17.0 9.0 14.39532470703125
v 16.467937469482422 10.0 12.0
v 17.0 10.0 12.532062530517578
v 17.0 10.0 14.39532470703125
v 16.746562957763672 11.0 12.0
v 17.0 11.0 12.253436088562012
v 17.0 11.0 14.39532470703125
v 16.746562957763672 12.0 12.0
v 17.0 12.0 12.253436088562012
v 17.0 12.0 14.39532470703125
v 16.467937469482422 13.0 12.0
v 17.0 13.0 12.532062530517578
v 17.0 13.0 14.39532470703125
v 17.0 14.0 12.72341251373291
v 17.0 14.0 14.39532470703125
v 17.0 14.49470329284668 13.0
v 16.39109992980957 15.0 13.0
v 17.0 15.0 13.50529670715332
v 17.0 15.0 14.39532470703125
v 17.0 15.418977737426758 14.0
v 16.004234313964844 16.0 14.0
v 17.59888458251953 8.0 14.0
v 17.50409507751465 9.0 13.0
v 18.0 9.0 13.495904922485352
v 18.0 8.401115417480469 14.0
v 18.0 9.0 14.39532470703125
v 18.0 9.724161148071289 13.0
v 18.0 10.0 12.904176712036133
v 18.0 10.0 14.39532470703125
v 18.0 11.0 12.740551948547363
v 18.0 11.0 14.39532470703125
v 18.0 12.0 12.740551948547363
v 18.0 12.0 14.39532470703125
v 18.0 13.0 12.904176712036133
v 18.0 13.0 14.39532470703125
v 18.0 13.275838851928711 13.0
v 17.50409507751465 14.0 13.0
v 18.0 14.0 13.495904922485352
v 18.0 14.0 14.39532470703125
v 18.0 14.598884582519531 14.0
v 17.59888458251953 15.0 14.0
v 18.549917221069336 9.0 14.0
v 18.165042877197266 10.0 13.0
v 19.0 10.0 13.821002006530762
v 19.0 9.664457321166992 14.0
v 19.0 10.0 14.21273136138916
v 18.441686630249023 11.0 13.0
v 19.0 11.0 13.558314323425293
v 19.0 11.0 14.39532470703125
v 18.441686630249023 12.0 13.0
v 19.0 12.0 13.558314323425293
v 19.0 12.0 14.39532470703125
v 18.165042877197266 13.0 13.0
v 19.0 13.0 13.821002006530762
v 19.0 13.0 14.21273136138916
v 19.0 13.335542678833008 14.0
v 18.549917221069336 14.0 14.0
v 19.18558120727539 10.0 14.0
v 19.446691513061523 11.0 14.0
v 19.446691513061523 12.0 14.0
v 19.18558120727539 13.0 14.0
f 3 2 1
f 4 1 2
f 3 1 5
f 3 5 6
f 1 4 7
f 1 7 5
f 6 5 8
f 6 8 9
f 5 7 10
f 5 10 8
f 9 8 11
f 9 11 12
f 8 10 13
f 8 13 11
f 14 12 11
f 14 11 13
f 17 16 15
f 18 15 16
f 21 20 19
f 19 20 17
f 19 17 15
f 3 19 15
f 2 3 15
f 4 2 15
f 18 4 15
f 22 4 18
f 21 19 23
f 21 23 24
f 6 23 3
f 3 23 19
f 22 7 4
f 25 7 22
f 24 23 26
f 24 26 27
f 9 26 6
f 6 26 23
f 25 10 7
f 28 10 25
f 27 26 29
f 27 29 30
f 12 29 9
f 9 29 26
f 28 13 10
f 31 13 28
f 32 30 29
f 34 32 33
f 33 32 14
f 32 29 14
f 29 12 14
f 35 33 14
f 13 35 14
f 31 35 13
f 36 34 33
f 36 33 35
f 39 38 37
f 40 37 38
f 43 42 41
f 41 42 39
f 41 39 37
f 17 41 37
f 16 17 37
f 18 16 37
f 40 18 37
f 44 18 40
f 43 41 20
f 21 43 20
f 45 43 21
f 20 41 17
f 44 22 18
f 46 22 44
f 24 45 21
f 24 47 45
f 46 25 22
f 48 25 46
f 27 47 24
f 27 49 47
f 48 28 25
f 50 28 48
f 30 49 27
f 30 51 49
f 50 31 28
f 52 31 50
f 30 32 53
f 54 30 53
f 51 30 54
f 34 53 32
f 52 35 31
f 55 35 52
f 56 54 53
f 58 56 57
f 57 56 36
f 56 53 36
f 53 34 36
f 59 57 36
f 35 59 36
f 55 59 35
f 60 58 57
f 60 57 59
f 63 62 61
f 64 61 62
f 67 66 65
f 65 66 63
f 65 63 61
f 39 65 61
f 38 39 61
f 40 38 61
f 64 40 61
f 68 40 64
f 67 65 42
f 43 67 42
f 69 67 43
f 42 65 39
f 68 44 40
f 70 44 68
f 73 72 71
f 72 69 71
f 69 45 71
f 69 43 45
f 70 46 44
f 74 46 70
f 73 71 75
f 73 75 76
f 47 75 45
f 45 75 71
f 74 48 46
f 77 48 74
f 76 75 78
f 76 78 79
f 49 78 47
f 47 78 75
f 77 50 48
f 80 50 77
f 79 78 81
f 79 81 82
f 51 81 49
f 49 81 78
f 80 52 50
f 83 52 80
f 84 82 81
f 81 51 84
f 51 85 84
f 51 54 85
f 83 55 52
f 86 55 83
f 54 56 87
f 88 54 87
f 85 54 88
f 58 87 56
f 86 59 55
f 89 59 86
f 90 88 87
f 92 90 91
f 91 90 60
f 90 87 60
f 87 58 60
f 93 91 60
f 59 93 60
f 89 93 59
f 94 92 91
f 94 91 93
f 96 95 62
f 96 62 63
f 64 62 95
f 64 95 97
f 99 98 66
f 99 66 67
f 63 66 96
f 96 66 98
f 97 68 64
f 100 68 97
f 103 102 101
f 102 99 101
f 99 69 101
f 99 67 69
f 100 70 68
f 104 70 100
f 103 101 72
f 73 103 72
f 105 103 73
f 72 101 69
f 104 74 70
f 106 74 104
f 109 108 107
f 108 105 107
f 105 76 107
f 105 73 76
f 106 77 74
f 110 77 106
f 109 107 111
f 109 111 112
f 79 111 76
f 76 111 107
f 110 80 77
f 113 80 110
f 114 112 111
f 111 79 114
f 79 115 114
f 79 82 115
f 113 83 80
f 116 83 113
f 82 84 117
f 118 82 117
f 115 82 118
f 85 117 84
f 116 86 83
f 119 86 116
f 120 118 117
f 117 85 120
f 85 121 120
f 85 88 121
f 119 89 86
f 122 89 119
f 123 121 88
f 123 88 90
f 90 92 123
f 123 92 124
f 122 93 89
f 125 93 122
f 126 124 92
f 126 92 94
f 94 93 125
f 94 125 126
f 129 128 127
f 95 96 127
f 128 95 127
f 130 95 128
f 97 95 130
f 97 130 131
f 134 133 132
f 132 133 129
f 132 129 127
f 99 132 127
f 98 99 127
f 98 127 96
f 131 100 97
f 135 100 131
f 134 132 102
f 103 134 102
f 136 134 103
f 102 132 99
f 135 104 100
f 137 104 135
f 140 139 138
f 139 136 138
f 136 105 138
f 136 103 105
f 137 106 104
f 141 106 137
f 144 143 142
f 142 143 140
f 142 140 138
f 109 142 138
f 108 109 138
f 108 138 105
f 141 110 106
f 145 110 141
f 144 142 146
f 144 146 147
f 112 146 109
f 109 146 142
f 145 113 110
f 148 113 145
f 149 147 146
f 151 149 150
f 150 149 114
f 149 146 114
f 146 112 114
f 115 150 114
f 148 116 113
f 152 116 148
f 153 151 150
f 150 115 153
f 115 154 153
f 115 118 154
f 152 119 116
f 155 119 152
f 118 120 156
f 157 118 156
f 154 118 157
f 121 156 120
f 155 122 119
f 158 122 155
f 159 157 156
f 161 159 160
f 160 159 123
f 159 156 123
f 156 121 123
f 124 160 123
f 158 125 122
f 162 125 158
f 163 161 160
f 163 160 124
f 126 163 124
f 164 163 126
f 126 125 162
f 126 162 164
f 166 165 128
f 166 128 129
f 128 167 130
f 165 167 128
f 131 130 167
f 131 167 168
f 170 169 133
f 170 133 134
f 129 133 166
f 166 133 169
f 168 135 131
f 171 135 168
f 174 173 172
f 173 170 172
f 170 136 172
f 170 134 136
f 171 137 135
f 175 137 171
f 178 177 176
f 176 177 174
f 176 174 172
f 140 176 172
f 139 140 172
f 139 172 136
f 175 141 137
f 179 141 175
f 178 176 143
f 144 178 143
f 180 178 144
f 143 176 140
f 179 145 141
f 181 145 179
f 147 180 144
f 147 182 180
f 181 148 145
f 183 148 181
f 147 149 184
f 185 147 184
f 182 147 185
f 151 184 149
f 183 152 148
f 186 152 183
f 187 185 184
f 189 187 188
f 188 187 153
f 187 184 153
f 184 151 153
f 154 188 153
f 186 155 152
f 190 155 186
f 191 189 188
f 188 154 191
f 154 192 191
f 154 157 192
f 190 158 155
f 193 158 190
f 194 192 157
f 194 157 159
f 159 161 194
f 194 161 195
f 193 162 158
f 196 162 193
f 197 195 161
f 197 161 163
f 198 163 164
f 198 197 163
f 164 162 196
f 164 196 198
f 200 199 165
f 200 165 166
f 165 201 167
f 199 201 165
f 168 167 201
f 168 201 202
f 204 203 169
f 204 169 170
f 166 169 200
f 200 169 203
f 202 171 168
f 205 171 202
f 208 207 206
f 173 174 206
f 207 173 206
f 209 173 207
f 170 173 204
f 204 173 209
f 205 175 171
f 210 175 205
f 208 206 177
f 178 208 177
f 211 208 178
f 177 206 174
f 210 179 175
f 212 179 210
f 180 214 213
f 211 180 213
f 178 180 211
f 216 215 214
f 214 215 213
f 218 217 216
f 216 217 215
f 220 219 218
f 218 219 217
f 222 221 220
f 220 221 219
f 212 221 222
f 181 212 222
f 179 212 181
f 182 223 214
f 182 214 180
f 214 224 216
f 214 223 224
f 216 225 218
f 216 224 225
f 218 226 220
f 218 225 226
f 220 227 222
f 220 226 227
f 227 183 181
f 227 181 222
f 229 228 223
f 182 229 223
f 185 229 182
f 223 228 224
f 224 228 230
f 224 230 225
f 225 230 231
f 225 231 226
f 226 231 232
f 226 232 227
f 227 232 233
f 183 227 233
f 234 183 233
f 186 183 234
f 185 187 235
f 236 185 235
f 229 185 236
f 189 235 187
f 234 190 186
f 237 190 234
f 238 236 235
f 238 235 189
f 191 238 189
f 239 238 191
f 191 192 239
f 239 192 240
f 237 193 190
f 241 193 237
f 242 240 192
f 242 192 194
f 194 195 242
f 242 195 243
f 241 196 193
f 244 196 241
f 245 243 195
f 245 195 197
f 246 197 198
f 246 245 197
f 198 196 244
f 198 244 246
f 248 247 199
f 248 199 200
f 199 249 201
f 247 249 199
f 202 201 249
f 202 249 250
f 252 251 203
f 252 203 204
f 200 203 248
f 248 203 251
f 250 205 202
f 253 205 250
f 255 254 207
f 255 207 208
f 207 256 209
f 254 256 207
f 204 209 252
f 252 209 256
f 253 210 205
f 257 210 253
f 211 255 208
f 211 258 255
f 257 212 210
f 259 212 257
f 260 258 211
f 260 211 213
f 261 213 215
f 261 260 213
f 262 215 217
f 262 261 215
f 263 217 219
f 263 262 217
f 264 219 221
f 264 263 219
f 221 212 259
f 221 259 264
f 266 265 228
f 266 228 229
f 228 267 230
f 265 267 228
f 230 268 231
f 267 268 230
f 231 269 232
f 268 269 231
f 232 270 233
f 269 270 232
f 234 233 270
f 234 270 271
f 236 266 229
f 236 272 266
f 271 237 234
f 273 237 271
f 274 272 236
f 274 236 238
f 275 238 239
f 275 274 238
f 239 240 275
f 275 240 276
f 273 241 237
f 277 241 273
f 278 276 240
f 278 240 242
f 242 243 278
f 278 243 279
f 277 244 241
f 280 244 277
f 281 279 243
f 281 243 245
f 282 245 246
f 282 281 245
f 246 244 280
f 246 280 282
f 284 283 247
f 284 247 248
f 247 285 249
f 283 285 247
f 250 249 285
f 250 285 286
f 288 287 251
f 288 251 252
f 248 251 284
f 284 251 287
f 286 253 250
f 289 253 286
f 255 290 254
f 254 290 291
f 292 254 291
f 256 254 292
f 252 256 288
f 288 256 292
f 289 257 253
f 293 257 289
f 295 294 290
f 255 295 290
f 258 295 255
f 290 294 291
f 293 259 257
f 296 259 293
f 258 260 297
f 298 258 297
f 295 258 298
f 261 299 260
f 260 299 297
f 262 300 261
f 261 300 299
f 263 301 262
f 262 301 300
f 264 302 263
f 263 302 301
f 303 302 264
f 259 303 264
f 296 303 259
f 298 297 304
f 298 304 305
f 306 297 299
f 304 297 306
f 307 299 300
f 306 299 307
f 308 300 301
f 307 300 308
f 309 301 302
f 308 301 309
f 302 303 310
f 302 310 309
f 305 304 265
f 266 305 265
f 311 305 266
f 265 304 267
f 267 304 306
f 267 306 268
f 268 306 307
f 268 307 269
f 269 307 308
f 269 308 270
f 270 308 309
f 271 270 309
f 310 271 309
f 312 271 310
f 272 314 313
f 311 272 313
f 266 272 311
f 314 315 313
f 312 273 271
f 316 273 312
f 274 314 272
f 317 315 314
f 274 317 314
f 275 317 274
f 275 276 317
f 317 276 318
f 316 277 273
f 319 277 316
f 320 318 276
f 320 276 278
f 278 279 320
f 320 279 321
f 319 280 277
f 322 280 319
f 323 321 279
f 323 279 281
f 324 281 282
f 324 323 281
f 282 280 322
f 282 322 324
f 326 325 283
f 326 283 284
f 283 327 285
f 325 327 283
f 286 285 327
f 286 327 328
f 330 329 287
f 330 287 288
f 284 287 326
f 326 287 329
f 328 289 286
f 331 289 328
f 291 332 292
f 332 333 292
f 333 288 292
f 333 330 288
f 331 293 289
f 334 293 331
f 295 335 294
f 335 336 294
f 294 336 291
f 336 337 291
f 337 332 291
f 332 337 333
f 334 296 293
f 338 296 334
f 340 339 335
f 295 340 335
f 298 340 295
f 335 339 336
f 338 303 296
f 341 303 338
f 305 340 298
f 305 342 340
f 341 310 303
f 343 310 341
f 311 345 344
f 342 311 344
f 305 311 342
f 345 346 344
f 343 312 310
f 347 312 343
f 313 345 311
f 349 348 315
f 315 348 313
f 348 346 313
f 346 345 313
f 349 350 348
f 347 316 312
f 351 316 347
f 317 349 315
f 317 318 349
f 318 350 349
f 318 352 350
f 351 319 316
f 353 319 351
f 354 352 318
f 354 318 320
f 320 321 354
f 354 321 355
f 353 322 319
f 356 322 353
f 357 355 321
f 357 321 323
f 358 323 324
f 358 357 323
f 324 322 356
f 324 356 358
f 326 359 325
f 325 359 360
f 361 325 360
f 327 325 361
f 328 327 361
f 328 361 362
f 330 363 329
f 363 364 329
f 329 364 326
f 364 365 326
f 365 359 326
f 359 365 360
f 362 331 328
f 366 331 362
f 368 367 363
f 330 368 363
f 333 368 330
f 363 367 364
f 366 334 331
f 369 334 366
f 336 370 337
f 370 371 337
f 371 333 337
f 371 368 333
f 369 338 334
f 372 338 369
f 340 373 339
f 373 374 339
f 339 374 336
f 374 375 336
f 375 370 336
f 370 375 371
f 372 341 338
f 376 341 372
f 342 377 373
f 342 373 340
f 374 373 378
f 378 373 377
f 376 343 341
f 379 343 376
f 344 377 342
f 381 380 346
f 346 380 344
f 380 378 344
f 378 377 344
f 381 382 380
f 379 347 343
f 383 347 379
f 348 381 346
f 348 350 381
f 350 382 381
f 350 384 382
f 383 351 347
f 385 351 383
f 352 387 386
f 384 352 386
f 350 352 384
f 387 388 386
f 385 353 351
f 389 353 385
f 354 387 352
f 391 390 355
f 355 390 354
f 390 388 354
f 388 387 354
f 391 392 390
f 389 356 353
f 393 356 389
f 357 391 355
f 394 392 391
f 357 394 391
f 358 394 357
f 358 356 393
f 358 393 394
f 396 395 361
f 396 361 360
f 362 361 395
f 362 395 397
f 399 398 365
f 399 365 364
f 360 365 396
f 396 365 398
f 397 366 362
f 400 366 397
f 368 401 367
f 401 402 367
f 402 364 367
f 402 399 364
f 400 369 366
f 403 369 400
f 405 404 401
f 368 405 401
f 371 405 368
f 401 404 402
f 403 372 369
f 406 372 403
f 374 407 375
f 407 408 375
f 408 371 375
f 408 405 371
f 406 376 372
f 409 376 406
f 378 410 407
f 378 407 374
f 408 407 411
f 411 407 410
f 409 379 376
f 412 379 409
f 380 410 378
f 380 382 410
f 382 411 410
f 382 413 411
f 412 383 379
f 414 383 412
f 384 416 415
f 413 384 415
f 382 384 413
f 416 417 415
f 414 385 383
f 418 385 414
f 386 416 384
f 386 388 416
f 388 417 416
f 388 419 417
f 418 389 385
f 420 389 418
f 421 419 388
f 421 388 390
f 390 392 421
f 421 392 422
f 420 393 389
f 423 393 420
f 424 422 392
f 424 392 394
f 394 393 423
f 394 423 424
f 396 425 395
f 425 397 395
f 399 426 398
f 426 427 398
f 398 427 396
f 427 428 396
f 428 425 396
f 397 425 428
f 429 397 428
f 400 397 429
f 431 430 426
f 399 431 426
f 402 431 399
f 426 430 427
f 429 403 400
f 432 403 429
f 405 433 404
f 433 434 404
f 434 402 404
f 434 431 402
f 432 406 403
f 435 406 432
f 408 436 433
f 408 433 405
f 434 433 437
f 437 433 436
f 435 409 406
f 438 409 435
f 411 439 436
f 411 436 408
f 437 436 440
f 440 436 439
f 438 412 409
f 441 412 438
f 413 442 439
f 413 439 411
f 440 439 443
f 443 439 442
f 441 414 412
f 444 414 441
f 415 442 413
f 415 417 442
f 417 443 442
f 417 445 443
f 444 418 414
f 446 418 444
f 419 448 447
f 445 419 447
f 417 419 445
f 448 449 447
f 446 420 418
f 450 420 446
f 421 448 419
f 452 451 422
f 422 451 421
f 451 449 421
f 449 448 421
f 450 451 452
f 423 450 452
f 420 450 423
f 424 452 422
f 452 424 423
f 427 453 428
f 453 429 428
f 431 454 430
f 454 455 430
f 430 455 427
f 455 456 427
f 456 453 427
f 429 453 456
f 457 429 456
f 432 429 457
f 459 458 454
f 431 459 454
f 434 459 431
f 454 458 455
f 457 435 432
f 460 435 457
f 437 459 434
f 437 461 459
f 460 438 435
f 462 438 460
f 440 461 437
f 440 463 461
f 462 441 438
f 464 441 462
f 443 463 440
f 443 465 463
f 464 444 441
f 466 444 464
f 445 468 467
f 465 445 467
f 443 445 465
f 468 469 467
f 466 446 444
f 470 446 466
f 447 468 445
f 472 471 449
f 449 471 447
f 471 469 447
f 469 468 447
f 470 471 472
f 450 470 472
f 446 470 450
f 451 472 449
f 472 451 450
f 455 473 456
f 473 457 456
f 459 474 458
f 474 475 458
f 458 475 455
f 475 476 455
f 476 473 455
f 457 473 476
f 477 457 476
f 460 457 477
f 461 478 474
f 461 474 459
f 475 474 479
f 479 474 478
f 477 462 460
f 480 462 477
f 463 481 478
f 463 478 461
f 479 478 482
f 482 478 481
f 480 464 462
f 483 464 480
f 465 484 481
f 465 481 463
f 482 481 485
f 485 481 484
f 483 466 464
f 486 466 483
f 467 484 465
f 488 487 469
f 469 487 467
f 487 485 467
f 485 484 467
f 486 487 488
f 470 486 488
f 466 486 470
f 471 488 469
f 488 471 470
f 475 489 476
f 489 477 476
f 479 490 489
f 479 489 475
f 490 480 477
f 490 477 489
f 482 491 490
f 482 490 479
f 491 483 480
f 491 480 490
f 485 492 491
f 485 491 482
f 492 486 483
f 492 483 491
f 487 492 485
f 492 487 486
