v 2.9477415084838867 8.0 14.0
v 3.0 7.885501861572266 14.0
v 3.0 8.0 13.946171760559082
v 3.0 8.0 14.51539421081543
v 2.604468822479248 9.0 14.0
v 3.0 9.0 13.578784942626953
v 3.0 9.0 14.892731666564941
v 2.426943063735962 10.0 14.0
v 3.0 10.0 13.368464469909668
v 3.0 10.0 14.916943550109863
v 2.3498952388763428 11.0 14.0
v 3.0 11.0 13.26073169708252
v 3.0 11.0 14.916943550109863
v 2.3498952388763428 12.0 14.0
v 3.0 12.0 13.26073169708252
v 3.0 12.0 14.916943550109863
v 2.426943063735962 13.0 14.0
v 3.0 13.0 13.368464469909668
v 3.0 13.0 14.916943550109863
v 2.604468822479248 14.0 14.0
v 3.0 14.0 13.578784942626953
v 3.0 14.0 14.892731666564941
v 2.9477415084838867 15.0 14.0
v 3.0 15.0 13.946171760559082
v 3.0 15.0 14.51539421081543
v 3.0 15.114498138427734 14.0
v 3.432253837585449 7.0 14.0
v 4.0 6.10729455947876 14.0
v 4.0 7.0 13.45322036743164
v 4.0 7.0 14.915278434753418
v 3.934558868408203 8.0 13.0
v 4.0 7.8724589347839355 13.0
v 4.0 8.0 12.959858894348145
v 4.0 8.0 14.916943550109863
v 3.5486698150634766 9.0 13.0
v 4.0 9.0 12.711545944213867
v 4.0 9.0 14.916943550109863
v 3.368464469909668 10.0 13.0
v 4.0 10.0 12.614363670349121
v 4.0 10.0 14.916943550109863
v 3.2607312202453613 11.0 13.0
v 4.0 11.0 12.571224212646484
v 4.0 11.0 14.916943550109863
v 3.2607312202453613 12.0 13.0
v 4.0 12.0 12.571224212646484
v 4.0 12.0 14.916943550109863
v 3.368464469909668 13.0 13.0
v 4.0 13.0 12.614363670349121
v 4.0 13.0 14.916943550109863
v 3.5486698150634766 14.0 13.0
v 4.0 14.0 12.711545944213867
v 4.0 14.0 14.916943550109863
v 3.934558868408203 15.0 13.0
v 4.0 15.0 12.959858894348145
v 4.0 15.0 14.916943550109863
v 4.0 15.127541542053223 13.0
v 3.432253837585449 16.0 14.0
v 4.0 16.0 13.45322036743164
v 4.0 16.0 14.915278434753418
v 4.0 16.8927059173584 14.0
v 4.933504581451416 5.0 14.0
v 5.0 4.933504581451416 14.0
v 5.0 5.0 13.946171760559082
v 5.0 5.0 14.51539421081543
v 4.105236053466797 6.0 14.0
v 5.0 6.0 13.26073169708252
v 5.0 6.0 14.916943550109863
v 4.487689018249512 7.0 13.0
v 5.0 6.292745590209961 13.0
v 5.0 7.0 12.711545944213867
v 5.0 7.0 14.916943550109863
v 5.0 8.0 12.516128540039062
v 5.0 8.0 14.916943550109863
v 5.0 9.0 12.193107604980469
v 5.0 9.0 14.916943550109863
v 4.823681354522705 10.0 12.0
v 5.0 9.412378311157227 12.0
v 5.0 10.0 11.897957801818848
v 5.0 10.0 14.916943550109863
v 4.675154685974121 11.0 12.0
v 5.0 11.0 11.808202743530273
v 5.0 11.0 14.916943550109863
v 4.675154685974121 12.0 12.0
v 5.0 12.0 11.808202743530273
v 5.0 12.0 14.916943550109863
v 4.823681354522705 13.0 12.0
v 5.0 13.0 11.897957801818848
v 5.0 13.0 14.916943550109863
v 5.0 13.587621688842773 12.0
v 5.0 14.0 12.193107604980469
v 5.0 14.0 14.916943550109863
v 5.0 15.0 12.516128540039062
v 5.0 15.0 14.916943550109863
v 4.487689018249512 16.0 13.0
v 5.0 16.0 12.711545944213867
v 5.0 16.0 14.916943550109863
v 5.0 16.70725440979004 13.0
v 4.105236053466797 17.0 14.0
v 5.0 17.0 13.26073169708252
v 5.0 17.0 14.916943550109863
v 4.933504581451416 18.0 14.0
v 5.0 18.0 13.946171760559082
v 5.0 18.0 14.51539421081543
v 5.0 18.066495895385742 14.0
v 6.0 4.105236053466797 14.0
v 6.0 5.0 13.26073169708252
v 6.0 5.0 14.916943550109863
v 5.260731220245361 6.0 13.0
v 6.0 5.260731220245361 13.0
v 6.0 6.0 12.64907169342041
v 6.0 6.0 14.916943550109863
v 6.0 7.0 12.342328071594238
v 6.0 7.0 14.916943550109863
v 5.624638080596924 8.0 12.0
v 6.0 7.448139190673828 12.0
v 6.0 8.0 11.808202743530273
v 6.0 8.0 14.916943550109863
v 5.1931071281433105 9.0 12.0
v 6.0 9.0 11.637161254882812
v 6.0 9.0 14.916943550109863
v 6.0 10.0 11.519729614257812
v 6.0 10.0 14.916943550109863
v 6.0 11.0 11.421845436096191
v 6.0 11.0 14.916943550109863
v 6.0 12.0 11.421845436096191
v 6.0 12.0 14.916943550109863
v 6.0 13.0 11.519729614257812
v 6.0 13.0 14.916943550109863
v 5.1931071281433105 14.0 12.0
v 6.0 14.0 11.637161254882812
v 6.0 14.0 14.916943550109863
v 5.624638080596924 15.0 12.0
v 6.0 15.0 11.808202743530273
v 6.0 15.0 14.916943550109863
v 6.0 15.551860809326172 12.0
v 6.0 16.0 12.342328071594238
v 6.0 16.0 14.916943550109863
v 5.260731220245361 17.0 13.0
v 6.0 17.0 12.64907169342041
v 6.0 17.0 14.916943550109863
v 6.0 17.739269256591797 13.0
v 6.0 18.0 13.26073169708252
v 6.0 18.0 14.916943550109863
v 6.0 18.894763946533203 14.0
v 6.10729455947876 4.0 14.0
v 7.0 3.432253837585449 14.0
v 7.0 4.0 13.45322036743164
v 7.0 4.0 14.915278434753418
v 6.292745590209961 5.0 13.0
v 7.0 4.487689018249512 13.0
v 7.0 5.0 12.711545944213867
v 7.0 5.0 14.916943550109863
v 7.0 6.0 12.342328071594238
v 7.0 6.0 14.916943550109863
v 6.354426383972168 7.0 12.0
v 7.0 6.354426383972168 12.0
v 7.0 7.0 11.716309547424316
v 7.0 7.0 14.916943550109863
v 7.0 8.0 11.519729614257812
v 7.0 8.0 14.916943550109863
v 6.993245601654053 9.0 11.0
v 7.0 8.98908519744873 11.0
v 7.0 9.0 10.995957374572754
v 7.0 9.0 14.916943550109863
v 6.571329593658447 10.0 11.0
v 7.0 10.0 10.725129127502441
v 7.0 10.0 14.916943550109863
v 6.421844959259033 11.0 11.0
v 7.0 11.0 10.631705284118652
v 7.0 11.0 14.916943550109863
v 6.421844959259033 12.0 11.0
v 7.0 12.0 10.631705284118652
v 7.0 12.0 14.916943550109863
v 6.571329593658447 13.0 11.0
v 7.0 13.0 10.725129127502441
v 7.0 13.0 14.916943550109863
v 6.993245601654053 14.0 11.0
v 7.0 14.0 10.995957374572754
v 7.0 14.0 14.916943550109863
v 7.0 14.01091480255127 11.0
v 7.0 15.0 11.519729614257812
v 7.0 15.0 14.916943550109863
v 6.354426383972168 16.0 12.0
v 7.0 16.0 11.716309547424316
v 7.0 16.0 14.916943550109863
v 7.0 16.645572662353516 12.0
v 7.0 17.0 12.342328071594238
v 7.0 17.0 14.916943550109863
v 6.292745590209961 18.0 13.0
v 7.0 18.0 12.711545944213867
v 7.0 18.0 14.916943550109863
v 7.0 18.512311935424805 13.0
v 6.10729455947876 19.0 14.0
v 7.0 19.0 13.45322036743164
v 7.0 19.0 14.915278434753418
v 7.0 19.567747116088867 14.0
v 7.885501861572266 3.0 14.0
v 8.0 2.9477415084838867 14.0
v 8.0 3.0 13.946171760559082
v 8.0 3.0 14.51539421081543
v 7.8724589347839355 4.0 13.0
v 8.0 3.934558868408203 13.0
v 8.0 4.0 12.959858894348145
v 8.0 4.0 14.916943550109863
v 8.0 5.0 12.516128540039062
v 8.0 5.0 14.916943550109863
v 7.448139190673828 6.0 12.0
v 8.0 5.624638080596924 12.0
v 8.0 6.0 11.808202743530273
v 8.0 6.0 14.916943550109863
v 8.0 7.0 11.519729614257812
v 8.0 7.0 14.916943550109863
v 7.728270530700684 8.0 11.0
v 8.0 7.728270530700684 11.0
v 8.0 8.0 10.863310813903809
v 8.0 8.0 14.916943550109863
v 8.0 9.0 10.558904647827148
v 8.0 9.0 14.916943550109863
v 8.0 10.0 10.225560188293457
v 8.0 10.0 14.916943550109863
v 7.873886585235596 11.0 10.0
v 8.0 10.540579795837402 10.0
v 8.0 11.0 9.86169147491455
v 8.0 11.0 14.916943550109863
v 7.873886585235596 12.0 10.0
v 8.0 12.0 9.86169147491455
v 8.0 12.0 14.916943550109863
v 8.0 12.459420204162598 10.0
v 8.0 13.0 10.225560188293457
v 8.0 13.0 14.916943550109863
v 8.0 14.0 10.558904647827148
v 8.0 14.0 14.916943550109863
v 7.728270530700684 15.0 11.0
v 8.0 15.0 10.863310813903809
v 8.0 15.0 14.916943550109863
v 8.0 15.271729469299316 11.0
v 8.0 16.0 11.519729614257812
v 8.0 16.0 14.916943550109863
v 7.448139190673828 17.0 12.0
v 8.0 17.0 11.808202743530273
v 8.0 17.0 14.916943550109863
v 8.0 17.375362396240234 12.0
v 8.0 18.0 12.516128540039062
v 8.0 18.0 14.916943550109863
v 7.8724589347839355 19.0 13.0
v 8.0 19.0 12.959858894348145
v 8.0 19.0 14.916943550109863
v 8.0 19.065441131591797 13.0
v 7.885501861572266 20.0 14.0
v 8.0 20.0 13.946171760559082
v 8.0 20.0 14.51539421081543
v 8.0 20.05225944519043 14.0
v 9.0 2.604468822479248 14.0
v 9.0 3.0 13.578784942626953
v 9.0 3.0 14.892731666564941
v 9.0 3.5486698150634766 13.0
v 9.0 4.0 12.711545944213867
v 9.0 4.0 14.916943550109863
v 9.0 5.0 12.193107604980469
v 9.0 5.0 14.916943550109863
v 9.0 5.1931071281433105 12.0
v 9.0 6.0 11.637161254882812
v 9.0 6.0 14.916943550109863
v 8.98908519744873 7.0 11.0
v 9.0 6.993245601654053 11.0
v 9.0 7.0 10.995957374572754
v 9.0 7.0 14.916943550109863
v 9.0 8.0 10.558904647827148
v 9.0 8.0 14.916943550109863
v 8.836572647094727 9.0 10.0
v 9.0 8.836572647094727 10.0
v 9.0 9.0 9.86169147491455
v 9.0 9.0 14.916943550109863
v 8.225560188293457 10.0 10.0
v 9.0 10.0 9.23984146118164
v 9.0 10.0 14.916943550109863
v 8.790597915649414 11.0 9.0
v 9.0 10.435808181762695 9.0
v 9.0 11.0 8.181507110595703
v 9.0 11.0 14.916943550109863
v 8.790597915649414 12.0 9.0
v 9.0 12.0 8.181507110595703
v 9.0 12.0 14.916943550109863
v 9.0 12.564191818237305 9.0
v 8.225560188293457 13.0 10.0
v 9.0 13.0 9.23984146118164
v 9.0 13.0 14.916943550109863
v 8.836572647094727 14.0 10.0
v 9.0 14.0 9.86169147491455
v 9.0 14.0 14.916943550109863
v 9.0 14.163427352905273 10.0
v 9.0 15.0 10.558904647827148
v 9.0 15.0 14.916943550109863
v 8.98908519744873 16.0 11.0
v 9.0 16.0 10.995957374572754
v 9.0 16.0 14.916943550109863
v 9.0 16.00675392150879 11.0
v 9.0 17.0 11.637161254882812
v 9.0 17.0 14.916943550109863
v 9.0 17.80689239501953 12.0
v 9.0 18.0 12.193107604980469
v 9.0 18.0 14.916943550109863
v 9.0 19.0 12.711545944213867
v 9.0 19.0 14.916943550109863
v 9.0 19.451330184936523 13.0
v 9.0 20.0 13.578784942626953
v 9.0 20.0 14.892731666564941
v 9.0 20.395530700683594 14.0
v 10.0 2.426943063735962 14.0
v 10.0 3.0 13.368464469909668
v 10.0 3.0 14.916943550109863
v 10.0 3.368464469909668 13.0
v 10.0 4.0 12.614363670349121
v 10.0 4.0 14.916943550109863
v 9.412378311157227 5.0 12.0
v 10.0 4.823681354522705 12.0
v 10.0 5.0 11.897957801818848
v 10.0 5.0 14.916943550109863
v 10.0 6.0 11.519729614257812
v 10.0 6.0 14.916943550109863
v 10.0 6.571329593658447 11.0
v 10.0 7.0 10.725129127502441
v 10.0 7.0 14.916943550109863
v 10.0 8.0 10.225560188293457
v 10.0 8.0 14.916943550109863
v 10.0 8.225560188293457 10.0
v 10.0 9.0 9.23984146118164
v 10.0 9.0 14.916943550109863
v 9.23984146118164 10.0 9.0
v 10.0 9.23984146118164 9.0
v 10.0 10.0 8.083056449890137
v 10.0 10.0 14.916943550109863
v 10.0 11.0 8.083056449890137
v 10.0 11.0 14.916943550109863
v 10.0 12.0 8.083056449890137
v 10.0 12.0 14.916943550109863
v 9.23984146118164 13.0 9.0
v 10.0 13.0 8.083056449890137
v 10.0 13.0 14.916943550109863
v 10.0 13.76015853881836 9.0
v 10.0 14.0 9.23984146118164
v 10.0 14.0 14.916943550109863
v 10.0 14.774439811706543 10.0
v 10.0 15.0 10.225560188293457
v 10.0 15.0 14.916943550109863
v 10.0 16.0 10.725129127502441
v 10.0 16.0 14.916943550109863
v 10.0 16.42867088317871 11.0
v 10.0 17.0 11.519729614257812
v 10.0 17.0 14.916943550109863
v 9.412378311157227 18.0 12.0
v 10.0 18.0 11.897957801818848
v 10.0 18.0 14.916943550109863
v 10.0 18.176319122314453 12.0
v 10.0 19.0 12.614363670349121
v 10.0 19.0 14.916943550109863
v 10.0 19.631534576416016 13.0
v 10.0 20.0 13.368464469909668
v 10.0 20.0 14.916943550109863
v 10.0 20.573057174682617 14.0
v 11.0 2.3498952388763428 14.0
v 11.0 3.0 13.26073169708252
v 11.0 3.0 14.916943550109863
v 11.0 3.2607312202453613 13.0
v 11.0 4.0 12.571224212646484
v 11.0 4.0 14.916943550109863
v 11.0 4.675154685974121 12.0
v 11.0 5.0 11.808202743530273
v 11.0 5.0 14.916943550109863
v 11.0 6.0 11.421845436096191
v 11.0 6.0 14.916943550109863
v 11.0 6.421844959259033 11.0
v 11.0 7.0 10.631705284118652
v 11.0 7.0 14.916943550109863
v 10.540579795837402 8.0 10.0
v 11.0 7.873886585235596 10.0
v 11.0 8.0 9.86169147491455
v 11.0 8.0 14.916943550109863
v 10.435808181762695 9.0 9.0
v 11.0 8.790597915649414 9.0
v 11.0 9.0 8.181507110595703
v 11.0 9.0 14.916943550109863
v 11.0 10.0 8.083056449890137
v 11.0 10.0 14.916943550109863
v 11.0 11.0 8.083056449890137
v 11.0 11.0 14.916943550109863
v 11.0 12.0 8.083056449890137
v 11.0 12.0 14.916943550109863
v 11.0 13.0 8.083056449890137
v 11.0 13.0 14.916943550109863
v 10.435808181762695 14.0 9.0
v 11.0 14.0 8.181507110595703
v 11.0 14.0 14.916943550109863
v 11.0 14.209402084350586 9.0
v 10.540579795837402 15.0 10.0
v 11.0 15.0 9.86169147491455
v 11.0 15.0 14.916943550109863
v 11.0 15.126112937927246 10.0
v 11.0 16.0 10.631705284118652
v 11.0 16.0 14.916943550109863
v 11.0 16.578155517578125 11.0
v 11.0 17.0 11.421845436096191
v 11.0 17.0 14.916943550109863
v 11.0 18.0 11.808202743530273
v 11.0 18.0 14.916943550109863
v 11.0 18.324846267700195 12.0
v 11.0 19.0 12.571224212646484
v 11.0 19.0 14.916943550109863
v 11.0 19.739269256591797 13.0
v 11.0 20.0 13.26073169708252
v 11.0 20.0 14.916943550109863
v 11.0 20.650104522705078 14.0
v 12.0 2.3498952388763428 14.0
v 12.0 3.0 13.26073169708252
v 12.0 3.0 14.916943550109863
v 12.0 3.2607312202453613 13.0
v 12.0 4.0 12.571224212646484
v 12.0 4.0 14.916943550109863
v 12.0 4.675154685974121 12.0
v 12.0 5.0 11.808202743530273
v 12.0 5.0 14.916943550109863
v 12.0 6.0 11.421845436096191
v 12.0 6.0 14.916943550109863
v 12.0 6.421844959259033 11.0
v 12.0 7.0 10.631705284118652
v 12.0 7.0 14.916943550109863
v 12.0 7.873886585235596 10.0
v 12.0 8.0 9.86169147491455
v 12.0 8.0 14.916943550109863
v 12.0 8.790597915649414 9.0
v 12.0 9.0 8.181507110595703
v 12.0 9.0 14.916943550109863
v 12.0 10.0 8.083056449890137
v 12.0 10.0 14.916943550109863
v 12.0 11.0 8.083056449890137
v 12.0 11.0 14.916943550109863
v 12.0 12.0 8.083056449890137
v 12.0 12.0 14.916943550109863
v 12.0 13.0 8.083056449890137
v 12.0 13.0 14.916943550109863
v 12.0 14.0 8.181507110595703
v 12.0 14.0 14.916943550109863
v 12.0 14.209402084350586 9.0
v 12.0 15.0 9.86169147491455
v 12.0 15.0 14.916943550109863
v 12.0 15.126112937927246 10.0
v 12.0 16.0 10.631705284118652
v 12.0 16.0 14.916943550109863
v 12.0 16.578155517578125 11.0
v 12.0 17.0 11.421845436096191
v 12.0 17.0 14.916943550109863
v 12.0 18.0 11.808202743530273
v 12.0 18.0 14.916943550109863
v 12.0 18.324846267700195 12.0
v 12.0 19.0 12.571224212646484
v 12.0 19.0 14.916943550109863
v 12.0 19.739269256591797 13.0
v 12.0 20.0 13.26073169708252
v 12.0 20.0 14.916943550109863
v 12.0 20.650104522705078 14.0
v 13.0 2.426943063735962 14.0
v 13.0 3.0 13.368464469909668
v 13.0 3.0 14.916943550109863
v 13.0 3.368464469909668 13.0
v 13.0 4.0 12.614363670349121
v 13.0 4.0 14.916943550109863
v 13.0 4.823681354522705 12.0
v 13.0 5.0 11.897957801818848
v 13.0 5.0 14.916943550109863
v 13.0 6.0 11.519729614257812
v 13.0 6.0 14.916943550109863
v 13.0 6.571329593658447 11.0
v 13.0 7.0 10.725129127502441
v 13.0 7.0 14.916943550109863
v 12.459420204162598 8.0 10.0
v 13.0 8.0 10.225560188293457
v 13.0 8.0 14.916943550109863
v 12.564191818237305 9.0 9.0
v 13.0 9.0 9.23984146118164
v 13.0 8.225560188293457 10.0
v 13.0 9.0 14.916943550109863
v 13.0 9.23984146118164 9.0
v 13.0 10.0 8.083056449890137
v 13.0 10.0 14.916943550109863
v 13.0 11.0 8.083056449890137
v 13.0 11.0 14.916943550109863
v 13.0 12.0 8.083056449890137
v 13.0 12.0 14.916943550109863
v 13.0 13.0 8.083056449890137
v 13.0 13.0 14.916943550109863
v 13.0 13.76015853881836 9.0
v 12.564191818237305 14.0 9.0
v 13.0 14.0 9.23984146118164
v 13.0 14.0 14.916943550109863
v 13.0 14.774439811706543 10.0
v 12.459420204162598 15.0 10.0
v 13.0 15.0 10.225560188293457
v 13.0 15.0 14.916943550109863
v 13.0 16.0 10.725129127502441
v 13.0 16.0 14.916943550109863
v 13.0 16.42867088317871 11.0
v 13.0 17.0 11.519729614257812
v 13.0 17.0 14.916943550109863
v 13.0 18.0 11.897957801818848
v 13.0 18.0 14.916943550109863
v 13.0 18.176319122314453 12.0
v 13.0 19.0 12.614363670349121
v 13.0 19.0 14.916943550109863
v 13.0 19.631534576416016 13.0
v 13.0 20.0 13.368464469909668
v 13.0 20.0 14.916943550109863
v 13.0 20.573057174682617 14.0
v 14.0 2.604468822479248 14.0
v 14.0 3.0 13.578784942626953
v 14.0 3.0 14.892731666564941
v 14.0 3.5486698150634766 13.0
v 14.0 4.0 12.711545944213867
v 14.0 4.0 14.916943550109863
v 13.587621688842773 5.0 12.0
v 14.0 5.0 12.193107604980469
v 14.0 5.0 14.916943550109863
v 14.0 5.1931071281433105 12.0
v 14.0 6.0 11.637161254882812
v 14.0 6.0 14.916943550109863
v 14.0 6.993245601654053 11.0
v 14.0 7.0 10.995957374572754
v 14.0 7.0 14.916943550109863
v 14.0 8.0 10.558904647827148
v 14.0 8.0 14.916943550109863
v 14.0 8.836572647094727 10.0
v 14.0 9.0 9.86169147491455
v 14.0 9.0 14.916943550109863
v 13.76015853881836 10.0 9.0
v 14.0 10.0 9.23984146118164
v 14.0 10.0 14.916943550109863
v 14.0 10.435808181762695 9.0
v 14.0 11.0 8.181507110595703
v 14.0 11.0 14.916943550109863
v 14.0 12.0 8.181507110595703
v 14.0 12.0 14.916943550109863
v 14.0 12.564191818237305 9.0
v 13.76015853881836 13.0 9.0
v 14.0 13.0 9.23984146118164
v 14.0 13.0 14.916943550109863
v 14.0 14.0 9.86169147491455
v 14.0 14.0 14.916943550109863
v 14.0 14.163427352905273 10.0
v 14.0 15.0 10.558904647827148
v 14.0 15.0 14.916943550109863
v 14.0 16.0 10.995957374572754
v 14.0 16.0 14.916943550109863
v 14.0 16.00675392150879 11.0
v 14.0 17.0 11.637161254882812
v 14.0 17.0 14.916943550109863
v 14.0 17.80689239501953 12.0
v 13.587621688842773 18.0 12.0
v 14.0 18.0 12.193107604980469
v 14.0 18.0 14.916943550109863
v 14.0 19.0 12.711545944213867
v 14.0 19.0 14.916943550109863
v 14.0 19.451330184936523 13.0
v 14.0 20.0 13.578784942626953
v 14.0 20.0 14.892731666564941
v 14.0 20.395530700683594 14.0
v 15.0 2.9477415084838867 14.0
v 15.0 3.0 13.946171760559082
v 15.0 3.0 14.51539421081543
v 15.0 3.934558868408203 13.0
v 15.0 4.0 12.959858894348145
v 15.0 4.0 14.916943550109863
v 15.0 5.0 12.516128540039062
v 15.0 5.0 14.916943550109863
v 15.0 5.624638080596924 12.0
v 15.0 6.0 11.808202743530273
v 15.0 6.0 14.916943550109863
v 14.01091480255127 7.0 11.0
v 15.0 7.0 11.519729614257812
v 15.0 7.0 14.916943550109863
v 15.0 7.728270530700684 11.0
v 15.0 8.0 10.863310813903809
v 15.0 8.0 14.916943550109863
v 14.163427352905273 9.0 10.0
v 15.0 9.0 10.558904647827148
v 15.0 9.0 14.916943550109863
v 14.774439811706543 10.0 10.0
v 15.0 10.0 10.225560188293457
v 15.0 10.0 14.916943550109863
v 14.209402084350586 11.0 9.0
v 15.0 11.0 9.86169147491455
v 15.0 10.540579795837402 10.0
v 15.0 11.0 14.916943550109863
v 14.209402084350586 12.0 9.0
v 15.0 12.0 9.86169147491455
v 15.0 12.0 14.916943550109863
v 15.0 12.459420204162598 10.0
v 14.774439811706543 13.0 10.0
v 15.0 13.0 10.225560188293457
v 15.0 13.0 14.916943550109863
v 14.163427352905273 14.0 10.0
v 15.0 14.0 10.558904647827148
v 15.0 14.0 14.916943550109863
v 15.0 15.0 10.863310813903809
v 15.0 15.0 14.916943550109863
v 15.0 15.271729469299316 11.0
v 14.01091480255127 16.0 11.0
v 15.0 16.0 11.519729614257812
v 15.0 16.0 14.916943550109863
v 15.0 17.0 11.808202743530273
v 15.0 17.0 14.916943550109863
v 15.0 17.375362396240234 12.0
v 15.0 18.0 12.516128540039062
v 15.0 18.0 14.916943550109863
v 15.0 19.0 12.959858894348145
v 15.0 19.0 14.916943550109863
v 15.0 19.065441131591797 13.0
v 15.0 20.0 13.946171760559082
v 15.0 20.0 14.51539421081543
v 15.0 20.05225944519043 14.0
v 15.114498138427734 3.0 14.0
v 15.127541542053223 4.0 13.0
v 16.0 4.0 13.45322036743164
v 16.0 3.432253837585449 14.0
v 16.0 4.0 14.915278434753418
v 16.0 4.487689018249512 13.0
v 16.0 5.0 12.711545944213867
v 16.0 5.0 14.916943550109863
v 15.551860809326172 6.0 12.0
v 16.0 6.0 12.342328071594238
v 16.0 6.0 14.916943550109863
v 16.0 6.354426383972168 12.0
v 16.0 7.0 11.716309547424316
v 16.0 7.0 14.916943550109863
v 15.271729469299316 8.0 11.0
v 16.0 8.0 11.519729614257812
v 16.0 8.0 14.916943550109863
v 16.0 8.98908519744873 11.0
v 16.0 9.0 10.995957374572754
v 16.0 9.0 14.916943550109863
v 16.0 10.0 10.725129127502441
v 16.0 10.0 14.916943550109863
v 15.126112937927246 11.0 10.0
v 16.0 11.0 10.631705284118652
v 16.0 11.0 14.916943550109863
v 15.126112937927246 12.0 10.0
v 16.0 12.0 10.631705284118652
v 16.0 12.0 14.916943550109863
v 16.0 13.0 10.725129127502441
v 16.0 13.0 14.916943550109863
v 16.0 14.0 10.995957374572754
v 16.0 14.0 14.916943550109863
v 16.0 14.01091480255127 11.0
v 15.271729469299316 15.0 11.0
v 16.0 15.0 11.519729614257812
v 16.0 15.0 14.916943550109863
v 16.0 16.0 11.716309547424316
v 16.0 16.0 14.916943550109863
v 16.0 16.645572662353516 12.0
v 15.551860809326172 17.0 12.0
v 16.0 17.0 12.342328071594238
v 16.0 17.0 14.916943550109863
v 16.0 18.0 12.711545944213867
v 16.0 18.0 14.916943550109863
v 16.0 18.512311935424805 13.0
v 15.127541542053223 19.0 13.0
v 16.0 19.0 13.45322036743164
v 16.0 19.0 14.915278434753418
v 16.0 19.567747116088867 14.0
v 15.114498138427734 20.0 14.0
v 16.8927059173584 4.0 14.0
v 16.70725440979004 5.0 13.0
v 17.0 5.0 13.26073169708252
v 17.0 4.105236053466797 14.0
v 17.0 5.0 14.916943550109863
v 17.0 5.260731220245361 13.0
v 17.0 6.0 12.64907169342041
v 17.0 6.0 14.916943550109863
v 16.645572662353516 7.0 12.0
v 17.0 7.0 12.342328071594238
v 17.0 7.0 14.916943550109863
v 17.0 7.448139190673828 12.0
v 17.0 8.0 11.808202743530273
v 17.0 8.0 14.916943550109863
v 16.00675392150879 9.0 11.0
v 17.0 9.0 11.637161254882812
v 17.0 9.0 14.916943550109863
v 16.42867088317871 10.0 11.0
v 17.0 10.0 11.519729614257812
v 17.0 10.0 14.916943550109863
v 16.578155517578125 11.0 11.0
v 17.0 11.0 11.421845436096191
v 17.0 11.0 14.916943550109863
v 16.578155517578125 12.0 11.0
v 17.0 12.0 11.421845436096191
v 17.0 12.0 14.916943550109863
v 16.42867088317871 13.0 11.0
v 17.0 13.0 11.519729614257812
v 17.0 13.0 14.916943550109863
v 16.00675392150879 14.0 11.0
v 17.0 14.0 11.637161254882812
v 17.0 14.0 14.916943550109863
v 17.0 15.0 11.808202743530273
v 17.0 15.0 14.916943550109863
v 17.0 15.551860809326172 12.0
v 16.645572662353516 16.0 12.0
v 17.0 16.0 12.342328071594238
v 17.0 16.0 14.916943550109863
v 17.0 17.0 12.64907169342041
v 17.0 17.0 14.916943550109863
v 17.0 17.739269256591797 13.0
v 16.70725440979004 18.0 13.0
v 17.0 18.0 13.26073169708252
v 17.0 18.0 14.916943550109863
v 17.0 18.894763946533203 14.0
v 16.8927059173584 19.0 14.0
v 18.0 4.933504581451416 14.0
v 18.0 5.0 13.946171760559082
v 18.0 5.0 14.51539421081543
v 17.739269256591797 6.0 13.0
v 18.0 6.0 13.26073169708252
v 18.0 6.0 14.916943550109863
v 18.0 6.292745590209961 13.0
v 18.0 7.0 12.711545944213867
v 18.0 7.0 14.916943550109863
v 17.375362396240234 8.0 12.0
v 18.0 8.0 12.516128540039062
v 18.0 8.0 14.916943550109863
v 17.80689239501953 9.0 12.0
v 18.0 9.0 12.193107604980469
v 18.0 9.0 14.916943550109863
v 18.0 9.412378311157227 12.0
v 18.0 10.0 11.897957801818848
v 18.0 10.0 14.916943550109863
v 18.0 11.0 11.808202743530273
v 18.0 11.0 14.916943550109863
v 18.0 12.0 11.808202743530273
v 18.0 12.0 14.916943550109863
v 18.0 13.0 11.897957801818848
v 18.0 13.0 14.916943550109863
v 18.0 13.587621688842773 12.0
v 17.80689239501953 14.0 12.0
v 18.0 14.0 12.193107604980469
v 18.0 14.0 14.916943550109863
v 17.375362396240234 15.0 12.0
v 18.0 15.0 12.516128540039062
v 18.0 15.0 14.916943550109863
v 18.0 16.0 12.711545944213867
v 18.0 16.0 14.916943550109863
v 18.0 16.70725440979004 13.0
v 17.739269256591797 17.0 13.0
v 18.0 17.0 13.26073169708252
v 18.0 17.0 14.916943550109863
v 18.0 18.0 13.946171760559082
v 18.0 18.0 14.51539421081543
v 18.0 18.066495895385742 14.0
v 18.066495895385742 5.0 14.0
v 18.894763946533203 6.0 14.0
v 18.512311935424805 7.0 13.0
v 19.0 7.0 13.45322036743164
v 19.0 6.10729455947876 14.0
v 19.0 7.0 14.915278434753418
v 19.0 7.8724589347839355 13.0
v 19.0 8.0 12.959858894348145
v 19.0 8.0 14.916943550109863
v 19.0 9.0 12.711545944213867
v 19.0 9.0 14.916943550109863
v 18.176319122314453 10.0 12.0
v 19.0 10.0 12.614363670349121
v 19.0 10.0 14.916943550109863
v 18.324846267700195 11.0 12.0
v 19.0 11.0 12.571224212646484
v 19.0 11.0 14.916943550109863
v 18.324846267700195 12.0 12.0
v 19.0 12.0 12.571224212646484
v 19.0 12.0 14.916943550109863
v 18.176319122314453 13.0 12.0
v 19.0 13.0 12.614363670349121
v 19.0 13.0 14.916943550109863
v 19.0 14.0 12.711545944213867
v 19.0 14.0 14.916943550109863
v 19.0 15.0 12.959858894348145
v 19.0 15.0 14.916943550109863
v 19.0 15.127541542053223 13.0
v 18.512311935424805 16.0 13.0
v 19.0 16.0 13.45322036743164
v 19.0 16.0 14.915278434753418
v 19.0 16.8927059173584 14.0
v 18.894763946533203 17.0 14.0
v 18.066495895385742 18.0 14.0
v 19.567747116088867 7.0 14.0
v 19.065441131591797 8.0 13.0
v 20.0 8.0 13.946171760559082
v 20.0 7.885501861572266 14.0
v 20.0 8.0 14.51539421081543
v 19.451330184936523 9.0 13.0
v 20.0 9.0 13.578784942626953
v 20.0 9.0 14.892731666564941
v 19.631534576416016 10.0 13.0
v 20.0 10.0 13.368464469909668
v 20.0 10.0 14.916943550109863
v 19.739269256591797 11.0 13.0
v 20.0 11.0 13.26073169708252
v 20.0 11.0 14.916943550109863
v 19.739269256591797 12.0 13.0
v 20.0 12.0 13.26073169708252
v 20.0 12.0 14.916943550109863
v 19.631534576416016 13.0 13.0
v 20.0 13.0 13.368464469909668
v 20.0 13.0 14.916943550109863
v 19.451330184936523 14.0 13.0
v 20.0 14.0 13.578784942626953
v 20.0 14.0 14.892731666564941
v 19.065441131591797 15.0 13.0
v 20.0 15.0 13.946171760559082
v 20.0 15.0 14.51539421081543
v 20.0 15.114498138427734 14.0
v 19.567747116088867 16.0 14.0
v 20.05225944519043 8.0 14.0
v 20.395530700683594 9.0 14.0
v 20.573057174682617 10.0 14.0
v 20.650104522705078 11.0 14.0
v 20.650104522705078 12.0 14.0
v 20.573057174682617 13.0 14.0
v 20.395530700683594 14.0 14.0
v 20.05225944519043 15.0 14.0
f 3 2 1
f 4 1 2
f 3 1 5
f 3 5 6
f 1 4 7
f 1 7 5
f 6 5 8
f 6 8 9
f 5 7 10
f 5 10 8
f 9 8 11
f 9 11 12
f 8 10 13
f 8 13 11
f 12 11 14
f 12 14 15
f 11 13 16
f 11 16 14
f 15 14 17
f 15 17 18
f 14 16 19
f 14 19 17
f 18 17 20
f 18 20 21
f 17 19 22
f 17 22 20
f 21 20 23
f 21 23 24
f 20 22 25
f 20 25 23
f 26 24 23
f 26 23 25
f 29 28 27
f 30 27 28
f 33 32 31
f 31 32 29
f 31 29 27
f 3 31 27
f 2 3 27
f 4 2 27
f 30 4 27
f 34 4 30
f 33 31 35
f 33 35 36
f 6 35 3
f 3 35 31
f 34 7 4
f 37 7 34
f 36 35 38
f 36 38 39
f 9 38 6
f 6 38 35
f 37 10 7
f 40 10 37
f 39 38 41
f 39 41 42
f 12 41 9
f 9 41 38
f 40 13 10
f 43 13 40
f 42 41 44
f 42 44 45
f 15 44 12
f 12 44 41
f 43 16 13
f 46 16 43
f 45 44 47
f 45 47 48
f 18 47 15
f 15 47 44
f 46 19 16
f 49 19 46
f 48 47 50
f 48 50 51
f 21 50 18
f 18 50 47
f 49 22 19
f 52 22 49
f 51 50 53
f 51 53 54
f 24 53 21
f 21 53 50
f 52 25 22
f 55 25 52
f 56 54 53
f 58 56 57
f 57 56 26
f 56 53 26
f 53 24 26
f 59 57 26
f 25 59 26
f 55 59 25
f 60 58 57
f 60 57 59
f 63 62 61
f 64 61 62
f 63 61 65
f 63 65 66
f 61 64 67
f 61 67 65
f 70 69 68
f 68 69 66
f 68 66 65
f 29 68 65
f 28 29 65
f 30 28 65
f 67 30 65
f 71 30 67
f 70 68 32
f 33 70 32
f 72 70 33
f 32 68 29
f 71 34 30
f 73 34 71
f 36 72 33
f 36 74 72
f 73 37 34
f 75 37 73
f 78 77 76
f 77 74 76
f 74 39 76
f 74 36 39
f 75 40 37
f 79 40 75
f 78 76 80
f 78 80 81
f 42 80 39
f 39 80 76
f 79 43 40
f 82 43 79
f 81 80 83
f 81 83 84
f 45 83 42
f 42 83 80
f 82 46 43
f 85 46 82
f 84 83 86
f 84 86 87
f 48 86 45
f 45 86 83
f 85 49 46
f 88 49 85
f 89 87 86
f 86 48 89
f 48 90 89
f 48 51 90
f 88 52 49
f 91 52 88
f 54 90 51
f 54 92 90
f 91 55 52
f 93 55 91
f 54 56 94
f 95 54 94
f 92 54 95
f 58 94 56
f 93 59 55
f 96 59 93
f 97 95 94
f 99 97 98
f 98 97 60
f 97 94 60
f 94 58 60
f 100 98 60
f 59 100 60
f 96 100 59
f 99 98 101
f 99 101 102
f 98 100 103
f 98 103 101
f 104 102 101
f 104 101 103
f 106 105 62
f 106 62 63
f 64 62 105
f 64 105 107
f 110 109 108
f 109 106 108
f 106 66 108
f 106 63 66
f 107 67 64
f 111 67 107
f 110 108 69
f 70 110 69
f 112 110 70
f 69 108 66
f 111 71 67
f 113 71 111
f 116 115 114
f 115 112 114
f 112 72 114
f 112 70 72
f 113 73 71
f 117 73 113
f 116 114 118
f 116 118 119
f 74 118 72
f 72 118 114
f 117 75 73
f 120 75 117
f 119 118 77
f 78 119 77
f 121 119 78
f 77 118 74
f 120 79 75
f 122 79 120
f 81 121 78
f 81 123 121
f 122 82 79
f 124 82 122
f 84 123 81
f 84 125 123
f 124 85 82
f 126 85 124
f 87 125 84
f 87 127 125
f 126 88 85
f 128 88 126
f 87 89 129
f 130 87 129
f 127 87 130
f 90 129 89
f 128 91 88
f 131 91 128
f 130 129 132
f 130 132 133
f 92 132 90
f 90 132 129
f 131 93 91
f 134 93 131
f 135 133 132
f 132 92 135
f 92 136 135
f 92 95 136
f 134 96 93
f 137 96 134
f 95 97 138
f 139 95 138
f 136 95 139
f 99 138 97
f 137 100 96
f 140 100 137
f 141 139 138
f 138 99 141
f 99 142 141
f 99 102 142
f 140 103 100
f 143 103 140
f 144 142 102
f 144 102 104
f 104 103 143
f 104 143 144
f 147 146 145
f 148 145 146
f 151 150 149
f 149 150 147
f 149 147 145
f 106 149 145
f 105 106 145
f 107 105 145
f 148 107 145
f 152 107 148
f 151 149 109
f 110 151 109
f 153 151 110
f 109 149 106
f 152 111 107
f 154 111 152
f 157 156 155
f 156 153 155
f 153 112 155
f 153 110 112
f 154 113 111
f 158 113 154
f 157 155 115
f 116 157 115
f 159 157 116
f 115 155 112
f 158 117 113
f 160 117 158
f 163 162 161
f 162 159 161
f 159 119 161
f 159 116 119
f 160 120 117
f 164 120 160
f 163 161 165
f 163 165 166
f 121 165 119
f 119 165 161
f 164 122 120
f 167 122 164
f 166 165 168
f 166 168 169
f 123 168 121
f 121 168 165
f 167 124 122
f 170 124 167
f 169 168 171
f 169 171 172
f 125 171 123
f 123 171 168
f 170 126 124
f 173 126 170
f 172 171 174
f 172 174 175
f 127 174 125
f 125 174 171
f 173 128 126
f 176 128 173
f 175 174 177
f 175 177 178
f 130 177 127
f 127 177 174
f 176 131 128
f 179 131 176
f 180 178 177
f 177 130 180
f 130 181 180
f 130 133 181
f 179 134 131
f 182 134 179
f 133 135 183
f 184 133 183
f 181 133 184
f 136 183 135
f 182 137 134
f 185 137 182
f 186 184 183
f 183 136 186
f 136 187 186
f 136 139 187
f 185 140 137
f 188 140 185
f 139 141 189
f 190 139 189
f 187 139 190
f 142 189 141
f 188 143 140
f 191 143 188
f 192 190 189
f 194 192 193
f 193 192 144
f 192 189 144
f 189 142 144
f 195 193 144
f 143 195 144
f 191 195 143
f 196 194 193
f 196 193 195
f 199 198 197
f 200 197 198
f 203 202 201
f 201 202 199
f 201 199 197
f 147 201 197
f 146 147 197
f 148 146 197
f 200 148 197
f 204 148 200
f 203 201 150
f 151 203 150
f 205 203 151
f 150 201 147
f 204 152 148
f 206 152 204
f 209 208 207
f 208 205 207
f 205 153 207
f 205 151 153
f 206 154 152
f 210 154 206
f 209 207 156
f 157 209 156
f 211 209 157
f 156 207 153
f 210 158 154
f 212 158 210
f 215 214 213
f 214 211 213
f 211 159 213
f 211 157 159
f 212 160 158
f 216 160 212
f 215 213 162
f 163 215 162
f 217 215 163
f 162 213 159
f 216 164 160
f 218 164 216
f 166 217 163
f 166 219 217
f 218 167 164
f 220 167 218
f 223 222 221
f 222 219 221
f 219 169 221
f 219 166 169
f 220 170 167
f 224 170 220
f 223 221 225
f 223 225 226
f 172 225 169
f 169 225 221
f 224 173 170
f 227 173 224
f 228 226 225
f 225 172 228
f 172 229 228
f 172 175 229
f 227 176 173
f 230 176 227
f 178 229 175
f 178 231 229
f 230 179 176
f 232 179 230
f 178 180 233
f 234 178 233
f 231 178 234
f 181 233 180
f 232 182 179
f 235 182 232
f 236 234 233
f 233 181 236
f 181 237 236
f 181 184 237
f 235 185 182
f 238 185 235
f 184 186 239
f 240 184 239
f 237 184 240
f 187 239 186
f 238 188 185
f 241 188 238
f 242 240 239
f 239 187 242
f 187 243 242
f 187 190 243
f 241 191 188
f 244 191 241
f 190 192 245
f 246 190 245
f 243 190 246
f 194 245 192
f 244 195 191
f 247 195 244
f 248 246 245
f 250 248 249
f 249 248 196
f 248 245 196
f 245 194 196
f 251 249 196
f 195 251 196
f 247 251 195
f 252 250 249
f 252 249 251
f 254 253 198
f 254 198 199
f 200 198 253
f 200 253 255
f 257 256 202
f 257 202 203
f 199 202 254
f 254 202 256
f 255 204 200
f 258 204 255
f 205 257 203
f 205 259 257
f 258 206 204
f 260 206 258
f 262 261 208
f 262 208 209
f 205 208 259
f 259 208 261
f 260 210 206
f 263 210 260
f 266 265 264
f 265 262 264
f 262 211 264
f 262 209 211
f 263 212 210
f 267 212 263
f 266 264 214
f 215 266 214
f 268 266 215
f 214 264 211
f 267 216 212
f 269 216 267
f 272 271 270
f 271 268 270
f 268 217 270
f 268 215 217
f 269 218 216
f 273 218 269
f 272 270 274
f 272 274 275
f 219 274 217
f 217 274 270
f 273 220 218
f 276 220 273
f 279 278 277
f 277 278 275
f 277 275 274
f 223 277 274
f 222 223 274
f 222 274 219
f 276 224 220
f 280 224 276
f 279 277 281
f 279 281 282
f 226 281 223
f 223 281 277
f 280 227 224
f 283 227 280
f 284 282 281
f 286 284 285
f 285 284 228
f 284 281 228
f 281 226 228
f 229 285 228
f 283 230 227
f 287 230 283
f 286 285 288
f 286 288 289
f 231 288 229
f 229 288 285
f 287 232 230
f 290 232 287
f 291 289 288
f 288 231 291
f 231 292 291
f 231 234 292
f 290 235 232
f 293 235 290
f 234 236 294
f 295 234 294
f 292 234 295
f 237 294 236
f 293 238 235
f 296 238 293
f 297 295 294
f 294 237 297
f 237 298 297
f 237 240 298
f 296 241 238
f 299 241 296
f 300 298 240
f 300 240 242
f 242 243 300
f 300 243 301
f 299 244 241
f 302 244 299
f 246 301 243
f 246 303 301
f 302 247 244
f 304 247 302
f 305 303 246
f 305 246 248
f 248 250 305
f 305 250 306
f 304 251 247
f 307 251 304
f 308 306 250
f 308 250 252
f 252 251 307
f 252 307 308
f 310 309 253
f 310 253 254
f 255 253 309
f 255 309 311
f 313 312 256
f 313 256 257
f 254 256 310
f 310 256 312
f 311 258 255
f 314 258 311
f 317 316 315
f 316 313 315
f 313 259 315
f 313 257 259
f 314 260 258
f 318 260 314
f 317 315 261
f 262 317 261
f 319 317 262
f 261 315 259
f 318 263 260
f 320 263 318
f 322 321 265
f 322 265 266
f 262 265 319
f 319 265 321
f 320 267 263
f 323 267 320
f 268 322 266
f 268 324 322
f 323 269 267
f 325 269 323
f 327 326 271
f 327 271 272
f 268 271 324
f 324 271 326
f 325 273 269
f 328 273 325
f 331 330 329
f 330 327 329
f 327 275 329
f 327 272 275
f 328 276 273
f 332 276 328
f 331 329 278
f 279 331 278
f 333 331 279
f 278 329 275
f 332 280 276
f 334 280 332
f 282 333 279
f 282 335 333
f 334 283 280
f 336 283 334
f 282 284 337
f 338 282 337
f 335 282 338
f 286 337 284
f 336 287 283
f 339 287 336
f 340 338 337
f 337 286 340
f 286 341 340
f 286 289 341
f 339 290 287
f 342 290 339
f 343 341 289
f 343 289 291
f 291 292 343
f 343 292 344
f 342 293 290
f 345 293 342
f 295 344 292
f 295 346 344
f 345 296 293
f 347 296 345
f 348 346 295
f 348 295 297
f 297 298 348
f 348 298 349
f 347 299 296
f 350 299 347
f 298 300 351
f 352 298 351
f 349 298 352
f 301 351 300
f 350 302 299
f 353 302 350
f 354 352 351
f 351 301 354
f 301 355 354
f 301 303 355
f 353 304 302
f 356 304 353
f 357 355 303
f 357 303 305
f 305 306 357
f 357 306 358
f 356 307 304
f 359 307 356
f 360 358 306
f 360 306 308
f 308 307 359
f 308 359 360
f 362 361 309
f 362 309 310
f 311 309 361
f 311 361 363
f 365 364 312
f 365 312 313
f 310 312 362
f 362 312 364
f 363 314 311
f 366 314 363
f 368 367 316
f 368 316 317
f 313 316 365
f 365 316 367
f 366 318 314
f 369 318 366
f 319 368 317
f 319 370 368
f 369 320 318
f 371 320 369
f 373 372 321
f 373 321 322
f 319 321 370
f 370 321 372
f 371 323 320
f 374 323 371
f 377 376 375
f 376 373 375
f 373 324 375
f 373 322 324
f 374 325 323
f 378 325 374
f 381 380 379
f 379 380 377
f 379 377 375
f 327 379 375
f 326 327 375
f 326 375 324
f 378 328 325
f 382 328 378
f 381 379 330
f 331 381 330
f 383 381 331
f 330 379 327
f 382 332 328
f 384 332 382
f 333 383 331
f 333 385 383
f 384 334 332
f 386 334 384
f 335 385 333
f 335 387 385
f 386 336 334
f 388 336 386
f 338 387 335
f 338 389 387
f 388 339 336
f 390 339 388
f 338 340 391
f 392 338 391
f 389 338 392
f 341 391 340
f 390 342 339
f 393 342 390
f 394 392 391
f 396 394 395
f 395 394 343
f 394 391 343
f 391 341 343
f 344 395 343
f 393 345 342
f 397 345 393
f 398 396 395
f 395 344 398
f 344 399 398
f 344 346 399
f 397 347 345
f 400 347 397
f 401 399 346
f 401 346 348
f 348 349 401
f 401 349 402
f 400 350 347
f 403 350 400
f 352 402 349
f 352 404 402
f 403 353 350
f 405 353 403
f 406 404 352
f 406 352 354
f 354 355 406
f 406 355 407
f 405 356 353
f 408 356 405
f 409 407 355
f 409 355 357
f 357 358 409
f 409 358 410
f 408 359 356
f 411 359 408
f 412 410 358
f 412 358 360
f 360 359 411
f 360 411 412
f 414 413 361
f 414 361 362
f 363 361 413
f 363 413 415
f 417 416 364
f 417 364 365
f 362 364 414
f 414 364 416
f 415 366 363
f 418 366 415
f 420 419 367
f 420 367 368
f 365 367 417
f 417 367 419
f 418 369 366
f 421 369 418
f 370 420 368
f 370 422 420
f 421 371 369
f 423 371 421
f 425 424 372
f 425 372 373
f 370 372 422
f 422 372 424
f 423 374 371
f 426 374 423
f 428 427 376
f 428 376 377
f 373 376 425
f 425 376 427
f 426 378 374
f 429 378 426
f 431 430 380
f 431 380 381
f 377 380 428
f 428 380 430
f 429 382 378
f 432 382 429
f 383 431 381
f 383 433 431
f 432 384 382
f 434 384 432
f 385 433 383
f 385 435 433
f 434 386 384
f 436 386 434
f 387 435 385
f 387 437 435
f 436 388 386
f 438 388 436
f 389 437 387
f 389 439 437
f 438 390 388
f 440 390 438
f 392 439 389
f 392 441 439
f 440 393 390
f 442 393 440
f 443 441 392
f 443 392 394
f 394 396 443
f 443 396 444
f 442 397 393
f 445 397 442
f 446 444 396
f 446 396 398
f 398 399 446
f 446 399 447
f 445 400 397
f 448 400 445
f 449 447 399
f 449 399 401
f 401 402 449
f 449 402 450
f 448 403 400
f 451 403 448
f 404 450 402
f 404 452 450
f 451 405 403
f 453 405 451
f 454 452 404
f 454 404 406
f 406 407 454
f 454 407 455
f 453 408 405
f 456 408 453
f 457 455 407
f 457 407 409
f 409 410 457
f 457 410 458
f 456 411 408
f 459 411 456
f 460 458 410
f 460 410 412
f 412 411 459
f 412 459 460
f 462 461 413
f 462 413 414
f 415 413 461
f 415 461 463
f 465 464 416
f 465 416 417
f 414 416 462
f 462 416 464
f 463 418 415
f 466 418 463
f 468 467 419
f 468 419 420
f 417 419 465
f 465 419 467
f 466 421 418
f 469 421 466
f 422 468 420
f 422 470 468
f 469 423 421
f 471 423 469
f 473 472 424
f 473 424 425
f 422 424 470
f 470 424 472
f 471 426 423
f 474 426 471
f 428 475 427
f 475 476 427
f 476 425 427
f 476 473 425
f 474 429 426
f 477 429 474
f 431 478 430
f 478 479 430
f 430 479 428
f 479 480 428
f 480 475 428
f 475 480 476
f 477 432 429
f 481 432 477
f 483 482 478
f 431 483 478
f 433 483 431
f 478 482 479
f 481 434 432
f 484 434 481
f 435 483 433
f 435 485 483
f 484 436 434
f 486 436 484
f 437 485 435
f 437 487 485
f 486 438 436
f 488 438 486
f 439 487 437
f 439 489 487
f 488 440 438
f 490 440 488
f 441 492 491
f 489 441 491
f 439 441 489
f 492 493 491
f 490 442 440
f 494 442 490
f 443 492 441
f 496 495 444
f 444 495 443
f 495 493 443
f 493 492 443
f 496 497 495
f 494 445 442
f 498 445 494
f 446 496 444
f 446 447 496
f 447 497 496
f 447 499 497
f 498 448 445
f 500 448 498
f 501 499 447
f 501 447 449
f 449 450 501
f 501 450 502
f 500 451 448
f 503 451 500
f 452 502 450
f 452 504 502
f 503 453 451
f 505 453 503
f 506 504 452
f 506 452 454
f 454 455 506
f 506 455 507
f 505 456 453
f 508 456 505
f 509 507 455
f 509 455 457
f 457 458 509
f 509 458 510
f 508 459 456
f 511 459 508
f 512 510 458
f 512 458 460
f 460 459 511
f 460 511 512
f 514 513 461
f 514 461 462
f 463 461 513
f 463 513 515
f 517 516 464
f 517 464 465
f 462 464 514
f 514 464 516
f 515 466 463
f 518 466 515
f 468 519 467
f 519 520 467
f 520 465 467
f 520 517 465
f 518 469 466
f 521 469 518
f 523 522 519
f 468 523 519
f 470 523 468
f 519 522 520
f 521 471 469
f 524 471 521
f 526 525 472
f 526 472 473
f 470 472 523
f 523 472 525
f 524 474 471
f 527 474 524
f 476 526 473
f 476 528 526
f 527 477 474
f 529 477 527
f 531 530 480
f 531 480 479
f 476 480 528
f 528 480 530
f 529 481 477
f 532 481 529
f 483 533 482
f 533 534 482
f 534 479 482
f 534 531 479
f 532 484 481
f 535 484 532
f 537 536 533
f 483 537 533
f 485 537 483
f 533 536 534
f 535 486 484
f 538 486 535
f 487 537 485
f 487 539 537
f 538 488 486
f 540 488 538
f 489 542 541
f 539 489 541
f 487 489 539
f 542 543 541
f 540 490 488
f 544 490 540
f 491 542 489
f 491 493 542
f 493 543 542
f 493 545 543
f 544 494 490
f 546 494 544
f 547 545 493
f 547 493 495
f 495 497 547
f 547 497 548
f 546 498 494
f 549 498 546
f 499 548 497
f 499 550 548
f 549 500 498
f 551 500 549
f 552 550 499
f 552 499 501
f 501 502 552
f 552 502 553
f 551 503 500
f 554 503 551
f 504 556 555
f 553 504 555
f 502 504 553
f 556 557 555
f 554 505 503
f 558 505 554
f 506 556 504
f 506 507 556
f 507 557 556
f 507 559 557
f 558 508 505
f 560 508 558
f 561 559 507
f 561 507 509
f 509 510 561
f 561 510 562
f 560 511 508
f 563 511 560
f 564 562 510
f 564 510 512
f 512 511 563
f 512 563 564
f 566 565 513
f 566 513 514
f 515 513 565
f 515 565 567
f 569 568 516
f 569 516 517
f 514 516 566
f 566 516 568
f 567 518 515
f 570 518 567
f 520 569 517
f 520 571 569
f 570 521 518
f 572 521 570
f 574 573 522
f 574 522 523
f 520 522 571
f 571 522 573
f 572 524 521
f 575 524 572
f 526 576 525
f 576 577 525
f 577 523 525
f 577 574 523
f 575 527 524
f 578 527 575
f 580 579 576
f 526 580 576
f 528 580 526
f 576 579 577
f 578 529 527
f 581 529 578
f 531 582 530
f 582 583 530
f 583 528 530
f 583 580 528
f 581 532 529
f 584 532 581
f 534 585 582
f 534 582 531
f 583 582 586
f 586 582 585
f 584 535 532
f 587 535 584
f 537 588 536
f 588 589 536
f 536 589 534
f 589 590 534
f 590 585 534
f 585 590 586
f 587 538 535
f 591 538 587
f 539 592 588
f 539 588 537
f 589 588 593
f 593 588 592
f 591 540 538
f 594 540 591
f 541 592 539
f 596 595 543
f 543 595 541
f 595 593 541
f 593 592 541
f 596 597 595
f 594 544 540
f 598 544 594
f 545 599 596
f 545 596 543
f 597 596 600
f 600 596 599
f 598 546 544
f 601 546 598
f 547 599 545
f 547 548 599
f 548 600 599
f 548 602 600
f 601 549 546
f 603 549 601
f 550 605 604
f 602 550 604
f 548 550 602
f 605 606 604
f 603 551 549
f 607 551 603
f 552 605 550
f 552 553 605
f 553 606 605
f 553 608 606
f 607 554 551
f 609 554 607
f 610 608 553
f 610 553 555
f 555 557 610
f 610 557 611
f 609 558 554
f 612 558 609
f 559 611 557
f 559 613 611
f 612 560 558
f 614 560 612
f 615 613 559
f 615 559 561
f 561 562 615
f 615 562 616
f 614 563 560
f 617 563 614
f 618 616 562
f 618 562 564
f 564 563 617
f 564 617 618
f 566 619 565
f 619 567 565
f 569 620 568
f 620 621 568
f 568 621 566
f 621 622 566
f 622 619 566
f 567 619 622
f 623 567 622
f 570 567 623
f 625 624 620
f 569 625 620
f 571 625 569
f 620 624 621
f 623 572 570
f 626 572 623
f 574 627 573
f 627 628 573
f 628 571 573
f 628 625 571
f 626 575 572
f 629 575 626
f 631 630 627
f 574 631 627
f 577 631 574
f 627 630 628
f 629 578 575
f 632 578 629
f 580 633 579
f 633 634 579
f 634 577 579
f 634 631 577
f 632 581 578
f 635 581 632
f 637 636 633
f 580 637 633
f 583 637 580
f 633 636 634
f 635 584 581
f 638 584 635
f 586 637 583
f 586 639 637
f 638 587 584
f 640 587 638
f 589 641 590
f 641 642 590
f 642 586 590
f 642 639 586
f 640 591 587
f 643 591 640
f 593 644 641
f 593 641 589
f 642 641 645
f 645 641 644
f 643 594 591
f 646 594 643
f 595 644 593
f 595 597 644
f 597 645 644
f 597 647 645
f 646 598 594
f 648 598 646
f 600 647 597
f 600 649 647
f 648 601 598
f 650 601 648
f 602 652 651
f 649 602 651
f 600 602 649
f 652 653 651
f 650 603 601
f 654 603 650
f 604 652 602
f 604 606 652
f 606 653 652
f 606 655 653
f 654 607 603
f 656 607 654
f 608 658 657
f 655 608 657
f 606 608 655
f 658 659 657
f 656 609 607
f 660 609 656
f 610 658 608
f 610 611 658
f 611 659 658
f 611 661 659
f 660 612 609
f 662 612 660
f 613 664 663
f 661 613 663
f 611 613 661
f 664 665 663
f 662 614 612
f 666 614 662
f 615 664 613
f 668 667 616
f 616 667 615
f 667 665 615
f 665 664 615
f 666 667 668
f 617 666 668
f 614 666 617
f 618 668 616
f 668 618 617
f 621 669 622
f 669 623 622
f 625 670 624
f 670 671 624
f 624 671 621
f 671 672 621
f 672 669 621
f 623 669 672
f 673 623 672
f 626 623 673
f 675 674 670
f 625 675 670
f 628 675 625
f 670 674 671
f 673 629 626
f 676 629 673
f 631 677 630
f 677 678 630
f 678 628 630
f 678 675 628
f 676 632 629
f 679 632 676
f 681 680 677
f 631 681 677
f 634 681 631
f 677 680 678
f 679 635 632
f 682 635 679
f 637 683 636
f 683 684 636
f 684 634 636
f 684 681 634
f 682 638 635
f 685 638 682
f 639 686 683
f 639 683 637
f 684 683 687
f 687 683 686
f 685 640 638
f 688 640 685
f 642 689 686
f 642 686 639
f 687 686 690
f 690 686 689
f 688 643 640
f 691 643 688
f 645 692 689
f 645 689 642
f 690 689 693
f 693 689 692
f 691 646 643
f 694 646 691
f 647 695 692
f 647 692 645
f 693 692 696
f 696 692 695
f 694 648 646
f 697 648 694
f 649 698 695
f 649 695 647
f 696 695 699
f 699 695 698
f 697 650 648
f 700 650 697
f 651 698 649
f 651 653 698
f 653 699 698
f 653 701 699
f 700 654 650
f 702 654 700
f 655 704 703
f 701 655 703
f 653 655 701
f 704 705 703
f 702 656 654
f 706 656 702
f 657 704 655
f 657 659 704
f 659 705 704
f 659 707 705
f 706 660 656
f 708 660 706
f 661 710 709
f 707 661 709
f 659 661 707
f 710 711 709
f 708 662 660
f 712 662 708
f 663 710 661
f 714 713 665
f 665 713 663
f 713 711 663
f 711 710 663
f 712 713 714
f 666 712 714
f 662 712 666
f 667 714 665
f 714 667 666
f 716 715 672
f 716 672 671
f 673 672 715
f 673 715 717
f 675 718 674
f 718 719 674
f 719 671 674
f 719 716 671
f 717 676 673
f 720 676 717
f 722 721 718
f 675 722 718
f 678 722 675
f 718 721 719
f 720 679 676
f 723 679 720
f 681 724 680
f 724 725 680
f 725 678 680
f 725 722 678
f 723 682 679
f 726 682 723
f 684 727 724
f 684 724 681
f 725 724 728
f 728 724 727
f 726 685 682
f 729 685 726
f 731 730 727
f 684 731 727
f 687 731 684
f 727 730 728
f 729 688 685
f 732 688 729
f 690 731 687
f 690 733 731
f 732 691 688
f 734 691 732
f 693 733 690
f 693 735 733
f 734 694 691
f 736 694 734
f 696 735 693
f 696 737 735
f 736 697 694
f 738 697 736
f 699 740 739
f 737 699 739
f 696 699 737
f 740 741 739
f 738 700 697
f 742 700 738
f 701 743 740
f 701 740 699
f 741 740 744
f 744 740 743
f 742 702 700
f 745 702 742
f 703 743 701
f 703 705 743
f 705 744 743
f 705 746 744
f 745 706 702
f 747 706 745
f 707 749 748
f 746 707 748
f 705 707 746
f 749 750 748
f 747 708 706
f 751 708 747
f 709 749 707
f 709 711 749
f 711 750 749
f 711 752 750
f 751 712 708
f 753 712 751
f 754 752 711
f 754 711 713
f 713 712 753
f 713 753 754
f 716 755 715
f 755 717 715
f 719 756 755
f 719 755 716
f 756 720 717
f 756 717 755
f 722 757 721
f 757 758 721
f 721 758 719
f 758 759 719
f 759 756 719
f 720 756 759
f 760 720 759
f 723 720 760
f 762 761 757
f 722 762 757
f 725 762 722
f 757 761 758
f 760 726 723
f 763 726 760
f 728 762 725
f 728 764 762
f 763 729 726
f 765 729 763
f 731 766 730
f 766 767 730
f 767 728 730
f 767 764 728
f 765 732 729
f 768 732 765
f 733 769 766
f 733 766 731
f 767 766 770
f 770 766 769
f 768 734 732
f 771 734 768
f 735 772 769
f 735 769 733
f 770 769 773
f 773 769 772
f 771 736 734
f 774 736 771
f 737 775 772
f 737 772 735
f 773 772 776
f 776 772 775
f 774 738 736
f 777 738 774
f 739 775 737
f 739 741 775
f 741 776 775
f 741 778 776
f 777 742 738
f 779 742 777
f 744 778 741
f 744 780 778
f 779 745 742
f 781 745 779
f 746 783 782
f 780 746 782
f 744 746 780
f 783 784 782
f 781 747 745
f 785 747 781
f 748 783 746
f 787 786 750
f 750 786 748
f 786 784 748
f 784 783 748
f 785 786 787
f 751 785 787
f 747 785 751
f 752 788 787
f 752 787 750
f 788 753 751
f 788 751 787
f 754 788 752
f 788 754 753
f 758 789 759
f 789 760 759
f 762 790 761
f 790 791 761
f 761 791 758
f 791 792 758
f 792 789 758
f 760 789 792
f 793 760 792
f 763 760 793
f 764 794 790
f 764 790 762
f 791 790 795
f 795 790 794
f 793 765 763
f 796 765 793
f 767 797 794
f 767 794 764
f 795 794 798
f 798 794 797
f 796 768 765
f 799 768 796
f 770 800 797
f 770 797 767
f 798 797 801
f 801 797 800
f 799 771 768
f 802 771 799
f 773 803 800
f 773 800 770
f 801 800 804
f 804 800 803
f 802 774 771
f 805 774 802
f 776 806 803
f 776 803 773
f 804 803 807
f 807 803 806
f 805 777 774
f 808 777 805
f 778 809 806
f 778 806 776
f 807 806 810
f 810 806 809
f 808 779 777
f 811 779 808
f 780 812 809
f 780 809 778
f 810 809 813
f 813 809 812
f 811 781 779
f 814 781 811
f 782 812 780
f 816 815 784
f 784 815 782
f 815 813 782
f 813 812 782
f 814 815 816
f 785 814 816
f 781 814 785
f 786 816 784
f 816 786 785
f 791 817 792
f 817 793 792
f 795 818 817
f 795 817 791
f 818 796 793
f 818 793 817
f 798 819 818
f 798 818 795
f 819 799 796
f 819 796 818
f 801 820 819
f 801 819 798
f 820 802 799
f 820 799 819
f 804 821 820
f 804 820 801
f 821 805 802
f 821 802 820
f 807 822 821
f 807 821 804
f 822 808 805
f 822 805 821
f 810 823 822
f 810 822 807
f 823 811 808
f 823 808 822
f 813 824 823
f 813 823 810
f 824 814 811
f 824 811 823
f 815 824 813
f 824 815 814
