v 2.7870402336120605 10.0 14.0
v 3.0 9.08146858215332 14.0
v 3.0 10.0 13.815279006958008
v 3.0 10.0 14.82103157043457
v 2.6727960109710693 11.0 14.0
v 3.0 11.0 13.712701797485352
v 3.0 11.0 14.877076148986816
v 2.6727960109710693 12.0 14.0
v 3.0 12.0 13.712701797485352
v 3.0 12.0 14.877076148986816
v 2.7870402336120605 13.0 14.0
v 3.0 13.0 13.815279006958008
v 3.0 13.0 14.82103157043457
v 3.0 13.91853141784668 14.0
v 3.8910043239593506 7.0 14.0
v 4.0 6.82861852645874 14.0
v 4.0 7.0 13.916488647460938
v 4.0 7.0 14.67469310760498
v 3.4098074436187744 8.0 14.0
v 4.0 8.0 13.53095817565918
v 4.0 8.0 14.916943550109863
v 3.035546064376831 9.0 14.0
v 4.0 9.0 13.284954071044922
v 4.0 9.0 14.916943550109863
v 3.943305492401123 10.0 13.0
v 4.0 9.783329963684082 13.0
v 4.0 10.0 12.951000213623047
v 4.0 10.0 14.916943550109863
v 3.8120317459106445 11.0 13.0
v 4.0 11.0 12.835023880004883
v 4.0 11.0 14.916943550109863
v 3.8120317459106445 12.0 13.0
v 4.0 12.0 12.835023880004883
v 4.0 12.0 14.916943550109863
v 3.943305492401123 13.0 13.0
v 4.0 13.0 12.951000213623047
v 4.0 13.0 14.916943550109863
v 4.0 13.216670036315918 13.0
v 3.035546064376831 14.0 14.0
v 4.0 14.0 13.284954071044922
v 4.0 14.0 14.916943550109863
v 3.4098074436187744 15.0 14.0
v 4.0 15.0 13.53095817565918
v 4.0 15.0 14.916943550109863
v 3.8910043239593506 16.0 14.0
v 4.0 16.0 13.916488647460938
v 4.0 16.0 14.67469310760498
v 4.0 16.1713809967041 14.0
v 4.584270477294922 6.0 14.0
v 5.0 5.5179266929626465 14.0
v 5.0 6.0 13.712701797485352
v 5.0 6.0 14.877076148986816
v 5.0 7.0 13.284954071044922
v 5.0 7.0 14.916943550109863
v 4.6400275230407715 8.0 13.0
v 5.0 7.3849639892578125 13.0
v 5.0 8.0 12.7169771194458
v 5.0 8.0 14.916943550109863
v 4.284953594207764 9.0 13.0
v 5.0 9.0 12.439946174621582
v 5.0 9.0 14.916943550109863
v 5.0 10.0 12.170259475708008
v 5.0 10.0 14.916943550109863
v 4.9519734382629395 11.0 12.0
v 5.0 10.684073448181152 12.0
v 5.0 11.0 11.957873344421387
v 5.0 11.0 14.916943550109863
v 4.9519734382629395 12.0 12.0
v 5.0 12.0 11.957873344421387
v 5.0 12.0 14.916943550109863
v 5.0 12.315926551818848 12.0
v 5.0 13.0 12.170259475708008
v 5.0 13.0 14.916943550109863
v 4.284953594207764 14.0 13.0
v 5.0 14.0 12.439946174621582
v 5.0 14.0 14.916943550109863
v 4.6400275230407715 15.0 13.0
v 5.0 15.0 12.7169771194458
v 5.0 15.0 14.916943550109863
v 5.0 15.615036010742188 13.0
v 5.0 16.0 13.284954071044922
v 5.0 16.0 14.916943550109863
v 4.584270477294922 17.0 14.0
v 5.0 17.0 13.712701797485352
v 5.0 17.0 14.877076148986816
v 5.0 17.482072830200195 14.0
v 5.5179266929626465 5.0 14.0
v 6.0 4.584270477294922 14.0
v 6.0 5.0 13.712701797485352
v 6.0 5.0 14.877076148986816
v 6.0 6.0 13.127585411071777
v 6.0 6.0 14.916943550109863
v 5.284953594207764 7.0 13.0
v 6.0 6.127585411071777 13.0
v 6.0 7.0 12.516144752502441
v 6.0 7.0 14.916943550109863
v 5.944504737854004 8.0 12.0
v 6.0 7.918410778045654 12.0
v 6.0 8.0 11.957873344421387
v 6.0 8.0 14.916943550109863
v 5.43994665145874 9.0 12.0
v 6.0 9.0 11.547475814819336
v 6.0 9.0 14.916943550109863
v 5.170259952545166 10.0 12.0
v 6.0 10.0 11.348932266235352
v 6.0 10.0 14.916943550109863
v 6.0 11.0 11.154990196228027
v 6.0 11.0 14.916943550109863
v 6.0 12.0 11.154990196228027
v 6.0 12.0 14.916943550109863
v 5.170259952545166 13.0 12.0
v 6.0 13.0 11.348932266235352
v 6.0 13.0 14.916943550109863
v 5.43994665145874 14.0 12.0
v 6.0 14.0 11.547475814819336
v 6.0 14.0 14.916943550109863
v 5.944504737854004 15.0 12.0
v 6.0 15.0 11.957873344421387
v 6.0 15.0 14.916943550109863
v 6.0 15.081589698791504 12.0
v 5.284953594207764 16.0 13.0
v 6.0 16.0 12.516144752502441
v 6.0 16.0 14.916943550109863
v 6.0 16.87241554260254 13.0
v 6.0 17.0 13.127585411071777
v 6.0 17.0 14.916943550109863
v 5.5179266929626465 18.0 14.0
v 6.0 18.0 13.712701797485352
v 6.0 18.0 14.877076148986816
v 6.0 18.415729522705078 14.0
v 6.82861852645874 4.0 14.0
v 7.0 3.8910043239593506 14.0
v 7.0 4.0 13.916488647460938
v 7.0 4.0 14.67469310760498
v 7.0 5.0 13.284954071044922
v 7.0 5.0 14.916943550109863
v 6.127585411071777 6.0 13.0
v 7.0 5.284953594207764 13.0
v 7.0 6.0 12.516144752502441
v 7.0 6.0 14.916943550109863
v 6.726357460021973 7.0 12.0
v 7.0 6.726357460021973 12.0
v 7.0 7.0 11.821354866027832
v 7.0 7.0 14.916943550109863
v 7.0 8.0 11.348932266235352
v 7.0 8.0 14.916943550109863
v 6.684294700622559 9.0 11.0
v 7.0 8.489843368530273 11.0
v 7.0 9.0 10.751879692077637
v 7.0 9.0 14.916943550109863
v 6.348932266235352 10.0 11.0
v 7.0 10.0 10.47128963470459
v 7.0 10.0 14.916943550109863
v 6.1549906730651855 11.0 11.0
v 7.0 11.0 10.317237854003906
v 7.0 11.0 14.916943550109863
v 6.1549906730651855 12.0 11.0
v 7.0 12.0 10.317237854003906
v 7.0 12.0 14.916943550109863
v 6.348932266235352 13.0 11.0
v 7.0 13.0 10.47128963470459
v 7.0 13.0 14.916943550109863
v 6.684294700622559 14.0 11.0
v 7.0 14.0 10.751879692077637
v 7.0 14.0 14.916943550109863
v 7.0 14.510156631469727 11.0
v 7.0 15.0 11.348932266235352
v 7.0 15.0 14.916943550109863
v 6.726357460021973 16.0 12.0
v 7.0 16.0 11.821354866027832
v 7.0 16.0 14.916943550109863
v 7.0 16.273643493652344 12.0
v 6.127585411071777 17.0 13.0
v 7.0 17.0 12.516144752502441
v 7.0 17.0 14.916943550109863
v 7.0 17.715045928955078 13.0
v 7.0 18.0 13.284954071044922
v 7.0 18.0 14.916943550109863
v 6.82861852645874 19.0 14.0
v 7.0 19.0 13.916488647460938
v 7.0 19.0 14.67469310760498
v 7.0 19.10899543762207 14.0
v 8.0 3.4098074436187744 14.0
v 8.0 4.0 13.53095817565918
v 8.0 4.0 14.916943550109863
v 7.3849639892578125 5.0 13.0
v 8.0 4.6400275230407715 13.0
v 8.0 5.0 12.7169771194458
v 8.0 5.0 14.916943550109863
v 7.918410778045654 6.0 12.0
v 8.0 5.944504737854004 12.0
v 8.0 6.0 11.957873344421387
v 8.0 6.0 14.916943550109863
v 8.0 7.0 11.348932266235352
v 8.0 7.0 14.916943550109863
v 7.360674858093262 8.0 11.0
v 8.0 7.360674858093262 11.0
v 8.0 8.0 10.577699661254883
v 8.0 8.0 14.916943550109863
v 8.0 9.0 10.0162353515625
v 8.0 9.0 14.916943550109863
v 7.481647968292236 10.0 10.0
v 8.0 9.016911506652832 10.0
v 8.0 10.0 9.5735502243042
v 8.0 10.0 14.916943550109863
v 7.317237377166748 11.0 10.0
v 8.0 11.0 9.429045677185059
v 8.0 11.0 14.916943550109863
v 7.317237377166748 12.0 10.0
v 8.0 12.0 9.429045677185059
v 8.0 12.0 14.916943550109863
v 7.481647968292236 13.0 10.0
v 8.0 13.0 9.5735502243042
v 8.0 13.0 14.916943550109863
v 8.0 13.983088493347168 10.0
v 8.0 14.0 10.0162353515625
v 8.0 14.0 14.916943550109863
v 7.360674858093262 15.0 11.0
v 8.0 15.0 10.577699661254883
v 8.0 15.0 14.916943550109863
v 8.0 15.639325141906738 11.0
v 8.0 16.0 11.348932266235352
v 8.0 16.0 14.916943550109863
v 7.918410778045654 17.0 12.0
v 8.0 17.0 11.957873344421387
v 8.0 17.0 14.916943550109863
v 8.0 17.05549430847168 12.0
v 7.3849639892578125 18.0 13.0
v 8.0 18.0 12.7169771194458
v 8.0 18.0 14.916943550109863
v 8.0 18.35997200012207 13.0
v 8.0 19.0 13.53095817565918
v 8.0 19.0 14.916943550109863
v 8.0 19.590192794799805 14.0
v 9.0 3.035546064376831 14.0
v 9.0 4.0 13.284954071044922
v 9.0 4.0 14.916943550109863
v 9.0 4.284953594207764 13.0
v 9.0 5.0 12.439946174621582
v 9.0 5.0 14.916943550109863
v 9.0 5.43994665145874 12.0
v 9.0 6.0 11.547475814819336
v 9.0 6.0 14.916943550109863
v 8.489843368530273 7.0 11.0
v 9.0 6.684294700622559 11.0
v 9.0 7.0 10.751879692077637
v 9.0 7.0 14.916943550109863
v 9.0 8.0 10.0162353515625
v 9.0 8.0 14.916943550109863
v 8.0162353515625 9.0 10.0
v 9.0 8.0162353515625 10.0
v 9.0 9.0 9.429045677185059
v 9.0 9.0 14.916943550109863
v 8.730839729309082 10.0 9.0
v 9.0 9.612613677978516 9.0
v 9.0 10.0 8.529253005981445
v 9.0 10.0 14.916943550109863
v 8.429045677185059 11.0 9.0
v 9.0 11.0 8.083056449890137
v 9.0 11.0 14.916943550109863
v 8.429045677185059 12.0 9.0
v 9.0 12.0 8.083056449890137
v 9.0 12.0 14.916943550109863
v 8.730839729309082 13.0 9.0
v 9.0 13.0 8.529253005981445
v 9.0 13.0 14.916943550109863
v 9.0 13.387386322021484 9.0
v 8.0162353515625 14.0 10.0
v 9.0 14.0 9.429045677185059
v 9.0 14.0 14.916943550109863
v 9.0 14.9837646484375 10.0
v 9.0 15.0 10.0162353515625
v 9.0 15.0 14.916943550109863
v 8.489843368530273 16.0 11.0
v 9.0 16.0 10.751879692077637
v 9.0 16.0 14.916943550109863
v 9.0 16.315704345703125 11.0
v 9.0 17.0 11.547475814819336
v 9.0 17.0 14.916943550109863
v 9.0 17.5600528717041 12.0
v 9.0 18.0 12.439946174621582
v 9.0 18.0 14.916943550109863
v 9.0 18.715045928955078 13.0
v 9.0 19.0 13.284954071044922
v 9.0 19.0 14.916943550109863
v 9.0 19.964454650878906 14.0
v 9.08146858215332 3.0 14.0
v 10.0 2.7870402336120605 14.0
v 10.0 3.0 13.815279006958008
v 10.0 3.0 14.82103157043457
v 9.783329963684082 4.0 13.0
v 10.0 3.943305492401123 13.0
v 10.0 4.0 12.951000213623047
v 10.0 4.0 14.916943550109863
v 10.0 5.0 12.170259475708008
v 10.0 5.0 14.916943550109863
v 10.0 5.170259952545166 12.0
v 10.0 6.0 11.348932266235352
v 10.0 6.0 14.916943550109863
v 10.0 6.348932266235352 11.0
v 10.0 7.0 10.47128963470459
v 10.0 7.0 14.916943550109863
v 9.016911506652832 8.0 10.0
v 10.0 7.481647968292236 10.0
v 10.0 8.0 9.5735502243042
v 10.0 8.0 14.916943550109863
v 9.612613677978516 9.0 9.0
v 10.0 8.730839729309082 9.0
v 10.0 9.0 8.529253005981445
v 10.0 9.0 14.916943550109863
v 10.0 10.0 8.083056449890137
v 10.0 10.0 14.916943550109863
v 10.0 11.0 8.083056449890137
v 10.0 11.0 14.916943550109863
v 10.0 12.0 8.083056449890137
v 10.0 12.0 14.916943550109863
v 10.0 13.0 8.083056449890137
v 10.0 13.0 14.916943550109863
v 9.612613677978516 14.0 9.0
v 10.0 14.0 8.529253005981445
v 10.0 14.0 14.916943550109863
v 10.0 14.269160270690918 9.0
v 9.016911506652832 15.0 10.0
v 10.0 15.0 9.5735502243042
v 10.0 15.0 14.916943550109863
v 10.0 15.518352508544922 10.0
v 10.0 16.0 10.47128963470459
v 10.0 16.0 14.916943550109863
v 10.0 16.65106773376465 11.0
v 10.0 17.0 11.348932266235352
v 10.0 17.0 14.916943550109863
v 10.0 17.829740524291992 12.0
v 10.0 18.0 12.170259475708008
v 10.0 18.0 14.916943550109863
v 9.783329963684082 19.0 13.0
v 10.0 19.0 12.951000213623047
v 10.0 19.0 14.916943550109863
v 10.0 19.05669403076172 13.0
v 9.08146858215332 20.0 14.0
v 10.0 20.0 13.815279006958008
v 10.0 20.0 14.82103157043457
v 10.0 20.21295928955078 14.0
v 11.0 2.6727960109710693 14.0
v 11.0 3.0 13.712701797485352
v 11.0 3.0 14.877076148986816
v 11.0 3.8120317459106445 13.0
v 11.0 4.0 12.835023880004883
v 11.0 4.0 14.916943550109863
v 10.684073448181152 5.0 12.0
v 11.0 4.9519734382629395 12.0
v 11.0 5.0 11.957873344421387
v 11.0 5.0 14.916943550109863
v 11.0 6.0 11.154990196228027
v 11.0 6.0 14.916943550109863
v 11.0 6.1549906730651855 11.0
v 11.0 7.0 10.317237854003906
v 11.0 7.0 14.916943550109863
v 11.0 7.317237377166748 10.0
v 11.0 8.0 9.429045677185059
v 11.0 8.0 14.916943550109863
v 11.0 8.429045677185059 9.0
v 11.0 9.0 8.083056449890137
v 11.0 9.0 14.916943550109863
v 11.0 10.0 8.083056449890137
v 11.0 10.0 14.916943550109863
v 11.0 11.0 8.083056449890137
v 11.0 11.0 14.916943550109863
v 11.0 12.0 8.083056449890137
v 11.0 12.0 14.916943550109863
v 11.0 13.0 8.083056449890137
v 11.0 13.0 14.916943550109863
v 11.0 14.0 8.083056449890137
v 11.0 14.0 14.916943550109863
v 11.0 14.570954322814941 9.0
v 11.0 15.0 9.429045677185059
v 11.0 15.0 14.916943550109863
v 11.0 15.682762145996094 10.0
v 11.0 16.0 10.317237854003906
v 11.0 16.0 14.916943550109863
v 11.0 16.845008850097656 11.0
v 11.0 17.0 11.154990196228027
v 11.0 17.0 14.916943550109863
v 10.684073448181152 18.0 12.0
v 11.0 18.0 11.957873344421387
v 11.0 18.0 14.916943550109863
v 11.0 18.04802703857422 12.0
v 11.0 19.0 12.835023880004883
v 11.0 19.0 14.916943550109863
v 11.0 19.187969207763672 13.0
v 11.0 20.0 13.712701797485352
v 11.0 20.0 14.877076148986816
v 11.0 20.32720375061035 14.0
v 12.0 2.6727960109710693 14.0
v 12.0 3.0 13.712701797485352
v 12.0 3.0 14.877076148986816
v 12.0 3.8120317459106445 13.0
v 12.0 4.0 12.835023880004883
v 12.0 4.0 14.916943550109863
v 12.0 4.9519734382629395 12.0
v 12.0 5.0 11.957873344421387
v 12.0 5.0 14.916943550109863
v 12.0 6.0 11.154990196228027
v 12.0 6.0 14.916943550109863
v 12.0 6.1549906730651855 11.0
v 12.0 7.0 10.317237854003906
v 12.0 7.0 14.916943550109863
v 12.0 7.317237377166748 10.0
v 12.0 8.0 9.429045677185059
v 12.0 8.0 14.916943550109863
v 12.0 8.429045677185059 9.0
v 12.0 9.0 8.083056449890137
v 12.0 9.0 14.916943550109863
v 12.0 10.0 8.083056449890137
v 12.0 10.0 14.916943550109863
v 12.0 11.0 8.083056449890137
v 12.0 11.0 14.916943550109863
v 12.0 12.0 8.083056449890137
v 12.0 12.0 14.916943550109863
v 12.0 13.0 8.083056449890137
v 12.0 13.0 14.916943550109863
v 12.0 14.0 8.083056449890137
v 12.0 14.0 14.916943550109863
v 12.0 14.570954322814941 9.0
v 12.0 15.0 9.429045677185059
v 12.0 15.0 14.916943550109863
v 12.0 15.682762145996094 10.0
v 12.0 16.0 10.317237854003906
v 12.0 16.0 14.916943550109863
v 12.0 16.845008850097656 11.0
v 12.0 17.0 11.154990196228027
v 12.0 17.0 14.916943550109863
v 12.0 18.0 11.957873344421387
v 12.0 18.0 14.916943550109863
v 12.0 18.04802703857422 12.0
v 12.0 19.0 12.835023880004883
v 12.0 19.0 14.916943550109863
v 12.0 19.187969207763672 13.0
v 12.0 20.0 13.712701797485352
v 12.0 20.0 14.877076148986816
v 12.0 20.32720375061035 14.0
v 13.0 2.7870402336120605 14.0
v 13.0 3.0 13.815279006958008
v 13.0 3.0 14.82103157043457
v 13.0 3.943305492401123 13.0
v 13.0 4.0 12.951000213623047
v 13.0 4.0 14.916943550109863
v 12.315926551818848 5.0 12.0
v 13.0 5.0 12.170259475708008
v 13.0 5.0 14.916943550109863
v 13.0 5.170259952545166 12.0
v 13.0 6.0 11.348932266235352
v 13.0 6.0 14.916943550109863
v 13.0 6.348932266235352 11.0
v 13.0 7.0 10.47128963470459
v 13.0 7.0 14.916943550109863
v 13.0 7.481647968292236 10.0
v 13.0 8.0 9.5735502243042
v 13.0 8.0 14.916943550109863
v 13.0 8.730839729309082 9.0
v 13.0 9.0 8.529253005981445
v 13.0 9.0 14.916943550109863
v 13.0 10.0 8.083056449890137
v 13.0 10.0 14.916943550109863
v 13.0 11.0 8.083056449890137
v 13.0 11.0 14.916943550109863
v 13.0 12.0 8.083056449890137
v 13.0 12.0 14.916943550109863
v 13.0 13.0 8.083056449890137
v 13.0 13.0 14.916943550109863
v 13.0 14.0 8.529253005981445
v 13.0 14.0 14.916943550109863
v 13.0 14.269160270690918 9.0
v 13.0 15.0 9.5735502243042
v 13.0 15.0 14.916943550109863
v 13.0 15.518352508544922 10.0
v 13.0 16.0 10.47128963470459
v 13.0 16.0 14.916943550109863
v 13.0 16.65106773376465 11.0
v 13.0 17.0 11.348932266235352
v 13.0 17.0 14.916943550109863
v 13.0 17.829740524291992 12.0
v 12.315926551818848 18.0 12.0
v 13.0 18.0 12.170259475708008
v 13.0 18.0 14.916943550109863
v 13.0 19.0 12.951000213623047
v 13.0 19.0 14.916943550109863
v 13.0 19.05669403076172 13.0
v 13.0 20.0 13.815279006958008
v 13.0 20.0 14.82103157043457
v 13.0 20.21295928955078 14.0
v 13.91853141784668 3.0 14.0
v 13.216670036315918 4.0 13.0
v 14.0 4.0 13.284954071044922
v 14.0 3.035546064376831 14.0
v 14.0 4.0 14.916943550109863
v 14.0 4.284953594207764 13.0
v 14.0 5.0 12.439946174621582
v 14.0 5.0 14.916943550109863
v 14.0 5.43994665145874 12.0
v 14.0 6.0 11.547475814819336
v 14.0 6.0 14.916943550109863
v 14.0 6.684294700622559 11.0
v 14.0 7.0 10.751879692077637
v 14.0 7.0 14.916943550109863
v 13.983088493347168 8.0 10.0
v 14.0 8.0 10.0162353515625
v 14.0 8.0 14.916943550109863
v 13.387386322021484 9.0 9.0
v 14.0 9.0 9.429045677185059
v 14.0 8.0162353515625 10.0
v 14.0 9.0 14.916943550109863
v 14.0 9.612613677978516 9.0
v 14.0 10.0 8.529253005981445
v 14.0 10.0 14.916943550109863
v 14.0 11.0 8.083056449890137
v 14.0 11.0 14.916943550109863
v 14.0 12.0 8.083056449890137
v 14.0 12.0 14.916943550109863
v 14.0 13.0 8.529253005981445
v 14.0 13.0 14.916943550109863
v 14.0 13.387386322021484 9.0
v 13.387386322021484 14.0 9.0
v 14.0 14.0 9.429045677185059
v 14.0 14.0 14.916943550109863
v 14.0 14.9837646484375 10.0
v 13.983088493347168 15.0 10.0
v 14.0 15.0 10.0162353515625
v 14.0 15.0 14.916943550109863
v 14.0 16.0 10.751879692077637
v 14.0 16.0 14.916943550109863
v 14.0 16.315704345703125 11.0
v 14.0 17.0 11.547475814819336
v 14.0 17.0 14.916943550109863
v 14.0 17.5600528717041 12.0
v 14.0 18.0 12.439946174621582
v 14.0 18.0 14.916943550109863
v 14.0 18.715045928955078 13.0
v 13.216670036315918 19.0 13.0
v 14.0 19.0 13.284954071044922
v 14.0 19.0 14.916943550109863
v 14.0 19.964454650878906 14.0
v 13.91853141784668 20.0 14.0
v 15.0 3.4098074436187744 14.0
v 15.0 4.0 13.53095817565918
v 15.0 4.0 14.916943550109863
v 15.0 4.6400275230407715 13.0
v 15.0 5.0 12.7169771194458
v 15.0 5.0 14.916943550109863
v 15.0 5.944504737854004 12.0
v 15.0 6.0 11.957873344421387
v 15.0 6.0 14.916943550109863
v 14.510156631469727 7.0 11.0
v 15.0 7.0 11.348932266235352
v 15.0 7.0 14.916943550109863
v 15.0 7.360674858093262 11.0
v 15.0 8.0 10.577699661254883
v 15.0 8.0 14.916943550109863
v 14.9837646484375 9.0 10.0
v 15.0 9.0 10.0162353515625
v 15.0 9.0 14.916943550109863
v 14.269160270690918 10.0 9.0
v 15.0 10.0 9.5735502243042
v 15.0 9.016911506652832 10.0
v 15.0 10.0 14.916943550109863
v 14.570954322814941 11.0 9.0
v 15.0 11.0 9.429045677185059
v 15.0 11.0 14.916943550109863
v 14.570954322814941 12.0 9.0
v 15.0 12.0 9.429045677185059
v 15.0 12.0 14.916943550109863
v 14.269160270690918 13.0 9.0
v 15.0 13.0 9.5735502243042
v 15.0 13.0 14.916943550109863
v 15.0 13.983088493347168 10.0
v 14.9837646484375 14.0 10.0
v 15.0 14.0 10.0162353515625
v 15.0 14.0 14.916943550109863
v 15.0 15.0 10.577699661254883
v 15.0 15.0 14.916943550109863
v 15.0 15.639325141906738 11.0
v 14.510156631469727 16.0 11.0
v 15.0 16.0 11.348932266235352
v 15.0 16.0 14.916943550109863
v 15.0 17.0 11.957873344421387
v 15.0 17.0 14.916943550109863
v 15.0 17.05549430847168 12.0
v 15.0 18.0 12.7169771194458
v 15.0 18.0 14.916943550109863
v 15.0 18.35997200012207 13.0
v 15.0 19.0 13.53095817565918
v 15.0 19.0 14.916943550109863
v 15.0 19.590192794799805 14.0
v 16.0 3.8910043239593506 14.0
v 16.0 4.0 13.916488647460938
v 16.0 4.0 14.67469310760498
v 15.615036010742188 5.0 13.0
v 16.0 5.0 13.284954071044922
v 16.0 5.0 14.916943550109863
v 15.081589698791504 6.0 12.0
v 16.0 6.0 12.516144752502441
v 16.0 5.284953594207764 13.0
v 16.0 6.0 14.916943550109863
v 16.0 6.726357460021973 12.0
v 16.0 7.0 11.821354866027832
v 16.0 7.0 14.916943550109863
v 15.639325141906738 8.0 11.0
v 16.0 8.0 11.348932266235352
v 16.0 8.0 14.916943550109863
v 16.0 8.489843368530273 11.0
v 16.0 9.0 10.751879692077637
v 16.0 9.0 14.916943550109863
v 15.518352508544922 10.0 10.0
v 16.0 10.0 10.47128963470459
v 16.0 10.0 14.916943550109863
v 15.682762145996094 11.0 10.0
v 16.0 11.0 10.317237854003906
v 16.0 11.0 14.916943550109863
v 15.682762145996094 12.0 10.0
v 16.0 12.0 10.317237854003906
v 16.0 12.0 14.916943550109863
v 15.518352508544922 13.0 10.0
v 16.0 13.0 10.47128963470459
v 16.0 13.0 14.916943550109863
v 16.0 14.0 10.751879692077637
v 16.0 14.0 14.916943550109863
v 16.0 14.510156631469727 11.0
v 15.639325141906738 15.0 11.0
v 16.0 15.0 11.348932266235352
v 16.0 15.0 14.916943550109863
v 16.0 16.0 11.821354866027832
v 16.0 16.0 14.916943550109863
v 16.0 16.273643493652344 12.0
v 15.081589698791504 17.0 12.0
v 16.0 17.0 12.516144752502441
v 16.0 17.0 14.916943550109863
v 16.0 17.715045928955078 13.0
v 15.615036010742188 18.0 13.0
v 16.0 18.0 13.284954071044922
v 16.0 18.0 14.916943550109863
v 16.0 19.0 13.916488647460938
v 16.0 19.0 14.67469310760498
v 16.0 19.10899543762207 14.0
v 16.1713809967041 4.0 14.0
v 17.0 4.584270477294922 14.0
v 17.0 5.0 13.712701797485352
v 17.0 5.0 14.877076148986816
v 16.87241554260254 6.0 13.0
v 17.0 6.0 13.127585411071777
v 17.0 6.0 14.916943550109863
v 16.273643493652344 7.0 12.0
v 17.0 7.0 12.516144752502441
v 17.0 6.127585411071777 13.0
v 17.0 7.0 14.916943550109863
v 17.0 7.918410778045654 12.0
v 17.0 8.0 11.957873344421387
v 17.0 8.0 14.916943550109863
v 16.315704345703125 9.0 11.0
v 17.0 9.0 11.547475814819336
v 17.0 9.0 14.916943550109863
v 16.65106773376465 10.0 11.0
v 17.0 10.0 11.348932266235352
v 17.0 10.0 14.916943550109863
v 16.845008850097656 11.0 11.0
v 17.0 11.0 11.154990196228027
v 17.0 11.0 14.916943550109863
v 16.845008850097656 12.0 11.0
v 17.0 12.0 11.154990196228027
v 17.0 12.0 14.916943550109863
v 16.65106773376465 13.0 11.0
v 17.0 13.0 11.348932266235352
v 17.0 13.0 14.916943550109863
v 16.315704345703125 14.0 11.0
v 17.0 14.0 11.547475814819336
v 17.0 14.0 14.916943550109863
v 17.0 15.0 11.957873344421387
v 17.0 15.0 14.916943550109863
v 17.0 15.081589698791504 12.0
v 16.273643493652344 16.0 12.0
v 17.0 16.0 12.516144752502441
v 17.0 16.0 14.916943550109863
v 17.0 16.87241554260254 13.0
v 16.87241554260254 17.0 13.0
v 17.0 17.0 13.127585411071777
v 17.0 17.0 14.916943550109863
v 17.0 18.0 13.712701797485352
v 17.0 18.0 14.877076148986816
v 17.0 18.415729522705078 14.0
v 16.1713809967041 19.0 14.0
v 17.482072830200195 5.0 14.0
v 18.0 5.5179266929626465 14.0
v 18.0 6.0 13.712701797485352
v 18.0 6.0 14.877076148986816
v 17.715045928955078 7.0 13.0
v 18.0 7.0 13.284954071044922
v 18.0 7.0 14.916943550109863
v 17.05549430847168 8.0 12.0
v 18.0 8.0 12.7169771194458
v 18.0 7.3849639892578125 13.0
v 18.0 8.0 14.916943550109863
v 17.5600528717041 9.0 12.0
v 18.0 9.0 12.439946174621582
v 18.0 9.0 14.916943550109863
v 17.829740524291992 10.0 12.0
v 18.0 10.0 12.170259475708008
v 18.0 10.0 14.916943550109863
v 18.0 10.684073448181152 12.0
v 18.0 11.0 11.957873344421387
v 18.0 11.0 14.916943550109863
v 18.0 12.0 11.957873344421387
v 18.0 12.0 14.916943550109863
v 18.0 12.315926551818848 12.0
v 17.829740524291992 13.0 12.0
v 18.0 13.0 12.170259475708008
v 18.0 13.0 14.916943550109863
v 17.5600528717041 14.0 12.0
v 18.0 14.0 12.439946174621582
v 18.0 14.0 14.916943550109863
v 17.05549430847168 15.0 12.0
v 18.0 15.0 12.7169771194458
v 18.0 15.0 14.916943550109863
v 18.0 15.615036010742188 13.0
v 17.715045928955078 16.0 13.0
v 18.0 16.0 13.284954071044922
v 18.0 16.0 14.916943550109863
v 18.0 17.0 13.712701797485352
v 18.0 17.0 14.877076148986816
v 18.0 17.482072830200195 14.0
v 17.482072830200195 18.0 14.0
v 18.415729522705078 6.0 14.0
v 19.0 6.82861852645874 14.0
v 19.0 7.0 13.916488647460938
v 19.0 7.0 14.67469310760498
v 18.35997200012207 8.0 13.0
v 19.0 8.0 13.53095817565918
v 19.0 8.0 14.916943550109863
v 18.715045928955078 9.0 13.0
v 19.0 9.0 13.284954071044922
v 19.0 9.0 14.916943550109863
v 19.0 9.783329963684082 13.0
v 19.0 10.0 12.951000213623047
v 19.0 10.0 14.916943550109863
v 18.04802703857422 11.0 12.0
v 19.0 11.0 12.835023880004883
v 19.0 11.0 14.916943550109863
v 18.04802703857422 12.0 12.0
v 19.0 12.0 12.835023880004883
v 19.0 12.0 14.916943550109863
v 19.0 13.0 12.951000213623047
v 19.0 13.0 14.916943550109863
v 19.0 13.216670036315918 13.0
v 18.715045928955078 14.0 13.0
v 19.0 14.0 13.284954071044922
v 19.0 14.0 14.916943550109863
v 18.35997200012207 15.0 13.0
v 19.0 15.0 13.53095817565918
v 19.0 15.0 14.916943550109863
v 19.0 16.0 13.916488647460938
v 19.0 16.0 14.67469310760498
v 19.0 16.1713809967041 14.0
v 18.415729522705078 17.0 14.0
v 19.10899543762207 7.0 14.0
v 19.590192794799805 8.0 14.0
v 19.964454650878906 9.0 14.0
v 19.05669403076172 10.0 13.0
v 20.0 10.0 13.815279006958008
v 20.0 9.08146858215332 14.0
v 20.0 10.0 14.82103157043457
v 19.187969207763672 11.0 13.0
v 20.0 11.0 13.712701797485352
v 20.0 11.0 14.877076148986816
v 19.187969207763672 12.0 13.0
v 20.0 12.0 13.712701797485352
v 20.0 12.0 14.877076148986816
v 19.05669403076172 13.0 13.0
v 20.0 13.0 13.815279006958008
v 20.0 13.0 14.82103157043457
v 20.0 13.91853141784668 14.0
v 19.964454650878906 14.0 14.0
v 19.590192794799805 15.0 14.0
v 19.10899543762207 16.0 14.0
v 20.21295928955078 10.0 14.0
v 20.32720375061035 11.0 14.0
v 20.32720375061035 12.0 14.0
v 20.21295928955078 13.0 14.0
f 3 2 1
f 4 1 2
f 3 1 5
f 3 5 6
f 1 4 7
f 1 7 5
f 6 5 8
f 6 8 9
f 5 7 10
f 5 10 8
f 9 8 11
f 9 11 12
f 8 10 13
f 8 13 11
f 14 12 11
f 14 11 13
f 17 16 15
f 18 15 16
f 17 15 19
f 17 19 20
f 15 18 21
f 15 21 19
f 20 19 22
f 20 22 23
f 19 21 24
f 19 24 22
f 27 26 25
f 25 26 23
f 25 23 22
f 3 25 22
f 2 3 22
f 4 2 22
f 24 4 22
f 28 4 24
f 27 25 29
f 27 29 30
f 6 29 3
f 3 29 25
f 28 7 4
f 31 7 28
f 30 29 32
f 30 32 33
f 9 32 6
f 6 32 29
f 31 10 7
f 34 10 31
f 33 32 35
f 33 35 36
f 12 35 9
f 9 35 32
f 34 13 10
f 37 13 34
f 38 36 35
f 40 38 39
f 39 38 14
f 38 35 14
f 35 12 14
f 41 39 14
f 13 41 14
f 37 41 13
f 40 39 42
f 40 42 43
f 39 41 44
f 39 44 42
f 43 42 45
f 43 45 46
f 42 44 47
f 42 47 45
f 48 46 45
f 48 45 47
f 51 50 49
f 52 49 50
f 51 49 16
f 17 51 16
f 53 51 17
f 18 16 49
f 52 18 49
f 54 18 52
f 57 56 55
f 56 53 55
f 53 20 55
f 53 17 20
f 54 21 18
f 58 21 54
f 57 55 59
f 57 59 60
f 23 59 20
f 20 59 55
f 58 24 21
f 61 24 58
f 60 59 26
f 27 60 26
f 62 60 27
f 26 59 23
f 61 28 24
f 63 28 61
f 66 65 64
f 65 62 64
f 62 30 64
f 62 27 30
f 63 31 28
f 67 31 63
f 66 64 68
f 66 68 69
f 33 68 30
f 30 68 64
f 67 34 31
f 70 34 67
f 71 69 68
f 68 33 71
f 33 72 71
f 33 36 72
f 70 37 34
f 73 37 70
f 36 38 74
f 75 36 74
f 72 36 75
f 40 74 38
f 73 41 37
f 76 41 73
f 75 74 77
f 75 77 78
f 43 77 40
f 40 77 74
f 76 44 41
f 79 44 76
f 80 78 77
f 77 43 80
f 43 81 80
f 43 46 81
f 79 47 44
f 82 47 79
f 46 48 83
f 84 46 83
f 81 46 84
f 85 83 48
f 47 85 48
f 82 85 47
f 86 84 83
f 86 83 85
f 89 88 87
f 90 87 88
f 89 87 50
f 51 89 50
f 91 89 51
f 52 50 87
f 90 52 87
f 92 52 90
f 95 94 93
f 94 91 93
f 91 53 93
f 91 51 53
f 92 54 52
f 96 54 92
f 99 98 97
f 97 98 95
f 97 95 93
f 57 97 93
f 56 57 93
f 56 93 53
f 96 58 54
f 100 58 96
f 99 97 101
f 99 101 102
f 60 101 57
f 57 101 97
f 100 61 58
f 103 61 100
f 102 101 104
f 102 104 105
f 62 104 60
f 60 104 101
f 103 63 61
f 106 63 103
f 105 104 65
f 66 105 65
f 107 105 66
f 65 104 62
f 106 67 63
f 108 67 106
f 69 107 66
f 69 109 107
f 108 70 67
f 110 70 108
f 69 71 111
f 112 69 111
f 109 69 112
f 72 111 71
f 110 73 70
f 113 73 110
f 112 111 114
f 112 114 115
f 75 114 72
f 72 114 111
f 113 76 73
f 116 76 113
f 115 114 117
f 115 117 118
f 78 117 75
f 75 117 114
f 116 79 76
f 119 79 116
f 120 118 117
f 122 120 121
f 121 120 80
f 120 117 80
f 117 78 80
f 81 121 80
f 119 82 79
f 123 82 119
f 124 122 121
f 121 81 124
f 81 125 124
f 81 84 125
f 123 85 82
f 126 85 123
f 84 86 127
f 128 84 127
f 125 84 128
f 129 127 86
f 85 129 86
f 126 129 85
f 130 128 127
f 130 127 129
f 133 132 131
f 134 131 132
f 133 131 88
f 89 133 88
f 135 133 89
f 90 88 131
f 134 90 131
f 136 90 134
f 139 138 137
f 138 135 137
f 135 91 137
f 135 89 91
f 136 92 90
f 140 92 136
f 143 142 141
f 141 142 139
f 141 139 137
f 95 141 137
f 94 95 137
f 94 137 91
f 140 96 92
f 144 96 140
f 143 141 98
f 99 143 98
f 145 143 99
f 98 141 95
f 144 100 96
f 146 100 144
f 149 148 147
f 148 145 147
f 145 102 147
f 145 99 102
f 146 103 100
f 150 103 146
f 149 147 151
f 149 151 152
f 105 151 102
f 102 151 147
f 150 106 103
f 153 106 150
f 152 151 154
f 152 154 155
f 107 154 105
f 105 154 151
f 153 108 106
f 156 108 153
f 155 154 157
f 155 157 158
f 109 157 107
f 107 157 154
f 156 110 108
f 159 110 156
f 158 157 160
f 158 160 161
f 112 160 109
f 109 160 157
f 159 113 110
f 162 113 159
f 161 160 163
f 161 163 164
f 115 163 112
f 112 163 160
f 162 116 113
f 165 116 162
f 166 164 163
f 163 115 166
f 115 167 166
f 115 118 167
f 165 119 116
f 168 119 165
f 118 120 169
f 170 118 169
f 167 118 170
f 122 169 120
f 168 123 119
f 171 123 168
f 172 170 169
f 174 172 173
f 173 172 124
f 172 169 124
f 169 122 124
f 125 173 124
f 171 126 123
f 175 126 171
f 176 174 173
f 173 125 176
f 125 177 176
f 125 128 177
f 175 129 126
f 178 129 175
f 128 130 179
f 180 128 179
f 177 128 180
f 181 179 130
f 129 181 130
f 178 181 129
f 182 180 179
f 182 179 181
f 184 183 132
f 184 132 133
f 134 132 183
f 134 183 185
f 188 187 186
f 187 184 186
f 184 135 186
f 184 133 135
f 185 136 134
f 189 136 185
f 192 191 190
f 190 191 188
f 190 188 186
f 139 190 186
f 138 139 186
f 138 186 135
f 189 140 136
f 193 140 189
f 192 190 142
f 143 192 142
f 194 192 143
f 142 190 139
f 193 144 140
f 195 144 193
f 198 197 196
f 197 194 196
f 194 145 196
f 194 143 145
f 195 146 144
f 199 146 195
f 198 196 148
f 149 198 148
f 200 198 149
f 148 196 145
f 199 150 146
f 201 150 199
f 204 203 202
f 203 200 202
f 200 152 202
f 200 149 152
f 201 153 150
f 205 153 201
f 204 202 206
f 204 206 207
f 155 206 152
f 152 206 202
f 205 156 153
f 208 156 205
f 207 206 209
f 207 209 210
f 158 209 155
f 155 209 206
f 208 159 156
f 211 159 208
f 210 209 212
f 210 212 213
f 161 212 158
f 158 212 209
f 211 162 159
f 214 162 211
f 215 213 212
f 212 161 215
f 161 216 215
f 161 164 216
f 214 165 162
f 217 165 214
f 164 166 218
f 219 164 218
f 216 164 219
f 167 218 166
f 217 168 165
f 220 168 217
f 221 219 218
f 218 167 221
f 167 222 221
f 167 170 222
f 220 171 168
f 223 171 220
f 170 172 224
f 225 170 224
f 222 170 225
f 174 224 172
f 223 175 171
f 226 175 223
f 227 225 224
f 229 227 228
f 228 227 176
f 227 224 176
f 224 174 176
f 177 228 176
f 226 178 175
f 230 178 226
f 231 229 228
f 228 177 231
f 177 232 231
f 177 180 232
f 230 181 178
f 233 181 230
f 234 232 180
f 234 180 182
f 182 181 233
f 182 233 234
f 236 235 183
f 236 183 184
f 185 183 235
f 185 235 237
f 239 238 187
f 239 187 188
f 184 187 236
f 236 187 238
f 237 189 185
f 240 189 237
f 242 241 191
f 242 191 192
f 188 191 239
f 239 191 241
f 240 193 189
f 243 193 240
f 246 245 244
f 245 242 244
f 242 194 244
f 242 192 194
f 243 195 193
f 247 195 243
f 246 244 197
f 198 246 197
f 248 246 198
f 197 244 194
f 247 199 195
f 249 199 247
f 252 251 250
f 251 248 250
f 248 200 250
f 248 198 200
f 249 201 199
f 253 201 249
f 256 255 254
f 254 255 252
f 254 252 250
f 204 254 250
f 203 204 250
f 203 250 200
f 253 205 201
f 257 205 253
f 256 254 258
f 256 258 259
f 207 258 204
f 204 258 254
f 257 208 205
f 260 208 257
f 259 258 261
f 259 261 262
f 210 261 207
f 207 261 258
f 260 211 208
f 263 211 260
f 262 261 264
f 262 264 265
f 213 264 210
f 210 264 261
f 263 214 211
f 266 214 263
f 267 265 264
f 269 267 268
f 268 267 215
f 267 264 215
f 264 213 215
f 216 268 215
f 266 217 214
f 270 217 266
f 271 269 268
f 268 216 271
f 216 272 271
f 216 219 272
f 270 220 217
f 273 220 270
f 219 221 274
f 275 219 274
f 272 219 275
f 222 274 221
f 273 223 220
f 276 223 273
f 277 275 274
f 274 222 277
f 222 278 277
f 222 225 278
f 276 226 223
f 279 226 276
f 280 278 225
f 280 225 227
f 227 229 280
f 280 229 281
f 279 230 226
f 282 230 279
f 283 281 229
f 283 229 231
f 231 232 283
f 283 232 284
f 282 233 230
f 285 233 282
f 286 284 232
f 286 232 234
f 234 233 285
f 234 285 286
f 289 288 287
f 290 287 288
f 293 292 291
f 291 292 289
f 291 289 287
f 236 291 287
f 235 236 287
f 237 235 287
f 290 237 287
f 294 237 290
f 293 291 238
f 239 293 238
f 295 293 239
f 238 291 236
f 294 240 237
f 296 240 294
f 298 297 241
f 298 241 242
f 239 241 295
f 295 241 297
f 296 243 240
f 299 243 296
f 301 300 245
f 301 245 246
f 242 245 298
f 298 245 300
f 299 247 243
f 302 247 299
f 305 304 303
f 304 301 303
f 301 248 303
f 301 246 248
f 302 249 247
f 306 249 302
f 309 308 307
f 307 308 305
f 307 305 303
f 252 307 303
f 251 252 303
f 251 303 248
f 306 253 249
f 310 253 306
f 309 307 255
f 256 309 255
f 311 309 256
f 255 307 252
f 310 257 253
f 312 257 310
f 259 311 256
f 259 313 311
f 312 260 257
f 314 260 312
f 262 313 259
f 262 315 313
f 314 263 260
f 316 263 314
f 265 315 262
f 265 317 315
f 316 266 263
f 318 266 316
f 265 267 319
f 320 265 319
f 317 265 320
f 269 319 267
f 318 270 266
f 321 270 318
f 322 320 319
f 324 322 323
f 323 322 271
f 322 319 271
f 319 269 271
f 272 323 271
f 321 273 270
f 325 273 321
f 326 324 323
f 323 272 326
f 272 327 326
f 272 275 327
f 325 276 273
f 328 276 325
f 329 327 275
f 329 275 277
f 277 278 329
f 329 278 330
f 328 279 276
f 331 279 328
f 332 330 278
f 332 278 280
f 280 281 332
f 332 281 333
f 331 282 279
f 334 282 331
f 281 283 335
f 336 281 335
f 333 281 336
f 284 335 283
f 334 285 282
f 337 285 334
f 338 336 335
f 340 338 339
f 339 338 286
f 338 335 286
f 335 284 286
f 341 339 286
f 285 341 286
f 337 341 285
f 342 340 339
f 342 339 341
f 344 343 288
f 344 288 289
f 290 288 343
f 290 343 345
f 347 346 292
f 347 292 293
f 289 292 344
f 344 292 346
f 345 294 290
f 348 294 345
f 351 350 349
f 350 347 349
f 347 295 349
f 347 293 295
f 348 296 294
f 352 296 348
f 351 349 297
f 298 351 297
f 353 351 298
f 297 349 295
f 352 299 296
f 354 299 352
f 356 355 300
f 356 300 301
f 298 300 353
f 353 300 355
f 354 302 299
f 357 302 354
f 359 358 304
f 359 304 305
f 301 304 356
f 356 304 358
f 357 306 302
f 360 306 357
f 362 361 308
f 362 308 309
f 305 308 359
f 359 308 361
f 360 310 306
f 363 310 360
f 311 362 309
f 311 364 362
f 363 312 310
f 365 312 363
f 313 364 311
f 313 366 364
f 365 314 312
f 367 314 365
f 315 366 313
f 315 368 366
f 367 316 314
f 369 316 367
f 317 368 315
f 317 370 368
f 369 318 316
f 371 318 369
f 320 370 317
f 320 372 370
f 371 321 318
f 373 321 371
f 374 372 320
f 374 320 322
f 322 324 374
f 374 324 375
f 373 325 321
f 376 325 373
f 377 375 324
f 377 324 326
f 326 327 377
f 377 327 378
f 376 328 325
f 379 328 376
f 380 378 327
f 380 327 329
f 329 330 380
f 380 330 381
f 379 331 328
f 382 331 379
f 330 332 383
f 384 330 383
f 381 330 384
f 333 383 332
f 382 334 331
f 385 334 382
f 386 384 383
f 383 333 386
f 333 387 386
f 333 336 387
f 385 337 334
f 388 337 385
f 389 387 336
f 389 336 338
f 338 340 389
f 389 340 390
f 388 341 337
f 391 341 388
f 392 390 340
f 392 340 342
f 342 341 391
f 342 391 392
f 394 393 343
f 394 343 344
f 345 343 393
f 345 393 395
f 397 396 346
f 397 346 347
f 344 346 394
f 394 346 396
f 395 348 345
f 398 348 395
f 400 399 350
f 400 350 351
f 347 350 397
f 397 350 399
f 398 352 348
f 401 352 398
f 353 400 351
f 353 402 400
f 401 354 352
f 403 354 401
f 405 404 355
f 405 355 356
f 353 355 402
f 402 355 404
f 403 357 354
f 406 357 403
f 408 407 358
f 408 358 359
f 356 358 405
f 405 358 407
f 406 360 357
f 409 360 406
f 411 410 361
f 411 361 362
f 359 361 408
f 408 361 410
f 409 363 360
f 412 363 409
f 364 411 362
f 364 413 411
f 412 365 363
f 414 365 412
f 366 413 364
f 366 415 413
f 414 367 365
f 416 367 414
f 368 415 366
f 368 417 415
f 416 369 367
f 418 369 416
f 370 417 368
f 370 419 417
f 418 371 369
f 420 371 418
f 372 419 370
f 372 421 419
f 420 373 371
f 422 373 420
f 423 421 372
f 423 372 374
f 374 375 423
f 423 375 424
f 422 376 373
f 425 376 422
f 426 424 375
f 426 375 377
f 377 378 426
f 426 378 427
f 425 379 376
f 428 379 425
f 429 427 378
f 429 378 380
f 380 381 429
f 429 381 430
f 428 382 379
f 431 382 428
f 384 430 381
f 384 432 430
f 431 385 382
f 433 385 431
f 434 432 384
f 434 384 386
f 386 387 434
f 434 387 435
f 433 388 385
f 436 388 433
f 437 435 387
f 437 387 389
f 389 390 437
f 437 390 438
f 436 391 388
f 439 391 436
f 440 438 390
f 440 390 392
f 392 391 439
f 392 439 440
f 442 441 393
f 442 393 394
f 395 393 441
f 395 441 443
f 445 444 396
f 445 396 397
f 394 396 442
f 442 396 444
f 443 398 395
f 446 398 443
f 400 447 399
f 447 448 399
f 448 397 399
f 448 445 397
f 446 401 398
f 449 401 446
f 451 450 447
f 400 451 447
f 402 451 400
f 447 450 448
f 449 403 401
f 452 403 449
f 454 453 404
f 454 404 405
f 402 404 451
f 451 404 453
f 452 406 403
f 455 406 452
f 457 456 407
f 457 407 408
f 405 407 454
f 454 407 456
f 455 409 406
f 458 409 455
f 460 459 410
f 460 410 411
f 408 410 457
f 457 410 459
f 458 412 409
f 461 412 458
f 413 460 411
f 413 462 460
f 461 414 412
f 463 414 461
f 415 462 413
f 415 464 462
f 463 416 414
f 465 416 463
f 417 464 415
f 417 466 464
f 465 418 416
f 467 418 465
f 419 466 417
f 419 468 466
f 467 420 418
f 469 420 467
f 421 468 419
f 421 470 468
f 469 422 420
f 471 422 469
f 472 470 421
f 472 421 423
f 423 424 472
f 472 424 473
f 471 425 422
f 474 425 471
f 475 473 424
f 475 424 426
f 426 427 475
f 475 427 476
f 474 428 425
f 477 428 474
f 478 476 427
f 478 427 429
f 429 430 478
f 478 430 479
f 477 431 428
f 480 431 477
f 432 482 481
f 479 432 481
f 430 432 479
f 482 483 481
f 480 433 431
f 484 433 480
f 434 482 432
f 434 435 482
f 435 483 482
f 435 485 483
f 484 436 433
f 486 436 484
f 487 485 435
f 487 435 437
f 437 438 487
f 487 438 488
f 486 439 436
f 489 439 486
f 490 488 438
f 490 438 440
f 440 439 489
f 440 489 490
f 442 491 441
f 491 443 441
f 445 492 444
f 492 493 444
f 444 493 442
f 493 494 442
f 494 491 442
f 443 491 494
f 495 443 494
f 446 443 495
f 497 496 492
f 445 497 492
f 448 497 445
f 492 496 493
f 495 449 446
f 498 449 495
f 500 499 450
f 500 450 451
f 448 450 497
f 497 450 499
f 498 452 449
f 501 452 498
f 503 502 453
f 503 453 454
f 451 453 500
f 500 453 502
f 501 455 452
f 504 455 501
f 457 505 456
f 505 506 456
f 506 454 456
f 506 503 454
f 504 458 455
f 507 458 504
f 460 508 459
f 508 509 459
f 459 509 457
f 509 510 457
f 510 505 457
f 505 510 506
f 507 461 458
f 511 461 507
f 513 512 508
f 460 513 508
f 462 513 460
f 508 512 509
f 511 463 461
f 514 463 511
f 464 513 462
f 464 515 513
f 514 465 463
f 516 465 514
f 466 515 464
f 466 517 515
f 516 467 465
f 518 467 516
f 468 517 466
f 468 519 517
f 518 469 467
f 520 469 518
f 470 522 521
f 519 470 521
f 468 470 519
f 522 523 521
f 520 471 469
f 524 471 520
f 472 522 470
f 526 525 473
f 473 525 472
f 525 523 472
f 523 522 472
f 526 527 525
f 524 474 471
f 528 474 524
f 475 526 473
f 475 476 526
f 476 527 526
f 476 529 527
f 528 477 474
f 530 477 528
f 531 529 476
f 531 476 478
f 478 479 531
f 531 479 532
f 530 480 477
f 533 480 530
f 534 532 479
f 534 479 481
f 481 483 534
f 534 483 535
f 533 484 480
f 536 484 533
f 485 538 537
f 535 485 537
f 483 485 535
f 538 539 537
f 536 486 484
f 540 486 536
f 487 538 485
f 542 541 488
f 488 541 487
f 541 539 487
f 539 538 487
f 540 541 542
f 489 540 542
f 486 540 489
f 490 542 488
f 542 490 489
f 544 543 494
f 544 494 493
f 495 494 543
f 495 543 545
f 547 546 496
f 547 496 497
f 493 496 544
f 544 496 546
f 545 498 495
f 548 498 545
f 550 549 499
f 550 499 500
f 497 499 547
f 547 499 549
f 548 501 498
f 551 501 548
f 503 552 502
f 552 553 502
f 553 500 502
f 553 550 500
f 551 504 501
f 554 504 551
f 556 555 552
f 503 556 552
f 506 556 503
f 552 555 553
f 554 507 504
f 557 507 554
f 509 558 510
f 558 559 510
f 559 506 510
f 559 556 506
f 557 511 507
f 560 511 557
f 513 561 512
f 561 562 512
f 512 562 509
f 562 563 509
f 563 558 509
f 558 563 559
f 560 514 511
f 564 514 560
f 515 565 561
f 515 561 513
f 562 561 566
f 566 561 565
f 564 516 514
f 567 516 564
f 517 568 565
f 517 565 515
f 566 565 569
f 569 565 568
f 567 518 516
f 570 518 567
f 519 571 568
f 519 568 517
f 569 568 572
f 572 568 571
f 570 520 518
f 573 520 570
f 521 571 519
f 575 574 523
f 523 574 521
f 574 572 521
f 572 571 521
f 575 576 574
f 573 524 520
f 577 524 573
f 525 575 523
f 525 527 575
f 527 576 575
f 527 578 576
f 577 528 524
f 579 528 577
f 529 581 580
f 578 529 580
f 527 529 578
f 581 582 580
f 579 530 528
f 583 530 579
f 531 581 529
f 531 532 581
f 532 582 581
f 532 584 582
f 583 533 530
f 585 533 583
f 586 584 532
f 586 532 534
f 534 535 586
f 586 535 587
f 585 536 533
f 588 536 585
f 589 587 535
f 589 535 537
f 537 539 589
f 589 539 590
f 588 540 536
f 591 540 588
f 592 590 539
f 592 539 541
f 541 540 591
f 541 591 592
f 594 593 543
f 594 543 544
f 545 543 593
f 545 593 595
f 547 596 546
f 596 597 546
f 597 544 546
f 597 594 544
f 595 548 545
f 598 548 595
f 550 599 549
f 599 600 549
f 549 600 547
f 600 601 547
f 601 596 547
f 596 601 597
f 598 551 548
f 602 551 598
f 604 603 599
f 550 604 599
f 553 604 550
f 599 603 600
f 602 554 551
f 605 554 602
f 556 606 555
f 606 607 555
f 607 553 555
f 607 604 553
f 605 557 554
f 608 557 605
f 610 609 606
f 556 610 606
f 559 610 556
f 606 609 607
f 608 560 557
f 611 560 608
f 562 612 563
f 612 613 563
f 613 559 563
f 613 610 559
f 611 564 560
f 614 564 611
f 566 615 612
f 566 612 562
f 613 612 616
f 616 612 615
f 614 567 564
f 617 567 614
f 569 618 615
f 569 615 566
f 616 615 619
f 619 615 618
f 617 570 567
f 620 570 617
f 572 621 618
f 572 618 569
f 619 618 622
f 622 618 621
f 620 573 570
f 623 573 620
f 574 621 572
f 574 576 621
f 576 622 621
f 576 624 622
f 623 577 573
f 625 577 623
f 578 627 626
f 624 578 626
f 576 578 624
f 627 628 626
f 625 579 577
f 629 579 625
f 580 627 578
f 580 582 627
f 582 628 627
f 582 630 628
f 629 583 579
f 631 583 629
f 584 633 632
f 630 584 632
f 582 584 630
f 633 634 632
f 631 585 583
f 635 585 631
f 586 633 584
f 637 636 587
f 587 636 586
f 636 634 586
f 634 633 586
f 637 638 636
f 635 588 585
f 639 588 635
f 589 637 587
f 589 590 637
f 590 638 637
f 590 640 638
f 639 591 588
f 641 591 639
f 642 640 590
f 642 590 592
f 592 591 641
f 592 641 642
f 594 643 593
f 643 595 593
f 645 644 643
f 594 645 643
f 597 645 594
f 595 643 644
f 646 595 644
f 598 595 646
f 600 647 601
f 647 648 601
f 648 597 601
f 648 645 597
f 646 602 598
f 649 602 646
f 604 650 603
f 650 651 603
f 603 651 600
f 651 652 600
f 652 647 600
f 647 652 648
f 649 605 602
f 653 605 649
f 655 654 650
f 604 655 650
f 607 655 604
f 650 654 651
f 653 608 605
f 656 608 653
f 610 657 609
f 657 658 609
f 658 607 609
f 658 655 607
f 656 611 608
f 659 611 656
f 613 660 657
f 613 657 610
f 658 657 661
f 661 657 660
f 659 614 611
f 662 614 659
f 616 663 660
f 616 660 613
f 661 660 664
f 664 660 663
f 662 617 614
f 665 617 662
f 619 666 663
f 619 663 616
f 664 663 667
f 667 663 666
f 665 620 617
f 668 620 665
f 622 669 666
f 622 666 619
f 667 666 670
f 670 666 669
f 668 623 620
f 671 623 668
f 624 672 669
f 624 669 622
f 670 669 673
f 673 669 672
f 671 625 623
f 674 625 671
f 626 672 624
f 626 628 672
f 628 673 672
f 628 675 673
f 674 629 625
f 676 629 674
f 630 678 677
f 675 630 677
f 628 630 675
f 678 679 677
f 676 631 629
f 680 631 676
f 632 678 630
f 682 681 634
f 634 681 632
f 681 679 632
f 679 678 632
f 682 683 681
f 680 635 631
f 684 635 680
f 636 682 634
f 636 638 682
f 638 683 682
f 638 685 683
f 684 639 635
f 686 639 684
f 640 688 687
f 685 640 687
f 638 640 685
f 686 687 688
f 641 686 688
f 639 686 641
f 642 688 640
f 688 642 641
f 645 689 644
f 689 646 644
f 691 690 689
f 645 691 689
f 648 691 645
f 646 689 690
f 692 646 690
f 649 646 692
f 651 693 652
f 693 694 652
f 694 648 652
f 694 691 648
f 692 653 649
f 695 653 692
f 655 696 654
f 696 697 654
f 654 697 651
f 697 698 651
f 698 693 651
f 693 698 694
f 695 656 653
f 699 656 695
f 658 700 696
f 658 696 655
f 697 696 701
f 701 696 700
f 699 659 656
f 702 659 699
f 661 703 700
f 661 700 658
f 701 700 704
f 704 700 703
f 702 662 659
f 705 662 702
f 707 706 703
f 661 707 703
f 664 707 661
f 703 706 704
f 705 665 662
f 708 665 705
f 667 707 664
f 667 709 707
f 708 668 665
f 710 668 708
f 670 712 711
f 709 670 711
f 667 670 709
f 712 713 711
f 710 671 668
f 714 671 710
f 673 715 712
f 673 712 670
f 713 712 716
f 716 712 715
f 714 674 671
f 717 674 714
f 675 718 715
f 675 715 673
f 716 715 719
f 719 715 718
f 717 676 674
f 720 676 717
f 677 718 675
f 722 721 679
f 679 721 677
f 721 719 677
f 719 718 677
f 722 723 721
f 720 680 676
f 724 680 720
f 681 722 679
f 681 683 722
f 683 723 722
f 683 725 723
f 724 684 680
f 726 684 724
f 685 728 727
f 725 685 727
f 683 685 725
f 726 727 728
f 686 726 728
f 684 726 686
f 687 728 685
f 728 687 686
f 691 729 690
f 729 692 690
f 731 730 729
f 691 731 729
f 694 731 691
f 692 729 730
f 732 692 730
f 695 692 732
f 697 733 698
f 733 734 698
f 734 694 698
f 734 731 694
f 732 699 695
f 735 699 732
f 701 736 733
f 701 733 697
f 734 733 737
f 737 733 736
f 735 702 699
f 738 702 735
f 740 739 736
f 701 740 736
f 704 740 701
f 736 739 737
f 738 705 702
f 741 705 738
f 707 742 706
f 742 743 706
f 743 704 706
f 743 740 704
f 741 708 705
f 744 708 741
f 709 745 742
f 709 742 707
f 743 742 746
f 746 742 745
f 744 710 708
f 747 710 744
f 711 745 709
f 711 713 745
f 713 746 745
f 713 748 746
f 747 714 710
f 749 714 747
f 716 751 750
f 748 716 750
f 713 716 748
f 751 752 750
f 749 717 714
f 753 717 749
f 719 754 751
f 719 751 716
f 752 751 755
f 755 751 754
f 753 720 717
f 756 720 753
f 721 754 719
f 721 723 754
f 723 755 754
f 723 757 755
f 756 724 720
f 758 724 756
f 725 760 759
f 757 725 759
f 723 725 757
f 758 759 760
f 726 758 760
f 724 758 726
f 727 760 725
f 760 727 726
f 731 761 730
f 761 732 730
f 734 762 761
f 734 761 731
f 762 735 732
f 762 732 761
f 737 763 762
f 737 762 734
f 763 738 735
f 763 735 762
f 740 764 739
f 764 765 739
f 739 765 737
f 765 766 737
f 766 763 737
f 738 763 766
f 767 738 766
f 741 738 767
f 743 768 764
f 743 764 740
f 765 764 769
f 769 764 768
f 767 744 741
f 770 744 767
f 746 771 768
f 746 768 743
f 769 768 772
f 772 768 771
f 770 747 744
f 773 747 770
f 748 774 771
f 748 771 746
f 772 771 775
f 775 771 774
f 773 749 747
f 776 749 773
f 750 774 748
f 778 777 752
f 752 777 750
f 777 775 750
f 775 774 750
f 776 777 778
f 753 776 778
f 749 776 753
f 755 779 778
f 755 778 752
f 779 756 753
f 779 753 778
f 757 780 779
f 757 779 755
f 780 758 756
f 780 756 779
f 759 780 757
f 780 759 758
f 765 781 766
f 781 767 766
f 769 782 781
f 769 781 765
f 782 770 767
f 782 767 781
f 772 783 782
f 772 782 769
f 783 773 770
f 783 770 782
f 775 784 783
f 775 783 772
f 784 776 773
f 784 773 783
f 777 784 775
f 784 777 776
