v 3.8147153854370117 8.0 14.0
v 4.0 7.638891220092773 14.0
v 4.0 8.0 13.900077819824219
v 4.0 8.0 14.787521362304688
v 3.4501545429229736 9.0 14.0
v 4.0 9.0 13.696105003356934
v 4.0 9.0 14.916943550109863
v 3.268094062805176 10.0 14.0
v 4.0 10.0 13.640528678894043
v 4.0 10.0 14.916943550109863
v 3.1193628311157227 11.0 14.0
v 4.0 11.0 13.603327751159668
v 4.0 11.0 14.916943550109863
v 3.1193628311157227 12.0 14.0
v 4.0 12.0 13.603327751159668
v 4.0 12.0 14.916943550109863
v 3.268094062805176 13.0 14.0
v 4.0 13.0 13.640528678894043
v 4.0 13.0 14.916943550109863
v 3.4501545429229736 14.0 14.0
v 4.0 14.0 13.696105003356934
v 4.0 14.0 14.916943550109863
v 3.8147153854370117 15.0 14.0
v 4.0 15.0 13.900077819824219
v 4.0 15.0 14.787521362304688
v 4.0 15.361108779907227 14.0
v 4.372636795043945 7.0 14.0
v 5.0 6.119362831115723 14.0
v 5.0 7.0 13.696105003356934
v 5.0 7.0 14.916943550109863
v 5.0 8.0 13.556622505187988
v 5.0 8.0 14.916943550109863
v 5.0 9.0 13.299756050109863
v 5.0 9.0 14.916943550109863
v 4.921270847320557 10.0 13.0
v 5.0 9.737616539001465 13.0
v 5.0 10.0 12.942347526550293
v 5.0 10.0 14.916943550109863
v 4.770811557769775 11.0 13.0
v 5.0 11.0 12.828777313232422
v 5.0 11.0 14.916943550109863
v 4.770811557769775 12.0 13.0
v 5.0 12.0 12.828777313232422
v 5.0 12.0 14.916943550109863
v 4.921270847320557 13.0 13.0
v 5.0 13.0 12.942347526550293
v 5.0 13.0 14.916943550109863
v 5.0 13.262383460998535 13.0
v 5.0 14.0 13.299756050109863
v 5.0 14.0 14.916943550109863
v 5.0 15.0 13.556622505187988
v 5.0 15.0 14.916943550109863
v 4.372636795043945 16.0 14.0
v 5.0 16.0 13.696105003356934
v 5.0 16.0 14.916943550109863
v 5.0 16.88063621520996 14.0
v 5.119362831115723 6.0 14.0
v 6.0 5.119362831115723 14.0
v 6.0 6.0 13.670872688293457
v 6.0 6.0 14.916943550109863
v 6.0 7.0 13.414953231811523
v 6.0 7.0 14.916943550109863
v 5.735170841217041 8.0 13.0
v 6.0 7.610644817352295 13.0
v 6.0 8.0 12.828777313232422
v 6.0 8.0 14.916943550109863
v 5.299755573272705 9.0 13.0
v 6.0 9.0 12.554368019104004
v 6.0 9.0 14.916943550109863
v 6.0 10.0 12.363105773925781
v 6.0 10.0 14.916943550109863
v 6.0 11.0 12.178711891174316
v 6.0 11.0 14.916943550109863
v 6.0 12.0 12.178711891174316
v 6.0 12.0 14.916943550109863
v 6.0 13.0 12.363105773925781
v 6.0 13.0 14.916943550109863
v 5.299755573272705 14.0 13.0
v 6.0 14.0 12.554368019104004
v 6.0 14.0 14.916943550109863
v 5.735170841217041 15.0 13.0
v 6.0 15.0 12.828777313232422
v 6.0 15.0 14.916943550109863
v 6.0 15.389354705810547 13.0
v 6.0 16.0 13.414953231811523
v 6.0 16.0 14.916943550109863
v 5.119362831115723 17.0 14.0
v 6.0 17.0 13.670872688293457
v 6.0 17.0 14.916943550109863
v 6.0 17.88063621520996 14.0
v 6.119362831115723 5.0 14.0
v 7.0 4.372636795043945 14.0
v 7.0 5.0 13.696105003356934
v 7.0 5.0 14.916943550109863
v 7.0 6.0 13.414953231811523
v 7.0 6.0 14.916943550109863
v 6.482950210571289 7.0 13.0
v 7.0 6.482950210571289 13.0
v 7.0 7.0 12.712501525878906
v 7.0 7.0 14.916943550109863
v 7.0 8.0 12.363105773925781
v 7.0 8.0 14.916943550109863
v 6.703628063201904 9.0 12.0
v 7.0 8.521084785461426 12.0
v 7.0 9.0 11.747637748718262
v 7.0 9.0 14.916943550109863
v 6.363105773925781 10.0 12.0
v 7.0 10.0 11.429327964782715
v 7.0 10.0 14.916943550109863
v 6.178711891174316 11.0 12.0
v 7.0 11.0 11.245601654052734
v 7.0 11.0 14.916943550109863
v 6.178711891174316 12.0 12.0
v 7.0 12.0 11.245601654052734
v 7.0 12.0 14.916943550109863
v 6.363105773925781 13.0 12.0
v 7.0 13.0 11.429327964782715
v 7.0 13.0 14.916943550109863
v 6.703628063201904 14.0 12.0
v 7.0 14.0 11.747637748718262
v 7.0 14.0 14.916943550109863
v 7.0 14.478915214538574 12.0
v 7.0 15.0 12.363105773925781
v 7.0 15.0 14.916943550109863
v 6.482950210571289 16.0 13.0
v 7.0 16.0 12.712501525878906
v 7.0 16.0 14.916943550109863
v 7.0 16.51704978942871 13.0
v 7.0 17.0 13.414953231811523
v 7.0 17.0 14.916943550109863
v 6.119362831115723 18.0 14.0
v 7.0 18.0 13.696105003356934
v 7.0 18.0 14.916943550109863
v 7.0 18.627363204956055 14.0
v 7.638891220092773 4.0 14.0
v 8.0 3.8147153854370117 14.0
v 8.0 4.0 13.900077819824219
v 8.0 4.0 14.787521362304688
v 8.0 5.0 13.556622505187988
v 8.0 5.0 14.916943550109863
v 7.610644817352295 6.0 13.0
v 8.0 5.735170841217041 13.0
v 8.0 6.0 12.828777313232422
v 8.0 6.0 14.916943550109863
v 8.0 7.0 12.363105773925781
v 8.0 7.0 14.916943550109863
v 7.383677959442139 8.0 12.0
v 8.0 7.383677959442139 12.0
v 8.0 8.0 11.55892276763916
v 8.0 8.0 14.916943550109863
v 7.926816463470459 9.0 11.0
v 8.0 8.904467582702637 11.0
v 8.0 9.0 10.92490291595459
v 8.0 9.0 14.916943550109863
v 7.429327487945557 10.0 11.0
v 8.0 10.0 10.348031997680664
v 8.0 10.0 14.916943550109863
v 7.997469425201416 11.0 10.0
v 8.0 10.9907808303833 10.0
v 8.0 11.0 9.996129035949707
v 7.245602130889893 11.0 11.0
v 8.0 11.0 14.916943550109863
v 7.997469425201416 12.0 10.0
v 8.0 12.0 9.996129035949707
v 7.245602130889893 12.0 11.0
v 8.0 12.0 14.916943550109863
v 8.0 12.0092191696167 10.0
v 8.0 13.0 10.348031997680664
v 7.429327487945557 13.0 11.0
v 8.0 13.0 14.916943550109863
v 7.926816463470459 14.0 11.0
v 8.0 14.0 10.92490291595459
v 8.0 14.0 14.916943550109863
v 8.0 14.095532417297363 11.0
v 7.383677959442139 15.0 12.0
v 8.0 15.0 11.55892276763916
v 8.0 15.0 14.916943550109863
v 8.0 15.616321563720703 12.0
v 8.0 16.0 12.363105773925781
v 8.0 16.0 14.916943550109863
v 7.610644817352295 17.0 13.0
v 8.0 17.0 12.828777313232422
v 8.0 17.0 14.916943550109863
v 8.0 17.264829635620117 13.0
v 8.0 18.0 13.556622505187988
v 8.0 18.0 14.916943550109863
v 7.638891220092773 19.0 14.0
v 8.0 19.0 13.900077819824219
v 8.0 19.0 14.787521362304688
v 8.0 19.185283660888672 14.0
v 9.0 3.4501545429229736 14.0
v 9.0 4.0 13.696105003356934
v 9.0 4.0 14.916943550109863
v 9.0 5.0 13.299756050109863
v 9.0 5.0 14.916943550109863
v 9.0 5.299755573272705 13.0
v 9.0 6.0 12.554368019104004
v 9.0 6.0 14.916943550109863
v 8.521084785461426 7.0 12.0
v 9.0 6.703628063201904 12.0
v 9.0 7.0 11.747637748718262
v 9.0 7.0 14.916943550109863
v 8.904467582702637 8.0 11.0
v 9.0 7.926816463470459 11.0
v 9.0 8.0 10.92490291595459
v 9.0 8.0 14.916943550109863
v 8.996720314025879 9.0 10.0
v 9.0 8.996720314025879 10.0
v 9.0 9.0 9.996129035949707
v 9.0 9.0 14.916943550109863
v 8.348031997680664 10.0 10.0
v 9.0 10.0 9.048991203308105
v 9.0 10.0 14.916943550109863
v 8.655256271362305 11.0 9.0
v 9.0 10.071154594421387 9.0
v 9.0 11.0 8.118708610534668
v 9.0 11.0 14.916943550109863
v 8.655256271362305 12.0 9.0
v 9.0 12.0 8.118708610534668
v 9.0 12.0 14.916943550109863
v 9.0 12.928845405578613 9.0
v 8.348031997680664 13.0 10.0
v 9.0 13.0 9.048991203308105
v 9.0 13.0 14.916943550109863
v 8.996720314025879 14.0 10.0
v 9.0 14.0 9.996129035949707
v 9.0 14.0 14.916943550109863
v 9.0 14.003279685974121 10.0
v 8.904467582702637 15.0 11.0
v 9.0 15.0 10.92490291595459
v 9.0 15.0 14.916943550109863
v 9.0 15.073183059692383 11.0
v 8.521084785461426 16.0 12.0
v 9.0 16.0 11.747637748718262
v 9.0 16.0 14.916943550109863
v 9.0 16.296371459960938 12.0
v 9.0 17.0 12.554368019104004
v 9.0 17.0 14.916943550109863
v 9.0 17.700244903564453 13.0
v 9.0 18.0 13.299756050109863
v 9.0 18.0 14.916943550109863
v 9.0 19.0 13.696105003356934
v 9.0 19.0 14.916943550109863
v 9.0 19.54984474182129 14.0
v 10.0 3.268094062805176 14.0
v 10.0 4.0 13.640528678894043
v 10.0 4.0 14.916943550109863
v 9.737616539001465 5.0 13.0
v 10.0 4.921270847320557 13.0
v 10.0 5.0 12.942347526550293
v 10.0 5.0 14.916943550109863
v 10.0 6.0 12.363105773925781
v 10.0 6.0 14.916943550109863
v 10.0 6.363105773925781 12.0
v 10.0 7.0 11.429327964782715
v 10.0 7.0 14.916943550109863
v 10.0 7.429327487945557 11.0
v 10.0 8.0 10.348031997680664
v 10.0 8.0 14.916943550109863
v 10.0 8.348031997680664 10.0
v 10.0 9.0 9.048991203308105
v 10.0 9.0 14.916943550109863
v 9.048991203308105 10.0 9.0
v 10.0 9.048991203308105 9.0
v 10.0 10.0 8.083056449890137
v 10.0 10.0 14.916943550109863
v 10.0 11.0 8.083056449890137
v 10.0 11.0 14.916943550109863
v 10.0 12.0 8.083056449890137
v 10.0 12.0 14.916943550109863
v 9.048991203308105 13.0 9.0
v 10.0 13.0 8.083056449890137
v 10.0 13.0 14.916943550109863
v 10.0 13.951008796691895 9.0
v 10.0 14.0 9.048991203308105
v 10.0 14.0 14.916943550109863
v 10.0 14.651968002319336 10.0
v 10.0 15.0 10.348031997680664
v 10.0 15.0 14.916943550109863
v 10.0 15.570672035217285 11.0
v 10.0 16.0 11.429327964782715
v 10.0 16.0 14.916943550109863
v 10.0 16.63689422607422 12.0
v 10.0 17.0 12.363105773925781
v 10.0 17.0 14.916943550109863
v 9.737616539001465 18.0 13.0
v 10.0 18.0 12.942347526550293
v 10.0 18.0 14.916943550109863
v 10.0 18.0787296295166 13.0
v 10.0 19.0 13.640528678894043
v 10.0 19.0 14.916943550109863
v 10.0 19.731904983520508 14.0
v 11.0 3.1193628311157227 14.0
v 11.0 4.0 13.603327751159668
v 11.0 4.0 14.916943550109863
v 11.0 4.770811557769775 13.0
v 11.0 5.0 12.828777313232422
v 11.0 5.0 14.916943550109863
v 11.0 6.0 12.178711891174316
v 11.0 6.0 14.916943550109863
v 11.0 6.178711891174316 12.0
v 11.0 7.0 11.245601654052734
v 11.0 7.0 14.916943550109863
v 10.9907808303833 8.0 10.0
v 11.0 7.997469425201416 10.0
v 11.0 8.0 9.996129035949707
v 11.0 7.245602130889893 11.0
v 11.0 8.0 14.916943550109863
v 10.071154594421387 9.0 9.0
v 11.0 8.655256271362305 9.0
v 11.0 9.0 8.118708610534668
v 11.0 9.0 14.916943550109863
v 11.0 10.0 8.083056449890137
v 11.0 10.0 14.916943550109863
v 11.0 11.0 8.083056449890137
v 11.0 11.0 14.916943550109863
v 11.0 12.0 8.083056449890137
v 11.0 12.0 14.916943550109863
v 11.0 13.0 8.083056449890137
v 11.0 13.0 14.916943550109863
v 10.071154594421387 14.0 9.0
v 11.0 14.0 8.118708610534668
v 11.0 14.0 14.916943550109863
v 11.0 14.344743728637695 9.0
v 10.9907808303833 15.0 10.0
v 11.0 15.0 9.996129035949707
v 11.0 15.0 14.916943550109863
v 11.0 15.002531051635742 10.0
v 11.0 15.754398345947266 11.0
v 11.0 16.0 11.245601654052734
v 11.0 16.0 14.916943550109863
v 11.0 16.8212890625 12.0
v 11.0 17.0 12.178711891174316
v 11.0 17.0 14.916943550109863
v 11.0 18.0 12.828777313232422
v 11.0 18.0 14.916943550109863
v 11.0 18.229188919067383 13.0
v 11.0 19.0 13.603327751159668
v 11.0 19.0 14.916943550109863
v 11.0 19.88063621520996 14.0
v 12.0 3.1193628311157227 14.0
v 12.0 4.0 13.603327751159668
v 12.0 4.0 14.916943550109863
v 12.0 4.770811557769775 13.0
v 12.0 5.0 12.828777313232422
v 12.0 5.0 14.916943550109863
v 12.0 6.0 12.178711891174316
v 12.0 6.0 14.916943550109863
v 12.0 6.178711891174316 12.0
v 12.0 7.0 11.245601654052734
v 12.0 7.0 14.916943550109863
v 12.0 7.997469425201416 10.0
v 12.0 8.0 9.996129035949707
v 12.0 7.245602130889893 11.0
v 12.0 8.0 14.916943550109863
v 12.0 8.655256271362305 9.0
v 12.0 9.0 8.118708610534668
v 12.0 9.0 14.916943550109863
v 12.0 10.0 8.083056449890137
v 12.0 10.0 14.916943550109863
v 12.0 11.0 8.083056449890137
v 12.0 11.0 14.916943550109863
v 12.0 12.0 8.083056449890137
v 12.0 12.0 14.916943550109863
v 12.0 13.0 8.083056449890137
v 12.0 13.0 14.916943550109863
v 12.0 14.0 8.118708610534668
v 12.0 14.0 14.916943550109863
v 12.0 14.344743728637695 9.0
v 12.0 15.0 9.996129035949707
v 12.0 15.0 14.916943550109863
v 12.0 15.002531051635742 10.0
v 12.0 15.754398345947266 11.0
v 12.0 16.0 11.245601654052734
v 12.0 16.0 14.916943550109863
v 12.0 16.8212890625 12.0
v 12.0 17.0 12.178711891174316
v 12.0 17.0 14.916943550109863
v 12.0 18.0 12.828777313232422
v 12.0 18.0 14.916943550109863
v 12.0 18.229188919067383 13.0
v 12.0 19.0 13.603327751159668
v 12.0 19.0 14.916943550109863
v 12.0 19.88063621520996 14.0
v 13.0 3.268094062805176 14.0
v 13.0 4.0 13.640528678894043
v 13.0 4.0 14.916943550109863
v 13.0 4.921270847320557 13.0
v 13.0 5.0 12.942347526550293
v 13.0 5.0 14.916943550109863
v 13.0 6.0 12.363105773925781
v 13.0 6.0 14.916943550109863
v 13.0 6.363105773925781 12.0
v 13.0 7.0 11.429327964782715
v 13.0 7.0 14.916943550109863
v 12.0092191696167 8.0 10.0
v 13.0 8.0 10.348031997680664
v 13.0 7.429327487945557 11.0
v 13.0 8.0 14.916943550109863
v 12.928845405578613 9.0 9.0
v 13.0 9.0 9.048991203308105
v 13.0 8.348031997680664 10.0
v 13.0 9.0 14.916943550109863
v 13.0 9.048991203308105 9.0
v 13.0 10.0 8.083056449890137
v 13.0 10.0 14.916943550109863
v 13.0 11.0 8.083056449890137
v 13.0 11.0 14.916943550109863
v 13.0 12.0 8.083056449890137
v 13.0 12.0 14.916943550109863
v 13.0 13.0 8.083056449890137
v 13.0 13.0 14.916943550109863
v 13.0 13.951008796691895 9.0
v 12.928845405578613 14.0 9.0
v 13.0 14.0 9.048991203308105
v 13.0 14.0 14.916943550109863
v 13.0 14.651968002319336 10.0
v 12.0092191696167 15.0 10.0
v 13.0 15.0 10.348031997680664
v 13.0 15.0 14.916943550109863
v 13.0 15.570672035217285 11.0
v 13.0 16.0 11.429327964782715
v 13.0 16.0 14.916943550109863
v 13.0 16.63689422607422 12.0
v 13.0 17.0 12.363105773925781
v 13.0 17.0 14.916943550109863
v 13.0 18.0 12.942347526550293
v 13.0 18.0 14.916943550109863
v 13.0 18.0787296295166 13.0
v 13.0 19.0 13.640528678894043
v 13.0 19.0 14.916943550109863
v 13.0 19.731904983520508 14.0
v 14.0 3.4501545429229736 14.0
v 14.0 4.0 13.696105003356934
v 14.0 4.0 14.916943550109863
v 13.262383460998535 5.0 13.0
v 14.0 5.0 13.299756050109863
v 14.0 5.0 14.916943550109863
v 14.0 5.299755573272705 13.0
v 14.0 6.0 12.554368019104004
v 14.0 6.0 14.916943550109863
v 14.0 6.703628063201904 12.0
v 14.0 7.0 11.747637748718262
v 14.0 7.0 14.916943550109863
v 14.0 7.926816463470459 11.0
v 14.0 8.0 10.92490291595459
v 14.0 8.0 14.916943550109863
v 14.0 8.996720314025879 10.0
v 14.0 9.0 9.996129035949707
v 14.0 9.0 14.916943550109863
v 13.951008796691895 10.0 9.0
v 14.0 10.0 9.048991203308105
v 14.0 10.0 14.916943550109863
v 14.0 10.071154594421387 9.0
v 14.0 11.0 8.118708610534668
v 14.0 11.0 14.916943550109863
v 14.0 12.0 8.118708610534668
v 14.0 12.0 14.916943550109863
v 14.0 12.928845405578613 9.0
v 13.951008796691895 13.0 9.0
v 14.0 13.0 9.048991203308105
v 14.0 13.0 14.916943550109863
v 14.0 14.0 9.996129035949707
v 14.0 14.0 14.916943550109863
v 14.0 14.003279685974121 10.0
v 14.0 15.0 10.92490291595459
v 14.0 15.0 14.916943550109863
v 14.0 15.073183059692383 11.0
v 14.0 16.0 11.747637748718262
v 14.0 16.0 14.916943550109863
v 14.0 16.296371459960938 12.0
v 14.0 17.0 12.554368019104004
v 14.0 17.0 14.916943550109863
v 14.0 17.700244903564453 13.0
v 13.262383460998535 18.0 13.0
v 14.0 18.0 13.299756050109863
v 14.0 18.0 14.916943550109863
v 14.0 19.0 13.696105003356934
v 14.0 19.0 14.916943550109863
v 14.0 19.54984474182129 14.0
v 15.0 3.8147153854370117 14.0
v 15.0 4.0 13.900077819824219
v 15.0 4.0 14.787521362304688
v 15.0 5.0 13.556622505187988
v 15.0 5.0 14.916943550109863
v 15.0 5.735170841217041 13.0
v 15.0 6.0 12.828777313232422
v 15.0 6.0 14.916943550109863
v 14.478915214538574 7.0 12.0
v 15.0 7.0 12.363105773925781
v 15.0 7.0 14.916943550109863
v 14.095532417297363 8.0 11.0
v 15.0 8.0 11.55892276763916
v 15.0 7.383677959442139 12.0
v 15.0 8.0 14.916943550109863
v 14.003279685974121 9.0 10.0
v 15.0 9.0 10.92490291595459
v 15.0 8.904467582702637 11.0
v 15.0 9.0 14.916943550109863
v 14.651968002319336 10.0 10.0
v 15.0 10.0 10.348031997680664
v 15.0 10.0 14.916943550109863
v 14.344743728637695 11.0 9.0
v 15.0 11.0 9.996129035949707
v 15.0 10.9907808303833 10.0
v 15.0 11.0 14.916943550109863
v 14.344743728637695 12.0 9.0
v 15.0 12.0 9.996129035949707
v 15.0 12.0 14.916943550109863
v 15.0 12.0092191696167 10.0
v 14.651968002319336 13.0 10.0
v 15.0 13.0 10.348031997680664
v 15.0 13.0 14.916943550109863
v 14.003279685974121 14.0 10.0
v 15.0 14.0 10.92490291595459
v 15.0 14.0 14.916943550109863
v 15.0 14.095532417297363 11.0
v 14.095532417297363 15.0 11.0
v 15.0 15.0 11.55892276763916
v 15.0 15.0 14.916943550109863
v 15.0 15.616321563720703 12.0
v 14.478915214538574 16.0 12.0
v 15.0 16.0 12.363105773925781
v 15.0 16.0 14.916943550109863
v 15.0 17.0 12.828777313232422
v 15.0 17.0 14.916943550109863
v 15.0 17.264829635620117 13.0
v 15.0 18.0 13.556622505187988
v 15.0 18.0 14.916943550109863
v 15.0 19.0 13.900077819824219
v 15.0 19.0 14.787521362304688
v 15.0 19.185283660888672 14.0
v 15.361108779907227 4.0 14.0
v 16.0 4.372636795043945 14.0
v 16.0 5.0 13.696105003356934
v 16.0 5.0 14.916943550109863
v 15.389354705810547 6.0 13.0
v 16.0 6.0 13.414953231811523
v 16.0 6.0 14.916943550109863
v 16.0 6.482950210571289 13.0
v 16.0 7.0 12.712501525878906
v 16.0 7.0 14.916943550109863
v 15.616321563720703 8.0 12.0
v 16.0 8.0 12.363105773925781
v 16.0 8.0 14.916943550109863
v 15.073183059692383 9.0 11.0
v 16.0 9.0 11.747637748718262
v 16.0 8.521084785461426 12.0
v 16.0 9.0 14.916943550109863
v 15.570672035217285 10.0 11.0
v 16.0 10.0 11.429327964782715
v 16.0 10.0 14.916943550109863
v 15.002531051635742 11.0 10.0
v 15.754398345947266 11.0 11.0
v 16.0 11.0 11.245601654052734
v 16.0 11.0 14.916943550109863
v 15.002531051635742 12.0 10.0
v 15.754398345947266 12.0 11.0
v 16.0 12.0 11.245601654052734
v 16.0 12.0 14.916943550109863
v 15.570672035217285 13.0 11.0
v 16.0 13.0 11.429327964782715
v 16.0 13.0 14.916943550109863
v 15.073183059692383 14.0 11.0
v 16.0 14.0 11.747637748718262
v 16.0 14.0 14.916943550109863
v 16.0 14.478915214538574 12.0
v 15.616321563720703 15.0 12.0
v 16.0 15.0 12.363105773925781
v 16.0 15.0 14.916943550109863
v 16.0 16.0 12.712501525878906
v 16.0 16.0 14.916943550109863
v 16.0 16.51704978942871 13.0
v 15.389354705810547 17.0 13.0
v 16.0 17.0 13.414953231811523
v 16.0 17.0 14.916943550109863
v 16.0 18.0 13.696105003356934
v 16.0 18.0 14.916943550109863
v 16.0 18.627363204956055 14.0
v 15.361108779907227 19.0 14.0
v 16.88063621520996 5.0 14.0
v 17.0 5.119362831115723 14.0
v 17.0 6.0 13.670872688293457
v 17.0 6.0 14.916943550109863
v 16.51704978942871 7.0 13.0
v 17.0 7.0 13.414953231811523
v 17.0 7.0 14.916943550109863
v 17.0 7.610644817352295 13.0
v 17.0 8.0 12.828777313232422
v 17.0 8.0 14.916943550109863
v 16.296371459960938 9.0 12.0
v 17.0 9.0 12.554368019104004
v 17.0 9.0 14.916943550109863
v 16.63689422607422 10.0 12.0
v 17.0 10.0 12.363105773925781
v 17.0 10.0 14.916943550109863
v 16.8212890625 11.0 12.0
v 17.0 11.0 12.178711891174316
v 17.0 11.0 14.916943550109863
v 16.8212890625 12.0 12.0
v 17.0 12.0 12.178711891174316
v 17.0 12.0 14.916943550109863
v 16.63689422607422 13.0 12.0
v 17.0 13.0 12.363105773925781
v 17.0 13.0 14.916943550109863
v 16.296371459960938 14.0 12.0
v 17.0 14.0 12.554368019104004
v 17.0 14.0 14.916943550109863
v 17.0 15.0 12.828777313232422
v 17.0 15.0 14.916943550109863
v 17.0 15.389354705810547 13.0
v 16.51704978942871 16.0 13.0
v 17.0 16.0 13.414953231811523
v 17.0 16.0 14.916943550109863
v 17.0 17.0 13.670872688293457
v 17.0 17.0 14.916943550109863
v 17.0 17.88063621520996 14.0
v 16.88063621520996 18.0 14.0
v 17.88063621520996 6.0 14.0
v 18.0 6.119362831115723 14.0
v 18.0 7.0 13.696105003356934
v 18.0 7.0 14.916943550109863
v 17.264829635620117 8.0 13.0
v 18.0 8.0 13.556622505187988
v 18.0 8.0 14.916943550109863
v 17.700244903564453 9.0 13.0
v 18.0 9.0 13.299756050109863
v 18.0 9.0 14.916943550109863
v 18.0 9.737616539001465 13.0
v 18.0 10.0 12.942347526550293
v 18.0 10.0 14.916943550109863
v 18.0 11.0 12.828777313232422
v 18.0 11.0 14.916943550109863
v 18.0 12.0 12.828777313232422
v 18.0 12.0 14.916943550109863
v 18.0 13.0 12.942347526550293
v 18.0 13.0 14.916943550109863
v 18.0 13.262383460998535 13.0
v 17.700244903564453 14.0 13.0
v 18.0 14.0 13.299756050109863
v 18.0 14.0 14.916943550109863
v 17.264829635620117 15.0 13.0
v 18.0 15.0 13.556622505187988
v 18.0 15.0 14.916943550109863
v 18.0 16.0 13.696105003356934
v 18.0 16.0 14.916943550109863
v 18.0 16.88063621520996 14.0
v 17.88063621520996 17.0 14.0
v 18.627363204956055 7.0 14.0
v 19.0 7.638891220092773 14.0
v 19.0 8.0 13.900077819824219
v 19.0 8.0 14.787521362304688
v 19.0 9.0 13.696105003356934
v 19.0 9.0 14.916943550109863
v 18.0787296295166 10.0 13.0
v 19.0 10.0 13.640528678894043
v 19.0 10.0 14.916943550109863
v 18.229188919067383 11.0 13.0
v 19.0 11.0 13.603327751159668
v 19.0 11.0 14.916943550109863
v 18.229188919067383 12.0 13.0
v 19.0 12.0 13.603327751159668
v 19.0 12.0 14.916943550109863
v 18.0787296295166 13.0 13.0
v 19.0 13.0 13.640528678894043
v 19.0 13.0 14.916943550109863
v 19.0 14.0 13.696105003356934
v 19.0 14.0 14.916943550109863
v 19.0 15.0 13.900077819824219
v 19.0 15.0 14.787521362304688
v 19.0 15.361108779907227 14.0
v 18.627363204956055 16.0 14.0
v 19.185283660888672 8.0 14.0
v 19.54984474182129 9.0 14.0
v 19.731904983520508 10.0 14.0
v 19.88063621520996 11.0 14.0
v 19.88063621520996 12.0 14.0
v 19.731904983520508 13.0 14.0
v 19.54984474182129 14.0 14.0
v 19.185283660888672 15.0 14.0
f 3 2 1
f 4 1 2
f 3 1 5
f 3 5 6
f 1 4 7
f 1 7 5
f 6 5 8
f 6 8 9
f 5 7 10
f 5 10 8
f 9 8 11
f 9 11 12
f 8 10 13
f 8 13 11
f 12 11 14
f 12 14 15
f 11 13 16
f 11 16 14
f 15 14 17
f 15 17 18
f 14 16 19
f 14 19 17
f 18 17 20
f 18 20 21
f 17 19 22
f 17 22 20
f 21 20 23
f 21 23 24
f 20 22 25
f 20 25 23
f 26 24 23
f 26 23 25
f 29 28 27
f 30 27 28
f 29 27 2
f 3 29 2
f 31 29 3
f 4 2 27
f 30 4 27
f 32 4 30
f 6 31 3
f 6 33 31
f 32 7 4
f 34 7 32
f 37 36 35
f 36 33 35
f 33 9 35
f 33 6 9
f 34 10 7
f 38 10 34
f 37 35 39
f 37 39 40
f 12 39 9
f 9 39 35
f 38 13 10
f 41 13 38
f 40 39 42
f 40 42 43
f 15 42 12
f 12 42 39
f 41 16 13
f 44 16 41
f 43 42 45
f 43 45 46
f 18 45 15
f 15 45 42
f 44 19 16
f 47 19 44
f 48 46 45
f 45 18 48
f 18 49 48
f 18 21 49
f 47 22 19
f 50 22 47
f 24 49 21
f 24 51 49
f 50 25 22
f 52 25 50
f 24 26 53
f 54 24 53
f 51 24 54
f 55 53 26
f 25 55 26
f 52 55 25
f 56 54 53
f 56 53 55
f 59 58 57
f 60 57 58
f 59 57 28
f 29 59 28
f 61 59 29
f 30 28 57
f 60 30 57
f 62 30 60
f 65 64 63
f 64 61 63
f 61 31 63
f 61 29 31
f 62 32 30
f 66 32 62
f 65 63 67
f 65 67 68
f 33 67 31
f 31 67 63
f 66 34 32
f 69 34 66
f 68 67 36
f 37 68 36
f 70 68 37
f 36 67 33
f 69 38 34
f 71 38 69
f 40 70 37
f 40 72 70
f 71 41 38
f 73 41 71
f 43 72 40
f 43 74 72
f 73 44 41
f 75 44 73
f 46 74 43
f 46 76 74
f 75 47 44
f 77 47 75
f 46 48 78
f 79 46 78
f 76 46 79
f 49 78 48
f 77 50 47
f 80 50 77
f 79 78 81
f 79 81 82
f 51 81 49
f 49 81 78
f 80 52 50
f 83 52 80
f 84 82 81
f 81 51 84
f 51 85 84
f 51 54 85
f 83 55 52
f 86 55 83
f 54 56 87
f 88 54 87
f 85 54 88
f 89 87 56
f 55 89 56
f 86 89 55
f 90 88 87
f 90 87 89
f 93 92 91
f 94 91 92
f 93 91 58
f 59 93 58
f 95 93 59
f 60 58 91
f 94 60 91
f 96 60 94
f 99 98 97
f 98 95 97
f 95 61 97
f 95 59 61
f 96 62 60
f 100 62 96
f 99 97 64
f 65 99 64
f 101 99 65
f 64 97 61
f 100 66 62
f 102 66 100
f 105 104 103
f 104 101 103
f 101 68 103
f 101 65 68
f 102 69 66
f 106 69 102
f 105 103 107
f 105 107 108
f 70 107 68
f 68 107 103
f 106 71 69
f 109 71 106
f 108 107 110
f 108 110 111
f 72 110 70
f 70 110 107
f 109 73 71
f 112 73 109
f 111 110 113
f 111 113 114
f 74 113 72
f 72 113 110
f 112 75 73
f 115 75 112
f 114 113 116
f 114 116 117
f 76 116 74
f 74 116 113
f 115 77 75
f 118 77 115
f 117 116 119
f 117 119 120
f 79 119 76
f 76 119 116
f 118 80 77
f 121 80 118
f 122 120 119
f 119 79 122
f 79 123 122
f 79 82 123
f 121 83 80
f 124 83 121
f 82 84 125
f 126 82 125
f 123 82 126
f 85 125 84
f 124 86 83
f 127 86 124
f 128 126 125
f 125 85 128
f 85 129 128
f 85 88 129
f 127 89 86
f 130 89 127
f 88 90 131
f 132 88 131
f 129 88 132
f 133 131 90
f 89 133 90
f 130 133 89
f 134 132 131
f 134 131 133
f 137 136 135
f 138 135 136
f 137 135 92
f 93 137 92
f 139 137 93
f 94 92 135
f 138 94 135
f 140 94 138
f 143 142 141
f 142 139 141
f 139 95 141
f 139 93 95
f 140 96 94
f 144 96 140
f 143 141 98
f 99 143 98
f 145 143 99
f 98 141 95
f 144 100 96
f 146 100 144
f 149 148 147
f 148 145 147
f 145 101 147
f 145 99 101
f 146 102 100
f 150 102 146
f 153 152 151
f 151 152 149
f 151 149 147
f 105 151 147
f 104 105 147
f 104 147 101
f 150 106 102
f 154 106 150
f 153 151 155
f 153 155 156
f 108 155 105
f 105 155 151
f 154 109 106
f 157 109 154
f 160 159 158
f 158 159 156
f 155 158 156
f 161 158 155
f 111 161 108
f 108 161 155
f 157 112 109
f 162 112 157
f 160 158 163
f 160 163 164
f 165 158 161
f 163 158 165
f 114 165 111
f 111 165 161
f 162 115 112
f 166 115 162
f 167 164 163
f 169 168 167
f 163 169 167
f 165 169 163
f 117 169 114
f 114 169 165
f 166 118 115
f 170 118 166
f 168 169 171
f 168 171 172
f 120 171 117
f 117 171 169
f 170 121 118
f 173 121 170
f 174 172 171
f 176 174 175
f 175 174 122
f 174 171 122
f 171 120 122
f 123 175 122
f 173 124 121
f 177 124 173
f 178 176 175
f 175 123 178
f 123 179 178
f 123 126 179
f 177 127 124
f 180 127 177
f 126 128 181
f 182 126 181
f 179 126 182
f 129 181 128
f 180 130 127
f 183 130 180
f 184 182 181
f 181 129 184
f 129 185 184
f 129 132 185
f 183 133 130
f 186 133 183
f 132 134 187
f 188 132 187
f 185 132 188
f 189 187 134
f 133 189 134
f 186 189 133
f 190 188 187
f 190 187 189
f 192 191 136
f 192 136 137
f 138 136 191
f 138 191 193
f 139 192 137
f 139 194 192
f 193 140 138
f 195 140 193
f 197 196 142
f 197 142 143
f 139 142 194
f 194 142 196
f 195 144 140
f 198 144 195
f 201 200 199
f 200 197 199
f 197 145 199
f 197 143 145
f 198 146 144
f 202 146 198
f 205 204 203
f 203 204 201
f 203 201 199
f 149 203 199
f 148 149 199
f 148 199 145
f 202 150 146
f 206 150 202
f 209 208 207
f 207 208 205
f 207 205 203
f 153 207 203
f 152 153 203
f 152 203 149
f 206 154 150
f 210 154 206
f 209 207 211
f 209 211 212
f 156 211 153
f 153 211 207
f 210 157 154
f 213 157 210
f 216 215 214
f 214 215 212
f 214 212 211
f 160 214 211
f 159 160 211
f 159 211 156
f 213 162 157
f 217 162 213
f 216 214 218
f 216 218 219
f 164 218 160
f 160 218 214
f 217 166 162
f 220 166 217
f 221 219 218
f 223 221 222
f 222 221 167
f 221 218 167
f 218 164 167
f 168 222 167
f 220 170 166
f 224 170 220
f 223 222 225
f 223 225 226
f 172 225 168
f 168 225 222
f 224 173 170
f 227 173 224
f 228 226 225
f 230 228 229
f 229 228 174
f 228 225 174
f 225 172 174
f 176 229 174
f 227 177 173
f 231 177 227
f 232 230 229
f 234 232 233
f 233 232 178
f 232 229 178
f 229 176 178
f 179 233 178
f 231 180 177
f 235 180 231
f 236 234 233
f 233 179 236
f 179 237 236
f 179 182 237
f 235 183 180
f 238 183 235
f 239 237 182
f 239 182 184
f 184 185 239
f 239 185 240
f 238 186 183
f 241 186 238
f 188 240 185
f 188 242 240
f 241 189 186
f 243 189 241
f 244 242 188
f 244 188 190
f 190 189 243
f 190 243 244
f 246 245 191
f 246 191 192
f 193 191 245
f 193 245 247
f 250 249 248
f 249 246 248
f 246 194 248
f 246 192 194
f 247 195 193
f 251 195 247
f 250 248 196
f 197 250 196
f 252 250 197
f 196 248 194
f 251 198 195
f 253 198 251
f 255 254 200
f 255 200 201
f 197 200 252
f 252 200 254
f 253 202 198
f 256 202 253
f 258 257 204
f 258 204 205
f 201 204 255
f 255 204 257
f 256 206 202
f 259 206 256
f 261 260 208
f 261 208 209
f 205 208 258
f 258 208 260
f 259 210 206
f 262 210 259
f 265 264 263
f 264 261 263
f 261 212 263
f 261 209 212
f 262 213 210
f 266 213 262
f 265 263 215
f 216 265 215
f 267 265 216
f 215 263 212
f 266 217 213
f 268 217 266
f 219 267 216
f 219 269 267
f 268 220 217
f 270 220 268
f 219 221 271
f 272 219 271
f 269 219 272
f 223 271 221
f 270 224 220
f 273 224 270
f 274 272 271
f 271 223 274
f 223 275 274
f 223 226 275
f 273 227 224
f 276 227 273
f 277 275 226
f 277 226 228
f 228 230 277
f 277 230 278
f 276 231 227
f 279 231 276
f 280 278 230
f 280 230 232
f 232 234 280
f 280 234 281
f 279 235 231
f 282 235 279
f 283 281 234
f 283 234 236
f 236 237 283
f 283 237 284
f 282 238 235
f 285 238 282
f 237 239 286
f 287 237 286
f 284 237 287
f 240 286 239
f 285 241 238
f 288 241 285
f 289 287 286
f 286 240 289
f 240 290 289
f 240 242 290
f 288 243 241
f 291 243 288
f 292 290 242
f 292 242 244
f 244 243 291
f 244 291 292
f 294 293 245
f 294 245 246
f 247 245 293
f 247 293 295
f 297 296 249
f 297 249 250
f 246 249 294
f 294 249 296
f 295 251 247
f 298 251 295
f 252 297 250
f 252 299 297
f 298 253 251
f 300 253 298
f 302 301 254
f 302 254 255
f 252 254 299
f 299 254 301
f 300 256 253
f 303 256 300
f 306 305 304
f 257 258 304
f 305 257 304
f 307 257 305
f 255 257 302
f 302 257 307
f 303 259 256
f 308 259 303
f 311 310 309
f 309 310 306
f 309 306 304
f 261 309 304
f 260 261 304
f 260 304 258
f 308 262 259
f 312 262 308
f 311 309 264
f 265 311 264
f 313 311 265
f 264 309 261
f 312 266 262
f 314 266 312
f 267 313 265
f 267 315 313
f 314 268 266
f 316 268 314
f 269 315 267
f 269 317 315
f 316 270 268
f 318 270 316
f 272 317 269
f 272 319 317
f 318 273 270
f 320 273 318
f 272 274 321
f 322 272 321
f 319 272 322
f 275 321 274
f 320 276 273
f 323 276 320
f 324 322 321
f 326 324 325
f 325 324 277
f 324 321 277
f 321 275 277
f 278 325 277
f 323 279 276
f 327 279 323
f 328 326 325
f 328 325 278
f 280 328 278
f 329 328 280
f 280 281 329
f 329 281 330
f 327 282 279
f 331 282 327
f 332 330 281
f 332 281 283
f 283 284 332
f 332 284 333
f 331 285 282
f 334 285 331
f 287 333 284
f 287 335 333
f 334 288 285
f 336 288 334
f 337 335 287
f 337 287 289
f 289 290 337
f 337 290 338
f 336 291 288
f 339 291 336
f 340 338 290
f 340 290 292
f 292 291 339
f 292 339 340
f 342 341 293
f 342 293 294
f 295 293 341
f 295 341 343
f 345 344 296
f 345 296 297
f 294 296 342
f 342 296 344
f 343 298 295
f 346 298 343
f 299 345 297
f 299 347 345
f 346 300 298
f 348 300 346
f 350 349 301
f 350 301 302
f 299 301 347
f 347 301 349
f 348 303 300
f 351 303 348
f 353 352 305
f 353 305 306
f 305 354 307
f 352 354 305
f 302 307 350
f 350 307 354
f 351 308 303
f 355 308 351
f 357 356 310
f 357 310 311
f 306 310 353
f 353 310 356
f 355 312 308
f 358 312 355
f 313 357 311
f 313 359 357
f 358 314 312
f 360 314 358
f 315 359 313
f 315 361 359
f 360 316 314
f 362 316 360
f 317 361 315
f 317 363 361
f 362 318 316
f 364 318 362
f 319 363 317
f 319 365 363
f 364 320 318
f 366 320 364
f 322 365 319
f 322 367 365
f 366 323 320
f 368 323 366
f 369 367 322
f 369 322 324
f 324 326 369
f 369 326 370
f 368 327 323
f 371 327 368
f 372 370 326
f 372 326 328
f 373 328 329
f 373 372 328
f 329 330 373
f 373 330 374
f 371 331 327
f 375 331 371
f 376 374 330
f 376 330 332
f 332 333 376
f 376 333 377
f 375 334 331
f 378 334 375
f 335 377 333
f 335 379 377
f 378 336 334
f 380 336 378
f 381 379 335
f 381 335 337
f 337 338 381
f 381 338 382
f 380 339 336
f 383 339 380
f 384 382 338
f 384 338 340
f 340 339 383
f 340 383 384
f 386 385 341
f 386 341 342
f 343 341 385
f 343 385 387
f 389 388 344
f 389 344 345
f 342 344 386
f 386 344 388
f 387 346 343
f 390 346 387
f 347 389 345
f 347 391 389
f 390 348 346
f 392 348 390
f 394 393 349
f 394 349 350
f 347 349 391
f 391 349 393
f 392 351 348
f 395 351 392
f 353 396 352
f 352 396 397
f 398 352 397
f 354 352 398
f 350 354 394
f 394 354 398
f 395 355 351
f 399 355 395
f 357 400 356
f 400 401 356
f 356 401 353
f 401 402 353
f 402 396 353
f 396 402 397
f 399 358 355
f 403 358 399
f 405 404 400
f 357 405 400
f 359 405 357
f 400 404 401
f 403 360 358
f 406 360 403
f 361 405 359
f 361 407 405
f 406 362 360
f 408 362 406
f 363 407 361
f 363 409 407
f 408 364 362
f 410 364 408
f 365 409 363
f 365 411 409
f 410 366 364
f 412 366 410
f 367 414 413
f 411 367 413
f 365 367 411
f 414 415 413
f 412 368 366
f 416 368 412
f 369 414 367
f 418 417 370
f 370 417 369
f 417 415 369
f 415 414 369
f 418 419 417
f 416 371 368
f 420 371 416
f 372 418 370
f 421 419 418
f 372 421 418
f 373 421 372
f 373 374 421
f 421 374 422
f 420 375 371
f 423 375 420
f 424 422 374
f 424 374 376
f 376 377 424
f 424 377 425
f 423 378 375
f 426 378 423
f 379 425 377
f 379 427 425
f 426 380 378
f 428 380 426
f 429 427 379
f 429 379 381
f 381 382 429
f 429 382 430
f 428 383 380
f 431 383 428
f 432 430 382
f 432 382 384
f 384 383 431
f 384 431 432
f 434 433 385
f 434 385 386
f 387 385 433
f 387 433 435
f 389 436 388
f 436 437 388
f 437 386 388
f 437 434 386
f 435 390 387
f 438 390 435
f 440 439 436
f 389 440 436
f 391 440 389
f 436 439 437
f 438 392 390
f 441 392 438
f 443 442 393
f 443 393 394
f 391 393 440
f 440 393 442
f 441 395 392
f 444 395 441
f 446 445 398
f 446 398 397
f 394 398 443
f 443 398 445
f 444 399 395
f 447 399 444
f 449 448 402
f 449 402 401
f 397 402 446
f 446 402 448
f 447 403 399
f 450 403 447
f 405 451 404
f 451 452 404
f 452 401 404
f 452 449 401
f 450 406 403
f 453 406 450
f 455 454 451
f 405 455 451
f 407 455 405
f 451 454 452
f 453 408 406
f 456 408 453
f 409 455 407
f 409 457 455
f 456 410 408
f 458 410 456
f 411 460 459
f 457 411 459
f 409 411 457
f 460 461 459
f 458 412 410
f 462 412 458
f 413 460 411
f 413 415 460
f 415 461 460
f 415 463 461
f 462 416 412
f 464 416 462
f 465 463 415
f 465 415 417
f 417 419 465
f 465 419 466
f 464 420 416
f 467 420 464
f 468 466 419
f 468 419 421
f 421 422 468
f 468 422 469
f 467 423 420
f 470 423 467
f 471 469 422
f 471 422 424
f 424 425 471
f 471 425 472
f 470 426 423
f 473 426 470
f 427 475 474
f 472 427 474
f 425 427 472
f 475 476 474
f 473 428 426
f 477 428 473
f 429 475 427
f 429 430 475
f 430 476 475
f 430 478 476
f 477 431 428
f 479 431 477
f 480 478 430
f 480 430 432
f 432 431 479
f 432 479 480
f 482 481 433
f 482 433 434
f 435 433 481
f 435 481 483
f 437 482 434
f 437 484 482
f 483 438 435
f 485 438 483
f 487 486 439
f 487 439 440
f 437 439 484
f 484 439 486
f 485 441 438
f 488 441 485
f 443 489 442
f 489 490 442
f 490 440 442
f 490 487 440
f 488 444 441
f 491 444 488
f 446 492 445
f 492 493 445
f 445 493 443
f 493 494 443
f 494 489 443
f 489 494 490
f 491 447 444
f 495 447 491
f 449 496 448
f 496 497 448
f 448 497 446
f 497 498 446
f 498 492 446
f 492 498 493
f 495 450 447
f 499 450 495
f 452 500 496
f 452 496 449
f 497 496 501
f 501 496 500
f 499 453 450
f 502 453 499
f 455 503 454
f 503 504 454
f 454 504 452
f 504 505 452
f 505 500 452
f 500 505 501
f 502 456 453
f 506 456 502
f 457 507 503
f 457 503 455
f 504 503 508
f 508 503 507
f 506 458 456
f 509 458 506
f 459 507 457
f 511 510 461
f 461 510 459
f 510 508 459
f 508 507 459
f 511 512 510
f 509 462 458
f 513 462 509
f 463 514 511
f 463 511 461
f 512 511 515
f 515 511 514
f 513 464 462
f 516 464 513
f 465 514 463
f 518 517 466
f 466 517 465
f 517 515 465
f 515 514 465
f 518 519 517
f 516 467 464
f 520 467 516
f 468 518 466
f 522 521 469
f 469 521 468
f 521 519 468
f 519 518 468
f 522 523 521
f 520 470 467
f 524 470 520
f 471 522 469
f 471 472 522
f 472 523 522
f 472 525 523
f 524 473 470
f 526 473 524
f 527 525 472
f 527 472 474
f 474 476 527
f 527 476 528
f 526 477 473
f 529 477 526
f 478 528 476
f 478 530 528
f 529 479 477
f 531 479 529
f 532 530 478
f 532 478 480
f 480 479 531
f 480 531 532
f 482 533 481
f 533 483 481
f 535 534 533
f 482 535 533
f 484 535 482
f 483 533 534
f 536 483 534
f 485 483 536
f 487 537 486
f 537 538 486
f 538 484 486
f 538 535 484
f 536 488 485
f 539 488 536
f 541 540 537
f 487 541 537
f 490 541 487
f 537 540 538
f 539 491 488
f 542 491 539
f 493 543 494
f 543 544 494
f 544 490 494
f 544 541 490
f 542 495 491
f 545 495 542
f 497 546 498
f 546 547 498
f 498 547 493
f 547 548 493
f 548 543 493
f 543 548 544
f 545 499 495
f 549 499 545
f 501 550 546
f 501 546 497
f 547 546 551
f 551 546 550
f 549 502 499
f 552 502 549
f 504 553 505
f 550 501 505
f 553 550 505
f 554 550 553
f 551 550 555
f 555 550 554
f 552 506 502
f 556 506 552
f 508 557 553
f 508 553 504
f 553 558 554
f 553 557 558
f 555 554 559
f 559 554 558
f 556 509 506
f 560 509 556
f 510 557 508
f 557 510 512
f 561 557 512
f 558 557 561
f 559 558 562
f 562 558 561
f 560 513 509
f 563 513 560
f 515 564 561
f 515 561 512
f 562 561 565
f 565 561 564
f 563 516 513
f 566 516 563
f 517 564 515
f 568 567 519
f 519 567 517
f 567 565 517
f 565 564 517
f 568 569 567
f 566 520 516
f 570 520 566
f 521 568 519
f 521 523 568
f 523 569 568
f 523 571 569
f 570 524 520
f 572 524 570
f 525 574 573
f 571 525 573
f 523 525 571
f 574 575 573
f 572 526 524
f 576 526 572
f 527 574 525
f 527 528 574
f 528 575 574
f 528 577 575
f 576 529 526
f 578 529 576
f 530 580 579
f 577 530 579
f 528 530 577
f 578 579 580
f 531 578 580
f 529 578 531
f 532 580 530
f 580 532 531
f 535 581 534
f 581 536 534
f 583 582 581
f 535 583 581
f 538 583 535
f 536 581 582
f 584 536 582
f 539 536 584
f 541 585 540
f 585 586 540
f 586 538 540
f 586 583 538
f 584 542 539
f 587 542 584
f 589 588 585
f 541 589 585
f 544 589 541
f 585 588 586
f 587 545 542
f 590 545 587
f 547 591 548
f 591 592 548
f 592 544 548
f 592 589 544
f 590 549 545
f 593 549 590
f 551 594 591
f 551 591 547
f 592 591 595
f 595 591 594
f 593 552 549
f 596 552 593
f 555 597 594
f 555 594 551
f 595 594 598
f 598 594 597
f 596 556 552
f 599 556 596
f 559 600 597
f 559 597 555
f 598 597 601
f 601 597 600
f 599 560 556
f 602 560 599
f 562 603 600
f 562 600 559
f 601 600 604
f 604 600 603
f 602 563 560
f 605 563 602
f 565 606 603
f 565 603 562
f 604 603 607
f 607 603 606
f 605 566 563
f 608 566 605
f 567 606 565
f 567 569 606
f 569 607 606
f 569 609 607
f 608 570 566
f 610 570 608
f 571 612 611
f 609 571 611
f 569 571 609
f 612 613 611
f 610 572 570
f 614 572 610
f 573 612 571
f 573 575 612
f 575 613 612
f 575 615 613
f 614 576 572
f 616 576 614
f 577 618 617
f 615 577 617
f 575 577 615
f 616 617 618
f 578 616 618
f 576 616 578
f 579 618 577
f 618 579 578
f 583 619 582
f 619 584 582
f 621 620 619
f 583 621 619
f 586 621 583
f 584 619 620
f 622 584 620
f 587 584 622
f 589 623 588
f 623 624 588
f 624 586 588
f 624 621 586
f 622 590 587
f 625 590 622
f 592 626 623
f 592 623 589
f 624 623 627
f 627 623 626
f 625 593 590
f 628 593 625
f 630 629 626
f 592 630 626
f 595 630 592
f 626 629 627
f 628 596 593
f 631 596 628
f 598 630 595
f 598 632 630
f 631 599 596
f 633 599 631
f 601 632 598
f 601 634 632
f 633 602 599
f 635 602 633
f 604 634 601
f 604 636 634
f 635 605 602
f 637 605 635
f 607 639 638
f 636 607 638
f 604 607 636
f 639 640 638
f 637 608 605
f 641 608 637
f 609 642 639
f 609 639 607
f 640 639 643
f 643 639 642
f 641 610 608
f 644 610 641
f 611 642 609
f 611 613 642
f 613 643 642
f 613 645 643
f 644 614 610
f 646 614 644
f 615 648 647
f 645 615 647
f 613 615 645
f 646 647 648
f 616 646 648
f 614 646 616
f 617 648 615
f 648 617 616
f 621 649 620
f 649 622 620
f 651 650 649
f 621 651 649
f 624 651 621
f 622 649 650
f 652 622 650
f 625 622 652
f 627 651 624
f 627 653 651
f 652 628 625
f 654 628 652
f 630 655 629
f 655 656 629
f 656 627 629
f 656 653 627
f 654 631 628
f 657 631 654
f 632 658 655
f 632 655 630
f 656 655 659
f 659 655 658
f 657 633 631
f 660 633 657
f 634 661 658
f 634 658 632
f 659 658 662
f 662 658 661
f 660 635 633
f 663 635 660
f 636 664 661
f 636 661 634
f 662 661 665
f 665 661 664
f 663 637 635
f 666 637 663
f 638 664 636
f 638 640 664
f 640 665 664
f 640 667 665
f 666 641 637
f 668 641 666
f 643 667 640
f 643 669 667
f 668 644 641
f 670 644 668
f 645 672 671
f 669 645 671
f 643 645 669
f 670 671 672
f 646 670 672
f 644 670 646
f 647 672 645
f 672 647 646
f 651 673 650
f 673 652 650
f 653 674 673
f 653 673 651
f 674 654 652
f 674 652 673
f 656 675 674
f 656 674 653
f 675 657 654
f 675 654 674
f 659 676 675
f 659 675 656
f 676 660 657
f 676 657 675
f 662 677 676
f 662 676 659
f 677 663 660
f 677 660 676
f 665 678 677
f 665 677 662
f 678 666 663
f 678 663 677
f 667 679 678
f 667 678 665
f 679 668 666
f 679 666 678
f 669 680 679
f 669 679 667
f 680 670 668
f 680 668 679
f 671 680 669
f 680 671 670
