v 2.6676924228668213 9.0 14.0
v 3.0 8.036748886108398 14.0
v 3.0 9.0 13.763101577758789
v 3.0 9.0 14.401335716247559
v 2.4972779750823975 10.0 14.0
v 3.0 10.0 13.644704818725586
v 3.0 10.0 14.480835914611816
v 2.42948842048645 11.0 14.0
v 3.0 11.0 13.607972145080566
v 3.0 11.0 14.480835914611816
v 2.42948842048645 12.0 14.0
v 3.0 12.0 13.607972145080566
v 3.0 12.0 14.480835914611816
v 2.4972779750823975 13.0 14.0
v 3.0 13.0 13.644704818725586
v 3.0 13.0 14.480835914611816
v 2.6676924228668213 14.0 14.0
v 3.0 14.0 13.763101577758789
v 3.0 14.0 14.401335716247559
v 3.0 14.963251113891602 14.0
v 3.502164602279663 7.0 14.0
v 4.0 6.217219829559326 14.0
v 4.0 7.0 13.679046630859375
v 4.0 7.0 14.475958824157715
v 3.0268726348876953 8.0 14.0
v 4.0 8.0 13.503044128417969
v 4.0 8.0 14.480835914611816
v 4.0 9.0 13.14819049835205
v 4.0 9.0 14.480835914611816
v 3.816631555557251 10.0 13.0
v 4.0 9.299219131469727 13.0
v 4.0 10.0 12.866647720336914
v 4.0 10.0 14.480835914611816
v 3.687291383743286 11.0 13.0
v 4.0 11.0 12.769061088562012
v 4.0 11.0 14.480835914611816
v 3.687291383743286 12.0 13.0
v 4.0 12.0 12.769061088562012
v 4.0 12.0 14.480835914611816
v 3.816631555557251 13.0 13.0
v 4.0 13.0 12.866647720336914
v 4.0 13.0 14.480835914611816
v 4.0 13.700780868530273 13.0
v 4.0 14.0 13.14819049835205
v 4.0 14.0 14.480835914611816
v 3.0268726348876953 15.0 14.0
v 4.0 15.0 13.503044128417969
v 4.0 15.0 14.480835914611816
v 3.502164602279663 16.0 14.0
v 4.0 16.0 13.679046630859375
v 4.0 16.0 14.475958824157715
v 4.0 16.782779693603516 14.0
v 4.213914394378662 6.0 14.0
v 5.0 5.026872634887695 14.0
v 5.0 6.0 13.607972145080566
v 5.0 6.0 14.480835914611816
v 5.0 7.0 13.14819049835205
v 5.0 7.0 14.480835914611816
v 4.503044605255127 8.0 13.0
v 5.0 7.148190021514893 13.0
v 5.0 8.0 12.671732902526855
v 5.0 8.0 14.480835914611816
v 4.148190021514893 9.0 13.0
v 5.0 9.0 12.523983001708984
v 5.0 9.0 14.480835914611816
v 5.0 10.0 12.304353713989258
v 5.0 10.0 14.480835914611816
v 5.0 11.0 12.086505889892578
v 5.0 11.0 14.480835914611816
v 5.0 12.0 12.086505889892578
v 5.0 12.0 14.480835914611816
v 5.0 13.0 12.304353713989258
v 5.0 13.0 14.480835914611816
v 4.148190021514893 14.0 13.0
v 5.0 14.0 12.523983001708984
v 5.0 14.0 14.480835914611816
v 4.503044605255127 15.0 13.0
v 5.0 15.0 12.671732902526855
v 5.0 15.0 14.480835914611816
v 5.0 15.85180950164795 13.0
v 5.0 16.0 13.14819049835205
v 5.0 16.0 14.480835914611816
v 4.213914394378662 17.0 14.0
v 5.0 17.0 13.607972145080566
v 5.0 17.0 14.480835914611816
v 5.0 17.973127365112305 14.0
v 5.026872634887695 5.0 14.0
v 6.0 4.213914394378662 14.0
v 6.0 5.0 13.607972145080566
v 6.0 5.0 14.480835914611816
v 5.931337833404541 6.0 13.0
v 6.0 5.931337833404541 13.0
v 6.0 6.0 12.962579727172852
v 6.0 6.0 14.480835914611816
v 5.148190021514893 7.0 13.0
v 6.0 7.0 12.587140083312988
v 6.0 7.0 14.480835914611816
v 6.0 8.0 12.086505889892578
v 6.0 8.0 14.480835914611816
v 5.527682304382324 9.0 12.0
v 6.0 8.087685585021973 12.0
v 6.0 9.0 11.677531242370605
v 6.0 9.0 14.480835914611816
v 5.304353713989258 10.0 12.0
v 6.0 10.0 11.56521224975586
v 6.0 10.0 14.480835914611816
v 5.086505889892578 11.0 12.0
v 6.0 11.0 11.472878456115723
v 6.0 11.0 14.480835914611816
v 5.086505889892578 12.0 12.0
v 6.0 12.0 11.472878456115723
v 6.0 12.0 14.480835914611816
v 5.304353713989258 13.0 12.0
v 6.0 13.0 11.56521224975586
v 6.0 13.0 14.480835914611816
v 5.527682304382324 14.0 12.0
v 6.0 14.0 11.677531242370605
v 6.0 14.0 14.480835914611816
v 6.0 14.912314414978027 12.0
v 6.0 15.0 12.086505889892578
v 6.0 15.0 14.480835914611816
v 5.148190021514893 16.0 13.0
v 6.0 16.0 12.587140083312988
v 6.0 16.0 14.480835914611816
v 5.931337833404541 17.0 13.0
v 6.0 17.0 12.962579727172852
v 6.0 17.0 14.480835914611816
v 6.0 17.068662643432617 13.0
v 5.026872634887695 18.0 14.0
v 6.0 18.0 13.607972145080566
v 6.0 18.0 14.480835914611816
v 6.0 18.78608512878418 14.0
v 6.217219829559326 4.0 14.0
v 7.0 3.502164602279663 14.0
v 7.0 4.0 13.679046630859375
v 7.0 4.0 14.475958824157715
v 7.0 5.0 13.14819049835205
v 7.0 5.0 14.480835914611816
v 7.0 5.148190021514893 13.0
v 7.0 6.0 12.587140083312988
v 7.0 6.0 14.480835914611816
v 6.847306251525879 7.0 12.0
v 7.0 6.847306251525879 12.0
v 7.0 7.0 11.916121482849121
v 7.0 7.0 14.480835914611816
v 6.086505889892578 8.0 12.0
v 7.0 8.0 11.56521224975586
v 7.0 8.0 14.480835914611816
v 7.0 9.0 11.047231674194336
v 7.0 9.0 14.480835914611816
v 6.6005353927612305 10.0 11.0
v 7.0 9.054221153259277 11.0
v 7.0 10.0 10.716986656188965
v 7.0 10.0 14.480835914611816
v 6.472878456115723 11.0 11.0
v 7.0 11.0 10.630035400390625
v 7.0 11.0 14.480835914611816
v 6.472878456115723 12.0 11.0
v 7.0 12.0 10.630035400390625
v 7.0 12.0 14.480835914611816
v 6.6005353927612305 13.0 11.0
v 7.0 13.0 10.716986656188965
v 7.0 13.0 14.480835914611816
v 7.0 13.945778846740723 11.0
v 7.0 14.0 11.047231674194336
v 7.0 14.0 14.480835914611816
v 6.086505889892578 15.0 12.0
v 7.0 15.0 11.56521224975586
v 7.0 15.0 14.480835914611816
v 6.847306251525879 16.0 12.0
v 7.0 16.0 11.916121482849121
v 7.0 16.0 14.480835914611816
v 7.0 16.152692794799805 12.0
v 7.0 17.0 12.587140083312988
v 7.0 17.0 14.480835914611816
v 7.0 17.851810455322266 13.0
v 7.0 18.0 13.14819049835205
v 7.0 18.0 14.480835914611816
v 6.217219829559326 19.0 14.0
v 7.0 19.0 13.679046630859375
v 7.0 19.0 14.475958824157715
v 7.0 19.497835159301758 14.0
v 8.0 3.0268726348876953 14.0
v 8.0 4.0 13.503044128417969
v 8.0 4.0 14.480835914611816
v 7.148190021514893 5.0 13.0
v 8.0 4.503044605255127 13.0
v 8.0 5.0 12.671732902526855
v 8.0 5.0 14.480835914611816
v 8.0 6.0 12.086505889892578
v 8.0 6.0 14.480835914611816
v 8.0 6.086505889892578 12.0
v 8.0 7.0 11.56521224975586
v 8.0 7.0 14.480835914611816
v 7.765498638153076 8.0 11.0
v 8.0 7.765498638153076 11.0
v 8.0 8.0 10.86966323852539
v 8.0 8.0 14.480835914611816
v 7.047232151031494 9.0 11.0
v 8.0 9.0 10.543546676635742
v 8.0 9.0 14.480835914611816
v 8.0 10.0 10.070263862609863
v 8.0 10.0 14.480835914611816
v 7.759185791015625 11.0 10.0
v 8.0 10.122734069824219 10.0
v 8.0 11.0 9.82320499420166
v 8.0 11.0 14.480835914611816
v 7.759185791015625 12.0 10.0
v 8.0 12.0 9.82320499420166
v 8.0 12.0 14.480835914611816
v 8.0 12.877265930175781 10.0
v 8.0 13.0 10.070263862609863
v 8.0 13.0 14.480835914611816
v 7.047232151031494 14.0 11.0
v 8.0 14.0 10.543546676635742
v 8.0 14.0 14.480835914611816
v 7.765498638153076 15.0 11.0
v 8.0 15.0 10.86966323852539
v 8.0 15.0 14.480835914611816
v 8.0 15.234500885009766 11.0
v 8.0 16.0 11.56521224975586
v 8.0 16.0 14.480835914611816
v 8.0 16.913494110107422 12.0
v 8.0 17.0 12.086505889892578
v 8.0 17.0 14.480835914611816
v 7.148190021514893 18.0 13.0
v 8.0 18.0 12.671732902526855
v 8.0 18.0 14.480835914611816
v 8.0 18.49695587158203 13.0
v 8.0 19.0 13.503044128417969
v 8.0 19.0 14.480835914611816
v 8.0 19.973127365112305 14.0
v 8.036748886108398 3.0 14.0
v 9.0 2.6676924228668213 14.0
v 9.0 3.0 13.763101577758789
v 9.0 3.0 14.401335716247559
v 9.0 4.0 13.14819049835205
v 9.0 4.0 14.480835914611816
v 9.0 4.148190021514893 13.0
v 9.0 5.0 12.523983001708984
v 9.0 5.0 14.480835914611816
v 8.087685585021973 6.0 12.0
v 9.0 5.527682304382324 12.0
v 9.0 6.0 11.677531242370605
v 9.0 6.0 14.480835914611816
v 9.0 7.0 11.047231674194336
v 9.0 7.0 14.480835914611816
v 9.0 7.047232151031494 11.0
v 9.0 8.0 10.543546676635742
v 9.0 8.0 14.480835914611816
v 8.687934875488281 9.0 10.0
v 9.0 8.687934875488281 10.0
v 9.0 9.0 9.82320499420166
v 9.0 9.0 14.480835914611816
v 8.070263862609863 10.0 10.0
v 9.0 10.0 9.52681827545166
v 9.0 10.0 14.480835914611816
v 9.0 11.0 9.222365379333496
v 9.0 11.0 14.480835914611816
v 9.0 12.0 9.222365379333496
v 9.0 12.0 14.480835914611816
v 8.070263862609863 13.0 10.0
v 9.0 13.0 9.52681827545166
v 9.0 13.0 14.480835914611816
v 8.687934875488281 14.0 10.0
v 9.0 14.0 9.82320499420166
v 9.0 14.0 14.480835914611816
v 9.0 14.312065124511719 10.0
v 9.0 15.0 10.543546676635742
v 9.0 15.0 14.480835914611816
v 9.0 15.952768325805664 11.0
v 9.0 16.0 11.047231674194336
v 9.0 16.0 14.480835914611816
v 8.087685585021973 17.0 12.0
v 9.0 17.0 11.677531242370605
v 9.0 17.0 14.480835914611816
v 9.0 17.47231674194336 12.0
v 9.0 18.0 12.523983001708984
v 9.0 18.0 14.480835914611816
v 9.0 18.851810455322266 13.0
v 9.0 19.0 13.14819049835205
v 9.0 19.0 14.480835914611816
v 8.036748886108398 20.0 14.0
v 9.0 20.0 13.763101577758789
v 9.0 20.0 14.401335716247559
v 9.0 20.332307815551758 14.0
v 10.0 2.4972779750823975 14.0
v 10.0 3.0 13.644704818725586
v 10.0 3.0 14.480835914611816
v 9.299219131469727 4.0 13.0
v 10.0 3.816631555557251 13.0
v 10.0 4.0 12.866647720336914
v 10.0 4.0 14.480835914611816
v 10.0 5.0 12.304353713989258
v 10.0 5.0 14.480835914611816
v 10.0 5.304353713989258 12.0
v 10.0 6.0 11.56521224975586
v 10.0 6.0 14.480835914611816
v 9.054221153259277 7.0 11.0
v 10.0 6.6005353927612305 11.0
v 10.0 7.0 10.716986656188965
v 10.0 7.0 14.480835914611816
v 10.0 8.0 10.070263862609863
v 10.0 8.0 14.480835914611816
v 10.0 8.070263862609863 10.0
v 10.0 9.0 9.52681827545166
v 10.0 9.0 14.480835914611816
v 9.620085716247559 10.0 9.0
v 10.0 9.620085716247559 9.0
v 10.0 10.0 8.612831115722656
v 10.0 10.0 14.480835914611816
v 9.222365379333496 11.0 9.0
v 10.0 11.0 8.519164085388184
v 10.0 11.0 14.480835914611816
v 9.222365379333496 12.0 9.0
v 10.0 12.0 8.519164085388184
v 10.0 12.0 14.480835914611816
v 9.620085716247559 13.0 9.0
v 10.0 13.0 8.612831115722656
v 10.0 13.0 14.480835914611816
v 10.0 13.379914283752441 9.0
v 10.0 14.0 9.52681827545166
v 10.0 14.0 14.480835914611816
v 10.0 14.929736137390137 10.0
v 10.0 15.0 10.070263862609863
v 10.0 15.0 14.480835914611816
v 9.054221153259277 16.0 11.0
v 10.0 16.0 10.716986656188965
v 10.0 16.0 14.480835914611816
v 10.0 16.399465560913086 11.0
v 10.0 17.0 11.56521224975586
v 10.0 17.0 14.480835914611816
v 10.0 17.695646286010742 12.0
v 10.0 18.0 12.304353713989258
v 10.0 18.0 14.480835914611816
v 9.299219131469727 19.0 13.0
v 10.0 19.0 12.866647720336914
v 10.0 19.0 14.480835914611816
v 10.0 19.183368682861328 13.0
v 10.0 20.0 13.644704818725586
v 10.0 20.0 14.480835914611816
v 10.0 20.502721786499023 14.0
v 11.0 2.42948842048645 14.0
v 11.0 3.0 13.607972145080566
v 11.0 3.0 14.480835914611816
v 11.0 3.687291383743286 13.0
v 11.0 4.0 12.769061088562012
v 11.0 4.0 14.480835914611816
v 11.0 5.0 12.086505889892578
v 11.0 5.0 14.480835914611816
v 11.0 5.086505889892578 12.0
v 11.0 6.0 11.472878456115723
v 11.0 6.0 14.480835914611816
v 11.0 6.472878456115723 11.0
v 11.0 7.0 10.630035400390625
v 11.0 7.0 14.480835914611816
v 10.122734069824219 8.0 10.0
v 11.0 7.759185791015625 10.0
v 11.0 8.0 9.82320499420166
v 11.0 8.0 14.480835914611816
v 11.0 9.0 9.222365379333496
v 11.0 9.0 14.480835914611816
v 11.0 9.222365379333496 9.0
v 11.0 10.0 8.519164085388184
v 11.0 10.0 14.480835914611816
v 11.0 11.0 8.519164085388184
v 11.0 11.0 14.480835914611816
v 11.0 12.0 8.519164085388184
v 11.0 12.0 14.480835914611816
v 11.0 13.0 8.519164085388184
v 11.0 13.0 14.480835914611816
v 11.0 13.777634620666504 9.0
v 11.0 14.0 9.222365379333496
v 11.0 14.0 14.480835914611816
v 10.122734069824219 15.0 10.0
v 11.0 15.0 9.82320499420166
v 11.0 15.0 14.480835914611816
v 11.0 15.240814208984375 10.0
v 11.0 16.0 10.630035400390625
v 11.0 16.0 14.480835914611816
v 11.0 16.527122497558594 11.0
v 11.0 17.0 11.472878456115723
v 11.0 17.0 14.480835914611816
v 11.0 17.913494110107422 12.0
v 11.0 18.0 12.086505889892578
v 11.0 18.0 14.480835914611816
v 11.0 19.0 12.769061088562012
v 11.0 19.0 14.480835914611816
v 11.0 19.312707901000977 13.0
v 11.0 20.0 13.607972145080566
v 11.0 20.0 14.480835914611816
v 11.0 20.570510864257812 14.0
v 12.0 2.42948842048645 14.0
v 12.0 3.0 13.607972145080566
v 12.0 3.0 14.480835914611816
v 12.0 3.687291383743286 13.0
v 12.0 4.0 12.769061088562012
v 12.0 4.0 14.480835914611816
v 12.0 5.0 12.086505889892578
v 12.0 5.0 14.480835914611816
v 12.0 5.086505889892578 12.0
v 12.0 6.0 11.472878456115723
v 12.0 6.0 14.480835914611816
v 12.0 6.472878456115723 11.0
v 12.0 7.0 10.630035400390625
v 12.0 7.0 14.480835914611816
v 12.0 7.759185791015625 10.0
v 12.0 8.0 9.82320499420166
v 12.0 8.0 14.480835914611816
v 12.0 9.0 9.222365379333496
v 12.0 9.0 14.480835914611816
v 12.0 9.222365379333496 9.0
v 12.0 10.0 8.519164085388184
v 12.0 10.0 14.480835914611816
v 12.0 11.0 8.519164085388184
v 12.0 11.0 14.480835914611816
v 12.0 12.0 8.519164085388184
v 12.0 12.0 14.480835914611816
v 12.0 13.0 8.519164085388184
v 12.0 13.0 14.480835914611816
v 12.0 13.777634620666504 9.0
v 12.0 14.0 9.222365379333496
v 12.0 14.0 14.480835914611816
v 12.0 15.0 9.82320499420166
v 12.0 15.0 14.480835914611816
v 12.0 15.240814208984375 10.0
v 12.0 16.0 10.630035400390625
v 12.0 16.0 14.480835914611816
v 12.0 16.527122497558594 11.0
v 12.0 17.0 11.472878456115723
v 12.0 17.0 14.480835914611816
v 12.0 17.913494110107422 12.0
v 12.0 18.0 12.086505889892578
v 12.0 18.0 14.480835914611816
v 12.0 19.0 12.769061088562012
v 12.0 19.0 14.480835914611816
v 12.0 19.312707901000977 13.0
v 12.0 20.0 13.607972145080566
v 12.0 20.0 14.480835914611816
v 12.0 20.570510864257812 14.0
v 13.0 2.4972779750823975 14.0
v 13.0 3.0 13.644704818725586
v 13.0 3.0 14.480835914611816
v 13.0 3.816631555557251 13.0
v 13.0 4.0 12.866647720336914
v 13.0 4.0 14.480835914611816
v 13.0 5.0 12.304353713989258
v 13.0 5.0 14.480835914611816
v 13.0 5.304353713989258 12.0
v 13.0 6.0 11.56521224975586
v 13.0 6.0 14.480835914611816
v 13.0 6.6005353927612305 11.0
v 13.0 7.0 10.716986656188965
v 13.0 7.0 14.480835914611816
v 12.877265930175781 8.0 10.0
v 13.0 8.0 10.070263862609863
v 13.0 8.0 14.480835914611816
v 13.0 8.070263862609863 10.0
v 13.0 9.0 9.52681827545166
v 13.0 9.0 14.480835914611816
v 13.0 9.620085716247559 9.0
v 13.0 10.0 8.612831115722656
v 13.0 10.0 14.480835914611816
v 13.0 11.0 8.519164085388184
v 13.0 11.0 14.480835914611816
v 13.0 12.0 8.519164085388184
v 13.0 12.0 14.480835914611816
v 13.0 13.0 8.612831115722656
v 13.0 13.0 14.480835914611816
v 13.0 13.379914283752441 9.0
v 13.0 14.0 9.52681827545166
v 13.0 14.0 14.480835914611816
v 13.0 14.929736137390137 10.0
v 12.877265930175781 15.0 10.0
v 13.0 15.0 10.070263862609863
v 13.0 15.0 14.480835914611816
v 13.0 16.0 10.716986656188965
v 13.0 16.0 14.480835914611816
v 13.0 16.399465560913086 11.0
v 13.0 17.0 11.56521224975586
v 13.0 17.0 14.480835914611816
v 13.0 17.695646286010742 12.0
v 13.0 18.0 12.304353713989258
v 13.0 18.0 14.480835914611816
v 13.0 19.0 12.866647720336914
v 13.0 19.0 14.480835914611816
v 13.0 19.183368682861328 13.0
v 13.0 20.0 13.644704818725586
v 13.0 20.0 14.480835914611816
v 13.0 20.502721786499023 14.0
v 14.0 2.6676924228668213 14.0
v 14.0 3.0 13.763101577758789
v 14.0 3.0 14.401335716247559
v 13.700780868530273 4.0 13.0
v 14.0 4.0 13.14819049835205
v 14.0 4.0 14.480835914611816
v 14.0 4.148190021514893 13.0
v 14.0 5.0 12.523983001708984
v 14.0 5.0 14.480835914611816
v 14.0 5.527682304382324 12.0
v 14.0 6.0 11.677531242370605
v 14.0 6.0 14.480835914611816
v 13.945778846740723 7.0 11.0
v 14.0 7.0 11.047231674194336
v 14.0 7.0 14.480835914611816
v 14.0 7.047232151031494 11.0
v 14.0 8.0 10.543546676635742
v 14.0 8.0 14.480835914611816
v 14.0 8.687934875488281 10.0
v 14.0 9.0 9.82320499420166
v 14.0 9.0 14.480835914611816
v 13.379914283752441 10.0 9.0
v 14.0 10.0 9.52681827545166
v 14.0 10.0 14.480835914611816
v 13.777634620666504 11.0 9.0
v 14.0 11.0 9.222365379333496
v 14.0 11.0 14.480835914611816
v 13.777634620666504 12.0 9.0
v 14.0 12.0 9.222365379333496
v 14.0 12.0 14.480835914611816
v 13.379914283752441 13.0 9.0
v 14.0 13.0 9.52681827545166
v 14.0 13.0 14.480835914611816
v 14.0 14.0 9.82320499420166
v 14.0 14.0 14.480835914611816
v 14.0 14.312065124511719 10.0
v 14.0 15.0 10.543546676635742
v 14.0 15.0 14.480835914611816
v 14.0 15.952768325805664 11.0
v 13.945778846740723 16.0 11.0
v 14.0 16.0 11.047231674194336
v 14.0 16.0 14.480835914611816
v 14.0 17.0 11.677531242370605
v 14.0 17.0 14.480835914611816
v 14.0 17.47231674194336 12.0
v 14.0 18.0 12.523983001708984
v 14.0 18.0 14.480835914611816
v 14.0 18.851810455322266 13.0
v 13.700780868530273 19.0 13.0
v 14.0 19.0 13.14819049835205
v 14.0 19.0 14.480835914611816
v 14.0 20.0 13.763101577758789
v 14.0 20.0 14.401335716247559
v 14.0 20.332307815551758 14.0
v 14.963251113891602 3.0 14.0
v 15.0 3.0268726348876953 14.0
v 15.0 4.0 13.503044128417969
v 15.0 4.0 14.480835914611816
v 15.0 4.503044605255127 13.0
v 15.0 5.0 12.671732902526855
v 15.0 5.0 14.480835914611816
v 14.912314414978027 6.0 12.0
v 15.0 6.0 12.086505889892578
v 15.0 6.0 14.480835914611816
v 15.0 6.086505889892578 12.0
v 15.0 7.0 11.56521224975586
v 15.0 7.0 14.480835914611816
v 15.0 7.765498638153076 11.0
v 15.0 8.0 10.86966323852539
v 15.0 8.0 14.480835914611816
v 14.312065124511719 9.0 10.0
v 15.0 9.0 10.543546676635742
v 15.0 9.0 14.480835914611816
v 14.929736137390137 10.0 10.0
v 15.0 10.0 10.070263862609863
v 15.0 10.0 14.480835914611816
v 15.0 10.122734069824219 10.0
v 15.0 11.0 9.82320499420166
v 15.0 11.0 14.480835914611816
v 15.0 12.0 9.82320499420166
v 15.0 12.0 14.480835914611816
v 15.0 12.877265930175781 10.0
v 14.929736137390137 13.0 10.0
v 15.0 13.0 10.070263862609863
v 15.0 13.0 14.480835914611816
v 14.312065124511719 14.0 10.0
v 15.0 14.0 10.543546676635742
v 15.0 14.0 14.480835914611816
v 15.0 15.0 10.86966323852539
v 15.0 15.0 14.480835914611816
v 15.0 15.234500885009766 11.0
v 15.0 16.0 11.56521224975586
v 15.0 16.0 14.480835914611816
v 15.0 16.913494110107422 12.0
v 14.912314414978027 17.0 12.0
v 15.0 17.0 12.086505889892578
v 15.0 17.0 14.480835914611816
v 15.0 18.0 12.671732902526855
v 15.0 18.0 14.480835914611816
v 15.0 18.49695587158203 13.0
v 15.0 19.0 13.503044128417969
v 15.0 19.0 14.480835914611816
v 15.0 19.973127365112305 14.0
v 14.963251113891602 20.0 14.0
v 16.0 3.502164602279663 14.0
v 16.0 4.0 13.679046630859375
v 16.0 4.0 14.475958824157715
v 15.85180950164795 5.0 13.0
v 16.0 5.0 13.14819049835205
v 16.0 5.0 14.480835914611816
v 16.0 5.148190021514893 13.0
v 16.0 6.0 12.587140083312988
v 16.0 6.0 14.480835914611816
v 16.0 6.847306251525879 12.0
v 16.0 7.0 11.916121482849121
v 16.0 7.0 14.480835914611816
v 15.234500885009766 8.0 11.0
v 16.0 8.0 11.56521224975586
v 16.0 8.0 14.480835914611816
v 15.952768325805664 9.0 11.0
v 16.0 9.0 11.047231674194336
v 16.0 9.0 14.480835914611816
v 16.0 9.054221153259277 11.0
v 16.0 10.0 10.716986656188965
v 16.0 10.0 14.480835914611816
v 15.240814208984375 11.0 10.0
v 16.0 11.0 10.630035400390625
v 16.0 11.0 14.480835914611816
v 15.240814208984375 12.0 10.0
v 16.0 12.0 10.630035400390625
v 16.0 12.0 14.480835914611816
v 16.0 13.0 10.716986656188965
v 16.0 13.0 14.480835914611816
v 16.0 13.945778846740723 11.0
v 15.952768325805664 14.0 11.0
v 16.0 14.0 11.047231674194336
v 16.0 14.0 14.480835914611816
v 15.234500885009766 15.0 11.0
v 16.0 15.0 11.56521224975586
v 16.0 15.0 14.480835914611816
v 16.0 16.0 11.916121482849121
v 16.0 16.0 14.480835914611816
v 16.0 16.152692794799805 12.0
v 16.0 17.0 12.587140083312988
v 16.0 17.0 14.480835914611816
v 16.0 17.851810455322266 13.0
v 15.85180950164795 18.0 13.0
v 16.0 18.0 13.14819049835205
v 16.0 18.0 14.480835914611816
v 16.0 19.0 13.679046630859375
v 16.0 19.0 14.475958824157715
v 16.0 19.497835159301758 14.0
v 16.782779693603516 4.0 14.0
v 17.0 4.213914394378662 14.0
v 17.0 5.0 13.607972145080566
v 17.0 5.0 14.480835914611816
v 17.0 5.931337833404541 13.0
v 17.0 6.0 12.962579727172852
v 17.0 6.0 14.480835914611816
v 16.152692794799805 7.0 12.0
v 17.0 7.0 12.587140083312988
v 17.0 7.0 14.480835914611816
v 16.913494110107422 8.0 12.0
v 17.0 8.0 12.086505889892578
v 17.0 8.0 14.480835914611816
v 17.0 8.087685585021973 12.0
v 17.0 9.0 11.677531242370605
v 17.0 9.0 14.480835914611816
v 16.399465560913086 10.0 11.0
v 17.0 10.0 11.56521224975586
v 17.0 10.0 14.480835914611816
v 16.527122497558594 11.0 11.0
v 17.0 11.0 11.472878456115723
v 17.0 11.0 14.480835914611816
v 16.527122497558594 12.0 11.0
v 17.0 12.0 11.472878456115723
v 17.0 12.0 14.480835914611816
v 16.399465560913086 13.0 11.0
v 17.0 13.0 11.56521224975586
v 17.0 13.0 14.480835914611816
v 17.0 14.0 11.677531242370605
v 17.0 14.0 14.480835914611816
v 17.0 14.912314414978027 12.0
v 16.913494110107422 15.0 12.0
v 17.0 15.0 12.086505889892578
v 17.0 15.0 14.480835914611816
v 16.152692794799805 16.0 12.0
v 17.0 16.0 12.587140083312988
v 17.0 16.0 14.480835914611816
v 17.0 17.0 12.962579727172852
v 17.0 17.0 14.480835914611816
v 17.0 17.068662643432617 13.0
v 17.0 18.0 13.607972145080566
v 17.0 18.0 14.480835914611816
v 17.0 18.78608512878418 14.0
v 16.782779693603516 19.0 14.0
v 17.973127365112305 5.0 14.0
v 17.068662643432617 6.0 13.0
v 18.0 6.0 13.607972145080566
v 18.0 5.026872634887695 14.0
v 18.0 6.0 14.480835914611816
v 17.851810455322266 7.0 13.0
v 18.0 7.0 13.14819049835205
v 18.0 7.0 14.480835914611816
v 18.0 7.148190021514893 13.0
v 18.0 8.0 12.671732902526855
v 18.0 8.0 14.480835914611816
v 17.47231674194336 9.0 12.0
v 18.0 9.0 12.523983001708984
v 18.0 9.0 14.480835914611816
v 17.695646286010742 10.0 12.0
v 18.0 10.0 12.304353713989258
v 18.0 10.0 14.480835914611816
v 17.913494110107422 11.0 12.0
v 18.0 11.0 12.086505889892578
v 18.0 11.0 14.480835914611816
v 17.913494110107422 12.0 12.0
v 18.0 12.0 12.086505889892578
v 18.0 12.0 14.480835914611816
v 17.695646286010742 13.0 12.0
v 18.0 13.0 12.304353713989258
v 18.0 13.0 14.480835914611816
v 17.47231674194336 14.0 12.0
v 18.0 14.0 12.523983001708984
v 18.0 14.0 14.480835914611816
v 18.0 15.0 12.671732902526855
v 18.0 15.0 14.480835914611816
v 18.0 15.85180950164795 13.0
v 17.851810455322266 16.0 13.0
v 18.0 16.0 13.14819049835205
v 18.0 16.0 14.480835914611816
v 17.068662643432617 17.0 13.0
v 18.0 17.0 13.607972145080566
v 18.0 17.0 14.480835914611816
v 18.0 17.973127365112305 14.0
v 17.973127365112305 18.0 14.0
v 18.78608512878418 6.0 14.0
v 19.0 6.217219829559326 14.0
v 19.0 7.0 13.679046630859375
v 19.0 7.0 14.475958824157715
v 18.49695587158203 8.0 13.0
v 19.0 8.0 13.503044128417969
v 19.0 8.0 14.480835914611816
v 18.851810455322266 9.0 13.0
v 19.0 9.0 13.14819049835205
v 19.0 9.0 14.480835914611816
v 19.0 9.299219131469727 13.0
v 19.0 10.0 12.866647720336914
v 19.0 10.0 14.480835914611816
v 19.0 11.0 12.769061088562012
v 19.0 11.0 14.480835914611816
v 19.0 12.0 12.769061088562012
v 19.0 12.0 14.480835914611816
v 19.0 13.0 12.866647720336914
v 19.0 13.0 14.480835914611816
v 19.0 13.700780868530273 13.0
v 18.851810455322266 14.0 13.0
v 19.0 14.0 13.14819049835205
v 19.0 14.0 14.480835914611816
v 18.49695587158203 15.0 13.0
v 19.0 15.0 13.503044128417969
v 19.0 15.0 14.480835914611816
v 19.0 16.0 13.679046630859375
v 19.0 16.0 14.475958824157715
v 19.0 16.782779693603516 14.0
v 18.78608512878418 17.0 14.0
v 19.497835159301758 7.0 14.0
v 19.973127365112305 8.0 14.0
v 20.0 8.036748886108398 14.0
v 20.0 9.0 13.763101577758789
v 20.0 9.0 14.401335716247559
v 19.183368682861328 10.0 13.0
v 20.0 10.0 13.644704818725586
v 20.0 10.0 14.480835914611816
v 19.312707901000977 11.0 13.0
v 20.0 11.0 13.607972145080566
v 20.0 11.0 14.480835914611816
v 19.312707901000977 12.0 13.0
v 20.0 12.0 13.607972145080566
v 20.0 12.0 14.480835914611816
v 19.183368682861328 13.0 13.0
v 20.0 13.0 13.644704818725586
v 20.0 13.0 14.480835914611816
v 20.0 14.0 13.763101577758789
v 20.0 14.0 14.401335716247559
v 20.0 14.963251113891602 14.0
v 19.973127365112305 15.0 14.0
v 19.497835159301758 16.0 14.0
v 20.332307815551758 9.0 14.0
v 20.502721786499023 10.0 14.0
v 20.570510864257812 11.0 14.0
v 20.570510864257812 12.0 14.0
v 20.502721786499023 13.0 14.0
v 20.332307815551758 14.0 14.0
f 3 2 1
f 4 1 2
f 3 1 5
f 3 5 6
f 1 4 7
f 1 7 5
f 6 5 8
f 6 8 9
f 5 7 10
f 5 10 8
f 9 8 11
f 9 11 12
f 8 10 13
f 8 13 11
f 12 11 14
f 12 14 15
f 11 13 16
f 11 16 14
f 15 14 17
f 15 17 18
f 14 16 19
f 14 19 17
f 20 18 17
f 20 17 19
f 23 22 21
f 24 21 22
f 23 21 25
f 23 25 26
f 21 24 27
f 21 27 25
f 26 25 2
f 3 26 2
f 28 26 3
f 4 2 25
f 27 4 25
f 29 4 27
f 32 31 30
f 31 28 30
f 28 6 30
f 28 3 6
f 29 7 4
f 33 7 29
f 32 30 34
f 32 34 35
f 9 34 6
f 6 34 30
f 33 10 7
f 36 10 33
f 35 34 37
f 35 37 38
f 12 37 9
f 9 37 34
f 36 13 10
f 39 13 36
f 38 37 40
f 38 40 41
f 15 40 12
f 12 40 37
f 39 16 13
f 42 16 39
f 43 41 40
f 40 15 43
f 15 44 43
f 15 18 44
f 42 19 16
f 45 19 42
f 18 20 46
f 47 18 46
f 44 18 47
f 48 46 20
f 19 48 20
f 45 48 19
f 47 46 49
f 47 49 50
f 46 48 51
f 46 51 49
f 52 50 49
f 52 49 51
f 55 54 53
f 56 53 54
f 55 53 22
f 23 55 22
f 57 55 23
f 24 22 53
f 56 24 53
f 58 24 56
f 61 60 59
f 60 57 59
f 57 26 59
f 57 23 26
f 58 27 24
f 62 27 58
f 61 59 63
f 61 63 64
f 28 63 26
f 26 63 59
f 62 29 27
f 65 29 62
f 64 63 31
f 32 64 31
f 66 64 32
f 31 63 28
f 65 33 29
f 67 33 65
f 35 66 32
f 35 68 66
f 67 36 33
f 69 36 67
f 38 68 35
f 38 70 68
f 69 39 36
f 71 39 69
f 41 70 38
f 41 72 70
f 71 42 39
f 73 42 71
f 41 43 74
f 75 41 74
f 72 41 75
f 44 74 43
f 73 45 42
f 76 45 73
f 75 74 77
f 75 77 78
f 47 77 44
f 44 77 74
f 76 48 45
f 79 48 76
f 80 78 77
f 77 47 80
f 47 81 80
f 47 50 81
f 79 51 48
f 82 51 79
f 50 52 83
f 84 50 83
f 81 50 84
f 85 83 52
f 51 85 52
f 82 85 51
f 86 84 83
f 86 83 85
f 89 88 87
f 90 87 88
f 93 92 91
f 91 92 89
f 91 89 87
f 55 91 87
f 54 55 87
f 56 54 87
f 90 56 87
f 94 56 90
f 93 91 95
f 93 95 96
f 57 95 55
f 55 95 91
f 94 58 56
f 97 58 94
f 96 95 60
f 61 96 60
f 98 96 61
f 60 95 57
f 97 62 58
f 99 62 97
f 102 101 100
f 101 98 100
f 98 64 100
f 98 61 64
f 99 65 62
f 103 65 99
f 102 100 104
f 102 104 105
f 66 104 64
f 64 104 100
f 103 67 65
f 106 67 103
f 105 104 107
f 105 107 108
f 68 107 66
f 66 107 104
f 106 69 67
f 109 69 106
f 108 107 110
f 108 110 111
f 70 110 68
f 68 110 107
f 109 71 69
f 112 71 109
f 111 110 113
f 111 113 114
f 72 113 70
f 70 113 110
f 112 73 71
f 115 73 112
f 114 113 116
f 114 116 117
f 75 116 72
f 72 116 113
f 115 76 73
f 118 76 115
f 119 117 116
f 116 75 119
f 75 120 119
f 75 78 120
f 118 79 76
f 121 79 118
f 78 80 122
f 123 78 122
f 120 78 123
f 81 122 80
f 121 82 79
f 124 82 121
f 123 122 125
f 123 125 126
f 84 125 81
f 81 125 122
f 124 85 82
f 127 85 124
f 128 126 125
f 130 128 129
f 129 128 86
f 128 125 86
f 125 84 86
f 131 129 86
f 85 131 86
f 127 131 85
f 132 130 129
f 132 129 131
f 135 134 133
f 136 133 134
f 135 133 88
f 89 135 88
f 137 135 89
f 90 88 133
f 136 90 133
f 138 90 136
f 140 139 92
f 140 92 93
f 89 92 137
f 137 92 139
f 138 94 90
f 141 94 138
f 144 143 142
f 143 140 142
f 140 96 142
f 140 93 96
f 141 97 94
f 145 97 141
f 144 142 146
f 144 146 147
f 98 146 96
f 96 146 142
f 145 99 97
f 148 99 145
f 147 146 101
f 102 147 101
f 149 147 102
f 101 146 98
f 148 103 99
f 150 103 148
f 153 152 151
f 152 149 151
f 149 105 151
f 149 102 105
f 150 106 103
f 154 106 150
f 153 151 155
f 153 155 156
f 108 155 105
f 105 155 151
f 154 109 106
f 157 109 154
f 156 155 158
f 156 158 159
f 111 158 108
f 108 158 155
f 157 112 109
f 160 112 157
f 159 158 161
f 159 161 162
f 114 161 111
f 111 161 158
f 160 115 112
f 163 115 160
f 164 162 161
f 161 114 164
f 114 165 164
f 114 117 165
f 163 118 115
f 166 118 163
f 117 119 167
f 168 117 167
f 165 117 168
f 120 167 119
f 166 121 118
f 169 121 166
f 168 167 170
f 168 170 171
f 123 170 120
f 120 170 167
f 169 124 121
f 172 124 169
f 173 171 170
f 170 123 173
f 123 174 173
f 123 126 174
f 172 127 124
f 175 127 172
f 176 174 126
f 176 126 128
f 128 130 176
f 176 130 177
f 175 131 127
f 178 131 175
f 130 132 179
f 180 130 179
f 177 130 180
f 181 179 132
f 131 181 132
f 178 181 131
f 182 180 179
f 182 179 181
f 184 183 134
f 184 134 135
f 136 134 183
f 136 183 185
f 188 187 186
f 187 184 186
f 184 137 186
f 184 135 137
f 185 138 136
f 189 138 185
f 188 186 139
f 140 188 139
f 190 188 140
f 139 186 137
f 189 141 138
f 191 141 189
f 193 192 143
f 193 143 144
f 140 143 190
f 190 143 192
f 191 145 141
f 194 145 191
f 197 196 195
f 196 193 195
f 193 147 195
f 193 144 147
f 194 148 145
f 198 148 194
f 197 195 199
f 197 199 200
f 149 199 147
f 147 199 195
f 198 150 148
f 201 150 198
f 200 199 152
f 153 200 152
f 202 200 153
f 152 199 149
f 201 154 150
f 203 154 201
f 206 205 204
f 205 202 204
f 202 156 204
f 202 153 156
f 203 157 154
f 207 157 203
f 206 204 208
f 206 208 209
f 159 208 156
f 156 208 204
f 207 160 157
f 210 160 207
f 211 209 208
f 208 159 211
f 159 212 211
f 159 162 212
f 210 163 160
f 213 163 210
f 162 164 214
f 215 162 214
f 212 162 215
f 165 214 164
f 213 166 163
f 216 166 213
f 215 214 217
f 215 217 218
f 168 217 165
f 165 217 214
f 216 169 166
f 219 169 216
f 220 218 217
f 217 168 220
f 168 221 220
f 168 171 221
f 219 172 169
f 222 172 219
f 223 221 171
f 223 171 173
f 173 174 223
f 223 174 224
f 222 175 172
f 225 175 222
f 174 176 226
f 227 174 226
f 224 174 227
f 177 226 176
f 225 178 175
f 228 178 225
f 229 227 226
f 226 177 229
f 177 230 229
f 177 180 230
f 228 181 178
f 231 181 228
f 232 230 180
f 232 180 182
f 182 181 231
f 182 231 232
f 235 234 233
f 236 233 234
f 235 233 183
f 184 235 183
f 237 235 184
f 185 183 233
f 236 185 233
f 238 185 236
f 240 239 187
f 240 187 188
f 184 187 237
f 237 187 239
f 238 189 185
f 241 189 238
f 244 243 242
f 243 240 242
f 240 190 242
f 240 188 190
f 241 191 189
f 245 191 241
f 244 242 192
f 193 244 192
f 246 244 193
f 192 242 190
f 245 194 191
f 247 194 245
f 249 248 196
f 249 196 197
f 193 196 246
f 246 196 248
f 247 198 194
f 250 198 247
f 253 252 251
f 252 249 251
f 249 200 251
f 249 197 200
f 250 201 198
f 254 201 250
f 253 251 255
f 253 255 256
f 202 255 200
f 200 255 251
f 254 203 201
f 257 203 254
f 256 255 205
f 206 256 205
f 258 256 206
f 205 255 202
f 257 207 203
f 259 207 257
f 209 258 206
f 209 260 258
f 259 210 207
f 261 210 259
f 209 211 262
f 263 209 262
f 260 209 263
f 212 262 211
f 261 213 210
f 264 213 261
f 263 262 265
f 263 265 266
f 215 265 212
f 212 265 262
f 264 216 213
f 267 216 264
f 268 266 265
f 265 215 268
f 215 269 268
f 215 218 269
f 267 219 216
f 270 219 267
f 271 269 218
f 271 218 220
f 220 221 271
f 271 221 272
f 270 222 219
f 273 222 270
f 221 223 274
f 275 221 274
f 272 221 275
f 224 274 223
f 273 225 222
f 276 225 273
f 277 275 274
f 274 224 277
f 224 278 277
f 224 227 278
f 276 228 225
f 279 228 276
f 280 278 227
f 280 227 229
f 229 230 280
f 280 230 281
f 279 231 228
f 282 231 279
f 230 232 283
f 284 230 283
f 281 230 284
f 285 283 232
f 231 285 232
f 282 285 231
f 286 284 283
f 286 283 285
f 288 287 234
f 288 234 235
f 236 234 287
f 236 287 289
f 292 291 290
f 291 288 290
f 288 237 290
f 288 235 237
f 289 238 236
f 293 238 289
f 292 290 239
f 240 292 239
f 294 292 240
f 239 290 237
f 293 241 238
f 295 241 293
f 297 296 243
f 297 243 244
f 240 243 294
f 294 243 296
f 295 245 241
f 298 245 295
f 301 300 299
f 300 297 299
f 297 246 299
f 297 244 246
f 298 247 245
f 302 247 298
f 301 299 248
f 249 301 248
f 303 301 249
f 248 299 246
f 302 250 247
f 304 250 302
f 306 305 252
f 306 252 253
f 249 252 303
f 303 252 305
f 304 254 250
f 307 254 304
f 310 309 308
f 309 306 308
f 306 256 308
f 306 253 256
f 307 257 254
f 311 257 307
f 310 308 312
f 310 312 313
f 258 312 256
f 256 312 308
f 311 259 257
f 314 259 311
f 313 312 315
f 313 315 316
f 260 315 258
f 258 315 312
f 314 261 259
f 317 261 314
f 316 315 318
f 316 318 319
f 263 318 260
f 260 318 315
f 317 264 261
f 320 264 317
f 321 319 318
f 318 263 321
f 263 322 321
f 263 266 322
f 320 267 264
f 323 267 320
f 324 322 266
f 324 266 268
f 268 269 324
f 324 269 325
f 323 270 267
f 326 270 323
f 269 271 327
f 328 269 327
f 325 269 328
f 272 327 271
f 326 273 270
f 329 273 326
f 330 328 327
f 327 272 330
f 272 331 330
f 272 275 331
f 329 276 273
f 332 276 329
f 333 331 275
f 333 275 277
f 277 278 333
f 333 278 334
f 332 279 276
f 335 279 332
f 278 280 336
f 337 278 336
f 334 278 337
f 281 336 280
f 335 282 279
f 338 282 335
f 339 337 336
f 336 281 339
f 281 340 339
f 281 284 340
f 338 285 282
f 341 285 338
f 342 340 284
f 342 284 286
f 286 285 341
f 286 341 342
f 344 343 287
f 344 287 288
f 289 287 343
f 289 343 345
f 347 346 291
f 347 291 292
f 288 291 344
f 344 291 346
f 345 293 289
f 348 293 345
f 294 347 292
f 294 349 347
f 348 295 293
f 350 295 348
f 352 351 296
f 352 296 297
f 294 296 349
f 349 296 351
f 350 298 295
f 353 298 350
f 355 354 300
f 355 300 301
f 297 300 352
f 352 300 354
f 353 302 298
f 356 302 353
f 359 358 357
f 358 355 357
f 355 303 357
f 355 301 303
f 356 304 302
f 360 304 356
f 359 357 305
f 306 359 305
f 361 359 306
f 305 357 303
f 360 307 304
f 362 307 360
f 364 363 309
f 364 309 310
f 306 309 361
f 361 309 363
f 362 311 307
f 365 311 362
f 313 364 310
f 313 366 364
f 365 314 311
f 367 314 365
f 316 366 313
f 316 368 366
f 367 317 314
f 369 317 367
f 319 368 316
f 319 370 368
f 369 320 317
f 371 320 369
f 372 370 319
f 372 319 321
f 321 322 372
f 372 322 373
f 371 323 320
f 374 323 371
f 322 324 375
f 376 322 375
f 373 322 376
f 325 375 324
f 374 326 323
f 377 326 374
f 378 376 375
f 375 325 378
f 325 379 378
f 325 328 379
f 377 329 326
f 380 329 377
f 381 379 328
f 381 328 330
f 330 331 381
f 381 331 382
f 380 332 329
f 383 332 380
f 384 382 331
f 384 331 333
f 333 334 384
f 384 334 385
f 383 335 332
f 386 335 383
f 337 385 334
f 337 387 385
f 386 338 335
f 388 338 386
f 389 387 337
f 389 337 339
f 339 340 389
f 389 340 390
f 388 341 338
f 391 341 388
f 392 390 340
f 392 340 342
f 342 341 391
f 342 391 392
f 394 393 343
f 394 343 344
f 345 343 393
f 345 393 395
f 397 396 346
f 397 346 347
f 344 346 394
f 394 346 396
f 395 348 345
f 398 348 395
f 349 397 347
f 349 399 397
f 398 350 348
f 400 350 398
f 402 401 351
f 402 351 352
f 349 351 399
f 399 351 401
f 400 353 350
f 403 353 400
f 405 404 354
f 405 354 355
f 352 354 402
f 402 354 404
f 403 356 353
f 406 356 403
f 408 407 358
f 408 358 359
f 355 358 405
f 405 358 407
f 406 360 356
f 409 360 406
f 361 408 359
f 361 410 408
f 409 362 360
f 411 362 409
f 413 412 363
f 413 363 364
f 361 363 410
f 410 363 412
f 411 365 362
f 414 365 411
f 366 413 364
f 366 415 413
f 414 367 365
f 416 367 414
f 368 415 366
f 368 417 415
f 416 369 367
f 418 369 416
f 370 417 368
f 370 419 417
f 418 371 369
f 420 371 418
f 421 419 370
f 421 370 372
f 372 373 421
f 421 373 422
f 420 374 371
f 423 374 420
f 376 422 373
f 376 424 422
f 423 377 374
f 425 377 423
f 426 424 376
f 426 376 378
f 378 379 426
f 426 379 427
f 425 380 377
f 428 380 425
f 429 427 379
f 429 379 381
f 381 382 429
f 429 382 430
f 428 383 380
f 431 383 428
f 432 430 382
f 432 382 384
f 384 385 432
f 432 385 433
f 431 386 383
f 434 386 431
f 387 433 385
f 387 435 433
f 434 388 386
f 436 388 434
f 437 435 387
f 437 387 389
f 389 390 437
f 437 390 438
f 436 391 388
f 439 391 436
f 440 438 390
f 440 390 392
f 392 391 439
f 392 439 440
f 442 441 393
f 442 393 394
f 395 393 441
f 395 441 443
f 445 444 396
f 445 396 397
f 394 396 442
f 442 396 444
f 443 398 395
f 446 398 443
f 399 445 397
f 399 447 445
f 446 400 398
f 448 400 446
f 450 449 401
f 450 401 402
f 399 401 447
f 447 401 449
f 448 403 400
f 451 403 448
f 453 452 404
f 453 404 405
f 402 404 450
f 450 404 452
f 451 406 403
f 454 406 451
f 408 455 407
f 455 456 407
f 456 405 407
f 456 453 405
f 454 409 406
f 457 409 454
f 459 458 455
f 408 459 455
f 410 459 408
f 455 458 456
f 457 411 409
f 460 411 457
f 462 461 412
f 462 412 413
f 410 412 459
f 459 412 461
f 460 414 411
f 463 414 460
f 415 462 413
f 415 464 462
f 463 416 414
f 465 416 463
f 417 464 415
f 417 466 464
f 465 418 416
f 467 418 465
f 419 466 417
f 419 468 466
f 467 420 418
f 469 420 467
f 470 468 419
f 470 419 421
f 421 422 470
f 470 422 471
f 469 423 420
f 472 423 469
f 424 474 473
f 471 424 473
f 422 424 471
f 474 475 473
f 472 425 423
f 476 425 472
f 426 474 424
f 426 427 474
f 427 475 474
f 427 477 475
f 476 428 425
f 478 428 476
f 479 477 427
f 479 427 429
f 429 430 479
f 479 430 480
f 478 431 428
f 481 431 478
f 482 480 430
f 482 430 432
f 432 433 482
f 482 433 483
f 481 434 431
f 484 434 481
f 435 483 433
f 435 485 483
f 484 436 434
f 486 436 484
f 487 485 435
f 487 435 437
f 437 438 487
f 487 438 488
f 486 439 436
f 489 439 486
f 490 488 438
f 490 438 440
f 440 439 489
f 440 489 490
f 492 491 441
f 492 441 442
f 443 441 491
f 443 491 493
f 445 494 444
f 494 495 444
f 495 442 444
f 495 492 442
f 493 446 443
f 496 446 493
f 498 497 494
f 445 498 494
f 447 498 445
f 494 497 495
f 496 448 446
f 499 448 496
f 501 500 449
f 501 449 450
f 447 449 498
f 498 449 500
f 499 451 448
f 502 451 499
f 453 503 452
f 503 504 452
f 504 450 452
f 504 501 450
f 502 454 451
f 505 454 502
f 507 506 503
f 453 507 503
f 456 507 453
f 503 506 504
f 505 457 454
f 508 457 505
f 510 509 458
f 510 458 459
f 456 458 507
f 507 458 509
f 508 460 457
f 511 460 508
f 462 512 461
f 512 513 461
f 513 459 461
f 513 510 459
f 511 463 460
f 514 463 511
f 464 515 512
f 464 512 462
f 513 512 516
f 516 512 515
f 514 465 463
f 517 465 514
f 466 518 515
f 466 515 464
f 516 515 519
f 519 515 518
f 517 467 465
f 520 467 517
f 468 521 518
f 468 518 466
f 519 518 522
f 522 518 521
f 520 469 467
f 523 469 520
f 470 521 468
f 470 471 521
f 471 522 521
f 471 524 522
f 523 472 469
f 525 472 523
f 526 524 471
f 526 471 473
f 473 475 526
f 526 475 527
f 525 476 472
f 528 476 525
f 477 530 529
f 527 477 529
f 475 477 527
f 530 531 529
f 528 478 476
f 532 478 528
f 479 530 477
f 479 480 530
f 480 531 530
f 480 533 531
f 532 481 478
f 534 481 532
f 535 533 480
f 535 480 482
f 482 483 535
f 535 483 536
f 534 484 481
f 537 484 534
f 485 539 538
f 536 485 538
f 483 485 536
f 539 540 538
f 537 486 484
f 541 486 537
f 487 539 485
f 487 488 539
f 488 540 539
f 488 542 540
f 541 489 486
f 543 489 541
f 544 542 488
f 544 488 490
f 490 489 543
f 490 543 544
f 492 545 491
f 545 493 491
f 547 546 545
f 492 547 545
f 495 547 492
f 493 545 546
f 548 493 546
f 496 493 548
f 550 549 497
f 550 497 498
f 495 497 547
f 547 497 549
f 548 499 496
f 551 499 548
f 501 552 500
f 552 553 500
f 553 498 500
f 553 550 498
f 551 502 499
f 554 502 551
f 556 555 552
f 501 556 552
f 504 556 501
f 552 555 553
f 554 505 502
f 557 505 554
f 559 558 506
f 559 506 507
f 504 506 556
f 556 506 558
f 557 508 505
f 560 508 557
f 510 561 509
f 561 562 509
f 562 507 509
f 562 559 507
f 560 511 508
f 563 511 560
f 513 564 561
f 513 561 510
f 562 561 565
f 565 561 564
f 563 514 511
f 566 514 563
f 568 567 564
f 513 568 564
f 516 568 513
f 564 567 565
f 566 517 514
f 569 517 566
f 519 568 516
f 519 570 568
f 569 520 517
f 571 520 569
f 522 573 572
f 570 522 572
f 519 522 570
f 573 574 572
f 571 523 520
f 575 523 571
f 524 576 573
f 524 573 522
f 574 573 577
f 577 573 576
f 575 525 523
f 578 525 575
f 526 576 524
f 526 527 576
f 527 577 576
f 527 579 577
f 578 528 525
f 580 528 578
f 581 579 527
f 581 527 529
f 529 531 581
f 581 531 582
f 580 532 528
f 583 532 580
f 533 585 584
f 582 533 584
f 531 533 582
f 585 586 584
f 583 534 532
f 587 534 583
f 535 585 533
f 535 536 585
f 536 586 585
f 536 588 586
f 587 537 534
f 589 537 587
f 590 588 536
f 590 536 538
f 538 540 590
f 590 540 591
f 589 541 537
f 592 541 589
f 542 594 593
f 591 542 593
f 540 542 591
f 592 593 594
f 543 592 594
f 541 592 543
f 544 594 542
f 594 544 543
f 596 595 546
f 596 546 547
f 548 546 595
f 548 595 597
f 550 598 549
f 598 599 549
f 599 547 549
f 599 596 547
f 597 551 548
f 600 551 597
f 602 601 598
f 550 602 598
f 553 602 550
f 598 601 599
f 600 554 551
f 603 554 600
f 605 604 555
f 605 555 556
f 553 555 602
f 602 555 604
f 603 557 554
f 606 557 603
f 559 607 558
f 607 608 558
f 608 556 558
f 608 605 556
f 606 560 557
f 609 560 606
f 562 610 607
f 562 607 559
f 608 607 611
f 611 607 610
f 609 563 560
f 612 563 609
f 614 613 610
f 562 614 610
f 565 614 562
f 610 613 611
f 612 566 563
f 615 566 612
f 568 616 567
f 616 617 567
f 617 565 567
f 617 614 565
f 615 569 566
f 618 569 615
f 570 619 616
f 570 616 568
f 617 616 620
f 620 616 619
f 618 571 569
f 621 571 618
f 572 619 570
f 572 574 619
f 574 620 619
f 574 622 620
f 621 575 571
f 623 575 621
f 577 625 624
f 622 577 624
f 574 577 622
f 625 626 624
f 623 578 575
f 627 578 623
f 579 628 625
f 579 625 577
f 626 625 629
f 629 625 628
f 627 580 578
f 630 580 627
f 581 628 579
f 581 582 628
f 582 629 628
f 582 631 629
f 630 583 580
f 632 583 630
f 633 631 582
f 633 582 584
f 584 586 633
f 633 586 634
f 632 587 583
f 635 587 632
f 588 637 636
f 634 588 636
f 586 588 634
f 637 638 636
f 635 589 587
f 639 589 635
f 590 637 588
f 590 591 637
f 591 638 637
f 591 640 638
f 639 592 589
f 641 592 639
f 642 640 591
f 642 591 593
f 593 592 641
f 593 641 642
f 596 643 595
f 643 597 595
f 645 644 643
f 596 645 643
f 599 645 596
f 597 643 644
f 646 597 644
f 600 597 646
f 648 647 601
f 648 601 602
f 599 601 645
f 645 601 647
f 646 603 600
f 649 603 646
f 605 650 604
f 650 651 604
f 651 602 604
f 651 648 602
f 649 606 603
f 652 606 649
f 608 653 650
f 608 650 605
f 651 650 654
f 654 650 653
f 652 609 606
f 655 609 652
f 657 656 653
f 608 657 653
f 611 657 608
f 653 656 654
f 655 612 609
f 658 612 655
f 614 659 613
f 659 660 613
f 660 611 613
f 660 657 611
f 658 615 612
f 661 615 658
f 617 662 659
f 617 659 614
f 660 659 663
f 663 659 662
f 661 618 615
f 664 618 661
f 620 665 662
f 620 662 617
f 663 662 666
f 666 662 665
f 664 621 618
f 667 621 664
f 622 668 665
f 622 665 620
f 666 665 669
f 669 665 668
f 667 623 621
f 670 623 667
f 624 668 622
f 624 626 668
f 626 669 668
f 626 671 669
f 670 627 623
f 672 627 670
f 629 674 673
f 671 629 673
f 626 629 671
f 674 675 673
f 672 630 627
f 676 630 672
f 631 677 674
f 631 674 629
f 675 674 678
f 678 674 677
f 676 632 630
f 679 632 676
f 633 677 631
f 633 634 677
f 634 678 677
f 634 680 678
f 679 635 632
f 681 635 679
f 682 680 634
f 682 634 636
f 636 638 682
f 682 638 683
f 681 639 635
f 684 639 681
f 640 686 685
f 683 640 685
f 638 640 683
f 684 685 686
f 641 684 686
f 639 684 641
f 642 686 640
f 686 642 641
f 645 687 644
f 687 646 644
f 648 688 647
f 688 689 647
f 647 689 645
f 689 690 645
f 690 687 645
f 646 687 690
f 691 646 690
f 649 646 691
f 651 692 688
f 651 688 648
f 689 688 693
f 693 688 692
f 691 652 649
f 694 652 691
f 696 695 692
f 651 696 692
f 654 696 651
f 692 695 693
f 694 655 652
f 697 655 694
f 657 698 656
f 698 699 656
f 699 654 656
f 699 696 654
f 697 658 655
f 700 658 697
f 660 701 698
f 660 698 657
f 699 698 702
f 702 698 701
f 700 661 658
f 703 661 700
f 663 704 701
f 663 701 660
f 702 701 705
f 705 701 704
f 703 664 661
f 706 664 703
f 666 707 704
f 666 704 663
f 705 704 708
f 708 704 707
f 706 667 664
f 709 667 706
f 669 710 707
f 669 707 666
f 708 707 711
f 711 707 710
f 709 670 667
f 712 670 709
f 671 713 710
f 671 710 669
f 711 710 714
f 714 710 713
f 712 672 670
f 715 672 712
f 673 713 671
f 673 675 713
f 675 714 713
f 675 716 714
f 715 676 672
f 717 676 715
f 678 719 718
f 716 678 718
f 675 678 716
f 719 720 718
f 717 679 676
f 721 679 717
f 680 722 719
f 680 719 678
f 720 719 723
f 723 719 722
f 721 681 679
f 724 681 721
f 682 722 680
f 726 725 683
f 683 725 682
f 725 723 682
f 723 722 682
f 724 725 726
f 684 724 726
f 681 724 684
f 685 726 683
f 726 685 684
f 689 727 690
f 727 691 690
f 729 728 727
f 689 729 727
f 693 729 689
f 691 727 728
f 730 691 728
f 694 691 730
f 696 731 695
f 731 732 695
f 732 693 695
f 732 729 693
f 730 697 694
f 733 697 730
f 699 734 731
f 699 731 696
f 732 731 735
f 735 731 734
f 733 700 697
f 736 700 733
f 738 737 734
f 699 738 734
f 702 738 699
f 734 737 735
f 736 703 700
f 739 703 736
f 705 738 702
f 705 740 738
f 739 706 703
f 741 706 739
f 708 740 705
f 708 742 740
f 741 709 706
f 743 709 741
f 711 742 708
f 711 744 742
f 743 712 709
f 745 712 743
f 714 747 746
f 744 714 746
f 711 714 744
f 747 748 746
f 745 715 712
f 749 715 745
f 716 750 747
f 716 747 714
f 748 747 751
f 751 747 750
f 749 717 715
f 752 717 749
f 718 750 716
f 718 720 750
f 720 751 750
f 720 753 751
f 752 721 717
f 754 721 752
f 723 756 755
f 753 723 755
f 720 723 753
f 754 755 756
f 724 754 756
f 721 754 724
f 725 756 723
f 756 725 724
f 729 757 728
f 757 730 728
f 732 758 757
f 732 757 729
f 758 733 730
f 758 730 757
f 760 759 758
f 732 760 758
f 735 760 732
f 733 758 759
f 761 733 759
f 736 733 761
f 738 762 737
f 762 763 737
f 763 735 737
f 763 760 735
f 761 739 736
f 764 739 761
f 740 765 762
f 740 762 738
f 763 762 766
f 766 762 765
f 764 741 739
f 767 741 764
f 742 768 765
f 742 765 740
f 766 765 769
f 769 765 768
f 767 743 741
f 770 743 767
f 744 771 768
f 744 768 742
f 769 768 772
f 772 768 771
f 770 745 743
f 773 745 770
f 746 771 744
f 746 748 771
f 748 772 771
f 748 774 772
f 773 749 745
f 775 749 773
f 751 777 776
f 774 751 776
f 748 751 774
f 775 776 777
f 752 775 777
f 749 775 752
f 753 778 777
f 753 777 751
f 778 754 752
f 778 752 777
f 755 778 753
f 778 755 754
f 760 779 759
f 779 761 759
f 763 780 779
f 763 779 760
f 780 764 761
f 780 761 779
f 766 781 780
f 766 780 763
f 781 767 764
f 781 764 780
f 769 782 781
f 769 781 766
f 782 770 767
f 782 767 781
f 772 783 782
f 772 782 769
f 783 773 770
f 783 770 782
f 774 784 783
f 774 783 772
f 784 775 773
f 784 773 783
f 776 784 774
f 784 776 775
