v 2.9961721897125244 9.0 13.0
v 3.0 8.988903999328613 13.0
v 3.0 9.0 12.997939109802246
v 3.0 9.0 13.043011665344238
v 2.7644131183624268 10.0 13.0
v 3.0 10.0 12.87016487121582
v 3.0 10.0 13.739042282104492
v 2.6504430770874023 11.0 13.0
v 3.0 11.0 12.804990768432617
v 3.0 11.0 13.809656143188477
v 2.6504430770874023 12.0 13.0
v 3.0 12.0 12.804990768432617
v 3.0 12.0 13.809656143188477
v 2.7644131183624268 13.0 13.0
v 3.0 13.0 12.87016487121582
v 3.0 13.0 13.739042282104492
v 2.9961721897125244 14.0 13.0
v 3.0 14.0 12.997939109802246
v 3.0 14.0 13.043011665344238
v 3.0 14.011096000671387 13.0
v 3.8653881549835205 7.0 13.0
v 4.0 6.7883405685424805 13.0
v 4.0 7.0 12.934470176696777
v 4.0 7.0 13.588372230529785
v 3.481562376022339 8.0 13.0
v 4.0 8.0 12.77264404296875
v 4.0 8.0 13.81176471710205
v 4.0 9.0 12.70154094696045
v 4.0 9.0 13.81176471710205
v 4.0 10.0 12.618868827819824
v 4.0 10.0 13.81176471710205
v 4.0 11.0 12.555765151977539
v 4.0 11.0 13.81176471710205
v 4.0 12.0 12.555765151977539
v 4.0 12.0 13.81176471710205
v 4.0 13.0 12.618868827819824
v 4.0 13.0 13.81176471710205
v 4.0 14.0 12.70154094696045
v 4.0 14.0 13.81176471710205
v 3.481562376022339 15.0 13.0
v 4.0 15.0 12.77264404296875
v 4.0 15.0 13.81176471710205
v 3.8653881549835205 16.0 13.0
v 4.0 16.0 12.934470176696777
v 4.0 16.0 13.588372230529785
v 4.0 16.211658477783203 13.0
v 4.555870056152344 6.0 13.0
v 5.0 5.484993934631348 13.0
v 5.0 6.0 12.804990768432617
v 5.0 6.0 13.809656143188477
v 5.0 7.0 12.70154094696045
v 5.0 7.0 13.81176471710205
v 5.0 8.0 12.465725898742676
v 5.0 8.0 13.81176471710205
v 4.883409023284912 9.0 12.0
v 5.0 8.737527847290039 12.0
v 5.0 9.0 11.953350067138672
v 5.0 9.0 13.81176471710205
v 4.618868827819824 10.0 12.0
v 5.0 10.0 11.846405982971191
v 5.0 10.0 13.81176471710205
v 4.555765151977539 11.0 12.0
v 5.0 11.0 11.835583686828613
v 5.0 11.0 13.81176471710205
v 4.555765151977539 12.0 12.0
v 5.0 12.0 11.835583686828613
v 5.0 12.0 13.81176471710205
v 4.618868827819824 13.0 12.0
v 5.0 13.0 11.846405982971191
v 5.0 13.0 13.81176471710205
v 4.883409023284912 14.0 12.0
v 5.0 14.0 11.953350067138672
v 5.0 14.0 13.81176471710205
v 5.0 14.262472152709961 12.0
v 5.0 15.0 12.465725898742676
v 5.0 15.0 13.81176471710205
v 5.0 16.0 12.70154094696045
v 5.0 16.0 13.81176471710205
v 4.555870056152344 17.0 13.0
v 5.0 17.0 12.804990768432617
v 5.0 17.0 13.809656143188477
v 5.0 17.51500701904297 13.0
v 5.484993934631348 5.0 13.0
v 6.0 4.555870056152344 13.0
v 6.0 5.0 12.804990768432617
v 6.0 5.0 13.809656143188477
v 6.0 6.0 12.665569305419922
v 6.0 6.0 13.81176471710205
v 6.0 7.0 12.08381462097168
v 6.0 7.0 13.81176471710205
v 5.465725898742676 8.0 12.0
v 6.0 7.08381462097168 12.0
v 6.0 8.0 11.835583686828613
v 6.0 8.0 13.81176471710205
v 6.0 9.0 11.788681030273438
v 6.0 9.0 13.81176471710205
v 6.0 10.0 11.734711647033691
v 6.0 10.0 13.81176471710205
v 6.0 11.0 11.693803787231445
v 6.0 11.0 13.81176471710205
v 6.0 12.0 11.693803787231445
v 6.0 12.0 13.81176471710205
v 6.0 13.0 11.734711647033691
v 6.0 13.0 13.81176471710205
v 6.0 14.0 11.788681030273438
v 6.0 14.0 13.81176471710205
v 5.465725898742676 15.0 12.0
v 6.0 15.0 11.835583686828613
v 6.0 15.0 13.81176471710205
v 6.0 15.91618537902832 12.0
v 6.0 16.0 12.08381462097168
v 6.0 16.0 13.81176471710205
v 6.0 17.0 12.665569305419922
v 6.0 17.0 13.81176471710205
v 5.484993934631348 18.0 13.0
v 6.0 18.0 12.804990768432617
v 6.0 18.0 13.809656143188477
v 6.0 18.444129943847656 13.0
v 6.7883405685424805 4.0 13.0
v 7.0 3.8653881549835205 13.0
v 7.0 4.0 12.934470176696777
v 7.0 4.0 13.588372230529785
v 7.0 5.0 12.70154094696045
v 7.0 5.0 13.81176471710205
v 7.0 6.0 12.08381462097168
v 7.0 6.0 13.81176471710205
v 6.08381462097168 7.0 12.0
v 7.0 6.08381462097168 12.0
v 7.0 7.0 11.822802543640137
v 7.0 7.0 13.81176471710205
v 7.0 8.0 11.734711647033691
v 7.0 8.0 13.81176471710205
v 7.0 9.0 11.546789169311523
v 7.0 9.0 13.81176471710205
v 7.0 10.0 11.059808731079102
v 7.0 10.0 13.81176471710205
v 6.805811882019043 11.0 11.0
v 7.0 10.10434341430664 11.0
v 7.0 11.0 10.892043113708496
v 7.0 11.0 13.81176471710205
v 6.805811882019043 12.0 11.0
v 7.0 12.0 10.892043113708496
v 7.0 12.0 13.81176471710205
v 7.0 12.89565658569336 11.0
v 7.0 13.0 11.059808731079102
v 7.0 13.0 13.81176471710205
v 7.0 14.0 11.546789169311523
v 7.0 14.0 13.81176471710205
v 7.0 15.0 11.734711647033691
v 7.0 15.0 13.81176471710205
v 6.08381462097168 16.0 12.0
v 7.0 16.0 11.822802543640137
v 7.0 16.0 13.81176471710205
v 7.0 16.91618537902832 12.0
v 7.0 17.0 12.08381462097168
v 7.0 17.0 13.81176471710205
v 7.0 18.0 12.70154094696045
v 7.0 18.0 13.81176471710205
v 6.7883405685424805 19.0 13.0
v 7.0 19.0 12.934470176696777
v 7.0 19.0 13.588372230529785
v 7.0 19.134611129760742 13.0
v 8.0 3.481562376022339 13.0
v 8.0 4.0 12.77264404296875
v 8.0 4.0 13.81176471710205
v 8.0 5.0 12.465725898742676
v 8.0 5.0 13.81176471710205
v 7.08381462097168 6.0 12.0
v 8.0 5.465725898742676 12.0
v 8.0 6.0 11.835583686828613
v 8.0 6.0 13.81176471710205
v 8.0 7.0 11.734711647033691
v 8.0 7.0 13.81176471710205
v 8.0 8.0 11.392733573913574
v 8.0 8.0 13.81176471710205
v 7.546789169311523 9.0 11.0
v 8.0 8.392733573913574 11.0
v 8.0 9.0 10.794734954833984
v 8.0 9.0 13.81176471710205
v 7.059808731079102 10.0 11.0
v 8.0 10.0 10.712453842163086
v 8.0 10.0 13.81176471710205
v 8.0 11.0 10.630724906921387
v 8.0 11.0 13.81176471710205
v 8.0 12.0 10.630724906921387
v 8.0 12.0 13.81176471710205
v 7.059808731079102 13.0 11.0
v 8.0 13.0 10.712453842163086
v 8.0 13.0 13.81176471710205
v 7.546789169311523 14.0 11.0
v 8.0 14.0 10.794734954833984
v 8.0 14.0 13.81176471710205
v 8.0 14.607266426086426 11.0
v 8.0 15.0 11.392733573913574
v 8.0 15.0 13.81176471710205
v 8.0 16.0 11.734711647033691
v 8.0 16.0 13.81176471710205
v 7.08381462097168 17.0 12.0
v 8.0 17.0 11.835583686828613
v 8.0 17.0 13.81176471710205
v 8.0 17.53427505493164 12.0
v 8.0 18.0 12.465725898742676
v 8.0 18.0 13.81176471710205
v 8.0 19.0 12.77264404296875
v 8.0 19.0 13.81176471710205
v 8.0 19.5184383392334 13.0
v 8.988903999328613 3.0 13.0
v 9.0 2.9961721897125244 13.0
v 9.0 3.0 12.997939109802246
v 9.0 3.0 13.043011665344238
v 9.0 4.0 12.70154094696045
v 9.0 4.0 13.81176471710205
v 8.737527847290039 5.0 12.0
v 9.0 4.883409023284912 12.0
v 9.0 5.0 11.953350067138672
v 9.0 5.0 13.81176471710205
v 9.0 6.0 11.788681030273438
v 9.0 6.0 13.81176471710205
v 9.0 7.0 11.546789169311523
v 9.0 7.0 13.81176471710205
v 8.392733573913574 8.0 11.0
v 9.0 7.546789169311523 11.0
v 9.0 8.0 10.794734954833984
v 9.0 8.0 13.81176471710205
v 9.0 9.0 10.630724906921387
v 9.0 9.0 13.81176471710205
v 8.982423782348633 10.0 10.0
v 9.0 9.974702835083008 10.0
v 9.0 10.0 9.953356742858887
v 9.0 10.0 13.81176471710205
v 8.630724906921387 11.0 10.0
v 9.0 11.0 9.18823528289795
v 9.0 11.0 13.81176471710205
v 8.630724906921387 12.0 10.0
v 9.0 12.0 9.18823528289795
v 9.0 12.0 13.81176471710205
v 8.982423782348633 13.0 10.0
v 9.0 13.0 9.953356742858887
v 9.0 13.0 13.81176471710205
v 9.0 13.025297164916992 10.0
v 9.0 14.0 10.630724906921387
v 9.0 14.0 13.81176471710205
v 8.392733573913574 15.0 11.0
v 9.0 15.0 10.794734954833984
v 9.0 15.0 13.81176471710205
v 9.0 15.453210830688477 11.0
v 9.0 16.0 11.546789169311523
v 9.0 16.0 13.81176471710205
v 9.0 17.0 11.788681030273438
v 9.0 17.0 13.81176471710205
v 8.737527847290039 18.0 12.0
v 9.0 18.0 11.953350067138672
v 9.0 18.0 13.81176471710205
v 9.0 18.11659049987793 12.0
v 9.0 19.0 12.70154094696045
v 9.0 19.0 13.81176471710205
v 8.988903999328613 20.0 13.0
v 9.0 20.0 12.997939109802246
v 9.0 20.0 13.043011665344238
v 9.0 20.003828048706055 13.0
v 10.0 2.7644131183624268 13.0
v 10.0 3.0 12.87016487121582
v 10.0 3.0 13.739042282104492
v 10.0 4.0 12.618868827819824
v 10.0 4.0 13.81176471710205
v 10.0 4.618868827819824 12.0
v 10.0 5.0 11.846405982971191
v 10.0 5.0 13.81176471710205
v 10.0 6.0 11.734711647033691
v 10.0 6.0 13.81176471710205
v 10.0 7.0 11.059808731079102
v 10.0 7.0 13.81176471710205
v 10.0 7.059808731079102 11.0
v 10.0 8.0 10.712453842163086
v 10.0 8.0 13.81176471710205
v 9.974702835083008 9.0 10.0
v 10.0 8.982423782348633 10.0
v 10.0 9.0 9.953356742858887
v 10.0 9.0 13.81176471710205
v 10.0 10.0 9.18823528289795
v 10.0 10.0 13.81176471710205
v 10.0 11.0 9.18823528289795
v 10.0 11.0 13.81176471710205
v 10.0 12.0 9.18823528289795
v 10.0 12.0 13.81176471710205
v 10.0 13.0 9.18823528289795
v 10.0 13.0 13.81176471710205
v 9.974702835083008 14.0 10.0
v 10.0 14.0 9.953356742858887
v 10.0 14.0 13.81176471710205
v 10.0 14.017576217651367 10.0
v 10.0 15.0 10.712453842163086
v 10.0 15.0 13.81176471710205
v 10.0 15.940191268920898 11.0
v 10.0 16.0 11.059808731079102
v 10.0 16.0 13.81176471710205
v 10.0 17.0 11.734711647033691
v 10.0 17.0 13.81176471710205
v 10.0 18.0 11.846405982971191
v 10.0 18.0 13.81176471710205
v 10.0 18.38113021850586 12.0
v 10.0 19.0 12.618868827819824
v 10.0 19.0 13.81176471710205
v 10.0 20.0 12.87016487121582
v 10.0 20.0 13.739042282104492
v 10.0 20.235586166381836 13.0
v 11.0 2.6504430770874023 13.0
v 11.0 3.0 12.804990768432617
v 11.0 3.0 13.809656143188477
v 11.0 4.0 12.555765151977539
v 11.0 4.0 13.81176471710205
v 11.0 4.555765151977539 12.0
v 11.0 5.0 11.835583686828613
v 11.0 5.0 13.81176471710205
v 11.0 6.0 11.693803787231445
v 11.0 6.0 13.81176471710205
v 10.10434341430664 7.0 11.0
v 11.0 6.805811882019043 11.0
v 11.0 7.0 10.892043113708496
v 11.0 7.0 13.81176471710205
v 11.0 8.0 10.630724906921387
v 11.0 8.0 13.81176471710205
v 11.0 8.630724906921387 10.0
v 11.0 9.0 9.18823528289795
v 11.0 9.0 13.81176471710205
v 11.0 10.0 9.18823528289795
v 11.0 10.0 13.81176471710205
v 11.0 11.0 9.18823528289795
v 11.0 11.0 13.81176471710205
v 11.0 12.0 9.18823528289795
v 11.0 12.0 13.81176471710205
v 11.0 13.0 9.18823528289795
v 11.0 13.0 13.81176471710205
v 11.0 14.0 9.18823528289795
v 11.0 14.0 13.81176471710205
v 11.0 14.369275093078613 10.0
v 11.0 15.0 10.630724906921387
v 11.0 15.0 13.81176471710205
v 10.10434341430664 16.0 11.0
v 11.0 16.0 10.892043113708496
v 11.0 16.0 13.81176471710205
v 11.0 16.19418716430664 11.0
v 11.0 17.0 11.693803787231445
v 11.0 17.0 13.81176471710205
v 11.0 18.0 11.835583686828613
v 11.0 18.0 13.81176471710205
v 11.0 18.44423484802246 12.0
v 11.0 19.0 12.555765151977539
v 11.0 19.0 13.81176471710205
v 11.0 20.0 12.804990768432617
v 11.0 20.0 13.809656143188477
v 11.0 20.349557876586914 13.0
v 12.0 2.6504430770874023 13.0
v 12.0 3.0 12.804990768432617
v 12.0 3.0 13.809656143188477
v 12.0 4.0 12.555765151977539
v 12.0 4.0 13.81176471710205
v 12.0 4.555765151977539 12.0
v 12.0 5.0 11.835583686828613
v 12.0 5.0 13.81176471710205
v 12.0 6.0 11.693803787231445
v 12.0 6.0 13.81176471710205
v 12.0 6.805811882019043 11.0
v 12.0 7.0 10.892043113708496
v 12.0 7.0 13.81176471710205
v 12.0 8.0 10.630724906921387
v 12.0 8.0 13.81176471710205
v 12.0 8.630724906921387 10.0
v 12.0 9.0 9.18823528289795
v 12.0 9.0 13.81176471710205
v 12.0 10.0 9.18823528289795
v 12.0 10.0 13.81176471710205
v 12.0 11.0 9.18823528289795
v 12.0 11.0 13.81176471710205
v 12.0 12.0 9.18823528289795
v 12.0 12.0 13.81176471710205
v 12.0 13.0 9.18823528289795
v 12.0 13.0 13.81176471710205
v 12.0 14.0 9.18823528289795
v 12.0 14.0 13.81176471710205
v 12.0 14.369275093078613 10.0
v 12.0 15.0 10.630724906921387
v 12.0 15.0 13.81176471710205
v 12.0 16.0 10.892043113708496
v 12.0 16.0 13.81176471710205
v 12.0 16.19418716430664 11.0
v 12.0 17.0 11.693803787231445
v 12.0 17.0 13.81176471710205
v 12.0 18.0 11.835583686828613
v 12.0 18.0 13.81176471710205
v 12.0 18.44423484802246 12.0
v 12.0 19.0 12.555765151977539
v 12.0 19.0 13.81176471710205
v 12.0 20.0 12.804990768432617
v 12.0 20.0 13.809656143188477
v 12.0 20.349557876586914 13.0
v 13.0 2.7644131183624268 13.0
v 13.0 3.0 12.87016487121582
v 13.0 3.0 13.739042282104492
v 13.0 4.0 12.618868827819824
v 13.0 4.0 13.81176471710205
v 13.0 4.618868827819824 12.0
v 13.0 5.0 11.846405982971191
v 13.0 5.0 13.81176471710205
v 13.0 6.0 11.734711647033691
v 13.0 6.0 13.81176471710205
v 12.89565658569336 7.0 11.0
v 13.0 7.0 11.059808731079102
v 13.0 7.0 13.81176471710205
v 13.0 7.059808731079102 11.0
v 13.0 8.0 10.712453842163086
v 13.0 8.0 13.81176471710205
v 13.0 8.982423782348633 10.0
v 13.0 9.0 9.953356742858887
v 13.0 9.0 13.81176471710205
v 13.0 10.0 9.18823528289795
v 13.0 10.0 13.81176471710205
v 13.0 11.0 9.18823528289795
v 13.0 11.0 13.81176471710205
v 13.0 12.0 9.18823528289795
v 13.0 12.0 13.81176471710205
v 13.0 13.0 9.18823528289795
v 13.0 13.0 13.81176471710205
v 13.0 14.0 9.953356742858887
v 13.0 14.0 13.81176471710205
v 13.0 14.017576217651367 10.0
v 13.0 15.0 10.712453842163086
v 13.0 15.0 13.81176471710205
v 13.0 15.940191268920898 11.0
v 12.89565658569336 16.0 11.0
v 13.0 16.0 11.059808731079102
v 13.0 16.0 13.81176471710205
v 13.0 17.0 11.734711647033691
v 13.0 17.0 13.81176471710205
v 13.0 18.0 11.846405982971191
v 13.0 18.0 13.81176471710205
v 13.0 18.38113021850586 12.0
v 13.0 19.0 12.618868827819824
v 13.0 19.0 13.81176471710205
v 13.0 20.0 12.87016487121582
v 13.0 20.0 13.739042282104492
v 13.0 20.235586166381836 13.0
v 14.0 2.9961721897125244 13.0
v 14.0 3.0 12.997939109802246
v 14.0 3.0 13.043011665344238
v 14.0 4.0 12.70154094696045
v 14.0 4.0 13.81176471710205
v 14.0 4.883409023284912 12.0
v 14.0 5.0 11.953350067138672
v 14.0 5.0 13.81176471710205
v 14.0 6.0 11.788681030273438
v 14.0 6.0 13.81176471710205
v 14.0 7.0 11.546789169311523
v 14.0 7.0 13.81176471710205
v 14.0 7.546789169311523 11.0
v 14.0 8.0 10.794734954833984
v 14.0 8.0 13.81176471710205
v 13.025297164916992 9.0 10.0
v 14.0 9.0 10.630724906921387
v 14.0 9.0 13.81176471710205
v 14.0 9.974702835083008 10.0
v 14.0 10.0 9.953356742858887
v 14.0 10.0 13.81176471710205
v 14.0 11.0 9.18823528289795
v 14.0 11.0 13.81176471710205
v 14.0 12.0 9.18823528289795
v 14.0 12.0 13.81176471710205
v 14.0 13.0 9.953356742858887
v 14.0 13.0 13.81176471710205
v 14.0 13.025297164916992 10.0
v 13.025297164916992 14.0 10.0
v 14.0 14.0 10.630724906921387
v 14.0 14.0 13.81176471710205
v 14.0 15.0 10.794734954833984
v 14.0 15.0 13.81176471710205
v 14.0 15.453210830688477 11.0
v 14.0 16.0 11.546789169311523
v 14.0 16.0 13.81176471710205
v 14.0 17.0 11.788681030273438
v 14.0 17.0 13.81176471710205
v 14.0 18.0 11.953350067138672
v 14.0 18.0 13.81176471710205
v 14.0 18.11659049987793 12.0
v 14.0 19.0 12.70154094696045
v 14.0 19.0 13.81176471710205
v 14.0 20.0 12.997939109802246
v 14.0 20.0 13.043011665344238
v 14.0 20.003828048706055 13.0
v 14.011096000671387 3.0 13.0
v 15.0 3.481562376022339 13.0
v 15.0 4.0 12.77264404296875
v 15.0 4.0 13.81176471710205
v 14.262472152709961 5.0 12.0
v 15.0 5.0 12.465725898742676
v 15.0 5.0 13.81176471710205
v 15.0 5.465725898742676 12.0
v 15.0 6.0 11.835583686828613
v 15.0 6.0 13.81176471710205
v 15.0 7.0 11.734711647033691
v 15.0 7.0 13.81176471710205
v 14.607266426086426 8.0 11.0
v 15.0 8.0 11.392733573913574
v 15.0 8.0 13.81176471710205
v 15.0 8.392733573913574 11.0
v 15.0 9.0 10.794734954833984
v 15.0 9.0 13.81176471710205
v 14.017576217651367 10.0 10.0
v 15.0 10.0 10.712453842163086
v 15.0 10.0 13.81176471710205
v 14.369275093078613 11.0 10.0
v 15.0 11.0 10.630724906921387
v 15.0 11.0 13.81176471710205
v 14.369275093078613 12.0 10.0
v 15.0 12.0 10.630724906921387
v 15.0 12.0 13.81176471710205
v 14.017576217651367 13.0 10.0
v 15.0 13.0 10.712453842163086
v 15.0 13.0 13.81176471710205
v 15.0 14.0 10.794734954833984
v 15.0 14.0 13.81176471710205
v 15.0 14.607266426086426 11.0
v 14.607266426086426 15.0 11.0
v 15.0 15.0 11.392733573913574
v 15.0 15.0 13.81176471710205
v 15.0 16.0 11.734711647033691
v 15.0 16.0 13.81176471710205
v 15.0 17.0 11.835583686828613
v 15.0 17.0 13.81176471710205
v 15.0 17.53427505493164 12.0
v 14.262472152709961 18.0 12.0
v 15.0 18.0 12.465725898742676
v 15.0 18.0 13.81176471710205
v 15.0 19.0 12.77264404296875
v 15.0 19.0 13.81176471710205
v 15.0 19.5184383392334 13.0
v 14.011096000671387 20.0 13.0
v 16.0 3.8653881549835205 13.0
v 16.0 4.0 12.934470176696777
v 16.0 4.0 13.588372230529785
v 16.0 5.0 12.70154094696045
v 16.0 5.0 13.81176471710205
v 15.91618537902832 6.0 12.0
v 16.0 6.0 12.08381462097168
v 16.0 6.0 13.81176471710205
v 16.0 6.08381462097168 12.0
v 16.0 7.0 11.822802543640137
v 16.0 7.0 13.81176471710205
v 16.0 8.0 11.734711647033691
v 16.0 8.0 13.81176471710205
v 15.453210830688477 9.0 11.0
v 16.0 9.0 11.546789169311523
v 16.0 9.0 13.81176471710205
v 15.940191268920898 10.0 11.0
v 16.0 10.0 11.059808731079102
v 16.0 10.0 13.81176471710205
v 16.0 10.10434341430664 11.0
v 16.0 11.0 10.892043113708496
v 16.0 11.0 13.81176471710205
v 16.0 12.0 10.892043113708496
v 16.0 12.0 13.81176471710205
v 16.0 12.89565658569336 11.0
v 15.940191268920898 13.0 11.0
v 16.0 13.0 11.059808731079102
v 16.0 13.0 13.81176471710205
v 15.453210830688477 14.0 11.0
v 16.0 14.0 11.546789169311523
v 16.0 14.0 13.81176471710205
v 16.0 15.0 11.734711647033691
v 16.0 15.0 13.81176471710205
v 16.0 16.0 11.822802543640137
v 16.0 16.0 13.81176471710205
v 16.0 16.91618537902832 12.0
v 15.91618537902832 17.0 12.0
v 16.0 17.0 12.08381462097168
v 16.0 17.0 13.81176471710205
v 16.0 18.0 12.70154094696045
v 16.0 18.0 13.81176471710205
v 16.0 19.0 12.934470176696777
v 16.0 19.0 13.588372230529785
v 16.0 19.134611129760742 13.0
v 16.211658477783203 4.0 13.0
v 17.0 4.555870056152344 13.0
v 17.0 5.0 12.804990768432617
v 17.0 5.0 13.809656143188477
v 17.0 6.0 12.665569305419922
v 17.0 6.0 13.81176471710205
v 16.91618537902832 7.0 12.0
v 17.0 7.0 12.08381462097168
v 17.0 7.0 13.81176471710205
v 17.0 7.08381462097168 12.0
v 17.0 8.0 11.835583686828613
v 17.0 8.0 13.81176471710205
v 17.0 9.0 11.788681030273438
v 17.0 9.0 13.81176471710205
v 17.0 10.0 11.734711647033691
v 17.0 10.0 13.81176471710205
v 16.19418716430664 11.0 11.0
v 17.0 11.0 11.693803787231445
v 17.0 11.0 13.81176471710205
v 16.19418716430664 12.0 11.0
v 17.0 12.0 11.693803787231445
v 17.0 12.0 13.81176471710205
v 17.0 13.0 11.734711647033691
v 17.0 13.0 13.81176471710205
v 17.0 14.0 11.788681030273438
v 17.0 14.0 13.81176471710205
v 17.0 15.0 11.835583686828613
v 17.0 15.0 13.81176471710205
v 17.0 15.91618537902832 12.0
v 16.91618537902832 16.0 12.0
v 17.0 16.0 12.08381462097168
v 17.0 16.0 13.81176471710205
v 17.0 17.0 12.665569305419922
v 17.0 17.0 13.81176471710205
v 17.0 18.0 12.804990768432617
v 17.0 18.0 13.809656143188477
v 17.0 18.444129943847656 13.0
v 16.211658477783203 19.0 13.0
v 17.51500701904297 5.0 13.0
v 18.0 5.484993934631348 13.0
v 18.0 6.0 12.804990768432617
v 18.0 6.0 13.809656143188477
v 18.0 7.0 12.70154094696045
v 18.0 7.0 13.81176471710205
v 17.53427505493164 8.0 12.0
v 18.0 8.0 12.465725898742676
v 18.0 8.0 13.81176471710205
v 18.0 8.737527847290039 12.0
v 18.0 9.0 11.953350067138672
v 18.0 9.0 13.81176471710205
v 18.0 10.0 11.846405982971191
v 18.0 10.0 13.81176471710205
v 18.0 11.0 11.835583686828613
v 18.0 11.0 13.81176471710205
v 18.0 12.0 11.835583686828613
v 18.0 12.0 13.81176471710205
v 18.0 13.0 11.846405982971191
v 18.0 13.0 13.81176471710205
v 18.0 14.0 11.953350067138672
v 18.0 14.0 13.81176471710205
v 18.0 14.262472152709961 12.0
v 17.53427505493164 15.0 12.0
v 18.0 15.0 12.465725898742676
v 18.0 15.0 13.81176471710205
v 18.0 16.0 12.70154094696045
v 18.0 16.0 13.81176471710205
v 18.0 17.0 12.804990768432617
v 18.0 17.0 13.809656143188477
v 18.0 17.51500701904297 13.0
v 17.51500701904297 18.0 13.0
v 18.444129943847656 6.0 13.0
v 19.0 6.7883405685424805 13.0
v 19.0 7.0 12.934470176696777
v 19.0 7.0 13.588372230529785
v 19.0 8.0 12.77264404296875
v 19.0 8.0 13.81176471710205
v 18.11659049987793 9.0 12.0
v 19.0 9.0 12.70154094696045
v 19.0 9.0 13.81176471710205
v 18.38113021850586 10.0 12.0
v 19.0 10.0 12.618868827819824
v 19.0 10.0 13.81176471710205
v 18.44423484802246 11.0 12.0
v 19.0 11.0 12.555765151977539
v 19.0 11.0 13.81176471710205
v 18.44423484802246 12.0 12.0
v 19.0 12.0 12.555765151977539
v 19.0 12.0 13.81176471710205
v 18.38113021850586 13.0 12.0
v 19.0 13.0 12.618868827819824
v 19.0 13.0 13.81176471710205
v 18.11659049987793 14.0 12.0
v 19.0 14.0 12.70154094696045
v 19.0 14.0 13.81176471710205
v 19.0 15.0 12.77264404296875
v 19.0 15.0 13.81176471710205
v 19.0 16.0 12.934470176696777
v 19.0 16.0 13.588372230529785
v 19.0 16.211658477783203 13.0
v 18.444129943847656 17.0 13.0
v 19.134611129760742 7.0 13.0
v 19.5184383392334 8.0 13.0
v 20.0 8.988903999328613 13.0
v 20.0 9.0 12.997939109802246
v 20.0 9.0 13.043011665344238
v 20.0 10.0 12.87016487121582
v 20.0 10.0 13.739042282104492
v 20.0 11.0 12.804990768432617
v 20.0 11.0 13.809656143188477
v 20.0 12.0 12.804990768432617
v 20.0 12.0 13.809656143188477
v 20.0 13.0 12.87016487121582
v 20.0 13.0 13.739042282104492
v 20.0 14.0 12.997939109802246
v 20.0 14.0 13.043011665344238
v 20.0 14.011096000671387 13.0
v 19.5184383392334 15.0 13.0
v 19.134611129760742 16.0 13.0
v 20.003828048706055 9.0 13.0
v 20.235586166381836 10.0 13.0
v 20.349557876586914 11.0 13.0
v 20.349557876586914 12.0 13.0
v 20.235586166381836 13.0 13.0
v 20.003828048706055 14.0 13.0
f 3 2 1
f 4 1 2
f 3 1 5
f 3 5 6
f 1 4 7
f 1 7 5
f 6 5 8
f 6 8 9
f 5 7 10
f 5 10 8
f 9 8 11
f 9 11 12
f 8 10 13
f 8 13 11
f 12 11 14
f 12 14 15
f 11 13 16
f 11 16 14
f 15 14 17
f 15 17 18
f 14 16 19
f 14 19 17
f 20 18 17
f 20 17 19
f 23 22 21
f 24 21 22
f 23 21 25
f 23 25 26
f 21 24 27
f 21 27 25
f 26 25 2
f 3 26 2
f 28 26 3
f 4 2 25
f 27 4 25
f 29 4 27
f 6 28 3
f 6 30 28
f 29 7 4
f 31 7 29
f 9 30 6
f 9 32 30
f 31 10 7
f 33 10 31
f 12 32 9
f 12 34 32
f 33 13 10
f 35 13 33
f 15 34 12
f 15 36 34
f 35 16 13
f 37 16 35
f 18 36 15
f 18 38 36
f 37 19 16
f 39 19 37
f 18 20 40
f 41 18 40
f 38 18 41
f 42 40 20
f 19 42 20
f 39 42 19
f 41 40 43
f 41 43 44
f 40 42 45
f 40 45 43
f 46 44 43
f 46 43 45
f 49 48 47
f 50 47 48
f 49 47 22
f 23 49 22
f 51 49 23
f 24 22 47
f 50 24 47
f 52 24 50
f 26 51 23
f 26 53 51
f 52 27 24
f 54 27 52
f 57 56 55
f 56 53 55
f 53 28 55
f 53 26 28
f 54 29 27
f 58 29 54
f 57 55 59
f 57 59 60
f 30 59 28
f 28 59 55
f 58 31 29
f 61 31 58
f 60 59 62
f 60 62 63
f 32 62 30
f 30 62 59
f 61 33 31
f 64 33 61
f 63 62 65
f 63 65 66
f 34 65 32
f 32 65 62
f 64 35 33
f 67 35 64
f 66 65 68
f 66 68 69
f 36 68 34
f 34 68 65
f 67 37 35
f 70 37 67
f 69 68 71
f 69 71 72
f 38 71 36
f 36 71 68
f 70 39 37
f 73 39 70
f 74 72 71
f 71 38 74
f 38 75 74
f 38 41 75
f 73 42 39
f 76 42 73
f 44 75 41
f 44 77 75
f 76 45 42
f 78 45 76
f 44 46 79
f 80 44 79
f 77 44 80
f 81 79 46
f 45 81 46
f 78 81 45
f 82 80 79
f 82 79 81
f 85 84 83
f 86 83 84
f 85 83 48
f 49 85 48
f 87 85 49
f 50 48 83
f 86 50 83
f 88 50 86
f 51 87 49
f 51 89 87
f 88 52 50
f 90 52 88
f 93 92 91
f 92 89 91
f 89 53 91
f 89 51 53
f 90 54 52
f 94 54 90
f 93 91 56
f 57 93 56
f 95 93 57
f 56 91 53
f 94 58 54
f 96 58 94
f 60 95 57
f 60 97 95
f 96 61 58
f 98 61 96
f 63 97 60
f 63 99 97
f 98 64 61
f 100 64 98
f 66 99 63
f 66 101 99
f 100 67 64
f 102 67 100
f 69 101 66
f 69 103 101
f 102 70 67
f 104 70 102
f 72 103 69
f 72 105 103
f 104 73 70
f 106 73 104
f 72 74 107
f 108 72 107
f 105 72 108
f 75 107 74
f 106 76 73
f 109 76 106
f 110 108 107
f 107 75 110
f 75 111 110
f 75 77 111
f 109 78 76
f 112 78 109
f 80 111 77
f 80 113 111
f 112 81 78
f 114 81 112
f 80 82 115
f 116 80 115
f 113 80 116
f 117 115 82
f 81 117 82
f 114 117 81
f 118 116 115
f 118 115 117
f 121 120 119
f 122 119 120
f 121 119 84
f 85 121 84
f 123 121 85
f 86 84 119
f 122 86 119
f 124 86 122
f 87 123 85
f 87 125 123
f 124 88 86
f 126 88 124
f 129 128 127
f 128 125 127
f 125 89 127
f 125 87 89
f 126 90 88
f 130 90 126
f 129 127 92
f 93 129 92
f 131 129 93
f 92 127 89
f 130 94 90
f 132 94 130
f 95 131 93
f 95 133 131
f 132 96 94
f 134 96 132
f 97 133 95
f 97 135 133
f 134 98 96
f 136 98 134
f 139 138 137
f 138 135 137
f 135 99 137
f 135 97 99
f 136 100 98
f 140 100 136
f 139 137 141
f 139 141 142
f 101 141 99
f 99 141 137
f 140 102 100
f 143 102 140
f 144 142 141
f 141 101 144
f 101 145 144
f 101 103 145
f 143 104 102
f 146 104 143
f 105 145 103
f 105 147 145
f 146 106 104
f 148 106 146
f 108 147 105
f 108 149 147
f 148 109 106
f 150 109 148
f 108 110 151
f 152 108 151
f 149 108 152
f 111 151 110
f 150 112 109
f 153 112 150
f 154 152 151
f 151 111 154
f 111 155 154
f 111 113 155
f 153 114 112
f 156 114 153
f 116 155 113
f 116 157 155
f 156 117 114
f 158 117 156
f 116 118 159
f 160 116 159
f 157 116 160
f 161 159 118
f 117 161 118
f 158 161 117
f 162 160 159
f 162 159 161
f 164 163 120
f 164 120 121
f 122 120 163
f 122 163 165
f 123 164 121
f 123 166 164
f 165 124 122
f 167 124 165
f 170 169 168
f 169 166 168
f 166 125 168
f 166 123 125
f 167 126 124
f 171 126 167
f 170 168 128
f 129 170 128
f 172 170 129
f 128 168 125
f 171 130 126
f 173 130 171
f 131 172 129
f 131 174 172
f 173 132 130
f 175 132 173
f 178 177 176
f 177 174 176
f 174 133 176
f 174 131 133
f 175 134 132
f 179 134 175
f 178 176 180
f 178 180 181
f 135 180 133
f 133 180 176
f 179 136 134
f 182 136 179
f 181 180 138
f 139 181 138
f 183 181 139
f 138 180 135
f 182 140 136
f 184 140 182
f 142 183 139
f 142 185 183
f 184 143 140
f 186 143 184
f 142 144 187
f 188 142 187
f 185 142 188
f 145 187 144
f 186 146 143
f 189 146 186
f 188 187 190
f 188 190 191
f 147 190 145
f 145 190 187
f 189 148 146
f 192 148 189
f 193 191 190
f 190 147 193
f 147 194 193
f 147 149 194
f 192 150 148
f 195 150 192
f 152 194 149
f 152 196 194
f 195 153 150
f 197 153 195
f 152 154 198
f 199 152 198
f 196 152 199
f 155 198 154
f 197 156 153
f 200 156 197
f 201 199 198
f 198 155 201
f 155 202 201
f 155 157 202
f 200 158 156
f 203 158 200
f 160 202 157
f 160 204 202
f 203 161 158
f 205 161 203
f 206 204 160
f 206 160 162
f 162 161 205
f 162 205 206
f 209 208 207
f 210 207 208
f 209 207 163
f 164 209 163
f 211 209 164
f 165 163 207
f 210 165 207
f 212 165 210
f 215 214 213
f 214 211 213
f 211 166 213
f 211 164 166
f 212 167 165
f 216 167 212
f 215 213 169
f 170 215 169
f 217 215 170
f 169 213 166
f 216 171 167
f 218 171 216
f 172 217 170
f 172 219 217
f 218 173 171
f 220 173 218
f 223 222 221
f 222 219 221
f 219 174 221
f 219 172 174
f 220 175 173
f 224 175 220
f 223 221 177
f 178 223 177
f 225 223 178
f 177 221 174
f 224 179 175
f 226 179 224
f 229 228 227
f 228 225 227
f 225 181 227
f 225 178 181
f 226 182 179
f 230 182 226
f 229 227 231
f 229 231 232
f 183 231 181
f 181 231 227
f 230 184 182
f 233 184 230
f 232 231 234
f 232 234 235
f 185 234 183
f 183 234 231
f 233 186 184
f 236 186 233
f 235 234 237
f 235 237 238
f 188 237 185
f 185 237 234
f 236 189 186
f 239 189 236
f 240 238 237
f 237 188 240
f 188 241 240
f 188 191 241
f 239 192 189
f 242 192 239
f 191 193 243
f 244 191 243
f 241 191 244
f 194 243 193
f 242 195 192
f 245 195 242
f 246 244 243
f 243 194 246
f 194 247 246
f 194 196 247
f 245 197 195
f 248 197 245
f 199 247 196
f 199 249 247
f 248 200 197
f 250 200 248
f 199 201 251
f 252 199 251
f 249 199 252
f 202 251 201
f 250 203 200
f 253 203 250
f 254 252 251
f 251 202 254
f 202 255 254
f 202 204 255
f 253 205 203
f 256 205 253
f 204 206 257
f 258 204 257
f 255 204 258
f 259 257 206
f 205 259 206
f 256 259 205
f 260 258 257
f 260 257 259
f 262 261 208
f 262 208 209
f 210 208 261
f 210 261 263
f 211 262 209
f 211 264 262
f 263 212 210
f 265 212 263
f 267 266 214
f 267 214 215
f 211 214 264
f 264 214 266
f 265 216 212
f 268 216 265
f 217 267 215
f 217 269 267
f 268 218 216
f 270 218 268
f 219 269 217
f 219 271 269
f 270 220 218
f 272 220 270
f 274 273 222
f 274 222 223
f 219 222 271
f 271 222 273
f 272 224 220
f 275 224 272
f 278 277 276
f 277 274 276
f 274 225 276
f 274 223 225
f 275 226 224
f 279 226 275
f 278 276 228
f 229 278 228
f 280 278 229
f 228 276 225
f 279 230 226
f 281 230 279
f 232 280 229
f 232 282 280
f 281 233 230
f 283 233 281
f 235 282 232
f 235 284 282
f 283 236 233
f 285 236 283
f 238 284 235
f 238 286 284
f 285 239 236
f 287 239 285
f 238 240 288
f 289 238 288
f 286 238 289
f 241 288 240
f 287 242 239
f 290 242 287
f 291 289 288
f 288 241 291
f 241 292 291
f 241 244 292
f 290 245 242
f 293 245 290
f 294 292 244
f 294 244 246
f 246 247 294
f 294 247 295
f 293 248 245
f 296 248 293
f 249 295 247
f 249 297 295
f 296 250 248
f 298 250 296
f 252 297 249
f 252 299 297
f 298 253 250
f 300 253 298
f 301 299 252
f 301 252 254
f 254 255 301
f 301 255 302
f 300 256 253
f 303 256 300
f 258 302 255
f 258 304 302
f 303 259 256
f 305 259 303
f 306 304 258
f 306 258 260
f 260 259 305
f 260 305 306
f 308 307 261
f 308 261 262
f 263 261 307
f 263 307 309
f 264 308 262
f 264 310 308
f 309 265 263
f 311 265 309
f 313 312 266
f 313 266 267
f 264 266 310
f 310 266 312
f 311 268 265
f 314 268 311
f 269 313 267
f 269 315 313
f 314 270 268
f 316 270 314
f 319 318 317
f 318 315 317
f 315 271 317
f 315 269 271
f 316 272 270
f 320 272 316
f 319 317 273
f 274 319 273
f 321 319 274
f 273 317 271
f 320 275 272
f 322 275 320
f 324 323 277
f 324 277 278
f 274 277 321
f 321 277 323
f 322 279 275
f 325 279 322
f 280 324 278
f 280 326 324
f 325 281 279
f 327 281 325
f 282 326 280
f 282 328 326
f 327 283 281
f 329 283 327
f 284 328 282
f 284 330 328
f 329 285 283
f 331 285 329
f 286 330 284
f 286 332 330
f 331 287 285
f 333 287 331
f 289 332 286
f 289 334 332
f 333 290 287
f 335 290 333
f 336 334 289
f 336 289 291
f 291 292 336
f 336 292 337
f 335 293 290
f 338 293 335
f 292 294 339
f 340 292 339
f 337 292 340
f 295 339 294
f 338 296 293
f 341 296 338
f 342 340 339
f 339 295 342
f 295 343 342
f 295 297 343
f 341 298 296
f 344 298 341
f 299 343 297
f 299 345 343
f 344 300 298
f 346 300 344
f 347 345 299
f 347 299 301
f 301 302 347
f 347 302 348
f 346 303 300
f 349 303 346
f 304 348 302
f 304 350 348
f 349 305 303
f 351 305 349
f 352 350 304
f 352 304 306
f 306 305 351
f 306 351 352
f 354 353 307
f 354 307 308
f 309 307 353
f 309 353 355
f 310 354 308
f 310 356 354
f 355 311 309
f 357 311 355
f 359 358 312
f 359 312 313
f 310 312 356
f 356 312 358
f 357 314 311
f 360 314 357
f 315 359 313
f 315 361 359
f 360 316 314
f 362 316 360
f 364 363 318
f 364 318 319
f 315 318 361
f 361 318 363
f 362 320 316
f 365 320 362
f 321 364 319
f 321 366 364
f 365 322 320
f 367 322 365
f 369 368 323
f 369 323 324
f 321 323 366
f 366 323 368
f 367 325 322
f 370 325 367
f 326 369 324
f 326 371 369
f 370 327 325
f 372 327 370
f 328 371 326
f 328 373 371
f 372 329 327
f 374 329 372
f 330 373 328
f 330 375 373
f 374 331 329
f 376 331 374
f 332 375 330
f 332 377 375
f 376 333 331
f 378 333 376
f 334 377 332
f 334 379 377
f 378 335 333
f 380 335 378
f 381 379 334
f 381 334 336
f 336 337 381
f 381 337 382
f 380 338 335
f 383 338 380
f 340 382 337
f 340 384 382
f 383 341 338
f 385 341 383
f 386 384 340
f 386 340 342
f 342 343 386
f 386 343 387
f 385 344 341
f 388 344 385
f 345 387 343
f 345 389 387
f 388 346 344
f 390 346 388
f 391 389 345
f 391 345 347
f 347 348 391
f 391 348 392
f 390 349 346
f 393 349 390
f 350 392 348
f 350 394 392
f 393 351 349
f 395 351 393
f 396 394 350
f 396 350 352
f 352 351 395
f 352 395 396
f 398 397 353
f 398 353 354
f 355 353 397
f 355 397 399
f 356 398 354
f 356 400 398
f 399 357 355
f 401 357 399
f 403 402 358
f 403 358 359
f 356 358 400
f 400 358 402
f 401 360 357
f 404 360 401
f 361 403 359
f 361 405 403
f 404 362 360
f 406 362 404
f 364 407 363
f 407 408 363
f 408 361 363
f 408 405 361
f 406 365 362
f 409 365 406
f 411 410 407
f 364 411 407
f 366 411 364
f 407 410 408
f 409 367 365
f 412 367 409
f 414 413 368
f 414 368 369
f 366 368 411
f 411 368 413
f 412 370 367
f 415 370 412
f 371 414 369
f 371 416 414
f 415 372 370
f 417 372 415
f 373 416 371
f 373 418 416
f 417 374 372
f 419 374 417
f 375 418 373
f 375 420 418
f 419 376 374
f 421 376 419
f 377 420 375
f 377 422 420
f 421 378 376
f 423 378 421
f 379 422 377
f 379 424 422
f 423 380 378
f 425 380 423
f 426 424 379
f 426 379 381
f 381 382 426
f 426 382 427
f 425 383 380
f 428 383 425
f 384 430 429
f 427 384 429
f 382 384 427
f 430 431 429
f 428 385 383
f 432 385 428
f 386 430 384
f 386 387 430
f 387 431 430
f 387 433 431
f 432 388 385
f 434 388 432
f 389 433 387
f 389 435 433
f 434 390 388
f 436 390 434
f 437 435 389
f 437 389 391
f 391 392 437
f 437 392 438
f 436 393 390
f 439 393 436
f 394 438 392
f 394 440 438
f 439 395 393
f 441 395 439
f 442 440 394
f 442 394 396
f 396 395 441
f 396 441 442
f 444 443 397
f 444 397 398
f 399 397 443
f 399 443 445
f 400 444 398
f 400 446 444
f 445 401 399
f 447 401 445
f 449 448 402
f 449 402 403
f 400 402 446
f 446 402 448
f 447 404 401
f 450 404 447
f 405 449 403
f 405 451 449
f 450 406 404
f 452 406 450
f 408 451 405
f 408 453 451
f 452 409 406
f 454 409 452
f 456 455 410
f 456 410 411
f 408 410 453
f 453 410 455
f 454 412 409
f 457 412 454
f 414 458 413
f 458 459 413
f 459 411 413
f 459 456 411
f 457 415 412
f 460 415 457
f 462 461 458
f 414 462 458
f 416 462 414
f 458 461 459
f 460 417 415
f 463 417 460
f 418 462 416
f 418 464 462
f 463 419 417
f 465 419 463
f 420 464 418
f 420 466 464
f 465 421 419
f 467 421 465
f 422 466 420
f 422 468 466
f 467 423 421
f 469 423 467
f 424 471 470
f 468 424 470
f 422 424 468
f 471 472 470
f 469 425 423
f 473 425 469
f 426 471 424
f 426 427 471
f 427 472 471
f 427 474 472
f 473 428 425
f 475 428 473
f 476 474 427
f 476 427 429
f 429 431 476
f 476 431 477
f 475 432 428
f 478 432 475
f 433 477 431
f 433 479 477
f 478 434 432
f 480 434 478
f 435 479 433
f 435 481 479
f 480 436 434
f 482 436 480
f 483 481 435
f 483 435 437
f 437 438 483
f 483 438 484
f 482 439 436
f 485 439 482
f 440 484 438
f 440 486 484
f 485 441 439
f 487 441 485
f 488 486 440
f 488 440 442
f 442 441 487
f 442 487 488
f 444 489 443
f 489 445 443
f 491 490 489
f 444 491 489
f 446 491 444
f 445 489 490
f 492 445 490
f 447 445 492
f 449 493 448
f 493 494 448
f 494 446 448
f 494 491 446
f 492 450 447
f 495 450 492
f 497 496 493
f 449 497 493
f 451 497 449
f 493 496 494
f 495 452 450
f 498 452 495
f 453 497 451
f 453 499 497
f 498 454 452
f 500 454 498
f 456 501 455
f 501 502 455
f 502 453 455
f 502 499 453
f 500 457 454
f 503 457 500
f 505 504 501
f 456 505 501
f 459 505 456
f 501 504 502
f 503 460 457
f 506 460 503
f 462 507 461
f 507 508 461
f 508 459 461
f 508 505 459
f 506 463 460
f 509 463 506
f 464 510 507
f 464 507 462
f 508 507 511
f 511 507 510
f 509 465 463
f 512 465 509
f 466 513 510
f 466 510 464
f 511 510 514
f 514 510 513
f 512 467 465
f 515 467 512
f 468 516 513
f 468 513 466
f 514 513 517
f 517 513 516
f 515 469 467
f 518 469 515
f 470 516 468
f 470 472 516
f 472 517 516
f 472 519 517
f 518 473 469
f 520 473 518
f 474 522 521
f 519 474 521
f 472 474 519
f 522 523 521
f 520 475 473
f 524 475 520
f 476 522 474
f 476 477 522
f 477 523 522
f 477 525 523
f 524 478 475
f 526 478 524
f 479 525 477
f 479 527 525
f 526 480 478
f 528 480 526
f 481 530 529
f 527 481 529
f 479 481 527
f 530 531 529
f 528 482 480
f 532 482 528
f 483 530 481
f 483 484 530
f 484 531 530
f 484 533 531
f 532 485 482
f 534 485 532
f 486 536 535
f 533 486 535
f 484 486 533
f 534 535 536
f 487 534 536
f 485 534 487
f 488 536 486
f 536 488 487
f 538 537 490
f 538 490 491
f 492 490 537
f 492 537 539
f 494 538 491
f 494 540 538
f 539 495 492
f 541 495 539
f 497 542 496
f 542 543 496
f 543 494 496
f 543 540 494
f 541 498 495
f 544 498 541
f 546 545 542
f 497 546 542
f 499 546 497
f 542 545 543
f 544 500 498
f 547 500 544
f 502 546 499
f 502 548 546
f 547 503 500
f 549 503 547
f 505 550 504
f 550 551 504
f 551 502 504
f 551 548 502
f 549 506 503
f 552 506 549
f 508 553 550
f 508 550 505
f 551 550 554
f 554 550 553
f 552 509 506
f 555 509 552
f 557 556 553
f 508 557 553
f 511 557 508
f 553 556 554
f 555 512 509
f 558 512 555
f 514 557 511
f 514 559 557
f 558 515 512
f 560 515 558
f 517 562 561
f 559 517 561
f 514 517 559
f 562 563 561
f 560 518 515
f 564 518 560
f 519 565 562
f 519 562 517
f 563 562 566
f 566 562 565
f 564 520 518
f 567 520 564
f 521 565 519
f 521 523 565
f 523 566 565
f 523 568 566
f 567 524 520
f 569 524 567
f 525 568 523
f 525 570 568
f 569 526 524
f 571 526 569
f 527 573 572
f 570 527 572
f 525 527 570
f 573 574 572
f 571 528 526
f 575 528 571
f 529 573 527
f 529 531 573
f 531 574 573
f 531 576 574
f 575 532 528
f 577 532 575
f 533 576 531
f 533 578 576
f 577 534 532
f 579 534 577
f 580 578 533
f 580 533 535
f 535 534 579
f 535 579 580
f 538 581 537
f 581 539 537
f 583 582 581
f 538 583 581
f 540 583 538
f 539 581 582
f 584 539 582
f 541 539 584
f 543 583 540
f 543 585 583
f 584 544 541
f 586 544 584
f 546 587 545
f 587 588 545
f 588 543 545
f 588 585 543
f 586 547 544
f 589 547 586
f 591 590 587
f 546 591 587
f 548 591 546
f 587 590 588
f 589 549 547
f 592 549 589
f 551 591 548
f 551 593 591
f 592 552 549
f 594 552 592
f 554 593 551
f 554 595 593
f 594 555 552
f 596 555 594
f 557 597 556
f 597 598 556
f 598 554 556
f 598 595 554
f 596 558 555
f 599 558 596
f 559 600 597
f 559 597 557
f 598 597 601
f 601 597 600
f 599 560 558
f 602 560 599
f 561 600 559
f 561 563 600
f 563 601 600
f 563 603 601
f 602 564 560
f 604 564 602
f 566 603 563
f 566 605 603
f 604 567 564
f 606 567 604
f 568 605 566
f 568 607 605
f 606 569 567
f 608 569 606
f 570 610 609
f 607 570 609
f 568 570 607
f 610 611 609
f 608 571 569
f 612 571 608
f 572 610 570
f 572 574 610
f 574 611 610
f 574 613 611
f 612 575 571
f 614 575 612
f 576 613 574
f 576 615 613
f 614 577 575
f 616 577 614
f 578 618 617
f 615 578 617
f 576 578 615
f 616 617 618
f 579 616 618
f 577 616 579
f 580 618 578
f 618 580 579
f 583 619 582
f 619 584 582
f 621 620 619
f 583 621 619
f 585 621 583
f 584 619 620
f 622 584 620
f 586 584 622
f 588 621 585
f 588 623 621
f 622 589 586
f 624 589 622
f 591 625 590
f 625 626 590
f 626 588 590
f 626 623 588
f 624 592 589
f 627 592 624
f 629 628 625
f 591 629 625
f 593 629 591
f 625 628 626
f 627 594 592
f 630 594 627
f 595 629 593
f 595 631 629
f 630 596 594
f 632 596 630
f 598 631 595
f 598 633 631
f 632 599 596
f 634 599 632
f 601 633 598
f 601 635 633
f 634 602 599
f 636 602 634
f 603 635 601
f 603 637 635
f 636 604 602
f 638 604 636
f 605 637 603
f 605 639 637
f 638 606 604
f 640 606 638
f 607 642 641
f 639 607 641
f 605 607 639
f 642 643 641
f 640 608 606
f 644 608 640
f 609 642 607
f 609 611 642
f 611 643 642
f 611 645 643
f 644 612 608
f 646 612 644
f 613 645 611
f 613 647 645
f 646 614 612
f 648 614 646
f 615 650 649
f 647 615 649
f 613 615 647
f 648 649 650
f 616 648 650
f 614 648 616
f 617 650 615
f 650 617 616
f 621 651 620
f 651 622 620
f 653 652 651
f 621 653 651
f 623 653 621
f 622 651 652
f 654 622 652
f 624 622 654
f 626 653 623
f 626 655 653
f 654 627 624
f 656 627 654
f 629 657 628
f 657 658 628
f 658 626 628
f 658 655 626
f 656 630 627
f 659 630 656
f 631 660 657
f 631 657 629
f 658 657 661
f 661 657 660
f 659 632 630
f 662 632 659
f 633 663 660
f 633 660 631
f 661 660 664
f 664 660 663
f 662 634 632
f 665 634 662
f 635 666 663
f 635 663 633
f 664 663 667
f 667 663 666
f 665 636 634
f 668 636 665
f 637 669 666
f 637 666 635
f 667 666 670
f 670 666 669
f 668 638 636
f 671 638 668
f 639 672 669
f 639 669 637
f 670 669 673
f 673 669 672
f 671 640 638
f 674 640 671
f 641 672 639
f 641 643 672
f 643 673 672
f 643 675 673
f 674 644 640
f 676 644 674
f 645 675 643
f 645 677 675
f 676 646 644
f 678 646 676
f 647 680 679
f 677 647 679
f 645 647 677
f 678 679 680
f 648 678 680
f 646 678 648
f 649 680 647
f 680 649 648
f 653 681 652
f 681 654 652
f 655 682 681
f 655 681 653
f 682 656 654
f 682 654 681
f 684 683 682
f 655 684 682
f 658 684 655
f 656 682 683
f 685 656 683
f 659 656 685
f 661 684 658
f 661 686 684
f 685 662 659
f 687 662 685
f 664 686 661
f 664 688 686
f 687 665 662
f 689 665 687
f 667 688 664
f 667 690 688
f 689 668 665
f 691 668 689
f 670 690 667
f 670 692 690
f 691 671 668
f 693 671 691
f 673 692 670
f 673 694 692
f 693 674 671
f 695 674 693
f 675 697 696
f 694 675 696
f 673 675 694
f 695 696 697
f 676 695 697
f 674 695 676
f 677 698 697
f 677 697 675
f 698 678 676
f 698 676 697
f 679 698 677
f 698 679 678
f 684 699 683
f 699 685 683
f 686 700 699
f 686 699 684
f 700 687 685
f 700 685 699
f 688 701 700
f 688 700 686
f 701 689 687
f 701 687 700
f 690 702 701
f 690 701 688
f 702 691 689
f 702 689 701
f 692 703 702
f 692 702 690
f 703 693 691
f 703 691 702
f 694 704 703
f 694 703 692
f 704 695 693
f 704 693 703
f 696 704 694
f 704 696 695
