v 2.9785854816436768 8.0 15.0
v 3.0 7.953080654144287 15.0
v 3.0 8.0 14.962764739990234
v 3.0 8.0 15.075352668762207
v 2.6343019008636475 9.0 15.0
v 3.0 9.0 14.342586517333984
v 3.0 9.0 15.589969635009766
v 2.9542903900146484 10.0 14.0
v 3.0 9.802846908569336 14.0
v 3.0 10.0 13.955129623413086
v 2.4981963634490967 10.0 15.0
v 3.0 10.0 15.625102043151855
v 2.8380188941955566 11.0 14.0
v 3.0 11.0 13.839040756225586
v 2.4242138862609863 11.0 15.0
v 3.0 11.0 15.625102043151855
v 2.8380188941955566 12.0 14.0
v 3.0 12.0 13.839040756225586
v 2.4242138862609863 12.0 15.0
v 3.0 12.0 15.625102043151855
v 2.9542903900146484 13.0 14.0
v 3.0 13.0 13.955129623413086
v 2.4981963634490967 13.0 15.0
v 3.0 13.0 15.625102043151855
v 3.0 13.197153091430664 14.0
v 3.0 14.0 14.342586517333984
v 2.6343019008636475 14.0 15.0
v 3.0 14.0 15.589969635009766
v 2.9785854816436768 15.0 15.0
v 3.0 15.0 14.962764739990234
v 3.0 15.0 15.075352668762207
v 3.0 15.046918869018555 15.0
v 3.4981963634490967 7.0 15.0
v 4.0 6.177640438079834 15.0
v 4.0 7.0 14.146363258361816
v 4.0 7.0 15.625102043151855
v 3.5633316040039062 8.0 14.0
v 4.0 7.148958206176758 14.0
v 4.0 8.0 13.601957321166992
v 4.0 8.0 15.625102043151855
v 3.3101940155029297 9.0 14.0
v 4.0 9.0 13.364388465881348
v 4.0 9.0 15.625102043151855
v 3.9764957427978516 10.0 13.0
v 4.0 9.910173416137695 13.0
v 4.0 10.0 12.982038497924805
v 4.0 10.0 15.625102043151855
v 3.844715118408203 11.0 13.0
v 4.0 11.0 12.879496574401855
v 4.0 11.0 15.625102043151855
v 3.844715118408203 12.0 13.0
v 4.0 12.0 12.879496574401855
v 4.0 12.0 15.625102043151855
v 3.9764957427978516 13.0 13.0
v 4.0 13.0 12.982038497924805
v 4.0 13.0 15.625102043151855
v 4.0 13.089826583862305 13.0
v 3.3101940155029297 14.0 14.0
v 4.0 14.0 13.364388465881348
v 4.0 14.0 15.625102043151855
v 3.5633316040039062 15.0 14.0
v 4.0 15.0 13.601957321166992
v 4.0 15.0 15.625102043151855
v 4.0 15.851041793823242 14.0
v 3.4981963634490967 16.0 15.0
v 4.0 16.0 14.146363258361816
v 4.0 16.0 15.625102043151855
v 4.0 16.822359085083008 15.0
v 4.972751617431641 5.0 15.0
v 5.0 4.972751617431641 15.0
v 5.0 5.0 14.962764739990234
v 5.0 5.0 15.075352668762207
v 4.79419469833374 6.0 14.0
v 5.0 5.761351585388184 14.0
v 5.0 6.0 13.839040756225586
v 4.177640438079834 6.0 15.0
v 5.0 6.0 15.625102043151855
v 4.146363258361816 7.0 14.0
v 5.0 7.0 13.364388465881348
v 5.0 7.0 15.625102043151855
v 4.676512241363525 8.0 13.0
v 5.0 7.447300434112549 13.0
v 5.0 8.0 12.775123596191406
v 5.0 8.0 15.625102043151855
v 4.364388942718506 9.0 13.0
v 5.0 9.0 12.586324691772461
v 5.0 9.0 15.625102043151855
v 5.0 10.0 12.411360740661621
v 5.0 10.0 15.625102043151855
v 5.0 11.0 12.246676445007324
v 5.0 11.0 15.625102043151855
v 5.0 12.0 12.246676445007324
v 5.0 12.0 15.625102043151855
v 5.0 13.0 12.411360740661621
v 5.0 13.0 15.625102043151855
v 4.364388942718506 14.0 13.0
v 5.0 14.0 12.586324691772461
v 5.0 14.0 15.625102043151855
v 4.676512241363525 15.0 13.0
v 5.0 15.0 12.775123596191406
v 5.0 15.0 15.625102043151855
v 5.0 15.552699089050293 13.0
v 4.146363258361816 16.0 14.0
v 5.0 16.0 13.364388465881348
v 5.0 16.0 15.625102043151855
v 4.79419469833374 17.0 14.0
v 5.0 17.0 13.839040756225586
v 4.177640438079834 17.0 15.0
v 5.0 17.0 15.625102043151855
v 5.0 17.238649368286133 14.0
v 5.0 18.0 14.962764739990234
v 4.972751617431641 18.0 15.0
v 5.0 18.0 15.075352668762207
v 5.0 18.02724838256836 15.0
v 5.761351585388184 5.0 14.0
v 6.0 4.79419469833374 14.0
v 6.0 5.0 13.839040756225586
v 6.0 4.177640438079834 15.0
v 6.0 5.0 15.625102043151855
v 6.0 6.0 13.206952095031738
v 6.0 6.0 15.625102043151855
v 5.364388942718506 7.0 13.0
v 6.0 6.206952095031738 13.0
v 6.0 7.0 12.638401985168457
v 6.0 7.0 15.625102043151855
v 6.0 8.0 12.246676445007324
v 6.0 8.0 15.625102043151855
v 5.62718391418457 9.0 12.0
v 6.0 8.279879570007324 12.0
v 6.0 9.0 11.750715255737305
v 6.0 9.0 15.625102043151855
v 5.411360740661621 10.0 12.0
v 6.0 10.0 11.630025863647461
v 6.0 10.0 15.625102043151855
v 5.246675968170166 11.0 12.0
v 6.0 11.0 11.558778762817383
v 6.0 11.0 15.625102043151855
v 5.246675968170166 12.0 12.0
v 6.0 12.0 11.558778762817383
v 6.0 12.0 15.625102043151855
v 5.411360740661621 13.0 12.0
v 6.0 13.0 11.630025863647461
v 6.0 13.0 15.625102043151855
v 5.62718391418457 14.0 12.0
v 6.0 14.0 11.750715255737305
v 6.0 14.0 15.625102043151855
v 6.0 14.720120429992676 12.0
v 6.0 15.0 12.246676445007324
v 6.0 15.0 15.625102043151855
v 5.364388942718506 16.0 13.0
v 6.0 16.0 12.638401985168457
v 6.0 16.0 15.625102043151855
v 6.0 16.793046951293945 13.0
v 6.0 17.0 13.206952095031738
v 6.0 17.0 15.625102043151855
v 5.761351585388184 18.0 14.0
v 6.0 18.0 13.839040756225586
v 6.0 18.0 15.625102043151855
v 6.0 18.2058048248291 14.0
v 6.0 18.822359085083008 15.0
v 6.177640438079834 4.0 15.0
v 7.0 3.4981963634490967 15.0
v 7.0 4.0 14.146363258361816
v 7.0 4.0 15.625102043151855
v 7.0 4.146363258361816 14.0
v 7.0 5.0 13.364388465881348
v 7.0 5.0 15.625102043151855
v 6.206952095031738 6.0 13.0
v 7.0 5.364388942718506 13.0
v 7.0 6.0 12.638401985168457
v 7.0 6.0 15.625102043151855
v 6.970973491668701 7.0 12.0
v 7.0 6.970973491668701 12.0
v 7.0 7.0 11.984383583068848
v 7.0 7.0 15.625102043151855
v 6.246675968170166 8.0 12.0
v 7.0 8.0 11.630025863647461
v 7.0 8.0 15.625102043151855
v 7.0 9.0 11.258318901062012
v 7.0 9.0 15.625102043151855
v 6.726152420043945 10.0 11.0
v 7.0 9.35163402557373 11.0
v 7.0 10.0 10.79613208770752
v 7.0 10.0 15.625102043151855
v 6.558778762817383 11.0 11.0
v 7.0 11.0 10.664373397827148
v 7.0 11.0 15.625102043151855
v 6.558778762817383 12.0 11.0
v 7.0 12.0 10.664373397827148
v 7.0 12.0 15.625102043151855
v 6.726152420043945 13.0 11.0
v 7.0 13.0 10.79613208770752
v 7.0 13.0 15.625102043151855
v 7.0 13.64836597442627 11.0
v 7.0 14.0 11.258318901062012
v 7.0 14.0 15.625102043151855
v 6.246675968170166 15.0 12.0
v 7.0 15.0 11.630025863647461
v 7.0 15.0 15.625102043151855
v 6.970973491668701 16.0 12.0
v 7.0 16.0 11.984383583068848
v 7.0 16.0 15.625102043151855
v 7.0 16.02902603149414 12.0
v 6.206952095031738 17.0 13.0
v 7.0 17.0 12.638401985168457
v 7.0 17.0 15.625102043151855
v 7.0 17.635610580444336 13.0
v 7.0 18.0 13.364388465881348
v 7.0 18.0 15.625102043151855
v 7.0 18.8536376953125 14.0
v 6.177640438079834 19.0 15.0
v 7.0 19.0 14.146363258361816
v 7.0 19.0 15.625102043151855
v 7.0 19.50180435180664 15.0
v 7.953080654144287 3.0 15.0
v 8.0 2.9785854816436768 15.0
v 8.0 3.0 14.962764739990234
v 8.0 3.0 15.075352668762207
v 7.148958206176758 4.0 14.0
v 8.0 3.5633316040039062 14.0
v 8.0 4.0 13.601957321166992
v 8.0 4.0 15.625102043151855
v 7.447300434112549 5.0 13.0
v 8.0 4.676512241363525 13.0
v 8.0 5.0 12.775123596191406
v 8.0 5.0 15.625102043151855
v 8.0 6.0 12.246676445007324
v 8.0 6.0 15.625102043151855
v 8.0 6.246675968170166 12.0
v 8.0 7.0 11.630025863647461
v 8.0 7.0 15.625102043151855
v 7.925622463226318 8.0 11.0
v 8.0 7.925622463226318 11.0
v 8.0 8.0 10.956561088562012
v 8.0 8.0 15.625102043151855
v 7.258318901062012 9.0 11.0
v 8.0 9.0 10.58757209777832
v 8.0 9.0 15.625102043151855
v 8.0 10.0 10.177967071533203
v 8.0 10.0 15.625102043151855
v 7.814585208892822 11.0 10.0
v 8.0 10.324549674987793 10.0
v 8.0 11.0 9.816917419433594
v 8.0 11.0 15.625102043151855
v 7.814585208892822 12.0 10.0
v 8.0 12.0 9.816917419433594
v 8.0 12.0 15.625102043151855
v 8.0 12.675450325012207 10.0
v 8.0 13.0 10.177967071533203
v 8.0 13.0 15.625102043151855
v 7.258318901062012 14.0 11.0
v 8.0 14.0 10.58757209777832
v 8.0 14.0 15.625102043151855
v 7.925622463226318 15.0 11.0
v 8.0 15.0 10.956561088562012
v 8.0 15.0 15.625102043151855
v 8.0 15.074377059936523 11.0
v 8.0 16.0 11.630025863647461
v 8.0 16.0 15.625102043151855
v 8.0 16.753324508666992 12.0
v 8.0 17.0 12.246676445007324
v 8.0 17.0 15.625102043151855
v 7.447300434112549 18.0 13.0
v 8.0 18.0 12.775123596191406
v 8.0 18.0 15.625102043151855
v 8.0 18.323488235473633 13.0
v 7.148958206176758 19.0 14.0
v 8.0 19.0 13.601957321166992
v 8.0 19.0 15.625102043151855
v 8.0 19.436668395996094 14.0
v 7.953080654144287 20.0 15.0
v 8.0 20.0 14.962764739990234
v 8.0 20.0 15.075352668762207
v 8.0 20.021413803100586 15.0
v 9.0 2.6343019008636475 15.0
v 9.0 3.0 14.342586517333984
v 9.0 3.0 15.589969635009766
v 9.0 3.3101940155029297 14.0
v 9.0 4.0 13.364388465881348
v 9.0 4.0 15.625102043151855
v 9.0 4.364388942718506 13.0
v 9.0 5.0 12.586324691772461
v 9.0 5.0 15.625102043151855
v 8.279879570007324 6.0 12.0
v 9.0 5.62718391418457 12.0
v 9.0 6.0 11.750715255737305
v 9.0 6.0 15.625102043151855
v 9.0 7.0 11.258318901062012
v 9.0 7.0 15.625102043151855
v 9.0 7.258318901062012 11.0
v 9.0 8.0 10.58757209777832
v 9.0 8.0 15.625102043151855
v 8.759725570678711 9.0 10.0
v 9.0 8.759725570678711 10.0
v 9.0 9.0 9.816917419433594
v 9.0 9.0 15.625102043151855
v 8.177967071533203 10.0 10.0
v 9.0 10.0 9.329648971557617
v 9.0 10.0 15.625102043151855
v 8.832468032836914 11.0 9.0
v 9.0 10.54861831665039 9.0
v 9.0 11.0 8.69176197052002
v 9.0 11.0 15.625102043151855
v 8.832468032836914 12.0 9.0
v 9.0 12.0 8.69176197052002
v 9.0 12.0 15.625102043151855
v 9.0 12.45138168334961 9.0
v 8.177967071533203 13.0 10.0
v 9.0 13.0 9.329648971557617
v 9.0 13.0 15.625102043151855
v 8.759725570678711 14.0 10.0
v 9.0 14.0 9.816917419433594
v 9.0 14.0 15.625102043151855
v 9.0 14.240274429321289 10.0
v 9.0 15.0 10.58757209777832
v 9.0 15.0 15.625102043151855
v 9.0 15.741681098937988 11.0
v 9.0 16.0 11.258318901062012
v 9.0 16.0 15.625102043151855
v 8.279879570007324 17.0 12.0
v 9.0 17.0 11.750715255737305
v 9.0 17.0 15.625102043151855
v 9.0 17.37281608581543 12.0
v 9.0 18.0 12.586324691772461
v 9.0 18.0 15.625102043151855
v 9.0 18.635610580444336 13.0
v 9.0 19.0 13.364388465881348
v 9.0 19.0 15.625102043151855
v 9.0 19.68980598449707 14.0
v 9.0 20.0 14.342586517333984
v 9.0 20.0 15.589969635009766
v 9.0 20.365697860717773 15.0
v 9.802846908569336 3.0 14.0
v 10.0 2.9542903900146484 14.0
v 10.0 3.0 13.955129623413086
v 10.0 2.4981963634490967 15.0
v 10.0 3.0 15.625102043151855
v 9.910173416137695 4.0 13.0
v 10.0 3.9764957427978516 13.0
v 10.0 4.0 12.982038497924805
v 10.0 4.0 15.625102043151855
v 10.0 5.0 12.411360740661621
v 10.0 5.0 15.625102043151855
v 10.0 5.411360740661621 12.0
v 10.0 6.0 11.630025863647461
v 10.0 6.0 15.625102043151855
v 9.35163402557373 7.0 11.0
v 10.0 6.726152420043945 11.0
v 10.0 7.0 10.79613208770752
v 10.0 7.0 15.625102043151855
v 10.0 8.0 10.177967071533203
v 10.0 8.0 15.625102043151855
v 10.0 8.177967071533203 10.0
v 10.0 9.0 9.329648971557617
v 10.0 9.0 15.625102043151855
v 9.927645683288574 10.0 8.0
v 10.0 9.927645683288574 8.0
v 10.0 10.0 7.8099365234375
v 9.329648971557617 10.0 9.0
v 10.0 9.329648971557617 9.0
v 10.0 10.0 15.625102043151855
v 9.475895881652832 11.0 8.0
v 10.0 11.0 7.3748979568481445
v 10.0 11.0 15.625102043151855
v 9.475895881652832 12.0 8.0
v 10.0 12.0 7.3748979568481445
v 10.0 12.0 15.625102043151855
v 9.927645683288574 13.0 8.0
v 10.0 13.0 7.8099365234375
v 9.329648971557617 13.0 9.0
v 10.0 13.0 15.625102043151855
v 10.0 13.072354316711426 8.0
v 10.0 13.670351028442383 9.0
v 10.0 14.0 9.329648971557617
v 10.0 14.0 15.625102043151855
v 10.0 14.822032928466797 10.0
v 10.0 15.0 10.177967071533203
v 10.0 15.0 15.625102043151855
v 9.35163402557373 16.0 11.0
v 10.0 16.0 10.79613208770752
v 10.0 16.0 15.625102043151855
v 10.0 16.273847579956055 11.0
v 10.0 17.0 11.630025863647461
v 10.0 17.0 15.625102043151855
v 10.0 17.588640213012695 12.0
v 10.0 18.0 12.411360740661621
v 10.0 18.0 15.625102043151855
v 9.910173416137695 19.0 13.0
v 10.0 19.0 12.982038497924805
v 10.0 19.0 15.625102043151855
v 10.0 19.02350425720215 13.0
v 9.802846908569336 20.0 14.0
v 10.0 20.0 13.955129623413086
v 10.0 20.0 15.625102043151855
v 10.0 20.04570960998535 14.0
v 10.0 20.50180435180664 15.0
v 11.0 2.8380188941955566 14.0
v 11.0 3.0 13.839040756225586
v 11.0 2.4242138862609863 15.0
v 11.0 3.0 15.625102043151855
v 11.0 3.844715118408203 13.0
v 11.0 4.0 12.879496574401855
v 11.0 4.0 15.625102043151855
v 11.0 5.0 12.246676445007324
v 11.0 5.0 15.625102043151855
v 11.0 5.246675968170166 12.0
v 11.0 6.0 11.558778762817383
v 11.0 6.0 15.625102043151855
v 11.0 6.558778762817383 11.0
v 11.0 7.0 10.664373397827148
v 11.0 7.0 15.625102043151855
v 10.324549674987793 8.0 10.0
v 11.0 7.814585208892822 10.0
v 11.0 8.0 9.816917419433594
v 11.0 8.0 15.625102043151855
v 10.54861831665039 9.0 9.0
v 11.0 8.832468032836914 9.0
v 11.0 9.0 8.69176197052002
v 11.0 9.0 15.625102043151855
v 11.0 9.475895881652832 8.0
v 11.0 10.0 7.3748979568481445
v 11.0 10.0 15.625102043151855
v 11.0 11.0 7.3748979568481445
v 11.0 11.0 15.625102043151855
v 11.0 12.0 7.3748979568481445
v 11.0 12.0 15.625102043151855
v 11.0 13.0 7.3748979568481445
v 11.0 13.0 15.625102043151855
v 11.0 13.524104118347168 8.0
v 10.54861831665039 14.0 9.0
v 11.0 14.0 8.69176197052002
v 11.0 14.0 15.625102043151855
v 11.0 14.167531967163086 9.0
v 10.324549674987793 15.0 10.0
v 11.0 15.0 9.816917419433594
v 11.0 15.0 15.625102043151855
v 11.0 15.18541431427002 10.0
v 11.0 16.0 10.664373397827148
v 11.0 16.0 15.625102043151855
v 11.0 16.441221237182617 11.0
v 11.0 17.0 11.558778762817383
v 11.0 17.0 15.625102043151855
v 11.0 17.753324508666992 12.0
v 11.0 18.0 12.246676445007324
v 11.0 18.0 15.625102043151855
v 11.0 19.0 12.879496574401855
v 11.0 19.0 15.625102043151855
v 11.0 19.155284881591797 13.0
v 11.0 20.0 13.839040756225586
v 11.0 20.0 15.625102043151855
v 11.0 20.1619815826416 14.0
v 11.0 20.575786590576172 15.0
v 12.0 2.8380188941955566 14.0
v 12.0 3.0 13.839040756225586
v 12.0 2.4242138862609863 15.0
v 12.0 3.0 15.625102043151855
v 12.0 3.844715118408203 13.0
v 12.0 4.0 12.879496574401855
v 12.0 4.0 15.625102043151855
v 12.0 5.0 12.246676445007324
v 12.0 5.0 15.625102043151855
v 12.0 5.246675968170166 12.0
v 12.0 6.0 11.558778762817383
v 12.0 6.0 15.625102043151855
v 12.0 6.558778762817383 11.0
v 12.0 7.0 10.664373397827148
v 12.0 7.0 15.625102043151855
v 12.0 7.814585208892822 10.0
v 12.0 8.0 9.816917419433594
v 12.0 8.0 15.625102043151855
v 12.0 8.832468032836914 9.0
v 12.0 9.0 8.69176197052002
v 12.0 9.0 15.625102043151855
v 12.0 9.475895881652832 8.0
v 12.0 10.0 7.3748979568481445
v 12.0 10.0 15.625102043151855
v 12.0 11.0 7.3748979568481445
v 12.0 11.0 15.625102043151855
v 12.0 12.0 7.3748979568481445
v 12.0 12.0 15.625102043151855
v 12.0 13.0 7.3748979568481445
v 12.0 13.0 15.625102043151855
v 12.0 13.524104118347168 8.0
v 12.0 14.0 8.69176197052002
v 12.0 14.0 15.625102043151855
v 12.0 14.167531967163086 9.0
v 12.0 15.0 9.816917419433594
v 12.0 15.0 15.625102043151855
v 12.0 15.18541431427002 10.0
v 12.0 16.0 10.664373397827148
v 12.0 16.0 15.625102043151855
v 12.0 16.441221237182617 11.0
v 12.0 17.0 11.558778762817383
v 12.0 17.0 15.625102043151855
v 12.0 17.753324508666992 12.0
v 12.0 18.0 12.246676445007324
v 12.0 18.0 15.625102043151855
v 12.0 19.0 12.879496574401855
v 12.0 19.0 15.625102043151855
v 12.0 19.155284881591797 13.0
v 12.0 20.0 13.839040756225586
v 12.0 20.0 15.625102043151855
v 12.0 20.1619815826416 14.0
v 12.0 20.575786590576172 15.0
v 13.0 2.9542903900146484 14.0
v 13.0 3.0 13.955129623413086
v 13.0 2.4981963634490967 15.0
v 13.0 3.0 15.625102043151855
v 13.0 3.9764957427978516 13.0
v 13.0 4.0 12.982038497924805
v 13.0 4.0 15.625102043151855
v 13.0 5.0 12.411360740661621
v 13.0 5.0 15.625102043151855
v 13.0 5.411360740661621 12.0
v 13.0 6.0 11.630025863647461
v 13.0 6.0 15.625102043151855
v 13.0 6.726152420043945 11.0
v 13.0 7.0 10.79613208770752
v 13.0 7.0 15.625102043151855
v 12.675450325012207 8.0 10.0
v 13.0 8.0 10.177967071533203
v 13.0 8.0 15.625102043151855
v 12.45138168334961 9.0 9.0
v 13.0 9.0 9.329648971557617
v 13.0 8.177967071533203 10.0
v 13.0 9.0 15.625102043151855
v 13.0 9.927645683288574 8.0
v 13.0 10.0 7.8099365234375
v 13.0 9.329648971557617 9.0
v 13.0 10.0 15.625102043151855
v 13.0 11.0 7.3748979568481445
v 13.0 11.0 15.625102043151855
v 13.0 12.0 7.3748979568481445
v 13.0 12.0 15.625102043151855
v 13.0 13.0 7.8099365234375
v 13.0 13.0 15.625102043151855
v 13.0 13.072354316711426 8.0
v 13.0 13.670351028442383 9.0
v 12.45138168334961 14.0 9.0
v 13.0 14.0 9.329648971557617
v 13.0 14.0 15.625102043151855
v 13.0 14.822032928466797 10.0
v 12.675450325012207 15.0 10.0
v 13.0 15.0 10.177967071533203
v 13.0 15.0 15.625102043151855
v 13.0 16.0 10.79613208770752
v 13.0 16.0 15.625102043151855
v 13.0 16.273847579956055 11.0
v 13.0 17.0 11.630025863647461
v 13.0 17.0 15.625102043151855
v 13.0 17.588640213012695 12.0
v 13.0 18.0 12.411360740661621
v 13.0 18.0 15.625102043151855
v 13.0 19.0 12.982038497924805
v 13.0 19.0 15.625102043151855
v 13.0 19.02350425720215 13.0
v 13.0 20.0 13.955129623413086
v 13.0 20.0 15.625102043151855
v 13.0 20.04570960998535 14.0
v 13.0 20.50180435180664 15.0
v 13.197153091430664 3.0 14.0
v 14.0 3.0 14.342586517333984
v 14.0 2.6343019008636475 15.0
v 14.0 3.0 15.589969635009766
v 13.089826583862305 4.0 13.0
v 14.0 4.0 13.364388465881348
v 14.0 3.3101940155029297 14.0
v 14.0 4.0 15.625102043151855
v 14.0 4.364388942718506 13.0
v 14.0 5.0 12.586324691772461
v 14.0 5.0 15.625102043151855
v 14.0 5.62718391418457 12.0
v 14.0 6.0 11.750715255737305
v 14.0 6.0 15.625102043151855
v 13.64836597442627 7.0 11.0
v 14.0 7.0 11.258318901062012
v 14.0 7.0 15.625102043151855
v 14.0 7.258318901062012 11.0
v 14.0 8.0 10.58757209777832
v 14.0 8.0 15.625102043151855
v 14.0 8.759725570678711 10.0
v 14.0 9.0 9.816917419433594
v 14.0 9.0 15.625102043151855
v 13.072354316711426 10.0 8.0
v 13.670351028442383 10.0 9.0
v 14.0 10.0 9.329648971557617
v 14.0 10.0 15.625102043151855
v 13.524104118347168 11.0 8.0
v 14.0 11.0 8.69176197052002
v 14.0 10.54861831665039 9.0
v 14.0 11.0 15.625102043151855
v 13.524104118347168 12.0 8.0
v 14.0 12.0 8.69176197052002
v 14.0 12.0 15.625102043151855
v 13.072354316711426 13.0 8.0
v 14.0 12.45138168334961 9.0
v 13.670351028442383 13.0 9.0
v 14.0 13.0 9.329648971557617
v 14.0 13.0 15.625102043151855
v 14.0 14.0 9.816917419433594
v 14.0 14.0 15.625102043151855
v 14.0 14.240274429321289 10.0
v 14.0 15.0 10.58757209777832
v 14.0 15.0 15.625102043151855
v 14.0 15.741681098937988 11.0
v 13.64836597442627 16.0 11.0
v 14.0 16.0 11.258318901062012
v 14.0 16.0 15.625102043151855
v 14.0 17.0 11.750715255737305
v 14.0 17.0 15.625102043151855
v 14.0 17.37281608581543 12.0
v 14.0 18.0 12.586324691772461
v 14.0 18.0 15.625102043151855
v 14.0 18.635610580444336 13.0
v 13.089826583862305 19.0 13.0
v 14.0 19.0 13.364388465881348
v 14.0 19.0 15.625102043151855
v 14.0 19.68980598449707 14.0
v 13.197153091430664 20.0 14.0
v 14.0 20.0 14.342586517333984
v 14.0 20.0 15.589969635009766
v 14.0 20.365697860717773 15.0
v 15.0 2.9785854816436768 15.0
v 15.0 3.0 14.962764739990234
v 15.0 3.0 15.075352668762207
v 15.0 3.5633316040039062 14.0
v 15.0 4.0 13.601957321166992
v 15.0 4.0 15.625102043151855
v 15.0 4.676512241363525 13.0
v 15.0 5.0 12.775123596191406
v 15.0 5.0 15.625102043151855
v 14.720120429992676 6.0 12.0
v 15.0 6.0 12.246676445007324
v 15.0 6.0 15.625102043151855
v 15.0 6.246675968170166 12.0
v 15.0 7.0 11.630025863647461
v 15.0 7.0 15.625102043151855
v 15.0 7.925622463226318 11.0
v 15.0 8.0 10.956561088562012
v 15.0 8.0 15.625102043151855
v 14.240274429321289 9.0 10.0
v 15.0 9.0 10.58757209777832
v 15.0 9.0 15.625102043151855
v 14.822032928466797 10.0 10.0
v 15.0 10.0 10.177967071533203
v 15.0 10.0 15.625102043151855
v 14.167531967163086 11.0 9.0
v 15.0 11.0 9.816917419433594
v 15.0 10.324549674987793 10.0
v 15.0 11.0 15.625102043151855
v 14.167531967163086 12.0 9.0
v 15.0 12.0 9.816917419433594
v 15.0 12.0 15.625102043151855
v 15.0 12.675450325012207 10.0
v 14.822032928466797 13.0 10.0
v 15.0 13.0 10.177967071533203
v 15.0 13.0 15.625102043151855
v 14.240274429321289 14.0 10.0
v 15.0 14.0 10.58757209777832
v 15.0 14.0 15.625102043151855
v 15.0 15.0 10.956561088562012
v 15.0 15.0 15.625102043151855
v 15.0 15.074377059936523 11.0
v 15.0 16.0 11.630025863647461
v 15.0 16.0 15.625102043151855
v 15.0 16.753324508666992 12.0
v 14.720120429992676 17.0 12.0
v 15.0 17.0 12.246676445007324
v 15.0 17.0 15.625102043151855
v 15.0 18.0 12.775123596191406
v 15.0 18.0 15.625102043151855
v 15.0 18.323488235473633 13.0
v 15.0 19.0 13.601957321166992
v 15.0 19.0 15.625102043151855
v 15.0 19.436668395996094 14.0
v 15.0 20.0 14.962764739990234
v 15.0 20.0 15.075352668762207
v 15.0 20.021413803100586 15.0
v 15.046918869018555 3.0 15.0
v 15.851041793823242 4.0 14.0
v 16.0 4.0 14.146363258361816
v 16.0 3.4981963634490967 15.0
v 16.0 4.0 15.625102043151855
v 15.552699089050293 5.0 13.0
v 16.0 5.0 13.364388465881348
v 16.0 4.146363258361816 14.0
v 16.0 5.0 15.625102043151855
v 16.0 5.364388942718506 13.0
v 16.0 6.0 12.638401985168457
v 16.0 6.0 15.625102043151855
v 16.0 6.970973491668701 12.0
v 16.0 7.0 11.984383583068848
v 16.0 7.0 15.625102043151855
v 15.074377059936523 8.0 11.0
v 16.0 8.0 11.630025863647461
v 16.0 8.0 15.625102043151855
v 15.741681098937988 9.0 11.0
v 16.0 9.0 11.258318901062012
v 16.0 9.0 15.625102043151855
v 16.0 9.35163402557373 11.0
v 16.0 10.0 10.79613208770752
v 16.0 10.0 15.625102043151855
v 15.18541431427002 11.0 10.0
v 16.0 11.0 10.664373397827148
v 16.0 11.0 15.625102043151855
v 15.18541431427002 12.0 10.0
v 16.0 12.0 10.664373397827148
v 16.0 12.0 15.625102043151855
v 16.0 13.0 10.79613208770752
v 16.0 13.0 15.625102043151855
v 16.0 13.64836597442627 11.0
v 15.741681098937988 14.0 11.0
v 16.0 14.0 11.258318901062012
v 16.0 14.0 15.625102043151855
v 15.074377059936523 15.0 11.0
v 16.0 15.0 11.630025863647461
v 16.0 15.0 15.625102043151855
v 16.0 16.0 11.984383583068848
v 16.0 16.0 15.625102043151855
v 16.0 16.02902603149414 12.0
v 16.0 17.0 12.638401985168457
v 16.0 17.0 15.625102043151855
v 16.0 17.635610580444336 13.0
v 15.552699089050293 18.0 13.0
v 16.0 18.0 13.364388465881348
v 16.0 18.0 15.625102043151855
v 16.0 18.8536376953125 14.0
v 15.851041793823242 19.0 14.0
v 16.0 19.0 14.146363258361816
v 16.0 19.0 15.625102043151855
v 16.0 19.50180435180664 15.0
v 15.046918869018555 20.0 15.0
v 16.822359085083008 4.0 15.0
v 17.0 4.79419469833374 14.0
v 17.0 5.0 13.839040756225586
v 17.0 4.177640438079834 15.0
v 17.0 5.0 15.625102043151855
v 16.793046951293945 6.0 13.0
v 17.0 6.0 13.206952095031738
v 17.0 6.0 15.625102043151855
v 16.02902603149414 7.0 12.0
v 17.0 7.0 12.638401985168457
v 17.0 6.206952095031738 13.0
v 17.0 7.0 15.625102043151855
v 16.753324508666992 8.0 12.0
v 17.0 8.0 12.246676445007324
v 17.0 8.0 15.625102043151855
v 17.0 8.279879570007324 12.0
v 17.0 9.0 11.750715255737305
v 17.0 9.0 15.625102043151855
v 16.273847579956055 10.0 11.0
v 17.0 10.0 11.630025863647461
v 17.0 10.0 15.625102043151855
v 16.441221237182617 11.0 11.0
v 17.0 11.0 11.558778762817383
v 17.0 11.0 15.625102043151855
v 16.441221237182617 12.0 11.0
v 17.0 12.0 11.558778762817383
v 17.0 12.0 15.625102043151855
v 16.273847579956055 13.0 11.0
v 17.0 13.0 11.630025863647461
v 17.0 13.0 15.625102043151855
v 17.0 14.0 11.750715255737305
v 17.0 14.0 15.625102043151855
v 17.0 14.720120429992676 12.0
v 16.753324508666992 15.0 12.0
v 17.0 15.0 12.246676445007324
v 17.0 15.0 15.625102043151855
v 16.02902603149414 16.0 12.0
v 17.0 16.0 12.638401985168457
v 17.0 16.0 15.625102043151855
v 17.0 16.793046951293945 13.0
v 16.793046951293945 17.0 13.0
v 17.0 17.0 13.206952095031738
v 17.0 17.0 15.625102043151855
v 17.0 18.0 13.839040756225586
v 17.0 18.0 15.625102043151855
v 17.0 18.2058048248291 14.0
v 17.0 18.822359085083008 15.0
v 16.822359085083008 19.0 15.0
v 17.238649368286133 5.0 14.0
v 18.0 5.0 14.962764739990234
v 18.0 4.972751617431641 15.0
v 18.0 5.0 15.075352668762207
v 18.0 5.761351585388184 14.0
v 18.0 6.0 13.839040756225586
v 18.0 6.0 15.625102043151855
v 17.635610580444336 7.0 13.0
v 18.0 7.0 13.364388465881348
v 18.0 7.0 15.625102043151855
v 18.0 7.447300434112549 13.0
v 18.0 8.0 12.775123596191406
v 18.0 8.0 15.625102043151855
v 17.37281608581543 9.0 12.0
v 18.0 9.0 12.586324691772461
v 18.0 9.0 15.625102043151855
v 17.588640213012695 10.0 12.0
v 18.0 10.0 12.411360740661621
v 18.0 10.0 15.625102043151855
v 17.753324508666992 11.0 12.0
v 18.0 11.0 12.246676445007324
v 18.0 11.0 15.625102043151855
v 17.753324508666992 12.0 12.0
v 18.0 12.0 12.246676445007324
v 18.0 12.0 15.625102043151855
v 17.588640213012695 13.0 12.0
v 18.0 13.0 12.411360740661621
v 18.0 13.0 15.625102043151855
v 17.37281608581543 14.0 12.0
v 18.0 14.0 12.586324691772461
v 18.0 14.0 15.625102043151855
v 18.0 15.0 12.775123596191406
v 18.0 15.0 15.625102043151855
v 18.0 15.552699089050293 13.0
v 17.635610580444336 16.0 13.0
v 18.0 16.0 13.364388465881348
v 18.0 16.0 15.625102043151855
v 18.0 17.0 13.839040756225586
v 18.0 17.0 15.625102043151855
v 18.0 17.238649368286133 14.0
v 17.238649368286133 18.0 14.0
v 18.0 18.0 14.962764739990234
v 18.0 18.0 15.075352668762207
v 18.0 18.02724838256836 15.0
v 18.02724838256836 5.0 15.0
v 18.2058048248291 6.0 14.0
v 18.822359085083008 6.0 15.0
v 18.8536376953125 7.0 14.0
v 19.0 7.0 14.146363258361816
v 19.0 6.177640438079834 15.0
v 19.0 7.0 15.625102043151855
v 18.323488235473633 8.0 13.0
v 19.0 8.0 13.601957321166992
v 19.0 7.148958206176758 14.0
v 19.0 8.0 15.625102043151855
v 18.635610580444336 9.0 13.0
v 19.0 9.0 13.364388465881348
v 19.0 9.0 15.625102043151855
v 19.0 9.910173416137695 13.0
v 19.0 10.0 12.982038497924805
v 19.0 10.0 15.625102043151855
v 19.0 11.0 12.879496574401855
v 19.0 11.0 15.625102043151855
v 19.0 12.0 12.879496574401855
v 19.0 12.0 15.625102043151855
v 19.0 13.0 12.982038497924805
v 19.0 13.0 15.625102043151855
v 19.0 13.089826583862305 13.0
v 18.635610580444336 14.0 13.0
v 19.0 14.0 13.364388465881348
v 19.0 14.0 15.625102043151855
v 18.323488235473633 15.0 13.0
v 19.0 15.0 13.601957321166992
v 19.0 15.0 15.625102043151855
v 19.0 15.851041793823242 14.0
v 18.8536376953125 16.0 14.0
v 19.0 16.0 14.146363258361816
v 19.0 16.0 15.625102043151855
v 18.2058048248291 17.0 14.0
v 19.0 16.822359085083008 15.0
v 18.822359085083008 17.0 15.0
v 18.02724838256836 18.0 15.0
v 19.50180435180664 7.0 15.0
v 19.436668395996094 8.0 14.0
v 20.0 8.0 14.962764739990234
v 20.0 7.953080654144287 15.0
v 20.0 8.0 15.075352668762207
v 19.68980598449707 9.0 14.0
v 20.0 9.0 14.342586517333984
v 20.0 9.0 15.589969635009766
v 19.02350425720215 10.0 13.0
v 20.0 10.0 13.955129623413086
v 20.0 9.802846908569336 14.0
v 20.0 10.0 15.625102043151855
v 19.155284881591797 11.0 13.0
v 20.0 11.0 13.839040756225586
v 20.0 11.0 15.625102043151855
v 19.155284881591797 12.0 13.0
v 20.0 12.0 13.839040756225586
v 20.0 12.0 15.625102043151855
v 19.02350425720215 13.0 13.0
v 20.0 13.0 13.955129623413086
v 20.0 13.0 15.625102043151855
v 20.0 13.197153091430664 14.0
v 19.68980598449707 14.0 14.0
v 20.0 14.0 14.342586517333984
v 20.0 14.0 15.589969635009766
v 19.436668395996094 15.0 14.0
v 20.0 15.0 14.962764739990234
v 20.0 15.0 15.075352668762207
v 20.0 15.046918869018555 15.0
v 19.50180435180664 16.0 15.0
v 20.021413803100586 8.0 15.0
v 20.365697860717773 9.0 15.0
v 20.04570960998535 10.0 14.0
v 20.50180435180664 10.0 15.0
v 20.1619815826416 11.0 14.0
v 20.575786590576172 11.0 15.0
v 20.1619815826416 12.0 14.0
v 20.575786590576172 12.0 15.0
v 20.04570960998535 13.0 14.0
v 20.50180435180664 13.0 15.0
v 20.365697860717773 14.0 15.0
v 20.021413803100586 15.0 15.0
f 3 2 1
f 4 1 2
f 3 1 5
f 3 5 6
f 1 4 7
f 1 7 5
f 10 9 8
f 8 9 6
f 5 8 6
f 11 8 5
f 5 7 12
f 5 12 11
f 10 8 13
f 10 13 14
f 15 8 11
f 13 8 15
f 11 12 16
f 11 16 15
f 14 13 17
f 14 17 18
f 19 13 15
f 17 13 19
f 15 16 20
f 15 20 19
f 18 17 21
f 18 21 22
f 23 17 19
f 21 17 23
f 19 20 24
f 19 24 23
f 25 22 21
f 27 26 25
f 21 27 25
f 23 27 21
f 23 24 28
f 23 28 27
f 26 27 29
f 26 29 30
f 27 28 31
f 27 31 29
f 32 30 29
f 32 29 31
f 35 34 33
f 36 33 34
f 39 38 37
f 37 38 35
f 37 35 33
f 3 37 33
f 2 3 33
f 4 2 33
f 36 4 33
f 40 4 36
f 39 37 41
f 39 41 42
f 6 41 3
f 3 41 37
f 40 7 4
f 43 7 40
f 46 45 44
f 44 45 42
f 44 42 41
f 10 44 41
f 9 10 41
f 9 41 6
f 43 12 7
f 47 12 43
f 46 44 48
f 46 48 49
f 14 48 10
f 10 48 44
f 47 16 12
f 50 16 47
f 49 48 51
f 49 51 52
f 18 51 14
f 14 51 48
f 50 20 16
f 53 20 50
f 52 51 54
f 52 54 55
f 22 54 18
f 18 54 51
f 53 24 20
f 56 24 53
f 57 55 54
f 59 57 58
f 58 57 25
f 57 54 25
f 54 22 25
f 26 58 25
f 56 28 24
f 60 28 56
f 59 58 61
f 59 61 62
f 30 61 26
f 26 61 58
f 60 31 28
f 63 31 60
f 64 62 61
f 66 64 65
f 65 64 32
f 64 61 32
f 61 30 32
f 67 65 32
f 31 67 32
f 63 67 31
f 68 66 65
f 68 65 67
f 71 70 69
f 72 69 70
f 75 74 73
f 73 74 71
f 69 73 71
f 76 73 69
f 69 72 77
f 69 77 76
f 75 73 78
f 75 78 79
f 35 78 34
f 78 76 34
f 78 73 76
f 36 34 76
f 77 36 76
f 80 36 77
f 83 82 81
f 81 82 79
f 81 79 78
f 39 81 78
f 38 39 78
f 38 78 35
f 80 40 36
f 84 40 80
f 83 81 85
f 83 85 86
f 42 85 39
f 39 85 81
f 84 43 40
f 87 43 84
f 86 85 45
f 46 86 45
f 88 86 46
f 45 85 42
f 87 47 43
f 89 47 87
f 49 88 46
f 49 90 88
f 89 50 47
f 91 50 89
f 52 90 49
f 52 92 90
f 91 53 50
f 93 53 91
f 55 92 52
f 55 94 92
f 93 56 53
f 95 56 93
f 55 57 96
f 97 55 96
f 94 55 97
f 59 96 57
f 95 60 56
f 98 60 95
f 97 96 99
f 97 99 100
f 62 99 59
f 59 99 96
f 98 63 60
f 101 63 98
f 102 100 99
f 104 102 103
f 103 102 64
f 102 99 64
f 99 62 64
f 66 103 64
f 101 67 63
f 105 67 101
f 104 103 106
f 104 106 107
f 68 108 66
f 108 103 66
f 108 106 103
f 109 108 68
f 67 109 68
f 105 109 67
f 110 107 106
f 112 111 110
f 106 112 110
f 108 112 106
f 108 109 113
f 108 113 112
f 114 111 112
f 114 112 113
f 117 116 115
f 70 71 115
f 116 70 115
f 118 70 116
f 72 70 118
f 72 118 119
f 117 115 74
f 75 117 74
f 120 117 75
f 74 115 71
f 119 77 72
f 121 77 119
f 124 123 122
f 123 120 122
f 120 79 122
f 120 75 79
f 121 80 77
f 125 80 121
f 124 122 82
f 83 124 82
f 126 124 83
f 82 122 79
f 125 84 80
f 127 84 125
f 130 129 128
f 129 126 128
f 126 86 128
f 126 83 86
f 127 87 84
f 131 87 127
f 130 128 132
f 130 132 133
f 88 132 86
f 86 132 128
f 131 89 87
f 134 89 131
f 133 132 135
f 133 135 136
f 90 135 88
f 88 135 132
f 134 91 89
f 137 91 134
f 136 135 138
f 136 138 139
f 92 138 90
f 90 138 135
f 137 93 91
f 140 93 137
f 139 138 141
f 139 141 142
f 94 141 92
f 92 141 138
f 140 95 93
f 143 95 140
f 142 141 144
f 142 144 145
f 97 144 94
f 94 144 141
f 143 98 95
f 146 98 143
f 147 145 144
f 144 97 147
f 97 148 147
f 97 100 148
f 146 101 98
f 149 101 146
f 100 102 150
f 151 100 150
f 148 100 151
f 104 150 102
f 149 105 101
f 152 105 149
f 153 151 150
f 150 104 153
f 104 154 153
f 104 107 154
f 152 109 105
f 155 109 152
f 107 110 156
f 157 107 156
f 154 107 157
f 111 156 110
f 155 113 109
f 158 113 155
f 159 157 156
f 159 156 111
f 114 159 111
f 160 159 114
f 114 113 158
f 114 158 160
f 163 162 161
f 164 161 162
f 166 165 116
f 166 116 117
f 161 118 163
f 118 165 163
f 118 116 165
f 119 118 161
f 164 119 161
f 167 119 164
f 170 169 168
f 169 166 168
f 166 120 168
f 166 117 120
f 167 121 119
f 171 121 167
f 174 173 172
f 172 173 170
f 172 170 168
f 124 172 168
f 123 124 168
f 123 168 120
f 171 125 121
f 175 125 171
f 174 172 176
f 174 176 177
f 126 176 124
f 124 176 172
f 175 127 125
f 178 127 175
f 177 176 129
f 130 177 129
f 179 177 130
f 129 176 126
f 178 131 127
f 180 131 178
f 183 182 181
f 182 179 181
f 179 133 181
f 179 130 133
f 180 134 131
f 184 134 180
f 183 181 185
f 183 185 186
f 136 185 133
f 133 185 181
f 184 137 134
f 187 137 184
f 186 185 188
f 186 188 189
f 139 188 136
f 136 188 185
f 187 140 137
f 190 140 187
f 189 188 191
f 189 191 192
f 142 191 139
f 139 191 188
f 190 143 140
f 193 143 190
f 194 192 191
f 191 142 194
f 142 195 194
f 142 145 195
f 193 146 143
f 196 146 193
f 145 147 197
f 198 145 197
f 195 145 198
f 148 197 147
f 196 149 146
f 199 149 196
f 198 197 200
f 198 200 201
f 151 200 148
f 148 200 197
f 199 152 149
f 202 152 199
f 203 201 200
f 205 203 204
f 204 203 153
f 203 200 153
f 200 151 153
f 154 204 153
f 202 155 152
f 206 155 202
f 207 205 204
f 204 154 207
f 154 208 207
f 154 157 208
f 206 158 155
f 209 158 206
f 210 208 157
f 210 157 159
f 212 210 211
f 210 160 211
f 210 159 160
f 213 211 160
f 158 213 160
f 209 213 158
f 214 212 211
f 214 211 213
f 217 216 215
f 218 215 216
f 221 220 219
f 219 220 217
f 219 217 215
f 163 219 215
f 162 163 215
f 164 162 215
f 218 164 215
f 222 164 218
f 225 224 223
f 223 224 221
f 223 221 219
f 166 223 219
f 165 166 219
f 165 219 163
f 222 167 164
f 226 167 222
f 225 223 169
f 170 225 169
f 227 225 170
f 169 223 166
f 226 171 167
f 228 171 226
f 230 229 173
f 230 173 174
f 170 173 227
f 227 173 229
f 228 175 171
f 231 175 228
f 234 233 232
f 233 230 232
f 230 177 232
f 230 174 177
f 231 178 175
f 235 178 231
f 234 232 236
f 234 236 237
f 179 236 177
f 177 236 232
f 235 180 178
f 238 180 235
f 237 236 182
f 183 237 182
f 239 237 183
f 182 236 179
f 238 184 180
f 240 184 238
f 243 242 241
f 242 239 241
f 239 186 241
f 239 183 186
f 240 187 184
f 244 187 240
f 243 241 245
f 243 245 246
f 189 245 186
f 186 245 241
f 244 190 187
f 247 190 244
f 248 246 245
f 245 189 248
f 189 249 248
f 189 192 249
f 247 193 190
f 250 193 247
f 192 194 251
f 252 192 251
f 249 192 252
f 195 251 194
f 250 196 193
f 253 196 250
f 252 251 254
f 252 254 255
f 198 254 195
f 195 254 251
f 253 199 196
f 256 199 253
f 257 255 254
f 254 198 257
f 198 258 257
f 198 201 258
f 256 202 199
f 259 202 256
f 260 258 201
f 260 201 203
f 203 205 260
f 260 205 261
f 259 206 202
f 262 206 259
f 205 207 263
f 264 205 263
f 261 205 264
f 208 263 207
f 262 209 206
f 265 209 262
f 266 264 263
f 268 266 267
f 267 266 210
f 266 263 210
f 263 208 210
f 212 267 210
f 265 213 209
f 269 213 265
f 270 268 267
f 272 270 271
f 271 270 214
f 270 267 214
f 267 212 214
f 273 271 214
f 213 273 214
f 269 273 213
f 274 272 271
f 274 271 273
f 276 275 216
f 276 216 217
f 218 216 275
f 218 275 277
f 279 278 220
f 279 220 221
f 217 220 276
f 276 220 278
f 277 222 218
f 280 222 277
f 282 281 224
f 282 224 225
f 221 224 279
f 279 224 281
f 280 226 222
f 283 226 280
f 286 285 284
f 285 282 284
f 282 227 284
f 282 225 227
f 283 228 226
f 287 228 283
f 286 284 229
f 230 286 229
f 288 286 230
f 229 284 227
f 287 231 228
f 289 231 287
f 291 290 233
f 291 233 234
f 230 233 288
f 288 233 290
f 289 235 231
f 292 235 289
f 295 294 293
f 294 291 293
f 291 237 293
f 291 234 237
f 292 238 235
f 296 238 292
f 295 293 297
f 295 297 298
f 239 297 237
f 237 297 293
f 296 240 238
f 299 240 296
f 302 301 300
f 300 301 298
f 300 298 297
f 243 300 297
f 242 243 297
f 242 297 239
f 299 244 240
f 303 244 299
f 302 300 304
f 302 304 305
f 246 304 243
f 243 304 300
f 303 247 244
f 306 247 303
f 307 305 304
f 309 307 308
f 308 307 248
f 307 304 248
f 304 246 248
f 249 308 248
f 306 250 247
f 310 250 306
f 309 308 311
f 309 311 312
f 252 311 249
f 249 311 308
f 310 253 250
f 313 253 310
f 314 312 311
f 311 252 314
f 252 315 314
f 252 255 315
f 313 256 253
f 316 256 313
f 317 315 255
f 317 255 257
f 257 258 317
f 317 258 318
f 316 259 256
f 319 259 316
f 258 260 320
f 321 258 320
f 318 258 321
f 261 320 260
f 319 262 259
f 322 262 319
f 323 321 320
f 320 261 323
f 261 324 323
f 261 264 324
f 322 265 262
f 325 265 322
f 326 324 264
f 326 264 266
f 266 268 326
f 326 268 327
f 325 269 265
f 328 269 325
f 329 327 268
f 329 268 270
f 270 272 329
f 329 272 330
f 328 273 269
f 331 273 328
f 332 330 272
f 332 272 274
f 274 273 331
f 274 331 332
f 335 334 333
f 275 276 333
f 334 275 333
f 336 275 334
f 277 275 336
f 277 336 337
f 340 339 338
f 338 339 335
f 338 335 333
f 279 338 333
f 278 279 333
f 278 333 276
f 337 280 277
f 341 280 337
f 340 338 281
f 282 340 281
f 342 340 282
f 281 338 279
f 341 283 280
f 343 283 341
f 345 344 285
f 345 285 286
f 282 285 342
f 342 285 344
f 343 287 283
f 346 287 343
f 349 348 347
f 348 345 347
f 345 288 347
f 345 286 288
f 346 289 287
f 350 289 346
f 349 347 290
f 291 349 290
f 351 349 291
f 290 347 288
f 350 292 289
f 352 292 350
f 354 353 294
f 354 294 295
f 291 294 351
f 351 294 353
f 352 296 292
f 355 296 352
f 358 357 356
f 360 359 356
f 360 356 357
f 360 354 359
f 354 298 359
f 354 295 298
f 355 299 296
f 361 299 355
f 358 356 362
f 358 362 363
f 302 362 301
f 362 359 301
f 362 356 359
f 301 359 298
f 361 303 299
f 364 303 361
f 363 362 365
f 363 365 366
f 305 365 302
f 302 365 362
f 364 306 303
f 367 306 364
f 366 365 368
f 366 368 369
f 307 370 305
f 370 365 305
f 370 368 365
f 309 370 307
f 367 310 306
f 371 310 367
f 372 369 368
f 372 368 370
f 372 370 373
f 370 309 373
f 309 374 373
f 309 312 374
f 371 313 310
f 375 313 371
f 376 374 312
f 376 312 314
f 314 315 376
f 376 315 377
f 375 316 313
f 378 316 375
f 315 317 379
f 380 315 379
f 377 315 380
f 318 379 317
f 378 319 316
f 381 319 378
f 382 380 379
f 379 318 382
f 318 383 382
f 318 321 383
f 381 322 319
f 384 322 381
f 385 383 321
f 385 321 323
f 323 324 385
f 385 324 386
f 384 325 322
f 387 325 384
f 324 326 388
f 389 324 388
f 386 324 389
f 327 388 326
f 387 328 325
f 390 328 387
f 391 389 388
f 393 391 392
f 392 391 329
f 391 388 329
f 388 327 329
f 330 392 329
f 390 331 328
f 394 331 390
f 395 393 392
f 395 392 330
f 332 395 330
f 396 395 332
f 332 331 394
f 332 394 396
f 398 397 334
f 398 334 335
f 334 399 336
f 397 399 334
f 337 336 399
f 337 399 400
f 402 401 339
f 402 339 340
f 335 339 398
f 398 339 401
f 400 341 337
f 403 341 400
f 342 402 340
f 342 404 402
f 403 343 341
f 405 343 403
f 407 406 344
f 407 344 345
f 342 344 404
f 404 344 406
f 405 346 343
f 408 346 405
f 410 409 348
f 410 348 349
f 345 348 407
f 407 348 409
f 408 350 346
f 411 350 408
f 414 413 412
f 413 410 412
f 410 351 412
f 410 349 351
f 411 352 350
f 415 352 411
f 418 417 416
f 416 417 414
f 416 414 412
f 354 416 412
f 353 354 412
f 353 412 351
f 415 355 352
f 419 355 415
f 421 420 357
f 421 357 358
f 416 360 418
f 360 420 418
f 360 357 420
f 360 416 354
f 419 361 355
f 422 361 419
f 363 421 358
f 363 423 421
f 422 364 361
f 424 364 422
f 366 423 363
f 366 425 423
f 424 367 364
f 426 367 424
f 369 425 366
f 369 427 425
f 426 371 367
f 428 371 426
f 429 427 369
f 429 369 372
f 431 429 430
f 429 373 430
f 429 372 373
f 374 430 373
f 428 375 371
f 432 375 428
f 433 431 430
f 435 433 434
f 434 433 376
f 433 430 376
f 430 374 376
f 377 434 376
f 432 378 375
f 436 378 432
f 437 435 434
f 434 377 437
f 377 438 437
f 377 380 438
f 436 381 378
f 439 381 436
f 440 438 380
f 440 380 382
f 382 383 440
f 440 383 441
f 439 384 381
f 442 384 439
f 443 441 383
f 443 383 385
f 385 386 443
f 443 386 444
f 442 387 384
f 445 387 442
f 389 444 386
f 389 446 444
f 445 390 387
f 447 390 445
f 448 446 389
f 448 389 391
f 391 393 448
f 448 393 449
f 447 394 390
f 450 394 447
f 451 449 393
f 451 393 395
f 452 395 396
f 452 451 395
f 396 394 450
f 396 450 452
f 454 453 397
f 454 397 398
f 397 455 399
f 453 455 397
f 400 399 455
f 400 455 456
f 458 457 401
f 458 401 402
f 398 401 454
f 454 401 457
f 456 403 400
f 459 403 456
f 404 458 402
f 404 460 458
f 459 405 403
f 461 405 459
f 463 462 406
f 463 406 407
f 404 406 460
f 460 406 462
f 461 408 405
f 464 408 461
f 466 465 409
f 466 409 410
f 407 409 463
f 463 409 465
f 464 411 408
f 467 411 464
f 469 468 413
f 469 413 414
f 410 413 466
f 466 413 468
f 467 415 411
f 470 415 467
f 472 471 417
f 472 417 418
f 414 417 469
f 469 417 471
f 470 419 415
f 473 419 470
f 475 474 420
f 475 420 421
f 418 420 472
f 472 420 474
f 473 422 419
f 476 422 473
f 423 475 421
f 423 477 475
f 476 424 422
f 478 424 476
f 425 477 423
f 425 479 477
f 478 426 424
f 480 426 478
f 427 479 425
f 427 481 479
f 480 428 426
f 482 428 480
f 483 481 427
f 483 427 429
f 429 431 483
f 483 431 484
f 482 432 428
f 485 432 482
f 486 484 431
f 486 431 433
f 433 435 486
f 486 435 487
f 485 436 432
f 488 436 485
f 489 487 435
f 489 435 437
f 437 438 489
f 489 438 490
f 488 439 436
f 491 439 488
f 492 490 438
f 492 438 440
f 440 441 492
f 492 441 493
f 491 442 439
f 494 442 491
f 495 493 441
f 495 441 443
f 443 444 495
f 495 444 496
f 494 445 442
f 497 445 494
f 446 496 444
f 446 498 496
f 497 447 445
f 499 447 497
f 500 498 446
f 500 446 448
f 448 449 500
f 500 449 501
f 499 450 447
f 502 450 499
f 503 501 449
f 503 449 451
f 504 451 452
f 504 503 451
f 452 450 502
f 452 502 504
f 506 505 453
f 506 453 454
f 453 507 455
f 505 507 453
f 456 455 507
f 456 507 508
f 510 509 457
f 510 457 458
f 454 457 506
f 506 457 509
f 508 459 456
f 511 459 508
f 460 510 458
f 460 512 510
f 511 461 459
f 513 461 511
f 515 514 462
f 515 462 463
f 460 462 512
f 512 462 514
f 513 464 461
f 516 464 513
f 518 517 465
f 518 465 466
f 463 465 515
f 515 465 517
f 516 467 464
f 519 467 516
f 469 520 468
f 520 521 468
f 521 466 468
f 521 518 466
f 519 470 467
f 522 470 519
f 472 523 471
f 523 524 471
f 471 524 469
f 524 525 469
f 525 520 469
f 520 525 521
f 522 473 470
f 526 473 522
f 528 527 474
f 528 474 475
f 472 474 523
f 474 529 523
f 474 527 529
f 523 529 524
f 526 476 473
f 530 476 526
f 477 528 475
f 477 531 528
f 530 478 476
f 532 478 530
f 479 531 477
f 479 533 531
f 532 480 478
f 534 480 532
f 481 533 479
f 481 535 533
f 534 482 480
f 536 482 534
f 537 535 481
f 537 481 483
f 539 538 484
f 538 483 484
f 538 537 483
f 539 540 538
f 536 485 482
f 541 485 536
f 486 539 484
f 543 542 487
f 487 542 486
f 542 540 486
f 540 539 486
f 543 544 542
f 541 488 485
f 545 488 541
f 489 543 487
f 489 490 543
f 490 544 543
f 490 546 544
f 545 491 488
f 547 491 545
f 548 546 490
f 548 490 492
f 492 493 548
f 548 493 549
f 547 494 491
f 550 494 547
f 551 549 493
f 551 493 495
f 495 496 551
f 551 496 552
f 550 497 494
f 553 497 550
f 498 552 496
f 498 554 552
f 553 499 497
f 555 499 553
f 556 554 498
f 556 498 500
f 500 501 556
f 556 501 557
f 555 502 499
f 558 502 555
f 559 557 501
f 559 501 503
f 560 503 504
f 560 559 503
f 504 502 558
f 504 558 560
f 506 561 505
f 505 561 562
f 563 505 562
f 507 505 563
f 508 507 563
f 508 563 564
f 510 565 509
f 565 566 509
f 509 566 506
f 566 567 506
f 567 561 506
f 561 567 562
f 564 511 508
f 568 511 564
f 570 569 565
f 510 570 565
f 512 570 510
f 565 569 566
f 568 513 511
f 571 513 568
f 573 572 514
f 573 514 515
f 512 514 570
f 570 514 572
f 571 516 513
f 574 516 571
f 518 575 517
f 575 576 517
f 576 515 517
f 576 573 515
f 574 519 516
f 577 519 574
f 579 578 575
f 518 579 575
f 521 579 518
f 575 578 576
f 577 522 519
f 580 522 577
f 582 581 525
f 582 525 524
f 521 525 579
f 579 525 581
f 580 526 522
f 583 526 580
f 528 584 527
f 585 529 527
f 585 527 584
f 585 586 529
f 586 524 529
f 586 582 524
f 583 530 526
f 587 530 583
f 531 588 584
f 531 584 528
f 590 585 589
f 585 588 589
f 585 584 588
f 585 590 586
f 587 532 530
f 591 532 587
f 533 592 588
f 533 588 531
f 589 588 593
f 593 588 592
f 591 534 532
f 594 534 591
f 535 595 592
f 535 592 533
f 593 592 596
f 592 597 596
f 592 595 597
f 597 598 596
f 594 536 534
f 599 536 594
f 537 595 535
f 595 537 538
f 595 538 597
f 538 540 597
f 540 598 597
f 540 600 598
f 599 541 536
f 601 541 599
f 602 600 540
f 602 540 542
f 542 544 602
f 602 544 603
f 601 545 541
f 604 545 601
f 546 606 605
f 603 546 605
f 544 546 603
f 606 607 605
f 604 547 545
f 608 547 604
f 548 606 546
f 548 549 606
f 549 607 606
f 549 609 607
f 608 550 547
f 610 550 608
f 611 609 549
f 611 549 551
f 551 552 611
f 611 552 612
f 610 553 550
f 613 553 610
f 554 615 614
f 612 554 614
f 552 554 612
f 615 616 614
f 613 555 553
f 617 555 613
f 556 615 554
f 619 618 557
f 557 618 556
f 618 616 556
f 616 615 556
f 619 620 618
f 617 558 555
f 621 558 617
f 559 619 557
f 622 620 619
f 559 622 619
f 560 622 559
f 560 558 621
f 560 621 622
f 624 623 563
f 624 563 562
f 564 563 623
f 564 623 625
f 627 626 567
f 627 567 566
f 562 567 624
f 624 567 626
f 625 568 564
f 628 568 625
f 630 629 569
f 630 569 570
f 566 569 627
f 627 569 629
f 628 571 568
f 631 571 628
f 573 632 572
f 632 633 572
f 633 570 572
f 633 630 570
f 631 574 571
f 634 574 631
f 636 635 632
f 573 636 632
f 576 636 573
f 632 635 633
f 634 577 574
f 637 577 634
f 639 638 578
f 639 578 579
f 576 578 636
f 636 578 638
f 637 580 577
f 640 580 637
f 582 641 581
f 641 642 581
f 642 579 581
f 642 639 579
f 640 583 580
f 643 583 640
f 586 644 641
f 586 641 582
f 642 641 645
f 645 641 644
f 643 587 583
f 646 587 643
f 589 647 590
f 647 648 590
f 590 648 586
f 648 649 586
f 649 644 586
f 644 649 645
f 646 591 587
f 650 591 646
f 593 651 647
f 593 647 589
f 648 647 652
f 652 647 651
f 650 594 591
f 653 594 650
f 596 651 593
f 655 654 598
f 598 654 596
f 654 652 596
f 652 651 596
f 655 656 654
f 653 599 594
f 657 599 653
f 600 658 655
f 600 655 598
f 656 655 659
f 659 655 658
f 657 601 599
f 660 601 657
f 602 658 600
f 602 603 658
f 603 659 658
f 603 661 659
f 660 604 601
f 662 604 660
f 663 661 603
f 663 603 605
f 605 607 663
f 663 607 664
f 662 608 604
f 665 608 662
f 609 667 666
f 664 609 666
f 607 609 664
f 667 668 666
f 665 610 608
f 669 610 665
f 611 667 609
f 611 612 667
f 612 668 667
f 612 670 668
f 669 613 610
f 671 613 669
f 672 670 612
f 672 612 614
f 614 616 672
f 672 616 673
f 671 617 613
f 674 617 671
f 675 673 616
f 675 616 618
f 618 620 675
f 675 620 676
f 674 621 617
f 677 621 674
f 678 676 620
f 678 620 622
f 622 621 677
f 622 677 678
f 624 679 623
f 679 625 623
f 627 680 626
f 680 681 626
f 626 681 624
f 681 682 624
f 682 679 624
f 625 679 682
f 683 625 682
f 628 625 683
f 630 684 629
f 684 685 629
f 629 685 627
f 685 686 627
f 686 680 627
f 680 686 681
f 683 631 628
f 687 631 683
f 689 688 684
f 630 689 684
f 633 689 630
f 684 688 685
f 687 634 631
f 690 634 687
f 692 691 635
f 692 635 636
f 633 635 689
f 689 635 691
f 690 637 634
f 693 637 690
f 639 694 638
f 694 695 638
f 695 636 638
f 695 692 636
f 693 640 637
f 696 640 693
f 642 697 694
f 642 694 639
f 695 694 698
f 698 694 697
f 696 643 640
f 699 643 696
f 701 700 697
f 642 701 697
f 645 701 642
f 697 700 698
f 699 646 643
f 702 646 699
f 648 703 649
f 703 704 649
f 704 645 649
f 704 701 645
f 702 650 646
f 705 650 702
f 652 706 703
f 652 703 648
f 704 703 707
f 707 703 706
f 705 653 650
f 708 653 705
f 654 706 652
f 654 656 706
f 656 707 706
f 656 709 707
f 708 657 653
f 710 657 708
f 659 712 711
f 709 659 711
f 656 659 709
f 712 713 711
f 710 660 657
f 714 660 710
f 661 715 712
f 661 712 659
f 713 712 716
f 716 712 715
f 714 662 660
f 717 662 714
f 663 715 661
f 663 664 715
f 664 716 715
f 664 718 716
f 717 665 662
f 719 665 717
f 720 718 664
f 720 664 666
f 666 668 720
f 720 668 721
f 719 669 665
f 722 669 719
f 670 724 723
f 721 670 723
f 668 670 721
f 724 725 723
f 722 671 669
f 726 671 722
f 672 724 670
f 728 727 673
f 673 727 672
f 727 725 672
f 725 724 672
f 728 729 727
f 726 674 671
f 730 674 726
f 675 728 673
f 732 731 676
f 676 731 675
f 731 729 675
f 729 728 675
f 730 731 732
f 677 730 732
f 674 730 677
f 678 732 676
f 732 678 677
f 681 733 682
f 733 683 682
f 735 734 686
f 735 686 685
f 681 686 733
f 686 736 733
f 686 734 736
f 683 733 736
f 737 683 736
f 687 683 737
f 689 738 688
f 738 739 688
f 739 685 688
f 739 735 685
f 737 690 687
f 740 690 737
f 692 741 691
f 741 742 691
f 691 742 689
f 742 743 689
f 743 738 689
f 738 743 739
f 740 693 690
f 744 693 740
f 695 745 741
f 695 741 692
f 742 741 746
f 746 741 745
f 744 696 693
f 747 696 744
f 749 748 745
f 695 749 745
f 698 749 695
f 745 748 746
f 747 699 696
f 750 699 747
f 701 751 700
f 751 752 700
f 752 698 700
f 752 749 698
f 750 702 699
f 753 702 750
f 704 754 751
f 704 751 701
f 752 751 755
f 755 751 754
f 753 705 702
f 756 705 753
f 707 757 754
f 707 754 704
f 755 754 758
f 758 754 757
f 756 708 705
f 759 708 756
f 709 760 757
f 709 757 707
f 758 757 761
f 761 757 760
f 759 710 708
f 762 710 759
f 711 760 709
f 711 713 760
f 713 761 760
f 713 763 761
f 762 714 710
f 764 714 762
f 716 766 765
f 763 716 765
f 713 716 763
f 766 767 765
f 764 717 714
f 768 717 764
f 718 769 766
f 718 766 716
f 767 766 770
f 770 766 769
f 768 719 717
f 771 719 768
f 720 769 718
f 773 772 721
f 721 772 720
f 772 770 720
f 770 769 720
f 773 774 772
f 771 722 719
f 775 722 771
f 723 773 721
f 723 725 773
f 725 774 773
f 725 776 774
f 775 726 722
f 777 726 775
f 778 776 725
f 778 725 727
f 780 779 729
f 779 727 729
f 779 778 727
f 777 779 780
f 730 777 780
f 726 777 730
f 731 780 729
f 780 731 730
f 735 781 734
f 734 781 782
f 783 734 782
f 736 734 783
f 737 736 783
f 737 783 784
f 786 785 781
f 735 786 781
f 739 786 735
f 781 785 782
f 784 740 737
f 787 740 784
f 742 788 743
f 788 789 743
f 789 739 743
f 789 786 739
f 787 744 740
f 790 744 787
f 792 791 788
f 742 792 788
f 746 792 742
f 788 791 789
f 790 747 744
f 793 747 790
f 749 794 748
f 794 795 748
f 795 746 748
f 795 792 746
f 793 750 747
f 796 750 793
f 752 797 794
f 752 794 749
f 795 794 798
f 798 794 797
f 796 753 750
f 799 753 796
f 755 800 797
f 755 797 752
f 798 797 801
f 801 797 800
f 799 756 753
f 802 756 799
f 758 803 800
f 758 800 755
f 801 800 804
f 804 800 803
f 802 759 756
f 805 759 802
f 761 806 803
f 761 803 758
f 804 803 807
f 807 803 806
f 805 762 759
f 808 762 805
f 763 809 806
f 763 806 761
f 807 806 810
f 810 806 809
f 808 764 762
f 811 764 808
f 765 809 763
f 765 767 809
f 767 810 809
f 767 812 810
f 811 768 764
f 813 768 811
f 770 815 814
f 812 770 814
f 767 770 812
f 815 816 814
f 813 771 768
f 817 771 813
f 772 815 770
f 772 774 815
f 774 816 815
f 774 818 816
f 817 775 771
f 819 775 817
f 776 821 820
f 818 776 820
f 774 776 818
f 821 822 820
f 819 777 775
f 823 777 819
f 778 821 776
f 824 822 821
f 778 824 821
f 779 824 778
f 779 777 823
f 779 823 824
f 782 825 783
f 825 784 783
f 786 826 785
f 825 782 785
f 826 825 785
f 827 825 826
f 827 787 784
f 827 784 825
f 789 828 826
f 789 826 786
f 830 827 829
f 827 828 829
f 827 826 828
f 787 827 830
f 831 787 830
f 790 787 831
f 792 832 791
f 832 833 791
f 791 833 789
f 833 834 789
f 834 828 789
f 828 834 829
f 831 793 790
f 835 793 831
f 795 836 832
f 795 832 792
f 833 832 837
f 837 832 836
f 835 796 793
f 838 796 835
f 840 839 836
f 795 840 836
f 798 840 795
f 836 839 837
f 838 799 796
f 841 799 838
f 801 840 798
f 801 842 840
f 841 802 799
f 843 802 841
f 804 842 801
f 804 844 842
f 843 805 802
f 845 805 843
f 807 844 804
f 807 846 844
f 845 808 805
f 847 808 845
f 810 849 848
f 846 810 848
f 807 810 846
f 849 850 848
f 847 811 808
f 851 811 847
f 812 852 849
f 812 849 810
f 850 849 853
f 853 849 852
f 851 813 811
f 854 813 851
f 814 852 812
f 856 855 816
f 816 855 814
f 855 853 814
f 853 852 814
f 856 857 855
f 854 817 813
f 858 817 854
f 818 859 856
f 818 856 816
f 857 856 860
f 856 861 860
f 856 859 861
f 858 860 861
f 819 858 861
f 817 858 819
f 820 859 818
f 859 820 822
f 862 859 822
f 861 859 862
f 862 823 819
f 862 819 861
f 824 862 822
f 862 824 823
f 829 863 830
f 863 831 830
f 833 864 834
f 864 865 834
f 834 865 829
f 865 866 829
f 866 863 829
f 831 863 866
f 867 831 866
f 835 831 867
f 837 868 864
f 837 864 833
f 865 864 869
f 869 864 868
f 867 838 835
f 870 838 867
f 840 871 839
f 871 872 839
f 839 872 837
f 872 873 837
f 873 868 837
f 868 873 869
f 870 841 838
f 874 841 870
f 842 875 871
f 842 871 840
f 872 871 876
f 876 871 875
f 874 843 841
f 877 843 874
f 844 878 875
f 844 875 842
f 876 875 879
f 879 875 878
f 877 845 843
f 880 845 877
f 846 881 878
f 846 878 844
f 879 878 882
f 882 878 881
f 880 847 845
f 883 847 880
f 848 881 846
f 885 884 850
f 850 884 848
f 884 882 848
f 882 881 848
f 885 886 884
f 883 851 847
f 887 851 883
f 853 888 885
f 853 885 850
f 886 885 889
f 889 885 888
f 887 854 851
f 890 854 887
f 855 888 853
f 892 891 857
f 857 891 855
f 891 889 855
f 889 888 855
f 890 891 892
f 858 890 892
f 854 890 858
f 860 892 857
f 892 860 858
f 865 893 866
f 893 867 866
f 869 894 893
f 869 893 865
f 894 870 867
f 894 867 893
f 872 895 873
f 894 869 873
f 895 894 873
f 896 894 895
f 896 874 870
f 896 870 894
f 876 897 895
f 876 895 872
f 895 898 896
f 895 897 898
f 898 877 874
f 898 874 896
f 879 899 897
f 879 897 876
f 897 900 898
f 897 899 900
f 900 880 877
f 900 877 898
f 882 901 899
f 882 899 879
f 899 902 900
f 899 901 902
f 902 883 880
f 902 880 900
f 884 901 882
f 901 884 886
f 903 901 886
f 902 901 903
f 903 887 883
f 903 883 902
f 889 904 903
f 889 903 886
f 904 890 887
f 904 887 903
f 891 904 889
f 904 891 890
