v 1.993333339691162 3.0 10.0
v 2.0 2.9463508129119873 10.0
v 2.0 3.0 9.967249870300293
v 1.993333339691162 3.0 11.0
v 2.0 2.9463508129119873 11.0
v 1.993333339691162 3.0 12.0
v 2.0 2.9463508129119873 12.0
v 1.993333339691162 3.0 13.0
v 2.0 2.9463508129119873 13.0
v 2.0 3.0 13.032750129699707
v 1.993333339691162 4.0 10.0
v 2.0 4.0 9.967249870300293
v 1.993333339691162 4.0 11.0
v 1.993333339691162 4.0 12.0
v 1.993333339691162 4.0 13.0
v 2.0 4.0 13.032750129699707
v 1.993333339691162 5.0 10.0
v 2.0 5.0 9.967249870300293
v 1.993333339691162 5.0 11.0
v 1.993333339691162 5.0 12.0
v 1.993333339691162 5.0 13.0
v 2.0 5.0 13.032750129699707
v 1.993333339691162 6.0 10.0
v 2.0 6.0 9.967249870300293
v 1.993333339691162 6.0 11.0
v 1.993333339691162 6.0 12.0
v 1.993333339691162 6.0 13.0
v 2.0 6.0 13.032750129699707
v 1.993333339691162 7.0 10.0
v 2.0 7.0 9.967249870300293
v 1.993333339691162 7.0 11.0
v 1.993333339691162 7.0 12.0
v 1.993333339691162 7.0 13.0
v 2.0 7.0 13.032750129699707
v 1.993333339691162 8.0 10.0
v 2.0 8.0 9.967249870300293
v 1.993333339691162 8.0 11.0
v 1.993333339691162 8.0 12.0
v 1.993333339691162 8.0 13.0
v 2.0 8.0 13.032750129699707
v 1.993333339691162 9.0 10.0
v 2.0 9.0 9.967249870300293
v 1.993333339691162 9.0 11.0
v 1.993333339691162 9.0 12.0
v 1.993333339691162 9.0 13.0
v 2.0 9.0 13.032750129699707
v 1.993333339691162 10.0 10.0
v 2.0 10.0 9.967249870300293
v 1.993333339691162 10.0 11.0
v 1.993333339691162 10.0 12.0
v 1.993333339691162 10.0 13.0
v 2.0 10.0 13.032750129699707
v 1.993333339691162 11.0 10.0
v 2.0 11.0 9.967249870300293
v 1.993333339691162 11.0 11.0
v 1.993333339691162 11.0 12.0
v 1.993333339691162 11.0 13.0
v 2.0 11.0 13.032750129699707
v 1.993333339691162 12.0 10.0
v 2.0 12.0 9.967249870300293
v 1.993333339691162 12.0 11.0
v 1.993333339691162 12.0 12.0
v 1.993333339691162 12.0 13.0
v 2.0 12.0 13.032750129699707
v 1.993333339691162 13.0 10.0
v 2.0 13.0 9.967249870300293
v 1.993333339691162 13.0 11.0
v 1.993333339691162 13.0 12.0
v 1.993333339691162 13.0 13.0
v 2.0 13.0 13.032750129699707
v 1.993333339691162 14.0 10.0
v 2.0 14.0 9.967249870300293
v 1.993333339691162 14.0 11.0
v 1.993333339691162 14.0 12.0
v 1.993333339691162 14.0 13.0
v 2.0 14.0 13.032750129699707
v 1.993333339691162 15.0 10.0
v 2.0 15.0 9.967249870300293
v 1.993333339691162 15.0 11.0
v 1.993333339691162 15.0 12.0
v 1.993333339691162 15.0 13.0
v 2.0 15.0 13.032750129699707
v 1.993333339691162 16.0 10.0
v 2.0 16.0 9.967249870300293
v 1.993333339691162 16.0 11.0
v 1.993333339691162 16.0 12.0
v 1.993333339691162 16.0 13.0
v 2.0 16.0 13.032750129699707
v 1.993333339691162 17.0 10.0
v 2.0 17.0 9.967249870300293
v 1.993333339691162 17.0 11.0
v 1.993333339691162 17.0 12.0
v 1.993333339691162 17.0 13.0
v 2.0 17.0 13.032750129699707
v 1.993333339691162 18.0 10.0
v 2.0 18.0 9.967249870300293
v 1.993333339691162 18.0 11.0
v 1.993333339691162 18.0 12.0
v 1.993333339691162 18.0 13.0
v 2.0 18.0 13.032750129699707
v 1.993333339691162 19.0 10.0
v 2.0 19.0 9.967249870300293
v 1.993333339691162 19.0 11.0
v 1.993333339691162 19.0 12.0
v 1.993333339691162 19.0 13.0
v 2.0 19.0 13.032750129699707
v 1.993333339691162 20.0 10.0
v 2.0 20.0 9.967249870300293
v 1.993333339691162 20.0 11.0
v 1.993333339691162 20.0 12.0
v 1.993333339691162 20.0 13.0
v 2.0 20.0 13.032750129699707
v 2.0 20.05364990234375 10.0
v 2.0 20.05364990234375 11.0
v 2.0 20.05364990234375 12.0
v 2.0 20.05364990234375 13.0
v 2.9463508129119873 2.0 10.0
v 3.0 1.993333339691162 10.0
v 3.0 2.0 9.967249870300293
v 2.9463508129119873 2.0 11.0
v 3.0 1.993333339691162 11.0
v 2.9463508129119873 2.0 12.0
v 3.0 1.993333339691162 12.0
v 2.9463508129119873 2.0 13.0
v 3.0 1.993333339691162 13.0
v 3.0 2.0 13.032750129699707
v 2.0225563049316406 3.0 10.0
v 3.0 2.0225563049316406 10.0
v 3.0 2.0166666507720947 11.0
v 2.0166666507720947 3.0 11.0
v 3.0 2.0166666507720947 12.0
v 2.0166666507720947 3.0 12.0
v 3.0 2.0225563049316406 13.0
v 2.0225563049316406 3.0 13.0
v 2.0225563049316406 4.0 10.0
v 2.0166666507720947 4.0 11.0
v 2.0166666507720947 4.0 12.0
v 2.0225563049316406 4.0 13.0
v 2.0225563049316406 5.0 10.0
v 2.0166666507720947 5.0 11.0
v 2.0166666507720947 5.0 12.0
v 2.0225563049316406 5.0 13.0
v 2.0225563049316406 6.0 10.0
v 2.0166666507720947 6.0 11.0
v 2.0166666507720947 6.0 12.0
v 2.0225563049316406 6.0 13.0
v 2.0225563049316406 7.0 10.0
v 2.0166666507720947 7.0 11.0
v 2.0166666507720947 7.0 12.0
v 2.0225563049316406 7.0 13.0
v 2.0225563049316406 8.0 10.0
v 2.0166666507720947 8.0 11.0
v 2.0166666507720947 8.0 12.0
v 2.0225563049316406 8.0 13.0
v 2.0225563049316406 9.0 10.0
v 2.0166666507720947 9.0 11.0
v 2.0166666507720947 9.0 12.0
v 2.0225563049316406 9.0 13.0
v 2.0225563049316406 10.0 10.0
v 2.0166666507720947 10.0 11.0
v 2.0166666507720947 10.0 12.0
v 2.0225563049316406 10.0 13.0
v 2.0225563049316406 11.0 10.0
v 2.0166666507720947 11.0 11.0
v 2.0166666507720947 11.0 12.0
v 2.0225563049316406 11.0 13.0
v 2.0225563049316406 12.0 10.0
v 2.0166666507720947 12.0 11.0
v 2.0166666507720947 12.0 12.0
v 2.0225563049316406 12.0 13.0
v 2.0225563049316406 13.0 10.0
v 2.0166666507720947 13.0 11.0
v 2.0166666507720947 13.0 12.0
v 2.0225563049316406 13.0 13.0
v 2.0225563049316406 14.0 10.0
v 2.0166666507720947 14.0 11.0
v 2.0166666507720947 14.0 12.0
v 2.0225563049316406 14.0 13.0
v 2.0225563049316406 15.0 10.0
v 2.0166666507720947 15.0 11.0
v 2.0166666507720947 15.0 12.0
v 2.0225563049316406 15.0 13.0
v 2.0225563049316406 16.0 10.0
v 2.0166666507720947 16.0 11.0
v 2.0166666507720947 16.0 12.0
v 2.0225563049316406 16.0 13.0
v 2.0225563049316406 17.0 10.0
v 2.0166666507720947 17.0 11.0
v 2.0166666507720947 17.0 12.0
v 2.0225563049316406 17.0 13.0
v 2.0225563049316406 18.0 10.0
v 2.0166666507720947 18.0 11.0
v 2.0166666507720947 18.0 12.0
v 2.0225563049316406 18.0 13.0
v 2.0225563049316406 19.0 10.0
v 2.0166666507720947 19.0 11.0
v 2.0166666507720947 19.0 12.0
v 2.0225563049316406 19.0 13.0
v 2.0225563049316406 20.0 10.0
v 2.0166666507720947 20.0 11.0
v 2.0166666507720947 20.0 12.0
v 2.0225563049316406 20.0 13.0
v 3.0 21.0 9.967249870300293
v 2.9463508129119873 21.0 10.0
v 3.0 20.97744369506836 10.0
v 2.9463508129119873 21.0 11.0
v 3.0 20.983333587646484 11.0
v 2.9463508129119873 21.0 12.0
v 3.0 20.983333587646484 12.0
v 2.9463508129119873 21.0 13.0
v 3.0 20.97744369506836 13.0
v 3.0 21.0 13.032750129699707
v 3.0 21.00666618347168 10.0
v 3.0 21.00666618347168 11.0
v 3.0 21.00666618347168 12.0
v 3.0 21.00666618347168 13.0
v 4.0 1.993333339691162 10.0
v 4.0 2.0 9.967249870300293
v 4.0 1.993333339691162 11.0
v 4.0 1.993333339691162 12.0
v 4.0 1.993333339691162 13.0
v 4.0 2.0 13.032750129699707
v 4.0 2.0225563049316406 10.0
v 4.0 2.0166666507720947 11.0
v 4.0 2.0166666507720947 12.0
v 4.0 2.0225563049316406 13.0
v 4.0 20.97744369506836 10.0
v 4.0 21.0 9.967249870300293
v 4.0 20.983333587646484 11.0
v 4.0 20.983333587646484 12.0
v 4.0 20.97744369506836 13.0
v 4.0 21.0 13.032750129699707
v 4.0 21.00666618347168 10.0
v 4.0 21.00666618347168 11.0
v 4.0 21.00666618347168 12.0
v 4.0 21.00666618347168 13.0
v 5.0 1.993333339691162 10.0
v 5.0 2.0 9.967249870300293
v 5.0 1.993333339691162 11.0
v 5.0 1.993333339691162 12.0
v 5.0 1.993333339691162 13.0
v 5.0 2.0 13.032750129699707
v 5.0 2.0225563049316406 10.0
v 5.0 2.0166666507720947 11.0
v 5.0 2.0166666507720947 12.0
v 5.0 2.0225563049316406 13.0
v 5.0 20.97744369506836 10.0
v 5.0 21.0 9.967249870300293
v 5.0 20.983333587646484 11.0
v 5.0 20.983333587646484 12.0
v 5.0 20.97744369506836 13.0
v 5.0 21.0 13.032750129699707
v 5.0 21.00666618347168 10.0
v 5.0 21.00666618347168 11.0
v 5.0 21.00666618347168 12.0
v 5.0 21.00666618347168 13.0
v 6.0 1.993333339691162 10.0
v 6.0 2.0 9.967249870300293
v 6.0 1.993333339691162 11.0
v 6.0 1.993333339691162 12.0
v 6.0 1.993333339691162 13.0
v 6.0 2.0 13.032750129699707
v 6.0 2.0225563049316406 10.0
v 6.0 2.0166666507720947 11.0
v 6.0 2.0166666507720947 12.0
v 6.0 2.0225563049316406 13.0
v 6.0 20.97744369506836 10.0
v 6.0 21.0 9.967249870300293
v 6.0 20.983333587646484 11.0
v 6.0 20.983333587646484 12.0
v 6.0 20.97744369506836 13.0
v 6.0 21.0 13.032750129699707
v 6.0 21.00666618347168 10.0
v 6.0 21.00666618347168 11.0
v 6.0 21.00666618347168 12.0
v 6.0 21.00666618347168 13.0
v 7.0 1.993333339691162 10.0
v 7.0 2.0 9.967249870300293
v 7.0 1.993333339691162 11.0
v 7.0 1.993333339691162 12.0
v 7.0 1.993333339691162 13.0
v 7.0 2.0 13.032750129699707
v 7.0 2.0225563049316406 10.0
v 7.0 2.0166666507720947 11.0
v 7.0 2.0166666507720947 12.0
v 7.0 2.0225563049316406 13.0
v 6.813591003417969 10.0 13.0
v 7.0 9.813591003417969 13.0
v 7.0 10.0 12.913809776306152
v 7.0 10.0 13.403676986694336
v 6.485074520111084 11.0 13.0
v 7.0 11.0 12.592144966125488
v 7.0 11.0 13.758241653442383
v 6.485074520111084 12.0 13.0
v 7.0 12.0 12.592144966125488
v 7.0 12.0 13.758241653442383
v 6.813591003417969 13.0 13.0
v 7.0 13.0 12.913809776306152
v 7.0 13.0 13.403676986694336
v 7.0 13.186408996582031 13.0
v 7.0 20.97744369506836 10.0
v 7.0 21.0 9.967249870300293
v 7.0 20.983333587646484 11.0
v 7.0 20.983333587646484 12.0
v 7.0 20.97744369506836 13.0
v 7.0 21.0 13.032750129699707
v 7.0 21.00666618347168 10.0
v 7.0 21.00666618347168 11.0
v 7.0 21.00666618347168 12.0
v 7.0 21.00666618347168 13.0
v 8.0 1.993333339691162 10.0
v 8.0 2.0 9.967249870300293
v 8.0 1.993333339691162 11.0
v 8.0 1.993333339691162 12.0
v 8.0 1.993333339691162 13.0
v 8.0 2.0 13.032750129699707
v 8.0 2.0225563049316406 10.0
v 8.0 2.0166666507720947 11.0
v 8.0 2.0166666507720947 12.0
v 8.0 2.0225563049316406 13.0
v 7.693774700164795 9.0 13.0
v 8.0 8.693775177001953 13.0
v 8.0 9.0 12.799638748168945
v 8.0 9.0 13.56599235534668
v 7.928359031677246 10.0 12.0
v 8.0 9.903820037841797 12.0
v 8.0 10.0 11.908220291137695
v 8.0 10.0 13.758241653442383
v 7.5921454429626465 11.0 12.0
v 8.0 11.0 11.442536354064941
v 8.0 11.0 13.758241653442383
v 7.5921454429626465 12.0 12.0
v 8.0 12.0 11.442536354064941
v 8.0 12.0 13.758241653442383
v 7.928359031677246 13.0 12.0
v 8.0 13.0 11.908220291137695
v 8.0 13.0 13.758241653442383
v 8.0 13.096179962158203 12.0
v 7.693774700164795 14.0 13.0
v 8.0 14.0 12.799638748168945
v 8.0 14.0 13.56599235534668
v 8.0 14.306224822998047 13.0
v 8.0 20.97744369506836 10.0
v 8.0 21.0 9.967249870300293
v 8.0 20.983333587646484 11.0
v 8.0 20.983333587646484 12.0
v 8.0 20.97744369506836 13.0
v 8.0 21.0 13.032750129699707
v 8.0 21.00666618347168 10.0
v 8.0 21.00666618347168 11.0
v 8.0 21.00666618347168 12.0
v 8.0 21.00666618347168 13.0
v 9.0 1.993333339691162 10.0
v 9.0 2.0 9.967249870300293
v 9.0 1.993333339691162 11.0
v 9.0 1.993333339691162 12.0
v 9.0 1.993333339691162 13.0
v 9.0 2.0 13.032750129699707
v 9.0 2.0225563049316406 10.0
v 9.0 2.0166666507720947 11.0
v 9.0 2.0166666507720947 12.0
v 9.0 2.0225563049316406 13.0
v 8.871319770812988 9.0 12.0
v 9.0 8.908323287963867 12.0
v 9.0 9.0 11.832853317260742
v 9.0 8.422196388244629 13.0
v 9.0 9.0 13.758241653442383
v 8.660887718200684 10.0 11.0
v 9.0 9.576610565185547 11.0
v 9.0 10.0 10.16224479675293
v 9.0 10.0 13.758241653442383
v 8.727392196655273 11.0 10.0
v 9.0 10.329700469970703 10.0
v 9.0 11.0 9.474543571472168
v 8.442536354064941 11.0 11.0
v 9.0 11.0 13.758241653442383
v 8.727392196655273 12.0 10.0
v 9.0 12.0 9.474543571472168
v 8.442536354064941 12.0 11.0
v 9.0 12.0 13.758241653442383
v 9.0 12.670299530029297 10.0
v 9.0 13.0 10.16224479675293
v 8.660887718200684 13.0 11.0
v 9.0 13.0 13.758241653442383
v 9.0 13.423389434814453 11.0
v 8.871319770812988 14.0 12.0
v 9.0 14.0 11.832853317260742
v 9.0 14.0 13.758241653442383
v 9.0 14.091676712036133 12.0
v 9.0 14.577803611755371 13.0
v 9.0 20.97744369506836 10.0
v 9.0 21.0 9.967249870300293
v 9.0 20.983333587646484 11.0
v 9.0 20.983333587646484 12.0
v 9.0 20.97744369506836 13.0
v 9.0 21.0 13.032750129699707
v 9.0 21.00666618347168 10.0
v 9.0 21.00666618347168 11.0
v 9.0 21.00666618347168 12.0
v 9.0 21.00666618347168 13.0
v 10.0 1.993333339691162 10.0
v 10.0 2.0 9.967249870300293
v 10.0 1.993333339691162 11.0
v 10.0 1.993333339691162 12.0
v 10.0 1.993333339691162 13.0
v 10.0 2.0 13.032750129699707
v 10.0 2.0225563049316406 10.0
v 10.0 2.0166666507720947 11.0
v 10.0 2.0166666507720947 12.0
v 10.0 2.0225563049316406 13.0
v 9.769915580749512 8.0 13.0
v 10.0 7.811820030212402 13.0
v 10.0 8.0 12.853570938110352
v 10.0 8.0 13.40648078918457
v 9.686450004577637 9.0 11.0
v 10.0 8.811178207397461 11.0
v 10.0 9.0 10.237412452697754
v 10.0 8.560030937194824 12.0
v 10.0 9.0 13.758241653442383
v 9.409235954284668 10.0 10.0
v 10.0 9.409235954284668 10.0
v 10.0 10.0 9.55983829498291
v 10.0 10.0 13.44016170501709
v 9.189420700073242 11.0 10.0
v 10.0 10.142314910888672 10.0
v 10.0 10.142314910888672 11.0
v 9.398283004760742 11.0 11.0
v 10.0 10.142314910888672 12.0
v 9.398283004760742 11.0 12.0
v 10.0 10.142314910888672 13.0
v 9.398283004760742 11.0 13.0
v 9.189420700073242 12.0 10.0
v 9.398283004760742 12.0 11.0
v 9.398283004760742 12.0 12.0
v 9.398283004760742 12.0 13.0
v 10.0 13.0 9.55983829498291
v 9.409235954284668 13.0 10.0
v 10.0 12.857685089111328 10.0
v 10.0 12.857685089111328 11.0
v 10.0 12.857685089111328 12.0
v 10.0 12.857685089111328 13.0
v 10.0 13.0 13.44016170501709
v 10.0 13.590764045715332 10.0
v 9.686450004577637 14.0 11.0
v 10.0 14.0 10.237412452697754
v 10.0 14.0 13.758241653442383
v 10.0 14.188821792602539 11.0
v 10.0 14.439969062805176 12.0
v 9.769915580749512 15.0 13.0
v 10.0 15.0 12.853570938110352
v 10.0 15.0 13.40648078918457
v 10.0 15.188179969787598 13.0
v 10.0 20.97744369506836 10.0
v 10.0 21.0 9.967249870300293
v 10.0 20.983333587646484 11.0
v 10.0 20.983333587646484 12.0
v 10.0 20.97744369506836 13.0
v 10.0 21.0 13.032750129699707
v 10.0 21.00666618347168 10.0
v 10.0 21.00666618347168 11.0
v 10.0 21.00666618347168 12.0
v 10.0 21.00666618347168 13.0
v 11.0 1.993333339691162 10.0
v 11.0 2.0 9.967249870300293
v 11.0 1.993333339691162 11.0
v 11.0 1.993333339691162 12.0
v 11.0 1.993333339691162 13.0
v 11.0 2.0 13.032750129699707
v 11.0 2.0225563049316406 10.0
v 11.0 2.0166666507720947 11.0
v 11.0 2.0166666507720947 12.0
v 11.0 2.0225563049316406 13.0
v 11.0 7.5660176277160645 13.0
v 11.0 8.0 12.47433853149414
v 11.0 8.0 13.69375228881836
v 10.329700469970703 9.0 10.0
v 11.0 8.727392196655273 10.0
v 11.0 9.0 9.474543571472168
v 11.0 8.62015151977539 11.0
v 11.0 8.394585609436035 12.0
v 11.0 9.0 13.758241653442383
v 10.142314910888672 10.0 10.0
v 11.0 9.189420700073242 10.0
v 11.0 9.398283004760742 11.0
v 10.142314910888672 10.0 11.0
v 11.0 9.398283004760742 12.0
v 10.142314910888672 10.0 12.0
v 11.0 9.398283004760742 13.0
v 10.142314910888672 10.0 13.0
v 10.142314910888672 13.0 10.0
v 10.142314910888672 13.0 11.0
v 10.142314910888672 13.0 12.0
v 10.142314910888672 13.0 13.0
v 11.0 14.0 9.474543571472168
v 10.329700469970703 14.0 10.0
v 11.0 13.810579299926758 10.0
v 11.0 13.601716995239258 11.0
v 11.0 13.601716995239258 12.0
v 11.0 13.601716995239258 13.0
v 11.0 14.0 13.758241653442383
v 11.0 14.272607803344727 10.0
v 11.0 14.37984848022461 11.0
v 11.0 14.605414390563965 12.0
v 11.0 15.0 12.47433853149414
v 11.0 15.0 13.69375228881836
v 11.0 15.433981895446777 13.0
v 11.0 20.97744369506836 10.0
v 11.0 21.0 9.967249870300293
v 11.0 20.983333587646484 11.0
v 11.0 20.983333587646484 12.0
v 11.0 20.97744369506836 13.0
v 11.0 21.0 13.032750129699707
v 11.0 21.00666618347168 10.0
v 11.0 21.00666618347168 11.0
v 11.0 21.00666618347168 12.0
v 11.0 21.00666618347168 13.0
v 12.0 1.993333339691162 10.0
v 12.0 2.0 9.967249870300293
v 12.0 1.993333339691162 11.0
v 12.0 1.993333339691162 12.0
v 12.0 1.993333339691162 13.0
v 12.0 2.0 13.032750129699707
v 12.0 2.0225563049316406 10.0
v 12.0 2.0166666507720947 11.0
v 12.0 2.0166666507720947 12.0
v 12.0 2.0225563049316406 13.0
v 12.0 7.5660176277160645 13.0
v 12.0 8.0 12.47433853149414
v 12.0 8.0 13.69375228881836
v 12.0 8.727392196655273 10.0
v 12.0 9.0 9.474543571472168
v 12.0 8.62015151977539 11.0
v 12.0 8.394585609436035 12.0
v 12.0 9.0 13.758241653442383
v 12.0 9.189420700073242 10.0
v 12.0 9.398283004760742 11.0
v 12.0 9.398283004760742 12.0
v 12.0 9.398283004760742 13.0
v 12.0 13.810579299926758 10.0
v 12.0 14.0 9.474543571472168
v 12.0 13.601716995239258 11.0
v 12.0 13.601716995239258 12.0
v 12.0 13.601716995239258 13.0
v 12.0 14.0 13.758241653442383
v 12.0 14.272607803344727 10.0
v 12.0 14.37984848022461 11.0
v 12.0 14.605414390563965 12.0
v 12.0 15.0 12.47433853149414
v 12.0 15.0 13.69375228881836
v 12.0 15.433981895446777 13.0
v 12.0 20.97744369506836 10.0
v 12.0 21.0 9.967249870300293
v 12.0 20.983333587646484 11.0
v 12.0 20.983333587646484 12.0
v 12.0 20.97744369506836 13.0
v 12.0 21.0 13.032750129699707
v 12.0 21.00666618347168 10.0
v 12.0 21.00666618347168 11.0
v 12.0 21.00666618347168 12.0
v 12.0 21.00666618347168 13.0
v 13.0 1.993333339691162 10.0
v 13.0 2.0 9.967249870300293
v 13.0 1.993333339691162 11.0
v 13.0 1.993333339691162 12.0
v 13.0 1.993333339691162 13.0
v 13.0 2.0 13.032750129699707
v 13.0 2.0225563049316406 10.0
v 13.0 2.0166666507720947 11.0
v 13.0 2.0166666507720947 12.0
v 13.0 2.0225563049316406 13.0
v 13.0 7.811820030212402 13.0
v 13.0 8.0 12.853570938110352
v 13.0 8.0 13.40648078918457
v 12.670299530029297 9.0 10.0
v 13.0 9.0 10.237412452697754
v 13.0 8.811178207397461 11.0
v 13.0 8.560030937194824 12.0
v 13.0 9.0 13.758241653442383
v 13.0 10.0 9.55983829498291
v 12.857685089111328 10.0 10.0
v 13.0 9.409235954284668 10.0
v 12.857685089111328 10.0 11.0
v 12.857685089111328 10.0 12.0
v 12.857685089111328 10.0 13.0
v 13.0 10.0 13.44016170501709
v 13.0 10.142314910888672 10.0
v 13.0 10.142314910888672 11.0
v 13.0 10.142314910888672 12.0
v 13.0 10.142314910888672 13.0
v 12.857685089111328 13.0 10.0
v 13.0 12.857685089111328 10.0
v 13.0 13.0 9.55983829498291
v 12.857685089111328 13.0 11.0
v 13.0 12.857685089111328 11.0
v 12.857685089111328 13.0 12.0
v 13.0 12.857685089111328 12.0
v 12.857685089111328 13.0 13.0
v 13.0 12.857685089111328 13.0
v 13.0 13.0 13.44016170501709
v 12.670299530029297 14.0 10.0
v 13.0 13.590764045715332 10.0
v 13.0 14.0 10.237412452697754
v 13.0 14.0 13.758241653442383
v 13.0 14.188821792602539 11.0
v 13.0 14.439969062805176 12.0
v 13.0 15.0 12.853570938110352
v 13.0 15.0 13.40648078918457
v 13.0 15.188179969787598 13.0
v 13.0 20.97744369506836 10.0
v 13.0 21.0 9.967249870300293
v 13.0 20.983333587646484 11.0
v 13.0 20.983333587646484 12.0
v 13.0 20.97744369506836 13.0
v 13.0 21.0 13.032750129699707
v 13.0 21.00666618347168 10.0
v 13.0 21.00666618347168 11.0
v 13.0 21.00666618347168 12.0
v 13.0 21.00666618347168 13.0
v 14.0 1.993333339691162 10.0
v 14.0 2.0 9.967249870300293
v 14.0 1.993333339691162 11.0
v 14.0 1.993333339691162 12.0
v 14.0 1.993333339691162 13.0
v 14.0 2.0 13.032750129699707
v 14.0 2.0225563049316406 10.0
v 14.0 2.0166666507720947 11.0
v 14.0 2.0166666507720947 12.0
v 14.0 2.0225563049316406 13.0
v 13.230084419250488 8.0 13.0
v 13.313549995422363 9.0 11.0
v 14.0 9.0 11.832853317260742
v 14.0 8.908323287963867 12.0
v 14.0 8.422196388244629 13.0
v 14.0 9.0 13.758241653442383
v 13.590764045715332 10.0 10.0
v 14.0 10.0 10.16224479675293
v 14.0 9.576610565185547 11.0
v 14.0 10.0 13.758241653442383
v 14.0 11.0 9.474543571472168
v 13.810579299926758 11.0 10.0
v 14.0 10.329700469970703 10.0
v 13.601716995239258 11.0 11.0
v 13.601716995239258 11.0 12.0
v 13.601716995239258 11.0 13.0
v 14.0 11.0 13.758241653442383
v 13.810579299926758 12.0 10.0
v 14.0 12.0 9.474543571472168
v 13.601716995239258 12.0 11.0
v 13.601716995239258 12.0 12.0
v 13.601716995239258 12.0 13.0
v 14.0 12.0 13.758241653442383
v 13.590764045715332 13.0 10.0
v 14.0 12.670299530029297 10.0
v 14.0 13.0 10.16224479675293
v 14.0 13.0 13.758241653442383
v 14.0 13.423389434814453 11.0
v 13.313549995422363 14.0 11.0
v 14.0 14.0 11.832853317260742
v 14.0 14.0 13.758241653442383
v 14.0 14.091676712036133 12.0
v 14.0 14.577803611755371 13.0
v 13.230084419250488 15.0 13.0
v 14.0 20.97744369506836 10.0
v 14.0 21.0 9.967249870300293
v 14.0 20.983333587646484 11.0
v 14.0 20.983333587646484 12.0
v 14.0 20.97744369506836 13.0
v 14.0 21.0 13.032750129699707
v 14.0 21.00666618347168 10.0
v 14.0 21.00666618347168 11.0
v 14.0 21.00666618347168 12.0
v 14.0 21.00666618347168 13.0
v 15.0 1.993333339691162 10.0
v 15.0 2.0 9.967249870300293
v 15.0 1.993333339691162 11.0
v 15.0 1.993333339691162 12.0
v 15.0 1.993333339691162 13.0
v 15.0 2.0 13.032750129699707
v 15.0 2.0225563049316406 10.0
v 15.0 2.0166666507720947 11.0
v 15.0 2.0166666507720947 12.0
v 15.0 2.0225563049316406 13.0
v 14.128680229187012 9.0 12.0
v 15.0 9.0 12.799638748168945
v 15.0 8.693775177001953 13.0
v 15.0 9.0 13.56599235534668
v 14.339112281799316 10.0 11.0
v 15.0 10.0 11.908220291137695
v 15.0 9.903820037841797 12.0
v 15.0 10.0 13.758241653442383
v 14.272607803344727 11.0 10.0
v 14.557463645935059 11.0 11.0
v 15.0 11.0 11.442536354064941
v 15.0 11.0 13.758241653442383
v 14.272607803344727 12.0 10.0
v 14.557463645935059 12.0 11.0
v 15.0 12.0 11.442536354064941
v 15.0 12.0 13.758241653442383
v 14.339112281799316 13.0 11.0
v 15.0 13.0 11.908220291137695
v 15.0 13.0 13.758241653442383
v 15.0 13.096179962158203 12.0
v 14.128680229187012 14.0 12.0
v 15.0 14.0 12.799638748168945
v 15.0 14.0 13.56599235534668
v 15.0 14.306224822998047 13.0
v 15.0 20.97744369506836 10.0
v 15.0 21.0 9.967249870300293
v 15.0 20.983333587646484 11.0
v 15.0 20.983333587646484 12.0
v 15.0 20.97744369506836 13.0
v 15.0 21.0 13.032750129699707
v 15.0 21.00666618347168 10.0
v 15.0 21.00666618347168 11.0
v 15.0 21.00666618347168 12.0
v 15.0 21.00666618347168 13.0
v 16.0 1.993333339691162 10.0
v 16.0 2.0 9.967249870300293
v 16.0 1.993333339691162 11.0
v 16.0 1.993333339691162 12.0
v 16.0 1.993333339691162 13.0
v 16.0 2.0 13.032750129699707
v 16.0 2.0225563049316406 10.0
v 16.0 2.0166666507720947 11.0
v 16.0 2.0166666507720947 12.0
v 16.0 2.0225563049316406 13.0
v 15.306224822998047 9.0 13.0
v 15.071640968322754 10.0 12.0
v 16.0 10.0 12.913809776306152
v 16.0 9.813591003417969 13.0
v 16.0 10.0 13.403676986694336
v 15.407855033874512 11.0 12.0
v 16.0 11.0 12.592144966125488
v 16.0 11.0 13.758241653442383
v 15.407855033874512 12.0 12.0
v 16.0 12.0 12.592144966125488
v 16.0 12.0 13.758241653442383
v 15.071640968322754 13.0 12.0
v 16.0 13.0 12.913809776306152
v 16.0 13.0 13.403676986694336
v 16.0 13.186408996582031 13.0
v 15.306224822998047 14.0 13.0
v 16.0 20.97744369506836 10.0
v 16.0 21.0 9.967249870300293
v 16.0 20.983333587646484 11.0
v 16.0 20.983333587646484 12.0
v 16.0 20.97744369506836 13.0
v 16.0 21.0 13.032750129699707
v 16.0 21.00666618347168 10.0
v 16.0 21.00666618347168 11.0
v 16.0 21.00666618347168 12.0
v 16.0 21.00666618347168 13.0
v 17.0 1.993333339691162 10.0
v 17.0 2.0 9.967249870300293
v 17.0 1.993333339691162 11.0
v 17.0 1.993333339691162 12.0
v 17.0 1.993333339691162 13.0
v 17.0 2.0 13.032750129699707
v 17.0 2.0225563049316406 10.0
v 17.0 2.0166666507720947 11.0
v 17.0 2.0166666507720947 12.0
v 17.0 2.0225563049316406 13.0
v 16.18640899658203 10.0 13.0
v 16.514925003051758 11.0 13.0
v 16.514925003051758 12.0 13.0
v 16.18640899658203 13.0 13.0
v 17.0 20.97744369506836 10.0
v 17.0 21.0 9.967249870300293
v 17.0 20.983333587646484 11.0
v 17.0 20.983333587646484 12.0
v 17.0 20.97744369506836 13.0
v 17.0 21.0 13.032750129699707
v 17.0 21.00666618347168 10.0
v 17.0 21.00666618347168 11.0
v 17.0 21.00666618347168 12.0
v 17.0 21.00666618347168 13.0
v 18.0 1.993333339691162 10.0
v 18.0 2.0 9.967249870300293
v 18.0 1.993333339691162 11.0
v 18.0 1.993333339691162 12.0
v 18.0 1.993333339691162 13.0
v 18.0 2.0 13.032750129699707
v 18.0 2.0225563049316406 10.0
v 18.0 2.0166666507720947 11.0
v 18.0 2.0166666507720947 12.0
v 18.0 2.0225563049316406 13.0
v 18.0 20.97744369506836 10.0
v 18.0 21.0 9.967249870300293
v 18.0 20.983333587646484 11.0
v 18.0 20.983333587646484 12.0
v 18.0 20.97744369506836 13.0
v 18.0 21.0 13.032750129699707
v 18.0 21.00666618347168 10.0
v 18.0 21.00666618347168 11.0
v 18.0 21.00666618347168 12.0
v 18.0 21.00666618347168 13.0
v 19.0 1.993333339691162 10.0
v 19.0 2.0 9.967249870300293
v 19.0 1.993333339691162 11.0
v 19.0 1.993333339691162 12.0
v 19.0 1.993333339691162 13.0
v 19.0 2.0 13.032750129699707
v 19.0 2.0225563049316406 10.0
v 19.0 2.0166666507720947 11.0
v 19.0 2.0166666507720947 12.0
v 19.0 2.0225563049316406 13.0
v 19.0 20.97744369506836 10.0
v 19.0 21.0 9.967249870300293
v 19.0 20.983333587646484 11.0
v 19.0 20.983333587646484 12.0
v 19.0 20.97744369506836 13.0
v 19.0 21.0 13.032750129699707
v 19.0 21.00666618347168 10.0
v 19.0 21.00666618347168 11.0
v 19.0 21.00666618347168 12.0
v 19.0 21.00666618347168 13.0
v 20.0 1.993333339691162 10.0
v 20.0 2.0 9.967249870300293
v 20.0 1.993333339691162 11.0
v 20.0 1.993333339691162 12.0
v 20.0 1.993333339691162 13.0
v 20.0 2.0 13.032750129699707
v 20.0 2.0225563049316406 10.0
v 20.0 2.0166666507720947 11.0
v 20.0 2.0166666507720947 12.0
v 20.0 2.0225563049316406 13.0
v 20.0 20.97744369506836 10.0
v 20.0 21.0 9.967249870300293
v 20.0 20.983333587646484 11.0
v 20.0 20.983333587646484 12.0
v 20.0 20.97744369506836 13.0
v 20.0 21.0 13.032750129699707
v 20.0 21.00666618347168 10.0
v 20.0 21.00666618347168 11.0
v 20.0 21.00666618347168 12.0
v 20.0 21.00666618347168 13.0
v 20.05364990234375 2.0 10.0
v 20.05364990234375 2.0 11.0
v 20.05364990234375 2.0 12.0
v 20.05364990234375 2.0 13.0
v 21.0 3.0 9.967249870300293
v 20.97744369506836 3.0 10.0
v 21.0 2.9463508129119873 10.0
v 20.983333587646484 3.0 11.0
v 21.0 2.9463508129119873 11.0
v 20.983333587646484 3.0 12.0
v 21.0 2.9463508129119873 12.0
v 20.97744369506836 3.0 13.0
v 21.0 2.9463508129119873 13.0
v 21.0 3.0 13.032750129699707
v 20.97744369506836 4.0 10.0
v 21.0 4.0 9.967249870300293
v 20.983333587646484 4.0 11.0
v 20.983333587646484 4.0 12.0
v 20.97744369506836 4.0 13.0
v 21.0 4.0 13.032750129699707
v 20.97744369506836 5.0 10.0
v 21.0 5.0 9.967249870300293
v 20.983333587646484 5.0 11.0
v 20.983333587646484 5.0 12.0
v 20.97744369506836 5.0 13.0
v 21.0 5.0 13.032750129699707
v 20.97744369506836 6.0 10.0
v 21.0 6.0 9.967249870300293
v 20.983333587646484 6.0 11.0
v 20.983333587646484 6.0 12.0
v 20.97744369506836 6.0 13.0
v 21.0 6.0 13.032750129699707
v 20.97744369506836 7.0 10.0
v 21.0 7.0 9.967249870300293
v 20.983333587646484 7.0 11.0
v 20.983333587646484 7.0 12.0
v 20.97744369506836 7.0 13.0
v 21.0 7.0 13.032750129699707
v 20.97744369506836 8.0 10.0
v 21.0 8.0 9.967249870300293
v 20.983333587646484 8.0 11.0
v 20.983333587646484 8.0 12.0
v 20.97744369506836 8.0 13.0
v 21.0 8.0 13.032750129699707
v 20.97744369506836 9.0 10.0
v 21.0 9.0 9.967249870300293
v 20.983333587646484 9.0 11.0
v 20.983333587646484 9.0 12.0
v 20.97744369506836 9.0 13.0
v 21.0 9.0 13.032750129699707
v 20.97744369506836 10.0 10.0
v 21.0 10.0 9.967249870300293
v 20.983333587646484 10.0 11.0
v 20.983333587646484 10.0 12.0
v 20.97744369506836 10.0 13.0
v 21.0 10.0 13.032750129699707
v 20.97744369506836 11.0 10.0
v 21.0 11.0 9.967249870300293
v 20.983333587646484 11.0 11.0
v 20.983333587646484 11.0 12.0
v 20.97744369506836 11.0 13.0
v 21.0 11.0 13.032750129699707
v 20.97744369506836 12.0 10.0
v 21.0 12.0 9.967249870300293
v 20.983333587646484 12.0 11.0
v 20.983333587646484 12.0 12.0
v 20.97744369506836 12.0 13.0
v 21.0 12.0 13.032750129699707
v 20.97744369506836 13.0 10.0
v 21.0 13.0 9.967249870300293
v 20.983333587646484 13.0 11.0
v 20.983333587646484 13.0 12.0
v 20.97744369506836 13.0 13.0
v 21.0 13.0 13.032750129699707
v 20.97744369506836 14.0 10.0
v 21.0 14.0 9.967249870300293
v 20.983333587646484 14.0 11.0
v 20.983333587646484 14.0 12.0
v 20.97744369506836 14.0 13.0
v 21.0 14.0 13.032750129699707
v 20.97744369506836 15.0 10.0
v 21.0 15.0 9.967249870300293
v 20.983333587646484 15.0 11.0
v 20.983333587646484 15.0 12.0
v 20.97744369506836 15.0 13.0
v 21.0 15.0 13.032750129699707
v 20.97744369506836 16.0 10.0
v 21.0 16.0 9.967249870300293
v 20.983333587646484 16.0 11.0
v 20.983333587646484 16.0 12.0
v 20.97744369506836 16.0 13.0
v 21.0 16.0 13.032750129699707
v 20.97744369506836 17.0 10.0
v 21.0 17.0 9.967249870300293
v 20.983333587646484 17.0 11.0
v 20.983333587646484 17.0 12.0
v 20.97744369506836 17.0 13.0
v 21.0 17.0 13.032750129699707
v 20.97744369506836 18.0 10.0
v 21.0 18.0 9.967249870300293
v 20.983333587646484 18.0 11.0
v 20.983333587646484 18.0 12.0
v 20.97744369506836 18.0 13.0
v 21.0 18.0 13.032750129699707
v 20.97744369506836 19.0 10.0
v 21.0 19.0 9.967249870300293
v 20.983333587646484 19.0 11.0
v 20.983333587646484 19.0 12.0
v 20.97744369506836 19.0 13.0
v 21.0 19.0 13.032750129699707
v 20.97744369506836 20.0 10.0
v 21.0 20.0 9.967249870300293
v 20.983333587646484 20.0 11.0
v 20.983333587646484 20.0 12.0
v 20.97744369506836 20.0 13.0
v 21.0 20.0 13.032750129699707
v 20.05364990234375 21.0 10.0
v 21.0 20.05364990234375 10.0
v 21.0 20.05364990234375 11.0
v 20.05364990234375 21.0 11.0
v 21.0 20.05364990234375 12.0
v 20.05364990234375 21.0 12.0
v 21.0 20.05364990234375 13.0
v 20.05364990234375 21.0 13.0
v 21.00666618347168 3.0 10.0
v 21.00666618347168 3.0 11.0
v 21.00666618347168 3.0 12.0
v 21.00666618347168 3.0 13.0
v 21.00666618347168 4.0 10.0
v 21.00666618347168 4.0 11.0
v 21.00666618347168 4.0 12.0
v 21.00666618347168 4.0 13.0
v 21.00666618347168 5.0 10.0
v 21.00666618347168 5.0 11.0
v 21.00666618347168 5.0 12.0
v 21.00666618347168 5.0 13.0
v 21.00666618347168 6.0 10.0
v 21.00666618347168 6.0 11.0
v 21.00666618347168 6.0 12.0
v 21.00666618347168 6.0 13.0
v 21.00666618347168 7.0 10.0
v 21.00666618347168 7.0 11.0
v 21.00666618347168 7.0 12.0
v 21.00666618347168 7.0 13.0
v 21.00666618347168 8.0 10.0
v 21.00666618347168 8.0 11.0
v 21.00666618347168 8.0 12.0
v 21.00666618347168 8.0 13.0
v 21.00666618347168 9.0 10.0
v 21.00666618347168 9.0 11.0
v 21.00666618347168 9.0 12.0
v 21.00666618347168 9.0 13.0
v 21.00666618347168 10.0 10.0
v 21.00666618347168 10.0 11.0
v 21.00666618347168 10.0 12.0
v 21.00666618347168 10.0 13.0
v 21.00666618347168 11.0 10.0
v 21.00666618347168 11.0 11.0
v 21.00666618347168 11.0 12.0
v 21.00666618347168 11.0 13.0
v 21.00666618347168 12.0 10.0
v 21.00666618347168 12.0 11.0
v 21.00666618347168 12.0 12.0
v 21.00666618347168 12.0 13.0
v 21.00666618347168 13.0 10.0
v 21.00666618347168 13.0 11.0
v 21.00666618347168 13.0 12.0
v 21.00666618347168 13.0 13.0
v 21.00666618347168 14.0 10.0
v 21.00666618347168 14.0 11.0
v 21.00666618347168 14.0 12.0
v 21.00666618347168 14.0 13.0
v 21.00666618347168 15.0 10.0
v 21.00666618347168 15.0 11.0
v 21.00666618347168 15.0 12.0
v 21.00666618347168 15.0 13.0
v 21.00666618347168 16.0 10.0
v 21.00666618347168 16.0 11.0
v 21.00666618347168 16.0 12.0
v 21.00666618347168 16.0 13.0
v 21.00666618347168 17.0 10.0
v 21.00666618347168 17.0 11.0
v 21.00666618347168 17.0 12.0
v 21.00666618347168 17.0 13.0
v 21.00666618347168 18.0 10.0
v 21.00666618347168 18.0 11.0
v 21.00666618347168 18.0 12.0
v 21.00666618347168 18.0 13.0
v 21.00666618347168 19.0 10.0
v 21.00666618347168 19.0 11.0
v 21.00666618347168 19.0 12.0
v 21.00666618347168 19.0 13.0
v 21.00666618347168 20.0 10.0
v 21.00666618347168 20.0 11.0
v 21.00666618347168 20.0 12.0
v 21.00666618347168 20.0 13.0
f 3 2 1
f 5 4 1
f 5 1 2
f 7 6 4
f 7 4 5
f 9 8 6
f 9 6 7
f 10 8 9
f 3 1 11
f 3 11 12
f 13 1 4
f 11 1 13
f 14 4 6
f 13 4 14
f 15 6 8
f 14 6 15
f 8 10 16
f 8 16 15
f 12 11 17
f 12 17 18
f 19 11 13
f 17 11 19
f 20 13 14
f 19 13 20
f 21 14 15
f 20 14 21
f 15 16 22
f 15 22 21
f 18 17 23
f 18 23 24
f 25 17 19
f 23 17 25
f 26 19 20
f 25 19 26
f 27 20 21
f 26 20 27
f 21 22 28
f 21 28 27
f 24 23 29
f 24 29 30
f 31 23 25
f 29 23 31
f 32 25 26
f 31 25 32
f 33 26 27
f 32 26 33
f 27 28 34
f 27 34 33
f 30 29 35
f 30 35 36
f 37 29 31
f 35 29 37
f 38 31 32
f 37 31 38
f 39 32 33
f 38 32 39
f 33 34 40
f 33 40 39
f 36 35 41
f 36 41 42
f 43 35 37
f 41 35 43
f 44 37 38
f 43 37 44
f 45 38 39
f 44 38 45
f 39 40 46
f 39 46 45
f 42 41 47
f 42 47 48
f 49 41 43
f 47 41 49
f 50 43 44
f 49 43 50
f 51 44 45
f 50 44 51
f 45 46 52
f 45 52 51
f 48 47 53
f 48 53 54
f 55 47 49
f 53 47 55
f 56 49 50
f 55 49 56
f 57 50 51
f 56 50 57
f 51 52 58
f 51 58 57
f 54 53 59
f 54 59 60
f 61 53 55
f 59 53 61
f 62 55 56
f 61 55 62
f 63 56 57
f 62 56 63
f 57 58 64
f 57 64 63
f 60 59 65
f 60 65 66
f 67 59 61
f 65 59 67
f 68 61 62
f 67 61 68
f 69 62 63
f 68 62 69
f 63 64 70
f 63 70 69
f 66 65 71
f 66 71 72
f 73 65 67
f 71 65 73
f 74 67 68
f 73 67 74
f 75 68 69
f 74 68 75
f 69 70 76
f 69 76 75
f 72 71 77
f 72 77 78
f 79 71 73
f 77 71 79
f 80 73 74
f 79 73 80
f 81 74 75
f 80 74 81
f 75 76 82
f 75 82 81
f 78 77 83
f 78 83 84
f 85 77 79
f 83 77 85
f 86 79 80
f 85 79 86
f 87 80 81
f 86 80 87
f 81 82 88
f 81 88 87
f 84 83 89
f 84 89 90
f 91 83 85
f 89 83 91
f 92 85 86
f 91 85 92
f 93 86 87
f 92 86 93
f 87 88 94
f 87 94 93
f 90 89 95
f 90 95 96
f 97 89 91
f 95 89 97
f 98 91 92
f 97 91 98
f 99 92 93
f 98 92 99
f 93 94 100
f 93 100 99
f 96 95 101
f 96 101 102
f 103 95 97
f 101 95 103
f 104 97 98
f 103 97 104
f 105 98 99
f 104 98 105
f 99 100 106
f 99 106 105
f 102 101 107
f 102 107 108
f 109 101 103
f 107 101 109
f 110 103 104
f 109 103 110
f 111 104 105
f 110 104 111
f 105 106 112
f 105 112 111
f 113 108 107
f 113 107 109
f 113 109 114
f 114 109 110
f 114 110 115
f 115 110 111
f 115 111 116
f 116 111 112
f 119 118 117
f 121 120 117
f 121 117 118
f 123 122 120
f 123 120 121
f 125 124 122
f 125 122 123
f 126 124 125
f 2 3 127
f 117 128 119
f 128 120 129
f 120 128 117
f 130 5 127
f 2 127 5
f 129 122 131
f 122 129 120
f 132 7 130
f 5 130 7
f 131 124 133
f 124 131 122
f 134 9 132
f 7 132 9
f 124 126 133
f 9 134 10
f 12 135 127
f 12 127 3
f 127 136 130
f 127 135 136
f 130 137 132
f 130 136 137
f 132 138 134
f 132 137 138
f 138 16 10
f 138 10 134
f 18 139 135
f 18 135 12
f 135 140 136
f 135 139 140
f 136 141 137
f 136 140 141
f 137 142 138
f 137 141 142
f 142 22 16
f 142 16 138
f 24 143 139
f 24 139 18
f 139 144 140
f 139 143 144
f 140 145 141
f 140 144 145
f 141 146 142
f 141 145 146
f 146 28 22
f 146 22 142
f 30 147 143
f 30 143 24
f 143 148 144
f 143 147 148
f 144 149 145
f 144 148 149
f 145 150 146
f 145 149 150
f 150 34 28
f 150 28 146
f 36 151 147
f 36 147 30
f 147 152 148
f 147 151 152
f 148 153 149
f 148 152 153
f 149 154 150
f 149 153 154
f 154 40 34
f 154 34 150
f 42 155 151
f 42 151 36
f 151 156 152
f 151 155 156
f 152 157 153
f 152 156 157
f 153 158 154
f 153 157 158
f 158 46 40
f 158 40 154
f 48 159 155
f 48 155 42
f 155 160 156
f 155 159 160
f 156 161 157
f 156 160 161
f 157 162 158
f 157 161 162
f 162 52 46
f 162 46 158
f 54 163 159
f 54 159 48
f 159 164 160
f 159 163 164
f 160 165 161
f 160 164 165
f 161 166 162
f 161 165 166
f 166 58 52
f 166 52 162
f 60 167 163
f 60 163 54
f 163 168 164
f 163 167 168
f 164 169 165
f 164 168 169
f 165 170 166
f 165 169 170
f 170 64 58
f 170 58 166
f 66 171 167
f 66 167 60
f 167 172 168
f 167 171 172
f 168 173 169
f 168 172 173
f 169 174 170
f 169 173 174
f 174 70 64
f 174 64 170
f 72 175 171
f 72 171 66
f 171 176 172
f 171 175 176
f 172 177 173
f 172 176 177
f 173 178 174
f 173 177 178
f 178 76 70
f 178 70 174
f 78 179 175
f 78 175 72
f 175 180 176
f 175 179 180
f 176 181 177
f 176 180 181
f 177 182 178
f 177 181 182
f 182 82 76
f 182 76 178
f 84 183 179
f 84 179 78
f 179 184 180
f 179 183 184
f 180 185 181
f 180 184 185
f 181 186 182
f 181 185 186
f 186 88 82
f 186 82 182
f 90 187 183
f 90 183 84
f 183 188 184
f 183 187 188
f 184 189 185
f 184 188 189
f 185 190 186
f 185 189 190
f 190 94 88
f 190 88 186
f 96 191 187
f 96 187 90
f 187 192 188
f 187 191 192
f 188 193 189
f 188 192 193
f 189 194 190
f 189 193 194
f 194 100 94
f 194 94 190
f 102 195 191
f 102 191 96
f 191 196 192
f 191 195 196
f 192 197 193
f 192 196 197
f 193 198 194
f 193 197 198
f 198 106 100
f 198 100 194
f 108 199 195
f 108 195 102
f 195 200 196
f 195 199 200
f 196 201 197
f 196 200 201
f 197 202 198
f 197 201 202
f 202 112 106
f 202 106 198
f 199 108 113
f 205 204 203
f 207 206 205
f 204 205 206
f 199 114 200
f 114 199 113
f 209 208 207
f 206 207 208
f 200 115 201
f 115 200 114
f 211 210 209
f 208 209 210
f 201 116 202
f 116 201 115
f 116 112 202
f 210 211 212
f 213 203 204
f 213 204 206
f 213 206 214
f 214 206 208
f 214 208 215
f 215 208 210
f 215 210 216
f 216 210 212
f 218 217 118
f 218 118 119
f 118 219 121
f 217 219 118
f 121 220 123
f 219 220 121
f 123 221 125
f 220 221 123
f 126 125 221
f 126 221 222
f 223 218 119
f 223 119 128
f 224 128 129
f 224 223 128
f 225 129 131
f 225 224 129
f 226 131 133
f 226 225 131
f 133 126 222
f 133 222 226
f 228 227 205
f 228 205 203
f 205 229 207
f 227 229 205
f 207 230 209
f 229 230 207
f 209 231 211
f 230 231 209
f 212 211 231
f 212 231 232
f 233 228 203
f 233 203 213
f 234 213 214
f 234 233 213
f 235 214 215
f 235 234 214
f 236 215 216
f 236 235 215
f 216 212 232
f 216 232 236
f 238 237 217
f 238 217 218
f 217 239 219
f 237 239 217
f 219 240 220
f 239 240 219
f 220 241 221
f 240 241 220
f 222 221 241
f 222 241 242
f 243 238 218
f 243 218 223
f 244 223 224
f 244 243 223
f 245 224 225
f 245 244 224
f 246 225 226
f 246 245 225
f 226 222 242
f 226 242 246
f 248 247 227
f 248 227 228
f 227 249 229
f 247 249 227
f 229 250 230
f 249 250 229
f 230 251 231
f 250 251 230
f 232 231 251
f 232 251 252
f 253 248 228
f 253 228 233
f 254 233 234
f 254 253 233
f 255 234 235
f 255 254 234
f 256 235 236
f 256 255 235
f 236 232 252
f 236 252 256
f 258 257 237
f 258 237 238
f 237 259 239
f 257 259 237
f 239 260 240
f 259 260 239
f 240 261 241
f 260 261 240
f 242 241 261
f 242 261 262
f 263 258 238
f 263 238 243
f 264 243 244
f 264 263 243
f 265 244 245
f 265 264 244
f 266 245 246
f 266 265 245
f 246 242 262
f 246 262 266
f 268 267 247
f 268 247 248
f 247 269 249
f 267 269 247
f 249 270 250
f 269 270 249
f 250 271 251
f 270 271 250
f 252 251 271
f 252 271 272
f 273 268 248
f 273 248 253
f 274 253 254
f 274 273 253
f 275 254 255
f 275 274 254
f 276 255 256
f 276 275 255
f 256 252 272
f 256 272 276
f 278 277 257
f 278 257 258
f 257 279 259
f 277 279 257
f 259 280 260
f 279 280 259
f 260 281 261
f 280 281 260
f 262 261 281
f 262 281 282
f 283 278 258
f 283 258 263
f 284 263 264
f 284 283 263
f 285 264 265
f 285 284 264
f 286 265 266
f 286 285 265
f 266 262 282
f 266 282 286
f 289 288 287
f 290 287 288
f 289 287 291
f 289 291 292
f 287 290 293
f 287 293 291
f 292 291 294
f 292 294 295
f 291 293 296
f 291 296 294
f 295 294 297
f 295 297 298
f 294 296 299
f 294 299 297
f 300 298 297
f 300 297 299
f 302 301 267
f 302 267 268
f 267 303 269
f 301 303 267
f 269 304 270
f 303 304 269
f 270 305 271
f 304 305 270
f 272 271 305
f 272 305 306
f 307 302 268
f 307 268 273
f 308 273 274
f 308 307 273
f 309 274 275
f 309 308 274
f 310 275 276
f 310 309 275
f 276 272 306
f 276 306 310
f 312 311 277
f 312 277 278
f 277 313 279
f 311 313 277
f 279 314 280
f 313 314 279
f 280 315 281
f 314 315 280
f 282 281 315
f 282 315 316
f 317 312 278
f 317 278 283
f 318 283 284
f 318 317 283
f 319 284 285
f 319 318 284
f 320 285 286
f 320 319 285
f 286 282 316
f 286 316 320
f 323 322 321
f 324 321 322
f 327 326 325
f 325 326 323
f 325 323 321
f 289 325 321
f 288 289 321
f 290 288 321
f 324 290 321
f 328 290 324
f 327 325 329
f 327 329 330
f 292 329 289
f 289 329 325
f 328 293 290
f 331 293 328
f 330 329 332
f 330 332 333
f 295 332 292
f 292 332 329
f 331 296 293
f 334 296 331
f 333 332 335
f 333 335 336
f 298 335 295
f 295 335 332
f 334 299 296
f 337 299 334
f 338 336 335
f 340 338 339
f 339 338 300
f 338 335 300
f 335 298 300
f 341 339 300
f 299 341 300
f 337 341 299
f 342 340 339
f 342 339 341
f 344 343 301
f 344 301 302
f 301 345 303
f 343 345 301
f 303 346 304
f 345 346 303
f 304 347 305
f 346 347 304
f 306 305 347
f 306 347 348
f 349 344 302
f 349 302 307
f 350 307 308
f 350 349 307
f 351 308 309
f 351 350 308
f 352 309 310
f 352 351 309
f 310 306 348
f 310 348 352
f 354 353 311
f 354 311 312
f 311 355 313
f 353 355 311
f 313 356 314
f 355 356 313
f 314 357 315
f 356 357 314
f 316 315 357
f 316 357 358
f 359 354 312
f 359 312 317
f 360 317 318
f 360 359 317
f 361 318 319
f 361 360 318
f 362 319 320
f 362 361 319
f 320 316 358
f 320 358 362
f 365 364 363
f 322 323 363
f 364 322 363
f 366 322 364
f 324 322 366
f 324 366 367
f 370 369 368
f 368 369 365
f 368 365 363
f 327 368 363
f 326 327 363
f 326 363 323
f 367 328 324
f 371 328 367
f 374 373 372
f 372 373 370
f 368 372 370
f 375 372 368
f 330 375 327
f 327 375 368
f 371 331 328
f 376 331 371
f 374 372 377
f 374 377 378
f 379 372 375
f 377 372 379
f 333 379 330
f 330 379 375
f 376 334 331
f 380 334 376
f 381 378 377
f 383 382 381
f 377 383 381
f 379 383 377
f 336 383 333
f 333 383 379
f 380 337 334
f 384 337 380
f 385 382 383
f 387 385 386
f 386 385 338
f 385 383 338
f 383 336 338
f 340 386 338
f 384 341 337
f 388 341 384
f 389 387 386
f 389 386 340
f 342 389 340
f 390 389 342
f 342 341 388
f 342 388 390
f 392 391 343
f 392 343 344
f 343 393 345
f 391 393 343
f 345 394 346
f 393 394 345
f 346 395 347
f 394 395 346
f 348 347 395
f 348 395 396
f 397 392 344
f 397 344 349
f 398 349 350
f 398 397 349
f 399 350 351
f 399 398 350
f 400 351 352
f 400 399 351
f 352 348 396
f 352 396 400
f 402 401 353
f 402 353 354
f 353 403 355
f 401 403 353
f 355 404 356
f 403 404 355
f 356 405 357
f 404 405 356
f 358 357 405
f 358 405 406
f 407 402 354
f 407 354 359
f 408 359 360
f 408 407 359
f 409 360 361
f 409 408 360
f 410 361 362
f 410 409 361
f 362 358 406
f 362 406 410
f 413 412 411
f 414 411 412
f 417 416 415
f 364 365 415
f 416 364 415
f 418 364 416
f 411 366 413
f 366 418 413
f 366 364 418
f 367 366 411
f 414 367 411
f 419 367 414
f 422 421 420
f 420 421 417
f 420 417 415
f 370 420 415
f 369 370 415
f 369 415 365
f 419 371 367
f 423 371 419
f 373 374 424
f 420 425 422
f 425 420 426
f 370 426 420
f 426 370 427
f 373 427 370
f 427 373 424
f 429 428 427
f 427 428 426
f 431 430 429
f 429 430 428
f 423 430 431
f 376 423 431
f 371 423 376
f 378 432 424
f 378 424 374
f 424 433 427
f 424 432 433
f 427 434 429
f 427 433 434
f 429 435 431
f 429 434 435
f 435 380 376
f 435 376 431
f 432 378 381
f 438 437 436
f 439 437 438
f 437 439 382
f 433 382 439
f 382 433 381
f 432 381 433
f 433 439 434
f 434 439 440
f 434 440 435
f 435 440 441
f 380 435 441
f 442 380 441
f 384 380 442
f 443 436 437
f 445 443 444
f 444 443 385
f 443 437 385
f 437 382 385
f 387 444 385
f 442 388 384
f 446 388 442
f 447 445 444
f 447 444 387
f 389 447 387
f 448 447 389
f 450 448 449
f 448 390 449
f 448 389 390
f 451 449 390
f 388 451 390
f 446 451 388
f 452 450 449
f 452 449 451
f 454 453 391
f 454 391 392
f 391 455 393
f 453 455 391
f 393 456 394
f 455 456 393
f 394 457 395
f 456 457 394
f 396 395 457
f 396 457 458
f 459 454 392
f 459 392 397
f 460 397 398
f 460 459 397
f 461 398 399
f 461 460 398
f 462 399 400
f 462 461 399
f 400 396 458
f 400 458 462
f 464 463 401
f 464 401 402
f 401 465 403
f 463 465 401
f 403 466 404
f 465 466 403
f 404 467 405
f 466 467 404
f 406 405 467
f 406 467 468
f 469 464 402
f 469 402 407
f 470 407 408
f 470 469 407
f 471 408 409
f 471 470 408
f 472 409 410
f 472 471 409
f 410 406 468
f 410 468 472
f 474 473 412
f 474 412 413
f 414 412 473
f 414 473 475
f 478 477 476
f 416 417 476
f 477 416 476
f 479 416 477
f 416 480 418
f 479 480 416
f 413 418 474
f 474 418 480
f 475 419 414
f 481 419 475
f 421 422 482
f 476 483 478
f 483 476 484
f 417 484 476
f 484 417 485
f 421 485 417
f 485 421 482
f 487 486 485
f 485 486 484
f 489 488 487
f 487 488 486
f 481 488 489
f 423 481 489
f 419 481 423
f 425 482 422
f 482 425 426
f 482 426 485
f 485 426 428
f 485 428 487
f 487 428 430
f 487 430 489
f 489 430 423
f 436 490 438
f 491 439 438
f 491 438 490
f 492 440 439
f 492 439 491
f 493 441 440
f 493 440 492
f 493 442 441
f 490 436 443
f 496 495 494
f 497 495 496
f 495 497 445
f 491 445 497
f 445 491 443
f 490 443 491
f 491 497 492
f 492 497 498
f 492 498 493
f 493 498 499
f 442 493 499
f 500 442 499
f 446 442 500
f 501 494 495
f 501 495 445
f 447 501 445
f 502 501 447
f 503 447 448
f 503 502 447
f 448 450 503
f 503 450 504
f 500 451 446
f 505 451 500
f 506 504 450
f 506 450 452
f 452 451 505
f 452 505 506
f 508 507 453
f 508 453 454
f 453 509 455
f 507 509 453
f 455 510 456
f 509 510 455
f 456 511 457
f 510 511 456
f 458 457 511
f 458 511 512
f 513 508 454
f 513 454 459
f 514 459 460
f 514 513 459
f 515 460 461
f 515 514 460
f 516 461 462
f 516 515 461
f 462 458 512
f 462 512 516
f 518 517 463
f 518 463 464
f 463 519 465
f 517 519 463
f 465 520 466
f 519 520 465
f 466 521 467
f 520 521 466
f 468 467 521
f 468 521 522
f 523 518 464
f 523 464 469
f 524 469 470
f 524 523 469
f 525 470 471
f 525 524 470
f 526 471 472
f 526 525 471
f 472 468 522
f 472 522 526
f 528 527 473
f 528 473 474
f 475 473 527
f 475 527 529
f 531 530 477
f 531 477 478
f 477 532 479
f 530 532 477
f 479 533 480
f 532 533 479
f 474 480 528
f 528 480 533
f 529 481 475
f 534 481 529
f 535 531 478
f 535 478 483
f 536 483 484
f 536 535 483
f 537 484 486
f 537 536 484
f 538 486 488
f 538 537 486
f 488 481 534
f 488 534 538
f 540 539 496
f 540 496 494
f 496 541 497
f 539 541 496
f 497 542 498
f 541 542 497
f 498 543 499
f 542 543 498
f 500 499 543
f 500 543 544
f 545 540 494
f 545 494 501
f 546 501 502
f 546 545 501
f 547 502 503
f 547 546 502
f 503 504 547
f 547 504 548
f 544 505 500
f 549 505 544
f 550 548 504
f 550 504 506
f 506 505 549
f 506 549 550
f 552 551 507
f 552 507 508
f 507 553 509
f 551 553 507
f 509 554 510
f 553 554 509
f 510 555 511
f 554 555 510
f 512 511 555
f 512 555 556
f 557 552 508
f 557 508 513
f 558 513 514
f 558 557 513
f 559 514 515
f 559 558 514
f 560 515 516
f 560 559 515
f 516 512 556
f 516 556 560
f 562 561 517
f 562 517 518
f 517 563 519
f 561 563 517
f 519 564 520
f 563 564 519
f 520 565 521
f 564 565 520
f 522 521 565
f 522 565 566
f 567 562 518
f 567 518 523
f 568 523 524
f 568 567 523
f 569 524 525
f 569 568 524
f 570 525 526
f 570 569 525
f 526 522 566
f 526 566 570
f 572 571 527
f 572 527 528
f 529 527 571
f 529 571 573
f 531 574 530
f 530 574 575
f 576 530 575
f 532 530 576
f 532 577 533
f 576 577 532
f 528 533 572
f 572 533 577
f 573 534 529
f 578 534 573
f 574 531 535
f 581 580 579
f 536 574 535
f 574 536 575
f 582 575 536
f 575 582 581
f 580 581 582
f 537 583 536
f 536 583 582
f 538 584 537
f 537 584 583
f 585 584 538
f 534 585 538
f 578 585 534
f 586 579 580
f 586 580 582
f 586 582 587
f 587 582 583
f 587 583 588
f 588 583 584
f 588 584 589
f 589 584 585
f 592 591 590
f 594 593 590
f 594 590 591
f 596 595 593
f 596 593 594
f 598 597 595
f 598 595 596
f 599 597 598
f 539 540 600
f 590 601 592
f 539 600 541
f 602 541 600
f 541 602 593
f 601 593 602
f 593 601 590
f 541 593 542
f 542 593 595
f 542 595 543
f 543 595 597
f 544 543 597
f 599 544 597
f 603 544 599
f 545 600 540
f 604 602 600
f 545 604 600
f 546 604 545
f 605 546 547
f 605 604 546
f 547 548 605
f 605 548 606
f 603 549 544
f 607 549 603
f 608 606 548
f 608 548 550
f 550 549 607
f 550 607 608
f 610 609 551
f 610 551 552
f 551 611 553
f 609 611 551
f 553 612 554
f 611 612 553
f 554 613 555
f 612 613 554
f 556 555 613
f 556 613 614
f 615 610 552
f 615 552 557
f 616 557 558
f 616 615 557
f 617 558 559
f 617 616 558
f 618 559 560
f 618 617 559
f 560 556 614
f 560 614 618
f 620 619 561
f 620 561 562
f 561 621 563
f 619 621 561
f 563 622 564
f 621 622 563
f 564 623 565
f 622 623 564
f 566 565 623
f 566 623 624
f 625 620 562
f 625 562 567
f 626 567 568
f 626 625 567
f 627 568 569
f 627 626 568
f 628 569 570
f 628 627 569
f 570 566 624
f 570 624 628
f 572 629 571
f 629 573 571
f 575 630 576
f 576 630 631
f 632 576 631
f 577 576 632
f 572 577 629
f 577 633 629
f 577 632 633
f 573 629 633
f 634 573 633
f 578 573 634
f 579 635 581
f 635 636 581
f 581 636 575
f 636 637 575
f 637 630 575
f 630 637 631
f 634 585 578
f 638 585 634
f 635 579 586
f 641 640 639
f 587 635 586
f 635 587 636
f 642 636 587
f 636 642 641
f 640 641 642
f 588 643 587
f 587 643 642
f 589 644 588
f 588 644 643
f 645 644 589
f 585 645 589
f 638 645 585
f 639 640 646
f 639 646 647
f 648 640 642
f 646 640 648
f 649 642 643
f 648 642 649
f 650 643 644
f 649 643 650
f 644 645 651
f 644 651 650
f 591 592 652
f 646 653 647
f 591 652 594
f 654 594 652
f 594 654 648
f 653 648 654
f 648 653 646
f 594 648 596
f 596 648 649
f 596 649 598
f 598 649 650
f 599 598 650
f 651 599 650
f 655 599 651
f 601 652 592
f 657 656 602
f 602 656 601
f 656 654 601
f 654 652 601
f 657 658 656
f 655 603 599
f 659 603 655
f 604 657 602
f 660 658 657
f 604 660 657
f 605 660 604
f 662 661 606
f 661 605 606
f 661 660 605
f 659 661 662
f 607 659 662
f 603 659 607
f 608 662 606
f 662 608 607
f 664 663 609
f 664 609 610
f 609 665 611
f 663 665 609
f 611 666 612
f 665 666 611
f 612 667 613
f 666 667 612
f 614 613 667
f 614 667 668
f 669 664 610
f 669 610 615
f 670 615 616
f 670 669 615
f 671 616 617
f 671 670 616
f 672 617 618
f 672 671 617
f 618 614 668
f 618 668 672
f 674 673 619
f 674 619 620
f 619 675 621
f 673 675 619
f 621 676 622
f 675 676 621
f 622 677 623
f 676 677 622
f 624 623 677
f 624 677 678
f 679 674 620
f 679 620 625
f 680 625 626
f 680 679 625
f 681 626 627
f 681 680 626
f 682 627 628
f 682 681 627
f 628 624 678
f 628 678 682
f 631 683 632
f 632 683 684
f 685 632 684
f 633 632 685
f 634 633 685
f 634 685 686
f 636 687 637
f 687 688 637
f 637 688 631
f 688 689 631
f 689 683 631
f 683 689 684
f 686 638 634
f 690 638 686
f 639 691 641
f 687 636 641
f 691 687 641
f 692 687 691
f 688 687 693
f 693 687 692
f 690 645 638
f 694 645 690
f 647 695 691
f 647 691 639
f 691 696 692
f 691 695 696
f 693 692 697
f 697 692 696
f 694 651 645
f 698 651 694
f 653 695 647
f 695 653 654
f 699 695 654
f 696 695 699
f 697 696 700
f 700 696 699
f 698 655 651
f 701 655 698
f 656 699 654
f 703 702 658
f 658 702 656
f 702 700 656
f 700 699 656
f 703 704 702
f 701 659 655
f 705 659 701
f 660 703 658
f 706 704 703
f 660 706 703
f 661 706 660
f 661 659 705
f 661 705 706
f 708 707 663
f 708 663 664
f 663 709 665
f 707 709 663
f 665 710 666
f 709 710 665
f 666 711 667
f 710 711 666
f 668 667 711
f 668 711 712
f 713 708 664
f 713 664 669
f 714 669 670
f 714 713 669
f 715 670 671
f 715 714 670
f 716 671 672
f 716 715 671
f 672 668 712
f 672 712 716
f 718 717 673
f 718 673 674
f 673 719 675
f 717 719 673
f 675 720 676
f 719 720 675
f 676 721 677
f 720 721 676
f 678 677 721
f 678 721 722
f 723 718 674
f 723 674 679
f 724 679 680
f 724 723 679
f 725 680 681
f 725 724 680
f 726 681 682
f 726 725 681
f 682 678 722
f 682 722 726
f 684 727 685
f 727 686 685
f 688 728 689
f 728 729 689
f 689 729 684
f 729 730 684
f 730 727 684
f 686 727 730
f 731 686 730
f 690 686 731
f 693 732 728
f 693 728 688
f 729 728 733
f 733 728 732
f 731 694 690
f 734 694 731
f 697 735 732
f 697 732 693
f 733 732 736
f 736 732 735
f 734 698 694
f 737 698 734
f 700 738 735
f 700 735 697
f 736 735 739
f 739 735 738
f 737 701 698
f 740 701 737
f 702 738 700
f 742 741 704
f 704 741 702
f 741 739 702
f 739 738 702
f 740 741 742
f 705 740 742
f 701 740 705
f 706 742 704
f 742 706 705
f 744 743 707
f 744 707 708
f 707 745 709
f 743 745 707
f 709 746 710
f 745 746 709
f 710 747 711
f 746 747 710
f 712 711 747
f 712 747 748
f 749 744 708
f 749 708 713
f 750 713 714
f 750 749 713
f 751 714 715
f 751 750 714
f 752 715 716
f 752 751 715
f 716 712 748
f 716 748 752
f 754 753 717
f 754 717 718
f 717 755 719
f 753 755 717
f 719 756 720
f 755 756 719
f 720 757 721
f 756 757 720
f 722 721 757
f 722 757 758
f 759 754 718
f 759 718 723
f 760 723 724
f 760 759 723
f 761 724 725
f 761 760 724
f 762 725 726
f 762 761 725
f 726 722 758
f 726 758 762
f 729 763 730
f 763 731 730
f 733 764 763
f 733 763 729
f 764 734 731
f 764 731 763
f 736 765 764
f 736 764 733
f 765 737 734
f 765 734 764
f 739 766 765
f 739 765 736
f 766 740 737
f 766 737 765
f 741 766 739
f 766 741 740
f 768 767 743
f 768 743 744
f 743 769 745
f 767 769 743
f 745 770 746
f 769 770 745
f 746 771 747
f 770 771 746
f 748 747 771
f 748 771 772
f 773 768 744
f 773 744 749
f 774 749 750
f 774 773 749
f 775 750 751
f 775 774 750
f 776 751 752
f 776 775 751
f 752 748 772
f 752 772 776
f 778 777 753
f 778 753 754
f 753 779 755
f 777 779 753
f 755 780 756
f 779 780 755
f 756 781 757
f 780 781 756
f 758 757 781
f 758 781 782
f 783 778 754
f 783 754 759
f 784 759 760
f 784 783 759
f 785 760 761
f 785 784 760
f 786 761 762
f 786 785 761
f 762 758 782
f 762 782 786
f 788 787 767
f 788 767 768
f 767 789 769
f 787 789 767
f 769 790 770
f 789 790 769
f 770 791 771
f 790 791 770
f 772 771 791
f 772 791 792
f 793 788 768
f 793 768 773
f 794 773 774
f 794 793 773
f 795 774 775
f 795 794 774
f 796 775 776
f 796 795 775
f 776 772 792
f 776 792 796
f 798 797 777
f 798 777 778
f 777 799 779
f 797 799 777
f 779 800 780
f 799 800 779
f 780 801 781
f 800 801 780
f 782 781 801
f 782 801 802
f 803 798 778
f 803 778 783
f 804 783 784
f 804 803 783
f 805 784 785
f 805 804 784
f 806 785 786
f 806 805 785
f 786 782 802
f 786 802 806
f 808 807 787
f 808 787 788
f 787 809 789
f 807 809 787
f 789 810 790
f 809 810 789
f 790 811 791
f 810 811 790
f 792 791 811
f 792 811 812
f 813 808 788
f 813 788 793
f 814 793 794
f 814 813 793
f 815 794 795
f 815 814 794
f 816 795 796
f 816 815 795
f 796 792 812
f 796 812 816
f 818 817 797
f 818 797 798
f 797 819 799
f 817 819 797
f 799 820 800
f 819 820 799
f 800 821 801
f 820 821 800
f 802 801 821
f 802 821 822
f 823 818 798
f 823 798 803
f 824 803 804
f 824 823 803
f 825 804 805
f 825 824 804
f 826 805 806
f 826 825 805
f 806 802 822
f 806 822 826
f 828 827 807
f 828 807 808
f 807 829 809
f 827 829 807
f 809 830 810
f 829 830 809
f 810 831 811
f 830 831 810
f 812 811 831
f 812 831 832
f 833 828 808
f 833 808 813
f 834 813 814
f 834 833 813
f 835 814 815
f 835 834 814
f 836 815 816
f 836 835 815
f 816 812 832
f 816 832 836
f 818 837 817
f 838 819 817
f 838 817 837
f 839 820 819
f 839 819 838
f 840 821 820
f 840 820 839
f 840 822 821
f 837 818 823
f 843 842 841
f 845 844 843
f 842 843 844
f 837 824 838
f 824 837 823
f 847 846 845
f 844 845 846
f 838 825 839
f 825 838 824
f 849 848 847
f 846 847 848
f 839 826 840
f 826 839 825
f 826 822 840
f 848 849 850
f 841 842 851
f 841 851 852
f 853 842 844
f 851 842 853
f 854 844 846
f 853 844 854
f 855 846 848
f 854 846 855
f 848 850 856
f 848 856 855
f 852 851 857
f 852 857 858
f 859 851 853
f 857 851 859
f 860 853 854
f 859 853 860
f 861 854 855
f 860 854 861
f 855 856 862
f 855 862 861
f 858 857 863
f 858 863 864
f 865 857 859
f 863 857 865
f 866 859 860
f 865 859 866
f 867 860 861
f 866 860 867
f 861 862 868
f 861 868 867
f 864 863 869
f 864 869 870
f 871 863 865
f 869 863 871
f 872 865 866
f 871 865 872
f 873 866 867
f 872 866 873
f 867 868 874
f 867 874 873
f 870 869 875
f 870 875 876
f 877 869 871
f 875 869 877
f 878 871 872
f 877 871 878
f 879 872 873
f 878 872 879
f 873 874 880
f 873 880 879
f 876 875 881
f 876 881 882
f 883 875 877
f 881 875 883
f 884 877 878
f 883 877 884
f 885 878 879
f 884 878 885
f 879 880 886
f 879 886 885
f 882 881 887
f 882 887 888
f 889 881 883
f 887 881 889
f 890 883 884
f 889 883 890
f 891 884 885
f 890 884 891
f 885 886 892
f 885 892 891
f 888 887 893
f 888 893 894
f 895 887 889
f 893 887 895
f 896 889 890
f 895 889 896
f 897 890 891
f 896 890 897
f 891 892 898
f 891 898 897
f 894 893 899
f 894 899 900
f 901 893 895
f 899 893 901
f 902 895 896
f 901 895 902
f 903 896 897
f 902 896 903
f 897 898 904
f 897 904 903
f 900 899 905
f 900 905 906
f 907 899 901
f 905 899 907
f 908 901 902
f 907 901 908
f 909 902 903
f 908 902 909
f 903 904 910
f 903 910 909
f 906 905 911
f 906 911 912
f 913 905 907
f 911 905 913
f 914 907 908
f 913 907 914
f 915 908 909
f 914 908 915
f 909 910 916
f 909 916 915
f 912 911 917
f 912 917 918
f 919 911 913
f 917 911 919
f 920 913 914
f 919 913 920
f 921 914 915
f 920 914 921
f 915 916 922
f 915 922 921
f 918 917 923
f 918 923 924
f 925 917 919
f 923 917 925
f 926 919 920
f 925 919 926
f 927 920 921
f 926 920 927
f 921 922 928
f 921 928 927
f 924 923 929
f 924 929 930
f 931 923 925
f 929 923 931
f 932 925 926
f 931 925 932
f 933 926 927
f 932 926 933
f 927 928 934
f 927 934 933
f 930 929 935
f 930 935 936
f 937 929 931
f 935 929 937
f 938 931 932
f 937 931 938
f 939 932 933
f 938 932 939
f 933 934 940
f 933 940 939
f 936 935 941
f 936 941 942
f 943 935 937
f 941 935 943
f 944 937 938
f 943 937 944
f 945 938 939
f 944 938 945
f 939 940 946
f 939 946 945
f 942 941 947
f 942 947 948
f 949 941 943
f 947 941 949
f 950 943 944
f 949 943 950
f 951 944 945
f 950 944 951
f 945 946 952
f 945 952 951
f 827 828 953
f 947 954 948
f 954 949 955
f 949 954 947
f 956 829 953
f 827 953 829
f 955 950 957
f 950 955 949
f 958 830 956
f 829 956 830
f 957 951 959
f 951 957 950
f 960 831 958
f 830 958 831
f 951 952 959
f 831 960 832
f 833 953 828
f 953 833 834
f 953 834 956
f 956 834 835
f 956 835 958
f 958 835 836
f 958 836 960
f 960 836 832
f 841 961 843
f 962 845 843
f 962 843 961
f 963 847 845
f 963 845 962
f 964 849 847
f 964 847 963
f 964 850 849
f 852 965 961
f 852 961 841
f 961 966 962
f 961 965 966
f 962 967 963
f 962 966 967
f 963 968 964
f 963 967 968
f 968 856 850
f 968 850 964
f 858 969 965
f 858 965 852
f 965 970 966
f 965 969 970
f 966 971 967
f 966 970 971
f 967 972 968
f 967 971 972
f 972 862 856
f 972 856 968
f 864 973 969
f 864 969 858
f 969 974 970
f 969 973 974
f 970 975 971
f 970 974 975
f 971 976 972
f 971 975 976
f 976 868 862
f 976 862 972
f 870 977 973
f 870 973 864
f 973 978 974
f 973 977 978
f 974 979 975
f 974 978 979
f 975 980 976
f 975 979 980
f 980 874 868
f 980 868 976
f 876 981 977
f 876 977 870
f 977 982 978
f 977 981 982
f 978 983 979
f 978 982 983
f 979 984 980
f 979 983 984
f 984 880 874
f 984 874 980
f 882 985 981
f 882 981 876
f 981 986 982
f 981 985 986
f 982 987 983
f 982 986 987
f 983 988 984
f 983 987 988
f 988 886 880
f 988 880 984
f 888 989 985
f 888 985 882
f 985 990 986
f 985 989 990
f 986 991 987
f 986 990 991
f 987 992 988
f 987 991 992
f 992 892 886
f 992 886 988
f 894 993 989
f 894 989 888
f 989 994 990
f 989 993 994
f 990 995 991
f 990 994 995
f 991 996 992
f 991 995 996
f 996 898 892
f 996 892 992
f 900 997 993
f 900 993 894
f 993 998 994
f 993 997 998
f 994 999 995
f 994 998 999
f 995 1000 996
f 995 999 1000
f 1000 904 898
f 1000 898 996
f 906 1001 997
f 906 997 900
f 997 1002 998
f 997 1001 1002
f 998 1003 999
f 998 1002 1003
f 999 1004 1000
f 999 1003 1004
f 1004 910 904
f 1004 904 1000
f 912 1005 1001
f 912 1001 906
f 1001 1006 1002
f 1001 1005 1006
f 1002 1007 1003
f 1002 1006 1007
f 1003 1008 1004
f 1003 1007 1008
f 1008 916 910
f 1008 910 1004
f 918 1009 1005
f 918 1005 912
f 1005 1010 1006
f 1005 1009 1010
f 1006 1011 1007
f 1006 1010 1011
f 1007 1012 1008
f 1007 1011 1012
f 1012 922 916
f 1012 916 1008
f 924 1013 1009
f 924 1009 918
f 1009 1014 1010
f 1009 1013 1014
f 1010 1015 1011
f 1010 1014 1015
f 1011 1016 1012
f 1011 1015 1016
f 1016 928 922
f 1016 922 1012
f 930 1017 1013
f 930 1013 924
f 1013 1018 1014
f 1013 1017 1018
f 1014 1019 1015
f 1014 1018 1019
f 1015 1020 1016
f 1015 1019 1020
f 1020 934 928
f 1020 928 1016
f 936 1021 1017
f 936 1017 930
f 1017 1022 1018
f 1017 1021 1022
f 1018 1023 1019
f 1018 1022 1023
f 1019 1024 1020
f 1019 1023 1024
f 1024 940 934
f 1024 934 1020
f 942 1025 1021
f 942 1021 936
f 1021 1026 1022
f 1021 1025 1026
f 1022 1027 1023
f 1022 1026 1027
f 1023 1028 1024
f 1023 1027 1028
f 1028 946 940
f 1028 940 1024
f 948 1029 1025
f 948 1025 942
f 1025 1030 1026
f 1025 1029 1030
f 1026 1031 1027
f 1026 1030 1031
f 1027 1032 1028
f 1027 1031 1032
f 1032 952 946
f 1032 946 1028
f 954 1029 948
f 1029 954 955
f 1029 955 1030
f 1030 955 957
f 1030 957 1031
f 1031 957 959
f 1031 959 1032
f 1032 959 952
