v 4.9264373779296875 10.0 13.0
v 5.0 9.285063743591309 13.0
v 5.0 10.0 12.957152366638184
v 5.0 10.0 13.277363777160645
v 4.874126434326172 11.0 13.0
v 5.0 11.0 12.923556327819824
v 5.0 11.0 13.398065567016602
v 4.874126434326172 12.0 13.0
v 5.0 12.0 12.923556327819824
v 5.0 12.0 13.398065567016602
v 4.9264373779296875 13.0 13.0
v 5.0 13.0 12.957152366638184
v 5.0 13.0 13.277363777160645
v 5.0 13.714936256408691 13.0
v 5.398425102233887 8.0 13.0
v 6.0 7.684751987457275 13.0
v 6.0 8.0 12.827692985534668
v 6.0 8.0 13.581005096435547
v 5.0898332595825195 9.0 13.0
v 6.0 9.0 12.753678321838379
v 6.0 9.0 13.607929229736328
v 6.0 10.0 12.688765525817871
v 6.0 10.0 13.607929229736328
v 6.0 11.0 12.638998985290527
v 6.0 11.0 13.607929229736328
v 6.0 12.0 12.638998985290527
v 6.0 12.0 13.607929229736328
v 6.0 13.0 12.688765525817871
v 6.0 13.0 13.607929229736328
v 5.0898332595825195 14.0 13.0
v 6.0 14.0 12.753678321838379
v 6.0 14.0 13.607929229736328
v 5.398425102233887 15.0 13.0
v 6.0 15.0 12.827692985534668
v 6.0 15.0 13.581005096435547
v 6.0 15.315247535705566 13.0
v 7.0 7.516050338745117 13.0
v 7.0 8.0 12.637492179870605
v 7.0 8.0 13.607929229736328
v 7.0 9.0 12.064620018005371
v 7.0 9.0 13.607929229736328
v 6.702739238739014 10.0 12.0
v 7.0 9.068727493286133 12.0
v 7.0 10.0 11.76834487915039
v 7.0 10.0 13.607929229736328
v 6.638998985290527 11.0 12.0
v 7.0 11.0 11.706801414489746
v 7.0 11.0 13.607929229736328
v 6.638998985290527 12.0 12.0
v 7.0 12.0 11.706801414489746
v 7.0 12.0 13.607929229736328
v 6.702739238739014 13.0 12.0
v 7.0 13.0 11.76834487915039
v 7.0 13.0 13.607929229736328
v 7.0 13.931272506713867 12.0
v 7.0 14.0 12.064620018005371
v 7.0 14.0 13.607929229736328
v 7.0 15.0 12.637492179870605
v 7.0 15.0 13.607929229736328
v 7.0 15.483949661254883 13.0
v 7.941894054412842 8.0 12.0
v 8.0 7.960873603820801 12.0
v 8.0 8.0 11.9714994430542
v 8.0 7.221022605895996 13.0
v 8.0 8.0 13.607929229736328
v 7.064620018005371 9.0 12.0
v 8.0 9.0 11.601330757141113
v 8.0 9.0 13.607929229736328
v 7.9751877784729 10.0 11.0
v 8.0 9.95023250579834 11.0
v 8.0 10.0 10.970293998718262
v 8.0 10.0 13.607929229736328
v 7.71616268157959 11.0 11.0
v 8.0 11.0 10.634242057800293
v 8.0 11.0 13.607929229736328
v 7.71616268157959 12.0 11.0
v 8.0 12.0 10.634242057800293
v 8.0 12.0 13.607929229736328
v 7.9751877784729 13.0 11.0
v 8.0 13.0 10.970293998718262
v 8.0 13.0 13.607929229736328
v 8.0 13.04976749420166 11.0
v 7.064620018005371 14.0 12.0
v 8.0 14.0 11.601330757141113
v 8.0 14.0 13.607929229736328
v 7.941894054412842 15.0 12.0
v 8.0 15.0 11.9714994430542
v 8.0 15.0 13.607929229736328
v 8.0 15.0391263961792 12.0
v 8.0 15.778977394104004 13.0
v 8.434678077697754 7.0 13.0
v 9.0 6.887009143829346 13.0
v 9.0 7.0 12.777503967285156
v 9.0 7.0 13.363938331604004
v 9.0 7.5632219314575195 12.0
v 9.0 8.0 11.616976737976074
v 9.0 8.0 13.607929229736328
v 8.610983848571777 9.0 11.0
v 9.0 8.626486778259277 11.0
v 9.0 9.0 10.633041381835938
v 9.0 9.0 13.607929229736328
v 8.912840843200684 10.0 10.0
v 9.0 9.870540618896484 10.0
v 9.0 10.0 9.927350044250488
v 9.0 10.0 13.607929229736328
v 8.870540618896484 11.0 10.0
v 9.0 11.0 9.927350044250488
v 9.0 11.0 13.607929229736328
v 8.870540618896484 12.0 10.0
v 9.0 12.0 9.927350044250488
v 9.0 12.0 13.607929229736328
v 8.912840843200684 13.0 10.0
v 9.0 13.0 9.927350044250488
v 9.0 13.0 13.607929229736328
v 9.0 13.129459381103516 10.0
v 8.610983848571777 14.0 11.0
v 9.0 14.0 10.633041381835938
v 9.0 14.0 13.607929229736328
v 9.0 14.373513221740723 11.0
v 9.0 15.0 11.616976737976074
v 9.0 15.0 13.607929229736328
v 9.0 15.43677806854248 12.0
v 8.434678077697754 16.0 13.0
v 9.0 16.0 12.777503967285156
v 9.0 16.0 13.363938331604004
v 9.0 16.112991333007812 13.0
v 10.0 6.746700763702393 13.0
v 10.0 7.0 12.251459121704102
v 10.0 7.0 13.56751823425293
v 10.0 7.221365451812744 12.0
v 10.0 8.0 11.022930145263672
v 10.0 8.0 13.607929229736328
v 9.870540618896484 9.0 10.0
v 10.0 8.912840843200684 10.0
v 10.0 9.0 9.927350044250488
v 10.0 8.022930145263672 11.0
v 10.0 9.0 13.607929229736328
v 10.0 10.0 9.927350044250488
v 10.0 10.0 13.44986343383789
v 10.0 10.158858299255371 10.0
v 9.158858299255371 11.0 10.0
v 10.0 10.287881851196289 11.0
v 9.43392562866211 11.0 11.0
v 10.0 10.287881851196289 12.0
v 9.43392562866211 11.0 12.0
v 10.0 10.287881851196289 13.0
v 9.43392562866211 11.0 13.0
v 9.158858299255371 12.0 10.0
v 9.43392562866211 12.0 11.0
v 9.43392562866211 12.0 12.0
v 9.43392562866211 12.0 13.0
v 10.0 12.841141700744629 10.0
v 10.0 13.0 9.927350044250488
v 10.0 12.712118148803711 11.0
v 10.0 12.712118148803711 12.0
v 10.0 12.712118148803711 13.0
v 10.0 13.0 13.44986343383789
v 9.870540618896484 14.0 10.0
v 10.0 14.0 9.927350044250488
v 10.0 14.0 13.607929229736328
v 10.0 14.087159156799316 10.0
v 10.0 14.977069854736328 11.0
v 10.0 15.0 11.022930145263672
v 10.0 15.0 13.607929229736328
v 10.0 15.778635025024414 12.0
v 10.0 16.0 12.251459121704102
v 10.0 16.0 13.56751823425293
v 10.0 16.253299713134766 13.0
v 10.530197143554688 7.0 12.0
v 11.0 6.925443649291992 12.0
v 11.0 7.0 11.908892631530762
v 11.0 6.695538520812988 13.0
v 11.0 7.0 13.607929229736328
v 10.026777267456055 8.0 11.0
v 11.0 7.746603488922119 11.0
v 11.0 8.0 10.660137176513672
v 11.0 8.0 13.607929229736328
v 11.0 8.870540618896484 10.0
v 11.0 9.0 9.927350044250488
v 11.0 9.0 13.607929229736328
v 11.0 9.158858299255371 10.0
v 10.158858299255371 10.0 10.0
v 11.0 9.43392562866211 11.0
v 10.287881851196289 10.0 11.0
v 11.0 9.43392562866211 12.0
v 10.287881851196289 10.0 12.0
v 11.0 9.43392562866211 13.0
v 10.287881851196289 10.0 13.0
v 10.158858299255371 13.0 10.0
v 10.287881851196289 13.0 11.0
v 10.287881851196289 13.0 12.0
v 10.287881851196289 13.0 13.0
v 11.0 13.841141700744629 10.0
v 11.0 14.0 9.927350044250488
v 11.0 13.56607437133789 11.0
v 11.0 13.56607437133789 12.0
v 11.0 13.56607437133789 13.0
v 11.0 14.0 13.607929229736328
v 11.0 14.129459381103516 10.0
v 10.026777267456055 15.0 11.0
v 11.0 15.0 10.660137176513672
v 11.0 15.0 13.607929229736328
v 11.0 15.253396987915039 11.0
v 10.530197143554688 16.0 12.0
v 11.0 16.0 11.908892631530762
v 11.0 16.0 13.607929229736328
v 11.0 16.074556350708008 12.0
v 11.0 16.304462432861328 13.0
v 12.0 6.925443649291992 12.0
v 12.0 7.0 11.908892631530762
v 12.0 6.695538520812988 13.0
v 12.0 7.0 13.607929229736328
v 12.0 7.746603488922119 11.0
v 12.0 8.0 10.660137176513672
v 12.0 8.0 13.607929229736328
v 12.0 8.870540618896484 10.0
v 12.0 9.0 9.927350044250488
v 12.0 9.0 13.607929229736328
v 12.0 9.158858299255371 10.0
v 12.0 9.43392562866211 11.0
v 12.0 9.43392562866211 12.0
v 12.0 9.43392562866211 13.0
v 12.0 13.841141700744629 10.0
v 12.0 14.0 9.927350044250488
v 12.0 13.56607437133789 11.0
v 12.0 13.56607437133789 12.0
v 12.0 13.56607437133789 13.0
v 12.0 14.0 13.607929229736328
v 12.0 14.129459381103516 10.0
v 12.0 15.0 10.660137176513672
v 12.0 15.0 13.607929229736328
v 12.0 15.253396987915039 11.0
v 12.0 16.0 11.908892631530762
v 12.0 16.0 13.607929229736328
v 12.0 16.074556350708008 12.0
v 12.0 16.304462432861328 13.0
v 12.469802856445312 7.0 12.0
v 13.0 7.0 12.251459121704102
v 13.0 6.746700763702393 13.0
v 13.0 7.0 13.56751823425293
v 12.973222732543945 8.0 11.0
v 13.0 8.0 11.022930145263672
v 13.0 7.221365451812744 12.0
v 13.0 8.0 13.607929229736328
v 13.0 8.912840843200684 10.0
v 13.0 9.0 9.927350044250488
v 13.0 8.022930145263672 11.0
v 13.0 9.0 13.607929229736328
v 12.841141700744629 10.0 10.0
v 13.0 10.0 9.927350044250488
v 12.712118148803711 10.0 11.0
v 12.712118148803711 10.0 12.0
v 12.712118148803711 10.0 13.0
v 13.0 10.0 13.44986343383789
v 13.0 10.158858299255371 10.0
v 13.0 10.287881851196289 11.0
v 13.0 10.287881851196289 12.0
v 13.0 10.287881851196289 13.0
v 12.841141700744629 13.0 10.0
v 13.0 12.841141700744629 10.0
v 13.0 13.0 9.927350044250488
v 12.712118148803711 13.0 11.0
v 13.0 12.712118148803711 11.0
v 12.712118148803711 13.0 12.0
v 13.0 12.712118148803711 12.0
v 12.712118148803711 13.0 13.0
v 13.0 12.712118148803711 13.0
v 13.0 13.0 13.44986343383789
v 13.0 14.0 9.927350044250488
v 13.0 14.0 13.607929229736328
v 13.0 14.087159156799316 10.0
v 13.0 14.977069854736328 11.0
v 12.973222732543945 15.0 11.0
v 13.0 15.0 11.022930145263672
v 13.0 15.0 13.607929229736328
v 13.0 15.778635025024414 12.0
v 12.469802856445312 16.0 12.0
v 13.0 16.0 12.251459121704102
v 13.0 16.0 13.56751823425293
v 13.0 16.253299713134766 13.0
v 14.0 6.887009143829346 13.0
v 14.0 7.0 12.777503967285156
v 14.0 7.0 13.363938331604004
v 14.0 7.5632219314575195 12.0
v 14.0 8.0 11.616976737976074
v 14.0 8.0 13.607929229736328
v 13.129459381103516 9.0 10.0
v 14.0 9.0 10.633041381835938
v 14.0 8.626486778259277 11.0
v 14.0 9.0 13.607929229736328
v 14.0 9.870540618896484 10.0
v 14.0 10.0 9.927350044250488
v 14.0 10.0 13.607929229736328
v 13.841141700744629 11.0 10.0
v 14.0 11.0 9.927350044250488
v 13.56607437133789 11.0 11.0
v 13.56607437133789 11.0 12.0
v 13.56607437133789 11.0 13.0
v 14.0 11.0 13.607929229736328
v 13.841141700744629 12.0 10.0
v 14.0 12.0 9.927350044250488
v 13.56607437133789 12.0 11.0
v 13.56607437133789 12.0 12.0
v 13.56607437133789 12.0 13.0
v 14.0 12.0 13.607929229736328
v 14.0 13.0 9.927350044250488
v 14.0 13.0 13.607929229736328
v 14.0 13.129459381103516 10.0
v 13.129459381103516 14.0 10.0
v 14.0 14.0 10.633041381835938
v 14.0 14.0 13.607929229736328
v 14.0 14.373513221740723 11.0
v 14.0 15.0 11.616976737976074
v 14.0 15.0 13.607929229736328
v 14.0 15.43677806854248 12.0
v 14.0 16.0 12.777503967285156
v 14.0 16.0 13.363938331604004
v 14.0 16.112991333007812 13.0
v 14.565321922302246 7.0 13.0
v 15.0 7.960873603820801 12.0
v 15.0 8.0 11.9714994430542
v 15.0 7.221022605895996 13.0
v 15.0 8.0 13.607929229736328
v 14.389016151428223 9.0 11.0
v 15.0 9.0 11.601330757141113
v 15.0 9.0 13.607929229736328
v 14.087159156799316 10.0 10.0
v 15.0 10.0 10.970293998718262
v 15.0 9.95023250579834 11.0
v 15.0 10.0 13.607929229736328
v 14.129459381103516 11.0 10.0
v 15.0 11.0 10.634242057800293
v 15.0 11.0 13.607929229736328
v 14.129459381103516 12.0 10.0
v 15.0 12.0 10.634242057800293
v 15.0 12.0 13.607929229736328
v 14.087159156799316 13.0 10.0
v 15.0 13.0 10.970293998718262
v 15.0 13.0 13.607929229736328
v 15.0 13.04976749420166 11.0
v 14.389016151428223 14.0 11.0
v 15.0 14.0 11.601330757141113
v 15.0 14.0 13.607929229736328
v 15.0 15.0 11.9714994430542
v 15.0 15.0 13.607929229736328
v 15.0 15.0391263961792 12.0
v 15.0 15.778977394104004 13.0
v 14.565321922302246 16.0 13.0
v 15.05810546875 8.0 12.0
v 16.0 8.0 12.637492179870605
v 16.0 7.516050338745117 13.0
v 16.0 8.0 13.607929229736328
v 15.935379981994629 9.0 12.0
v 16.0 9.0 12.064620018005371
v 16.0 9.0 13.607929229736328
v 15.024811744689941 10.0 11.0
v 16.0 10.0 11.76834487915039
v 16.0 9.068727493286133 12.0
v 16.0 10.0 13.607929229736328
v 15.28383731842041 11.0 11.0
v 16.0 11.0 11.706801414489746
v 16.0 11.0 13.607929229736328
v 15.28383731842041 12.0 11.0
v 16.0 12.0 11.706801414489746
v 16.0 12.0 13.607929229736328
v 15.024811744689941 13.0 11.0
v 16.0 13.0 11.76834487915039
v 16.0 13.0 13.607929229736328
v 16.0 13.931272506713867 12.0
v 15.935379981994629 14.0 12.0
v 16.0 14.0 12.064620018005371
v 16.0 14.0 13.607929229736328
v 15.05810546875 15.0 12.0
v 16.0 15.0 12.637492179870605
v 16.0 15.0 13.607929229736328
v 16.0 15.483949661254883 13.0
v 17.0 7.684751987457275 13.0
v 17.0 8.0 12.827692985534668
v 17.0 8.0 13.581005096435547
v 17.0 9.0 12.753678321838379
v 17.0 9.0 13.607929229736328
v 16.297260284423828 10.0 12.0
v 17.0 10.0 12.688765525817871
v 17.0 10.0 13.607929229736328
v 16.361000061035156 11.0 12.0
v 17.0 11.0 12.638998985290527
v 17.0 11.0 13.607929229736328
v 16.361000061035156 12.0 12.0
v 17.0 12.0 12.638998985290527
v 17.0 12.0 13.607929229736328
v 16.297260284423828 13.0 12.0
v 17.0 13.0 12.688765525817871
v 17.0 13.0 13.607929229736328
v 17.0 14.0 12.753678321838379
v 17.0 14.0 13.607929229736328
v 17.0 15.0 12.827692985534668
v 17.0 15.0 13.581005096435547
v 17.0 15.315247535705566 13.0
v 17.60157585144043 8.0 13.0
v 17.910167694091797 9.0 13.0
v 18.0 9.285063743591309 13.0
v 18.0 10.0 12.957152366638184
v 18.0 10.0 13.277363777160645
v 18.0 11.0 12.923556327819824
v 18.0 11.0 13.398065567016602
v 18.0 12.0 12.923556327819824
v 18.0 12.0 13.398065567016602
v 18.0 13.0 12.957152366638184
v 18.0 13.0 13.277363777160645
v 18.0 13.714936256408691 13.0
v 17.910167694091797 14.0 13.0
v 17.60157585144043 15.0 13.0
v 18.073562622070312 10.0 13.0
v 18.125873565673828 11.0 13.0
v 18.125873565673828 12.0 13.0
v 18.073562622070312 13.0 13.0
f 3 2 1
f 4 1 2
f 3 1 5
f 3 5 6
f 1 4 7
f 1 7 5
f 6 5 8
f 6 8 9
f 5 7 10
f 5 10 8
f 9 8 11
f 9 11 12
f 8 10 13
f 8 13 11
f 14 12 11
f 14 11 13
f 17 16 15
f 18 15 16
f 17 15 19
f 17 19 20
f 15 18 21
f 15 21 19
f 20 19 2
f 3 20 2
f 22 20 3
f 4 2 19
f 21 4 19
f 23 4 21
f 6 22 3
f 6 24 22
f 23 7 4
f 25 7 23
f 9 24 6
f 9 26 24
f 25 10 7
f 27 10 25
f 12 26 9
f 12 28 26
f 27 13 10
f 29 13 27
f 12 14 30
f 31 12 30
f 28 12 31
f 32 30 14
f 13 32 14
f 29 32 13
f 31 30 33
f 31 33 34
f 30 32 35
f 30 35 33
f 36 34 33
f 36 33 35
f 38 37 16
f 38 16 17
f 18 16 37
f 18 37 39
f 20 38 17
f 20 40 38
f 39 21 18
f 41 21 39
f 44 43 42
f 43 40 42
f 40 22 42
f 40 20 22
f 41 23 21
f 45 23 41
f 44 42 46
f 44 46 47
f 24 46 22
f 22 46 42
f 45 25 23
f 48 25 45
f 47 46 49
f 47 49 50
f 26 49 24
f 24 49 46
f 48 27 25
f 51 27 48
f 50 49 52
f 50 52 53
f 28 52 26
f 26 52 49
f 51 29 27
f 54 29 51
f 55 53 52
f 52 28 55
f 28 56 55
f 28 31 56
f 54 32 29
f 57 32 54
f 34 56 31
f 34 58 56
f 57 35 32
f 59 35 57
f 60 58 34
f 60 34 36
f 36 35 59
f 36 59 60
f 63 62 61
f 37 38 61
f 62 37 61
f 64 37 62
f 39 37 64
f 39 64 65
f 63 61 66
f 63 66 67
f 40 66 38
f 38 66 61
f 65 41 39
f 68 41 65
f 71 70 69
f 69 70 67
f 69 67 66
f 44 69 66
f 43 44 66
f 43 66 40
f 68 45 41
f 72 45 68
f 71 69 73
f 71 73 74
f 47 73 44
f 44 73 69
f 72 48 45
f 75 48 72
f 74 73 76
f 74 76 77
f 50 76 47
f 47 76 73
f 75 51 48
f 78 51 75
f 77 76 79
f 77 79 80
f 53 79 50
f 50 79 76
f 78 54 51
f 81 54 78
f 82 80 79
f 84 82 83
f 83 82 55
f 82 79 55
f 79 53 55
f 56 83 55
f 81 57 54
f 85 57 81
f 84 83 86
f 84 86 87
f 58 86 56
f 56 86 83
f 85 59 57
f 88 59 85
f 89 87 86
f 89 86 58
f 60 89 58
f 90 89 60
f 60 59 88
f 60 88 90
f 93 92 91
f 94 91 92
f 96 95 62
f 96 62 63
f 91 64 93
f 64 95 93
f 64 62 95
f 65 64 91
f 94 65 91
f 97 65 94
f 100 99 98
f 99 96 98
f 96 67 98
f 96 63 67
f 97 68 65
f 101 68 97
f 104 103 102
f 102 103 100
f 102 100 98
f 71 102 98
f 70 71 98
f 70 98 67
f 101 72 68
f 105 72 101
f 104 102 106
f 104 106 107
f 74 106 71
f 71 106 102
f 105 75 72
f 108 75 105
f 107 106 109
f 107 109 110
f 77 109 74
f 74 109 106
f 108 78 75
f 111 78 108
f 110 109 112
f 110 112 113
f 80 112 77
f 77 112 109
f 111 81 78
f 114 81 111
f 115 113 112
f 117 115 116
f 116 115 82
f 115 112 82
f 112 80 82
f 84 116 82
f 114 85 81
f 118 85 114
f 119 117 116
f 116 84 119
f 84 120 119
f 84 87 120
f 118 88 85
f 121 88 118
f 122 120 87
f 122 87 89
f 124 122 123
f 122 90 123
f 122 89 90
f 125 123 90
f 88 125 90
f 121 125 88
f 126 124 123
f 126 123 125
f 128 127 92
f 128 92 93
f 94 92 127
f 94 127 129
f 131 130 95
f 131 95 96
f 93 95 128
f 128 95 130
f 129 97 94
f 132 97 129
f 135 134 133
f 99 100 133
f 134 99 133
f 136 99 134
f 96 99 131
f 131 99 136
f 132 101 97
f 137 101 132
f 135 133 103
f 104 135 103
f 138 135 104
f 103 133 100
f 137 105 101
f 139 105 137
f 107 141 140
f 138 107 140
f 104 107 138
f 143 142 141
f 141 142 140
f 145 144 143
f 143 144 142
f 147 146 145
f 145 146 144
f 139 146 147
f 108 139 147
f 105 139 108
f 110 148 141
f 110 141 107
f 141 149 143
f 141 148 149
f 143 150 145
f 143 149 150
f 145 151 147
f 145 150 151
f 151 111 108
f 151 108 147
f 153 152 148
f 110 153 148
f 113 153 110
f 148 152 149
f 149 152 154
f 149 154 150
f 150 154 155
f 150 155 151
f 151 155 156
f 111 151 156
f 157 111 156
f 114 111 157
f 113 115 158
f 159 113 158
f 153 113 159
f 117 158 115
f 157 118 114
f 160 118 157
f 161 159 158
f 161 158 117
f 119 161 117
f 162 161 119
f 119 120 162
f 162 120 163
f 160 121 118
f 164 121 160
f 165 163 120
f 165 120 122
f 122 124 165
f 165 124 166
f 164 125 121
f 167 125 164
f 168 166 124
f 168 124 126
f 126 125 167
f 126 167 168
f 171 170 169
f 127 128 169
f 170 127 169
f 172 127 170
f 129 127 172
f 129 172 173
f 176 175 174
f 174 175 171
f 174 171 169
f 131 174 169
f 130 131 169
f 130 169 128
f 173 132 129
f 177 132 173
f 179 178 134
f 179 134 135
f 174 136 176
f 136 178 176
f 136 134 178
f 136 174 131
f 177 137 132
f 180 137 177
f 138 182 181
f 179 138 181
f 135 138 179
f 184 183 182
f 182 183 181
f 186 185 184
f 184 185 183
f 188 187 186
f 186 187 185
f 180 187 188
f 139 180 188
f 137 180 139
f 140 182 138
f 182 140 142
f 182 142 184
f 184 142 144
f 184 144 186
f 186 144 146
f 186 146 188
f 188 146 139
f 153 189 152
f 190 154 152
f 190 152 189
f 191 155 154
f 191 154 190
f 192 156 155
f 192 155 191
f 192 157 156
f 194 193 189
f 153 194 189
f 159 194 153
f 189 193 190
f 190 193 195
f 190 195 191
f 191 195 196
f 191 196 192
f 192 196 197
f 157 192 197
f 198 157 197
f 160 157 198
f 199 194 159
f 199 159 161
f 201 199 200
f 199 162 200
f 199 161 162
f 163 200 162
f 198 164 160
f 202 164 198
f 203 201 200
f 205 203 204
f 204 203 165
f 203 200 165
f 200 163 165
f 166 204 165
f 202 167 164
f 206 167 202
f 207 205 204
f 207 204 166
f 168 207 166
f 208 207 168
f 168 167 206
f 168 206 208
f 210 209 170
f 210 170 171
f 170 211 172
f 209 211 170
f 173 172 211
f 173 211 212
f 214 213 175
f 214 175 176
f 171 175 210
f 210 175 213
f 212 177 173
f 215 177 212
f 217 216 178
f 217 178 179
f 176 178 214
f 214 178 216
f 215 180 177
f 218 180 215
f 219 217 179
f 219 179 181
f 220 181 183
f 220 219 181
f 221 183 185
f 221 220 183
f 222 185 187
f 222 221 185
f 187 180 218
f 187 218 222
f 224 223 193
f 224 193 194
f 193 225 195
f 223 225 193
f 195 226 196
f 225 226 195
f 196 227 197
f 226 227 196
f 198 197 227
f 198 227 228
f 229 224 194
f 229 194 199
f 199 201 229
f 229 201 230
f 228 202 198
f 231 202 228
f 232 230 201
f 232 201 203
f 203 205 232
f 232 205 233
f 231 206 202
f 234 206 231
f 235 233 205
f 235 205 207
f 236 207 208
f 236 235 207
f 208 206 234
f 208 234 236
f 210 237 209
f 209 237 238
f 239 209 238
f 211 209 239
f 212 211 239
f 212 239 240
f 214 241 213
f 241 242 213
f 213 242 210
f 242 243 210
f 243 237 210
f 237 243 238
f 240 215 212
f 244 215 240
f 246 245 216
f 246 216 217
f 214 216 241
f 216 247 241
f 216 245 247
f 241 247 242
f 244 218 215
f 248 218 244
f 217 219 249
f 250 217 249
f 246 217 250
f 220 251 219
f 219 251 249
f 221 252 220
f 220 252 251
f 222 253 221
f 221 253 252
f 254 253 222
f 218 254 222
f 248 254 218
f 255 250 249
f 255 249 251
f 255 251 256
f 256 251 252
f 256 252 257
f 257 252 253
f 257 253 258
f 258 253 254
f 261 260 259
f 263 262 259
f 263 259 260
f 265 264 262
f 265 262 263
f 267 266 264
f 267 264 265
f 268 266 267
f 261 259 223
f 224 261 223
f 269 261 224
f 223 259 225
f 225 259 262
f 225 262 226
f 226 262 264
f 226 264 227
f 227 264 266
f 228 227 266
f 268 228 266
f 270 228 268
f 271 269 224
f 271 224 229
f 273 272 230
f 272 229 230
f 272 271 229
f 273 274 272
f 270 231 228
f 275 231 270
f 232 273 230
f 277 276 233
f 233 276 232
f 276 274 232
f 274 273 232
f 277 278 276
f 275 234 231
f 279 234 275
f 235 277 233
f 280 278 277
f 235 280 277
f 236 280 235
f 236 234 279
f 236 279 280
f 282 281 239
f 282 239 238
f 240 239 281
f 240 281 283
f 285 284 243
f 285 243 242
f 238 243 282
f 282 243 284
f 283 244 240
f 286 244 283
f 246 287 245
f 245 287 288
f 289 245 288
f 247 245 289
f 242 247 285
f 285 247 289
f 286 248 244
f 290 248 286
f 292 291 287
f 246 292 287
f 250 292 246
f 287 291 288
f 290 254 248
f 293 254 290
f 250 255 294
f 295 250 294
f 292 250 295
f 256 296 255
f 255 296 294
f 257 297 256
f 256 297 296
f 258 298 257
f 257 298 297
f 299 298 258
f 254 299 258
f 293 299 254
f 295 294 300
f 295 300 301
f 302 294 296
f 300 294 302
f 303 296 297
f 302 296 303
f 304 297 298
f 303 297 304
f 298 299 305
f 298 305 304
f 301 300 260
f 261 301 260
f 306 301 261
f 260 300 263
f 263 300 302
f 263 302 265
f 265 302 303
f 265 303 267
f 267 303 304
f 268 267 304
f 305 268 304
f 307 268 305
f 269 309 308
f 306 269 308
f 261 269 306
f 309 310 308
f 307 270 268
f 311 270 307
f 271 309 269
f 312 310 309
f 271 312 309
f 272 312 271
f 272 274 312
f 312 274 313
f 311 275 270
f 314 275 311
f 315 313 274
f 315 274 276
f 276 278 315
f 315 278 316
f 314 279 275
f 317 279 314
f 318 316 278
f 318 278 280
f 280 279 317
f 280 317 318
f 282 319 281
f 319 283 281
f 321 320 284
f 321 284 285
f 282 284 319
f 284 322 319
f 284 320 322
f 283 319 322
f 323 283 322
f 286 283 323
f 288 324 289
f 324 325 289
f 325 285 289
f 325 321 285
f 323 290 286
f 326 290 323
f 292 327 291
f 327 328 291
f 291 328 288
f 328 329 288
f 329 324 288
f 324 329 325
f 326 293 290
f 330 293 326
f 295 331 327
f 295 327 292
f 328 327 332
f 332 327 331
f 330 299 293
f 333 299 330
f 301 334 331
f 301 331 295
f 332 331 335
f 335 331 334
f 333 305 299
f 336 305 333
f 306 337 334
f 306 334 301
f 335 334 338
f 338 334 337
f 336 307 305
f 339 307 336
f 308 337 306
f 341 340 310
f 310 340 308
f 340 338 308
f 338 337 308
f 341 342 340
f 339 311 307
f 343 311 339
f 312 341 310
f 312 313 341
f 313 342 341
f 313 344 342
f 343 314 311
f 345 314 343
f 346 344 313
f 346 313 315
f 348 347 316
f 347 315 316
f 347 346 315
f 345 347 348
f 317 345 348
f 314 345 317
f 318 348 316
f 348 318 317
f 321 349 320
f 320 349 350
f 351 320 350
f 322 320 351
f 323 322 351
f 323 351 352
f 325 353 349
f 325 349 321
f 350 349 354
f 354 349 353
f 352 326 323
f 355 326 352
f 328 356 329
f 356 357 329
f 329 357 325
f 357 358 325
f 358 353 325
f 353 358 354
f 355 330 326
f 359 330 355
f 332 360 356
f 332 356 328
f 357 356 361
f 361 356 360
f 359 333 330
f 362 333 359
f 335 363 360
f 335 360 332
f 361 360 364
f 364 360 363
f 362 336 333
f 365 336 362
f 338 366 363
f 338 363 335
f 364 363 367
f 367 363 366
f 365 339 336
f 368 339 365
f 340 366 338
f 370 369 342
f 342 369 340
f 369 367 340
f 367 366 340
f 370 371 369
f 368 343 339
f 372 343 368
f 344 373 370
f 344 370 342
f 371 370 374
f 374 370 373
f 372 345 343
f 375 345 372
f 346 373 344
f 376 374 373
f 346 376 373
f 347 376 346
f 347 345 375
f 347 375 376
f 378 377 351
f 378 351 350
f 352 351 377
f 352 377 379
f 354 378 350
f 354 380 378
f 379 355 352
f 381 355 379
f 357 382 358
f 382 383 358
f 383 354 358
f 383 380 354
f 381 359 355
f 384 359 381
f 361 385 382
f 361 382 357
f 383 382 386
f 386 382 385
f 384 362 359
f 387 362 384
f 364 388 385
f 364 385 361
f 386 385 389
f 389 385 388
f 387 365 362
f 390 365 387
f 367 391 388
f 367 388 364
f 389 388 392
f 392 388 391
f 390 368 365
f 393 368 390
f 369 391 367
f 369 371 391
f 371 392 391
f 371 394 392
f 393 372 368
f 395 372 393
f 374 394 371
f 374 396 394
f 395 375 372
f 397 375 395
f 398 396 374
f 398 374 376
f 376 375 397
f 376 397 398
f 378 399 377
f 399 379 377
f 380 400 399
f 380 399 378
f 400 381 379
f 400 379 399
f 402 401 400
f 380 402 400
f 383 402 380
f 381 400 401
f 403 381 401
f 384 381 403
f 386 402 383
f 386 404 402
f 403 387 384
f 405 387 403
f 389 404 386
f 389 406 404
f 405 390 387
f 407 390 405
f 392 406 389
f 392 408 406
f 407 393 390
f 409 393 407
f 394 411 410
f 408 394 410
f 392 394 408
f 409 410 411
f 395 409 411
f 393 409 395
f 396 412 411
f 396 411 394
f 412 397 395
f 412 395 411
f 398 412 396
f 412 398 397
f 402 413 401
f 413 403 401
f 404 414 413
f 404 413 402
f 414 405 403
f 414 403 413
f 406 415 414
f 406 414 404
f 415 407 405
f 415 405 414
f 408 416 415
f 408 415 406
f 416 409 407
f 416 407 415
f 410 416 408
f 416 410 409
